<svg xmlns="http://www.w3.org/2000/svg" xmlns:xlink="http://www.w3.org/1999/xlink" width="42.86" height="44.336" viewBox="0 0 42.86 44.336">
  <defs>
    <linearGradient id="linear-gradient" x1="0.5" x2="0.5" y2="1" gradientUnits="objectBoundingBox">
      <stop offset="0" stop-color="#c100d6"/>
      <stop offset="1" stop-color="#5f009e"/>
    </linearGradient>
  </defs>
  <path id="Caminho_712" data-name="Caminho 712" d="M101.474,16.306c1.589-3.893,3.8-6.455,6.267-6.864v9.713h-3.766a3.756,3.756,0,0,0-1.03-1.942,3.688,3.688,0,0,0-1.471-.908Zm-2.04,1.377a2.521,2.521,0,0,0-.3.15c-.038.023-.085.042-.122.066a2.466,2.466,0,0,0-.367.3,2.3,2.3,0,0,0-.639,2.1,1.033,1.033,0,0,0,.038.132,1.832,1.832,0,0,0,.089.287c.019.047.042.089.061.132a2.215,2.215,0,0,0,.141.254c.023.038.052.075.075.113l.085.127,0-.019a1.893,1.893,0,0,0,.15.179,2.339,2.339,0,1,0,1.655-4,2.349,2.349,0,0,0-.841.16l0-.009a.173.173,0,0,1-.038.028Zm5.359,22.928a3.742,3.742,0,0,1,2.952-2.966v-17.1h-3.77A3.74,3.74,0,0,1,99.532,23.5a47.017,47.017,0,0,0-.588,7.513,45.139,45.139,0,0,0,.987,9.6Zm9.144-23.4A3.759,3.759,0,0,1,115.4,16.3c-1.58-3.893-3.789-6.455-6.262-6.864v9.713h3.766a3.792,3.792,0,0,1,1.03-1.942Zm-1.81,23.4h4.823a45.142,45.142,0,0,0,.987-9.6,46.462,46.462,0,0,0-.592-7.513,3.741,3.741,0,0,1-4.443-2.957h-3.766V37.636a3.755,3.755,0,0,1,1.96,1.034,3.687,3.687,0,0,1,1.03,1.942Zm4.706-24.484a3.742,3.742,0,0,1,3.413,3.028H125.7a21.387,21.387,0,0,0-1.476-1.9,20.964,20.964,0,0,0-10.48-6.5,14.55,14.55,0,0,1,1.613,2.275,22.821,22.821,0,0,1,1.476,3.093ZM97.665,17.209a3.717,3.717,0,0,1,2.384-1.086,22.2,22.2,0,0,1,1.471-3.089,14.882,14.882,0,0,1,1.617-2.275,20.959,20.959,0,0,0-10.479,6.5,21.5,21.5,0,0,0-1.471,1.9h5.453a3.677,3.677,0,0,1,1.025-1.946Zm18.763,29.66a18.332,18.332,0,0,1-2.125,3.709c-.183.245-.371.475-.564.7a20.959,20.959,0,0,0,12.524-9.266h-8.2a29.731,29.731,0,0,1-1.631,4.861Zm-4.3-4.861a3.748,3.748,0,0,1-2.99,2.976V52.6c3.187-.526,5.938-4.645,7.484-10.582h-4.494Zm14.451-21.462h-6.333a3.733,3.733,0,0,1-1.584,2.4q.148.832.254,1.678c.1.715.179,1.41.23,2.092s.1,1.387.132,2.139.047,1.467.047,2.163a47.708,47.708,0,0,1-.747,8.538c-.061.357-.132.71-.207,1.058h8.674a21.018,21.018,0,0,0-.465-20.064ZM98.291,39.553a48.1,48.1,0,0,1-.747-8.538c0-.7.019-1.415.047-2.163s.08-1.467.141-2.139.132-1.378.226-2.092q.12-.846.254-1.678a3.8,3.8,0,0,1-1.575-2.4H90.3a20.988,20.988,0,0,0-.475,20.065H98.5q-.106-.522-.212-1.058Zm2.153,7.315a30.649,30.649,0,0,1-1.627-4.861h-8.2a21.239,21.239,0,0,0,2.05,2.774,20.871,20.871,0,0,0,10.47,6.492c-.188-.221-.376-.451-.564-.7a18.431,18.431,0,0,1-2.125-3.709Zm4.349-4.861h-4.532c1.547,5.942,4.3,10.056,7.484,10.582V44.974a3.742,3.742,0,0,1-2.952-2.966ZM114.919,18.2a2.34,2.34,0,1,0,3.31,3.31c.052-.052.094-.117.146-.174l0,.014a1.208,1.208,0,0,0,.07-.1,1.711,1.711,0,0,0,.1-.15,2.114,2.114,0,0,0,.122-.23c.023-.052.047-.1.07-.15a2.51,2.51,0,0,0,.089-.282c.009-.047.028-.089.038-.136a2.311,2.311,0,0,0,.047-.447,2.355,2.355,0,0,0-.682-1.655,2.48,2.48,0,0,0-.367-.3c-.042-.028-.085-.047-.127-.07a2.2,2.2,0,0,0-.3-.15.2.2,0,0,0-.033-.019l0,.009a2.343,2.343,0,0,0-.837-.16,2.372,2.372,0,0,0-1.664.686ZM110.8,41.307a2.335,2.335,0,1,0-.682,1.655A2.355,2.355,0,0,0,110.8,41.307Z" transform="translate(-87.006 -8.849)" stroke="rgba(0,0,0,0)" stroke-width="1" fill-rule="evenodd" fill="url(#linear-gradient)"/>
</svg>
