<svg width="16" height="16" viewBox="0 0 16 16" fill="none" xmlns="http://www.w3.org/2000/svg">
<path d="M7.99966 6.40025C8.40916 6.40025 8.81867 6.55625 9.13117 6.86875L15.5312 13.2688C16.1563 13.8938 16.1563 14.9068 15.5312 15.5312C14.9062 16.1562 13.8932 16.1562 13.2687 15.5312L8.00016 10.2628L2.73159 15.5312C2.10659 16.1562 1.09358 16.1562 0.469068 15.5312C-0.155939 14.9062 -0.155939 13.8933 0.469068 13.2688L6.86914 6.86875C7.18165 6.55625 7.59115 6.40025 8.00066 6.40025H7.99966ZM14.3997 9.60025C13.9902 9.60025 13.5807 9.44425 13.2682 9.13175L7.99966 3.86325L2.73109 9.13175C2.10609 9.75675 1.09308 9.75675 0.468568 9.13175C-0.155939 8.50675 -0.156439 7.49375 0.468568 6.86925L6.86814 0.46875C7.49315 -0.15625 8.50616 -0.15625 9.13117 0.46875L15.5312 6.86875C16.1563 7.49375 16.1563 8.50675 15.5312 9.13125C15.2187 9.44375 14.8092 9.59975 14.3997 9.59975V9.60025Z" fill="white"/>
</svg>
