<svg width="14" height="20" viewBox="0 0 14 20" fill="none" xmlns="http://www.w3.org/2000/svg">
<path d="M12.7496 0.738037H1.25326C0.561505 0.738037 0 1.29954 0 1.99129V18.0116C0 18.7033 0.561505 19.2619 1.25326 19.2619H12.7496C13.4385 19.2619 14 18.7033 14 18.0116V1.99129C14 1.29954 13.4414 0.738037 12.7496 0.738037ZM4.50651 16.8741C4.50651 17.1259 4.30391 17.3285 4.0521 17.3285H2.65123C2.39942 17.3285 2.19682 17.1259 2.19682 16.8741V15.6353C2.19682 15.3835 2.39942 15.1809 2.65123 15.1809H4.0521C4.30391 15.1809 4.50651 15.3835 4.50651 15.6353V16.8741ZM4.50651 13.4008C4.50651 13.6498 4.30391 13.8524 4.0521 13.8524H2.65123C2.39942 13.8524 2.19682 13.6498 2.19682 13.4008V12.1592C2.19682 11.9103 2.39942 11.7076 2.65123 11.7076H4.0521C4.30391 11.7076 4.50651 11.9103 4.50651 12.1592V13.4008ZM4.50651 9.92762C4.50651 10.1765 4.30391 10.3791 4.0521 10.3791H2.65123C2.39942 10.3791 2.19682 10.1765 2.19682 9.92762V8.68594C2.19682 8.43702 2.39942 8.23152 2.65123 8.23152H4.0521C4.30391 8.23152 4.50651 8.43702 4.50651 8.68594V9.92762ZM8.1534 16.8741C8.1534 17.1259 7.9508 17.3285 7.70188 17.3285H6.29812C6.0492 17.3285 5.8466 17.1259 5.8466 16.8741V15.6324C5.8466 15.3835 6.0492 15.1809 6.29812 15.1809H7.70188C7.9508 15.1809 8.1534 15.3835 8.1534 15.6324V16.8741ZM8.1534 13.4008C8.1534 13.6498 7.9508 13.8524 7.70188 13.8524H6.29812C6.0492 13.8524 5.8466 13.6498 5.8466 13.4008V12.1592C5.8466 11.9103 6.0492 11.7076 6.29812 11.7076H7.70188C7.9508 11.7076 8.1534 11.9103 8.1534 12.1592V13.4008ZM8.1534 9.92762C8.1534 10.1765 7.9508 10.3791 7.70188 10.3791H6.29812C6.0492 10.3791 5.8466 10.1765 5.8466 9.92762V8.68594C5.8466 8.43702 6.0492 8.23152 6.29812 8.23152H7.70188C7.9508 8.23152 8.1534 8.43702 8.1534 8.68594V9.92762ZM11.8032 16.8741C11.8032 17.1259 11.6006 17.3285 11.3517 17.3285H9.9479C9.69899 17.3285 9.49638 17.1259 9.49638 16.8741V15.6324C9.49638 15.3835 9.69899 15.1809 9.9479 15.1809H11.3517C11.6006 15.1809 11.8032 15.3835 11.8032 15.6324V16.8741ZM11.8032 13.4008C11.8032 13.6498 11.6006 13.8524 11.3517 13.8524H9.9479C9.69899 13.8524 9.49638 13.6498 9.49638 13.4008V12.1592C9.49638 11.9103 9.69899 11.7076 9.9479 11.7076H11.3517C11.6006 11.7076 11.8032 11.9103 11.8032 12.1592V13.4008ZM11.8032 9.92762C11.8032 10.1765 11.6006 10.3791 11.3517 10.3791H9.9479C9.69899 10.3791 9.49638 10.1765 9.49638 9.92762V8.68594C9.49638 8.43702 9.69899 8.23152 9.9479 8.23152H11.3517C11.6006 8.23152 11.8032 8.43702 11.8032 8.68594V9.92762ZM12.2634 5.61503C12.2634 6.00287 11.9479 6.31836 11.5601 6.31836H2.43994C2.0521 6.31836 1.73661 6.00287 1.73661 5.61503V3.17798C1.73661 2.79014 2.0521 2.47755 2.43994 2.47755H11.5601C11.9479 2.47755 12.2634 2.79014 12.2634 3.17798V5.61503Z" fill="white"/>
</svg>
