<svg width="14" height="16" viewBox="0 0 14 16" fill="none" xmlns="http://www.w3.org/2000/svg">
<path d="M1.81988 6.42906C1.81988 5.00258 2.97618 3.84629 4.40266 3.84629C5.82913 3.84629 6.98543 5.00258 6.98543 6.42906C6.98543 7.85551 5.82913 9.01183 4.40266 9.01183C2.97618 9.01183 1.81988 7.85554 1.81988 6.42906ZM5.49858 9.18795H3.30688C1.48351 9.18795 0 10.6714 0 12.4946V15.1755L0.0068666 15.2174L0.191916 15.2751C1.93173 15.8186 3.44378 16 4.68812 16C7.11851 16 8.52701 15.3069 8.61424 15.2629L8.78707 15.1752L8.80528 15.1754V12.4946C8.80528 10.6714 7.32181 9.18795 5.49858 9.18795ZM8.80528 5.16546C10.2317 5.16546 11.3881 4.00916 11.3881 2.58269C11.3881 1.1563 10.2317 0 8.80528 0C7.37892 0 6.22251 1.1563 6.22251 2.58269C6.22254 4.00916 7.37892 5.16546 8.80528 5.16546ZM9.90112 5.34155H7.70945C7.65716 5.34155 7.60625 5.34705 7.55466 5.34955C7.7528 5.76547 7.86715 6.22897 7.86715 6.71979C7.86715 7.62551 7.48725 8.4424 6.88016 9.02504C8.3007 9.4476 9.38659 10.654 9.63373 12.1406C11.7286 12.0491 12.9362 11.4572 13.0165 11.4166L13.1894 11.3288L13.2076 11.3292V8.6484C13.2079 6.82514 11.7244 5.34155 9.90112 5.34155Z" fill="white"/>
</svg>
