<svg width="16" height="16" viewBox="0 0 16 16" fill="none" xmlns="http://www.w3.org/2000/svg">
<path d="M8.00034 9.59975C7.59084 9.59975 7.18133 9.44375 6.86883 9.13125L0.468757 2.73125C-0.156251 2.10625 -0.156251 1.09325 0.468757 0.468749C1.09376 -0.156251 2.10678 -0.156251 2.73128 0.468749L7.99984 5.73725L13.2684 0.46875C13.8934 -0.15625 14.9064 -0.15625 15.5309 0.46875C16.1559 1.09375 16.1559 2.10675 15.5309 2.73125L9.13086 9.13125C8.81835 9.44375 8.40885 9.59975 7.99934 9.59975L8.00034 9.59975ZM1.60027 6.39975C2.00978 6.39975 2.41928 6.55575 2.73178 6.86825L8.00034 12.1367L13.2689 6.86825C13.8939 6.24325 14.9069 6.24325 15.5314 6.86825C16.1559 7.49325 16.1564 8.50625 15.5314 9.13075L9.13186 15.5312C8.50685 16.1562 7.49384 16.1562 6.86883 15.5312L0.468756 9.13125C-0.156251 8.50625 -0.156251 7.49325 0.468757 6.86875C0.78126 6.55625 1.19077 6.40025 1.60027 6.40025L1.60027 6.39975Z" fill="white"/>
</svg>
