<svg width="68" height="66" viewBox="0 0 68 66" fill="none" xmlns="http://www.w3.org/2000/svg">
<rect x="0.874023" width="66.2454" height="66" rx="10" fill="#61DCAB"/>
<path d="M34 20C34.5523 20 35 19.5523 35 19C35 18.4477 34.5523 18 34 18C33.4477 18 33 18.4477 33 19C33 19.5523 33.4477 20 34 20Z" fill="#00175D"/>
<path d="M36.5 30.5H31.5V31.5H36.5V30.5Z" fill="#00175D"/>
<path d="M25.5 24.8048V29.6798L29.175 27.7898H29.18C29.0575 27.3299 28.997 26.8557 29 26.3798V23.0098L25.5 24.8048Z" fill="#00175D"/>
<path d="M42.4998 24.8048L38.9998 23.0098V26.3798C39.003 26.8557 38.9425 27.3299 38.8198 27.7898H38.8248L42.4998 29.6798V24.8048Z" fill="#00175D"/>
<path d="M52.5 18H38.765C38.8912 18.6598 38.9647 19.3286 38.985 20H52.5C52.6325 20.0004 52.7594 20.0532 52.8531 20.1469C52.9468 20.2406 52.9996 20.3675 53 20.5V40.5C52.9996 40.6325 52.9468 40.7594 52.8531 40.8531C52.7594 40.9468 52.6325 40.9996 52.5 41H15.5C15.3675 40.9996 15.2406 40.9468 15.1469 40.8531C15.0532 40.7594 15.0004 40.6325 15 40.5V20.5C15.0004 20.3675 15.0532 20.2406 15.1469 20.1469C15.2406 20.0532 15.3675 20.0004 15.5 20H29.015C29.0353 19.3286 29.1088 18.6598 29.235 18H15.5C14.837 18.0002 14.2013 18.2637 13.7325 18.7325C13.2637 19.2013 13.0002 19.837 13 20.5V43H55V20.5C54.9998 19.837 54.7363 19.2013 54.2675 18.7325C53.7987 18.2637 53.163 18.0002 52.5 18Z" fill="#00175D"/>
<path d="M25 31C24.8678 30.9987 24.7414 30.9456 24.6479 30.8521C24.5544 30.7586 24.5013 30.6322 24.5 30.5V24.5C24.4996 24.4082 24.5247 24.318 24.5723 24.2395C24.62 24.1609 24.6884 24.0971 24.77 24.055L29 21.885V21H16V34.27C16.5474 33.773 17.2607 33.4984 18 33.5C18.2169 33.5005 18.4331 33.524 18.645 33.57C18.8278 33.01 19.1714 32.5162 19.6329 32.1501C20.0944 31.784 20.6534 31.5617 21.2403 31.5111C21.8272 31.4605 22.4161 31.5836 22.9335 31.8653C23.4509 32.1469 23.8739 32.5746 24.15 33.095C24.4287 33.0305 24.7139 32.9986 25 33C25.7988 33.0009 26.579 33.241 27.2402 33.6892C27.9014 34.1374 28.4133 34.7733 28.71 35.515C28.8063 35.5049 28.9031 35.4999 29 35.5C29.663 35.5002 30.2987 35.7637 30.7675 36.2325C31.2363 36.7013 31.4998 37.337 31.5 38C31.5 38.1326 31.4473 38.2598 31.3536 38.3536C31.2598 38.4473 31.1326 38.5 31 38.5C30.8674 38.5 30.7402 38.4473 30.6464 38.3536C30.5527 38.2598 30.5 38.1326 30.5 38C30.4994 37.67 30.3901 37.3493 30.189 37.0877C29.9878 36.826 29.706 36.638 29.3873 36.5526C29.0685 36.4672 28.7304 36.4892 28.4254 36.6153C28.1204 36.7414 27.8655 36.9644 27.7 37.25C27.6672 37.3068 27.6235 37.3566 27.5714 37.3965C27.5193 37.4364 27.4599 37.4657 27.3965 37.4826C27.3332 37.4995 27.2671 37.5038 27.202 37.4952C27.137 37.4867 27.0743 37.4653 27.0175 37.4325C26.9607 37.3997 26.9109 37.356 26.871 37.3039C26.8311 37.2518 26.8018 37.1924 26.7849 37.129C26.768 37.0657 26.7637 36.9996 26.7723 36.9345C26.7808 36.8695 26.8022 36.8068 26.835 36.75C27.0579 36.3696 27.3746 36.0529 27.755 35.83C27.5272 35.2874 27.1442 34.8243 26.654 34.4987C26.1639 34.1731 25.5884 33.9996 25 34C24.8205 33.999 24.6413 34.0158 24.465 34.05C24.4895 34.1987 24.5012 34.3493 24.5 34.5C24.5 34.6326 24.4473 34.7598 24.3536 34.8536C24.2598 34.9473 24.1326 35 24 35C23.8674 35 23.7402 34.9473 23.6464 34.8536C23.5527 34.7598 23.5 34.6326 23.5 34.5C23.5007 33.9938 23.3095 33.5062 22.9648 33.1354C22.6202 32.7647 22.1478 32.5384 21.6429 32.5022C21.1379 32.4661 20.6381 32.6227 20.2441 32.9406C19.8502 33.2584 19.5914 33.7139 19.52 34.215C19.5216 34.2503 19.5183 34.2856 19.51 34.32C19.505 34.38 19.5 34.44 19.5 34.5C19.4998 34.757 19.549 35.0116 19.645 35.25C19.6948 35.3734 19.6939 35.5114 19.6423 35.6341C19.5908 35.7568 19.493 35.8542 19.37 35.905C19.3112 35.9286 19.2484 35.9405 19.185 35.94C19.0849 35.9398 18.9872 35.9097 18.9044 35.8535C18.8215 35.7974 18.7573 35.7178 18.72 35.625C18.5836 35.2897 18.5107 34.9319 18.505 34.57C18.341 34.5219 18.1709 34.4983 18 34.5C17.7373 34.4999 17.4772 34.5516 17.2345 34.6521C16.9919 34.7526 16.7714 34.8999 16.5856 35.0856C16.3999 35.2714 16.2526 35.4919 16.1521 35.7345C16.0516 35.9772 15.9999 36.2373 16 36.5V40H52V36.5C52.0001 36.2373 51.9484 35.9772 51.8479 35.7345C51.7474 35.4919 51.6001 35.2714 51.4144 35.0856C51.2286 34.8999 51.0081 34.7526 50.7655 34.6521C50.5228 34.5516 50.2627 34.4999 50 34.5C49.8291 34.4983 49.659 34.5219 49.495 34.57C49.4893 34.9319 49.4164 35.2897 49.28 35.625C49.2427 35.7178 49.1785 35.7974 49.0956 35.8535C49.0128 35.9097 48.9151 35.9398 48.815 35.94C48.7516 35.9405 48.6888 35.9286 48.63 35.905C48.507 35.8542 48.4092 35.7568 48.3577 35.6341C48.3061 35.5114 48.3052 35.3734 48.355 35.25C48.451 35.0116 48.5002 34.757 48.5 34.5C48.5017 34.4431 48.4983 34.3863 48.49 34.33V34.32C48.4817 34.2856 48.4784 34.2503 48.48 34.215C48.4086 33.7139 48.1498 33.2584 47.7559 32.9406C47.3619 32.6227 46.8621 32.4661 46.3571 32.5022C45.8522 32.5384 45.3798 32.7647 45.0352 33.1354C44.6905 33.5062 44.4993 33.9938 44.5 34.5C44.5 34.6326 44.4473 34.7598 44.3536 34.8536C44.2598 34.9473 44.1326 35 44 35C43.8674 35 43.7402 34.9473 43.6464 34.8536C43.5527 34.7598 43.5 34.6326 43.5 34.5C43.4988 34.3493 43.5105 34.1987 43.535 34.05C43.3587 34.0158 43.1795 33.999 43 34C42.4116 33.9996 41.8361 34.1731 41.346 34.4987C40.8558 34.8243 40.4728 35.2874 40.245 35.83C40.6254 36.0529 40.9421 36.3696 41.165 36.75C41.1978 36.8068 41.2192 36.8695 41.2277 36.9345C41.2363 36.9996 41.232 37.0657 41.2151 37.129C41.1982 37.1924 41.1689 37.2518 41.129 37.3039C41.0891 37.356 41.0393 37.3997 40.9825 37.4325C40.9257 37.4653 40.863 37.4867 40.798 37.4952C40.7329 37.5038 40.6668 37.4995 40.6035 37.4826C40.5401 37.4657 40.4807 37.4364 40.4286 37.3965C40.3765 37.3566 40.3328 37.3068 40.3 37.25C40.1348 36.964 39.8799 36.7405 39.5748 36.6142C39.2696 36.4878 38.9314 36.4656 38.6123 36.5511C38.2933 36.6365 38.0114 36.8248 37.8103 37.0868C37.6092 37.3487 37.5001 37.6697 37.5 38C37.5 38.1326 37.4473 38.2598 37.3536 38.3536C37.2598 38.4473 37.1326 38.5 37 38.5C36.8674 38.5 36.7402 38.4473 36.6464 38.3536C36.5527 38.2598 36.5 38.1326 36.5 38C36.5002 37.337 36.7637 36.7013 37.2325 36.2325C37.7013 35.7637 38.337 35.5002 39 35.5C39.0969 35.4999 39.1937 35.5049 39.29 35.515C39.5867 34.7733 40.0986 34.1374 40.7598 33.6892C41.421 33.241 42.2012 33.0009 43 33C43.2861 32.9986 43.5713 33.0305 43.85 33.095C44.1261 32.5746 44.5491 32.1469 45.0665 31.8653C45.5839 31.5836 46.1728 31.4605 46.7597 31.5111C47.3466 31.5617 47.9056 31.784 48.3671 32.1501C48.8286 32.5162 49.1722 33.01 49.355 33.57C49.5669 33.524 49.7831 33.5005 50 33.5C50.7393 33.4984 51.4526 33.773 52 34.27V21H39V21.885L43.23 24.055C43.3116 24.0971 43.38 24.1609 43.4277 24.2395C43.4753 24.318 43.5004 24.4082 43.5 24.5V30.5C43.4987 30.6322 43.4456 30.7586 43.3521 30.8521C43.2586 30.9456 43.1322 30.9987 43 31C42.9202 30.999 42.8416 30.9802 42.77 30.945L38.48 28.74C38.2326 29.2769 37.9018 29.7714 37.5 30.205V32C37.4996 32.1325 37.4468 32.2594 37.3531 32.3531C37.2594 32.4468 37.1325 32.4996 37 32.5H31C30.8675 32.4996 30.7406 32.4468 30.6469 32.3531C30.5532 32.2594 30.5004 32.1325 30.5 32V30.205C30.0982 29.7714 29.7674 29.2769 29.52 28.74L25.23 30.945C25.1584 30.9802 25.0798 30.999 25 31ZM35.5 33.5C35.5 33.3674 35.5527 33.2402 35.6464 33.1464C35.7402 33.0527 35.8674 33 36 33C36.1326 33 36.2598 33.0527 36.3536 33.1464C36.4473 33.2402 36.5 33.3674 36.5 33.5V35C36.5 35.1326 36.4473 35.2598 36.3536 35.3536C36.2598 35.4473 36.1326 35.5 36 35.5C35.8674 35.5 35.7402 35.4473 35.6464 35.3536C35.5527 35.2598 35.5 35.1326 35.5 35V33.5ZM33.5 34C33.5 33.8674 33.5527 33.7402 33.6464 33.6464C33.7402 33.5527 33.8674 33.5 34 33.5C34.1326 33.5 34.2598 33.5527 34.3536 33.6464C34.4473 33.7402 34.5 33.8674 34.5 34V38C34.5 38.1326 34.4473 38.2598 34.3536 38.3536C34.2598 38.4473 34.1326 38.5 34 38.5C33.8674 38.5 33.7402 38.4473 33.6464 38.3536C33.5527 38.2598 33.5 38.1326 33.5 38V34ZM31.5 33.5C31.5 33.3674 31.5527 33.2402 31.6464 33.1464C31.7402 33.0527 31.8674 33 32 33C32.1326 33 32.2598 33.0527 32.3536 33.1464C32.4473 33.2402 32.5 33.3674 32.5 33.5V35C32.5 35.1326 32.4473 35.2598 32.3536 35.3536C32.2598 35.4473 32.1326 35.5 32 35.5C31.8674 35.5 31.7402 35.4473 31.6464 35.3536C31.5527 35.2598 31.5 35.1326 31.5 35V33.5Z" fill="#00175D"/>
<path d="M13 45.5C13.0002 46.163 13.2637 46.7987 13.7325 47.2675C14.2013 47.7363 14.837 47.9998 15.5 48H52.5C53.163 47.9998 53.7987 47.7363 54.2675 47.2675C54.7363 46.7987 54.9998 46.163 55 45.5V44H13V45.5ZM32.5 45.5H35.5C35.6326 45.5 35.7598 45.5527 35.8536 45.6464C35.9473 45.7402 36 45.8674 36 46C36 46.1326 35.9473 46.2598 35.8536 46.3536C35.7598 46.4473 35.6326 46.5 35.5 46.5H32.5C32.3674 46.5 32.2402 46.4473 32.1464 46.3536C32.0527 46.2598 32 46.1326 32 46C32 45.8674 32.0527 45.7402 32.1464 45.6464C32.2402 45.5527 32.3674 45.5 32.5 45.5Z" fill="#00175D"/>
<path d="M31.2151 29.5H36.7851C37.5642 28.6474 37.9974 27.5349 38.0001 26.38C38.0001 19.8853 38.0044 20.5 37.9901 20C37.9615 19.3279 37.8796 18.6591 37.7451 18C37.2324 15.342 35.9267 12.9016 34.0001 11C32.0735 12.9016 30.7679 15.342 30.2551 18C30.1206 18.6591 30.0387 19.3279 30.0101 20C29.9958 20.5 30.0001 19.884 30.0001 26.38C30.0025 27.535 30.4358 28.6476 31.2151 29.5ZM34.5001 26C34.5001 26.1326 34.4474 26.2598 34.3537 26.3536C34.2599 26.4473 34.1327 26.5 34.0001 26.5C33.8675 26.5 33.7403 26.4473 33.6466 26.3536C33.5528 26.2598 33.5001 26.1326 33.5001 26V22.5C33.5001 22.3674 33.5528 22.2402 33.6466 22.1464C33.7403 22.0527 33.8675 22 34.0001 22C34.1327 22 34.2599 22.0527 34.3537 22.1464C34.4474 22.2402 34.5001 22.3674 34.5001 22.5V26ZM34.0001 17C34.3957 17 34.7824 17.1173 35.1113 17.3371C35.4402 17.5568 35.6965 17.8692 35.8479 18.2346C35.9993 18.6001 36.0389 19.0022 35.9617 19.3902C35.8845 19.7781 35.694 20.1345 35.4143 20.4142C35.1346 20.6939 34.7783 20.8844 34.3903 20.9616C34.0023 21.0387 33.6002 20.9991 33.2348 20.8478C32.8693 20.6964 32.5569 20.44 32.3372 20.1111C32.1174 19.7822 32.0001 19.3956 32.0001 19C32.0007 18.4697 32.2116 17.9614 32.5866 17.5864C32.9615 17.2115 33.4699 17.0006 34.0001 17Z" fill="#00175D"/>
<path d="M41 53H39.425L38.76 49H29.24L28.575 53H27C26.8674 53 26.7402 53.0527 26.6464 53.1464C26.5527 53.2402 26.5 53.3674 26.5 53.5C26.5 53.6326 26.5527 53.7598 26.6464 53.8536C26.7402 53.9473 26.8674 54 27 54H41C41.1326 54 41.2598 53.9473 41.3536 53.8536C41.4473 53.7598 41.5 53.6326 41.5 53.5C41.5 53.3674 41.4473 53.2402 41.3536 53.1464C41.2598 53.0527 41.1326 53 41 53Z" fill="#00175D"/>
</svg>
