<svg width="68" height="66" viewBox="0 0 68 66" fill="none" xmlns="http://www.w3.org/2000/svg">
<rect x="0.874023" width="66.2454" height="66" rx="10" fill="#61DCAB"/>
<path d="M14 17V40.6719H54.4V17H14ZM18.8133 21.7344H28.282V24.1016H18.8133V21.7344ZM18.8133 26.4688H28.282V28.8359H18.8133V26.4688ZM49.5867 27.6523H47.2195V25.7752L38.9344 34.0604L34.2 29.326L25.2213 38.3047H18.8133V35.9375H24.2412L34.2 25.9787L38.9344 30.713L45.5459 24.1016H43.6688V21.7344H49.5867V27.6523Z" fill="#00175D"/>
<path d="M14 43.0391H54.4V47.7734H14V43.0391Z" fill="#00175D"/>
<path d="M40.1182 50.1406H28.2822V52.5078H23.5479V54.875C24.1688 54.875 45.0918 54.875 44.8525 54.875V52.5078H40.1182V50.1406Z" fill="#00175D"/>
</svg>
