<svg width="106" height="106" viewBox="0 0 106 106" fill="none" xmlns="http://www.w3.org/2000/svg">
<rect width="105.29" height="105.29" rx="13" fill="#61DCAB"/>
<path d="M79.2135 15.6533C78.7961 15.2358 78.2307 15.001 77.6393 15.001H30.7338C29.5032 15.001 28.5073 15.9968 28.5073 17.2275V39.6412C28.5073 40.8719 29.5032 41.8677 30.7338 41.8677H77.6393C78.2307 41.8677 78.7961 41.6329 79.2135 41.2153L90.3461 30.0827C91.2158 29.213 91.2158 27.8039 90.3461 26.9343L79.2135 15.6533ZM73.7358 26.4625L68.1695 34.2554C67.3655 35.3811 65.7523 35.5043 64.784 34.5359L60.3309 30.0829C59.4612 29.2132 59.4612 27.8041 60.3309 26.9344C61.2006 26.0647 62.6097 26.0647 63.4794 26.9344L66.0734 29.5285L70.1134 23.8752C70.8309 22.875 72.2225 22.6467 73.2183 23.3577C74.2185 24.0708 74.4511 25.4624 73.7358 26.4625Z" fill="#00175D"/>
<path d="M46.3197 46.3203V50.7734H28.359C27.7677 50.7734 27.2023 51.0082 26.7849 51.4257L15.6523 62.5584C14.7826 63.428 14.7826 64.8371 15.6523 65.7068L26.7849 76.9879C27.2023 77.4053 27.7677 77.6401 28.359 77.6401H75.2645C76.4952 77.6401 77.491 76.6442 77.491 75.4136V52.9999C77.491 51.7692 76.4952 50.7734 75.2645 50.7734H59.6788V46.3203H46.3197ZM44.3627 65.7067C45.2324 66.5763 45.2324 67.9854 44.3627 68.8551C43.493 69.7248 42.0839 69.7248 41.2143 68.8551L39.6401 67.281L38.0659 68.8551C37.1963 69.7248 35.7872 69.7248 34.9175 68.8551C34.0478 67.9854 34.0478 66.5763 34.9175 65.7067L36.4916 64.1325L34.9175 62.5584C34.0478 61.6887 34.0478 60.2796 34.9175 59.4099C35.7872 58.5402 37.1963 58.5402 38.0659 59.4099L39.6401 60.9841L41.2143 59.4099C42.0839 58.5402 43.493 58.5402 44.3627 59.4099C45.2324 60.2796 45.2324 61.6887 44.3627 62.5584L42.7886 64.1325L44.3627 65.7067Z" fill="#00175D"/>
<path d="M57.4525 90.9999C58.6821 90.9999 59.679 90.003 59.679 88.7733V82.0938H46.3198V88.7733C46.3198 90.003 47.3167 90.9999 48.5463 90.9999H57.4525Z" fill="#00175D"/>
</svg>
