<svg width="74" height="66" viewBox="0 0 74 66" fill="none" xmlns="http://www.w3.org/2000/svg">
<rect x="0.0820312" width="73.6059" height="66" rx="10" fill="#61DCAB"/>
<path d="M42.6249 16.3085H41.0463C39.8788 13.2296 35.0067 13.2314 33.8405 16.3085H32.2618V19.8702H42.6248L42.6249 16.3085Z" fill="#00175D"/>
<path d="M49.1013 16.3086H45.0432V20.9547C45.0432 21.5536 44.5017 22.0391 43.8338 22.0391H31.0521C30.3842 22.0391 29.8427 21.5536 29.8427 20.9547V16.3086H25.7846C23.6892 16.3086 21.9845 17.8372 21.9845 19.716V47.5926C21.9845 49.4942 23.7059 51 25.7846 51H49.1014C51.1833 51 52.9016 49.4914 52.9016 47.5926V19.716C52.9015 17.8372 51.1967 16.3086 49.1013 16.3086ZM33.1166 43.3413C33.5889 43.7647 33.5889 44.4513 33.1166 44.8748C32.6444 45.2983 31.8786 45.2984 31.4063 44.8748L30.3183 43.8993L29.2303 44.8748C28.0557 45.8532 26.4289 44.3949 27.52 43.3413L28.608 42.3658L27.52 41.3903C27.0477 40.9669 27.0477 40.2803 27.52 39.8568C27.9923 39.4333 28.758 39.4333 29.2303 39.8568L30.3183 40.8323L31.4063 39.8568C31.8786 39.4333 32.6443 39.4333 33.1166 39.8568C33.5889 40.2803 33.5889 40.9668 33.1166 41.3903L32.0286 42.3658L33.1166 43.3413ZM45.1292 44.108C45.0697 45.5453 42.7693 45.5442 42.7104 44.108V41.785C42.7104 39.1763 40.3565 37.0618 37.4429 37.0618C33.1983 37.0618 29.7567 33.9825 29.7567 30.1698V29.3032L29.2304 29.7751C28.7582 30.1986 27.9924 30.1986 27.5201 29.7751C27.0478 29.3516 27.0478 28.665 27.5201 28.2415L30.1109 25.9185C30.5831 25.495 31.3489 25.495 31.8212 25.9185L34.4119 28.2415C34.8842 28.665 34.8842 29.3516 34.4119 29.7751C33.9397 30.1985 33.1739 30.1987 32.7016 29.7751L32.1753 29.3032V30.1698C32.1753 32.7784 34.5293 34.893 37.4428 34.893C41.688 34.893 45.1291 37.9729 45.1291 41.785V44.108H45.1292ZM47.3658 29.403C47.8381 29.8265 47.8381 30.5131 47.3658 30.9366C46.8937 31.36 46.1278 31.3601 45.6555 30.9366L44.5675 29.961L43.4796 30.9366C43.0074 31.36 42.2416 31.3601 41.7693 30.9366C41.297 30.5131 41.297 29.8265 41.7693 29.403L42.8572 28.4275L41.7693 27.4519C41.297 27.0284 41.297 26.3418 41.7693 25.9183C42.2415 25.4948 43.0073 25.4948 43.4796 25.9183L44.5675 26.8939L45.6555 25.9183C46.1277 25.4948 46.8935 25.4948 47.3658 25.9183C47.8381 26.3418 47.8381 27.0284 47.3658 27.4519L46.2778 28.4275L47.3658 29.403Z" fill="#00175D"/>
</svg>
