<svg xmlns="http://www.w3.org/2000/svg" xmlns:xlink="http://www.w3.org/1999/xlink" width="101" height="101" viewBox="0 0 101 101">
  <defs>
    <linearGradient id="linear-gradient" x1="0.5" x2="0.5" y2="1" gradientUnits="objectBoundingBox">
      <stop offset="0" stop-color="#6316c9"/>
      <stop offset="1" stop-color="#2a1e87"/>
    </linearGradient>
  </defs>
  <g id="Grupo_506" data-name="Grupo 506" transform="translate(-268 -1716)">
    <rect id="Retângulo_399" data-name="Retângulo 399" width="101" height="101" rx="10" transform="translate(268 1716)" fill="url(#linear-gradient)"/>
    <g id="Icon_feather-users" data-name="Icon feather-users" transform="translate(295.963 1745.061)">
      <path id="Caminho_277" data-name="Caminho 277" d="M32.876,34.266V30.344A7.844,7.844,0,0,0,25.032,22.5H9.344A7.844,7.844,0,0,0,1.5,30.344v3.922" transform="translate(0 5.113)" fill="none" stroke="#fff" stroke-linecap="round" stroke-linejoin="round" stroke-width="6"/>
      <path id="Caminho_278" data-name="Caminho 278" d="M23.188,12.344A7.844,7.844,0,1,1,15.344,4.5,7.844,7.844,0,0,1,23.188,12.344Z" transform="translate(1.698 0)" fill="none" stroke="#fff" stroke-linecap="round" stroke-linejoin="round" stroke-width="6"/>
      <path id="Caminho_279" data-name="Caminho 279" d="M35.883,34.206V30.284A7.844,7.844,0,0,0,30,22.7" transform="translate(8.247 5.173)" fill="none" stroke="#fff" stroke-linecap="round" stroke-linejoin="round" stroke-width="6"/>
      <path id="Caminho_280" data-name="Caminho 280" d="M24,4.7a7.844,7.844,0,0,1,0,15.2" transform="translate(6.511 0.06)" fill="none" stroke="#fff" stroke-linecap="round" stroke-linejoin="round" stroke-width="6"/>
    </g>
  </g>
</svg>
