<svg xmlns="http://www.w3.org/2000/svg" xmlns:xlink="http://www.w3.org/1999/xlink" width="101" height="101" viewBox="0 0 101 101">
  <defs>
    <linearGradient id="linear-gradient" x1="0.5" x2="0.5" y2="1" gradientUnits="objectBoundingBox">
      <stop offset="0" stop-color="#6316c9"/>
      <stop offset="1" stop-color="#2a1e87"/>
    </linearGradient>
  </defs>
  <g id="Grupo_508" data-name="Grupo 508" transform="translate(-1258 -1716)">
    <rect id="Retângulo_400" data-name="Retângulo 400" width="101" height="101" rx="10" transform="translate(1258 1716)" fill="url(#linear-gradient)"/>
    <path id="Icon_awesome-angle-double-up" data-name="Icon awesome-angle-double-up" d="M18.514,24.8,32.738,39.025a2.5,2.5,0,0,1,0,3.546l-2.364,2.364a2.5,2.5,0,0,1-3.546,0L16.736,34.863,6.653,44.945a2.5,2.5,0,0,1-3.546,0L.734,42.581a2.5,2.5,0,0,1,0-3.546L14.958,24.812A2.5,2.5,0,0,1,18.514,24.8ZM14.958.721.734,14.944a2.5,2.5,0,0,0,0,3.546L3.1,20.854a2.5,2.5,0,0,0,3.546,0L16.725,10.771,26.808,20.854a2.5,2.5,0,0,0,3.546,0l2.364-2.364a2.5,2.5,0,0,0,0-3.546L18.493.721A2.487,2.487,0,0,0,14.958.721Z" transform="translate(1291.503 1743.517)" fill="none" stroke="#fff" stroke-width="6"/>
  </g>
</svg>
