<svg width="31" height="49" viewBox="0 0 31 49" fill="none" xmlns="http://www.w3.org/2000/svg">
<path d="M29.007 38.4393C27.942 40.1635 26.3827 41.5834 24.3288 42.6737C22.2624 43.764 19.8282 44.3726 17.001 44.4867V49H13.4386V44.4233C9.49573 44.0937 6.32626 42.9146 3.90479 40.8862C1.48331 38.8577 0.202846 36.1066 0.0633894 32.6075H10.2057C10.4339 34.8388 11.5115 36.2714 13.4386 36.9053V28.0942C10.5353 27.3462 8.22794 26.6235 6.49108 25.9136C4.76688 25.2036 3.24554 24.0753 1.95239 22.5159C0.646573 20.9565 0 18.814 0 16.1009C0 12.7159 1.25511 10.0028 3.76533 7.96171C6.27555 5.92057 9.49573 4.76688 13.4386 4.50065V0H17.001V4.51332C20.9058 4.81759 23.9865 5.94592 26.2559 7.911C28.5252 9.87607 29.7803 12.6145 30.0466 16.1009H19.8409C19.6127 14.0978 18.6745 12.792 17.001 12.1961V20.8424C20.0818 21.6919 22.4652 22.4652 24.1387 23.1245C25.8122 23.7964 27.3082 24.8994 28.6267 26.4461C29.9452 27.9928 30.6044 30.0973 30.6044 32.7723C30.6044 34.7881 30.0593 36.7405 29.007 38.4393ZM10.941 18.0153C11.5115 18.6492 12.3483 19.207 13.4259 19.6887V11.9426C12.3863 12.1327 11.5622 12.5257 10.979 13.147C10.3832 13.7555 10.0916 14.6049 10.0916 15.6825C10.0789 16.5953 10.3705 17.3814 10.941 18.0153ZM19.638 35.7389C20.2846 35.029 20.6142 34.1542 20.6142 33.1146C20.6142 32.1511 20.31 31.3651 19.6887 30.7439C19.0802 30.1353 18.1801 29.6028 16.9884 29.1591V37.0701C18.104 36.8926 18.9915 36.4489 19.638 35.7389Z" fill="white"/>
</svg>
