<svg width="43" height="43" viewBox="0 0 43 43" fill="none" xmlns="http://www.w3.org/2000/svg">
<path d="M32.1788 24.3194C30.658 24.39 29.1765 24.8256 27.8594 25.5893C29.5103 28.1495 30.3859 31.1324 30.381 34.1787V40.2549C30.3782 41.0794 30.1044 41.88 29.6017 42.5335H41.0143C41.4159 42.5335 41.8011 42.3745 42.0858 42.0913C42.3704 41.808 42.5314 41.4236 42.5334 41.0221V34.1408C42.5307 32.8062 42.2569 31.4862 41.7288 30.2606C41.2006 29.0351 40.429 27.9296 39.4607 27.0112C38.4925 26.0928 37.3477 25.3806 36.096 24.9179C34.8443 24.4552 33.5116 24.2516 32.1788 24.3194Z" fill="white"/>
<path d="M0 34.5428V40.2552C0 40.8595 0.240063 41.4391 0.667378 41.8664C1.09469 42.2937 1.67426 42.5338 2.27857 42.5338H26.5833C27.1877 42.5338 27.7672 42.2937 28.1945 41.8664C28.6218 41.4391 28.8619 40.8595 28.8619 40.2552V34.179C28.8619 30.3525 27.3421 26.6826 24.6368 23.9764C21.9314 21.2702 18.2621 19.7493 14.4355 19.748C14.2578 19.748 14.0816 19.748 13.9038 19.7572C6.23721 20.0298 0 26.6597 0 34.5428Z" fill="white"/>
<path d="M14.4307 18.2286C19.4644 18.2286 23.545 14.148 23.545 9.11429C23.545 4.08061 19.4644 0 14.4307 0C9.39701 0 5.31641 4.08061 5.31641 9.11429C5.31641 14.148 9.39701 18.2286 14.4307 18.2286Z" fill="white"/>
<path d="M32.6602 22.7852C36.016 22.7852 38.7364 20.0648 38.7364 16.709C38.7364 13.3532 36.016 10.6328 32.6602 10.6328C29.3044 10.6328 26.584 13.3532 26.584 16.709C26.584 20.0648 29.3044 22.7852 32.6602 22.7852Z" fill="white"/>
</svg>
