<svg width="540" height="361" viewBox="0 0 540 361" fill="none" xmlns="http://www.w3.org/2000/svg">
<path d="M0 0H500C522.091 0 540 17.9086 540 40V361H0V0Z" fill="url(#paint0_linear_2515_3695)"/>
<path d="M147.796 144.619C147.796 133.612 155.854 125.817 166.124 125.817C174.076 125.817 180.396 129.82 183.135 136.93H177.394C175.393 132.506 171.496 130.031 166.124 130.031C158.434 130.031 152.694 135.613 152.694 144.619C152.694 153.573 158.434 159.155 166.124 159.155C171.496 159.155 175.393 156.68 177.394 152.309H183.135C180.396 159.366 174.076 163.316 166.124 163.316C155.854 163.316 147.796 155.627 147.796 144.619ZM190.269 126.291H195.062V159.103H207.913V163H190.269V126.291ZM212.897 149.465V126.291H217.69V149.517C217.69 156.259 221.324 159.155 226.748 159.155C232.173 159.155 235.754 156.259 235.754 149.517V126.291H240.547V149.465C240.547 158.997 234.28 163.369 226.696 163.369C219.112 163.369 212.897 158.997 212.897 149.465ZM269.398 152.677C269.398 148.622 266.343 146.094 261.656 146.094H253.335V159.05H261.814C266.554 159.05 269.398 156.68 269.398 152.677ZM268.45 136.193C268.45 132.559 265.975 130.241 261.287 130.241H253.335V142.144H261.393C265.869 142.144 268.45 139.932 268.45 136.193ZM274.191 153.151C274.191 158.681 269.819 163 262.235 163H248.542V126.291H261.709C269.451 126.291 273.348 130.505 273.348 135.613C273.348 140.248 270.451 142.934 266.923 144.093C270.925 144.777 274.191 148.622 274.191 153.151ZM300.591 126.239V130.189H285.634V142.46H299.011V146.41H285.634V159.05H300.591V163H280.841V126.239H300.591ZM333.313 126.291C345.374 126.291 352.8 133.349 352.8 144.725C352.8 156.101 345.374 163 333.313 163H321.884V126.291H333.313ZM326.677 159.05H333.313C342.898 159.05 347.902 153.678 347.902 144.725C347.902 135.771 342.898 130.189 333.313 130.189H326.677V159.05ZM394.197 144.619C394.197 155.627 386.139 163.369 375.764 163.369C365.441 163.369 357.331 155.627 357.331 144.619C357.331 133.612 365.441 125.87 375.764 125.87C386.139 125.87 394.197 133.612 394.197 144.619ZM362.229 144.619C362.229 153.573 368.022 159.208 375.764 159.208C383.506 159.208 389.299 153.573 389.299 144.619C389.299 135.613 383.506 130.031 375.764 130.031C368.022 130.031 362.229 135.613 362.229 144.619Z" fill="white"/>
<path d="M144.075 227.118H161.758V241H125.73V182.496H144.075V227.118ZM185.875 182.496V241H167.531V182.496H185.875ZM253.077 182.496L233.411 241H209.695L190.029 182.496H209.53L221.594 222.738L233.576 182.496H253.077ZM286.6 241L275.61 220.011H275.528V241H257.183V182.496H284.452C289.19 182.496 293.239 183.35 296.599 185.058C299.959 186.711 302.466 188.997 304.119 191.916C305.826 194.781 306.68 198.031 306.68 201.667C306.68 205.578 305.578 209.049 303.375 212.079C301.226 215.109 298.114 217.285 294.037 218.607L306.763 241H286.6ZM275.528 207.782H282.799C284.562 207.782 285.884 207.396 286.766 206.625C287.647 205.799 288.088 204.532 288.088 202.824C288.088 201.281 287.62 200.07 286.683 199.188C285.802 198.307 284.507 197.866 282.799 197.866H275.528V207.782ZM330.472 182.496V215.467C330.472 218.166 331.05 220.314 332.207 221.912C333.419 223.454 335.347 224.226 337.991 224.226C340.635 224.226 342.591 223.454 343.858 221.912C345.125 220.314 345.759 218.166 345.759 215.467V182.496H364.02V215.467C364.02 221.031 362.864 225.796 360.55 229.762C358.236 233.673 355.069 236.62 351.047 238.604C347.026 240.587 342.536 241.578 337.578 241.578C332.62 241.578 328.213 240.587 324.357 238.604C320.556 236.62 317.581 233.673 315.433 229.762C313.284 225.851 312.21 221.086 312.21 215.467V182.496H330.472ZM392.26 226.374H415.727V241H371.932V227.2L395.069 197.04H371.932V182.496H415.727V196.296L392.26 226.374Z" fill="white"/>
<defs>
<linearGradient id="paint0_linear_2515_3695" x1="270" y1="0" x2="270" y2="361" gradientUnits="userSpaceOnUse">
<stop stop-color="#034C8C"/>
<stop offset="1" stop-color="#00175D"/>
</linearGradient>
</defs>
</svg>
