<svg width="540" height="361" viewBox="0 0 540 361" fill="none" xmlns="http://www.w3.org/2000/svg">
<path d="M0 0H500C522.091 0 540 17.9086 540 40V361H0V0Z" fill="url(#paint0_linear_2515_3694)"/>
<path d="M108.647 199.158H89.1454L86.2533 208H67L88.4017 149.496H109.556L130.875 208H111.539L108.647 199.158ZM104.184 185.359L98.896 169.08L93.6076 185.359H104.184ZM152.974 149.496V182.467C152.974 185.166 153.552 187.314 154.709 188.912C155.921 190.454 157.849 191.226 160.493 191.226C163.137 191.226 165.093 190.454 166.36 188.912C167.627 187.314 168.261 185.166 168.261 182.467V149.496H186.522V182.467C186.522 188.031 185.365 192.796 183.052 196.762C180.738 200.673 177.57 203.62 173.549 205.604C169.528 207.587 165.038 208.578 160.08 208.578C155.122 208.578 150.715 207.587 146.859 205.604C143.058 203.62 140.083 200.673 137.935 196.762C135.786 192.851 134.712 188.086 134.712 182.467V149.496H152.974ZM223.851 208L212.861 187.011H212.779V208H194.434V149.496H221.703C226.441 149.496 230.489 150.35 233.85 152.058C237.21 153.711 239.717 155.997 241.369 158.916C243.077 161.781 243.931 165.031 243.931 168.667C243.931 172.578 242.829 176.049 240.626 179.079C238.477 182.109 235.365 184.285 231.288 185.607L244.014 208H223.851ZM212.779 174.782H220.05C221.813 174.782 223.135 174.396 224.017 173.625C224.898 172.799 225.339 171.532 225.339 169.824C225.339 168.281 224.871 167.07 223.934 166.188C223.053 165.307 221.758 164.866 220.05 164.866H212.779V174.782ZM268.136 164.122V171.311H286.315V185.111H268.136V193.374H288.794V208H249.791V149.496H288.794V164.122H268.136ZM279.539 138.341L258.137 146.108V133.879L279.539 124.789V138.341ZM314.052 194.118H331.735V208H295.707V149.496H314.052V194.118ZM355.852 149.496V208H337.507V149.496H355.852ZM382.068 149.496V182.467C382.068 185.166 382.647 187.314 383.803 188.912C385.015 190.454 386.943 191.226 389.588 191.226C392.232 191.226 394.187 190.454 395.455 188.912C396.722 187.314 397.355 185.166 397.355 182.467V149.496H415.617V182.467C415.617 188.031 414.46 192.796 412.146 196.762C409.833 200.673 406.665 203.62 402.644 205.604C398.622 207.587 394.132 208.578 389.174 208.578C384.217 208.578 379.809 207.587 375.953 205.604C372.152 203.62 369.177 200.673 367.029 196.762C364.881 192.851 363.806 188.086 363.806 182.467V149.496H382.068ZM443.856 193.374H467.324V208H423.529V194.2L446.666 164.04H423.529V149.496H467.324V163.296L443.856 193.374Z" fill="white"/>
<defs>
<linearGradient id="paint0_linear_2515_3694" x1="270" y1="0" x2="270" y2="361" gradientUnits="userSpaceOnUse">
<stop stop-color="#034C8C"/>
<stop offset="1" stop-color="#00175D"/>
</linearGradient>
</defs>
</svg>
