<svg width="540" height="361" viewBox="0 0 540 361" fill="none" xmlns="http://www.w3.org/2000/svg">
<path d="M0 0H500C522.091 0 540 17.9086 540 40V361H0V0Z" fill="url(#paint0_linear_2515_3693)"/>
<path d="M176.791 130.189V126.291H201.649V130.189H191.643V163H186.85V130.189H176.791ZM227.193 137.088C227.193 132.927 224.876 130.241 219.399 130.241H212.341V144.145H219.399C224.823 144.145 227.193 141.196 227.193 137.088ZM207.549 126.291H219.399C228.036 126.291 232.144 131.084 232.144 137.088C232.144 141.775 229.563 146.252 223.401 147.621L232.618 163H226.877L218.135 147.99H212.341V163H207.549V126.291ZM274.667 144.619C274.667 155.627 266.609 163.369 256.234 163.369C245.911 163.369 237.8 155.627 237.8 144.619C237.8 133.612 245.911 125.87 256.234 125.87C266.609 125.87 274.667 133.612 274.667 144.619ZM242.698 144.619C242.698 153.573 248.492 159.208 256.234 159.208C263.976 159.208 269.769 153.573 269.769 144.619C269.769 135.613 263.976 130.031 256.234 130.031C248.492 130.031 242.698 135.613 242.698 144.619ZM280.994 163V126.291H301.745V130.189H285.787V142.565H298.743V146.463H285.787V163H280.994ZM327.283 126.239V130.189H312.326V142.46H325.703V146.41H312.326V159.05H327.283V163H307.533V126.239H327.283ZM310.799 120.761L322.017 114.178V118.339L310.799 124.343V120.761ZM334.43 149.465V126.291H339.222V149.517C339.222 156.259 342.856 159.155 348.281 159.155C353.706 159.155 357.287 156.259 357.287 149.517V126.291H362.08V149.465C362.08 158.997 355.812 163.369 348.228 163.369C340.644 163.369 334.43 158.997 334.43 149.465Z" fill="white"/>
<path d="M138.299 211.005C141.825 211.831 144.552 213.539 146.48 216.128C148.463 218.662 149.455 221.609 149.455 224.969C149.455 230.093 147.747 234.059 144.331 236.868C140.971 239.623 136.123 241 129.788 241H99.1316V182.496H128.962C134.911 182.496 139.594 183.791 143.009 186.38C146.425 188.969 148.132 192.743 148.132 197.701C148.132 201.116 147.224 204.008 145.406 206.377C143.643 208.691 141.274 210.233 138.299 211.005ZM117.476 205.303H124.582C126.235 205.303 127.447 204.972 128.218 204.311C129.044 203.65 129.458 202.631 129.458 201.254C129.458 199.822 129.044 198.775 128.218 198.114C127.447 197.398 126.235 197.04 124.582 197.04H117.476V205.303ZM125.822 226.291C127.474 226.291 128.686 225.988 129.458 225.383C130.284 224.721 130.697 223.675 130.697 222.242C130.697 219.433 129.072 218.028 125.822 218.028H117.476V226.291H125.822ZM185.036 241L174.045 220.011H173.963V241H155.618V182.496H182.887C187.625 182.496 191.674 183.35 195.034 185.058C198.394 186.711 200.901 188.997 202.554 191.916C204.261 194.781 205.115 198.031 205.115 201.667C205.115 205.578 204.013 209.049 201.81 212.079C199.661 215.109 196.549 217.285 192.472 218.607L205.198 241H185.036ZM173.963 207.782H181.234C182.997 207.782 184.319 207.396 185.201 206.625C186.082 205.799 186.523 204.532 186.523 202.824C186.523 201.281 186.055 200.07 185.118 199.188C184.237 198.307 182.942 197.866 181.234 197.866H173.963V207.782ZM248.491 232.158H228.989L226.097 241H206.844L228.246 182.496H249.4L270.719 241H251.383L248.491 232.158ZM244.028 218.359L238.74 202.08L233.452 218.359H244.028ZM333.803 182.496L314.137 241H290.421L270.755 182.496H290.256L302.32 222.738L314.302 182.496H333.803ZM355.841 182.496V215.467C355.841 218.166 356.419 220.314 357.576 221.912C358.788 223.454 360.716 224.226 363.36 224.226C366.005 224.226 367.96 223.454 369.227 221.912C370.494 220.314 371.128 218.166 371.128 215.467V182.496H389.389V215.467C389.389 221.031 388.233 225.796 385.919 229.762C383.605 233.673 380.438 236.62 376.416 238.604C372.395 240.587 367.905 241.578 362.947 241.578C357.989 241.578 353.582 240.587 349.726 238.604C345.925 236.62 342.95 233.673 340.802 229.762C338.653 225.851 337.579 221.086 337.579 215.467V182.496H355.841ZM417.629 226.374H441.096V241H397.301V227.2L420.438 197.04H397.301V182.496H441.096V196.296L417.629 226.374Z" fill="white"/>
<defs>
<linearGradient id="paint0_linear_2515_3693" x1="270" y1="0" x2="270" y2="361" gradientUnits="userSpaceOnUse">
<stop stop-color="#034C8C"/>
<stop offset="1" stop-color="#00175D"/>
</linearGradient>
</defs>
</svg>
