<svg width="80" height="37" viewBox="0 0 80 37" fill="none" xmlns="http://www.w3.org/2000/svg">
<g clip-path="url(#clip0_2938_4084)">
<path d="M1.36999 36.7535L1.3986 0.246338H76.37L79.733 7.20053L75.5165 18.5714L79.733 29.9424L76.4399 36.7535H1.36999Z" fill="white"/>
<path d="M76.2158 0.491277L79.466 7.21335L75.2543 18.5715L79.466 29.9297L76.2858 36.5071H1.61634L1.64495 0.491277H76.2158ZM76.5242 0H1.15385V0.491277L1.12524 36.5071V36.9984H1.61634H76.5941L76.7276 36.7202L79.9078 30.1428L79.9984 29.9536L79.9253 29.7564L75.7772 18.5684L79.9253 7.38028L79.9984 7.18314L79.9078 6.99394L76.6577 0.278231L76.5242 0Z" fill="#1D1D1B"/>
<path d="M1.64495 26.354H69.555L73.3598 36.5071H1.64495V26.354Z" fill="#9BB4C9"/>
<path d="M77.8051 29.3812L73.7969 18.5699L77.8051 7.76026L74.7266 1.37524L68.3519 18.5715L74.7266 35.7678L77.8051 29.3828V29.3812Z" fill="#9BB4C9"/>
<path d="M5.9679 18.9213L12.5842 16.4666L19.2006 18.9213L16.8833 20.039L12.5842 18.4444L8.28512 20.039L5.9679 18.9213Z" fill="white"/>
<path d="M5.9679 7.62673L8.28512 6.50903L12.5842 8.1037L16.8833 6.50903L19.2006 7.62673L12.5842 10.0815L5.9679 7.62673Z" fill="white"/>
<path d="M12.5842 16.3695L19.4294 18.9102V16.6318L12.5842 14.0928L5.73745 16.6318V18.9102L12.5842 16.3695Z" fill="#010101"/>
<path d="M12.5842 10.1769L5.73745 7.63623V9.91455L12.5842 12.4552L19.4294 9.91455V7.63623L12.5842 10.1769Z" fill="#010101"/>
<path d="M12.5842 16.5618L18.9717 18.9307L16.8785 19.9403L12.6462 18.3711L12.5842 18.3472L12.5222 18.3711L8.28986 19.9403L6.19673 18.9307L12.5842 16.5618ZM12.5842 16.3694L5.739 18.9084L8.28032 20.1343L12.5842 18.538L16.8881 20.1343L19.4294 18.9084L12.5842 16.3694Z" fill="#010101"/>
<path d="M8.28957 6.60596L12.5219 8.17518L12.5839 8.19903L12.6459 8.17518L16.8783 6.60596L18.9714 7.61554L12.5839 9.98448L6.19644 7.61554L8.28957 6.60596ZM16.8878 6.4104L12.5839 8.00665L8.28004 6.4104L5.73872 7.63621L12.5839 10.1753L19.4291 7.63621L16.8878 6.4104Z" fill="#010101"/>
<path d="M35.9027 11.5331C35.9409 11.673 36.0108 11.797 36.1109 11.9052C36.2889 12.0912 36.575 12.2692 37.1027 12.2692C37.8767 12.2692 38.1866 11.9592 38.1866 11.6492C38.1866 11.1531 37.4348 11.0371 36.6767 10.8749C35.9186 10.7127 35.1669 10.3948 35.1669 9.52031C35.1669 8.78419 35.8249 8.12598 37.0629 8.12598C37.9307 8.12598 38.4329 8.47416 38.719 8.82235C38.8891 9.03222 39.0051 9.26434 39.075 9.51872H38.1453C38.1071 9.41856 38.0451 9.31681 37.9514 9.23254C37.7972 9.08468 37.5254 8.93841 37.0614 8.93841C36.3573 8.93841 36.0935 9.17054 36.0935 9.48057C36.0935 9.82875 36.5194 9.99251 37.0455 10.1006C37.9355 10.2787 39.1132 10.4949 39.1132 11.611C39.1132 12.3853 38.4234 13.0833 37.0995 13.0833C36.1157 13.0833 35.5674 12.7033 35.2718 12.309C35.1017 12.0848 34.9857 11.8209 34.9317 11.5347H35.8996L35.9027 11.5331Z" fill="#010101"/>
<path d="M39.3484 8.28003H43.568V9.13221H41.9024V12.9273H41.0124V9.13221H39.3484V8.28003Z" fill="#010101"/>
<path d="M46.7419 10.9526L46.2381 9.13221H45.3862L44.8824 10.9526H46.7403H46.7419ZM44.76 8.28003H46.8659L48.1739 12.9273H47.2839L46.9739 11.8048H44.6519L44.342 12.9273H43.452L44.76 8.28003Z" fill="#010101"/>
<path d="M48.0579 8.28003H52.2759V9.13221H50.6119V12.9273H49.7219V9.13221H48.0579V8.28003Z" fill="#010101"/>
<path d="M53.7858 8.28003H52.8957V12.9273H53.7858V8.28003Z" fill="#010101"/>
<path d="M57.2314 12.2311C58.1993 12.2311 58.8954 11.5347 58.8954 10.6046C58.8954 9.67453 58.1993 8.97816 57.2314 8.97816C56.2635 8.97816 55.5674 9.67453 55.5674 10.6046C55.5674 11.5347 56.2635 12.2311 57.2314 12.2311ZM57.2314 8.12598C58.7413 8.12598 59.8252 9.21028 59.8252 10.6046C59.8252 11.999 58.7413 13.0833 57.2314 13.0833C55.7216 13.0833 54.6376 11.999 54.6376 10.6046C54.6376 9.21028 55.7216 8.12598 57.2314 8.12598Z" fill="#010101"/>
<path d="M60.6755 8.28003H61.8754L64.0051 11.7651H64.083L64.0051 11.1466V8.28003H64.8951V12.9273H63.6952L61.5655 9.44224H61.4892L61.5655 10.0623V12.9273H60.6755V8.28003Z" fill="#010101"/>
<path d="M25.5038 10.4695H24.466V9.34701H25.5038C25.8662 9.34701 26.138 9.58868 26.138 9.90825C26.138 10.2278 25.8646 10.4695 25.5038 10.4695ZM26.7848 11.3328C26.939 11.2581 27.0836 11.1515 27.2139 11.0148C27.5048 10.7143 27.6526 10.3423 27.6526 9.90825C27.6526 8.85892 26.8293 8.12598 25.6516 8.12598H22.9911V13.0833H24.4676V11.6555H25.3719L26.1777 13.0833H27.6653L26.7038 11.3725L26.7864 11.3328H26.7848Z" fill="#010101"/>
<path d="M29.8872 11.824V9.38187H30.4482C31.2238 9.38187 31.7053 9.8493 31.7053 10.6029C31.7053 11.3565 31.2238 11.824 30.4482 11.824H29.8872ZM33.2549 10.6029C33.2549 9.16724 32.09 8.12427 30.4847 8.12427H28.4107V13.0816H30.4847C32.09 13.0816 33.2549 12.0386 33.2549 10.6029Z" fill="#010101"/>
<path d="M22.9673 14.7208H24.6774C25.5722 14.7208 26.1507 15.2995 26.1507 16.0102C26.1507 16.7209 25.5722 17.2996 24.6774 17.2996H23.7572V18.4046H22.9673V14.7192V14.7208ZM24.6519 16.5635C25.0985 16.5635 25.3354 16.3266 25.3354 16.0102C25.3354 15.6938 25.0985 15.4569 24.6519 15.4569H23.7572V16.5619H24.6519V16.5635Z" fill="#010101"/>
<path d="M27.376 14.7207H29.0337L30.0079 18.4061H29.1926L28.9828 17.5905H27.4301L27.2203 18.4061H26.405L27.3792 14.7207H27.376ZM28.7969 16.8528L28.4282 15.4584H27.9816L27.6128 16.8528H28.7969Z" fill="#010101"/>
<path d="M30.5483 14.7207H32.2854C33.185 14.7207 33.7333 15.274 33.7333 15.9576C33.7333 16.5316 33.3646 16.91 32.891 17.0896L33.7333 18.4061H32.8385L32.0757 17.1946H31.3382V18.4061H30.5483V14.7207ZM32.2584 16.4585C32.705 16.4585 32.9164 16.2534 32.9164 15.9576C32.9164 15.6619 32.7066 15.4568 32.2584 15.4568H31.3382V16.4569H32.2584V16.4585Z" fill="#010101"/>
<path d="M34.1418 14.7207H37.2997V15.4584H36.1157V18.4061H35.3258V15.4584H34.1418V14.7207Z" fill="#010101"/>
<path d="M37.8655 14.7207H38.8922L40.3401 17.3265H40.3926L40.3401 16.8798V14.7207H41.13V18.4061H40.1033L38.6554 15.8002H38.603L38.6554 16.247V18.4061H37.8655V14.7207Z" fill="#010101"/>
<path d="M41.9851 14.7207H44.7473V15.4584H42.7734V16.1961H44.3516V16.8814H42.7734V17.6715H44.7473V18.4093H41.9851V14.7239V14.7207Z" fill="#010101"/>
<path d="M45.4736 14.7207H47.2107C48.1103 14.7207 48.6586 15.274 48.6586 15.9576C48.6586 16.5316 48.2899 16.91 47.8163 17.0896L48.6586 18.4061H47.7638L47.001 17.1946H46.2635V18.4061H45.4736V14.7207ZM47.1837 16.4585C47.6303 16.4585 47.8417 16.2534 47.8417 15.9576C47.8417 15.6619 47.6319 15.4568 47.1837 15.4568H46.2635V16.4569H47.1837V16.4585Z" fill="#010101"/>
<path d="M49.9619 17.247C49.9936 17.3519 50.0461 17.4473 50.1144 17.5252C50.2352 17.6683 50.4466 17.7987 50.8042 17.7987C51.3048 17.7987 51.4876 17.6143 51.4876 17.3774C51.4876 17.0514 50.9456 16.9465 50.3989 16.8034C49.8458 16.6715 49.3039 16.4028 49.3039 15.7446C49.3039 15.1388 49.8299 14.6125 50.7247 14.6125C51.4097 14.6125 51.788 14.9019 51.9978 15.1817C52.1186 15.3503 52.2028 15.5395 52.2505 15.7446H51.4352C51.4145 15.6651 51.3716 15.5967 51.3144 15.5347C51.2142 15.4298 51.041 15.3248 50.7247 15.3248C50.3036 15.3248 50.1192 15.5092 50.1192 15.7191C50.1192 15.9671 50.4244 16.0927 50.8137 16.1834C51.4447 16.336 52.3029 16.5204 52.3029 17.3519C52.3029 17.9672 51.7928 18.511 50.8026 18.511C50.0811 18.511 49.6504 18.2009 49.4294 17.8798C49.2928 17.6954 49.1974 17.4855 49.145 17.2486H49.9603L49.9619 17.247Z" fill="#010101"/>
<path d="M0 36.9999H1.61634V0.0634766H0.807374H0V36.9999Z" fill="#010101"/>
<path d="M50.7962 33.7614V34.2686H47.4571V33.8123L49.2737 31.8106C49.5184 31.5356 49.6964 31.2892 49.8077 31.0713C49.9174 30.8535 49.973 30.6341 49.973 30.4131C49.973 30.1285 49.8903 29.9107 49.7235 29.7581C49.5566 29.6055 49.3214 29.5307 49.0178 29.5307C48.5172 29.5307 48.0277 29.7295 47.5461 30.127L47.3172 29.6627C47.5238 29.4671 47.7813 29.3113 48.0928 29.1953C48.4043 29.0808 48.7174 29.022 49.0305 29.022C49.5057 29.022 49.8824 29.1444 50.1589 29.3892C50.4355 29.6341 50.5753 29.9664 50.5753 30.3829C50.5753 30.6818 50.5086 30.9696 50.3735 31.2446C50.2384 31.5197 50.0159 31.8265 49.7076 32.1652L48.2359 33.7614H50.7962Z" fill="#1D1D1B"/>
<path d="M52.0979 33.6517C51.7896 33.2002 51.6338 32.5436 51.6338 31.6787C51.6338 30.8138 51.788 30.1508 52.0979 29.6993C52.4062 29.2477 52.8576 29.022 53.452 29.022C54.0464 29.022 54.4962 29.2461 54.8061 29.6945C55.1144 30.1428 55.2702 30.8027 55.2702 31.6707C55.2702 32.5388 55.116 33.1986 54.8061 33.6502C54.4978 34.1017 54.0464 34.3274 53.452 34.3274C52.8576 34.3274 52.4078 34.1017 52.0979 33.6502V33.6517ZM54.3643 33.2988C54.5598 32.9506 54.6583 32.4084 54.6583 31.6723C54.6583 30.9362 54.5614 30.3909 54.3675 30.049C54.1736 29.7088 53.8684 29.5371 53.452 29.5371C53.0356 29.5371 52.7352 29.7088 52.5397 30.0522C52.3443 30.3956 52.2457 30.9346 52.2457 31.6707C52.2457 32.4069 52.3443 32.949 52.5397 33.2972C52.7352 33.6454 53.0404 33.8203 53.452 33.8203C53.8636 33.8203 54.1688 33.647 54.3643 33.2972V33.2988Z" fill="#1D1D1B"/>
<path d="M59.4771 33.7614V34.2686H56.138V33.8123L57.9545 31.8106C58.1993 31.5356 58.3773 31.2892 58.4886 31.0713C58.5982 30.8535 58.6538 30.6341 58.6538 30.4131C58.6538 30.1285 58.5712 29.9107 58.4043 29.7581C58.2374 29.6055 58.0022 29.5307 57.6987 29.5307C57.198 29.5307 56.7085 29.7295 56.227 30.127L55.9981 29.6627C56.2047 29.4671 56.4622 29.3113 56.7737 29.1953C57.0852 29.0808 57.3983 29.022 57.7114 29.022C58.1866 29.022 58.5633 29.1444 58.8398 29.3892C59.1163 29.6341 59.2562 29.9664 59.2562 30.3829C59.2562 30.6818 59.1894 30.9696 59.0544 31.2446C58.9193 31.5197 58.6968 31.8265 58.3884 32.1652L56.9167 33.7614H59.4771Z" fill="#1D1D1B"/>
<path d="M63.781 32.6436V33.1445H63.0006V34.2701H62.4046V33.1445H60.0064V32.6882L62.508 29.0823H63.0006V32.6436H63.781ZM60.6326 32.6436H62.4062V30.0903L60.6326 32.6436Z" fill="#1D1D1B"/>
<path d="M6.31755 29.0442H8.87317C9.45804 29.0442 9.91259 29.1936 10.2368 29.491C10.561 29.7883 10.7231 30.2016 10.7231 30.7311C10.7231 31.2605 10.5594 31.6675 10.232 31.968C9.90464 32.2685 9.45168 32.4179 8.87158 32.4179H7.69549V34.329H6.31596V29.0442H6.31755ZM8.68563 31.3829C8.93992 31.3829 9.12905 31.3305 9.25143 31.2255C9.37381 31.1206 9.43579 30.9584 9.43579 30.739C9.43579 30.5196 9.37381 30.3559 9.25143 30.2477C9.12905 30.1396 8.93992 30.0872 8.68563 30.0872H7.69707V31.3845H8.68563V31.3829Z" fill="#1D1D1B"/>
<path d="M11.3907 34.3292V29.0444H12.7702V33.2115H15.0191V34.3292H11.3922H11.3907Z" fill="#1D1D1B"/>
<path d="M19.7298 34.3292L19.2578 33.2354H16.9199L16.4479 34.3292H15.062L17.527 29.0444H18.6205L21.0935 34.3292H19.7298ZM17.3617 32.2004H18.816L18.0896 30.5055L17.3633 32.2004H17.3617Z" fill="#1D1D1B"/>
<path d="M21.9104 34.3292V30.1621H20.329V29.0444H24.8856V30.1621H23.3042V34.3292H21.9104Z" fill="#1D1D1B"/>
<path d="M25.4561 34.3292V29.0444H26.8357V34.3292H25.4561Z" fill="#1D1D1B"/>
<path d="M31.2174 29.0444H32.5064V34.3292H31.4876L29.075 31.3084V34.3292H27.794V29.0444H28.7985L31.219 32.0652V29.0444H31.2174Z" fill="#1D1D1B"/>
<path d="M34.0321 33.8125C33.6348 33.423 33.4361 32.8522 33.4361 32.1034V29.0444H34.7854V32.1559C34.7854 32.5358 34.8697 32.8284 35.0397 33.0335C35.2098 33.2386 35.4545 33.3403 35.774 33.3403C36.0935 33.3403 36.3382 33.2386 36.5083 33.0335C36.6783 32.8284 36.7626 32.5358 36.7626 32.1559V29.0444H38.1182V32.1034C38.1182 32.8475 37.9164 33.4166 37.5143 33.8093C37.1122 34.202 36.5321 34.3976 35.7724 34.3976C35.0127 34.3976 34.4278 34.202 34.0305 33.8125H34.0321Z" fill="#1D1D1B"/>
<path d="M43.3201 29.0443H44.3833V34.3291H43.185V31.5548L42.1662 33.4515H41.2826L40.2702 31.5993L40.2622 34.3275H39.0639V29.0427H40.151L41.7403 32.0492L43.3217 29.0427L43.3201 29.0443Z" fill="#1D1D1B"/>
</g>
<defs>
<clipPath id="clip0_2938_4084">
<rect width="80" height="37" fill="white"/>
</clipPath>
</defs>
</svg>
