<svg width="16" height="16" viewBox="0 0 16 16" fill="none" xmlns="http://www.w3.org/2000/svg">
<path d="M15.544 11.3065L12.044 9.80646C11.8945 9.74297 11.7284 9.7297 11.5707 9.76865C11.4129 9.8076 11.2721 9.89666 11.1693 10.0225L9.61867 11.9158C7.18599 10.7689 5.22825 8.81114 4.08133 6.37846L5.97467 4.82779C6.10082 4.72527 6.19015 4.58444 6.22912 4.42662C6.2681 4.2688 6.2546 4.10258 6.19067 3.95312L4.69067 0.453122C4.62024 0.292023 4.49578 0.160569 4.33877 0.0814538C4.18176 0.0023387 4.00205 -0.0194715 3.83067 0.0197887L0.581333 0.769122C0.416161 0.807367 0.268799 0.9004 0.163241 1.03307C0.0576837 1.16575 0.000147284 1.33025 6.13196e-08 1.49979C-0.000175063 3.40401 0.374759 5.28961 1.10339 7.04891C1.83202 8.80821 2.90008 10.4067 4.24656 11.7532C5.59305 13.0997 7.19158 14.1678 8.95088 14.8964C10.7102 15.625 12.5958 16 14.5 15.9998C14.6695 15.9996 14.834 15.9421 14.9667 15.8365C15.0994 15.731 15.1924 15.5836 15.2307 15.4185L15.9813 12.1678C16.0202 11.9956 15.9978 11.8152 15.918 11.6577C15.8381 11.5003 15.7059 11.3769 15.544 11.3065Z" fill="#61DCAB"/>
</svg>
