<svg width="12" height="17" viewBox="0 0 12 17" fill="none" xmlns="http://www.w3.org/2000/svg">
<path d="M5.38707 16.1823C0.837989 9.59814 0 8.91937 0 6.49999C0 4.90869 0.632141 3.38257 1.75736 2.25736C2.88258 1.13214 4.4087 0.5 6 0.5C7.5913 0.5 9.11742 1.13214 10.2426 2.25736C11.3679 3.38257 12 4.90869 12 6.49999C12 8.91937 11.162 9.59455 6.61293 16.1775C6.54382 16.2771 6.45165 16.3584 6.34429 16.4145C6.23693 16.4707 6.11757 16.5 5.99641 16.5C5.87525 16.5 5.75589 16.4707 5.64853 16.4145C5.54117 16.3584 5.449 16.2771 5.37989 16.1775L5.38707 16.1823ZM6.00359 8.99958C6.49781 8.99887 6.98073 8.85167 7.39131 8.57658C7.8019 8.30149 8.12172 7.91086 8.31036 7.45405C8.499 6.99725 8.54799 6.49478 8.45113 6.01014C8.35428 5.52551 8.11593 5.08046 7.76622 4.73124C7.4165 4.38202 6.97111 4.14432 6.48633 4.04816C6.00155 3.952 5.49915 4.00171 5.04262 4.19101C4.58608 4.3803 4.19591 4.70068 3.92141 5.11166C3.64691 5.52264 3.5004 6.00577 3.5004 6.49999C3.5004 7.16292 3.76375 7.7987 4.23252 8.26747C4.70128 8.73623 5.33706 8.99958 6 8.99958H6.00359Z" fill="#61DCAB"/>
</svg>
