<svg width="16" height="13" viewBox="0 0 16 13" fill="none" xmlns="http://www.w3.org/2000/svg">
<path d="M14.4 0H1.6C1.17704 0.00214786 0.772127 0.174301 0.473797 0.478815C0.175467 0.783329 0.00799477 1.19543 0.00800006 1.625L0 11.375C0 11.806 0.168571 12.2193 0.468629 12.524C0.617203 12.6749 0.793586 12.7946 0.987707 12.8763C1.18183 12.958 1.38988 13 1.6 13H14.4C14.8243 13 15.2313 12.8288 15.5314 12.524C15.8314 12.2193 16 11.806 16 11.375V1.625C16 1.19402 15.8314 0.780698 15.5314 0.475952C15.2313 0.171205 14.8243 0 14.4 0ZM14.4 3.25L8 7.3125L1.6 3.25V1.625L8 5.6875L14.4 1.625V3.25Z" fill="#61DCAB"/>
</svg>
