<svg width="561" height="149" viewBox="0 0 561 149" fill="none" xmlns="http://www.w3.org/2000/svg">
<path d="M0 0H521C543.091 0 561 17.9086 561 40V149H40C17.9086 149 0 131.091 0 109V0Z" fill="url(#paint0_linear_2160_8801)"/>
<path d="M235.48 38.8252V41.3918H228.89V63H225.734V41.3918H219.109V38.8252H235.48ZM252.094 63L246.337 53.115H242.522V63H239.365V38.8252H247.169C248.996 38.8252 250.534 39.1373 251.782 39.7617C253.054 40.386 254.002 41.23 254.626 42.2936C255.251 43.3572 255.563 44.5712 255.563 45.9354C255.563 47.6003 255.077 49.0686 254.106 50.3403C253.158 51.6121 251.725 52.456 249.805 52.8722L255.875 63H252.094ZM242.522 50.5831H247.169C248.88 50.5831 250.164 50.1669 251.019 49.3345C251.875 48.4789 252.303 47.3459 252.303 45.9354C252.303 44.5018 251.875 43.3919 251.019 42.6058C250.187 41.8196 248.904 41.4265 247.169 41.4265H242.522V50.5831ZM271.427 63.2428C269.184 63.2428 267.138 62.7225 265.288 61.682C263.438 60.6184 261.97 59.1501 260.883 57.2771C259.82 55.3811 259.288 53.2538 259.288 50.8953C259.288 48.5367 259.82 46.421 260.883 44.5481C261.97 42.652 263.438 41.1837 265.288 40.1432C267.138 39.0795 269.184 38.5477 271.427 38.5477C273.693 38.5477 275.751 39.0795 277.601 40.1432C279.451 41.1837 280.908 42.6404 281.971 44.5134C283.035 46.3863 283.567 48.5136 283.567 50.8953C283.567 53.2769 283.035 55.4042 281.971 57.2771C280.908 59.1501 279.451 60.6184 277.601 61.682C275.751 62.7225 273.693 63.2428 271.427 63.2428ZM271.427 60.5027C273.115 60.5027 274.63 60.1097 275.971 59.3235C277.335 58.5373 278.399 57.4159 279.162 55.9591C279.948 54.5024 280.341 52.8144 280.341 50.8953C280.341 48.9529 279.948 47.265 279.162 45.8314C278.399 44.3746 277.347 43.2532 276.006 42.467C274.665 41.6808 273.138 41.2878 271.427 41.2878C269.716 41.2878 268.19 41.6808 266.849 42.467C265.508 43.2532 264.444 44.3746 263.658 45.8314C262.895 47.265 262.514 48.9529 262.514 50.8953C262.514 52.8144 262.895 54.5024 263.658 55.9591C264.444 57.4159 265.508 58.5373 266.849 59.3235C268.213 60.1097 269.739 60.5027 271.427 60.5027ZM301.399 38.8252V41.3918H290.89V49.5426H299.422V52.1092H290.89V63H287.733V38.8252H301.399ZM308.367 41.3918V49.4732H317.177V52.0745H308.367V60.3987H318.218V63H305.211V38.7905H318.218V41.3918H308.367ZM314.749 33.5879L307.361 37.5419V35.1834L314.749 30.8479V33.5879ZM326.08 38.8252V54.1209C326.08 56.2713 326.6 57.8668 327.641 58.9073C328.705 59.9478 330.173 60.4681 332.046 60.4681C333.896 60.4681 335.341 59.9478 336.381 58.9073C337.445 57.8668 337.977 56.2713 337.977 54.1209V38.8252H341.133V54.0862C341.133 56.0979 340.728 57.7974 339.919 59.1848C339.11 60.549 338.012 61.5664 336.624 62.237C335.26 62.9075 333.722 63.2428 332.011 63.2428C330.3 63.2428 328.751 62.9075 327.364 62.237C325.999 61.5664 324.913 60.549 324.103 59.1848C323.317 57.7974 322.924 56.0979 322.924 54.0862V38.8252H326.08Z" fill="white"/>
<path d="M193.695 94.5575C196.017 95.1017 197.813 96.2263 199.082 97.9314C200.388 99.6002 201.041 101.541 201.041 103.754C201.041 107.128 199.917 109.74 197.667 111.59C195.454 113.404 192.262 114.311 188.09 114.311H167.901V75.7832H187.546C191.464 75.7832 194.547 76.6358 196.797 78.3409C199.046 80.046 200.171 82.5311 200.171 85.7962C200.171 88.0455 199.572 89.9501 198.375 91.5101C197.214 93.0338 195.654 94.0496 193.695 94.5575ZM179.982 90.8026H184.661C185.75 90.8026 186.548 90.585 187.056 90.1496C187.6 89.7143 187.872 89.0431 187.872 88.1362C187.872 87.1929 187.6 86.5036 187.056 86.0683C186.548 85.5966 185.75 85.3608 184.661 85.3608H179.982V90.8026ZM185.478 104.625C186.566 104.625 187.364 104.425 187.872 104.026C188.416 103.591 188.688 102.902 188.688 101.958C188.688 100.108 187.618 99.183 185.478 99.183H179.982V104.625H185.478ZM224.473 114.311L217.236 100.489H217.181V114.311H205.101V75.7832H223.059C226.179 75.7832 228.845 76.3456 231.058 77.4702C233.271 78.5586 234.922 80.0641 236.01 81.9869C237.135 83.8734 237.697 86.0138 237.697 88.4082C237.697 90.984 236.971 93.2696 235.52 95.2649C234.105 97.2603 232.056 98.6933 229.371 99.564L237.751 114.311H224.473ZM217.181 92.4352H221.97C223.131 92.4352 224.002 92.1812 224.582 91.6733C225.163 91.1292 225.453 90.2947 225.453 89.1701C225.453 88.1543 225.145 87.3562 224.528 86.7757C223.947 86.1952 223.095 85.905 221.97 85.905H217.181V92.4352ZM266.262 108.489H253.42L251.515 114.311H238.836L252.93 75.7832H266.861L280.901 114.311H268.167L266.262 108.489ZM263.324 99.4007L259.841 88.6803L256.358 99.4007H263.324ZM322.446 75.7832L309.494 114.311H293.876L280.925 75.7832H293.767L301.712 102.285L309.603 75.7832H322.446ZM336.959 75.7832V97.4961C336.959 99.2737 337.34 100.689 338.101 101.741C338.9 102.756 340.169 103.264 341.911 103.264C343.652 103.264 344.94 102.756 345.774 101.741C346.609 100.689 347.026 99.2737 347.026 97.4961V75.7832H359.052V97.4961C359.052 101.16 358.291 104.298 356.767 106.91C355.243 109.486 353.157 111.427 350.509 112.733C347.86 114.039 344.904 114.692 341.639 114.692C338.374 114.692 335.471 114.039 332.932 112.733C330.429 111.427 328.469 109.486 327.055 106.91C325.64 104.335 324.932 101.197 324.932 97.4961V75.7832H336.959ZM377.65 104.679H393.105V114.311H364.263V105.223L379.5 85.3608H364.263V75.7832H393.105V84.8711L377.65 104.679Z" fill="white"/>
<defs>
<linearGradient id="paint0_linear_2160_8801" x1="280.5" y1="0" x2="280.5" y2="149" gradientUnits="userSpaceOnUse">
<stop stop-color="#034C8C"/>
<stop offset="1" stop-color="#00175D"/>
</linearGradient>
</defs>
</svg>
