<svg xmlns="http://www.w3.org/2000/svg" width="31.639" height="71.086" viewBox="0 0 31.639 71.086">
  <g id="Grupo_23" data-name="Grupo 23" transform="translate(-525.454 221.665)">
    <path id="Caminho_75" data-name="Caminho 75" d="M559.822-51.911c-1.674,1.695-3.395,3.346-5.036,5.072-.6.632-.955.619-1.547,0-1.6-1.683-3.278-3.293-4.91-4.946-.728-.738-1.538-1.309-2.453-.446-1.006.948-.4,1.795.385,2.578,2.355,2.354,4.692,4.726,7.037,7.09h1.435q3.577-3.612,7.157-7.22c.758-.761,1.181-1.591.258-2.451C561.317-53.012,560.529-52.626,559.822-51.911Z" transform="translate(-12.716 -108.011)" fill="#fff"/>
    <path id="Caminho_76" data-name="Caminho 76" d="M559.862-77.738c-1.511,1.533-3.1,3-4.54,4.589-.893.985-1.48,1.188-2.461.061-1.41-1.62-3.01-3.074-4.539-4.588-.375-.372-.721-.824-1.361-.771a1.233,1.233,0,0,0-1.329.694,1.532,1.532,0,0,0,.376,1.94c2.293,2.273,4.568,4.563,6.854,6.843a1.546,1.546,0,0,0,2.482-.067q3.29-3.305,6.6-6.591c.766-.761,1.185-1.6.253-2.458C561.355-78.859,560.567-78.454,559.862-77.738Z" transform="translate(-12.769 -91.499)" fill="#fff"/>
    <path id="Caminho_77" data-name="Caminho 77" d="M557.082-206.014a15.826,15.826,0,0,0-13.994-15.572A15.8,15.8,0,0,0,525.877-209.2c-.856,4.2-.1,8.468-.363,11.9,0,3.971-.008,7.14,0,10.309A15.684,15.684,0,0,0,541.3-171.388,15.69,15.69,0,0,0,557.082-187Q557.1-196.506,557.082-206.014Zm-3.223,21.154c-.818,6.05-6.408,10.59-12.551,10.6a12.922,12.922,0,0,1-12.615-10.569c-.676-3.918-.078-7.867-.361-11.707.266-3.958-.3-7.846.367-11.705a12.934,12.934,0,0,1,12.678-10.5A12.968,12.968,0,0,1,553.9-208.266a18.528,18.528,0,0,1,.314,3.735C554.034-197.973,554.741-191.383,553.859-184.859Z" transform="translate(0 0)" fill="#fff"/>
    <path id="Caminho_78" data-name="Caminho 78" d="M568.241-192.208a1.313,1.313,0,0,0-1.425-1.452,1.3,1.3,0,0,0-1.435,1.434q-.027,2.849,0,5.7a1.307,1.307,0,0,0,1.42,1.455,1.311,1.311,0,0,0,1.439-1.438c.023-.949.005-1.9.005-2.849S568.26-191.259,568.241-192.208Z" transform="translate(-25.511 -17.899)" fill="#fff"/>
  </g>
</svg>
