<svg xmlns="http://www.w3.org/2000/svg" width="16.055" height="28" viewBox="0 0 16.055 28">
  <path id="Caminho_759" data-name="Caminho 759" d="M9.048-2.584c0-4.081-3.574-5.064-6.911-5.9v-6.94A10.736,10.736,0,0,1,7.2-13.754l.983-2.383a11.953,11.953,0,0,0-6.047-1.817V-21.32H.231v3.4c-4.617.387-6.732,2.949-6.732,5.9,0,4.051,3.455,5.094,6.732,5.9V.782A10.39,10.39,0,0,1-5.9-1.6L-7.007.723A12.048,12.048,0,0,0,.231,3.314V6.68H2.138V3.314C6.844,2.927,9.048.365,9.048-2.584Zm-12.63-9.562c0-1.579,1.162-2.919,3.813-3.247v6.434C-1.913-9.524-3.581-10.3-3.581-12.145ZM2.138.752v-6.4c2.2.6,3.992,1.34,3.992,3.247C6.129-.8,4.908.484,2.138.752Z" transform="translate(7.007 21.32)"/>
</svg>
