<svg xmlns="http://www.w3.org/2000/svg" xmlns:xlink="http://www.w3.org/1999/xlink" width="86" height="86" viewBox="0 0 86 86">
  <defs>
    <filter id="Elipse_60" x="0" y="0" width="86" height="86" filterUnits="userSpaceOnUse">
      <feOffset dy="3" input="SourceAlpha"/>
      <feGaussianBlur stdDeviation="3" result="blur"/>
      <feFlood flood-opacity="0.031"/>
      <feComposite operator="in" in2="blur"/>
      <feComposite in="SourceGraphic"/>
    </filter>
  </defs>
  <g id="Grupo_313" data-name="Grupo 313" transform="translate(8.958 6)">
    <g transform="matrix(1, 0, 0, 1, -8.96, -6)" filter="url(#Elipse_60)">
      <circle id="Elipse_60-2" data-name="Elipse 60" cx="34" cy="34" r="34" transform="translate(9 6)" fill="#221a61"/>
    </g>
    <path id="Caminho_392" data-name="Caminho 392" d="M-1491.469,536.8c.166-.219.323-.445.5-.656a5.257,5.257,0,0,0,1.114-2.926,29.473,29.473,0,0,1,.386-3.338,6.648,6.648,0,0,1,5.552-5c.607-.076,1.231-.021,1.846-.05a.516.516,0,0,0,.326-.2c1.423-1.855,2.805-3.742,4.263-5.569a68.347,68.347,0,0,1,7.435-8.1,19.046,19.046,0,0,1,4.454-3.192,5.676,5.676,0,0,1,2.488-.648,3.26,3.26,0,0,1,3.271,3.775,8.128,8.128,0,0,1-1.056,2.912,25.945,25.945,0,0,1-3.553,4.7,92.9,92.9,0,0,1-10.157,9.346c-.712.578-1.442,1.132-2.151,1.713a.5.5,0,0,0-.168.375,7.381,7.381,0,0,1-3.963,7.486,11.48,11.48,0,0,1-4.443,1.3,2.276,2.276,0,0,0-.266.056h-1.731a2.335,2.335,0,0,0-.268-.054,11.555,11.555,0,0,1-2.994-.683,1.381,1.381,0,0,1-.881-.747Zm17.962-12.276a.925.925,0,0,0,.078-.054,90.162,90.162,0,0,0,6.776-6.316,29.126,29.126,0,0,0,3.994-4.975,6.649,6.649,0,0,0,.97-2.418A1.453,1.453,0,0,0-1463.47,509a5.89,5.89,0,0,0-2.025.8,23.1,23.1,0,0,0-4.3,3.454,81.849,81.849,0,0,0-6.944,7.829.853.853,0,0,0-.075.129Zm-15.509,12.069c.133.036.221.064.311.084a10.276,10.276,0,0,0,6.294-.574,5.7,5.7,0,0,0,3.651-4.549,4.237,4.237,0,0,0-3.189-4.821,4.91,4.91,0,0,0-5.676,3.435,11.573,11.573,0,0,0-.31,2.226A8.455,8.455,0,0,1-1489.016,536.589Zm11.4-8.711,2.613-2.093-3.031-3.048-2.029,2.717A6.331,6.331,0,0,1-1477.616,527.878Z" transform="translate(1509.678 -488.947)" fill="#fff"/>
  </g>
</svg>
