<svg xmlns="http://www.w3.org/2000/svg" width="121" height="121" viewBox="0 0 121 121">
  <g id="Grupo_1432" data-name="Grupo 1432" transform="translate(-1039 -1285)">
    <g id="Elipse_71" data-name="Elipse 71" transform="translate(1039 1285)" fill="#58dbaa" stroke="#392ba1" stroke-width="5">
      <circle cx="60.5" cy="60.5" r="60.5" stroke="none"/>
      <circle cx="60.5" cy="60.5" r="58" fill="none"/>
    </g>
    <g id="noun-digital-3194287" transform="translate(966.814 1300.001)">
      <path id="Caminho_750" data-name="Caminho 750" d="M249.529,238.792a4.607,4.607,0,0,0-2.512.661,4.837,4.837,0,0,0-4.363-2.777,5.256,5.256,0,0,0-2.512.661,4.363,4.363,0,0,0-.925-1.322,4.8,4.8,0,0,0-3.438-1.454,3.963,3.963,0,0,0-1.983.4l.066-9.982a4.74,4.74,0,0,0-1.389-3.438,4.8,4.8,0,0,0-3.438-1.454,5,5,0,0,0-4.892,4.826l-.132,22.807-2.711-2.711a4.9,4.9,0,0,0-6.214-.595,4.936,4.936,0,0,0-1.058,7.206l5.222,6.214a1.409,1.409,0,1,0,2.182-1.785l-5.156-6.214a1.983,1.983,0,0,1-.463-1.587,1.954,1.954,0,0,1,.86-1.389,2.01,2.01,0,0,1,2.578.264l3.768,3.768a2.121,2.121,0,0,0,2.446.463,2.15,2.15,0,0,0,1.389-2.049l.132-24.262a1.989,1.989,0,0,1,1.983-1.983,1.8,1.8,0,0,1,1.389.595,2.374,2.374,0,0,1,.729,1.389l-.066,14.412v2.314a1.456,1.456,0,0,0,1.389,1.454,1.5,1.5,0,0,0,1.454-1.389v-2.314a2.033,2.033,0,0,1,1.983-1.983,1.8,1.8,0,0,1,1.389.595,1.9,1.9,0,0,1,.595,1.389v4.363a1.456,1.456,0,0,0,1.389,1.454,1.5,1.5,0,0,0,1.454-1.389V241.7a1.983,1.983,0,1,1,3.967,0V246a1.456,1.456,0,0,0,1.389,1.454,1.5,1.5,0,0,0,1.454-1.389v-2.248a1.983,1.983,0,0,1,3.967,0l-.066,13.486a1.456,1.456,0,0,0,1.389,1.454,1.5,1.5,0,0,0,1.454-1.389l.13-13.682a4.825,4.825,0,0,0-4.826-4.892Z" transform="translate(-96.416 -181.756)"/>
      <path id="Caminho_751" data-name="Caminho 751" d="M120.059,226.294a1.454,1.454,0,0,0,0-2.909h-7.338a4.671,4.671,0,1,0-4.429,6.082,4.621,4.621,0,0,0,4.429-3.305h7.338Zm-11.767.4a1.851,1.851,0,1,1,1.851-1.851A1.848,1.848,0,0,1,108.292,226.691Z" transform="translate(0 -181.753)"/>
      <path id="Caminho_752" data-name="Caminho 752" d="M457.862,220.639a4.621,4.621,0,0,0-4.429,3.305h-7.338a1.454,1.454,0,0,0,0,2.909h7.338a4.663,4.663,0,0,0,9.123-1.389,4.828,4.828,0,0,0-4.694-4.826Zm0,6.545a1.851,1.851,0,1,1,1.851-1.851A1.807,1.807,0,0,1,457.862,227.184Z" transform="translate(-300.782 -182.246)"/>
      <path id="Caminho_753" data-name="Caminho 753" d="M313.953,23.122V30.46a1.454,1.454,0,0,0,2.909,0V23.122a4.671,4.671,0,1,0-6.082-4.429,4.507,4.507,0,0,0,3.174,4.429Zm1.454-6.281a1.851,1.851,0,1,1-1.851,1.851,1.892,1.892,0,0,1,1.851-1.851Z" transform="translate(-182.721)"/>
      <path id="Caminho_754" data-name="Caminho 754" d="M168.276,84.356a4.362,4.362,0,0,0,2.116-.529l5.222,5.222a1.458,1.458,0,0,0,.991.4,1.345,1.345,0,0,0,.991-.4,1.438,1.438,0,0,0,0-1.983l-5.222-5.222a4.771,4.771,0,0,0,.529-2.116,4.694,4.694,0,1,0-4.628,4.628Zm0-6.545a1.851,1.851,0,1,1-1.851,1.851A1.892,1.892,0,0,1,168.276,77.812Z" transform="translate(-52.844 -53.83)"/>
      <path id="Caminho_755" data-name="Caminho 755" d="M415.225,88.957a1.345,1.345,0,0,0,.991-.4l5.222-5.222a4.771,4.771,0,0,0,2.116.529,4.694,4.694,0,1,0-4.694-4.694,4.362,4.362,0,0,0,.529,2.116l-5.156,5.222a1.438,1.438,0,0,0,0,1.983,1.19,1.19,0,0,0,.992.463Zm8.33-11.635a1.851,1.851,0,1,1-1.851,1.851A1.892,1.892,0,0,1,423.555,77.322Z" transform="translate(-273.615 -53.34)"/>
    </g>
  </g>
</svg>
