<svg xmlns="http://www.w3.org/2000/svg" width="28.571" height="25" viewBox="0 0 28.571 25">
  <path id="Icon_awesome-bars" data-name="Icon awesome-bars" d="M1.02,8.811H27.551a1.02,1.02,0,0,0,1.02-1.02V5.239a1.02,1.02,0,0,0-1.02-1.02H1.02A1.02,1.02,0,0,0,0,5.239V7.79A1.02,1.02,0,0,0,1.02,8.811Zm0,10.2H27.551a1.02,1.02,0,0,0,1.02-1.02V15.443a1.02,1.02,0,0,0-1.02-1.02H1.02A1.02,1.02,0,0,0,0,15.443v2.551A1.02,1.02,0,0,0,1.02,19.015Zm0,10.2H27.551a1.02,1.02,0,0,0,1.02-1.02V25.647a1.02,1.02,0,0,0-1.02-1.02H1.02A1.02,1.02,0,0,0,0,25.647V28.2A1.02,1.02,0,0,0,1.02,29.219Z" transform="translate(0 -4.219)" fill="#fff"/>
</svg>
