<svg xmlns="http://www.w3.org/2000/svg" width="58.293" height="50.564" viewBox="0 0 58.293 50.564">
  <g id="noun-cart-4896132" transform="translate(0 0)">
    <path id="Caminho_713" data-name="Caminho 713" d="M134.17,50.337l-4.867,23.9a1.094,1.094,0,0,1-1.065.874H102.182a1.1,1.1,0,0,1-1.081-.94l-3.39-23.9a1.091,1.091,0,0,1,1.081-1.244H133.1a1.091,1.091,0,0,1,1.07,1.309Zm-4.218,28.291H96.247l.935-1.682a2.454,2.454,0,0,0,.285-1.512L93.227,44.37a2.445,2.445,0,0,0-2.41-2.105H78.333a2.435,2.435,0,0,0,0,4.869H88.691l3.842,28.154L89.982,79.88A2.434,2.434,0,0,0,92.113,83.5h3.938l-.334.381a5.4,5.4,0,1,0,8.119,0L103.5,83.5h16.167l-.334.381a5.4,5.4,0,1,0,8.118,0l-.334-.381h2.832a2.434,2.434,0,0,0,0-4.869Z" transform="translate(-75.899 -42.264)" fill="#fff"/>
  </g>
</svg>
