<svg xmlns="http://www.w3.org/2000/svg" width="45" height="45" viewBox="0 0 45 45">
  <g id="Grupo_324" data-name="Grupo 324" transform="translate(-898 -2227)">
    <circle id="Elipse_65" data-name="Elipse 65" cx="22.5" cy="22.5" r="22.5" transform="translate(898 2227)" fill="#392ba1"/>
    <g id="Icon_feather-calendar" data-name="Icon feather-calendar" transform="translate(907.899 2237.499)">
      <path id="Caminho_385" data-name="Caminho 385" d="M6.3,6H18.9a1.8,1.8,0,0,1,1.8,1.8V20.4a1.8,1.8,0,0,1-1.8,1.8H6.3a1.8,1.8,0,0,1-1.8-1.8V7.8A1.8,1.8,0,0,1,6.3,6Z" transform="translate(0 -1.2)" fill="none" stroke="#fff" stroke-linecap="round" stroke-linejoin="round" stroke-width="2"/>
      <path id="Caminho_386" data-name="Caminho 386" d="M24,3V6.6" transform="translate(-7.799)" fill="none" stroke="#fff" stroke-linecap="round" stroke-linejoin="round" stroke-width="2"/>
      <path id="Caminho_387" data-name="Caminho 387" d="M12,3V6.6" transform="translate(-3)" fill="none" stroke="#fff" stroke-linecap="round" stroke-linejoin="round" stroke-width="2"/>
      <path id="Caminho_388" data-name="Caminho 388" d="M4.5,15H20.7" transform="translate(0 -4.799)" fill="none" stroke="#fff" stroke-linecap="round" stroke-linejoin="round" stroke-width="2"/>
    </g>
  </g>
</svg>
