<svg xmlns="http://www.w3.org/2000/svg" xmlns:xlink="http://www.w3.org/1999/xlink" width="86" height="86" viewBox="0 0 86 86">
  <defs>
    <filter id="Elipse_60" x="0" y="0" width="86" height="86" filterUnits="userSpaceOnUse">
      <feOffset dy="3" input="SourceAlpha"/>
      <feGaussianBlur stdDeviation="3" result="blur"/>
      <feFlood flood-opacity="0.031"/>
      <feComposite operator="in" in2="blur"/>
      <feComposite in="SourceGraphic"/>
    </filter>
  </defs>
  <g id="Grupo_296" data-name="Grupo 296" transform="translate(8.958 5.901)">
    <g transform="matrix(1, 0, 0, 1, -8.96, -5.9)" filter="url(#Elipse_60)">
      <circle id="Elipse_60-2" data-name="Elipse 60" cx="34" cy="34" r="34" transform="translate(9 6)" fill="#221a61"/>
    </g>
    <path id="Icon_ionic-ios-trophy" data-name="Icon ionic-ios-trophy" d="M40.467,7.822h-6.09V5.976A1.481,1.481,0,0,0,32.9,4.5H12.233a1.481,1.481,0,0,0-1.476,1.476V7.822H4.667A1.3,1.3,0,0,0,3.375,9.113h0A14.642,14.642,0,0,0,5.46,17.455a7.513,7.513,0,0,0,5.195,3.718.758.758,0,0,1,.572.452,10.028,10.028,0,0,0,4.715,4.816,17.792,17.792,0,0,0,4.77,1.993.741.741,0,0,1,.572.72V36.61a.74.74,0,0,1-.738.738H14.494a1.323,1.323,0,0,0-1.329,1.227,1.293,1.293,0,0,0,1.292,1.356h16.2A1.323,1.323,0,0,0,31.988,38.7,1.293,1.293,0,0,0,30.7,37.348h-6.09a.74.74,0,0,1-.738-.738V29.164a.741.741,0,0,1,.572-.72,18.227,18.227,0,0,0,4.77-1.993,10.028,10.028,0,0,0,4.715-4.816.739.739,0,0,1,.572-.452,7.513,7.513,0,0,0,5.195-3.718,14.848,14.848,0,0,0,2.067-8.35h0A1.3,1.3,0,0,0,40.467,7.822ZM10.757,18.027a.371.371,0,0,1-.5.351,5.376,5.376,0,0,1-2.823-2.667,9.717,9.717,0,0,1-1.393-4.5.739.739,0,0,1,.738-.8h3.239a.74.74,0,0,1,.738.738ZM37.7,15.711a5.376,5.376,0,0,1-2.823,2.667.371.371,0,0,1-.5-.351V11.143a.74.74,0,0,1,.738-.738h3.239a.739.739,0,0,1,.738.8A9.829,9.829,0,0,1,37.7,15.711Z" transform="translate(11.475 11.883)" fill="#fff"/>
  </g>
</svg>
