<svg xmlns="http://www.w3.org/2000/svg" xmlns:xlink="http://www.w3.org/1999/xlink" width="76" height="76" viewBox="0 0 76 76">
  <defs>
    <linearGradient id="linear-gradient" x1="0.5" x2="0.5" y2="1" gradientUnits="objectBoundingBox">
      <stop offset="0" stop-color="#68fc9c"/>
      <stop offset="1" stop-color="#48bab8"/>
    </linearGradient>
  </defs>
  <g id="Grupo_342" data-name="Grupo 342" transform="translate(-1260 -329)">
    <path id="Caminho_366" data-name="Caminho 366" d="M28.9,0A28.9,28.9,0,1,1,0,28.9,28.9,28.9,0,0,1,28.9,0Z" transform="translate(1269.098 338.098)" fill="#fff"/>
    <path id="Caminho_366_-_Contorno" data-name="Caminho 366 - Contorno" d="M28,0A28,28,0,1,0,56,28,28,28,0,0,0,28,0m0-10A38,38,0,1,1-10,28,38.043,38.043,0,0,1,28-10Z" transform="translate(1270 339)" fill="url(#linear-gradient)"/>
    <g id="Icon_feather-users" data-name="Icon feather-users" transform="translate(1283.056 351.5)">
      <path id="Caminho_70" data-name="Caminho 70" d="M21.188,29.883V27.422A4.922,4.922,0,0,0,16.266,22.5H6.422A4.922,4.922,0,0,0,1.5,27.422v2.461" transform="translate(0 -3.383)" fill="none" stroke="#2d2d2d" stroke-linecap="square" stroke-linejoin="round" stroke-width="2"/>
      <path id="Caminho_71" data-name="Caminho 71" d="M17.344,9.422A4.922,4.922,0,1,1,12.422,4.5,4.922,4.922,0,0,1,17.344,9.422Z" transform="translate(-1.13)" fill="none" stroke="#2d2d2d" stroke-linecap="square" stroke-linejoin="round" stroke-width="2"/>
      <path id="Caminho_72" data-name="Caminho 72" d="M33.692,29.918V27.457A4.922,4.922,0,0,0,30,22.7" transform="translate(-5.303 -3.418)" fill="none" stroke="#2d2d2d" stroke-linecap="square" stroke-linejoin="round" stroke-width="2"/>
      <path id="Caminho_73" data-name="Caminho 73" d="M24,4.7a4.922,4.922,0,0,1,0,9.537" transform="translate(-4.186 -0.035)" fill="none" stroke="#2d2d2d" stroke-linecap="square" stroke-linejoin="round" stroke-width="2"/>
    </g>
  </g>
</svg>
