<svg xmlns="http://www.w3.org/2000/svg" width="32" height="32" viewBox="0 0 32 32">
  <g id="Grupo_289" data-name="Grupo 289" transform="translate(-1230 -2596)">
    <circle id="Elipse_59" data-name="Elipse 59" cx="16" cy="16" r="16" transform="translate(1230 2596)" fill="#2d2d2d"/>
    <path id="Icon_awesome-behance" data-name="Icon awesome-behance" d="M8.9,11.506a2.91,2.91,0,0,0,1.856-2.838c0-2.707-2.017-3.367-4.345-3.367H0V18.893H6.588c2.47,0,4.79-1.185,4.79-3.946A3.275,3.275,0,0,0,8.9,11.506ZM2.987,7.622h2.8c1.078,0,2.048.3,2.048,1.553,0,1.154-.755,1.618-1.822,1.618H2.987V7.622Zm3.194,8.962H2.987V12.841H6.243c1.315,0,2.148.548,2.148,1.94,0,1.373-.993,1.8-2.209,1.8ZM19.93,7.353H14.419V6.015H19.93V7.353Zm2.159,6.761c0-2.911-1.7-5.338-4.79-5.338a4.945,4.945,0,0,0-5.035,5.208A4.794,4.794,0,0,0,17.3,19.149a4.387,4.387,0,0,0,4.606-3.31H19.52a2.239,2.239,0,0,1-2.136,1.285,2.225,2.225,0,0,1-2.416-2.5h7.1C22.078,14.459,22.089,14.287,22.089,14.114Zm-7.118-1.2a2.112,2.112,0,0,1,2.243-2.1,2.015,2.015,0,0,1,2.155,2.1Z" transform="translate(1235.266 2599.774)" fill="#fff"/>
  </g>
</svg>
