<svg xmlns="http://www.w3.org/2000/svg" xmlns:xlink="http://www.w3.org/1999/xlink" width="86" height="86" viewBox="0 0 86 86">
  <defs>
    <filter id="Elipse_60" x="0" y="0" width="86" height="86" filterUnits="userSpaceOnUse">
      <feOffset dy="3" input="SourceAlpha"/>
      <feGaussianBlur stdDeviation="3" result="blur"/>
      <feFlood flood-opacity="0.031"/>
      <feComposite operator="in" in2="blur"/>
      <feComposite in="SourceGraphic"/>
    </filter>
  </defs>
  <g id="Grupo_310" data-name="Grupo 310" transform="translate(8.958 6)">
    <g transform="matrix(1, 0, 0, 1, -8.96, -6)" filter="url(#Elipse_60)">
      <circle id="Elipse_60-2" data-name="Elipse 60" cx="34" cy="34" r="34" transform="translate(9 6)" fill="#48bab8"/>
    </g>
    <g id="Icon_feather-shopping-cart" data-name="Icon feather-shopping-cart" transform="translate(15.78 16.5)">
      <g id="Caminho_389" data-name="Caminho 389" transform="translate(0.168 0.455)" fill="none" stroke-linecap="round" stroke-linejoin="round">
        <path d="M15.045,31.522A1.522,1.522,0,1,1,13.522,30,1.522,1.522,0,0,1,15.045,31.522Z" stroke="none"/>
        <path d="M 13.5224437713623 29.99999237060547 C 12.6816234588623 29.99999237060547 12.00000381469727 30.68162155151367 12.00000381469727 31.52244186401367 C 12.00000381469727 32.36326217651367 12.6816234588623 33.04489135742188 13.5224437713623 33.04489135742188 C 14.3632640838623 33.04489135742188 15.04488372802734 32.36326217651367 15.04488372802734 31.52244186401367 C 15.04488372802734 30.68162155151367 14.3632640838623 29.99999237060547 13.5224437713623 29.99999237060547 M 13.5224437713623 27.99999237060547 C 15.46472358703613 27.99999237060547 17.04488372802734 29.58015060424805 17.04488372802734 31.52244186401367 C 17.04488372802734 33.46472930908203 15.46472358703613 35.04489135742188 13.5224437713623 35.04489135742188 C 11.58016395568848 35.04489135742188 10.00000381469727 33.46472930908203 10.00000381469727 31.52244186401367 C 10.00000381469727 29.58015060424805 11.58016395568848 27.99999237060547 13.5224437713623 27.99999237060547 Z" stroke="none" fill="#fff"/>
      </g>
      <g id="Caminho_390" data-name="Caminho 390" transform="translate(0.434 0.455)" fill="none" stroke-linecap="round" stroke-linejoin="round">
        <path d="M31.545,31.522A1.522,1.522,0,1,1,30.022,30,1.522,1.522,0,0,1,31.545,31.522Z" stroke="none"/>
        <path d="M 30.02244186401367 29.99999237060547 C 29.18162155151367 29.99999237060547 28.50000190734863 30.68162155151367 28.50000190734863 31.52244186401367 C 28.50000190734863 32.36326217651367 29.18162155151367 33.04489135742188 30.02244186401367 33.04489135742188 C 30.86326217651367 33.04489135742188 31.54488182067871 32.36326217651367 31.54488182067871 31.52244186401367 C 31.54488182067871 30.68162155151367 30.86326217651367 29.99999237060547 30.02244186401367 29.99999237060547 M 30.02244186401367 27.99999237060547 C 31.9647216796875 27.99999237060547 33.54488372802734 29.58015060424805 33.54488372802734 31.52244186401367 C 33.54488372802734 33.46472930908203 31.9647216796875 35.04489135742188 30.02244186401367 35.04489135742188 C 28.08016204833984 35.04489135742188 26.5 33.46472930908203 26.5 31.52244186401367 C 26.5 29.58015060424805 28.08016204833984 27.99999237060547 30.02244186401367 27.99999237060547 Z" stroke="none" fill="#fff"/>
      </g>
      <path id="Caminho_391" data-name="Caminho 391" d="M1.5,1.5H7.6l4.084,20.411a3.048,3.048,0,0,0,3.048,2.454H29.538a3.048,3.048,0,0,0,3.048-2.454L35.024,9.122H9.119" transform="translate(0 0)" fill="none" stroke="#fff" stroke-linecap="round" stroke-linejoin="round" stroke-width="2"/>
    </g>
  </g>
</svg>
