<svg xmlns="http://www.w3.org/2000/svg" xmlns:xlink="http://www.w3.org/1999/xlink" width="86" height="86" viewBox="0 0 86 86">
  <defs>
    <filter id="Elipse_60" x="0" y="0" width="86" height="86" filterUnits="userSpaceOnUse">
      <feOffset dy="3" input="SourceAlpha"/>
      <feGaussianBlur stdDeviation="3" result="blur"/>
      <feFlood flood-opacity="0.031"/>
      <feComposite operator="in" in2="blur"/>
      <feComposite in="SourceGraphic"/>
    </filter>
  </defs>
  <g id="Grupo_305" data-name="Grupo 305" transform="translate(8.958 6)">
    <g transform="matrix(1, 0, 0, 1, -8.96, -6)" filter="url(#Elipse_60)">
      <circle id="Elipse_60-2" data-name="Elipse 60" cx="34" cy="34" r="34" transform="translate(9 6)" fill="#392ba1"/>
    </g>
    <g id="Icon_awesome-building" data-name="Icon awesome-building" transform="translate(20.042 18)" fill="none">
      <path d="M27.25,30H26V1.5A1.5,1.5,0,0,0,24.5,0H3.5A1.5,1.5,0,0,0,2,1.5V30H.75a.75.75,0,0,0-.75.75V32H28V30.75A.75.75,0,0,0,27.25,30ZM8,4.75A.75.75,0,0,1,8.75,4h2.5a.75.75,0,0,1,.75.75v2.5a.75.75,0,0,1-.75.75H8.75A.75.75,0,0,1,8,7.25Zm0,6A.75.75,0,0,1,8.75,10h2.5a.75.75,0,0,1,.75.75v2.5a.75.75,0,0,1-.75.75H8.75A.75.75,0,0,1,8,13.25ZM11.25,20H8.75A.75.75,0,0,1,8,19.25v-2.5A.75.75,0,0,1,8.75,16h2.5a.75.75,0,0,1,.75.75v2.5A.75.75,0,0,1,11.25,20ZM16,30H12V24.75a.75.75,0,0,1,.75-.75h2.5a.75.75,0,0,1,.75.75Zm4-10.75a.75.75,0,0,1-.75.75h-2.5a.75.75,0,0,1-.75-.75v-2.5a.75.75,0,0,1,.75-.75h2.5a.75.75,0,0,1,.75.75Zm0-6a.75.75,0,0,1-.75.75h-2.5a.75.75,0,0,1-.75-.75v-2.5a.75.75,0,0,1,.75-.75h2.5a.75.75,0,0,1,.75.75Zm0-6a.75.75,0,0,1-.75.75h-2.5A.75.75,0,0,1,16,7.25V4.75A.75.75,0,0,1,16.75,4h2.5a.75.75,0,0,1,.75.75Z" stroke="none"/>
      <path d="M 28 32 L 28 30.75 C 28 30.3358097076416 27.6641902923584 30 27.25 30 L 26 30 L 26 1.5 C 26 0.6715599894523621 25.32843971252441 0 24.5 0 L 3.5 0 C 2.671560049057007 0 2 0.6715599894523621 2 1.5 L 2 30 L 0.75 30 C 0.3358100056648254 30 -1.77635683940025e-15 30.3358097076416 -1.77635683940025e-15 30.75 L -1.77635683940025e-15 32 L 28 32 M 12.75 24 L 15.25 24 C 15.6641902923584 24 16 24.3358097076416 16 24.75 L 16 30 L 12 30 L 12 24.75 C 12 24.3358097076416 12.3358097076416 24 12.75 24 M 16.75 16 L 19.25 16 C 19.6641902923584 16 20 16.3358097076416 20 16.75 L 20 19.25 C 20 19.6641902923584 19.6641902923584 20 19.25 20 L 16.75 20 C 16.3358097076416 20 16 19.6641902923584 16 19.25 L 16 16.75 C 16 16.3358097076416 16.3358097076416 16 16.75 16 M 8.75 16 L 11.25 16 C 11.6641902923584 16 12 16.3358097076416 12 16.75 L 12 19.25 C 12 19.6641902923584 11.6641902923584 20 11.25 20 L 8.75 20 C 8.335809707641602 20 8 19.6641902923584 8 19.25 L 8 16.75 C 8 16.3358097076416 8.335809707641602 16 8.75 16 M 16.75 10 L 19.25 10 C 19.6641902923584 10 20 10.3358097076416 20 10.75 L 20 13.25 C 20 13.6641902923584 19.6641902923584 14 19.25 14 L 16.75 14 C 16.3358097076416 14 16 13.6641902923584 16 13.25 L 16 10.75 C 16 10.3358097076416 16.3358097076416 10 16.75 10 M 8.75 10 L 11.25 10 C 11.6641902923584 10 12 10.3358097076416 12 10.75 L 12 13.25 C 12 13.6641902923584 11.6641902923584 14 11.25 14 L 8.75 14 C 8.335809707641602 14 8 13.6641902923584 8 13.25 L 8 10.75 C 8 10.3358097076416 8.335809707641602 10 8.75 10 M 16.75 4 L 19.25 4 C 19.6641902923584 4 20 4.33581018447876 20 4.75 L 20 7.25 C 20 7.66418981552124 19.6641902923584 8 19.25 8 L 16.75 8 C 16.3358097076416 8 16 7.66418981552124 16 7.25 L 16 4.75 C 16 4.33581018447876 16.3358097076416 4 16.75 4 M 8.75 4 L 11.25 4 C 11.6641902923584 4 12 4.33581018447876 12 4.75 L 12 7.25 C 12 7.66418981552124 11.6641902923584 8 11.25 8 L 8.75 8 C 8.335809707641602 8 8 7.66418981552124 8 7.25 L 8 4.75 C 8 4.33581018447876 8.335809707641602 4 8.75 4 M 30 34 L -2 34 L -2 30.75 C -2 29.4935245513916 -1.153031349182129 28.43117713928223 -1.77635683940025e-15 28.10393524169922 L -1.77635683940025e-15 1.5 C -1.77635683940025e-15 -0.4299100041389465 1.570090055465698 -2 3.5 -2 L 24.5 -2 C 26.42991065979004 -2 28 -0.4299100041389465 28 1.5 L 28 28.10393524169922 C 29.15303230285645 28.43117713928223 30 29.4935245513916 30 30.75 L 30 34 Z M 14 28 L 14 26 L 14 28 Z" stroke="none" fill="#fff"/>
    </g>
  </g>
</svg>
