<svg xmlns="http://www.w3.org/2000/svg" width="121" height="121" viewBox="0 0 121 121">
  <g id="Grupo_1433" data-name="Grupo 1433" transform="translate(-1039 -1285)">
    <g id="Elipse_71" data-name="Elipse 71" transform="translate(1039 1285)" fill="#58dbaa" stroke="#392ba1" stroke-width="5">
      <circle cx="60.5" cy="60.5" r="60.5" stroke="none"/>
      <circle cx="60.5" cy="60.5" r="58" fill="none"/>
    </g>
    <g id="noun-gear-4930797" transform="translate(954.998 1271.016)">
      <path id="Caminho_756" data-name="Caminho 756" d="M267.483,185.36A12.137,12.137,0,1,0,279.621,197.5,12.151,12.151,0,0,0,267.483,185.36Zm0,20.369a8.232,8.232,0,1,1,8.234-8.232A8.244,8.244,0,0,1,267.483,205.729Z" transform="translate(-123.215 -123.245)"/>
      <path id="Caminho_757" data-name="Caminho 757" d="M171.125,67.5l-3.515-.391a24.073,24.073,0,0,0-1.789-4.314l2.213-2.769a3.871,3.871,0,0,0-.285-5.095l-4.161-4.161a4,4,0,0,0-5.1-.29l-2.76,2.213a24.3,24.3,0,0,0-4.316-1.789l-.391-3.51a3.871,3.871,0,0,0-3.809-3.412h-5.882a3.869,3.869,0,0,0-3.806,3.407l-.392,3.52a24.434,24.434,0,0,0-4.316,1.789l-2.765-2.215a4,4,0,0,0-5.1.285l-4.161,4.165a3.865,3.865,0,0,0-.283,5.095l2.211,2.769a24.033,24.033,0,0,0-1.789,4.314l-3.517.391A3.879,3.879,0,0,0,114,71.313V77.2A3.878,3.878,0,0,0,117.41,81l3.519.389a24.407,24.407,0,0,0,1.789,4.314l-2.211,2.76a3.876,3.876,0,0,0,.283,5.1l4.161,4.163a4,4,0,0,0,5.1.285l2.765-2.213a24.259,24.259,0,0,0,4.314,1.784l.391,3.519a3.877,3.877,0,0,0,3.806,3.407h5.882a3.875,3.875,0,0,0,3.809-3.407l.393-3.519A24.3,24.3,0,0,0,155.72,95.8l2.774,2.217a3.825,3.825,0,0,0,2.377.815,3.875,3.875,0,0,0,2.716-1.1l4.161-4.163a3.876,3.876,0,0,0,.283-5.1l-2.211-2.76a24.078,24.078,0,0,0,1.789-4.314L171.128,81a3.881,3.881,0,0,0,3.407-3.809V71.312a3.882,3.882,0,0,0-3.41-3.81ZM165.862,77.66a1.955,1.955,0,0,0-1.681,1.477A20.343,20.343,0,0,1,161.8,84.88a1.955,1.955,0,0,0,.141,2.235l3.043,3.7-4.062,4.156-3.8-3.039a1.934,1.934,0,0,0-2.231-.144,20.439,20.439,0,0,1-5.743,2.377,1.958,1.958,0,0,0-1.477,1.683l-.53,4.769-5.746.065-.537-4.834a1.954,1.954,0,0,0-1.479-1.683,20.307,20.307,0,0,1-5.743-2.377,1.918,1.918,0,0,0-1.012-.285,1.937,1.937,0,0,0-1.219.429l-3.7,3.041-4.151-4.062,3.039-3.8a1.952,1.952,0,0,0,.144-2.235,20.423,20.423,0,0,1-2.384-5.743,1.96,1.96,0,0,0-1.681-1.477l-4.765-.464-.065-5.808,4.83-.539a1.955,1.955,0,0,0,1.681-1.477,20.371,20.371,0,0,1,2.381-5.743,1.955,1.955,0,0,0-.141-2.231l-3.043-3.7,4.062-4.161,3.8,3.039a1.948,1.948,0,0,0,2.233.144,20.6,20.6,0,0,1,5.746-2.381,1.949,1.949,0,0,0,1.479-1.679l.462-4.765,5.811-.07.537,4.834a1.946,1.946,0,0,0,1.477,1.679,20.615,20.615,0,0,1,5.748,2.381,1.955,1.955,0,0,0,2.233-.144l3.7-3.041,4.156,4.06-3.039,3.8a1.94,1.94,0,0,0-.141,2.231,20.4,20.4,0,0,1,2.381,5.743,1.955,1.955,0,0,0,1.681,1.477l4.767.464.065,5.813Z"/>
    </g>
  </g>
</svg>
