<svg xmlns="http://www.w3.org/2000/svg" width="24.577" height="24.05" viewBox="0 0 24.577 24.05">
  <g id="noun-certificate-1191142" transform="translate(-71.47 -11.48)">
    <path id="Caminho_705" data-name="Caminho 705" d="M97.392,11.48l-16.105.038a2.693,2.693,0,0,0-2.676,2.693V29.117H76.228a.627.627,0,0,0-.627.627V31.3A2.693,2.693,0,0,0,78.289,34H90.513a.627.627,0,1,0,0-1.254H78.289A1.437,1.437,0,0,1,76.855,31.3v-.933H90.513a.627.627,0,1,0,0-1.254H79.864V14.211A1.439,1.439,0,0,1,81.3,12.774l13.778-.033a2.758,2.758,0,0,0-.459,1.527v3.4a.627.627,0,1,0,1.254,0v-3.4a1.526,1.526,0,1,1,3.052,0V15.1H97.555a.627.627,0,1,0,0,1.254h2.006a.627.627,0,0,0,.617-.627V14.266a2.789,2.789,0,0,0-2.786-2.786Z" transform="translate(-4.131)" fill="#fff"/>
    <path id="Caminho_706" data-name="Caminho 706" d="M389.158,199.188a.8.8,0,0,1,.474.554,2.031,2.031,0,0,0,1.111,1.4,2.15,2.15,0,0,0,1.9,0,.915.915,0,0,1,.8,0,2.152,2.152,0,0,0,1.9,0,2.029,2.029,0,0,0,1.111-1.4.8.8,0,0,1,.474-.554,2.027,2.027,0,0,0,1.2-1.425,1.964,1.964,0,0,0-.454-1.755.73.73,0,0,1-.163-.662,1.964,1.964,0,0,0-.361-1.736,2.12,2.12,0,0,0-1.726-.8.857.857,0,0,1-.707-.319,2.149,2.149,0,0,0-3.333,0,.88.88,0,0,1-.707.319,2.114,2.114,0,0,0-1.725.8,1.964,1.964,0,0,0-.361,1.736.73.73,0,0,1-.163.672,1.966,1.966,0,0,0-.454,1.755,2.029,2.029,0,0,0,1.2,1.415Zm.2-2.342h0a1.982,1.982,0,0,0,.434-1.823.714.714,0,0,1,.133-.625.86.86,0,0,1,.71-.323,2.157,2.157,0,0,0,1.718-.793.9.9,0,0,1,1.372,0,2.153,2.153,0,0,0,1.718.79.86.86,0,0,1,.712.326.715.715,0,0,1,.135.637,1.982,1.982,0,0,0,.434,1.823.714.714,0,0,1,.17.642.787.787,0,0,1-.471.547,2.051,2.051,0,0,0-1.2,1.447.783.783,0,0,1-.434.537.9.9,0,0,1-.8,0,2.179,2.179,0,0,0-1.893,0,.9.9,0,0,1-.8,0,.785.785,0,0,1-.434-.537,2.052,2.052,0,0,0-1.2-1.447.787.787,0,0,1-.471-.547.715.715,0,0,1,.168-.655Z" transform="translate(-302.455 -172.147)" fill="#fff"/>
    <path id="Caminho_707" data-name="Caminho 707" d="M450.867,431.2a.627.627,0,0,0-.627.627v4a.627.627,0,0,0,1,.5l1.342-1.033,1.342,1.033h0a.627.627,0,0,0,1-.5v-3.965a.627.627,0,1,0-1.254,0v2.688l-.715-.552a.627.627,0,0,0-.765,0l-.715.552v-2.724A.627.627,0,0,0,450.867,431.2Z" transform="translate(-361.992 -400.924)" fill="#fff"/>
    <path id="Caminho_708" data-name="Caminho 708" d="M222.387,106.034H231.3a.627.627,0,0,0,0-1.254h-8.913a.627.627,0,1,0,0,1.254Z" transform="translate(-143.744 -89.122)" fill="#fff"/>
    <path id="Caminho_709" data-name="Caminho 709" d="M229.764,176.017a.627.627,0,0,0-.627-.627h-6.52a.627.627,0,0,0,0,1.254h6.52a.627.627,0,0,0,.627-.627Z" transform="translate(-143.964 -156.57)" fill="#fff"/>
    <path id="Caminho_710" data-name="Caminho 710" d="M227.561,246.687a.627.627,0,0,0-.627-.627h-4.547a.627.627,0,0,0,0,1.254h4.547a.627.627,0,0,0,.627-.627Z" transform="translate(-143.744 -224.075)" fill="#fff"/>
    <path id="Caminho_711" data-name="Caminho 711" d="M226.779,316.68h-4.05a.627.627,0,0,0,0,1.254h4.05a.627.627,0,1,0,0-1.254Z" transform="translate(-144.071 -291.532)" fill="#fff"/>
  </g>
</svg>
