<svg xmlns="http://www.w3.org/2000/svg" width="50" height="433" viewBox="0 0 50 433">
  <g id="Grupo_381" data-name="Grupo 381" transform="translate(-935 -310)">
    <g id="Grupo_137" data-name="Grupo 137" transform="translate(935 693.009)">
      <path id="Caminho_370" data-name="Caminho 370" d="M-1442.469-362.371q-5.624-5.664-11.282-11.3c-.126-.126-.272-.233-.438-.374.273-.367.51-.689.751-1.01a20.9,20.9,0,0,0,.642-24.3,20.821,20.821,0,0,0-14.473-9.193c-.575-.092-1.156-.15-1.735-.223h-2.734c-.14.03-.279.067-.421.088-.835.123-1.682.193-2.505.37a20.722,20.722,0,0,0-12.773,8.32,20.33,20.33,0,0,0-3.779,15.457,20.085,20.085,0,0,0,9.134,14.38c7.136,4.659,14.6,4.863,22.126.856,1.125-.6,2.141-1.4,3.272-2.155a4.557,4.557,0,0,0,.315.384q5.726,5.732,11.457,11.46a5.8,5.8,0,0,0,.426.4,1.829,1.829,0,0,0,2.86-.684l.158-.348v-.781A11.335,11.335,0,0,0-1442.469-362.371Zm-27.868-7.872a17.379,17.379,0,0,1-17.418-17.4,17.437,17.437,0,0,1,17.405-17.422,17.394,17.394,0,0,1,17.416,17.408A17.348,17.348,0,0,1-1470.337-370.243Z" transform="translate(1491.469 408.771)" fill="#68fc9c"/>
      <path id="Caminho_371" data-name="Caminho 371" d="M-1423.539-319.706a1.815,1.815,0,0,0-2.569.107,12.6,12.6,0,0,0-3.595,10.327,1.8,1.8,0,0,0,1.8,1.617,1.852,1.852,0,0,0,1.878-1.859,24.294,24.294,0,0,1,.271-3.364,8.735,8.735,0,0,1,2.372-4.232A1.791,1.791,0,0,0-1423.539-319.706Z" transform="translate(1437.305 330.991)" fill="#68fc9c"/>
    </g>
    <g id="Grupo_138" data-name="Grupo 138" transform="translate(935 595.431)">
      <path id="Caminho_372" data-name="Caminho 372" d="M-1442.057,77.5q-2.921-2.949-5.866-5.875a1.577,1.577,0,0,0-2.478.012q-1.385,1.377-2.763,2.762c-2.981,2.981-5.95,5.975-8.946,8.94a9.689,9.689,0,0,1-14.638-.91,9.681,9.681,0,0,1,.913-12.743q5.817-5.854,11.667-11.675a1.609,1.609,0,0,0,.014-2.619c-1.818-1.819-3.631-3.644-5.461-5.451a13.924,13.924,0,0,0-1.163-.932h-.782a9.783,9.783,0,0,0-1.071.815c-4.323,4.31-8.675,8.591-12.935,12.962a20.436,20.436,0,0,0-5.839,13.091,21.255,21.255,0,0,0,13.05,21.483,21.457,21.457,0,0,0,23.544-4.647q6.358-6.384,12.734-12.749a6,6,0,0,0,.606-.865v-.782A6.2,6.2,0,0,0-1442.057,77.5Zm-29.1-24.631,3.778,3.766-3.2,3.176-3.759-3.764Zm20.286,31.478c-2.442,2.415-4.766,4.966-7.356,7.21a17.107,17.107,0,0,1-14.877,4.057c-7.661-1.426-12.684-6.019-14.662-13.547a17.463,17.463,0,0,1,4.36-17.008c2.064-2.256,4.306-4.35,6.468-6.516.067-.067.145-.123.19-.162l3.894,3.9c-.773.772-1.588,1.565-2.378,2.381a53.27,53.27,0,0,0-4.025,4.249,12.778,12.778,0,0,0,7.992,20.254,12.534,12.534,0,0,0,11.351-3.6c1.746-1.707,3.453-3.453,5.131-5.135l3.917,3.906C-1450.85,84.286-1450.855,84.323-1450.876,84.344Zm2.315-2.409-3.791-3.789,3.211-3.214,3.8,3.769Z" transform="translate(1491.469 -49.007)" fill="#68fc9c"/>
      <path id="Caminho_373" data-name="Caminho 373" d="M-1235.838,118.836a3.566,3.566,0,0,0,.969.025c1.656-.11,3.311-.234,4.966-.35a1.584,1.584,0,0,0,1.563-2.206c-.245-.874-.5-1.746-.755-2.662,2-.243,3.917-.471,5.836-.713a1.554,1.554,0,0,0,1.405-1.735,1.556,1.556,0,0,0-1.717-1.373c-2.52.294-5.039.594-7.555.921a1.559,1.559,0,0,0-1.418,2.2c.234.84.471,1.679.717,2.558-.19.024-.331.048-.472.057-1.072.072-2.143.139-3.214.212a1.559,1.559,0,0,0-1.506,1.4A1.517,1.517,0,0,0-1235.838,118.836Z" transform="translate(1268.141 -102.375)" fill="#68fc9c"/>
    </g>
    <path id="Caminho_374" data-name="Caminho 374" d="M-1491.469,553.98c.261-.346.51-.7.786-1.036a8.3,8.3,0,0,0,1.759-4.62,46.562,46.562,0,0,1,.609-5.271,10.5,10.5,0,0,1,8.766-7.9c.959-.12,1.944-.033,2.914-.079a.815.815,0,0,0,.515-.316c2.247-2.928,4.429-5.908,6.73-8.793a107.936,107.936,0,0,1,11.739-12.783,30.077,30.077,0,0,1,7.034-5.039,8.963,8.963,0,0,1,3.928-1.023,5.147,5.147,0,0,1,5.166,5.961,12.835,12.835,0,0,1-1.667,4.6,40.961,40.961,0,0,1-5.611,7.415,146.651,146.651,0,0,1-16.038,14.757c-1.124.912-2.277,1.788-3.4,2.705a.794.794,0,0,0-.265.593,11.655,11.655,0,0,1-6.258,11.821,18.123,18.123,0,0,1-7.016,2.048,3.584,3.584,0,0,0-.421.089h-2.734a3.666,3.666,0,0,0-.423-.085,18.243,18.243,0,0,1-4.728-1.079,2.179,2.179,0,0,1-1.391-1.179Zm28.362-19.384a1.436,1.436,0,0,0,.123-.085,142.358,142.358,0,0,0,10.7-9.973,46,46,0,0,0,6.307-7.856,10.5,10.5,0,0,0,1.532-3.818,2.3,2.3,0,0,0-2.814-2.777,9.3,9.3,0,0,0-3.2,1.264,36.475,36.475,0,0,0-6.789,5.454,129.256,129.256,0,0,0-10.965,12.362,1.343,1.343,0,0,0-.118.2Zm-24.488,19.057c.21.057.349.1.491.132a16.224,16.224,0,0,0,9.938-.906,8.994,8.994,0,0,0,5.765-7.183,6.69,6.69,0,0,0-5.035-7.612,7.754,7.754,0,0,0-8.962,5.423,18.279,18.279,0,0,0-.489,3.514A13.35,13.35,0,0,1-1487.6,553.653Zm18-13.755,4.125-3.3-4.787-4.812-3.2,4.29A10,10,0,0,1-1469.6,539.9Z" transform="translate(2426.469 -197.118)" fill="#68fc9c"/>
    <g id="Grupo_139" data-name="Grupo 139" transform="translate(935 407.534)">
      <path id="Caminho_375" data-name="Caminho 375" d="M-1314.47,1110.372q-3.4-3.434-6.83-6.838c-.414-.413-.843-.809-1.408-1.349a2.926,2.926,0,0,0,.524-.321q1.788-1.767,3.559-3.551a1.5,1.5,0,0,0-.624-2.71q-12.155-4.053-24.309-8.105a1.594,1.594,0,0,0-1.809.275,1.611,1.611,0,0,0-.247,1.815c.69,2.029,1.362,4.065,2.04,6.1q3.035,9.105,6.071,18.21a1.485,1.485,0,0,0,2.65.638q1.818-1.806,3.626-3.622c.114-.113.233-.221.37-.351.144.137.273.256.4.379l7.837,7.833a1.52,1.52,0,0,0,2.482.015c1.877-1.874,3.757-3.744,5.621-5.631a10.792,10.792,0,0,0,.823-1.063v-.683A8.974,8.974,0,0,0-1314.47,1110.372Zm-7.032,5.51a2.521,2.521,0,0,0-.281-.4q-3.912-3.923-7.833-7.836a1.522,1.522,0,0,0-2.484,0q-1.451,1.448-2.9,2.9c-.111.111-.231.214-.4.374l-6.6-19.806,19.8,6.6c-.15.166-.256.3-.375.414-.988.991-1.981,1.977-2.966,2.97a1.485,1.485,0,0,0,.013,2.344q3.95,3.954,7.907,7.9a2.418,2.418,0,0,0,.423.282Z" transform="translate(1363.695 -1069.426)" fill="#68fc9c"/>
      <path id="Caminho_376" data-name="Caminho 376" d="M-1347.626,953.267a1.456,1.456,0,0,0,1.984-1.452c.008-2.731-.022-5.463.017-8.193a1.868,1.868,0,0,0-1.088-1.965h-.781a1.612,1.612,0,0,0-1.069,1.428c-.008,2.959-.012,5.917,0,8.876A1.36,1.36,0,0,0-1347.626,953.267Z" transform="translate(1366.146 -941.657)" fill="#68fc9c"/>
      <path id="Caminho_377" data-name="Caminho 377" d="M-1441.3,1135.222a1.438,1.438,0,0,0-1.668.3q-3.1,3.077-6.179,6.176a1.455,1.455,0,0,0-.017,2.1,1.465,1.465,0,0,0,2.1-.05q3.067-3.042,6.1-6.114a4.686,4.686,0,0,0,.59-1.017A1.711,1.711,0,0,0-1441.3,1135.222Z" transform="translate(1454.749 -1111.286)" fill="#68fc9c"/>
      <path id="Caminho_378" data-name="Caminho 378" d="M-1443.1,992.114a2.564,2.564,0,0,0,.364.323,1.421,1.421,0,0,0,1.525.1,1.376,1.376,0,0,0,.772-1.263,1.616,1.616,0,0,0-.585-1.238q-2.939-2.928-5.871-5.863a2.8,2.8,0,0,0-.364-.323,1.455,1.455,0,0,0-2.244.779,1.542,1.542,0,0,0,.5,1.586Q-1446.043,989.157-1443.1,992.114Z" transform="translate(1454.715 -978.426)" fill="#68fc9c"/>
      <path id="Caminho_379" data-name="Caminho 379" d="M-1295.455,992.186q3.085-3.058,6.136-6.15a3.087,3.087,0,0,0,.476-.861,1.522,1.522,0,0,0-.88-1.529,1.42,1.42,0,0,0-1.66.331q-3.079,3.064-6.142,6.144a1.459,1.459,0,0,0-.031,2.1A1.46,1.46,0,0,0-1295.455,992.186Z" transform="translate(1321.783 -978.363)" fill="#68fc9c"/>
      <path id="Caminho_380" data-name="Caminho 380" d="M-1481.415,1087.478a1.49,1.49,0,0,0,1.661-1.456,1.486,1.486,0,0,0-1.645-1.472q-4.217,0-8.434,0a1.485,1.485,0,0,0-1.637,1.479,1.485,1.485,0,0,0,1.62,1.448c1.414,0,2.828,0,4.241,0Q-1483.511,1087.479-1481.415,1087.478Z" transform="translate(1491.469 -1066.974)" fill="#68fc9c"/>
    </g>
    <path id="Caminho_381" data-name="Caminho 381" d="M-1441.471,1465.394c-.357,1.464-.725,2.926-1.07,4.393q-3.873,16.462-7.742,32.925a3.024,3.024,0,0,1-5.07,1.709q-4.452-3.614-8.873-7.267a.514.514,0,0,0-.777-.029c-2.516,1.905-5.047,3.789-7.573,5.68-.156.117-.309.239-.472.346a1.444,1.444,0,0,1-2.39-.867c-.342-1.32-.6-2.661-.889-4q-1.188-5.5-2.362-11.009a.739.739,0,0,0-.5-.575q-5.162-2.245-10.315-4.511a3.008,3.008,0,0,1-1.647-4.148,3.132,3.132,0,0,1,1.98-1.617c2.069-.674,4.134-1.362,6.2-2.043l37.206-12.263a3.029,3.029,0,0,1,4.23,2.132c.009.026.044.044.066.066Zm-2.905-.637-44.267,14.594c.3.144.456.223.614.292,3.273,1.433,6.551,2.857,9.816,4.308a1.2,1.2,0,0,0,1.211-.05q10.877-6.071,21.772-12.107a3.928,3.928,0,0,1,.66-.308,1.435,1.435,0,0,1,1.611.505,1.42,1.42,0,0,1,.043,1.645,4.8,4.8,0,0,1-.531.633q-7.3,7.64-14.6,15.276c-.12.125-.233.257-.361.4l15.189,12.429Zm-17.8,14.39-.061-.1-13.611,7.558,1.982,9.189a1.133,1.133,0,0,0,.253-.486c.5-1.748.973-3.5,1.51-5.241a3.457,3.457,0,0,1,.736-1.282c1.422-1.542,2.889-3.043,4.339-4.559Zm-7.615,13.471-1.614,5.639,4.443-3.326Z" transform="translate(2426.471 -957.082)" fill="#68fc9c"/>
  </g>
</svg>
