<svg xmlns="http://www.w3.org/2000/svg" width="48.394" height="49.894" viewBox="0 0 48.394 49.894">
  <path id="Caminho_712" data-name="Caminho 712" d="M103.654,17.378c1.837-4.5,4.392-7.462,7.245-7.935V20.672h-4.354a4.343,4.343,0,0,0-1.19-2.245,4.264,4.264,0,0,0-1.7-1.049ZM101.3,18.971a2.914,2.914,0,0,0-.343.174c-.044.027-.1.049-.141.076a2.851,2.851,0,0,0-.424.343,2.658,2.658,0,0,0-.739,2.43,1.193,1.193,0,0,0,.044.152,2.118,2.118,0,0,0,.1.332c.022.054.049.1.071.152a2.561,2.561,0,0,0,.163.294c.027.044.06.087.087.13l.1.147.005-.022a2.191,2.191,0,0,0,.174.206,2.7,2.7,0,1,0,1.913-4.62,2.716,2.716,0,0,0-.973.185l.005-.011a.2.2,0,0,1-.044.032Zm6.2,26.507a4.326,4.326,0,0,1,3.413-3.43V22.281h-4.359a4.324,4.324,0,0,1-5.136,3.418,54.357,54.357,0,0,0-.679,8.686,52.185,52.185,0,0,0,1.141,11.093Zm10.571-27.056a4.346,4.346,0,0,1,1.7-1.049c-1.826-4.5-4.381-7.462-7.24-7.935V20.667h4.354a4.384,4.384,0,0,1,1.19-2.245ZM115.97,45.478h5.576a52.188,52.188,0,0,0,1.141-11.093A53.714,53.714,0,0,0,122,25.7a4.325,4.325,0,0,1-5.136-3.418h-4.354V42.038a4.341,4.341,0,0,1,2.267,1.2,4.263,4.263,0,0,1,1.19,2.245Zm5.441-28.306a4.326,4.326,0,0,1,3.946,3.5h6.3a24.727,24.727,0,0,0-1.706-2.2,24.236,24.236,0,0,0-12.115-7.511A16.822,16.822,0,0,1,119.7,13.6a26.384,26.384,0,0,1,1.707,3.576Zm-22.159,1.25a4.3,4.3,0,0,1,2.756-1.256,25.672,25.672,0,0,1,1.7-3.571,17.2,17.2,0,0,1,1.87-2.631,24.231,24.231,0,0,0-12.115,7.511,24.857,24.857,0,0,0-1.7,2.2h6.3a4.251,4.251,0,0,1,1.185-2.25Zm21.692,34.29A21.194,21.194,0,0,1,118.486,57c-.212.283-.429.549-.652.8a24.231,24.231,0,0,0,14.479-10.712h-9.484a34.373,34.373,0,0,1-1.886,5.62Zm-4.973-5.62a4.333,4.333,0,0,1-3.457,3.44v8.8c3.685-.609,6.864-5.37,8.653-12.234h-5.2Zm16.707-24.812h-7.321a4.315,4.315,0,0,1-1.832,2.772q.171.962.294,1.94c.114.826.206,1.631.266,2.418s.12,1.6.152,2.473.054,1.7.054,2.5a55.155,55.155,0,0,1-.864,9.87c-.071.413-.152.821-.239,1.223h10.028a24.3,24.3,0,0,0-.538-23.2Zm-32.7,21.974a55.606,55.606,0,0,1-.864-9.87c0-.8.022-1.636.054-2.5s.093-1.7.163-2.473.152-1.593.261-2.418q.139-.978.294-1.94a4.4,4.4,0,0,1-1.821-2.772H90.74a24.264,24.264,0,0,0-.549,23.2h10.028q-.123-.6-.245-1.223Zm2.489,8.457a35.433,35.433,0,0,1-1.88-5.62H91.1a24.554,24.554,0,0,0,2.37,3.207,24.129,24.129,0,0,0,12.1,7.506c-.218-.255-.435-.522-.652-.8a21.308,21.308,0,0,1-2.457-4.289Zm5.028-5.62h-5.239c1.788,6.87,4.968,11.626,8.653,12.234v-8.8a4.326,4.326,0,0,1-3.413-3.43ZM119.2,19.563a2.706,2.706,0,1,0,3.826,3.826c.06-.06.109-.136.169-.2l.005.016a1.4,1.4,0,0,0,.081-.114,1.978,1.978,0,0,0,.12-.174,2.445,2.445,0,0,0,.141-.266c.027-.06.054-.114.081-.174a2.9,2.9,0,0,0,.1-.326c.011-.054.033-.1.044-.158a2.672,2.672,0,0,0,.054-.516,2.722,2.722,0,0,0-.788-1.913,2.868,2.868,0,0,0-.424-.343c-.049-.033-.1-.054-.147-.081a2.547,2.547,0,0,0-.342-.174.226.226,0,0,0-.038-.022l.005.011a2.709,2.709,0,0,0-.967-.185,2.742,2.742,0,0,0-1.924.793Zm-4.767,26.719a2.7,2.7,0,1,0-.788,1.913A2.722,2.722,0,0,0,114.431,46.282Z" transform="translate(-87.506 -9.438)" fill="#fff" fill-rule="evenodd"/>
</svg>
