<svg xmlns="http://www.w3.org/2000/svg" width="31.111" height="26.157" viewBox="0 0 31.111 26.157">
  <g id="Icon_feather-users" data-name="Icon feather-users" transform="translate(1.5 1.657)">
    <path id="Caminho_269" data-name="Caminho 269" d="M22.19,30.259V27.673A5.173,5.173,0,0,0,17.018,22.5H6.673A5.173,5.173,0,0,0,1.5,27.673v2.586" transform="translate(-1.5 -7.259)" fill="none" stroke="#000" stroke-linecap="square" stroke-linejoin="round" stroke-width="3"/>
    <path id="Caminho_270" data-name="Caminho 270" d="M17.845,9.673A5.173,5.173,0,1,1,12.673,4.5,5.173,5.173,0,0,1,17.845,9.673Z" transform="translate(-2.424 -4.5)" fill="none" stroke="#000" stroke-linecap="square" stroke-linejoin="round" stroke-width="3"/>
    <path id="Caminho_271" data-name="Caminho 271" d="M33.879,30.286V27.7A5.172,5.172,0,0,0,30,22.7" transform="translate(-5.768 -7.286)" fill="none" stroke="#000" stroke-linecap="square" stroke-linejoin="round" stroke-width="3"/>
    <path id="Caminho_272" data-name="Caminho 272" d="M24,4.695a5.173,5.173,0,0,1,0,10.022" transform="translate(-4.87 -4.527)" fill="none" stroke="#000" stroke-linecap="square" stroke-linejoin="round" stroke-width="3"/>
  </g>
</svg>
