<svg xmlns="http://www.w3.org/2000/svg" xmlns:xlink="http://www.w3.org/1999/xlink" width="76" height="76" viewBox="0 0 76 76">
  <defs>
    <linearGradient id="linear-gradient" x1="0.5" x2="0.5" y2="1" gradientUnits="objectBoundingBox">
      <stop offset="0" stop-color="#68fc9c"/>
      <stop offset="1" stop-color="#48bab8"/>
    </linearGradient>
  </defs>
  <g id="Grupo_343" data-name="Grupo 343" transform="translate(-1493 -297)">
    <path id="Caminho_367" data-name="Caminho 367" d="M29.635,0A29.635,29.635,0,1,1,0,29.635,29.635,29.635,0,0,1,29.635,0Z" transform="translate(1501.365 305.365)" fill="#fff"/>
    <path id="Caminho_367_-_Contorno" data-name="Caminho 367 - Contorno" d="M28,0A28,28,0,1,0,56,28,28,28,0,0,0,28,0m0-10A38,38,0,1,1-10,28,38.043,38.043,0,0,1,28-10Z" transform="translate(1503 307)" fill="url(#linear-gradient)"/>
    <path id="Caminho_74" data-name="Caminho 74" d="M7.007-4.966c0-3.562-3.12-4.42-6.032-5.148v-6.058A9.371,9.371,0,0,1,5.4-14.716l.858-2.08A10.433,10.433,0,0,0,.975-18.382V-21.32H-.689v2.964c-4.03.338-5.876,2.574-5.876,5.148,0,3.536,3.016,4.446,5.876,5.148v6.032a9.069,9.069,0,0,1-5.356-2.08L-7.007-2.08A10.516,10.516,0,0,0-.689.182V3.12H.975V.182C5.083-.156,7.007-2.392,7.007-4.966ZM-4.017-13.312c0-1.378,1.014-2.548,3.328-2.834v5.616C-2.561-11.024-4.017-11.7-4.017-13.312ZM.975-2.054v-5.59c1.924.52,3.484,1.17,3.484,2.834C4.459-3.406,3.393-2.288.975-2.054Z" transform="translate(1531 344.1)" fill="#2d2d2d"/>
  </g>
</svg>
