<svg xmlns="http://www.w3.org/2000/svg" width="47" height="47" viewBox="0 0 47 47">
  <g id="Grupo_280" data-name="Grupo 280" transform="translate(-59)">
    <path id="Icon_awesome-instagram" data-name="Icon awesome-instagram" d="M11.916,8.043a6.11,6.11,0,1,0,6.11,6.11A6.1,6.1,0,0,0,11.916,8.043Zm0,10.082a3.972,3.972,0,1,1,3.972-3.972,3.98,3.98,0,0,1-3.972,3.972ZM19.7,7.793a1.425,1.425,0,1,1-1.425-1.425A1.422,1.422,0,0,1,19.7,7.793ZM23.747,9.24a7.053,7.053,0,0,0-1.925-4.993,7.1,7.1,0,0,0-4.993-1.925C14.862,2.21,8.964,2.21,7,2.321A7.089,7.089,0,0,0,2,4.241,7.076,7.076,0,0,0,.078,9.234c-.112,1.968-.112,7.865,0,9.832A7.053,7.053,0,0,0,2,24.06,7.108,7.108,0,0,0,7,25.985c1.968.112,7.865.112,9.832,0a7.053,7.053,0,0,0,4.993-1.925,7.1,7.1,0,0,0,1.925-4.993c.112-1.968.112-7.86,0-9.827ZM21.206,21.178a4.022,4.022,0,0,1-2.265,2.265c-1.569.622-5.291.479-7.025.479s-5.461.138-7.025-.479a4.022,4.022,0,0,1-2.265-2.265c-.622-1.569-.479-5.291-.479-7.025s-.138-5.461.479-7.025A4.022,4.022,0,0,1,4.891,4.863c1.569-.622,5.291-.479,7.025-.479s5.461-.138,7.025.479a4.022,4.022,0,0,1,2.265,2.265c.622,1.569.479,5.291.479,7.025S21.828,19.615,21.206,21.178Z" transform="translate(70.405 9.651)" fill="#fff"/>
    <g id="Elipse_3" data-name="Elipse 3" transform="translate(59)" fill="none" stroke="#68fc9c" stroke-width="2">
      <circle cx="23.5" cy="23.5" r="23.5" stroke="none"/>
      <circle cx="23.5" cy="23.5" r="22.5" fill="none"/>
    </g>
  </g>
</svg>
