<svg id="Grupo_1368" data-name="Grupo 1368" xmlns="http://www.w3.org/2000/svg" xmlns:xlink="http://www.w3.org/1999/xlink" width="72.531" height="12.649" viewBox="0 0 72.531 12.649">
  <defs>
    <clipPath id="clip-path">
      <rect id="Retângulo_755" data-name="Retângulo 755" width="72.531" height="12.649" fill="none"/>
    </clipPath>
  </defs>
  <g id="Grupo_1367" data-name="Grupo 1367" clip-path="url(#clip-path)">
    <path id="Caminho_714" data-name="Caminho 714" d="M2353.167,341.73a1.106,1.106,0,1,0-.041,2.211h.041a1.1,1.1,0,0,0,1.1-1.1v0a1.1,1.1,0,0,0-1.1-1.1Zm0,2.078a.971.971,0,0,1-.972-.97v-.005a.97.97,0,0,1,.97-.97h0a.969.969,0,0,1,.969.969h0a.97.97,0,0,1-.966.975h0" transform="translate(-2281.739 -331.515)" fill-rule="evenodd"/>
    <path id="Caminho_715" data-name="Caminho 715" d="M72,11.028a.3.3,0,0,0-.138-.266.57.57,0,0,0-.3-.06h-.538v1.236h.151v-.57h.278l.353.57h.179l-.373-.57C71.825,11.36,72,11.271,72,11.028Zm-.6.22h-.232v-.437h.353c.154,0,.322.023.322.214,0,.252-.269.223-.443.223M64.948,5.054l2.26-2.413a.767.767,0,0,0,.2-.407c0-.177-.152-.248-.632-.248H66.2V.462h6.173V1.985h-.811c-.937,0-1.111.141-2.418,1.789L65.571,7.636V9.992c0,.6.3.815,1.176.815H68.1v1.47H59.451v-1.47H60.8c.871,0,1.176-.212,1.176-.815V7.636L57.765,2.977c-.7-.815-.6-.992-2.537-.992V.462h7.819V1.985H62.49c-.566,0-.806.106-.806.319,0,.178.174.319.283.461L64.1,5.087A.519.519,0,0,0,64.948,5.054ZM12.487.461h1.886V4.713H12.632A2.743,2.743,0,0,0,11.46,3.086,7.284,7.284,0,0,0,7.1,1.613C5.04,1.613,3.3,2.251,3.3,3.189c0,2.6,11.764.532,11.764,5.456,0,2.568-2.52,4-7.045,4A13.268,13.268,0,0,1,2.686,11.42c-.438-.253-.625.24-.707.857H.046V7.884H1.795A3.489,3.489,0,0,0,3.2,9.673,7.8,7.8,0,0,0,7.92,11c2.792-.028,3.752-.638,3.752-1.524s-.949-1.1-4.009-1.576l-2.6-.425C2.134,7.033,0,6.378,0,4.04,0,1.613,2.7.089,6.969.089a9.184,9.184,0,0,1,4.748,1.057C12.117,1.406,12.492,1.437,12.487.461ZM49.3,7.579l.037-4.725c0-.62-.323-.832-1.244-.832H47.006V.552H53.9v1.47H53c-.922,0-1.245.213-1.245.832v9.513l-2.7-.021L40.324,4.077v6.005c0,.6.323.832,1.244.832h1.2v1.453H35.612V10.914H36.8c.921,0,1.244-.23,1.244-.832V2.854c0-.62-.323-.832-1.244-.832H35.612V.552H41.8ZM26.22,0c-5.49,0-8.927,2.427-8.927,6.324,0,3.827,3.389,6.236,8.76,6.236,5.7,0,9.023-2.373,9.023-6.43C35.075,2.48,31.495,0,26.22,0Zm-.125,11.019c-3.039,0-4.786-1.754-4.786-4.783,0-2.958,1.823-4.712,4.938-4.712,2.988,0,4.735,1.79,4.735,4.836C30.982,9.336,29.21,11.019,26.095,11.019Z" fill-rule="evenodd"/>
  </g>
</svg>
