<svg xmlns="http://www.w3.org/2000/svg" width="139" height="139" viewBox="0 0 139 139">
  <g id="Grupo_317" data-name="Grupo 317" transform="translate(0.499 -0.125)">
    <g id="Elipse_16" data-name="Elipse 16" transform="translate(-0.499 0.125)" fill="#fff" stroke="#d4d4d4" stroke-width="6">
      <circle cx="69.5" cy="69.5" r="69.5" stroke="none"/>
      <circle cx="69.5" cy="69.5" r="66.5" fill="none"/>
    </g>
    <g id="Grupo_307" data-name="Grupo 307" transform="translate(22.181 52.9)">
      <g id="Grupo_138" data-name="Grupo 138" transform="translate(0.166)">
        <path id="Caminho_113" data-name="Caminho 113" d="M209.558,384.227h0a18.047,18.047,0,0,1-5.61.813,13.452,13.452,0,0,1-5.086-1.027,13.309,13.309,0,0,1-1.884-.814l-.174-.087a.816.816,0,0,1-.214-.14l-.038-.029a25.915,25.915,0,0,1-3.768-2.566,5.671,5.671,0,0,0-.562-.432l-.06-.058c-.977-.747-1.97-1.448-2.949-2.082a21.083,21.083,0,0,0-3.884-2.18c-.46-.173-.972-.348-1.517-.521l-.728-.251.71-.2a9.7,9.7,0,0,0,2.511-.969,9.515,9.515,0,0,0,3.7-3.483,9.945,9.945,0,0,0,1.232-4.839,9.707,9.707,0,0,0-1.233-4.8,9.517,9.517,0,0,0-3.7-3.481,10.167,10.167,0,0,0-5.013-1.276H167.137l1.125,1.738.057.086v25.948l-1.177,1.844h4.775l-1.109-1.763-.025-.05v-8.65h7.048a11.528,11.528,0,0,1,6.9,2.255c.265.207.618.457,1.038.735.261.2.494.378.687.515q.26.217,1.727,1.425c1.663,1.435,2.775,2.341,3.277,2.673l.106.1a12.365,12.365,0,0,0,1.307.872c.55.348,1.107.67,1.663.962a17.327,17.327,0,0,0,2.613.959,7.094,7.094,0,0,0,1.053.264,20.473,20.473,0,0,0,4.536.61,17.373,17.373,0,0,0,5.895-.918,18.744,18.744,0,0,0,4.844-2.531l-.19-.288A18.109,18.109,0,0,1,209.558,384.227Zm-38.775-27.681h9.166a3.975,3.975,0,0,1,.476.043h.329c.282.029.568.072.852.128a9.762,9.762,0,0,1,2.971,1.018,7.921,7.921,0,0,1,3.133,3.174,9.2,9.2,0,0,1,1.061,4.2v.559a8.934,8.934,0,0,1-1.061,4.16,8.2,8.2,0,0,1-3.13,3.216,8.994,8.994,0,0,1-2.973.976,12.008,12.008,0,0,1-2.046.17h-8.777Z" transform="translate(-167.137 -355.812)"/>
        <path id="Caminho_114" data-name="Caminho 114" d="M374.465,357.338l.019.037v13.738c0,1.143-.025,2.008-.072,2.563a8.234,8.234,0,0,1-2.167,4.814,7.483,7.483,0,0,1-4.952,1.945c-.311.024-.617.036-.91.036a9.175,9.175,0,0,1-4.787-1.194,6.891,6.891,0,0,1-3.245-4.322,12.849,12.849,0,0,1-.181-2.512v-3.472q0-.7-.037-6.28v-.16h.037v-5.009l.989-1.579h-4.171l.979,1.558.047.053v14.668a11.058,11.058,0,0,0,.53,3.8,7.847,7.847,0,0,0,3.434,3.888,11.426,11.426,0,0,0,5.554,1.391h.3a10.844,10.844,0,0,0,5.4-1.2,6.391,6.391,0,0,0,2.145-1.935,9.409,9.409,0,0,0,1.355-2.9,13.04,13.04,0,0,0,.468-3.556v-14.33l.92-1.431h-2.554Z" transform="translate(-328.543 -355.924)"/>
        <path id="Caminho_115" data-name="Caminho 115" d="M548.159,369.857a8.552,8.552,0,0,0-2.412-2.757,8.77,8.77,0,0,0-2.523-1.431l-.439-.165.405-.141a5.9,5.9,0,0,0,2.4-1.718,4.593,4.593,0,0,0,1-2.838,5.023,5.023,0,0,0-1.266-3.517,4.047,4.047,0,0,0-1.851-.99,8.4,8.4,0,0,0-2.3-.358H526.445l1.031,1.592v22.151L526.45,381.3h14.682a9.684,9.684,0,0,0,2.182-.281,5.8,5.8,0,0,0,1.94-.781,7.722,7.722,0,0,0,2.755-2.836,8.536,8.536,0,0,0,.905-3.92,8.849,8.849,0,0,0-.753-3.616Zm-7.914-13.2a4.249,4.249,0,0,1,3.234,1.2,4.436,4.436,0,0,1,1.137,3.1,4.335,4.335,0,0,1-4.334,4.3H529.595v-8.594Zm-10.651,9.309h10.718a6.346,6.346,0,0,1,3.31,1.079A7.2,7.2,0,0,1,546,369.68a7.513,7.513,0,0,1,.866,3.576,8.345,8.345,0,0,1-.8,3.692h0a6.344,6.344,0,0,1-2.338,2.645,6.842,6.842,0,0,1-3.749.989H529.595Z" transform="translate(-475.878 -355.924)"/>
        <path id="Caminho_116" data-name="Caminho 116" d="M692.448,379.686V371l9.673-15.057h-2.342l.756,1.109-.057.115-8.273,12.853-.142.213-.123-.21L684.22,357.87l-.593-.926-.069-.1.781-.9h-4.194l1.06,1.2,2.059,3.242,7.007,10.842.021.064v8.43l-1.034,1.578h4.216l-.979-1.557Z" transform="translate(-607.94 -355.924)"/>
      </g>
      <g id="Grupo_139" data-name="Grupo 139" transform="translate(0 35.704)">
        <path id="Caminho_117" data-name="Caminho 117" d="M166.72,613.662a.694.694,0,0,1-.215.523.735.735,0,0,1-.529.206v-.215a.5.5,0,0,0,.364-.147.536.536,0,0,0,.144-.4v-4.206h.235Z" transform="translate(-165.976 -609.368)"/>
        <path id="Caminho_118" data-name="Caminho 118" d="M190.555,609.427v.235h-1.843v1.725h1.843v.235h-1.843v1.725h1.843v.235h-2.078v-4.156Z" transform="translate(-185.264 -609.368)"/>
        <path id="Caminho_119" data-name="Caminho 119" d="M220.4,610.529l1.035,2.675,1.014-3.777h.238l-1.117,4.156h-.235l-1-2.627-1,2.627h-.235l-1.117-4.156h.238l1.017,3.777,1.032-2.675Z" transform="translate(-210.551 -609.368)"/>
        <path id="Caminho_120" data-name="Caminho 120" d="M267.974,609.427v.235h-1.843v1.725h1.843v.235h-1.843v1.725h1.843v.235H265.9v-4.156Z" transform="translate(-251.626 -609.368)"/>
        <path id="Caminho_121" data-name="Caminho 121" d="M297.7,613.583v-4.156h.235v3.921h1.584v.235Z" transform="translate(-279.101 -609.368)"/>
        <path id="Caminho_122" data-name="Caminho 122" d="M327.47,612.143h-.776v1.44h-.235v-4.156h1.09a1.376,1.376,0,0,1,.808.4,1.363,1.363,0,0,1-.632,2.281l.958,1.478H328.4Zm-.776-2.478v2.24h.705a1.12,1.12,0,1,0,0-2.24Z" transform="translate(-303.801 -609.368)"/>
        <path id="Caminho_123" data-name="Caminho 123" d="M358.622,611.9l-1.428-2.475h.267l1.278,2.216,1.278-2.216h.268l-1.428,2.475v1.681h-.235Z" transform="translate(-330.199 -609.368)"/>
        <path id="Caminho_124" data-name="Caminho 124" d="M418.929,612.426l-.065-.032a1.571,1.571,0,0,1-.312-.265,1.134,1.134,0,0,0-.176-.144.241.241,0,0,0-.115-.03.385.385,0,0,0-.065.006.228.228,0,0,0-.141.109.238.238,0,0,0-.032.115.244.244,0,0,0,.009.065.209.209,0,0,0,.1.135.288.288,0,0,0,.135.026.717.717,0,0,0,.106-.008l-.024.214a.487.487,0,0,1-.129.018.431.431,0,0,1-.2-.053.427.427,0,0,1-.206-.27.479.479,0,0,1-.017-.127.46.46,0,0,1,.341-.438.48.48,0,0,1,.127-.018.431.431,0,0,1,.22.062,1.249,1.249,0,0,1,.27.232,1.583,1.583,0,0,0,.22.176.328.328,0,0,0,.162.044.358.358,0,0,0,.3-.173.328.328,0,0,0,.044-.161.306.306,0,0,0-.015-.091.325.325,0,0,0-.156-.2.33.33,0,0,0-.164-.041.515.515,0,0,0-.138.021l0-.232a.516.516,0,0,1,.414.056.54.54,0,0,1,.265.338.611.611,0,0,1,.021.153.539.539,0,0,1-.073.27.553.553,0,0,1-.344.268.625.625,0,0,1-.129.02,1.2,1.2,0,0,1-.309.5,1.23,1.23,0,0,1-2.1-.87,1.257,1.257,0,0,1,.356-.888,1.506,1.506,0,0,1,.635-.394,1.169,1.169,0,0,1-.384-.288.811.811,0,0,1-.2-.576.879.879,0,0,1,1.5-.617.719.719,0,0,1,.2.309l-.209.082a.65.65,0,0,0-.153-.232.651.651,0,0,0-.916,0,.622.622,0,0,0-.19.458.654.654,0,0,0,.184.463.966.966,0,0,0,.339.254,1.152,1.152,0,0,0,.388.062v.221l-.185,0a1.5,1.5,0,0,0-.855.421,1.038,1.038,0,0,0-.285.723,1,1,0,0,0,1.708.708A1,1,0,0,0,418.929,612.426Z" transform="translate(-381.345 -609.069)"/>
        <path id="Caminho_125" data-name="Caminho 125" d="M476.752,609.427l1.508,4.156h-.247l-.664-1.828h-1.437l-.676,1.828h-.25l1.526-4.156Zm.511,2.1-.632-1.743L476,611.523Z" transform="translate(-431.362 -609.368)"/>
        <path id="Caminho_126" data-name="Caminho 126" d="M515.52,612.622l.179.159a2.129,2.129,0,1,1,0-3.148l-.179.159a1.888,1.888,0,1,0,0,2.83Z" transform="translate(-463.273 -609.069)"/>
        <path id="Caminho_127" data-name="Caminho 127" d="M555.885,612.622l.179.159a2.129,2.129,0,1,1,0-3.148l-.179.159a1.888,1.888,0,1,0,0,2.83Z" transform="translate(-497.94 -609.069)"/>
        <path id="Caminho_128" data-name="Caminho 128" d="M595.734,609.427v.235h-1.843v1.725h1.843v.235h-1.843v1.725h1.843v.235h-2.078v-4.156Z" transform="translate(-533.271 -609.368)"/>
        <path id="Caminho_129" data-name="Caminho 129" d="M625.58,610.983a1.754,1.754,0,0,1-.7-.4.88.88,0,0,1,1.248-1.242.753.753,0,0,1,.2.309l-.212.082a.645.645,0,0,0-.153-.232.646.646,0,0,0-1.1.458.631.631,0,0,0,.188.459,1.73,1.73,0,0,0,.488.317,2.071,2.071,0,0,1,.841.5,1.229,1.229,0,1,1-1.74,1.737,1.161,1.161,0,0,1-.347-.67l.22-.079a.946.946,0,0,0,.288.588,1,1,0,1,0,1.417-1.414A1.9,1.9,0,0,0,625.58,610.983Z" transform="translate(-559.58 -609.069)"/>
        <path id="Caminho_130" data-name="Caminho 130" d="M657.611,610.983a1.753,1.753,0,0,1-.7-.4.88.88,0,0,1,1.248-1.242.756.756,0,0,1,.2.309l-.212.082a.646.646,0,0,0-.153-.232.646.646,0,0,0-1.1.458.631.631,0,0,0,.188.459,1.729,1.729,0,0,0,.488.317,2.071,2.071,0,0,1,.841.5,1.229,1.229,0,1,1-1.74,1.737,1.16,1.16,0,0,1-.347-.67l.22-.079a.946.946,0,0,0,.288.588,1,1,0,1,0,1.417-1.414A1.9,1.9,0,0,0,657.611,610.983Z" transform="translate(-587.088 -609.069)"/>
        <path id="Caminho_131" data-name="Caminho 131" d="M692.133,609.64a2.131,2.131,0,1,1-1.509-.625A2.053,2.053,0,0,1,692.133,609.64Zm-1.509-.387a1.9,1.9,0,1,0,1.34.556A1.822,1.822,0,0,0,690.624,609.253Z" transform="translate(-614.737 -609.015)"/>
        <path id="Caminho_132" data-name="Caminho 132" d="M735.591,612.143h-.776v1.44h-.235v-4.156h1.091a1.374,1.374,0,0,1,.808.4,1.363,1.363,0,0,1-.632,2.281l.958,1.478h-.288Zm-.776-2.478v2.24h.705a1.12,1.12,0,1,0,0-2.24Z" transform="translate(-654.435 -609.368)"/>
        <path id="Caminho_133" data-name="Caminho 133" d="M767.4,609.427v4.156h-.235v-4.156Z" transform="translate(-682.366 -609.368)"/>
        <path id="Caminho_134" data-name="Caminho 134" d="M788.35,609.427v.235h-1.843v1.725h1.843v.235h-1.843v1.725h1.843v.235h-2.078v-4.156Z" transform="translate(-698.744 -609.368)"/>
        <path id="Caminho_135" data-name="Caminho 135" d="M818.2,610.983a1.753,1.753,0,0,1-.7-.4.88.88,0,0,1,1.248-1.242.757.757,0,0,1,.2.309l-.212.082a.648.648,0,0,0-.153-.232.646.646,0,0,0-1.1.458.631.631,0,0,0,.188.459,1.728,1.728,0,0,0,.488.317,2.073,2.073,0,0,1,.841.5,1.229,1.229,0,1,1-1.74,1.737,1.16,1.16,0,0,1-.347-.67l.22-.079a.946.946,0,0,0,.288.588,1,1,0,1,0,1.417-1.414A1.9,1.9,0,0,0,818.2,610.983Z" transform="translate(-725.001 -609.069)"/>
      </g>
    </g>
  </g>
</svg>
