<svg id="Grupo_1372" data-name="Grupo 1372" xmlns="http://www.w3.org/2000/svg" xmlns:xlink="http://www.w3.org/1999/xlink" width="75.657" height="42.944" viewBox="0 0 75.657 42.944">
  <defs>
    <clipPath id="clip-path">
      <rect id="Retângulo_757" data-name="Retângulo 757" width="75.657" height="42.944" fill="none"/>
    </clipPath>
  </defs>
  <g id="Grupo_1371" data-name="Grupo 1371" transform="translate(0 0)" clip-path="url(#clip-path)">
    <path id="Caminho_719" data-name="Caminho 719" d="M1404.615,495.213a3.677,3.677,0,0,0-3.679,4c0,2.4,1.527,4.051,3.679,4.051,2.178,0,3.554-1.6,3.554-4.024,0-2.4-1.376-4.024-3.554-4.024m1.2,5.969a1.242,1.242,0,0,1-1.2,1.279,1.222,1.222,0,0,1-1.176-1.279v-4.05a1.215,1.215,0,0,1,1.174-1.253h0a1.236,1.236,0,0,1,1.2,1.253Zm-8.959-5.836a1.9,1.9,0,0,0-1.627.666v-.72a12.248,12.248,0,0,1-3.3.24v.8c.726,0,1.176.053,1.176.906v7.515c-.026.959.125,1.652-1.2,1.652v.853h4.7v-.853h-.149c-.9,0-1.227-.506-1.227-1.066v-2.8a1.72,1.72,0,0,0,1.526.747c2.028-.027,3.129-1.466,3.129-4.051C1399.885,496.892,1398.985,495.346,1396.858,495.346Zm.526,6.049a1.018,1.018,0,0,1-.976,1.066,1.038,1.038,0,0,1-1-1.066v-4.05a1.015,1.015,0,0,1,1-1.04,1,1,0,0,1,.976,1.04Z" transform="translate(-1345.703 -477.711)" fill-rule="evenodd"/>
    <path id="Caminho_720" data-name="Caminho 720" d="M1026.605,400.236c-.4.426-.776.853-1.151,1.252V400l1-1.066a.606.606,0,0,1,.15.479Zm5.781-5.729q-1.139,1.021-2.227,2.105v-.64a3.565,3.565,0,0,1-1.3.4q1.447-1.541,3-2.958v1.066Z" transform="translate(-991.417 -379.51)" fill="#ebb53b" fill-rule="evenodd"/>
    <path id="Caminho_721" data-name="Caminho 721" d="M681.194,12.521a67.815,67.815,0,0,1,15.042-10.1c3.553-1.546,5.605-2.185,7.058-.48,1.451,1.679-1.677,7.142-2.328,7.835-.8-.266-1.1.16-1.1.16.3-.107.826.133.475.986-.15.32-.75.773-1,.027a17.751,17.751,0,0,1-1.9,3.411c-2.954,4.29-7.058,8.421-13.039,14.1-9.786,9.274-14.841,11.353-18.245,12.871-2.453.985-8.685,2.425-4.6-5.6a45.654,45.654,0,0,1,6.381-9.541h-1v-.372a50.865,50.865,0,0,0-6.307,9.513c-1.251,2.372-3.679,9.86,5.331,6.955,2.953-.985,10.887-5.063,19.621-13.4A141.985,141.985,0,0,0,701.091,11.8c.325-.4.651-1.04.4-1.519,1.576-2.5,3.753-7.728,2.177-9.327-1.751-1.785-5.205-.613-6.532-.08a77.7,77.7,0,0,0-17.694,11.645h1.751Z" transform="translate(-637.473 -0.003)" fill="#ebb53b" fill-rule="evenodd"/>
    <path id="Caminho_722" data-name="Caminho 722" d="M27.8,146.585c-.075.346-.276.853-1.477,1.625-3.053,1.892-8.109,2.079-12.063,1.972-6.081-.16-8.609-1.652-9.235-2.238-.35-.347-.3-.666.1-.986,1.126-.906,5.106-1.226,7.733-1.226s5.631.64,5.606,1.386c0,.773-1.452.879-1.777.906-.225.027-.475-.08-.475-.213.05-.213.4-.213.576-.267.15-.027.225-.16.225-.347,0-.24-.651-.479-1.176-.56a14.478,14.478,0,0,0-4.58-.213c-1.877.133-3.179.746-3.179,1.226,0,.452,1.1,1.812,6.582,2,7.058.24,10.361-1.039,11.963-2.265,1.1-.906.276-1.519-.776-2.079-2.878-1.439-8.334-1.572-11.062-1.6a66.194,66.194,0,0,0-10.386.773c-.475.133-.375.56.3.4a72.122,72.122,0,0,1,9.135-.4c2.728.133,6.057.053,9.135,1.679.525.346.7.959-.1,1.439-.776.453-2.778,1.492-7.458,1.519-4.3.054-4.855-.72-5.23-1.039-.15-.133-.175-.533.4-.853a2.93,2.93,0,0,1,1.276-.293c.35,0,.475.4.1.427-.375.106-.776.16-.776.453,0,.24.251.267.526.373a11.124,11.124,0,0,0,3.254.426,10.756,10.756,0,0,0,5.431-1.066.687.687,0,0,0-.2-1.279,21.172,21.172,0,0,0-7.834-1.173,59.758,59.758,0,0,0-10.461.986c-.576.187-1.9.586-1.9,1.333s.9,1.092,1.327,1.252a54.123,54.123,0,0,0,11.988,2.025c7.533.08,11.763-.586,14.365-2.958a2.577,2.577,0,0,0,.6-1.066C28.33,146.132,27.905,146.1,27.8,146.585Zm-7.233,5.436a10.276,10.276,0,0,0,3.153-.266v5.6a2.39,2.39,0,0,1,2.553-1.2c.851,0,1.952.826,1.952,2.665v2.346c0,1.492.075,2.078,1,2.078h.025v.693H25.327v-.693c.7,0,.751-.852.751-1.545l.025-.533V158.9c0-.959-.3-1.519-.876-1.519-1.177,0-1.5,1.013-1.5,2.345V161.4c.05,1.12,0,1.839.876,1.839v.693H20.5v-.693c.876,0,1.1-.533,1.1-1.572v-7.942c0-.773.025-.959-.5-.853-.676.213-.876.586-1.177,1.572l-2.928,9.86h-.651l-2.226-6.662-2.278,6.662h-.651L7.107,153.78c-.251-.853-.876-.933-1.677-.986v-.773h5.156v.773h-.2c-.55,0-.525.186-.525.559a3.428,3.428,0,0,0,.175.959l2.2,6.4,1.5-4.476-.625-1.652c-.375-1.279-.476-1.785-1.627-1.785v-.773h4.655v.773l-.25.027c-.375.053-.425.24-.425.613a2.346,2.346,0,0,0,.175.773l1.752,6.049,1.952-6.582c.125-.639-.476-.879-.8-.906v-.746Zm12.814,1.919a1.264,1.264,0,0,1-1.226,1.279,1.28,1.28,0,1,1,1.226-1.279m-3.278,9.993h4.129v-.746c-.9,0-.976-.48-.976-2V156.1a10.679,10.679,0,0,1-3.329.266v.773h.3c.8,0,.926.907.926.933v3.118c0,1.492-.125,2-1.051,2v.746Zm8.109-7.062a1.974,1.974,0,0,1,1.9-.613c.726,0,1.1.826,1.1,1.386A1.226,1.226,0,0,1,40.093,159a1.049,1.049,0,0,1-1.1-1.093.755.755,0,0,1,.1-.453c.076-.08.076-.106.076-.133s.025-.213-.025-.213a.414.414,0,0,0-.5.213,2.211,2.211,0,0,0-.425,1.6v3.2a1.282,1.282,0,0,0,.451.96.761.761,0,0,0,.575.16v.693H35.113v-.746c.9,0,.976-.454.976-1.946v-3.2c0-.959-.425-.907-1.2-.907v-.746a14.682,14.682,0,0,0,3.329-.213Zm36.239,4.477c0,1.492.3,1.732,1.2,1.865v.666H71.1v-.692c.9-.106,1.2-.347,1.2-1.839V153.86a.986.986,0,0,0-.951-1.119l-.251.027v-.773a12.361,12.361,0,0,0,3.354-.213Zm-7.308-5.223a3.677,3.677,0,0,0-3.678,4c0,2.4,1.5,4.051,3.654,4.051,2.177,0,3.578-1.6,3.578-4.024,0-2.4-1.4-4.024-3.554-4.024m1.177,5.969a1.222,1.222,0,0,1-1.176,1.279,1.242,1.242,0,0,1-1.2-1.279v-4.05a1.235,1.235,0,0,1,1.2-1.253,1.215,1.215,0,0,1,1.176,1.253Zm-23.651-.746c0,1.492.3,1.732,1.2,1.865v.666H41.319v-.692c.9-.106,1.226-.347,1.226-1.839V153.86a1.017,1.017,0,0,0-.975-1.119l-.251.027v-.773a12.259,12.259,0,0,0,3.353-.213Z" transform="translate(0 -138.623)" fill-rule="evenodd"/>
  </g>
</svg>
