<svg xmlns="http://www.w3.org/2000/svg" xmlns:xlink="http://www.w3.org/1999/xlink" width="139" height="139" viewBox="0 0 139 139">
  <defs>
    <linearGradient id="linear-gradient" x1="1.622" y1="2.867" x2="-0.157" y2="-1.053" gradientUnits="objectBoundingBox">
      <stop offset="0" stop-color="#ff0b00"/>
      <stop offset="0.38" stop-color="#ff0b00"/>
      <stop offset="0.79" stop-color="#ffa9cb"/>
      <stop offset="1" stop-color="#ff6963"/>
    </linearGradient>
    <linearGradient id="linear-gradient-2" x1="0.683" y1="0.703" x2="-0.556" y2="-0.37" gradientUnits="objectBoundingBox">
      <stop offset="0" stop-color="#ff0b00"/>
      <stop offset="0.16" stop-color="#ff0b00"/>
      <stop offset="1" stop-color="#ff8580" stop-opacity="0.522"/>
    </linearGradient>
    <linearGradient id="linear-gradient-3" x1="2.12" y1="1.656" x2="0.213" y2="0.065" gradientUnits="objectBoundingBox">
      <stop offset="0" stop-color="#ff0b00"/>
      <stop offset="0.16" stop-color="#ff0b00"/>
      <stop offset="1" stop-color="#ff847e"/>
    </linearGradient>
    <linearGradient id="linear-gradient-4" x1="1.196" y1="0.959" x2="0.117" y2="0.262" gradientUnits="objectBoundingBox">
      <stop offset="0" stop-color="#ff0b00"/>
      <stop offset="0.16" stop-color="#ff0b00"/>
      <stop offset="1" stop-color="#ff908b"/>
    </linearGradient>
    <linearGradient id="linear-gradient-6" x1="1.659" y1="4.65" x2="0.143" y2="-0.065" gradientUnits="objectBoundingBox">
      <stop offset="0" stop-color="#ff0b00"/>
      <stop offset="1" stop-color="#ff7e78"/>
    </linearGradient>
  </defs>
  <g id="Grupo_319" data-name="Grupo 319" transform="translate(0 -0.494)">
    <g id="Elipse_17" data-name="Elipse 17" transform="translate(0 0.494)" fill="#fff" stroke="#ff0b00" stroke-width="6">
      <circle cx="69.5" cy="69.5" r="69.5" stroke="none"/>
      <circle cx="69.5" cy="69.5" r="66.5" fill="none"/>
    </g>
    <g id="Grupo_183" data-name="Grupo 183" transform="translate(37 46.494)">
      <g id="Grupo_182" data-name="Grupo 182">
        <path id="Caminho_207" data-name="Caminho 207" d="M305.337,593.921c1.357-.022,2.716-.078,4.072,0a7.88,7.88,0,0,1,2.828-4.075c-.346-1.063-.676-2.125-1.016-3.188-.438-1.229-.888-2.453-1.316-3.685-2.622.528-5.235,1.081-7.85,1.634-.006.472-.009.944-.016,1.418.409-.031.818-.059,1.225-.088.675,2.663,1.418,5.313,2.072,7.985Z" transform="translate(-301.984 -562.688)" fill="url(#linear-gradient)"/>
        <g id="Grupo_182-2" data-name="Grupo 182" transform="translate(8.772 0)">
          <path id="Caminho_208" data-name="Caminho 208" d="M709.574,563.564a12.286,12.286,0,0,0-3.478-8.035,15.071,15.071,0,0,0-12.562-4.24c-.953.106-1.519.971-2.044,1.672a21.317,21.317,0,0,0-3.168,9.063,27.413,27.413,0,0,0,1.431,13.926,11.542,11.542,0,0,0,3.175,4.61c6.482,1.287,13.732-2.344,16.06-8.654a28.063,28.063,0,0,0,.587-8.341ZM690.4,561.529a1.044,1.044,0,1,1-1.044,1.044A1.041,1.041,0,0,1,690.4,561.529Zm-1.006,6.057a1.044,1.044,0,1,1,1.044,1.044A1.045,1.045,0,0,1,689.392,567.586Zm1.775,6.294a1.044,1.044,0,1,1,1.044-1.044A1.041,1.041,0,0,1,691.167,573.88Zm.312-14.9a1.044,1.044,0,0,1-.006-2.087h.006a1.044,1.044,0,1,1,0,2.087Zm2.159,19.682a1.044,1.044,0,1,1,1.044-1.044A1.041,1.041,0,0,1,693.639,578.661Zm0-24.142a1.044,1.044,0,1,1,1.044-1.044A1.043,1.043,0,0,1,693.639,554.519Z" transform="translate(-652.616 -534.519)" fill="url(#linear-gradient-2)"/>
          <path id="Caminho_209" data-name="Caminho 209" d="M389.915,606.738a28.689,28.689,0,0,1,.4-7.909,24.1,24.1,0,0,1,1.856-5.019c-2.481.418-4.988.732-7.432,1.335-1.95.544-2.953,2.478-3.615,4.231-.359,1.337-2.116,1.487-2.537,2.788-.613,1.644-.288,3.928,1.476,4.716.937.394,1.11,1.453,1.5,2.278a5.249,5.249,0,0,0,3.525,3.328c1.991.429,4.019.681,6,1.137.413.068.829.131,1.244.2a16.94,16.94,0,0,1-1.584-3.381,23.382,23.382,0,0,1-.834-3.7Zm-.853-11.057a.647.647,0,1,1-.647.647A.646.646,0,0,1,389.062,595.681Zm-.784,3.019a.647.647,0,1,1-.647.647A.648.648,0,0,1,388.278,598.7Zm-.325,3.813a.647.647,0,1,1-.643.647A.646.646,0,0,1,387.953,602.513Zm-.481,4.413a.647.647,0,1,1,.647.647A.646.646,0,0,1,387.472,606.926Zm1.6,4.6a.647.647,0,1,1,.647-.647A.646.646,0,0,1,389.072,611.523Z" transform="translate(-378.298 -572.289)" fill="url(#linear-gradient-3)"/>
          <path id="Caminho_210" data-name="Caminho 210" d="M513.208,433.368c.063-.525.135-1.05.218-1.572a22.638,22.638,0,0,1,3.469-9.035c-1.522.35-3.072.584-4.615.816a40.6,40.6,0,0,0-1.137-5.006c-.8-1.456-2.694-1.35-4.125-1.341-.013-2.622-.029-5.24.009-7.862.941-.175,2.022-.09,2.822-.7,1-.771.888-2.707-.406-3.094a8.472,8.472,0,0,0-3.147.241,4.27,4.27,0,0,0-2.635,4.078c-.059,2.463.018,4.925-.025,7.385-1.359.1-3.172.238-3.734,1.732-.587,2.31-.894,4.687-1.384,7.022a27.148,27.148,0,0,0-2.793.516c-.735.175-1.146.875-1.512,1.476a17.235,17.235,0,0,0-1.8,5.354,20.918,20.918,0,0,0-.2,5.959,17.649,17.649,0,0,0,.771,3.813,10.094,10.094,0,0,0,2.332,4.1,7.151,7.151,0,0,0,1.75.465c6.585,1.128,13.16,2.325,19.747,3.451a24.249,24.249,0,0,1-3.86-13.081,31.242,31.242,0,0,1,.25-4.712Zm-10.419,7.622a5.081,5.081,0,1,1,4.532-5.053A4.814,4.814,0,0,1,502.789,440.991Z" transform="translate(-479.085 -405.52)" fill="url(#linear-gradient-4)"/>
        </g>
        <path id="Caminho_211" data-name="Caminho 211" d="M310.1,688.7a7.112,7.112,0,0,0-1.481-1.957c-1.238.022-2.478.05-3.719.078-.51,2.075-1.081,4.132-1.618,6.2q-.211.8-.4,1.609c-.443.069-.888.135-1.328.209.038.431.072.863.11,1.3,2.613.519,5.213,1.09,7.825,1.613.853-2.4,1.618-4.822,2.431-7.235A8.644,8.644,0,0,1,310.1,688.7Z" transform="translate(-301.55 -654.597)" fill="url(#linear-gradient)"/>
        <path id="Caminho_212" data-name="Caminho 212" d="M393.363,589.7a1.113,1.113,0,1,0-1.113-1.113A1.113,1.113,0,0,0,393.363,589.7Z" transform="translate(-381.883 -566.674)" fill="url(#linear-gradient-6)"/>
        <path id="Caminho_213" data-name="Caminho 213" d="M398.07,526.923a2.063,2.063,0,1,0,2.063-2.063A2.063,2.063,0,0,0,398.07,526.923Z" transform="translate(-387.038 -511.22)" fill="url(#linear-gradient-6)"/>
        <path id="Caminho_214" data-name="Caminho 214" d="M361.5,415.006a1.518,1.518,0,1,0-1.518-1.518A1.518,1.518,0,0,0,361.5,415.006Z" transform="translate(-353.302 -411.233)" fill="url(#linear-gradient-6)"/>
        <circle id="Elipse_15" data-name="Elipse 15" cx="4.42" cy="4.42" r="4.42" transform="translate(9.547 9.016) rotate(-65.56)" fill="url(#linear-gradient-6)"/>
        <circle id="Elipse_16" data-name="Elipse 16" cx="3.216" cy="3.216" r="3.216" transform="translate(2.448 9.416)" fill="url(#linear-gradient-6)"/>
      </g>
    </g>
  </g>
</svg>
