<svg id="Grupo_1376" data-name="Grupo 1376" xmlns="http://www.w3.org/2000/svg" xmlns:xlink="http://www.w3.org/1999/xlink" width="44.633" height="24.184" viewBox="0 0 44.633 24.184">
  <defs>
    <clipPath id="clip-path">
      <rect id="Retângulo_759" data-name="Retângulo 759" width="44.633" height="24.184" fill="none"/>
    </clipPath>
  </defs>
  <g id="Grupo_1375" data-name="Grupo 1375" transform="translate(0 0)" clip-path="url(#clip-path)">
    <path id="Caminho_727" data-name="Caminho 727" d="M7.534,11.387h7.205l.214-2.117h1.474l.214,2.117H19.4L17.759.211H13.526L12.338,9.057H10.411V.211H7.534Zm8.683-4.111H15.17l.5-4.661ZM36.755,6.183a1.328,1.328,0,0,0-.276.312,1.29,1.29,0,0,0-.112.227,1.321,1.321,0,0,0-.077.378c-.02.2-.026.511-.026.819V9.274a3.111,3.111,0,0,0,.067.648,2.253,2.253,0,0,0,.182.524,1.946,1.946,0,0,0,.264.4,1.842,1.842,0,0,0,.333.3,2,2,0,0,0,.407.22,2.449,2.449,0,0,0,.5.139,3.39,3.39,0,0,0,.582.048h1.9a2.055,2.055,0,0,0,.4-.041,2.26,2.26,0,0,0,.4-.119,2.057,2.057,0,0,0,.344-.177,1.793,1.793,0,0,0,.268-.209,1.634,1.634,0,0,0,.372-.548l.832.856h1.522L42.612,9.226l.071-3.377H41.66v2.4l-3.519-3.59a3.884,3.884,0,0,1-.335-.411,1.264,1.264,0,0,1-.156-.29,1.352,1.352,0,0,1-.077-.3,3.385,3.385,0,0,1-.026-.447V2.259a1.024,1.024,0,0,1,.376-.818,1.306,1.306,0,0,1,.19-.133,1.534,1.534,0,0,1,.24-.111,1.781,1.781,0,0,1,.6-.1h1.094a1.439,1.439,0,0,1,.419.061,1.15,1.15,0,0,1,.346.172,1.092,1.092,0,0,1,.255.264,1.179,1.179,0,0,1,.161.347,1.543,1.543,0,0,1,.055.416V3.5H42.4V2.164a2.313,2.313,0,0,0-.044-.457,2,2,0,0,0-.133-.418A1.863,1.863,0,0,0,42,.916a1.9,1.9,0,0,0-.316-.323,2.1,2.1,0,0,0-.418-.261,2.4,2.4,0,0,0-.516-.175,2.776,2.776,0,0,0-.585-.062H38.783A2.19,2.19,0,0,0,38.1.2a2.315,2.315,0,0,0-.647.332,2.4,2.4,0,0,0-.529.535,2.363,2.363,0,0,0-.445,1.378V3.733a2.182,2.182,0,0,0,.032.4,1.143,1.143,0,0,0,.1.3,2,2,0,0,0,.262.4c.153.192.4.466.649.728C37.222,5.787,36.929,6.024,36.755,6.183Zm4.661,3.645a.921.921,0,0,1-.3.405,1.083,1.083,0,0,1-.16.1,1.3,1.3,0,0,1-.209.085,1.733,1.733,0,0,1-.284.063,2.839,2.839,0,0,1-.374.025H38.972a3.527,3.527,0,0,1-.468-.03,1.8,1.8,0,0,1-.33-.075,1.281,1.281,0,0,1-.229-.1,1.054,1.054,0,0,1-.172-.12.966.966,0,0,1-.134-.142,1.017,1.017,0,0,1-.106-.17,1.249,1.249,0,0,1-.081-.208A1.724,1.724,0,0,1,37.4,9.4a2.557,2.557,0,0,1-.019-.319v-1.4a3.315,3.315,0,0,1,.034-.475,1.49,1.49,0,0,1,.075-.3,1.247,1.247,0,0,1,.09-.194.941.941,0,0,1,.1-.141.9.9,0,0,1,.532-.292l3.258,3.377A1.178,1.178,0,0,1,41.416,9.828ZM27.39.211V11.388h2.877V5.894l2.045,5.493h3l-2.426-5.85L35.071.211h-3L30.268,5.2V.211ZM21.682,12.77V23.947h2.877V18.454L26.6,23.947h3L27.175,18.1l2.188-5.327h-3l-1.807,4.994V12.77ZM23.608,4.7h2.806V2.825a2.876,2.876,0,0,0-.091-.726,2.512,2.512,0,0,0-.273-.654,2.567,2.567,0,0,0-.457-.566,2.929,2.929,0,0,0-.657-.459A3.644,3.644,0,0,0,24.07.108,4.813,4.813,0,0,0,23.027,0,5.33,5.33,0,0,0,21.956.1a3.549,3.549,0,0,0-.861.291,2.753,2.753,0,0,0-.643.435,2.482,2.482,0,0,0-.464.569,2.7,2.7,0,0,0-.3.722,3.608,3.608,0,0,0-.1.873V8.58a3.942,3.942,0,0,0,.1.89,2.808,2.808,0,0,0,.279.73,2.459,2.459,0,0,0,.439.573,2.632,2.632,0,0,0,.616.441,3.327,3.327,0,0,0,.841.3,5.251,5.251,0,0,0,1.088.111,5.809,5.809,0,0,0,1.119-.1,3.507,3.507,0,0,0,.864-.285,2.623,2.623,0,0,0,.625-.421,2.379,2.379,0,0,0,.451-.56,2.709,2.709,0,0,0,.3-.745,4.133,4.133,0,0,0,.108-.953v-2H23.607V8.771a3.154,3.154,0,0,1-.015.316,1.206,1.206,0,0,1-.035.2.729.729,0,0,1-.044.122.441.441,0,0,1-.176.2.531.531,0,0,1-.191.062.632.632,0,0,1-.525-.125.492.492,0,0,1-.066-.075.659.659,0,0,1-.059-.1.885.885,0,0,1-.05-.142,1.332,1.332,0,0,1-.038-.208,2.686,2.686,0,0,1-.015-.29V2.493a.964.964,0,0,1,.016-.179.628.628,0,0,1,.044-.141.516.516,0,0,1,.064-.106.56.56,0,0,1,.471-.192.9.9,0,0,1,.16.014.505.505,0,0,1,.325.186.557.557,0,0,1,.068.113.884.884,0,0,1,.065.353ZM18.042,17.259h2.806V15.452a2.965,2.965,0,0,0-.09-.735,2.629,2.629,0,0,0-.736-1.254,2.993,2.993,0,0,0-.662-.476,3.581,3.581,0,0,0-.859-.321,4.506,4.506,0,0,0-1.023-.115,5.376,5.376,0,0,0-1.071.1,3.569,3.569,0,0,0-.864.291,2.745,2.745,0,0,0-.644.435,2.493,2.493,0,0,0-.467.574,2.737,2.737,0,0,0-.3.737,3.757,3.757,0,0,0-.107.9v5.541a3.942,3.942,0,0,0,.1.89,2.809,2.809,0,0,0,.279.73,2.458,2.458,0,0,0,.44.573,2.635,2.635,0,0,0,.616.441,3.324,3.324,0,0,0,.841.3,5.25,5.25,0,0,0,1.088.111,5.814,5.814,0,0,0,1.119-.1,3.514,3.514,0,0,0,.864-.285,2.616,2.616,0,0,0,.625-.421,2.374,2.374,0,0,0,.451-.56,2.73,2.73,0,0,0,.3-.745,4.131,4.131,0,0,0,.107-.953v-2H18.042v2.212a3.073,3.073,0,0,1-.015.312,1.185,1.185,0,0,1-.036.2.753.753,0,0,1-.046.124.46.46,0,0,1-.111.151.559.559,0,0,1-.387.119.942.942,0,0,1-.133-.009.465.465,0,0,1-.33-.189.551.551,0,0,1-.055-.094.807.807,0,0,1-.047-.134,1.336,1.336,0,0,1-.037-.209,3.11,3.11,0,0,1-.015-.315v-6.04a1.975,1.975,0,0,1,.015-.248,1.017,1.017,0,0,1,.039-.179.683.683,0,0,1,.053-.124.456.456,0,0,1,.24-.21.832.832,0,0,1,.289-.048.874.874,0,0,1,.137.008.433.433,0,0,1,.305.163.48.48,0,0,1,.048.079.637.637,0,0,1,.041.111,1.041,1.041,0,0,1,.033.175,2.623,2.623,0,0,1,.013.272v2.021ZM4.066,11.387a4.986,4.986,0,0,0,.83-.067,3.123,3.123,0,0,0,.645-.18,2.262,2.262,0,0,0,.469-.255,1.84,1.84,0,0,0,.342-.314,1.775,1.775,0,0,0,.243-.377,1.986,1.986,0,0,0,.152-.456A2.677,2.677,0,0,0,6.8,9.2V7.44a2.645,2.645,0,0,0-.031-.412,1.819,1.819,0,0,0-.088-.341,1.462,1.462,0,0,0-.136-.277,1.341,1.341,0,0,0-.186-.234,1.488,1.488,0,0,0-.254-.2,1.862,1.862,0,0,0-.358-.178,3.117,3.117,0,0,0-.493-.137l-.1-.024a4.194,4.194,0,0,0,.471-.14,2.066,2.066,0,0,0,.321-.148,1.467,1.467,0,0,0,.217-.151,1.146,1.146,0,0,0,.281-.35,1.363,1.363,0,0,0,.094-.232A1.86,1.86,0,0,0,6.61,4.3a3.471,3.471,0,0,0,.025-.425V2.47a3.534,3.534,0,0,0-.046-.577,2.168,2.168,0,0,0-.124-.45A1.719,1.719,0,0,0,6.281,1.1,1.592,1.592,0,0,0,6.037.819,1.762,1.762,0,0,0,5.714.589,2.389,2.389,0,0,0,5.272.4a3.549,3.549,0,0,0-.63-.137A6.771,6.771,0,0,0,3.781.21H0V11.387H4.066Zm-.647-4.8a.985.985,0,0,1,.147.011.494.494,0,0,1,.286.135.441.441,0,0,1,.062.078.542.542,0,0,1,.05.1,1.024,1.024,0,0,1,.05.338V8.7A1.352,1.352,0,0,1,4,8.9a.742.742,0,0,1-.036.145.533.533,0,0,1-.05.1.426.426,0,0,1-.137.138.467.467,0,0,1-.093.045.79.79,0,0,1-.265.041H2.683V6.588Zm.061-4.51a.479.479,0,0,1,.331.2.622.622,0,0,1,.108.363V4.258a.571.571,0,0,1-.2.478.553.553,0,0,1-.119.071.913.913,0,0,1-.367.069H2.682V2.07h.69A.668.668,0,0,1,3.48,2.078ZM0,23.947H3.733a7.688,7.688,0,0,0,.85-.045,3.738,3.738,0,0,0,.6-.114,2.6,2.6,0,0,0,.412-.151,1.953,1.953,0,0,0,.307-.178,1.7,1.7,0,0,0,.437-.45,1.917,1.917,0,0,0,.158-.291,2.381,2.381,0,0,0,.123-.357,3.242,3.242,0,0,0,.083-.452,4.949,4.949,0,0,0,.03-.553V15.5a5.114,5.114,0,0,0-.051-.735,3.02,3.02,0,0,0-.138-.565,2.191,2.191,0,0,0-.2-.422,1.825,1.825,0,0,0-.588-.594,2.248,2.248,0,0,0-.437-.211,3.128,3.128,0,0,0-.611-.151,5.761,5.761,0,0,0-.829-.057H0V23.947Zm3.323-9.3a.571.571,0,0,1,.457.169.465.465,0,0,1,.052.074.573.573,0,0,1,.043.1,1.062,1.062,0,0,1,.044.324v5.9a1.356,1.356,0,0,1-.012.186.76.76,0,0,1-.031.137.459.459,0,0,1-.155.231.624.624,0,0,1-.4.111H2.7V14.647Zm35.983,9.3V19.238H39.9a1.094,1.094,0,0,1,.206.019.73.73,0,0,1,.161.05.594.594,0,0,1,.119.071.566.566,0,0,1,.2.478v4.066h2.663V20.451a3.527,3.527,0,0,0-.035-.5,2.524,2.524,0,0,0-.092-.405A1.961,1.961,0,0,0,43,19.235a1.585,1.585,0,0,0-.155-.241,1.372,1.372,0,0,0-.176-.188,1.419,1.419,0,0,0-.2-.146,2.047,2.047,0,0,0-.546-.206,3.166,3.166,0,0,0,.446-.185,1.621,1.621,0,0,0,.3-.194,1.361,1.361,0,0,0,.356-.445,1.718,1.718,0,0,0,.118-.306,2.581,2.581,0,0,0,.084-.425,5.211,5.211,0,0,0,.031-.584V15.029a3.472,3.472,0,0,0-.042-.548,2.31,2.31,0,0,0-.117-.445,1.8,1.8,0,0,0-.178-.353,1.671,1.671,0,0,0-.237-.288,1.76,1.76,0,0,0-.312-.239,2.185,2.185,0,0,0-.415-.194,3.1,3.1,0,0,0-.575-.139,5.339,5.339,0,0,0-.764-.053H36.643V23.947h2.663Zm.572-9.3a1.025,1.025,0,0,1,.179.016.77.77,0,0,1,.15.042.6.6,0,0,1,.116.06.555.555,0,0,1,.245.5v1.57a.753.753,0,0,1-.019.171.573.573,0,0,1-.056.145.511.511,0,0,1-.09.119.567.567,0,0,1-.129.094.845.845,0,0,1-.4.089h-.571V14.647Zm-9.894,9.3h5.8V21.64H32.837V19.191h2.854V17.074H32.837V15.005h3V12.77h-5.85ZM7.534,12.77V23.947h5.8V21.64H10.388V19.191h2.854V17.074H10.388V15.005h3V12.77Z" transform="translate(0 0.004)" fill-rule="evenodd"/>
  </g>
</svg>
