<svg id="Grupo_1374" data-name="Grupo 1374" xmlns="http://www.w3.org/2000/svg" xmlns:xlink="http://www.w3.org/1999/xlink" width="67.32" height="22.107" viewBox="0 0 67.32 22.107">
  <defs>
    <clipPath id="clip-path">
      <rect id="Retângulo_758" data-name="Retângulo 758" width="67.32" height="22.107" fill="none"/>
    </clipPath>
  </defs>
  <g id="Grupo_1373" data-name="Grupo 1373" clip-path="url(#clip-path)">
    <path id="Caminho_723" data-name="Caminho 723" d="M1126.289,14.588c-.034.085-.136.2-.034.29l1.892.017c.239,0,.6.051.8-.187a13.847,13.847,0,0,0,.9-1.722c.1-.239.223-.47.337-.733-1.063-.036-1.581-.051-2.348-.017-.239-.034-.409.171-.528.358C1126.953,13.241,1126.6,13.906,1126.289,14.588Zm12.953-3.358A8.656,8.656,0,0,1,1141.56,9.1c.068-.017.068.051.085.085A7.481,7.481,0,0,1,1139,14.775c-.255.153-.528.358-.818.255-.341-.154-.324-.562-.29-.92A7.706,7.706,0,0,1,1139.242,11.23Zm-12.766,12.255a5.458,5.458,0,0,0,.938,3.75,3.557,3.557,0,0,0,3.545,1.176c2.743-.528,4.806-3.051,5.931-5.471a6.825,6.825,0,0,0,.733-4.125,1.815,1.815,0,0,0-1.432-1.329,3.65,3.65,0,0,0-3,1.38,8.411,8.411,0,0,0-2.079,6.034c0,.034.017.1.068.085.29-.324.58-.665.869-.989a11.668,11.668,0,0,1,2.148-1.517,5.711,5.711,0,0,1,.715-2.454c.341-.511.767-1.193,1.466-1.091.358.187.323.63.323,1.006a9.262,9.262,0,0,1-2.829,5.556c-.869.767-2.011,1.534-3.222.955-1.176-.75-.921-2.454-.715-3.681a6.267,6.267,0,0,1,.255-.972,25.409,25.409,0,0,1,3.579-7.278,20.761,20.761,0,0,1,5.42-5.693,3.027,3.027,0,0,1,1.585-.562c-.273.222-.58.46-.836.665a9.243,9.243,0,0,0-3.084,4.926,2.429,2.429,0,0,0,.323,1.7,1.4,1.4,0,0,0,1.006.528c1.3-.034,2.182-1.142,2.914-2.114a8.5,8.5,0,0,0,1.586-5.284l.034-.051a5.153,5.153,0,0,1,2.046.1,4.832,4.832,0,0,1,.988.341,43,43,0,0,1,4.465,2.948,21.993,21.993,0,0,1,1.943-2.49c-.186-.128-.29-.186-.494-.322-1.654-1.023-3.273-2.233-5.3-2.369a8.838,8.838,0,0,0-3.084.307c-.409.085-.784.255-1.16.358a2.467,2.467,0,0,0-.9-.545,6.532,6.532,0,0,0-4.312.937,19.063,19.063,0,0,0-6.186,5.659,25.5,25.5,0,0,0-3.7,7.193A10.39,10.39,0,0,0,1126.476,23.485Z" transform="translate(-1094.966 -6.628)" fill-rule="evenodd"/>
    <path id="Caminho_724" data-name="Caminho 724" d="M273.1,26.2a4.756,4.756,0,0,1,.511-.9h.052a5.346,5.346,0,0,0,1.585,1.261l-.035.171a8,8,0,0,1-2.3,3.051.606.606,0,0,1-.614-.017c-.443-.529-.136-1.312.017-1.858a12.8,12.8,0,0,1,.784-1.7m7.225.157c1.259-1.278,2.337-2.424,4.07-4.392a37.742,37.742,0,0,0,3.345-4.5,4.752,4.752,0,0,1-1.2.173s-1.874,2.625-2.368,3.162c-.692.756-3.152,3.614-3.028,3.308q.247-.605.506-1.2a41.829,41.829,0,0,1,4.125-7.176,27.974,27.974,0,0,1,2.969-3.552c.377-.319.428.108.218.535-.172.349-.372.755-.608,1.216a3.067,3.067,0,0,0,.989-.234,5.3,5.3,0,0,0,.547-2.269c-.108-.565-1.012-.691-1.541-.605a4.48,4.48,0,0,0-2.062,1.21,28.215,28.215,0,0,0-4.448,5.5,37.183,37.183,0,0,0-3.834,7.687c-.119.171-.324.2-.512.29a1.069,1.069,0,0,1-.648.1c.119-.562.324-1.091.409-1.653a2.23,2.23,0,0,0-.732-2.4,1.816,1.816,0,0,0-1.16-.153,3.617,3.617,0,0,0-1.192.46,12.087,12.087,0,0,0-4.244,5.437,8.4,8.4,0,0,0-.648,2.454,2.472,2.472,0,0,0,.819,2.335,2.259,2.259,0,0,0,2.351-.2,12.987,12.987,0,0,0,3.665-4.721c.1-.136.119-.307.255-.409a4.179,4.179,0,0,0,.921-.136c.068-.017.153-.085.221-.017-.052.273-.136.545-.2.818-.324,1.432-.886,3.341.256,4.568a1.637,1.637,0,0,0,1.671.187,8.181,8.181,0,0,0,2.165-1.892l.017.017a2,2,0,0,0,.7,1.858c1.108.494,2.1-.375,2.846-1.074.068,0,.119-.119.187-.085a1.444,1.444,0,0,0,.494,1.176c.716.375,1.534-.119,2.182-.477a11.543,11.543,0,0,0,3.46-4.534,2.787,2.787,0,0,0,.217-.481q-.5-.01-1,0a11.655,11.655,0,0,1-1.994,2.744c-.136.085-.39.424-.514.241-.053-.111.1-.33.151-.441,1.286-2.571,2.476-5.032,3.771-7.623.068-.119-.068-.119-.119-.153-.627-.034-1.617-.034-2.233-.034-.29,0-.256.341-.443.426a1.715,1.715,0,0,0-1.023-.46,3.921,3.921,0,0,0-2.829,1.432c-1.995,2.011-2.863,4.755-4.891,6.749-.154.119-.307.307-.512.2-.29-.256-.171-.75-.136-1.091A18.869,18.869,0,0,1,280.326,26.354Zm-4.976-3.48c.2-.085.477-.222.682-.034.443.46.221,1.091.1,1.636a3.2,3.2,0,0,1-.375.972,1.537,1.537,0,0,1-.971-.733,1.473,1.473,0,0,1,.256-1.568A1.581,1.581,0,0,1,275.351,22.874Zm10.312,3.017a8.759,8.759,0,0,1,2.369-2.949c.1-.034.221-.136.341-.068.188.187.034.511-.035.716a30.506,30.506,0,0,1-2.829,5.437c-.273.273-.46.648-.852.767a.242.242,0,0,1-.273-.154,3.4,3.4,0,0,1,.375-1.807A15.56,15.56,0,0,1,285.662,25.891Zm-51.916-.17a1.642,1.642,0,0,0,1.3,1.142,2.927,2.927,0,0,0,2.182-.648,16.09,16.09,0,0,0,3.668-5.036l.081,0c.239-.034.511-.045.75-.1.153,0,.323-.085.46-.051a14.054,14.054,0,0,0-.886,2.454,6.735,6.735,0,0,0-.119,1.006,2.635,2.635,0,0,0,.8,1.994,5.439,5.439,0,0,0,.614.341,3.379,3.379,0,0,0,1.312.051,8.5,8.5,0,0,0,3.835-2.523h.034c-.051.869-.17,1.926.614,2.437a2.275,2.275,0,0,0,2.369-.494c.29-.2.511-.426.784-.648a1.66,1.66,0,0,0,.307.988,1,1,0,0,0,.9.375,4.5,4.5,0,0,0,2.386-1.244,16.641,16.641,0,0,0,3.091-4.468l-.255.015c-.381,0-.484,0-.825-.013l-.034.034a10.678,10.678,0,0,1-1.738,2.454,2.317,2.317,0,0,1-.7.535c-.145-.028-.126-.119-.026-.337,1.091-2.165,2.093-4.133,3.181-6.283.259-.512.824-1.613.826-1.673-.783-.036-1.883,0-2.616-.014-.187.085-.153.324-.324.409a2.149,2.149,0,0,0-2.046-.323c-1.943.784-3.153,2.659-4.261,4.346A11.931,11.931,0,0,1,246,24.425c-.477.29-1.005.818-1.6.477-.494-.358-.341-1.108-.2-1.619a15.588,15.588,0,0,1,2.71-4.977c.392-.375.807-.944,1.4-.961.107.019.2.041.232.143.034.255-.29.153-.426.255a2.042,2.042,0,0,0-1.04,1.33.99.99,0,0,0,.273.961,1,1,0,0,0,1.131-.2,3.922,3.922,0,0,0,1.067-1.983,1.7,1.7,0,0,0-.767-1.721c-1.67-.665-3.119.6-4.244,1.739-.665.7-1.261,1.636-2.2,1.943a1.849,1.849,0,0,1-.954.187c.051-.239.147-.471.2-.7a8.7,8.7,0,0,0,.19-1.364,2.08,2.08,0,0,0-.937-1.84,2.729,2.729,0,0,0-2.591.443,11.434,11.434,0,0,0-3.764,4.73C233.9,22.64,233.24,24.135,233.747,25.721Zm5.812-8.505a.711.711,0,0,1,.562.034c.494.443.221,1.193.119,1.721a5.441,5.441,0,0,1-.29.733,1.155,1.155,0,0,1-.733-.273,1.215,1.215,0,0,1-.477-1.261,1.568,1.568,0,0,1,.818-.955m-1.994,3.511a6.537,6.537,0,0,1,.6-.92,3.654,3.654,0,0,0,1.619,1.176,10.361,10.361,0,0,1-1.244,2.131,4.056,4.056,0,0,1-1.415,1.329.494.494,0,0,1-.477-.136c-.358-.494-.068-1.15.068-1.653A15.438,15.438,0,0,1,237.564,20.727Zm13.618,1.687a12.772,12.772,0,0,1,3.136-4.67c.188-.136.409-.358.648-.255.171.136.034.358.017.528a39.047,39.047,0,0,1-1.96,3.971,8.055,8.055,0,0,1-1.789,2.369.418.418,0,0,1-.324.051c-.119-.051-.132-.209-.155-.381a4.718,4.718,0,0,1,.428-1.613" transform="translate(-227.086 -10.5)" fill-rule="evenodd"/>
    <path id="Caminho_725" data-name="Caminho 725" d="M.133,18.237c-.382,2.371.017,4.823,1.739,6.408,1.381,1.364,3.6,1.3,5.369,1.125,2.608-.392,5.028-1.364,7.636-1.807.392-.119.767-.085,1.159-.187a12.135,12.135,0,0,1,2.045,0,4.772,4.772,0,0,1,3.46,2.216s2.48-1.57,8.386.255c0,0-1.882-3.884-8.335-4.533a18.025,18.025,0,0,0-5.71.6c-2.352.613-4.6,1.449-7.005,1.926a6.96,6.96,0,0,1-1.3.1,3.742,3.742,0,0,1-3.664-2.011,6.767,6.767,0,0,1-.068-4.67,23.563,23.563,0,0,1,3.511-7.09,19.04,19.04,0,0,1,4.261-4.5,2.18,2.18,0,0,1,1.653-.494.523.523,0,0,1,.29.392c.034.153-.119.119-.2.153a1.8,1.8,0,0,0-1.091.75A1.518,1.518,0,0,0,12.047,8.5a.694.694,0,0,0,.613.29A2.5,2.5,0,0,0,14.382,6.9a2.088,2.088,0,0,0-.341-2.114,2.293,2.293,0,0,0-2.147-.46C9.1,4.96,6.678,6.954,4.787,9.1A24.306,24.306,0,0,0,.645,16.158,8.406,8.406,0,0,0,.133,18.237Z" transform="translate(0 -4.14)" fill-rule="evenodd"/>
    <path id="Caminho_726" data-name="Caminho 726" d="M.133,14.1C-.249,16.467.15,18.92,1.872,20.5c1.381,1.364,3.6,1.3,5.369,1.125,2.608-.392,5.028-1.364,7.636-1.807.392-.119.767-.085,1.159-.187a12.129,12.129,0,0,1,2.045,0,4.772,4.772,0,0,1,3.46,2.216s2.48-1.57,8.386.255c0,0-1.882-3.884-8.335-4.533a18.027,18.027,0,0,0-5.71.6c-2.352.614-4.6,1.449-7.005,1.926a6.957,6.957,0,0,1-1.3.1,3.742,3.742,0,0,1-3.664-2.011,6.767,6.767,0,0,1-.068-4.67A23.562,23.562,0,0,1,7.36,6.427a19.04,19.04,0,0,1,4.261-4.5,2.18,2.18,0,0,1,1.653-.494.523.523,0,0,1,.29.392c.034.153-.119.119-.2.153a1.8,1.8,0,0,0-1.091.75,1.518,1.518,0,0,0-.222,1.636.694.694,0,0,0,.613.29,2.5,2.5,0,0,0,1.721-1.892A2.088,2.088,0,0,0,14.041.649a2.293,2.293,0,0,0-2.147-.46C9.1.819,6.678,2.813,4.787,4.961A24.306,24.306,0,0,0,.645,12.017,8.406,8.406,0,0,0,.133,14.1ZM58.269,6.747a6.347,6.347,0,0,0,1.177.036,8.491,8.491,0,0,0,6.562-3.852A8.738,8.738,0,0,0,67.32.034L67.3,0c-.068,0-.085.068-.136.1a12.746,12.746,0,0,1-1.329,1.381A10.814,10.814,0,0,1,63.11,3.324a5.622,5.622,0,0,1-2.672.535C59.912,4.407,58.558,6.385,58.269,6.747Z" transform="translate(0)" fill-rule="evenodd"/>
  </g>
</svg>
