<svg xmlns="http://www.w3.org/2000/svg" xmlns:xlink="http://www.w3.org/1999/xlink" width="187" height="187" viewBox="0 0 187 187">
  <defs>
    <filter id="Elipse_13" x="0" y="0" width="187" height="187" filterUnits="userSpaceOnUse">
      <feOffset dy="3" input="SourceAlpha"/>
      <feGaussianBlur stdDeviation="8" result="blur"/>
      <feFlood flood-opacity="0.161"/>
      <feComposite operator="in" in2="blur"/>
      <feComposite in="SourceGraphic"/>
    </filter>
  </defs>
  <g id="Grupo_315" data-name="Grupo 315" transform="translate(24 21)">
    <g transform="matrix(1, 0, 0, 1, -24, -21)" filter="url(#Elipse_13)">
      <g id="Elipse_13-2" data-name="Elipse 13" transform="translate(24 21)" fill="#fff" stroke="#e9e9e9" stroke-width="6">
        <circle cx="69.5" cy="69.5" r="69.5" stroke="none"/>
        <circle cx="69.5" cy="69.5" r="66.5" fill="none"/>
      </g>
    </g>
    <g id="Grupo_305" data-name="Grupo 305" transform="translate(22.037 44.538)">
      <path id="Caminho_113" data-name="Caminho 113" d="M-849.707-361.394l-16.026,14.817L-881.761-361.4l3.358-4.472c.713-.949,1.408-1.912,2.154-2.834a1.154,1.154,0,0,1,.783-.391q9.733-.032,19.465-.005a.98.98,0,0,1,.7.278C-853.43-366.368-851.584-363.9-849.707-361.394Zm-22.175.541,6.152,12.169,6.2-12.169Zm3.872,10.563a2.388,2.388,0,0,0-.082-.456c-1.635-3.241-3.265-6.484-4.93-9.71a.994.994,0,0,0-.738-.417c-1.658-.037-3.316-.021-4.975-.016-.172,0-.343.04-.656.079Zm15.833-10.43-.094-.172c-1.727,0-3.455.023-5.181-.013a1.009,1.009,0,0,0-1.076.651c-1.556,3.109-3.148,6.2-4.725,9.3a5.015,5.015,0,0,0-.193.5l.1.064Zm-13.459-6.658-5.27,5.253h10.51Zm8.943-.461h-7.168l5.15,5.137Zm-10.783-.017h-6.876l1.705,5.11Zm-8.074.154-4.2,5.6h6.069Zm19.918.39-2.029,5.171h5.918Z" transform="translate(913.296 369.109)"/>
      <path id="Caminho_114" data-name="Caminho 114" d="M-627.1-65.141a3.279,3.279,0,0,1-.548-.509c-.564-.835-1.1-1.687-1.649-2.531-.1-.149-.213-.286-.438-.585,0,1.15.012,2.111-.012,3.071,0,.157-.169.31-.26.465a1.363,1.363,0,0,1-.193-.456c-.016-1.3-.009-2.6-.009-4.167a3.838,3.838,0,0,1,.754.591c.66.97,1.286,1.961,2.068,2.933v-3.324l.223-.066c.085.119.243.237.245.357.017,1.368.011,2.736.011,4.1Z" transform="translate(699.303 114.538)"/>
      <path id="Caminho_115" data-name="Caminho 115" d="M-874.965-66.545a2.246,2.246,0,0,1-2.357,2.228,2.316,2.316,0,0,1-2.32-2.293,2.3,2.3,0,0,1,2.349-2.185A2.231,2.231,0,0,1-874.965-66.545Zm-2.3-1.786a1.824,1.824,0,0,0-1.91,1.767,1.855,1.855,0,0,0,1.9,1.793,1.85,1.85,0,0,0,1.871-1.75A1.814,1.814,0,0,0-877.263-68.331Z" transform="translate(911.494 113.637)"/>
      <path id="Caminho_116" data-name="Caminho 116" d="M-561.418-67.981c-.219-.08-.445-.148-.657-.244a1.955,1.955,0,0,0-2.19.374,1.678,1.678,0,0,0-.326,2.036,1.866,1.866,0,0,0,1.9.978,1.893,1.893,0,0,0,1.6-1.329c-.427,0-.783.02-1.134-.01-.138-.012-.266-.134-.4-.206.123-.081.242-.226.369-.232.516-.027,1.035-.011,1.543-.011a1.944,1.944,0,0,1-1.46,2.138,2.381,2.381,0,0,1-2.838-1.121,2.165,2.165,0,0,1,.684-2.8,2.329,2.329,0,0,1,2.969.187Z" transform="translate(644.061 113.694)"/>
      <path id="Caminho_117" data-name="Caminho 117" d="M-740.5-66.151c0,.543.014,1.06-.01,1.575-.006.128-.136.251-.209.376-.084-.112-.24-.223-.242-.336q-.026-1.887,0-3.774c0-.11.164-.218.253-.328.068.106.191.211.2.319.021.519.009,1.04.009,1.62h2.362c0-.511-.014-1.045.01-1.577.006-.126.142-.246.219-.368.08.121.229.241.23.362q.026,1.851,0,3.7c0,.127-.134.252-.206.378-.086-.135-.237-.265-.245-.4-.03-.495-.012-.992-.012-1.546Z" transform="translate(793.53 113.508)"/>
      <path id="Caminho_118" data-name="Caminho 118" d="M-1010.469-68.006a5.242,5.242,0,0,1-.626-.2,1.968,1.968,0,0,0-2.482.646,1.711,1.711,0,0,0,.446,2.354,1.888,1.888,0,0,0,2.089.152,1.062,1.062,0,0,1,.611-.077,2.162,2.162,0,0,1-3.187.115,2.148,2.148,0,0,1-.017-3.181,2.291,2.291,0,0,1,3.222,0Z" transform="translate(1026.071 113.695)"/>
      <path id="Caminho_119" data-name="Caminho 119" d="M-944.031-64.6c.816,0,1.577-.013,2.336.011.15,0,.3.147.442.226-.152.072-.3.2-.458.206-.911.02-1.823.01-2.83.01,0-1.4-.006-2.767.012-4.129,0-.107.168-.212.259-.319.067.131.189.262.191.394.017,1.017.009,2.034.012,3.051C-944.065-65.009-944.048-64.868-944.031-64.6Z" transform="translate(966.701 113.467)"/>
      <path id="Caminho_120" data-name="Caminho 120" d="M-803.744-68.336c-.079,1.384-.154,2.686-.237,3.986,0,0-.137,0-.3,0v-3.986c-.42,0-.757.023-1.086-.012-.125-.013-.234-.157-.35-.242.109-.068.217-.192.328-.194q1.3-.024,2.6,0c.112,0,.22.126.33.194-.118.084-.228.226-.355.242A7.854,7.854,0,0,1-803.744-68.336Z" transform="translate(848.607 113.638)"/>
      <path id="Caminho_121" data-name="Caminho 121" d="M-675.639-66.292c0,.591.013,1.183-.011,1.774,0,.121-.149.237-.23.355-.077-.12-.219-.239-.22-.359q-.025-1.845,0-3.69c0-.131.124-.261.19-.391.091.132.255.26.261.4C-675.623-67.57-675.639-66.93-675.639-66.292Z" transform="translate(738.355 113.474)"/>
      <path id="Caminho_122" data-name="Caminho 122" d="M-505.279-176.951a7.476,7.476,0,0,1-1.857,3.2,5.894,5.894,0,0,1-4.165,1.673c-.838-.008-1.677,0-2.557,0v-11.988c3.628-.587,7.153.274,8.424,4.45a1.979,1.979,0,0,0,.155.309Zm-7.282,3.629c2.3.191,4.183-.4,5.355-2.387a4.513,4.513,0,0,0-.139-5.076c-1.222-1.834-3.045-2.366-5.216-2.146Z" transform="translate(600.329 211.841)"/>
      <path id="Caminho_123" data-name="Caminho 123" d="M-845.082-171.98h-1.288c.306-1.448.6-2.853.9-4.257q.72-3.385,1.443-6.77c.246-1.161.241-1.162,1.571-1.008l2.992,9.79c.143-.383.235-.6.3-.815q1.212-3.98,2.418-7.962c.344-1.137.34-1.138,1.651-1.022L-832.514-172H-833.8l-1.992-9.227-.148-.009q-.769,2.5-1.537,5.009c-.381,1.244-.793,2.48-1.122,3.738-.137.525-.433.533-.861.553a.7.7,0,0,1-.838-.583c-.784-2.66-1.6-5.311-2.409-7.964a1.556,1.556,0,0,0-.394-.7Z" transform="translate(883.189 211.713)"/>
      <path id="Caminho_124" data-name="Caminho 124" d="M-604.622-184.069a1.355,1.355,0,0,1,1.773.762c1.62,2.7,3.321,5.357,4.993,8.028.114.182.237.358.49.738v-9.549h1.273V-172.1a1.354,1.354,0,0,1-1.766-.727c-1.618-2.7-3.316-5.36-4.984-8.034-.127-.2-.266-.4-.528-.793v9.6h-1.251Z" transform="translate(677.539 211.779)"/>
      <path id="Caminho_125" data-name="Caminho 125" d="M-713.648-171.9a6.076,6.076,0,0,1-6.161-6.066,6.107,6.107,0,0,1,6.189-6.055,6.012,6.012,0,0,1,6.085,6.119A5.975,5.975,0,0,1-713.648-171.9Zm-4.869-6.034a4.882,4.882,0,0,0,4.883,4.826,4.887,4.887,0,0,0,4.853-4.859,4.881,4.881,0,0,0-4.885-4.826A4.877,4.877,0,0,0-718.517-177.931Z" transform="translate(775.526 211.656)"/>
      <path id="Caminho_126" data-name="Caminho 126" d="M-1092.952-172.032V-184.1c2.609-.176,5.129-.211,7.026,1.956a5.771,5.771,0,0,1,1.036,6.524,5.735,5.735,0,0,1-5.432,3.589C-1091.185-172.015-1092.048-172.032-1092.952-172.032Zm1.292-10.848v9.6c2.191.208,4.042-.323,5.254-2.2a4.517,4.517,0,0,0,0-5.2C-1087.622-182.563-1089.466-183.1-1091.66-182.88Z" transform="translate(1092.952 211.791)"/>
      <path id="Caminho_127" data-name="Caminho 127" d="M-948.674-172.045c-1.269.122-1.271.123-1.748-.934-.415-.919-.8-1.852-1.259-2.749a.979.979,0,0,0-.705-.45q-2.345-.06-4.692,0a.979.979,0,0,0-.7.463c-.458.9-.844,1.829-1.258,2.747-.469,1.039-.471,1.038-1.751.923.055-.163.094-.322.16-.468,1.649-3.678,3.308-7.351,4.945-11.034.184-.415.4-.635.88-.578.376.045.742-.079.97.436,1.679,3.8,3.4,7.58,5.1,11.367A1.628,1.628,0,0,1-948.674-172.045ZM-957-177.478h4.554l-2.281-5.069Z" transform="translate(980.521 211.753)"/>
      <path id="Caminho_128" data-name="Caminho 128" d="M-1001.877-171.635h-1.2v-12.039h1.2Z" transform="translate(1016.5 211.363)"/>
    </g>
  </g>
</svg>
