<svg id="Grupo_1382" data-name="Grupo 1382" xmlns="http://www.w3.org/2000/svg" xmlns:xlink="http://www.w3.org/1999/xlink" width="55.68" height="32.447" viewBox="0 0 55.68 32.447">
  <defs>
    <clipPath id="clip-path">
      <rect id="Retângulo_761" data-name="Retângulo 761" width="55.68" height="32.447" fill="none"/>
    </clipPath>
  </defs>
  <path id="Caminho_731" data-name="Caminho 731" d="M92.664,50.39l-1.034-.31L90.8,51.32h3.981l.724-3.205-3.361-.879Z" transform="translate(-61.386 -30.381)"/>
  <g id="Grupo_1381" data-name="Grupo 1381" transform="translate(0 0)">
    <g id="Grupo_1380" data-name="Grupo 1380" transform="translate(0 0)" clip-path="url(#clip-path)">
      <path id="Caminho_732" data-name="Caminho 732" d="M60.85.338V2.418h3.619V.338a.116.116,0,0,0,.1-.112.174.174,0,0,0-.155-.169q-.155,0-.155.169a.116.116,0,0,0,.1.112l-.31.675a.283.283,0,0,1-.517,0l-.31-.675c.052,0,.052-.056.052-.112,0-.112-.052-.169-.1-.169a.172.172,0,0,0-.155.169.2.2,0,0,0,.052.112L62.866.9a.283.283,0,0,1-.517,0L62.09.282c.052,0,.052-.056.052-.112A.174.174,0,0,0,61.987,0a.172.172,0,0,0-.155.168.2.2,0,0,0,.052.112L61.677.9a.285.285,0,0,1-.517.056L60.85.338a.116.116,0,0,0,.1-.112.156.156,0,1,0-.31,0C60.746.282,60.8.338,60.85.338Z" transform="translate(-40.997 -0.001)"/>
      <path id="Caminho_733" data-name="Caminho 733" d="M56.482,40.534l-.724,6.016-.879-.506-.62,1.293H57.93l1.448-4.217Z" transform="translate(-36.681 -26.252)"/>
      <path id="Caminho_734" data-name="Caminho 734" d="M98.628,9.575,88.65,10.924a1.082,1.082,0,0,0-.879.787s6.824-.45,8.479-.562c1.6-.112,2.172-.45,2.378-1.574" transform="translate(-59.336 -6.201)"/>
      <path id="Caminho_735" data-name="Caminho 735" d="M86.494,17.505l7.807-.112c1.034.056,1.447,0,1.809-.956l-9.409.394Z" transform="translate(-58.473 -10.646)"/>
      <path id="Caminho_736" data-name="Caminho 736" d="M65.612,3.6a1.983,1.983,0,0,0-1.344,1.125l-1.4,3.092L62.2,6.131l.672-.731V3.882L62.3,3.713l-1.137.281-.982-.45L59.1,3.657l-1.034-.112-.982.45-1.137-.281-.569.169V5.4l.672.731-.413,2.53,1.189,4.61,4.5,4.161-.1,3.2-.983-.281-.775,1.349h3.929L65.2,15.633l7.29,1.968,1.5,3.092-.879-.338-.672,1.349h3.412l.724-1.012L75.9,16.926v-5a.854.854,0,0,0,.827-.9V10.8H75.9L74.194,9.279a4.227,4.227,0,0,0-2.74-1.068L65.3,8.155l-1.4,1.518,1.5-4.217a1.146,1.146,0,0,1,.93-.787c1.241-.168,3.412-.731,9.409-1.518A2.308,2.308,0,0,0,77.917.958ZM59.925,7.536c-.155.112-.259.056-.362-.056l-.414-.618a.052.052,0,0,1,.052-.056.349.349,0,0,0,.31-.337V6.131h-.879v.338a.349.349,0,0,0,.31.337c.052,0,.052.056.052.056l-.414.618a.23.23,0,0,1-.31.056h-.052a.532.532,0,0,1-.155-.394l.1-1.125V5.85c0-.056.1-.169.155-.225a7.141,7.141,0,0,0,.724-.618s.517.45.724.618a.773.773,0,0,1,.155.225v.168l.1,1.125a.366.366,0,0,1-.1.394" transform="translate(-37.436 -0.62)"/>
      <path id="Caminho_737" data-name="Caminho 737" d="M15.252,66.7H2.586A2.564,2.564,0,0,0,0,69.516S-.1,72.5,2.586,72.5H5.067s.362,0,.362.281a.348.348,0,0,1-.362.45H.208c-.1,0-.1.113-.1.113v2.193s0,.112.1.112H5.429s2.378.225,2.482-2.7c0,0,.155-2.98-2.482-2.98H2.9s-.31.056-.31-.394c0,0-.052-.394.31-.394H8.738a.1.1,0,0,1,.1.112v6.185a.2.2,0,0,0,.1.168h2.172c.1,0,.1-.112.1-.112V69.347s0-.168.1-.168h2.12a1.1,1.1,0,0,0,.879-.506Z" transform="translate(0 -43.202)"/>
      <path id="Caminho_738" data-name="Caminho 738" d="M110.05,75.459V73.548c0-.168-.1-.112-.1-.112h-3.154s-.31,0-.31-.506V66.8c0-.169-.1-.112-.1-.112h-2.068c-.1,0-.1.169-.1.169V74.11a1.505,1.505,0,0,0,1.551,1.462H110c-.1,0,.052,0,.052-.112" transform="translate(-70.448 -43.186)"/>
      <path id="Caminho_739" data-name="Caminho 739" d="M135.073,70.528l2.171-3.711a.222.222,0,0,1,.207-.113h2.326s.051,0,.051.113l-3.36,5.623a2.012,2.012,0,0,0-.31.956v2.137s0,.112-.1.112h-2.068c-.1,0-.1-.112-.1-.112V73.339a1.4,1.4,0,0,0-.207-.787l-2.119-3.542c0-.056-.1-.056-.1-.056H127.06c-.1,0-.1.112-.1.112v.9s0,.112.1.112h3.722s.1,0,.1.169v1.8s0,.168-.1.168H127.06c-.1,0-.1.113-.1.113v.9s0,.112.1.112H131.2s.1,0,.1.169v1.912s0,.168-.1.168h-5.687c-.983,0-1.034-1.237-1.034-1.237V66.873s0-.169.1-.169h8.168a.154.154,0,0,1,.1.056l2.12,3.767a.068.068,0,0,0,.1,0" transform="translate(-84.149 -43.202)"/>
      <path id="Caminho_740" data-name="Caminho 740" d="M74.845,75.476s0,.112.1.112h2.068a.1.1,0,0,0,.1-.112V70.584s0-.056.052-.056h.052L79.5,74.351a2.212,2.212,0,0,0,1.913,1.237h1.913V66.874c0-.169-.1-.169-.1-.169H81.152c-.1,0-.1.169-.1.169v5.06A.052.052,0,0,1,81,71.99c-.052,0-.052-.056-.052-.056l-2.482-4.161a2.025,2.025,0,0,0-1.706-1.068H74.845Z" transform="translate(-50.598 -43.202)"/>
      <path id="Caminho_741" data-name="Caminho 741" d="M44.887,67.7a1.978,1.978,0,0,0-1.965-1.012A2.125,2.125,0,0,0,40.958,67.7c-1.292,2.7-3.774,7.872-3.774,7.872h2.585c.1-.225.362-.731.62-1.349h2.585a1.127,1.127,0,0,0,1.086-.731c.155-.338.362-.731.465-1.012.62,1.406,1.241,2.755,1.448,3.092h2.585c.1,0-2.378-5.4-3.671-7.872m-3.412,4.442c.776-1.687,1.5-3.317,1.5-3.317s.724,1.631,1.5,3.317Z" transform="translate(-25.138 -43.187)"/>
    </g>
  </g>
</svg>
