<svg xmlns="http://www.w3.org/2000/svg" width="257.462" height="48" viewBox="0 0 257.462 48">
  <g id="dvwv" transform="translate(0 0.03)">
    <g id="Camada_1" data-name="Camada 1" transform="translate(0 -0.03)">
      <path id="Caminho_1" data-name="Caminho 1" d="M1234.377,36.182l4.59-26.652-4.707,26.854C1234.3,36.316,1234.343,36.251,1234.377,36.182Z" transform="translate(-1038.796 -8.017)" fill="#48bab8"/>
      <path id="Caminho_2" data-name="Caminho 2" d="M1264.263.03h-.005l-.258,1.5Z" transform="translate(-1063.828 -0.021)" fill="#48bab8"/>
      <path id="Caminho_3" data-name="Caminho 3" d="M1429.34,73.315h0l.2-.025Z" transform="translate(-1202.967 -61.679)" fill="#48bab8"/>
      <path id="Caminho_4" data-name="Caminho 4" d="M658.724.067a16.788,16.788,0,0,0-6.416,1.118,20.53,20.53,0,0,1-.076,7.464l-1.136,6.6-1.246,6.6-.047.04-.5,2.838h0l-2.385,13.64c-1.007,5.562,1.149,9.457,6.909,9.616a13,13,0,0,0,6.75-1.9,19.657,19.657,0,0,1-.038-7.34l.91-5.281,1.7-9.054h.011l.124-.708h0l2.564-14.669C666.859,3.458,664.482.225,658.724.067Z" transform="translate(-544.267 -0.048)" fill="#48bab8"/>
      <path id="Caminho_5" data-name="Caminho 5" d="M137.885,21.113a36.949,36.949,0,0,0,.582-7.019c-.136-6.67-2.581-11.211-6.989-13.1a13.029,13.029,0,0,0-5.215-1,15.977,15.977,0,0,0-4.489.659c-4.216,1.23-8.343,4.148-12.426,8.393l-1.758,10.96c3.993-5.217,8.244-7.869,12.839-7.869,2.232,0,3.555.974,4.028,3.075a15.777,15.777,0,0,1-.19,5.885L121.251,38.4Q119.6,48,128.1,48a13.222,13.222,0,0,0,7.122-1.742c-.913-1.742-1-4.572-.366-8.32Z" transform="translate(-90.561 0.005)" fill="#48bab8"/>
      <path id="Caminho_6" data-name="Caminho 6" d="M523.385-.025a17.191,17.191,0,0,0-6.448,1.185,17.99,17.99,0,0,1,.092,5.068,12.184,12.184,0,0,1-.28,2.863l-.367,1.812-.407,3.878c.115.3-.7,4.235-.594,4.54l-1.554,7.589q-.206.437-.432.865L511.64,37.7c-.073.42-.133.825-.187,1.223.03-.073.062-.144.09-.215-.457,3.009-.184,5.3.913,6.765,1.1,1.554,3.024,2.432,5.856,2.432a13.621,13.621,0,0,0,7.211-1.885c-.915-1.742-1.007-4.57-.366-8.32L529.9,10.9l.37-1.815C531.41,3.629,529.14.122,523.385-.025Z" transform="translate(-430.351 0.03)" fill="#48bab8"/>
      <path id="Caminho_7" data-name="Caminho 7" d="M914.574,2.293c-1.258-1.334-3.262-2.013-6-2.013a14.087,14.087,0,0,0-4.568.747c-3.545,1.2-6.665,3.881-9.322,8.031.3-1.619-.792,3.439-.792,3.439s.222-1.765.218-1.766l-.733,4.2-.57,4.208c3.2-3.894,7.016-5.794,11.654-5.794a10.611,10.611,0,0,1,6.227,1.819,9.981,9.981,0,0,1,1.9,1.741,17.588,17.588,0,0,0,2.043-3.245,15.039,15.039,0,0,0,1.527-6.621A6.672,6.672,0,0,0,914.574,2.293Z" transform="translate(-751.413 -0.231)" fill="#48bab8"/>
      <path id="Caminho_8" data-name="Caminho 8" d="M1236.53,37.044,1243.017,0H1229.5l-.263,1.509-4.59,26.667c-.04.07-.081.135-.122.2l-1.518,8.667q-.1.575-.171,1.135c.024-.044.051-.087.074-.131-.456,3.018-.182,5.3.915,6.767a7.614,7.614,0,0,0,6.136,3.107,19.3,19.3,0,0,0,6.931-2.068C1235.982,44.12,1235.891,40.793,1236.53,37.044Z" transform="translate(-1029.058 0.005)" fill="#48bab8"/>
      <path id="Caminho_9" data-name="Caminho 9" d="M822.76,2.294C821.5.959,819.5.28,816.761.28a14.08,14.08,0,0,0-4.568.747c-3.545,1.205-6.665,3.883-9.322,8.035a8.9,8.9,0,0,0-.051-4.243,5.075,5.075,0,0,0-.95-1.756,8.307,8.307,0,0,0-6.2-2.632,19.615,19.615,0,0,0-6.573.941,22.926,22.926,0,0,1,.149,7.964L789,10.74h-.011l-.733,4.2-3.588,20.271-.011.019c-.225,1.194-.438,2.393-.726,3.571l.027-.041c-.457,2.469-.269,5.226,1.011,6.781.939,1.128,2.441,2.63,6.116,2.63a9.6,9.6,0,0,0,6.4-2.1,15.79,15.79,0,0,1-.3-3.167,27.948,27.948,0,0,1,.391-4.417v-.019h.016l.975-5.592,2.43-13.719c3.2-3.908,7.019-5.81,11.657-5.81a10.606,10.606,0,0,1,6.226,1.82,10,10,0,0,1,1.9,1.742,17.6,17.6,0,0,0,2.043-3.246,15.046,15.046,0,0,0,1.528-6.624A6.678,6.678,0,0,0,822.76,2.294Z" transform="translate(-659.603 -0.231)" fill="#48bab8"/>
      <path id="Caminho_10" data-name="Caminho 10" d="M1087.424,37.044,1093.912,0h-13.519l-.263,1.509-4.59,26.667c-.039.07-.081.135-.122.2-2.82,4.708-6.614,7.02-11.209,7.02-2.849,0-4.335-1.213-4.687-3.851a17.286,17.286,0,0,1,.3-5.109l3.2-17.83c1.005-5.486-1.372-8.594-7.122-8.594a18.276,18.276,0,0,0-6.4,1.118,17.247,17.247,0,0,1,.229,4.927q-.1,1.221-.316,2.55l-3.38,19.105c-1.548,9.353.769,15.876,5.885,18.673a13.488,13.488,0,0,0,6.543,1.533,16.372,16.372,0,0,0,5.356-.869c4.188-1.443,7.495-4.593,9.921-8.868.023-.044.05-.087.074-.131-.456,3.018-.182,5.3.915,6.767a7.614,7.614,0,0,0,6.136,3.107,19.3,19.3,0,0,0,6.931-2.068C1086.877,44.12,1086.785,40.793,1087.424,37.044Z" transform="translate(-879.956 0.005)" fill="#48bab8"/>
      <path id="Caminho_11" data-name="Caminho 11" d="M1387.454.73h-29.79c-.305,0-.6.01-.889.027-4.8.285-7.243,2.942-7.243,7.972a18.7,18.7,0,0,0,.731,5.334,14.886,14.886,0,0,1,6.279-1.816l.2-.019q.891-.068,1.841-.07h10.965s-5.856,5.334-11.912,11.467c-4.651,4.715-9.416,9.9-11.725,13.5-.2.3-.374.6-.532.876a21.809,21.809,0,0,0-2.515,10.539h32.044a13.927,13.927,0,0,0,1.559-.084c4.359-.488,6.573-3.125,6.573-7.918a18.667,18.667,0,0,0-.731-5.332,15.862,15.862,0,0,1-7.567,1.892c-.247,0-.5.011-.747.011h-13.129s4.739-5.251,10.464-11.413c4.274-4.607,9.11-9.722,12.926-13.534l.019-.019C1388.757,7.641,1387.454.73,1387.454.73Z" transform="translate(-1130.169 -0.61)" fill="#48bab8"/>
      <path id="Caminho_12" data-name="Caminho 12" d="M368.995-.025a17.19,17.19,0,0,0-6.448,1.185,17.993,17.993,0,0,1,.092,5.068q-.09.865-.241,1.771A11.264,11.264,0,0,0,352.753.16a16.034,16.034,0,0,0-2.088-.136,19.273,19.273,0,0,0-7.312,1.389,22.442,22.442,0,0,0-8.68,6.566c-4.478,5.3-6.763,12.161-6.763,20.66,0,9.117,3.343,15.23,8.726,17.848a15.061,15.061,0,0,0,6.627,1.446,17.558,17.558,0,0,0,4.115-.475,13.721,13.721,0,0,0,9.69-8.552c.03-.073.062-.144.09-.215-.457,3.009-.184,5.3.913,6.765,1.1,1.554,3.025,2.432,5.856,2.432A13.621,13.621,0,0,0,371.138,46c-.915-1.742-1.007-4.57-.366-8.32L375.511,10.9l.37-1.815C377.019,3.629,374.749.122,368.995-.025ZM359.436,26.9q-.206.437-.432.865c-2.532,4.814-6.692,8.645-11.264,8.645-2.278,0-4.223-1.538-5.25-4.3a13.948,13.948,0,0,1-.782-4.843c0-5.156,1.478-9.307,3.8-12.048a9.7,9.7,0,0,1,7.447-3.677c3.721,0,6.268,3.132,7.713,6.862.117.3.226.6.329.909Z" transform="translate(-275.974 0.03)" fill="#48bab8"/>
      <path id="Caminho_13" data-name="Caminho 13" d="M47.324,21.113a36.943,36.943,0,0,0,.582-7.019C47.77,7.424,45.325,2.884,40.917,1A13.029,13.029,0,0,0,35.7,0a15.977,15.977,0,0,0-4.489.659C27,1.889,22.87,4.806,18.787,9.052l-.158.166c.457-2.469.511-4.851-.768-6.4C16.733,1.508,15.606,0,11.848,0A20.358,20.358,0,0,0,5.1,1.132a25.851,25.851,0,0,1-.09,8.37L2.638,24.245h.021L.264,38.018c-1.1,6.4,1.223,9.906,6.89,9.906a13.234,13.234,0,0,0,7.091-2.043c-.915-1.742-1.007-4.57-.366-8.32l3.007-16.823c.04-.233.078-.462.112-.69l.021-.025c3.993-5.217,8.244-7.869,12.839-7.869,2.232,0,3.555.974,4.028,3.075a15.777,15.777,0,0,1-.19,5.885L30.689,38.4Q29.043,48,37.542,48a13.222,13.222,0,0,0,7.122-1.742c-.913-1.742-1.005-4.572-.366-8.32Z" transform="translate(0 0.005)" fill="#48bab8"/>
      <path id="Caminho_14" data-name="Caminho 14" d="M658.724.067a16.788,16.788,0,0,0-6.416,1.118,20.53,20.53,0,0,1-.076,7.464l-1.136,6.6-1.246,6.6-.047.04-.5,2.838h0l-2.385,13.64c-1.007,5.562,1.149,9.457,6.909,9.616a13,13,0,0,0,6.75-1.9,19.657,19.657,0,0,1-.038-7.34l.91-5.281,1.7-9.054h.011l.124-.708h0l2.564-14.669C666.859,3.458,664.482.225,658.724.067Z" transform="translate(-544.267 -0.048)" fill="#48bab8"/>
      <path id="Caminho_15" data-name="Caminho 15" d="M1400.495,72.819l.019-.019h-12.008l-2.719.014s-5.856,5.337-11.912,11.473c-4.652,4.717-9.416,9.9-11.725,13.506h26.039l.012-.014h-11.1s4.739-5.254,10.464-11.419C1391.849,81.751,1396.679,76.634,1400.495,72.819Z" transform="translate(-1146.411 -61.273)" fill="#48bab8"/>
    </g>
  </g>
</svg>
