<svg xmlns="http://www.w3.org/2000/svg" width="139" height="139" viewBox="0 0 139 139">
  <g id="Grupo_316" data-name="Grupo 316" transform="translate(0.499)">
    <g id="Elipse_15" data-name="Elipse 15" transform="translate(-0.499)" fill="#fff" stroke="#daa381" stroke-width="6">
      <circle cx="69.5" cy="69.5" r="69.5" stroke="none"/>
      <circle cx="69.5" cy="69.5" r="66.5" fill="none"/>
    </g>
    <g id="Grupo_306" data-name="Grupo 306" transform="translate(17.795 60.957)">
      <path id="Caminho_113" data-name="Caminho 113" d="M46.828-265.244a70.459,70.459,0,0,1,7.675.143c3.015.381,5.445,1.736,6.371,4.767.97,3.174.718,6.259-1.789,8.776a8,8,0,0,1-5.671,2.088c-2.193.076-4.391.009-6.586.005Zm3.623,7.872c0,1.429.008,2.858-.006,4.286,0,.342.05.528.459.512.886-.034,1.778.028,2.66-.045a4.122,4.122,0,0,0,4.051-3.464,6.6,6.6,0,0,0-.068-2.785,3.907,3.907,0,0,0-2.813-2.955,14.126,14.126,0,0,0-3.726-.323c-.447-.016-.575.126-.566.566C50.467-260.179,50.451-258.776,50.451-257.373Z" transform="translate(-46.828 265.713)" fill="#020202"/>
      <path id="Caminho_114" data-name="Caminho 114" d="M359.525-251.483c-.919-.338-1.911-.366-2.832-.74a8.185,8.185,0,0,1-4.983-8.16,8.152,8.152,0,0,1,6.478-7.367,3.17,3.17,0,0,0,1.338-.293h.942c.826.3,1.716.3,2.554.583a8.113,8.113,0,0,1,5.421,8.557,8.122,8.122,0,0,1-6.553,7.143c-.473.09-.99-.014-1.422.277Zm-4.076-8.3c0,.259-.018.521,0,.778a4.65,4.65,0,0,0,7.026,3.607,5.043,5.043,0,0,0,2.225-5.419,4.635,4.635,0,0,0-7.305-3.094A4.764,4.764,0,0,0,355.45-259.783Z" transform="translate(-304.908 268.043)" fill="#daa381"/>
      <path id="Caminho_115" data-name="Caminho 115" d="M255.8-268.043c.7.149,1.405.286,2.1.449a8.317,8.317,0,0,1,3.684,2.132c.351.32.441.58.052.958a11.453,11.453,0,0,0-1.347,1.519c-.38.532-.615.418-1.015.019a5.117,5.117,0,0,0-5.77-1.125,4.478,4.478,0,0,0-2.721,4.444,4.441,4.441,0,0,0,2.682,4.319,4.9,4.9,0,0,0,5.408-.869c.846-.709.823-.734,1.6.07.235.244.482.477.716.722.885.931.961.669-.068,1.624a7.966,7.966,0,0,1-4.442,2.137c-.15.02-.321-.015-.41.159h-1.726c-.264-.258-.626-.214-.945-.28a7.478,7.478,0,0,1-6.164-5.542,7.959,7.959,0,0,1,2.184-8.384,8.269,8.269,0,0,1,4.75-2.191c.172-.022.377.041.489-.163Z" transform="translate(-216.326 268.043)" fill="#daa381"/>
      <path id="Caminho_116" data-name="Caminho 116" d="M490.536-249.317c-1.318,0-2.616-.009-3.914.005-.424,0-.585-.3-.775-.568-.842-1.191-1.718-2.362-2.492-3.6a1.615,1.615,0,0,0-1.643-.863c-1.405.067-1.407.019-1.407,1.407,0,1.015-.018,2.03.008,3.044.011.445-.149.592-.588.578q-1.214-.04-2.431,0c-.43.013-.6-.115-.6-.571q.019-7.338.006-14.677c0-.317.027-.57.448-.555,2.815.1,5.636-.2,8.447.253,3.373.54,4.324,2.975,4.048,5.872a4.336,4.336,0,0,1-2.531,3.849c-.49.222-.276.442-.088.7q1.569,2.192,3.134,4.387A1.341,1.341,0,0,1,490.536-249.317ZM480.3-259.865c0,.725,0,1.323,0,1.921,0,.233-.022.517.321.507a15.292,15.292,0,0,0,4.049-.195c1.014-.3,1.36-1.042,1.3-2.537-.043-1-.441-1.446-1.478-1.713a6.548,6.548,0,0,0-1.867-.122c-.746.024-1.7-.332-2.182.158C479.993-261.391,480.366-260.458,480.3-259.865Z" transform="translate(-410.695 265.575)" fill="#daa381"/>
      <path id="Caminho_117" data-name="Caminho 117" d="M569.233-249.646c.725-1.676,1.4-3.245,2.083-4.812,1.493-3.437,3-6.869,4.473-10.314.215-.5.482-.753,1.048-.676a3.244,3.244,0,0,0,1.017,0c1.281-.241,1.907.29,2.4,1.493,1.892,4.567,3.9,9.088,5.894,13.611.277.627.148.767-.48.7-.337-.033-.679-.006-1.019-.006-2.067,0-2.067,0-2.885-1.92-.6-1.413-.6-1.4-2.148-1.414-1.515-.018-3.033.09-4.545-.066a.667.667,0,0,0-.771.495c-.317.8-.687,1.575-1,2.373a.744.744,0,0,1-.82.543C571.442-249.666,570.4-249.646,569.233-249.646Zm8.608-11.014c-.639,1.468-1.2,2.753-1.756,4.038-.168.386,0,.522.382.52q1.371-.007,2.742,0c.386,0,.542-.139.376-.523C579.03-257.91,578.474-259.2,577.841-260.66Z" transform="translate(-489.207 265.904)" fill="#daa381"/>
      <path id="Caminho_118" data-name="Caminho 118" d="M164.592-249.356c-1.725,0-3.45-.015-5.175.01-.479.007-.669-.073-.666-.622q.037-7.3,0-14.6c0-.49.138-.608.615-.605q5.175.029,10.35,0c.45,0,.589.13.566.572a16.125,16.125,0,0,0,0,2.028c.039.522-.182.587-.63.583-2.169-.02-4.339.021-6.507-.026-.675-.015-.856.192-.794.825a8.146,8.146,0,0,1,0,1.714c-.075.657.206.755.784.745,1.907-.033,3.816,0,5.723-.024.476-.007.66.107.613.6-.076.795.326,1.831-.168,2.319-.386.381-1.433.106-2.186.109-1.385.006-2.771.022-4.155-.01-.484-.011-.641.123-.608.609a14.076,14.076,0,0,1,0,1.95c-.038.532.1.708.673.7,2.273-.035,4.548,0,6.821-.028.558-.008.726.15.686.694a14.875,14.875,0,0,0,0,1.95c.025.43-.139.515-.533.511C168.2-249.367,166.4-249.356,164.592-249.356Z" transform="translate(-141.558 265.62)" fill="#020202"/>
      <g id="SHOP" transform="translate(98.113 0.214)" style="mix-blend-mode: normal;isolation: isolate">
        <path id="Caminho_119" data-name="Caminho 119" d="M687.969-180.341l-.672-.3a2.268,2.268,0,0,0,.4-1.272c0-.529-.176-.744-.413-.744-.722,0-.226,2.242-1.658,2.242-.656,0-1.2-.529-1.2-1.625a2.587,2.587,0,0,1,.342-1.339l.677.275a2.177,2.177,0,0,0-.3,1.069c0,.529.2.733.441.733.711,0,.22-2.242,1.636-2.242.645,0,1.2.534,1.2,1.636A2.746,2.746,0,0,1,687.969-180.341Z" transform="translate(-684.427 196.6)"/>
        <path id="Caminho_120" data-name="Caminho 120" d="M684.848-209.96H688.7v.892h-1.581v1.751H688.7v.892h-3.856v-.892h1.52v-1.751h-1.52Z" transform="translate(-684.782 218.866)"/>
        <path id="Caminho_121" data-name="Caminho 121" d="M686.421-236.889A2,2,0,0,1,684.427-239a2,2,0,0,1,1.994-2.11,2,2,0,0,1,1.994,2.11A2,2,0,0,1,686.421-236.889Zm0-3.316A1.176,1.176,0,0,0,685.187-239a1.176,1.176,0,0,0,1.234,1.206A1.176,1.176,0,0,0,687.655-239,1.176,1.176,0,0,0,686.421-240.2Z" transform="translate(-684.427 245.123)"/>
        <path id="Caminho_122" data-name="Caminho 122" d="M686.247-266.678c.859,0,1.393.644,1.393,1.674v.777H688.7v.892h-3.856V-265C684.848-266.034,685.382-266.678,686.247-266.678Zm0,.9c-.424,0-.672.275-.672.821v.727h1.338v-.727C686.913-265.5,686.666-265.775,686.247-265.775Z" transform="translate(-684.782 266.678)"/>
      </g>
    </g>
  </g>
</svg>
