<svg xmlns="http://www.w3.org/2000/svg" xmlns:xlink="http://www.w3.org/1999/xlink" width="139" height="139" viewBox="0 0 139 139">
  <defs>
    <clipPath id="clip-path">
      <path id="Caminho_155" data-name="Caminho 155" d="M56.951,4.675a22.429,22.429,0,0,0-4.162,2.763,4.359,4.359,0,0,1-5.553-.055,22.265,22.265,0,0,0-4.083-2.708C36.562,1.381,27.775,1.269,21.4,8.34c-9.8,10.878-4.875,25.635,9.58,37.417,3.561,2.9,8.258,6.706,12.1,9.815a11.081,11.081,0,0,0,13.94,0c3.846-3.11,8.55-6.918,12.112-9.819C83.584,33.975,88.514,19.218,78.708,8.34A16.908,16.908,0,0,0,65.878,2.5a20.127,20.127,0,0,0-8.927,2.171" transform="translate(-16.291 -2.504)" fill="none"/>
    </clipPath>
  </defs>
  <g id="Grupo_319" data-name="Grupo 319" transform="translate(0 -0.494)">
    <g id="Elipse_17" data-name="Elipse 17" transform="translate(0 0.494)" fill="#fff" stroke="#a30c17" stroke-width="6">
      <circle cx="69.5" cy="69.5" r="69.5" stroke="none"/>
      <circle cx="69.5" cy="69.5" r="66.5" fill="none"/>
    </g>
    <g id="Grupo_219" data-name="Grupo 219" transform="translate(52 55.494)">
      <g id="Grupo_218" data-name="Grupo 218" transform="translate(-16.566 -13.625)" clip-path="url(#clip-path)">
        <path id="Caminho_152" data-name="Caminho 152" d="M78.708,8.34C72.329,1.268,63.542,1.381,56.95,4.675a22.465,22.465,0,0,0-4.161,2.764,4.359,4.359,0,0,1-5.552-.054,22.339,22.339,0,0,0-4.083-2.71C36.562,1.381,27.775,1.268,21.4,8.34c-9.8,10.878-4.875,25.636,9.58,37.417,3.56,2.9,8.258,6.706,12.1,9.815a11.081,11.081,0,0,0,13.941,0c3.846-3.109,8.55-6.917,12.112-9.818,14.456-11.78,19.385-26.539,9.58-37.417" transform="translate(-16.291 -2.504)" fill="#c4161c"/>
        <path id="Caminho_153" data-name="Caminho 153" d="M55.56,5.132c-.373.292-4.023-2.541-4.3-2.815-1.815-1.823-6.5.541-8.752-.584C35.922-1.56,26.6-.308,20.221,6.763c-9.8,10.878-9.832,30,4.623,41.777,7.2,5.868,23.118,14.807,23.118,14.807s7.866-4.528,6.881-4.459c-5.344.379-7.2-5.013-7.759-7.031-5.522-20.124-4.308-39.4,8.477-46.725" transform="translate(-16.073 -2.318)" fill="#a30c17"/>
        <path id="Caminho_154" data-name="Caminho 154" d="M76.861,20.533H71.97V15.642a5.191,5.191,0,1,0-10.382,0v4.891H56.7a5.191,5.191,0,1,0,0,10.382h4.891v4.891a5.191,5.191,0,0,0,10.382,0V30.914h4.891a5.191,5.191,0,1,0,0-10.382" transform="translate(-18.911 -3.095)" fill="#fff"/>
      </g>
    </g>
  </g>
</svg>
