<svg xmlns="http://www.w3.org/2000/svg" width="308" height="308" viewBox="0 0 308 308">
  <g id="Grupo_1440" data-name="Grupo 1440" transform="translate(-141.577 -2403.577)">
    <rect id="Retângulo_780" data-name="Retângulo 780" width="308" height="308" rx="16" transform="translate(141.577 2403.577)" fill="#fff"/>
    <g id="Grupo_1439" data-name="Grupo 1439" transform="translate(157.931 2493.256)">
      <rect id="Retângulo_85" data-name="Retângulo 85" width="273" height="128" transform="translate(-0.354 0.321)" fill="none"/>
      <g id="Grupo_5" data-name="Grupo 5" transform="translate(52.468 10.781)">
        <g id="Grupo_4" data-name="Grupo 4" transform="translate(30.186 27.202)">
          <path id="Caminho_44" data-name="Caminho 44" d="M-150.471,359.757V320.08h-4.1v-6.688h15.418v6.688h-4.1v39.677Z" transform="translate(239.856 -312.099)"/>
          <path id="Caminho_45" data-name="Caminho 45" d="M-237.567,359.757V313.392h7.223v39.68h5.284v6.685Z" transform="translate(290.723 -312.099)"/>
          <rect id="Retângulo_32" data-name="Retângulo 32" width="7.224" height="46.365" transform="translate(20.917 1.293)"/>
          <rect id="Retângulo_33" data-name="Retângulo 33" width="7.223" height="46.365" transform="translate(118.379 1.293)"/>
          <path id="Caminho_46" data-name="Caminho 46" d="M-108.137,359.757V320.08h-4.1v-6.688h15.418v6.688h-4.1v39.677Z" transform="translate(213.91 -312.099)"/>
          <path id="Caminho_47" data-name="Caminho 47" d="M-367.977,334.96h2.7c.725,0,.809-.24.809-1.079V321.212c0-.74-.108-1.132-.809-1.132h-2.7Zm0,18.114h2.7c.725,0,.809-.24.809-1.078v-9.436c0-.74-.108-1.671-.809-1.671l-2.7,0Zm-6.9,6.685,0-46.364h13.909c2.949,0,3.5,2.359,3.5,4.313v18.869c0,1.083-1.178,1.423-1.887,1.509.709.107,1.909.941,1.887,1.844v15.839c0,1.763-1.141,3.99-3.5,3.99Z" transform="translate(374.877 -312.101)" fill-rule="evenodd"/>
          <path id="Caminho_48" data-name="Caminho 48" d="M-281.7,338.841V319.434a1.579,1.579,0,0,0-1.617-1.618,1.58,1.58,0,0,0-1.617,1.618l0,19.408Zm7.225,18.869H-281.7V345.85h-3.236v11.861h-7.222V320.781c0-5.909,3.985-10.728,8.841-10.728,5.821,0,8.842,4.819,8.842,10.728Z" transform="translate(324.18 -310.053)" fill-rule="evenodd"/>
          <path id="Caminho_49" data-name="Caminho 49" d="M-192.713,330.755V319.434a1.58,1.58,0,0,0-1.618-1.618,1.579,1.579,0,0,0-1.617,1.618l0,11.321Zm7.224,19.677c0,11.11-17.683,11.132-17.683,0V319.163c0-4.62,4.071-9.111,8.841-9.111a9.042,9.042,0,0,1,8.842,9.111l0,18.869h-10.455l0,11.861c0,1.182.7,2.156,1.672,2.156s1.564-.974,1.564-2.156v-7.709h7.222Z" transform="translate(269.643 -310.053)" fill-rule="evenodd"/>
        </g>
        <path id="Caminho_50" data-name="Caminho 50" d="M-434.175,267.361l-.113-1.143c-.15-1.461-2.323-1.836-2,.281Zm-6.014-.056,2.116-.806c.431-.169-.168-1.143-.6-1.311-.862-.337-1.349,1.368-1.517,2.061Zm1.03-4.122h4.609l-.056-.768h-4.4Zm.094,4.271-1.293.45-.169.375s1.965-.052,3.221-.052,3.186.052,3.186.052V267.9l-1.18-.45a1.164,1.164,0,0,1-1.049.563c-.75-.169-1.237-4.179,1.911-3.056l-.056-1.029h-4.827l-.213.974c2-.974,2.529,2.885,1.517,3.111C-438.3,268.055-438.615,267.9-439.065,267.455Zm6.745,30.276c-.394-2-.206-2.716.319-4.89C-433.088,294.528-434.007,296.045-432.32,297.731Zm.805,6.445c.225,0,.993-.262.993-.6l-.993-1.011-.791.8Zm-10.96,3.11.543,1.181v-1.06Zm9.292,1.349.58-1.143v-3.8l-.58.543Zm-7.795,1.506v-2.627l-.506-.054v1.606Zm6.8.068.547-.86v-4.663l-.547.483Zm-3.32.263a1.847,1.847,0,0,1,.334.079.574.574,0,0,1,.251.146v-3.863l-.585.228Zm-3.03.055.45.563v-3.612l-.45.014Zm5.208.656.693-.487v-5.152l-.693.5Zm-3.283-3.812V311.3a3.509,3.509,0,0,1,.318-.437,4.283,4.283,0,0,1,.338-.331v-3.354Zm-1.026,3.949.578.111V307.4l-.578.043Zm3.164.257.7-.111-.029-5.187-.667.353Zm-.633-37.77c1.574,0,7.812-.262,7.812-2.717,0-2.642-5.89-2.54-7.924-2.54-1.121,0-7.4-.479-7.718,2.463C-444.927,274.409-439.065,273.806-437.1,273.806Zm-6.314,7.49,4.516,9.316,6.576-3.035-1.255-11.373a19.518,19.518,0,0,1-3.522-1.686,12.682,12.682,0,0,1-5.042,2.008ZM-437,294.584l5.057-4.144-.225-2.152-6.987,3.261-4.45-9.362-.5,2.074,1.461,7.55,1.312-2.922,1.854,3.26,3.3-.281Zm-4.327,3.2,2.492-1.63-1.031-2.773h-2.435Zm-4.29-46.932c.056.056.318-.206.318-.319-.057-.225-.318-.337-.356-.43-.881-1.911.9-2.286,1.892-2.23.051-.832-.006-1.168.111-2.046.3-2.229,2.054-5.391.75-5.654-2.061-.506-1.255,6.07-3.035,6.557C-448.17,247.277-446.915,250.144-445.622,250.855Zm-2.267-1.312c0,.6,1.237,2.3,1.63,2.248.15,0,.318-.187.206-.543-.712-.449-1.086-1.461-1.517-2.061C-447.889,248.907-447.889,249.282-447.889,249.544Zm-.281,1.761c.056.749.6.955,1.2,1.068a.3.3,0,0,0,.112-.262,3.884,3.884,0,0,1-1.2-1.368C-448.283,250.743-448.17,251.193-448.17,251.305Zm3.887,4.927h1.167v-3.2c0-1.455.473-.431,1.185-2.38,1.086-2.829-3.091-2.567-3.466-1.855-.6,1.349,1.031,1.405,1.8,1.031.412-.318-.337,1.031-1.105.768a.779.779,0,0,1-.862.712c0,.637-.263.955-.655.955-.544.937.824,1.049,1.2.506.225-.394.684-.113.74.543Zm0,4.946h1.223l-.056-4.29h-1.167ZM-427.6,300.6c1.518,1.574,1.574,2.829,1.031,3.859-.656,1.2-2.435,1.574-4.234.918a43.441,43.441,0,0,0-2.923,5.152c-.712,1.912.543,1.143,1.78,1.967,1.03.656,1.479,1.2,1.479,2.268-1.854,2.66-4.777-1.181-5.657-.75-.6.375-.824.262-1.461-.056,0-.487,1.349-3.429.056-2.979-.711.206-.337,1.78-.6,2.548-.22.784-.6.862-1.8.375-.918.6-3.409,2.773-4.608,1.312-1.031-2.024,2.286-3,3.316-3.86-.656-1.424-1.311-2.885-2.023-4.291-3.128-1.4-5.583-4.178-7.812-6.726L-444.8,284.2l.263-.9v-6.726c0-.169-.862-.056-1.031-.975-.15-.543.375-1.255.918-1.855l.04-.914a2.18,2.18,0,0,1-.152-3.207l-.093-16.319a1.28,1.28,0,0,1-2.005-.45c-1.629,0-1.911-2.211-1.573-2.548.217-.132.325-.1.364-.077-.476-1.553.442-1.5.442-1.759,0-.6.1-1.666.957-1.891,1.636-.24,1.5-2.634,1.87-4.408.244-1.169.594-2.2,1.238-2.336,2.977-.629.593,4.209.35,5.825a16,16,0,0,0-.126,2.209c.75.262,1.461.262,1.948,1.312.355,1.278-.533,2.6-1.146,3.3v.549l.115,15.515a8.409,8.409,0,0,1,1.347-.243l1.051-4.371h-.881v-.75h1.087l2.51-9.668.956,2.979,1.255-3.953,1.142,10.642h1.124l-.038.75h-1.031l.375,4.4c1.779.109,4.641.848,4.641,2.613a2.332,2.332,0,0,1-1.485,2.078c1.319.822,2.568,2.581.7,3.5a6.192,6.192,0,0,1-3.416-.182l.044.295,1.63,13.808C-427.487,293.16-426.682,296.045-427.6,300.6Z" transform="translate(451.75 -239.786)" fill-rule="evenodd"/>
        <path id="Caminho_51" data-name="Caminho 51" d="M-452.851,425.213a2.227,2.227,0,0,0,2.245,2.239,2.22,2.22,0,0,0,2.234-2.239A2.215,2.215,0,0,0-450.606,423,2.221,2.221,0,0,0-452.851,425.213Zm.4,0a1.834,1.834,0,0,1,1.84-1.888,1.831,1.831,0,0,1,1.828,1.888,1.838,1.838,0,0,1-1.828,1.912A1.84,1.84,0,0,1-452.446,425.213Zm.971,1.31h.4V425.4h.428l.709,1.119h.435l-.744-1.149a.669.669,0,0,0,.685-.709c0-.5-.292-.744-.911-.744h-1.006Zm.4-2.275h.536c.274,0,.571.054.571.4,0,.411-.327.429-.685.429h-.423Z" transform="translate(452.851 -352.072)" fill-rule="evenodd"/>
      </g>
    </g>
  </g>
</svg>
