<svg xmlns="http://www.w3.org/2000/svg" width="78.788" height="38.397" viewBox="0 0 78.788 38.397">
  <g id="Grupo_108" data-name="Grupo 108" transform="translate(0)">
    <g id="Grupo_107" data-name="Grupo 107" transform="translate(15.266 13.757)">
      <path id="Caminho_261" data-name="Caminho 261" d="M-152.5,336.841V316.774h-2.073v-3.382h7.8v3.382h-2.072v20.066Z" transform="translate(197.703 -312.738)" fill="#fff"/>
      <path id="Caminho_262" data-name="Caminho 262" d="M-237.567,336.841V313.392h3.653V333.46h2.672v3.381Z" transform="translate(264.451 -312.738)" fill="#fff"/>
      <rect id="Ret창ngulo_188" data-name="Ret창ngulo 188" width="3.654" height="23.449" transform="translate(10.579 0.654)" fill="#fff"/>
      <rect id="Ret창ngulo_189" data-name="Ret창ngulo 189" width="3.653" height="23.449" transform="translate(59.869 0.654)" fill="#fff"/>
      <path id="Caminho_263" data-name="Caminho 263" d="M-110.163,336.841V316.774h-2.073v-3.382h7.8v3.382h-2.072v20.066Z" transform="translate(163.657 -312.738)" fill="#fff"/>
      <path id="Caminho_264" data-name="Caminho 264" d="M-371.387,324.3h1.363c.367,0,.409-.121.409-.545v-6.407c0-.374-.055-.572-.409-.572h-1.363Zm0,9.161h1.363c.367,0,.409-.121.409-.545v-4.772c0-.375-.055-.845-.409-.845h-1.363Zm-3.488,3.381V313.395h7.034c1.491,0,1.772,1.193,1.772,2.181v9.543c0,.548-.6.72-.954.763.359.054.965.476.954.933v8.01a1.9,1.9,0,0,1-1.772,2.018Z" transform="translate(374.877 -312.741)" fill="#fff" fill-rule="evenodd"/>
      <path id="Caminho_265" data-name="Caminho 265" d="M-286.868,324.613V314.8a.8.8,0,0,0-.818-.818.8.8,0,0,0-.818.818v9.815Zm3.654,9.543h-3.654v-6H-288.5v6h-3.653V315.479c0-2.989,2.015-5.426,4.471-5.426,2.944,0,4.472,2.437,4.472,5.426Z" transform="translate(308.352 -310.053)" fill="#fff" fill-rule="evenodd"/>
      <path id="Caminho_266" data-name="Caminho 266" d="M-197.882,320.523V314.8a.8.8,0,0,0-.818-.818.8.8,0,0,0-.818.818v5.726Zm3.654,9.951c0,5.619-8.943,5.63-8.943,0V314.661a4.721,4.721,0,0,1,4.472-4.608,4.573,4.573,0,0,1,4.472,4.608V324.2h-5.288v6c0,.6.356,1.09.845,1.09s.791-.493.791-1.09v-3.9h3.652Z" transform="translate(236.789 -310.053)" fill="#fff" fill-rule="evenodd"/>
    </g>
    <path id="Caminho_267" data-name="Caminho 267" d="M-442.518,253.732l-.057-.578c-.076-.739-1.175-.929-1.014.142Zm-3.041-.028,1.07-.407c.218-.085-.085-.578-.3-.663-.436-.17-.682.692-.767,1.042Zm.521-2.084h2.331l-.028-.388h-2.226Zm.047,2.16-.654.228-.085.19s.994-.026,1.629-.026,1.611.026,1.611.026v-.19l-.6-.228a.589.589,0,0,1-.531.285c-.379-.086-.626-2.114.966-1.545l-.028-.52h-2.441l-.108.493c1.014-.493,1.279,1.459.767,1.573C-444.6,254.083-444.764,254.007-444.991,253.779Zm3.411,15.312a4.551,4.551,0,0,1,.161-2.473C-441.969,267.471-442.433,268.239-441.58,269.091Zm.407,3.259c.114,0,.5-.133.5-.3l-.5-.511-.4.4Zm-5.543,1.573.275.6v-.536Zm4.7.682.294-.578V272.1l-.294.275Zm-3.942.762v-1.329l-.256-.027v.812Zm3.439.034.277-.435v-2.358l-.277.244Zm-1.679.133a.932.932,0,0,1,.169.04.29.29,0,0,1,.127.074v-1.954l-.3.115Zm-1.532.028.228.285v-1.827l-.228.007Zm2.634.332.351-.246v-2.606l-.351.254Zm-1.66-1.928v1.985a1.774,1.774,0,0,1,.161-.221,2.155,2.155,0,0,1,.171-.167v-1.7Zm-.519,2,.292.056v-2.039l-.292.022Zm1.6.13.352-.056-.015-2.623-.337.178Zm-.32-19.1c.8,0,3.951-.133,3.951-1.374,0-1.336-2.979-1.285-4.007-1.285-.567,0-3.742-.242-3.9,1.246C-447.956,257.3-444.991,256.992-444,256.992Zm-3.193,3.788,2.284,4.711,3.326-1.535-.635-5.752a9.873,9.873,0,0,1-1.781-.853,6.413,6.413,0,0,1-2.55,1.016Zm3.241,6.72,2.558-2.1-.114-1.088-3.533,1.649-2.25-4.735-.251,1.049.739,3.819.663-1.478.938,1.648,1.667-.142Zm-2.188,1.62,1.26-.824-.521-1.4h-1.232Zm-2.17-23.736c.028.028.161-.1.161-.161-.029-.114-.161-.171-.18-.218-.445-.967.455-1.156.957-1.128.026-.421,0-.591.056-1.035.151-1.127,1.039-2.726.379-2.86-1.042-.256-.635,3.07-1.535,3.316C-449.6,243.575-448.961,245.024-448.307,245.384Zm-1.147-.663c0,.3.625,1.165.825,1.137.076,0,.161-.095.1-.275-.36-.227-.549-.739-.767-1.042C-449.454,244.4-449.454,244.589-449.454,244.721Zm-.142.891c.029.379.3.483.607.54a.149.149,0,0,0,.057-.133,1.964,1.964,0,0,1-.606-.692C-449.653,245.327-449.6,245.555-449.6,245.612Zm1.966,2.492h.59v-1.62c0-.736.239-.218.6-1.2.549-1.431-1.563-1.3-1.753-.938-.3.682.521.711.91.521.209-.161-.17.521-.559.389a.394.394,0,0,1-.436.36c0,.322-.133.483-.331.483-.275.474.417.531.606.256.114-.2.346-.057.374.275Zm0,2.5h.618l-.028-2.17h-.59Zm8.437,19.936c.768.8.8,1.431.521,1.952a1.715,1.715,0,0,1-2.141.464,21.966,21.966,0,0,0-1.478,2.606c-.36.967.275.578.9.995.521.332.748.606.748,1.147-.938,1.345-2.416-.6-2.861-.379-.3.19-.417.133-.739-.028,0-.246.682-1.734.028-1.507-.36.1-.17.9-.3,1.289-.111.4-.3.436-.91.19-.464.3-1.724,1.4-2.331.663-.521-1.023,1.156-1.516,1.677-1.952-.332-.72-.663-1.459-1.023-2.17a12.467,12.467,0,0,1-3.951-3.4l3.164-8.158.133-.455v-3.4c0-.086-.436-.029-.521-.493-.076-.275.19-.635.464-.938l.02-.462a1.1,1.1,0,0,1-.077-1.622l-.047-8.253a.648.648,0,0,1-1.014-.227c-.824,0-.966-1.118-.8-1.288.11-.067.164-.052.184-.039-.241-.786.224-.757.224-.89,0-.3.048-.842.484-.956.828-.121.758-1.332.946-2.229.124-.591.3-1.112.626-1.181,1.506-.318.3,2.129.177,2.946a8.089,8.089,0,0,0-.063,1.117c.379.133.739.133.985.663a1.958,1.958,0,0,1-.58,1.667v.277l.058,7.846a4.248,4.248,0,0,1,.681-.123l.532-2.211h-.445v-.379h.549l1.27-4.889.483,1.507.635-2,.578,5.382h.569l-.019.379h-.521l.19,2.227c.9.055,2.347.429,2.347,1.322a1.179,1.179,0,0,1-.751,1.051c.667.416,1.3,1.305.356,1.768a3.132,3.132,0,0,1-1.728-.092l.022.149.824,6.983C-439.136,266.78-438.728,268.239-439.193,270.541Z" transform="translate(451.407 -239.786)" fill="#fff" fill-rule="evenodd"/>
    <path id="Caminho_268" data-name="Caminho 268" d="M-452.851,424.118a1.126,1.126,0,0,0,1.136,1.132,1.123,1.123,0,0,0,1.13-1.132,1.12,1.12,0,0,0-1.13-1.12A1.123,1.123,0,0,0-452.851,424.118Zm.2,0a.927.927,0,0,1,.931-.955.926.926,0,0,1,.925.955.929.929,0,0,1-.925.967A.931.931,0,0,1-452.646,424.118Zm.491.663h.2v-.566h.217l.359.566h.22l-.376-.581a.338.338,0,0,0,.346-.358c0-.253-.148-.376-.461-.376h-.509Zm.2-1.151h.271c.139,0,.289.027.289.2,0,.208-.165.217-.346.217h-.214Z" transform="translate(452.851 -387.128)" fill="#fff" fill-rule="evenodd"/>
  </g>
</svg>
