<svg id="Grupo_1378" data-name="Grupo 1378" xmlns="http://www.w3.org/2000/svg" xmlns:xlink="http://www.w3.org/1999/xlink" width="61.376" height="16.703" viewBox="0 0 61.376 16.703">
  <defs>
    <clipPath id="clip-path">
      <rect id="Retângulo_760" data-name="Retângulo 760" width="61.376" height="16.704" fill="none"/>
    </clipPath>
  </defs>
  <g id="Grupo_1377" data-name="Grupo 1377" clip-path="url(#clip-path)">
    <path id="Caminho_728" data-name="Caminho 728" d="M354.452,1.149a.929.929,0,0,0-.929-.931h-1.377a.93.93,0,0,0-.929.933v14.4a.93.93,0,0,0,.929.931h1.378a.93.93,0,0,0,.928-.933Zm1.755.383v.685a.514.514,0,0,0,.515.511h9.5A.783.783,0,0,0,367,1.945V.786A.759.759,0,0,0,366.219,0s-9.182.9-9.477.934A.587.587,0,0,0,356.207,1.531ZM348.518,16.48a3.731,3.731,0,0,1-3.85-3.786V6.933h-.676a.652.652,0,0,1-.652-.651V5.318a.652.652,0,0,1,.654-.65h.674V1.127a.906.906,0,0,1,.906-.908h1.343a.91.91,0,0,1,.906.911v3.54h2.093a.652.652,0,0,1,.654.65v.964a.651.651,0,0,1-.652.651h-2.095l0,5.329a1.634,1.634,0,0,0,1.766,1.76h.191a.707.707,0,0,1,.709.706v1.046a.706.706,0,0,1-.708.707h-1.264ZM326.392,4.253a5.867,5.867,0,0,0-5.961,6.139c0,3.357,2.294,6.311,5.987,6.311,2.527,0,5.018-1.332,5.489-3.517a.565.565,0,0,0-.55-.684h-1.807a.9.9,0,0,0-.756.394,2.665,2.665,0,0,1-2.392,1.16,2.76,2.76,0,0,1-2.761-2.628h7.678a.916.916,0,0,0,1.024-1.037C332.342,7.321,330.523,4.253,326.392,4.253Zm0,2.465a2.694,2.694,0,0,1,2.75,2.36h-5.48a2.674,2.674,0,0,1,2.73-2.36m34.992-2.465a5.868,5.868,0,0,0-5.963,6.139c0,3.357,2.294,6.311,5.987,6.311,2.527,0,5.018-1.332,5.489-3.517a.565.565,0,0,0-.55-.684h-1.806a.9.9,0,0,0-.758.394,2.665,2.665,0,0,1-2.392,1.16,2.76,2.76,0,0,1-2.761-2.628h7.679a.916.916,0,0,0,1.024-1.037C367.333,7.321,365.514,4.253,361.385,4.253Zm0,2.465a2.693,2.693,0,0,1,2.749,2.36h-5.48a2.673,2.673,0,0,1,2.731-2.36" transform="translate(-305.957 0)" fill-rule="evenodd"/>
    <path id="Caminho_729" data-name="Caminho 729" d="M36.127,2.577H11.253A1.023,1.023,0,0,0,10.231,3.6l.085,9.769S4.957,3.688,4.677,3.195A1.826,1.826,0,0,0,3.069,2.3H1.023A1.024,1.024,0,0,0,0,3.327V17.653a1.023,1.023,0,0,0,1.023,1.024H2.336a1.025,1.025,0,0,0,1.023-1.026L3.276,7.608s5.411,9.778,5.643,10.163a1.8,1.8,0,0,0,1.606.906H12.4a1.023,1.023,0,0,0,1.023-1.024V5.005h22.7a.7.7,0,0,0,.7-.7V3.274A.7.7,0,0,0,36.127,2.577Z" transform="translate(0 -2.198)" fill-rule="evenodd"/>
    <path id="Caminho_730" data-name="Caminho 730" d="M599.4,96.488a2.211,2.211,0,0,1,2.182,1.07c.139.326.411.389.783.389h1.487a.541.541,0,0,0,.527-.533c0-1.729-2.061-3.273-4.981-3.273-3.021,0-5,1.439-5,3.731,0,1.754,1.384,2.8,3.088,3.243.777.2,2.1.531,2.748.7.7.183,1.318.395,1.318.992,0,.94-.993,1.261-2.074,1.261a2.5,2.5,0,0,1-2.341-1.19c-.17-.425-.467-.486-.917-.486H594.7a.582.582,0,0,0-.568.571v.195c0,1.674,2.245,3.426,5.341,3.426,2.2,0,5.255-.912,5.255-3.857,0-1.706-1.141-2.887-3-3.358-.726-.184-2.472-.628-2.851-.726-.677-.175-1.308-.4-1.308-.976,0-.878.812-1.177,1.824-1.177" transform="translate(-567.295 -89.889)" fill-rule="evenodd"/>
  </g>
</svg>
