<svg xmlns="http://www.w3.org/2000/svg" width="150" height="27.965" viewBox="0 0 150 27.965">
  <g id="Camada_2" data-name="Camada 2" transform="translate(0 0.03)">
    <g id="Camada_1" data-name="Camada 1" transform="translate(0 -0.03)">
      <path id="Caminho_1" data-name="Caminho 1" d="M1234.328,25.055,1237,9.53l-2.742,15.643C1234.284,25.134,1234.308,25.1,1234.328,25.055Z" transform="translate(-1120.38 -8.649)" fill="#fbfbfb"/>
      <path id="Caminho_2" data-name="Caminho 2" d="M1264.153.03h0l-.15.876Z" transform="translate(-1147.377 -0.025)" fill="#fbfbfb"/>
      <path id="Caminho_3" data-name="Caminho 3" d="M1429.34,73.3h0l.118-.015Z" transform="translate(-1297.45 -66.525)" fill="#fbfbfb"/>
      <path id="Caminho_4" data-name="Caminho 4" d="M653.7.065a9.779,9.779,0,0,0-3.738.651,11.961,11.961,0,0,1-.044,4.348l-.662,3.844-.726,3.844-.028.023-.289,1.653h0l-1.389,7.947c-.586,3.24.669,5.51,4.025,5.6a7.57,7.57,0,0,0,3.932-1.107,11.455,11.455,0,0,1-.022-4.276l.53-3.077.991-5.275h.006l.072-.412h0l1.494-8.546C658.436,2.041,657.051.157,653.7.065Z" transform="translate(-587.013 -0.054)" fill="#fbfbfb"/>
      <path id="Caminho_5" data-name="Caminho 5" d="M125.238,12.3a21.527,21.527,0,0,0,.339-4.089c-.079-3.886-1.5-6.531-4.072-7.631A7.589,7.589,0,0,0,118.468,0a9.306,9.306,0,0,0-2.615.384,17.147,17.147,0,0,0-7.239,4.89l-1.024,6.386c2.326-3.039,4.8-4.585,7.479-4.585a2.12,2.12,0,0,1,2.346,1.792,9.193,9.193,0,0,1-.111,3.429L115.548,22.37q-.959,5.593,3.992,5.593a7.7,7.7,0,0,0,4.149-1.015c-.532-1.015-.585-2.664-.213-4.848Z" transform="translate(-97.67 0.003)" fill="#fbfbfb"/>
      <path id="Caminho_6" data-name="Caminho 6" d="M518.353-.027a10.012,10.012,0,0,0-3.756.69,10.483,10.483,0,0,1,.053,2.952,7.1,7.1,0,0,1-.163,1.668l-.214,1.056-.237,2.26c.067.175-.406,2.467-.346,2.645l-.905,4.421q-.12.255-.252.5l-1.023,5.782c-.042.245-.077.481-.109.712.018-.042.036-.084.053-.125a5.27,5.27,0,0,0,.532,3.942A3.9,3.9,0,0,0,515.4,27.9a7.934,7.934,0,0,0,4.2-1.1c-.533-1.015-.586-2.663-.213-4.848l2.763-15.612.216-1.057C523.028,2.1,521.706.059,518.353-.027Z" transform="translate(-464.151 0.03)" fill="#fbfbfb"/>
      <path id="Caminho_7" data-name="Caminho 7" d="M905.488,1.452A4.615,4.615,0,0,0,901.994.28a8.206,8.206,0,0,0-2.661.435A10.708,10.708,0,0,0,893.9,5.393c.174-.943-.461,2-.461,2s.129-1.028.127-1.029l-.427,2.448-.332,2.452A8.413,8.413,0,0,1,899.6,7.892a6.181,6.181,0,0,1,3.627,1.059,5.819,5.819,0,0,1,1.106,1.014,10.252,10.252,0,0,0,1.19-1.89,8.76,8.76,0,0,0,.89-3.857A3.887,3.887,0,0,0,905.488,1.452Z" transform="translate(-810.43 -0.251)" fill="#fbfbfb"/>
      <path id="Caminho_8" data-name="Caminho 8" d="M1230.756,21.583,1234.535,0h-7.876l-.153.879-2.674,15.536c-.023.041-.047.078-.071.118l-.884,5.05q-.057.335-.1.662c.014-.026.03-.051.043-.077a5.271,5.271,0,0,0,.533,3.942,4.436,4.436,0,0,0,3.575,1.81,11.241,11.241,0,0,0,4.037-1.2C1230.437,25.7,1230.383,23.766,1230.756,21.583Z" transform="translate(-1109.88 0.003)" fill="#fbfbfb"/>
      <path id="Caminho_9" data-name="Caminho 9" d="M806.467,1.453A4.612,4.612,0,0,0,802.972.28a8.2,8.2,0,0,0-2.661.435A10.71,10.71,0,0,0,794.881,5.4a5.186,5.186,0,0,0-.029-2.472A2.959,2.959,0,0,0,794.3,1.9a4.839,4.839,0,0,0-3.61-1.533,11.425,11.425,0,0,0-3.829.548,13.357,13.357,0,0,1,.087,4.64l-.145.817h-.006l-.427,2.45-2.09,11.81-.006.011c-.131.7-.255,1.394-.423,2.081l.016-.024a5.105,5.105,0,0,0,.589,3.951,4.1,4.1,0,0,0,3.563,1.533,5.589,5.589,0,0,0,3.726-1.222,9.193,9.193,0,0,1-.174-1.845,16.284,16.284,0,0,1,.228-2.573v-.011h.009l.568-3.258,1.415-7.993A8.4,8.4,0,0,1,800.577,7.9a6.178,6.178,0,0,1,3.627,1.06,5.821,5.821,0,0,1,1.106,1.015,10.259,10.259,0,0,0,1.19-1.891,8.768,8.768,0,0,0,.89-3.859A3.891,3.891,0,0,0,806.467,1.453Z" transform="translate(-711.411 -0.251)" fill="#fbfbfb"/>
      <path id="Caminho_10" data-name="Caminho 10" d="M1069.946,21.583,1073.725,0h-7.876l-.153.879-2.674,15.536c-.023.041-.047.078-.071.118-1.643,2.743-3.853,4.09-6.529,4.09-1.66,0-2.525-.707-2.73-2.244a10.074,10.074,0,0,1,.175-2.976l1.863-10.388c.585-3.2-.8-5.007-4.149-5.007a10.646,10.646,0,0,0-3.73.651,10.045,10.045,0,0,1,.134,2.87q-.057.711-.184,1.485l-1.969,11.131c-.9,5.449.448,9.25,3.428,10.879a7.856,7.856,0,0,0,3.812.893,9.536,9.536,0,0,0,3.12-.507,10.812,10.812,0,0,0,5.779-5.167c.014-.026.029-.051.043-.077a5.272,5.272,0,0,0,.533,3.942,4.436,4.436,0,0,0,3.575,1.81,11.241,11.241,0,0,0,4.037-1.2C1069.627,25.7,1069.573,23.766,1069.946,21.583Z" transform="translate(-949.072 0.003)" fill="#fbfbfb"/>
      <path id="Caminho_11" data-name="Caminho 11" d="M1368.835.73h-17.354c-.178,0-.35.006-.518.016-2.8.166-4.219,1.714-4.219,4.645a10.9,10.9,0,0,0,.426,3.107,8.67,8.67,0,0,1,3.658-1.058l.114-.011q.519-.04,1.072-.041h6.388s-3.411,3.107-6.939,6.681a59.349,59.349,0,0,0-6.83,7.865c-.114.177-.218.348-.31.51a12.705,12.705,0,0,0-1.465,6.14h18.667a8.111,8.111,0,0,0,.908-.049c2.539-.284,3.829-1.82,3.829-4.613a10.874,10.874,0,0,0-.426-3.107,9.239,9.239,0,0,1-4.408,1.1c-.144,0-.289.006-.435.006h-7.648s2.76-3.06,6.1-6.65c2.489-2.684,5.307-5.664,7.53-7.885l.011-.011C1369.594,4.756,1368.835.73,1368.835.73Z" transform="translate(-1218.938 -0.66)" fill="#fbfbfb"/>
      <path id="Caminho_12" data-name="Caminho 12" d="M351.843-.027a10.013,10.013,0,0,0-3.756.69,10.483,10.483,0,0,1,.053,2.952q-.053.5-.14,1.032A6.562,6.562,0,0,0,342.382.081,9.34,9.34,0,0,0,341.166,0a11.226,11.226,0,0,0-4.26.809,13.073,13.073,0,0,0-5.056,3.825c-2.608,3.087-3.94,7.085-3.94,12.037,0,5.312,1.947,8.873,5.083,10.4a8.773,8.773,0,0,0,3.86.842,10.227,10.227,0,0,0,2.4-.277,7.993,7.993,0,0,0,5.644-4.982c.018-.042.036-.084.053-.125a5.27,5.27,0,0,0,.532,3.942,3.9,3.9,0,0,0,3.411,1.417,7.934,7.934,0,0,0,4.2-1.1c-.533-1.015-.586-2.663-.213-4.848l2.76-15.6.216-1.057C356.518,2.1,355.2.059,351.843-.027Zm-5.568,15.685q-.12.255-.252.5c-1.475,2.8-3.9,5.037-6.562,5.037a3.354,3.354,0,0,1-3.058-2.506,8.126,8.126,0,0,1-.455-2.821,10.777,10.777,0,0,1,2.213-7.019A5.647,5.647,0,0,1,342.5,6.709c2.168,0,3.651,1.825,4.493,4,.068.174.132.352.192.53Z" transform="translate(-297.651 0.03)" fill="#fbfbfb"/>
      <path id="Caminho_13" data-name="Caminho 13" d="M27.568,12.3a21.526,21.526,0,0,0,.339-4.089C27.828,4.325,26.4,1.68,23.835.58A7.589,7.589,0,0,0,20.8,0a9.306,9.306,0,0,0-2.615.384,17.147,17.147,0,0,0-7.239,4.89l-.092.1c.266-1.438.3-2.826-.447-3.731A3.838,3.838,0,0,0,6.9,0a11.858,11.858,0,0,0-3.93.66A15.063,15.063,0,0,1,2.92,5.536l-1.383,8.59h.012L.154,22.15c-.639,3.729.713,5.771,4.013,5.771A7.709,7.709,0,0,0,8.3,26.731c-.533-1.015-.586-2.663-.213-4.848l1.752-9.8c.023-.136.045-.269.065-.4l.012-.015c2.326-3.039,4.8-4.585,7.479-4.585A2.12,2.12,0,0,1,19.74,8.872a9.193,9.193,0,0,1-.111,3.429L17.877,22.37q-.959,5.593,3.992,5.593a7.7,7.7,0,0,0,4.149-1.015c-.532-1.015-.585-2.664-.213-4.848Z" transform="translate(0 0.003)" fill="#fbfbfb"/>
      <path id="Caminho_14" data-name="Caminho 14" d="M653.7.065a9.779,9.779,0,0,0-3.738.651,11.961,11.961,0,0,1-.044,4.348l-.662,3.844-.726,3.844-.028.023-.289,1.653h0l-1.389,7.947c-.586,3.24.669,5.51,4.025,5.6a7.57,7.57,0,0,0,3.932-1.107,11.455,11.455,0,0,1-.022-4.276l.53-3.077.991-5.275h.006l.072-.412h0l1.494-8.546C658.436,2.041,657.051.157,653.7.065Z" transform="translate(-587.013 -0.054)" fill="#fbfbfb"/>
      <path id="Caminho_15" data-name="Caminho 15" d="M1384.487,72.811l.011-.011H1377.5l-1.584.008s-3.411,3.11-6.939,6.685a59.4,59.4,0,0,0-6.83,7.87h15.169l.007-.008h-6.464s2.76-3.061,6.1-6.654C1379.451,78.015,1382.264,75.034,1384.487,72.811Z" transform="translate(-1236.455 -66.085)" fill="#fbfbfb"/>
    </g>
  </g>
</svg>
