<svg id="Grupo_101" data-name="Grupo 101" xmlns="http://www.w3.org/2000/svg" width="32.004" height="31.996" viewBox="0 0 32.004 31.996">
  <path id="Caminho_253" data-name="Caminho 253" d="M189.191,358.448c-.082.617-.137,1.239-.249,1.851a15.68,15.68,0,0,1-7.149,10.748,15.041,15.041,0,0,1-8.905,2.51,15.65,15.65,0,0,1-13.587-8.072,14.781,14.781,0,0,1-2.1-8.238,15.68,15.68,0,0,1,7.481-13.206,15.327,15.327,0,0,1,7.268-2.417,1.78,1.78,0,0,0,.241-.052h2c.586.081,1.176.139,1.755.251.642.124,1.279.282,1.911.453a.8.8,0,0,1,.632,1.04.814.814,0,0,1-1.1.485,13.975,13.975,0,0,0-4.9-.605,14.125,14.125,0,0,0-9.724,4.44,13.539,13.539,0,0,0-3.917,8.641,14.014,14.014,0,0,0,7.224,13.806A13.312,13.312,0,0,0,175.4,371.8a14.038,14.038,0,0,0,11.2-9.025,13.763,13.763,0,0,0,.363-9.363.828.828,0,0,1,.752-1.168.787.787,0,0,1,.748.6,15.672,15.672,0,0,1,.665,3.456c.01.133.038.265.058.4Z" transform="translate(-157.187 -341.572)" fill="#0d0326"/>
  <path id="Caminho_254" data-name="Caminho 254" d="M198.739,393.546a11.159,11.159,0,0,1-1.8-22.209,15.824,15.824,0,0,1,2.15-.078.854.854,0,0,1,.871.629.76.76,0,0,1-.844.971,9.162,9.162,0,0,0-5.149,1.089,9.563,9.563,0,1,0,13.962,9.819,13.3,13.3,0,0,0,.065-1.99.835.835,0,0,1,.719-.931.766.766,0,0,1,.874.769,13.552,13.552,0,0,1-.143,2.734,10.956,10.956,0,0,1-8.544,8.927,6.014,6.014,0,0,1-.859.155C199.526,393.488,199.007,393.523,198.739,393.546Z" transform="translate(-182.425 -366.436)" fill="#0d0326"/>
  <path id="Caminho_255" data-name="Caminho 255" d="M259.289,361.032a4.248,4.248,0,0,0-1.483.038c-.419.167-.715.645-1.061.991q-2.056,2.053-4.111,4.108a2.842,2.842,0,0,1-.275.254.789.789,0,0,1-1.1-1.115,3.191,3.191,0,0,1,.256-.273q2.463-2.464,4.93-4.923a.687.687,0,0,0,.223-.547c-.012-.791,0-1.583-.007-2.374a1.1,1.1,0,0,1,.342-.836q2.294-2.279,4.574-4.572a.845.845,0,0,1,.983-.267.811.811,0,0,1,.485.862c-.007.656.008,1.312-.007,1.968-.006.24.076.3.3.3.656-.013,1.312,0,1.968-.007a.806.806,0,0,1,.857.493.833.833,0,0,1-.255.959q-2.3,2.293-4.595,4.6a1.052,1.052,0,0,1-.809.332c-.406-.008-.812,0-1.219,0Zm2.165-6.825a1.211,1.211,0,0,0-.129.088q-1.471,1.468-2.938,2.938c-.049.049-.113.117-.114.176-.008.662-.005,1.324-.005,2,.634,0,1.227.01,1.819-.008a.652.652,0,0,0,.4-.166c.944-.926,1.876-1.865,2.81-2.8a2.475,2.475,0,0,0,.165-.213c-.427,0-.8.006-1.174,0a.79.79,0,0,1-.837-.846C261.45,355.005,261.454,354.633,261.454,354.208Z" transform="translate(-235.829 -349.846)" fill="#0d0326"/>
  <path id="Caminho_256" data-name="Caminho 256" d="M216.692,406.854a6.4,6.4,0,0,1,6.086-6.37,2.666,2.666,0,0,1,.344,0,.8.8,0,0,1,.755.775.784.784,0,0,1-.687.8c-.421.064-.854.068-1.266.167a4.776,4.776,0,1,0,5.93,4.83c.026-.609.251-.92.707-.982a.793.793,0,0,1,.9.872,6.168,6.168,0,0,1-2.469,4.937,6.071,6.071,0,0,1-6.307.866,6.134,6.134,0,0,1-3.916-5.057C216.724,407.416,216.716,407.134,216.692,406.854Z" transform="translate(-207.027 -390.91)" fill="#0d0326"/>
</svg>
