<?xml version="1.0" encoding="UTF-8"?><svg id="a" xmlns="http://www.w3.org/2000/svg" viewBox="0 0 373.16 106.49"><defs><style>.b{fill:#fff;}</style></defs><g><path class="b" d="M10.82,97.68h-.1l-6.34-9.3v14.08h-1.92v-17.41h1.99l6.34,9.5,6.34-9.5h1.99v17.41h-1.96v-14.1l-6.34,9.33Z"/><path class="b" d="M24.47,92.06l-.57-1.57c1.42-.65,2.81-1.07,4.68-1.07,3.51,0,5.47,1.79,5.47,5.17v7.86h-1.84v-1.94c-.9,1.17-2.39,2.21-4.65,2.21-2.39,0-4.8-1.34-4.8-4.03s2.24-4.18,5.5-4.18c1.64,0,2.81,.22,3.95,.55v-.45c0-2.31-1.42-3.51-3.83-3.51-1.52,0-2.71,.4-3.9,.95Zm.22,6.57c0,1.64,1.49,2.59,3.23,2.59,2.36,0,4.3-1.44,4.3-3.48v-1.24c-.94-.27-2.21-.55-3.78-.55-2.41,0-3.76,1.04-3.76,2.69Z"/><path class="b" d="M40.04,102.46h-1.92v-12.86h1.92v3.36c.94-2.14,2.81-3.68,5.25-3.58v2.06h-.15c-2.81,0-5.1,2.01-5.1,5.89v5.12Z"/><path class="b" d="M59.61,102.46h-2.29l-4.6-5.99-2.61,2.64v3.36h-1.92v-18.16h1.92v12.54l6.94-7.24h2.39l-5.4,5.52,5.57,7.34Z"/><path class="b" d="M67.4,101.09c1.77,0,3.01-.72,4.05-1.82l1.19,1.07c-1.29,1.44-2.86,2.41-5.3,2.41-3.53,0-6.42-2.71-6.42-6.72,0-3.73,2.61-6.71,6.17-6.71,3.81,0,5.99,3.03,5.99,6.81,0,.17,0,.37-.02,.6h-10.2c.27,2.79,2.26,4.35,4.53,4.35Zm3.76-5.77c-.2-2.34-1.54-4.38-4.1-4.38-2.24,0-3.93,1.87-4.18,4.38h8.28Z"/><path class="b" d="M79.03,98.8c0,1.57,.87,2.14,2.16,2.14,.65,0,1.19-.12,1.87-.45v1.64c-.67,.35-1.39,.55-2.31,.55-2.06,0-3.63-1.02-3.63-3.63v-7.76h-1.79v-1.69h1.79v-3.88h1.92v3.88h4.08v1.69h-4.08v7.51Z"/><path class="b" d="M86.54,86.79v-2.11h2.19v2.11h-2.19Zm.12,15.67v-12.86h1.92v12.86h-1.92Z"/><path class="b" d="M94.95,102.46h-1.92v-12.86h1.92v2.24c.85-1.39,2.19-2.51,4.4-2.51,3.11,0,4.92,2.09,4.92,5.15v7.98h-1.92v-7.51c0-2.39-1.29-3.88-3.56-3.88s-3.85,1.62-3.85,4.03v7.36Z"/><path class="b" d="M114.05,106.49c-2.14,0-4.13-.6-5.84-1.79l.87-1.49c1.47,1.07,3.11,1.64,4.95,1.64,2.84,0,4.68-1.57,4.68-4.58v-1.52c-1.12,1.49-2.69,2.71-5.05,2.71-3.08,0-6.04-2.29-6.04-6.04s2.98-6.09,6.04-6.09c2.41,0,3.98,1.19,5.02,2.59v-2.31h1.92v10.62c0,4.15-2.59,6.27-6.54,6.27Zm-.02-15.47c-2.44,0-4.45,1.67-4.45,4.35s2.06,4.4,4.45,4.4,4.73-1.74,4.73-4.38-2.29-4.38-4.73-4.38Z"/><path class="b" d="M138.69,102.46h-6.04v-17.41h6.04c5.47,0,9.25,3.76,9.25,8.68s-3.78,8.73-9.25,8.73Zm0-15.59h-4.08v13.78h4.08c4.4,0,7.21-2.98,7.21-6.87s-2.81-6.91-7.21-6.91Z"/><path class="b" d="M151.82,86.79v-2.11h2.19v2.11h-2.19Zm.12,15.67v-12.86h1.92v12.86h-1.92Z"/><path class="b" d="M164.01,106.49c-2.14,0-4.13-.6-5.84-1.79l.87-1.49c1.47,1.07,3.11,1.64,4.95,1.64,2.84,0,4.68-1.57,4.68-4.58v-1.52c-1.12,1.49-2.69,2.71-5.05,2.71-3.08,0-6.04-2.29-6.04-6.04s2.98-6.09,6.04-6.09c2.41,0,3.98,1.19,5.02,2.59v-2.31h1.92v10.62c0,4.15-2.59,6.27-6.54,6.27Zm-.02-15.47c-2.44,0-4.45,1.67-4.45,4.35s2.06,4.4,4.45,4.4,4.73-1.74,4.73-4.38-2.29-4.38-4.73-4.38Z"/><path class="b" d="M174.87,86.79v-2.11h2.19v2.11h-2.19Zm.12,15.67v-12.86h1.92v12.86h-1.92Z"/><path class="b" d="M183.95,98.8c0,1.57,.87,2.14,2.16,2.14,.65,0,1.19-.12,1.87-.45v1.64c-.67,.35-1.39,.55-2.31,.55-2.06,0-3.63-1.02-3.63-3.63v-7.76h-1.79v-1.69h1.79v-3.88h1.92v3.88h4.08v1.69h-4.08v7.51Z"/><path class="b" d="M192.15,92.06l-.57-1.57c1.42-.65,2.81-1.07,4.68-1.07,3.51,0,5.47,1.79,5.47,5.17v7.86h-1.84v-1.94c-.9,1.17-2.39,2.21-4.65,2.21-2.39,0-4.8-1.34-4.8-4.03s2.24-4.18,5.5-4.18c1.64,0,2.81,.22,3.95,.55v-.45c0-2.31-1.42-3.51-3.83-3.51-1.52,0-2.71,.4-3.91,.95Zm.22,6.57c0,1.64,1.49,2.59,3.23,2.59,2.36,0,4.3-1.44,4.3-3.48v-1.24c-.95-.27-2.21-.55-3.78-.55-2.41,0-3.75,1.04-3.75,2.69Z"/><path class="b" d="M205.98,102.46v-18.16h1.92v18.16h-1.92Z"/><path class="b" d="M225.48,101.09c1.77,0,3.01-.72,4.05-1.82l1.19,1.07c-1.29,1.44-2.86,2.41-5.3,2.41-3.53,0-6.42-2.71-6.42-6.72,0-3.73,2.61-6.71,6.17-6.71,3.8,0,5.99,3.03,5.99,6.81,0,.17,0,.37-.03,.6h-10.2c.27,2.79,2.26,4.35,4.53,4.35Zm3.76-5.77c-.2-2.34-1.54-4.38-4.1-4.38-2.24,0-3.93,1.87-4.18,4.38h8.28Z"/><path class="b" d="M248.9,102.46h-1.99v-15.59h-5.84v-1.82h13.68v1.82h-5.84v15.59Z"/><path class="b" d="M260.62,101.09c1.77,0,3.01-.72,4.05-1.82l1.19,1.07c-1.29,1.44-2.86,2.41-5.3,2.41-3.53,0-6.42-2.71-6.42-6.72,0-3.73,2.61-6.71,6.17-6.71,3.8,0,5.99,3.03,5.99,6.81,0,.17,0,.37-.03,.6h-10.2c.27,2.79,2.26,4.35,4.53,4.35Zm3.76-5.77c-.2-2.34-1.54-4.38-4.1-4.38-2.24,0-3.93,1.87-4.18,4.38h8.28Z"/><path class="b" d="M275.46,102.76c-3.76,0-6.59-3.06-6.59-6.69s2.84-6.74,6.59-6.74c2.44,0,3.95,1.02,5.15,2.29l-1.27,1.34c-1.02-1.07-2.16-1.94-3.91-1.94-2.61,0-4.6,2.21-4.6,5s2.04,5.02,4.73,5.02c1.64,0,2.91-.82,3.93-1.92l1.22,1.14c-1.29,1.44-2.83,2.49-5.25,2.49Z"/><path class="b" d="M285.78,102.46h-1.92v-12.86h1.92v2.24c.85-1.39,2.19-2.51,4.4-2.51,3.11,0,4.92,2.09,4.92,5.15v7.98h-1.92v-7.51c0-2.39-1.29-3.88-3.56-3.88s-3.86,1.62-3.86,4.03v7.36Z"/><path class="b" d="M305.05,102.76c-3.86,0-6.67-3.04-6.67-6.69s2.84-6.74,6.72-6.74,6.69,3.03,6.69,6.69-2.86,6.74-6.74,6.74Zm0-11.74c-2.79,0-4.7,2.21-4.7,5s2.04,5.02,4.75,5.02,4.73-2.21,4.73-4.97-2.06-5.05-4.78-5.05Z"/><path class="b" d="M315.42,102.46v-18.16h1.92v18.16h-1.92Z"/><path class="b" d="M327.66,102.76c-3.86,0-6.67-3.04-6.67-6.69s2.84-6.74,6.72-6.74,6.69,3.03,6.69,6.69-2.86,6.74-6.74,6.74Zm0-11.74c-2.79,0-4.7,2.21-4.7,5s2.04,5.02,4.75,5.02,4.73-2.21,4.73-4.97-2.06-5.05-4.78-5.05Z"/><path class="b" d="M343.55,106.49c-2.14,0-4.13-.6-5.84-1.79l.87-1.49c1.47,1.07,3.11,1.64,4.95,1.64,2.84,0,4.68-1.57,4.68-4.58v-1.52c-1.12,1.49-2.69,2.71-5.05,2.71-3.08,0-6.04-2.29-6.04-6.04s2.98-6.09,6.04-6.09c2.41,0,3.98,1.19,5.02,2.59v-2.31h1.92v10.62c0,4.15-2.59,6.27-6.54,6.27Zm-.03-15.47c-2.44,0-4.45,1.67-4.45,4.35s2.06,4.4,4.45,4.4,4.73-1.74,4.73-4.38-2.29-4.38-4.73-4.38Z"/><path class="b" d="M354.41,86.79v-2.11h2.19v2.11h-2.19Zm.12,15.67v-12.86h1.92v12.86h-1.92Z"/><path class="b" d="M361.65,92.06l-.57-1.57c1.42-.65,2.81-1.07,4.68-1.07,3.51,0,5.47,1.79,5.47,5.17v7.86h-1.84v-1.94c-.9,1.17-2.39,2.21-4.65,2.21-2.39,0-4.8-1.34-4.8-4.03s2.24-4.18,5.5-4.18c1.64,0,2.81,.22,3.95,.55v-.45c0-2.31-1.42-3.51-3.83-3.51-1.52,0-2.71,.4-3.91,.95Zm.22,6.57c0,1.64,1.49,2.59,3.23,2.59,2.36,0,4.3-1.44,4.3-3.48v-1.24c-.95-.27-2.21-.55-3.78-.55-2.41,0-3.75,1.04-3.75,2.69Z"/></g><g><path class="b" d="M283.48,40.84l6.65-38.65-6.83,38.95c.06-.1,.12-.2,.18-.3Z"/><polygon class="b" points="290.51 0 290.5 0 290.13 2.19 290.51 0"/><path class="b" d="M328.08,16.86h0c.1,0,.2-.01,.29-.03-.1,0-.19,.02-.29,.03Z"/><path class="b" d="M165.9,.02c-3.84-.1-6.92,.74-9.3,1.62,.66,3.26,.55,6.65-.11,10.82l-1.65,9.56-1.81,9.56s-.05,.04-.07,.06l-.72,4.11h0l-3.46,19.77c-1.46,8.06,1.67,13.71,10.02,13.94,3.84,.1,7.51-1.37,9.79-2.76-.66-3.26-.72-6.47-.05-10.64l1.32-7.65,2.47-13.12h.01l.18-1.03h0l3.72-21.26c1.46-8.06-1.99-12.75-10.34-12.98Z"/><path class="b" d="M63.43,3.24s-.02-.06-.04-.16c-.63,.1-1.29,.16-1.95,.16h1.99Z"/><path class="b" d="M68.63,30.6c.64-3.69,.91-7.09,.85-10.18-.2-9.67-3.74-16.25-10.14-18.98C57.14,.5,54.62,0,51.77,0c-2.19,0-4.36,.33-6.51,.96-6.11,1.78-12.1,6.01-18.02,12.17l-2.55,15.88c5.79-7.56,11.96-11.4,18.62-11.4,3.24,0,5.16,1.41,5.84,4.46,.47,2.07,.37,4.89-.28,8.53l-4.37,25.05c-1.59,9.28,1.72,13.91,9.94,13.91,4.11,0,7.55-.8,10.34-2.52-1.32-2.52-1.46-6.63-.53-12.06l4.37-24.38Z"/><path class="b" d="M134.85,0c-3.84-.1-6.94,.85-9.35,1.72,.4,2.21,.42,4.67,.14,7.33,.04,1.27-.1,2.66-.41,4.15l-.53,2.62-.59,5.62c.17,.44-1.01,6.14-.86,6.58l-2.25,11c-.2,.42-.41,.84-.63,1.25l-2.55,14.39c-.1,.61-.19,1.2-.27,1.77,.04-.1,.09-.21,.13-.31-.66,4.37-.26,7.69,1.33,9.81,1.59,2.25,4.39,3.53,8.49,3.53s7.67-1.01,10.46-2.73c-1.33-2.52-1.46-6.63-.53-12.06l6.88-38.84,.53-2.62c1.66-7.91-1.64-12.99-9.98-13.2Z"/><path class="b" d="M236.49,2.99c-1.83-1.94-4.73-2.93-8.7-2.93-2.31,0-4.52,.36-6.62,1.08-5.14,1.75-9.66,5.63-13.52,11.65,.43-2.35-1.14,4.99-1.14,4.99,0,0,.32-2.56,.32-2.56l-1.06,6.09-.83,6.1c4.62-5.64,10.17-8.4,16.89-8.4,3.5,0,6.52,.88,9.03,2.64,1.01,.7,1.93,1.54,2.76,2.53,1.2-1.52,2.18-3.09,2.96-4.7,1.47-3.03,2.21-6.24,2.21-9.61,0-2.96-.77-5.25-2.3-6.88Z"/><path class="b" d="M300.71,53.69L310.12,0h-19.61l-.38,2.18-6.65,38.65c-.06,.1-.12,.2-.18,.3l-2.2,12.56c-.1,.56-.18,1.1-.25,1.65,.04-.06,.07-.13,.11-.19-.66,4.37-.26,7.69,1.33,9.81,1.59,2.25,4.79,4.5,8.9,4.5,1.63,0,5.45-.82,10.05-3-1.32-2.52-1.46-7.34-.53-12.77Z"/><path class="b" d="M236.49,2.99c-1.83-1.94-4.73-2.93-8.7-2.93-2.31,0-4.52,.36-6.62,1.08-5.14,1.75-9.66,5.63-13.52,11.65,.43-2.35,.47-4.39-.07-6.15-.29-.92-.73-1.77-1.37-2.55-1.99-2.25-5.28-3.81-8.99-3.81s-7.02,.43-9.53,1.36c.66,3.18,.88,7.43,.22,11.54l-.36,2.03h-.02l-1.06,6.09-5.2,29.37-.02,.03c-.32,1.73-.63,3.47-1.05,5.18,.01-.02,.03-.04,.04-.06-.66,3.58-.39,7.57,1.47,9.83,1.36,1.63,3.54,3.81,8.87,3.81s8.29-2.18,9.28-3.04c-.3-1.43-.43-2.97-.43-4.6,0-2,.2-4.14,.57-6.4v-.03h.03l1.41-8.1,3.52-19.89c4.62-5.64,10.17-8.4,16.89-8.4,3.5,0,6.52,.88,9.03,2.64,1.01,.7,1.93,1.54,2.76,2.53,1.2-1.52,2.18-3.09,2.96-4.7,1.47-3.03,2.21-6.24,2.21-9.61,0-2.96-.77-5.25-2.3-6.88Z"/><path class="b" d="M300.71,53.69L310.12,0h-19.61l-.38,2.18-6.65,38.65c-.06,.1-.12,.2-.18,.3-4.09,6.82-9.59,10.17-16.26,10.17-4.14,0-6.29-1.76-6.8-5.58-.26-1.93-.1-4.38,.43-7.4l4.64-25.84c1.46-7.95-1.99-12.46-10.34-12.46-3.71,0-6.77,.69-9.29,1.62,.46,2.19,.54,4.54,.33,7.14-.09,1.18-.25,2.41-.46,3.7l-4.9,27.7c-2.24,13.55,1.12,23.01,8.54,27.06,2.66,1.46,5.85,2.22,9.49,2.22,2.79,0,5.38-.44,7.77-1.26,6.07-2.09,10.87-6.66,14.39-12.86,.04-.06,.07-.13,.11-.19-.66,4.37-.26,7.69,1.33,9.81,1.59,2.25,4.79,4.5,8.9,4.5,1.63,0,5.45-.82,10.05-3-1.32-2.52-1.46-7.34-.53-12.77Z"/><path class="b" d="M372.91,.17h-43.2c-.44,0-.87,.01-1.29,.04-6.96,.41-10.5,4.26-10.5,11.56,0,2.9,.4,5.52,1.06,7.73,2.41-1.42,5.5-2.32,9.11-2.63,.1,0,.19-.02,.29-.03,.86-.07,1.75-.1,2.67-.1h15.9s-8.5,7.73-17.27,16.62c-6.75,6.83-13.66,14.35-17,19.57-.28,.44-.54,.86-.77,1.27-4.05,7.15-3.65,15.27-3.65,15.27h46.47c.79,0,1.55-.04,2.26-.12,6.32-.71,9.53-4.53,9.53-11.47,0-2.9-.4-5.52-1.06-7.73-2.82,1.66-6.55,2.61-10.98,2.74-.36,.01-.72,.02-1.08,.02h-19.04s6.87-7.61,15.17-16.54c6.21-6.68,13.21-14.09,18.75-19.62l.03-.03c6.5-6.53,4.62-16.54,4.62-16.54Z"/><path class="b" d="M134.85,0c-3.84-.1-6.94,.85-9.35,1.72,.4,2.21,.42,4.67,.14,7.33-.09,.84-.2,1.69-.35,2.57-1.82-5.66-6.48-10.36-13.99-11.35-.96-.13-1.97-.2-3.03-.2-3.76,0-7.29,.67-10.6,2.01-4.62,1.87-8.8,5.04-12.59,9.52-6.49,7.69-9.81,17.63-9.81,29.95,0,13.21,4.85,22.07,12.65,25.87,2.84,1.38,6.07,2.1,9.61,2.1,2.13,0,4.12-.23,5.96-.68,6.66-1.61,11.42-6,14.05-12.39,.04-.1,.09-.21,.13-.31-.66,4.37-.26,7.69,1.33,9.81,1.59,2.25,4.39,3.53,8.49,3.53s7.67-1.01,10.46-2.73c-1.33-2.52-1.46-6.63-.53-12.06l6.88-38.84,.53-2.62c1.66-7.91-1.64-12.99-9.98-13.2Zm-13.86,39.03c-.2,.42-.41,.84-.63,1.25-3.67,6.98-9.7,12.53-16.34,12.53-3.3,0-6.12-2.23-7.61-6.23-.72-1.94-1.13-4.29-1.13-7.02,0-7.47,2.14-13.49,5.5-17.46,2.89-3.42,6.69-5.33,10.8-5.33,5.4,0,9.09,4.54,11.19,9.94,.17,.44,.33,.88,.48,1.32l-2.25,11Z"/><path class="b" d="M68.63,30.6c.64-3.69,.91-7.09,.85-10.18-.2-9.67-3.74-16.25-10.14-18.98C57.14,.5,54.62,0,51.77,0c-2.19,0-4.36,.33-6.51,.96-6.11,1.78-12.1,6.01-18.02,12.17-.08,.08-.15,.16-.23,.24,.66-3.58,.74-7.03-1.11-9.28C24.27,2.19,22.63,0,17.18,0,13.47,0,9.92,.71,7.4,1.64c.66,3.18,.53,8.02-.13,12.13l-3.43,21.37s.01,0,.03,0L.38,55.1c-1.59,9.28,1.77,14.36,9.99,14.36,4.11,0,7.5-1.24,10.28-2.96-1.32-2.52-1.46-6.63-.53-12.06l4.37-24.38c.06-.34,.11-.67,.16-1l.03-.04c5.79-7.56,11.96-11.4,18.62-11.4,3.24,0,5.16,1.41,5.84,4.46,.47,2.07,.37,4.89-.28,8.53l-4.37,25.05c-1.59,9.28,1.72,13.91,9.94,13.91,4.11,0,7.55-.8,10.34-2.52-1.32-2.52-1.46-6.63-.53-12.06l4.37-24.38Z"/><path class="b" d="M165.9,.02c-3.84-.1-6.92,.74-9.3,1.62,.66,3.26,.55,6.65-.11,10.82l-1.65,9.56-1.81,9.56s-.05,.04-.07,.06l-.72,4.11h0l-3.46,19.77c-1.46,8.06,1.67,13.71,10.02,13.94,3.84,.1,7.51-1.37,9.79-2.76-.66-3.26-.72-6.47-.05-10.64l1.32-7.65,2.47-13.12h.01l.18-1.03h0l3.72-21.26c1.46-8.06-1.99-12.75-10.34-12.98Z"/><path class="b" d="M368.27,16.74l.03-.03h-17.42l-3.94,.02s-8.5,7.73-17.27,16.62c-6.75,6.83-13.66,14.35-17,19.57h37.76l.02-.02h-16.09s6.87-7.61,15.17-16.54c6.21-6.68,13.21-14.09,18.75-19.62Z"/></g></svg>