<?xml version="1.0" encoding="UTF-8"?>
<svg width="200px" height="48px" viewBox="0 0 200 48" version="1.1" xmlns="http://www.w3.org/2000/svg" xmlns:xlink="http://www.w3.org/1999/xlink">
    <!-- Generator: Sketch 57.1 (83088) - https://sketch.com -->
    <title>biz_logo_full</title>
    <desc>Created with Sketch.</desc>
    <g id="Interface-site-21" stroke="none" stroke-width="1" fill="none" fill-rule="evenodd">
        <g id="Home---Desktop-HD" transform="translate(-15.000000, -14.000000)" fill="#F1634A" fill-rule="nonzero">
            <g id="header-biz">
                <g id="biz_logo_full" transform="translate(15.000000, 14.000000)">
                    <path d="M18.4952266,24.3175202 C19.2223383,25.1547185 19.5858941,26.2012164 19.5858941,27.4570138 C19.5858941,28.7128113 19.2223383,29.7069843 18.4432901,30.5441826 C17.7161784,31.329056 16.8332571,31.7476551 15.8464627,31.7476551 C14.8596683,31.7476551 14.0286835,31.329056 13.3015718,30.5441826 C12.6263967,29.7593092 12.2628409,28.7128113 12.2628409,27.4570138 C12.2628409,26.2012164 12.6263967,25.1547185 13.3015718,24.3175202 C13.976747,23.4803219 14.8596683,23.0617228 15.8464627,23.0617228 C16.8851936,23.0093979 17.768115,23.427997 18.4952266,24.3175202 Z M47.0083915,17.7769085 L45.1386757,35.8813217 C44.7231833,39.8580136 41.8147367,43.1544819 37.867559,43.9916802 L20.1571962,47.7590725 C16.2619551,48.5962708 12.2628409,46.8172245 10.289252,43.3114566 L1.2522927,27.5093387 C-0.773232668,24.0035709 -0.305803736,19.6606047 2.39489676,16.6257609 L14.4961124,3.07361346 C17.1448764,0.0910945295 21.4036733,-0.850753554 25.0392317,0.823643039 L41.5550539,8.25377792 C45.2425488,9.98049941 47.4238838,13.8002166 47.0083915,17.7769085 Z M23.8966276,27.2477143 C23.8966276,24.945419 23.2214525,23.0617228 21.8191657,21.5966258 C20.4168789,20.1315288 18.8068459,19.3989802 16.9371302,19.3989802 C15.0674145,19.3989802 13.5612546,20.0792039 12.366714,21.3873262 L12.366714,15.8932124 C12.366714,14.7420647 11.4318561,13.7478917 10.2373155,13.7478917 L8.05598049,13.7478917 L8.05598049,33.0034526 C8.05598049,34.1546002 8.99083835,35.1487732 10.185379,35.1487732 L12.366714,35.1487732 L12.366714,33.1081023 C13.5612546,34.6255243 15.0674145,35.4103977 16.8851936,35.4103977 C18.7029728,35.4103977 20.3130058,34.6255243 21.7672291,33.0557775 C23.1695159,31.4860306 23.8966276,29.5500096 23.8966276,27.2477143 Z M28.9864093,21.1257017 C28.9864093,20.2885034 28.3112342,19.6606047 27.532186,19.6606047 L24.6756758,19.6606047 L24.6756758,33.6836762 C24.6756758,34.5208745 25.350851,35.1487732 26.1298992,35.1487732 L28.9864093,35.1487732 L28.9864093,21.1257017 Z M29.0383459,15.9455373 C29.0383459,14.6897398 28.0515515,13.6955668 26.8050743,13.6955668 C25.5585971,13.6955668 24.5718027,14.6897398 24.5718027,15.9455373 C24.5718027,17.2013347 25.5585971,18.1955077 26.8050743,18.1955077 C28.0515515,18.1955077 29.0383459,17.1490098 29.0383459,15.9455373 Z M43.26896,33.9453006 C43.26896,32.6371783 42.230229,31.5906804 40.9318153,31.5906804 L35.3746047,31.5906804 L40.8279422,25.3640181 C42.1263559,23.8465962 42.8534676,21.9105751 42.8534676,19.9222292 L42.8534676,19.6606047 L30.4406327,19.6606047 L30.4406327,20.968727 C30.4406327,22.2245245 31.4274271,23.2186975 32.6739042,23.2186975 L37.1923839,23.2186975 L30.6483788,30.6488324 C30.1290134,31.2244062 29.8173941,32.0092796 29.8173941,32.794153 L29.8173941,33.0034526 C29.8173941,34.2069251 30.7522519,35.1487732 31.9467925,35.1487732 L43.2170235,35.1487732 L43.2170235,33.9453006 L43.26896,33.9453006 Z" id="_logo"></path>
                    <path d="M63.0366914,31.0377074 L64.1854496,32.3197587 C62.2534471,34.3197587 60.1125796,35.2941176 57.8672794,35.2941176 C55.6219793,35.2941176 53.6899768,34.5761689 52.1234884,33.1915535 C50.5569999,31.8069382 49.7737557,29.9607843 49.7737557,27.653092 C49.7737557,25.3966817 50.5569999,23.5505279 52.1757046,22.1146305 C53.7421931,20.678733 55.6219793,19.9607843 57.8150631,19.9607843 C58.9116051,19.9607843 60.008147,20.1659125 61.1046889,20.627451 C62.2012309,21.0889894 63.1933402,21.7043741 64.0288007,22.5761689 L63.0366914,23.8582202 C62.4623123,24.627451 61.3657703,24.8325792 60.5303098,24.3710407 C60.373661,24.2684766 60.2170121,24.1659125 60.008147,24.1146305 C59.3293353,23.8069382 58.5983074,23.653092 57.9194957,23.653092 C56.8229538,23.653092 55.8830607,24.0120664 55.0476002,24.7300151 C54.2643559,25.4479638 53.8466257,26.4223228 53.8466257,27.7043741 C53.8466257,28.9864253 54.2643559,29.9607843 55.0476002,30.627451 C55.8308444,31.3453997 56.7707375,31.653092 57.8672794,31.653092 C58.7549562,31.653092 59.642633,31.3453997 60.4258773,30.7812971 C61.2613378,30.1659125 62.3578797,30.3197587 63.0366914,31.0377074 Z M73.8976781,19.9607843 C71.6001617,19.9607843 69.6681592,20.678733 68.153887,22.1659125 C66.6396149,23.653092 65.8563706,25.4479638 65.8563706,27.60181 C65.8563706,29.7556561 66.6396149,31.5505279 68.153887,33.0377074 C69.6681592,34.5248869 71.6001617,35.2428356 73.8976781,35.2428356 C76.1951945,35.2428356 78.127197,34.5248869 79.6414692,33.0377074 C81.1557414,31.5505279 81.9389856,29.7556561 81.9389856,27.60181 C81.9389856,25.4479638 81.1557414,23.653092 79.6414692,22.1659125 C78.127197,20.7300151 76.1951945,19.9607843 73.8976781,19.9607843 Z M76.6129248,30.627451 C75.9341131,31.3966817 74.99422,31.7556561 73.8976781,31.7556561 C72.8011362,31.7556561 71.9134594,31.3966817 71.1824314,30.627451 C70.5036198,29.8582202 70.1381058,28.8838612 70.1381058,27.653092 C70.1381058,26.4223228 70.5036198,25.4479638 71.1824314,24.678733 C71.8612431,23.9095023 72.8011362,23.4992459 73.8976781,23.4992459 C74.99422,23.4992459 75.8818968,23.9095023 76.6129248,24.678733 C77.2917365,25.4479638 77.6572504,26.4223228 77.6572504,27.653092 C77.6572504,28.8838612 77.2917365,29.8582202 76.6129248,30.627451 Z M107.211666,21.5505279 C108.308208,22.5761689 108.830371,24.1146305 108.830371,26.0633484 L108.830371,35.0889894 L106.532855,35.0889894 C105.436313,35.0889894 104.548636,34.2171946 104.548636,33.1402715 L104.548636,26.9351433 C104.548636,24.627451 103.713175,23.4992459 101.990038,23.4992459 C101.154577,23.4992459 100.42355,23.8069382 99.7969542,24.4223228 C99.1703588,25.0377074 98.8570611,25.9095023 98.8570611,27.0377074 L98.8570611,35.0889894 L96.5595446,35.0889894 C95.4630027,35.0889894 94.5753259,34.2171946 94.5753259,33.1402715 L94.5753259,26.9351433 C94.5753259,25.7556561 94.3664608,24.8838612 94.0009468,24.3197587 C93.6354328,23.7556561 93.0610537,23.4992459 92.2255932,23.4992459 C91.3901327,23.4992459 90.711321,23.8069382 90.0847256,24.4223228 C89.4581302,25.0377074 89.1448326,25.9095023 89.1448326,27.0377074 L89.1448326,35.0889894 L86.638451,35.0889894 C85.6985579,35.0889894 84.9153137,34.3197587 84.9153137,33.3966817 L84.9153137,20.2171946 L87.4216952,20.2171946 C88.3615883,20.2171946 89.1448326,20.9864253 89.1448326,21.9095023 L89.1448326,21.9095023 C90.2935908,20.627451 91.6512141,19.9607843 93.1654863,19.9607843 C94.1053794,19.9607843 94.9930562,20.2171946 95.7763004,20.7812971 C96.5595446,21.3453997 97.1339238,22.0120664 97.551654,22.7812971 C98.1260331,21.8582202 98.9092774,21.1915535 99.9013867,20.678733 C100.893496,20.1659125 101.885605,19.9095023 102.877715,19.9095023 C104.705285,19.9607843 106.115124,20.4736048 107.211666,21.5505279 Z M134.886296,21.5505279 C135.982838,22.5761689 136.505001,24.1146305 136.505001,26.0633484 L136.505001,35.0889894 L134.155268,35.0889894 C133.110942,35.0889894 132.275482,34.2684766 132.275482,33.2428356 L132.275482,26.9864253 C132.275482,24.678733 131.440021,23.5505279 129.716884,23.5505279 C128.881423,23.5505279 128.150395,23.8582202 127.5238,24.4736048 C126.897205,25.0889894 126.583907,25.9607843 126.583907,27.0889894 L126.583907,35.0889894 L124.234174,35.0889894 C123.189849,35.0889894 122.354388,34.2684766 122.354388,33.2428356 L122.354388,26.9864253 C122.354388,25.8069382 122.145523,24.9351433 121.780009,24.3710407 C121.414495,23.8069382 120.840116,23.5505279 120.004655,23.5505279 C119.169195,23.5505279 118.490383,23.8582202 117.863788,24.4736048 C117.237192,25.0889894 116.923895,25.9607843 116.923895,27.0889894 L116.923895,35.0889894 L114.574162,35.0889894 C113.529836,35.0889894 112.694376,34.2684766 112.694376,33.2428356 L112.694376,20.2171946 L115.200757,20.2171946 C116.140651,20.2171946 116.923895,20.9864253 116.923895,21.9095023 L116.923895,21.9095023 C118.072653,20.627451 119.430276,19.9607843 120.944549,19.9607843 C121.884442,19.9607843 122.772118,20.2171946 123.555363,20.7812971 C124.338607,21.3453997 124.912986,22.0120664 125.330716,22.7812971 C125.905095,21.8582202 126.68834,21.1915535 127.680449,20.678733 C128.672558,20.1659125 129.664668,19.9095023 130.656777,19.9095023 C132.327698,19.9607843 133.789754,20.4736048 134.886296,21.5505279 Z M152.483183,21.8069382 C151.021127,20.5761689 149.245774,19.9607843 147.157122,19.9607843 C145.068471,19.9607843 143.293117,20.627451 141.726629,22.0120664 C140.212357,23.3966817 139.429112,25.2428356 139.429112,27.60181 C139.429112,29.9607843 140.16014,31.8069382 141.674413,33.1915535 C143.188685,34.5761689 145.068471,35.2941176 147.365987,35.2941176 C149.663504,35.2941176 151.647723,34.5248869 153.37086,32.9351433 L152.222102,31.7043741 C151.595506,31.0377074 150.603397,30.8838612 149.820153,31.2941176 C149.089125,31.653092 148.253664,31.8582202 147.365987,31.8582202 C146.426094,31.8582202 145.64285,31.60181 144.911822,31.0889894 C144.180794,30.5761689 143.763064,29.9095023 143.606415,29.0889894 L152.639832,29.0889894 C153.736374,29.0889894 154.624051,28.2171946 154.624051,27.1402715 L154.624051,26.8838612 C154.676267,24.7300151 153.945239,23.0377074 152.483183,21.8069382 Z M143.763064,26.1659125 C143.867496,25.2941176 144.285227,24.627451 144.964038,24.1659125 C145.64285,23.653092 146.426094,23.3966817 147.261555,23.3966817 C148.097015,23.3966817 148.828043,23.653092 149.402422,24.1146305 C149.976802,24.5761689 150.342315,25.2941176 150.394532,26.1659125 L143.763064,26.1659125 Z M166.477147,19.9607843 L166.529363,23.8582202 L165.693902,23.8582202 C164.440712,23.8582202 163.500819,24.3197587 162.874223,25.1915535 C162.247628,26.0633484 161.93433,27.2428356 161.93433,28.678733 L161.93433,35.0889894 L159.636814,35.0889894 C158.592488,35.0889894 157.704811,34.2684766 157.704811,33.1915535 L157.704811,20.2171946 L160.002328,20.2171946 C161.046653,20.2171946 161.93433,21.0377074 161.93433,22.1146305 L161.93433,22.2171946 C162.456493,21.60181 163.135305,21.0889894 163.970765,20.678733 C164.806226,20.2171946 165.641686,19.9607843 166.477147,19.9607843 Z M181.672085,31.0377074 L182.820843,32.3197587 C180.888841,34.3197587 178.747973,35.2941176 176.502673,35.2941176 C174.257373,35.2941176 172.32537,34.5761689 170.758882,33.1915535 C169.192393,31.8069382 168.409149,29.9607843 168.409149,27.653092 C168.409149,25.3966817 169.192393,23.5505279 170.811098,22.1146305 C172.377587,20.678733 174.257373,19.9607843 176.450457,19.9607843 C177.546999,19.9607843 178.643541,20.1659125 179.740082,20.627451 C180.836624,21.0889894 181.828734,21.7043741 182.664194,22.5761689 L181.672085,23.8582202 C181.097706,24.627451 180.001164,24.8325792 179.165703,24.3710407 C179.009054,24.2684766 178.852406,24.1659125 178.643541,24.1146305 C177.964729,23.8069382 177.233701,23.653092 176.554889,23.653092 C175.458347,23.653092 174.518454,24.0120664 173.682994,24.7300151 C172.899749,25.4479638 172.482019,26.4223228 172.482019,27.7043741 C172.482019,28.9864253 172.899749,29.9607843 173.682994,30.627451 C174.466238,31.3453997 175.406131,31.653092 176.502673,31.653092 C177.39035,31.653092 178.278027,31.3453997 179.061271,30.7812971 C179.896731,30.1659125 180.993273,30.3197587 181.672085,31.0377074 Z M200,26.8838612 C200,24.7300151 199.268972,23.0377074 197.806916,21.8069382 C196.34486,20.5761689 194.569507,19.9607843 192.480855,19.9607843 C190.392204,19.9607843 188.61685,20.627451 187.050362,22.0120664 C185.53609,23.3966817 184.752846,25.2428356 184.752846,27.60181 C184.752846,29.9607843 185.483874,31.8069382 186.998146,33.1915535 C188.512418,34.5761689 190.392204,35.2941176 192.68972,35.2941176 C194.987237,35.2941176 196.971456,34.5248869 198.694593,32.9351433 L197.545835,31.7043741 C196.919239,31.0377074 195.979346,30.8838612 195.196102,31.2941176 C194.465074,31.7043741 193.629614,31.8582202 192.68972,31.8582202 C191.749827,31.8582202 190.966583,31.60181 190.235555,31.0889894 C189.504527,30.5761689 189.086797,29.9095023 188.930148,29.0889894 L200,29.0889894 L200,26.8838612 Z M189.086797,26.1659125 C189.19123,25.2941176 189.60896,24.627451 190.287771,24.1659125 C190.966583,23.653092 191.749827,23.3966817 192.585288,23.3966817 C193.420748,23.3966817 194.151776,23.653092 194.726155,24.1146305 C195.300535,24.5761689 195.666049,25.2941176 195.718265,26.1659125 L189.086797,26.1659125 Z" id="_commerce"></path>
                </g>
            </g>
        </g>
    </g>
</svg>