<svg id="Grupo_100" data-name="Grupo 100" xmlns="http://www.w3.org/2000/svg" width="34.709" height="31.284" viewBox="0 0 34.709 31.284">
  <path id="Caminho_257" data-name="Caminho 257" d="M578.511,353.611l-1.444-2.1c-1.5-2.176-3.044-4.425-4.558-6.643a1.119,1.119,0,0,0-1.022-.535h0c-6.715.008-13.482.008-20.114,0h0a1.119,1.119,0,0,0-1.019.541c-1.6,2.344-3.238,4.723-4.82,7.023l-1.454,2.114v.438l.03.042.083.119c.061.089.124.18.195.267q8.148,10.119,16.3,20.237c.283.352.508.5.75.5s.468-.151.753-.505L578.464,354.9A.852.852,0,0,0,578.511,353.611Zm-1.87-.127h-7.772l3.022-6.907Zm-.133,1.5-13.261,16.463,5.031-16.463Zm-13.662-9.156h7.768l-3.022,6.906Zm3.9,9.151-5.31,17.38-5.311-17.38Zm-10.2-1.5,4.889-7.11,4.889,7.11Zm-1.958,1.5,5.032,16.465-13.264-16.465Zm-2.335-9.153h7.768l-4.746,6.907Zm1.745,7.656h-7.772l4.75-6.907Z" transform="translate(-544.076 -344.333)" fill="#0d0326"/>
</svg>
