<svg xmlns="http://www.w3.org/2000/svg" width="31.281" height="31.288" viewBox="0 0 31.281 31.288">
  <path id="Caminho_258" data-name="Caminho 258" d="M382.68,374.525l-.12-.192-2.18-3.5-6.159-9.9a.889.889,0,0,0-.743-.5.9.9,0,0,0-.721.553q-.487.9-.971,1.8l-.749,1.39c-.264.49-.529.979-.8,1.48l-.274.507c-.019-.027-.037-.052-.054-.078l-.509-.783c-1.657-2.553-3.371-5.193-5.05-7.794a.793.793,0,0,1-.121-.4c-.009-.807-.008-1.627-.007-2.421q0-.393,0-.785v-.169h11.309a.768.768,0,0,0,.632-1.293c-.157-.2-.314-.4-.465-.6l-2.163-2.809c.031-.044.06-.084.09-.123q1.217-1.583,2.435-3.165c.454-.59.421-.926-.136-1.383l-.039-.032H363.268l-.029.014a.929.929,0,0,0-.52.94c.009,3.809.008,7.759,0,11.741a.992.992,0,0,1-.148.509c-2.336,3.613-4.718,7.283-7.021,10.831l-2.1,3.233q-.9,1.392-1.807,2.782a.76.76,0,0,0,.68,1.232c.025,0,.049,0,.074,0h4.3c8.226,0,16.731,0,25.1.006h0a.963.963,0,0,0,.945-.5l.017-.031v-.44Zm-10.588-24.908,1.119,1.455.854,1.112.029.039h-9.849v-6.377h9.846l-.043.058-.87,1.133q-.542.705-1.084,1.411A.792.792,0,0,0,372.093,349.617Zm8.568,24.5h-4.4c-.321,0-.652,0-.979,0a.235.235,0,0,1-.245-.129q-.92-1.425-1.844-2.848c-.726-1.12-1.478-2.279-2.213-3.42a.3.3,0,0,1-.033-.2c.76-1.428,1.542-2.876,2.3-4.275l.3-.56ZM367.324,365.3c-.161,0-.333,0-.5-.01a2.805,2.805,0,0,0-1.193.114,2.849,2.849,0,0,0-.937.781c-.107.118-.217.24-.328.348-.231.223-.451.447-.685.685l-.21.213-.437-.435c-.455-.452-.885-.88-1.314-1.324a1.114,1.114,0,0,0-.847-.365h-.035c-.391.009-.786.007-1.2.006h-.309l4.144-6.387,4.142,6.374C367.509,365.3,367.417,365.3,367.324,365.3Zm-6.458,1.649c.472.455.943.928,1.4,1.386l.574.575a.782.782,0,0,0,1.266.008q.328-.326.653-.654c.43-.431.875-.878,1.32-1.307a.584.584,0,0,1,.345-.15c.587-.017,1.229-.018,2.02,0a.31.31,0,0,1,.2.091c1.483,2.271,2.982,4.586,4.431,6.824l.25.387H353.614l.035-.055,1.128-1.738c1.131-1.741,2.3-3.542,3.446-5.316a.354.354,0,0,1,.357-.206c.324.01.652.009.969.007s.646,0,.967.008A.588.588,0,0,1,360.866,366.947Z" transform="translate(-351.475 -344.333)" fill="#0d0326"/>
</svg>
