<svg width="157" height="157" viewBox="0 0 157 157" fill="none" xmlns="http://www.w3.org/2000/svg">
<rect width="157" height="157" rx="13" fill="#61DCAB"/>
<path fill-rule="evenodd" clip-rule="evenodd" d="M98.9539 122.64V68.2796C98.9539 66.9258 100.062 65.818 101.415 65.818H116.288C117.642 65.818 118.749 66.9258 118.749 68.2796V122.64H131.078C132.432 122.62 133.54 123.727 133.56 125.081C133.581 126.435 132.473 127.543 131.119 127.563H30.9929C29.639 127.563 28.5312 126.456 28.5312 125.102C28.5312 123.748 29.639 122.64 30.9929 122.64H43.3214V92.2804C43.3214 90.9265 44.4292 89.8187 45.783 89.8187H60.6553C62.0092 89.8187 63.1169 90.9265 63.1169 92.2804V122.64H71.1376V80.28C71.1376 78.9261 72.2454 77.8184 73.5993 77.8184H88.4715C89.8254 77.8184 90.9331 78.9261 90.9331 80.28V122.64H98.9539ZM46.2754 86.8238C60.3066 82.516 73.5787 76.0542 85.6406 67.6848C96.1435 60.382 105.641 51.7253 113.826 41.8994V49.8176C113.806 51.1714 114.913 52.2792 116.267 52.2997C117.621 52.3202 118.729 51.2125 118.749 49.8586V34.8428C118.749 33.4889 117.642 32.3811 116.288 32.3811H101.313C99.959 32.3606 98.8513 33.4684 98.8308 34.8222C98.8103 36.1761 99.918 37.2838 101.272 37.3044H111.241C103.057 47.3765 93.4973 56.2383 82.8508 63.6436C71.1992 71.7259 58.3783 77.962 44.8394 82.1262C43.5471 82.516 42.8086 83.8904 43.2189 85.2032C43.6291 86.5161 44.983 87.234 46.2754 86.8238Z" fill="#00175D"/>
</svg>
