<svg width="350" height="180" viewBox="0 0 350 180" fill="none" xmlns="http://www.w3.org/2000/svg">
<path d="M0 20C0 8.9543 8.95431 0 20 0H350V160C350 171.046 341.046 180 330 180H0V20Z" fill="url(#paint0_linear_2362_4432)"/>
<mask id="mask0_2362_4432" style="mask-type:alpha" maskUnits="userSpaceOnUse" x="0" y="48" width="106" height="132">
<rect y="48" width="106" height="132" fill="#D9D9D9"/>
</mask>
<g mask="url(#mask0_2362_4432)">
<path d="M-18.8 101.68C-18.16 76.24 -3.6 62.48 22.48 62.48C48.4 62.48 62.16 76.88 62.16 95.12C62.16 111.76 51.92 118.96 45.04 121.2V121.84C56.08 126 64.24 133.84 64.24 148.56C64.24 169.2 49.36 183.12 24.72 183.12C-1.52 183.12 -19.6 171.6 -20.08 142.16H14.48C14 149.68 16.4 153.84 23.12 153.84C26.96 153.84 29.84 150.8 29.84 146C29.84 140.24 26.64 136.88 16.88 136.88H10.96V108.24H16.72C19.6 108.4 27.6 108.56 27.6 99.6C27.6 93.84 24.72 91.76 21.68 91.76C16.56 91.76 15.76 97.04 15.76 101.68H-18.8Z" fill="#61DCAB"/>
</g>
<defs>
<linearGradient id="paint0_linear_2362_4432" x1="350" y1="-2.02821e-05" x2="6.04561e-07" y2="180" gradientUnits="userSpaceOnUse">
<stop stop-color="#024787"/>
<stop offset="1" stop-color="#00175D"/>
</linearGradient>
</defs>
</svg>
