<svg width="350" height="180" viewBox="0 0 350 180" fill="none" xmlns="http://www.w3.org/2000/svg">
<path d="M0 20C0 8.9543 8.95431 0 20 0H350V160C350 171.046 341.046 180 330 180H0V20Z" fill="url(#paint0_linear_2362_5127)"/>
<mask id="mask0_2362_5127" style="mask-type:alpha" maskUnits="userSpaceOnUse" x="0" y="48" width="106" height="132">
<rect y="48" width="106" height="132" fill="#D9D9D9"/>
</mask>
<g mask="url(#mask0_2362_5127)">
<path d="M63.44 96.24H17.04V109.68C19.0667 107.867 21.68 106.427 24.88 105.36C28.1867 104.293 31.8667 103.76 35.92 103.76C43.1733 103.76 49.3067 105.467 54.32 108.88C59.3333 112.293 63.0667 116.88 65.52 122.64C67.9733 128.293 69.2 134.587 69.2 141.52C69.2 154.32 65.5733 164.293 58.32 171.44C51.1733 178.48 41.3067 182 28.72 182C19.5467 182 11.6 180.4 4.88 177.2C-1.73333 174 -6.8 169.573 -10.32 163.92C-13.7333 158.267 -15.3333 151.813 -15.12 144.56H19.44C19.44 146.267 20.0267 147.867 21.2 149.36C22.3733 150.853 24.2933 151.6 26.96 151.6C29.6267 151.6 31.6 150.64 32.88 148.72C34.16 146.8 34.8 144.187 34.8 140.88C34.8 137.787 34.0533 135.44 32.56 133.84C31.1733 132.24 29.1467 131.44 26.48 131.44C24.24 131.44 22.5333 131.973 21.36 133.04C20.1867 134.107 19.6 135.333 19.6 136.72H-14.96V65.04H63.44V96.24Z" fill="#61DCAB"/>
</g>
<defs>
<linearGradient id="paint0_linear_2362_5127" x1="350" y1="-2.02821e-05" x2="6.04561e-07" y2="180" gradientUnits="userSpaceOnUse">
<stop stop-color="#024787"/>
<stop offset="1" stop-color="#00175D"/>
</linearGradient>
</defs>
</svg>
