<svg width="36" height="37" viewBox="0 0 36 37" fill="none" xmlns="http://www.w3.org/2000/svg">
<path d="M22.1534 24.7527V23.1327C22.1534 22.7072 22.0696 22.2859 21.9068 21.8928C21.744 21.4997 21.5053 21.1425 21.2045 20.8417C20.9036 20.5408 20.5464 20.3022 20.1533 20.1393C19.7602 19.9765 19.3389 19.8927 18.9134 19.8927H12.4397C12.0143 19.8927 11.5929 19.9765 11.1998 20.1393C10.8067 20.3022 10.4496 20.5408 10.1487 20.8417C9.84785 21.1425 9.60919 21.4997 9.44637 21.8928C9.28354 22.2859 9.19974 22.7072 9.19974 23.1327V24.7527" stroke="#61DCAB" stroke-linecap="square" stroke-linejoin="round"/>
<path d="M18.8576 13.59C18.8576 14.2308 18.6676 14.8572 18.3116 15.39C17.9556 15.9228 17.4496 16.3381 16.8575 16.5833C16.2655 16.8286 15.614 16.8927 14.9855 16.7677C14.357 16.6427 13.7797 16.3341 13.3266 15.881C12.8735 15.4279 12.5649 14.8506 12.4399 14.2221C12.3149 13.5936 12.379 12.9421 12.6243 12.3501C12.8695 11.758 13.2848 11.252 13.8176 10.896C14.3504 10.54 14.9768 10.35 15.6176 10.35C16.4769 10.35 17.301 10.6913 17.9087 11.2989C18.5163 11.9066 18.8576 12.7307 18.8576 13.59Z" stroke="#61DCAB" stroke-linecap="square" stroke-linejoin="round"/>
<path d="M26.801 24.7499V23.1299C26.7989 22.4133 26.5592 21.7176 26.1195 21.1517C25.6798 20.5858 25.0649 20.1816 24.371 20.0024" stroke="#61DCAB" stroke-linecap="square" stroke-linejoin="round"/>
<path d="M21.1769 10.4597C21.8727 10.6391 22.4891 11.0446 22.9291 11.6126C23.3692 12.1805 23.608 12.8786 23.608 13.5971C23.608 14.3156 23.3692 15.0137 22.9291 15.5817C22.4891 16.1496 21.8727 16.5551 21.1769 16.7345" stroke="#61DCAB" stroke-linecap="square" stroke-linejoin="round"/>
<path d="M18 35.55C27.6926 35.55 35.55 27.6925 35.55 18C35.55 8.30735 27.6926 0.449951 18 0.449951C8.30742 0.449951 0.450012 8.30735 0.450012 18C0.450012 27.6925 8.30742 35.55 18 35.55Z" stroke="white"/>
</svg>
