<svg width="38" height="37" viewBox="0 0 38 37" fill="none" xmlns="http://www.w3.org/2000/svg">
<path d="M23.1282 21.1832C23.1282 19.1103 21.2895 18.6107 19.5741 18.1876V14.6623C20.5004 14.7231 21.3962 15.0135 22.1787 15.5067L22.6845 14.2961C21.7504 13.7188 20.6765 13.4002 19.575 13.3734V11.6667H18.594V13.3912C16.2198 13.5876 15.1317 14.889 15.1317 16.3867C15.1317 18.4445 16.9083 18.9743 18.594 19.3823V22.8934C17.4371 22.8383 16.3297 22.4134 15.4386 21.6827L14.8716 22.8632C15.9335 23.6917 17.2409 24.1541 18.594 24.1796V25.889H19.5741V24.1796C21.9951 23.9823 23.1282 22.681 23.1282 21.1832ZM16.6329 16.3272C16.6329 15.5272 17.2305 14.8445 18.594 14.6783V17.9467C17.4879 17.6579 16.6329 17.265 16.6329 16.3272ZM19.5741 22.8783V19.625C20.7081 19.9281 21.6279 20.3067 21.6279 21.2747C21.6279 22.0916 20.997 22.7423 19.5741 22.8783Z" fill="#61DCAB"/>
<path d="M19 36.1111C28.6925 36.1111 36.5499 28.3507 36.5499 18.7778C36.5499 9.20486 28.6925 1.44446 19 1.44446C9.30735 1.44446 1.44995 9.20486 1.44995 18.7778C1.44995 28.3507 9.30735 36.1111 19 36.1111Z" stroke="white"/>
</svg>
