<svg width="38" height="38" viewBox="0 0 38 38" fill="none" xmlns="http://www.w3.org/2000/svg">
<path d="M19 36.55C28.6925 36.55 36.5499 28.6925 36.5499 19C36.5499 9.30735 28.6925 1.44995 19 1.44995C9.30735 1.44995 1.44995 9.30735 1.44995 19C1.44995 28.6925 9.30735 36.55 19 36.55Z" stroke="white"/>
<path d="M19.6544 19.423L24.8834 24.652C24.9693 24.7374 25.0375 24.839 25.084 24.9508C25.1305 25.0626 25.1544 25.1825 25.1544 25.3036C25.1544 25.4248 25.1305 25.5447 25.084 25.6565C25.0375 25.7683 24.9693 25.8699 24.8834 25.9552L24.014 26.8246C23.9287 26.9105 23.8271 26.9787 23.7153 27.0252C23.6035 27.0717 23.4836 27.0956 23.3624 27.0956C23.2413 27.0956 23.1214 27.0717 23.0096 27.0252C22.8978 26.9787 22.7962 26.9105 22.7108 26.8246L19.0001 23.1247L15.2939 26.8291C15.2086 26.915 15.107 26.9832 14.9952 27.0297C14.8834 27.0762 14.7635 27.1001 14.6423 27.1001C14.5212 27.1001 14.4013 27.0762 14.2895 27.0297C14.1777 26.9832 14.0761 26.915 13.9907 26.8291L13.1195 25.9597C13.0334 25.8743 12.965 25.7727 12.9183 25.6607C12.8717 25.5487 12.8477 25.4286 12.8477 25.3072C12.8477 25.1859 12.8717 25.0658 12.9183 24.9538C12.965 24.8418 13.0334 24.7402 13.1195 24.6547L18.3485 19.4257C18.4339 19.3394 18.5354 19.2708 18.6474 19.2239C18.7594 19.177 18.8795 19.1527 19.0009 19.1524C19.1223 19.1522 19.2426 19.176 19.3547 19.2224C19.4669 19.2689 19.5688 19.337 19.6544 19.423ZM18.3467 12.043L13.1195 17.2702C13.0337 17.3556 12.9655 17.4572 12.919 17.569C12.8725 17.6808 12.8486 17.8007 12.8486 17.9218C12.8486 18.043 12.8725 18.1629 12.919 18.2747C12.9655 18.3865 13.0337 18.4881 13.1195 18.5734L13.9889 19.4428C14.0743 19.5287 14.1759 19.5969 14.2877 19.6434C14.3995 19.6899 14.5194 19.7138 14.6405 19.7138C14.7617 19.7138 14.8816 19.6899 14.9934 19.6434C15.1052 19.5969 15.2068 19.5287 15.2921 19.4428L18.9965 15.7357L22.7027 19.4419C22.7881 19.5278 22.8897 19.596 23.0015 19.6425C23.1133 19.689 23.2332 19.7129 23.3543 19.7129C23.4755 19.7129 23.5954 19.689 23.7072 19.6425C23.819 19.596 23.9206 19.5278 24.0059 19.4419L24.8753 18.5725C24.9612 18.4872 25.0294 18.3856 25.0759 18.2738C25.1224 18.162 25.1463 18.0421 25.1463 17.9209C25.1463 17.7998 25.1224 17.6799 25.0759 17.5681C25.0294 17.4563 24.9612 17.3547 24.8753 17.2693L19.6463 12.0403C19.5613 11.9545 19.4601 11.8863 19.3486 11.8398C19.237 11.7932 19.1174 11.7693 18.9965 11.7693C18.8757 11.7693 18.756 11.7932 18.6445 11.8398C18.533 11.8863 18.4318 11.9545 18.3467 12.0403V12.043Z" stroke="#61DCAB"/>
</svg>
