<svg width="28" height="28" viewBox="0 0 28 28" fill="none" xmlns="http://www.w3.org/2000/svg">
<path d="M0.966593 12.0893L12.0465 15.5478C12.1419 15.5777 12.2286 15.6302 12.2993 15.7009C12.3699 15.7716 12.4224 15.8584 12.4522 15.9538L15.9107 27.0334C15.9998 27.3083 16.1719 27.5488 16.4033 27.7219C16.6347 27.8949 16.9141 27.9919 17.203 27.9995C17.4918 28.0071 17.776 27.925 18.0162 27.7645C18.2564 27.6039 18.441 27.3728 18.5444 27.103L27.9183 1.87128C28.0075 1.62162 28.0241 1.35175 27.9659 1.09307C27.9078 0.834388 27.7774 0.597532 27.5899 0.410056C27.4025 0.22258 27.1656 0.0921928 26.9069 0.0340636C26.6483 -0.0240656 26.3784 -0.0075467 26.1287 0.0816984L0.896809 9.45556C0.627028 9.55904 0.395964 9.74362 0.235439 9.98387C0.0749168 10.2241 -0.00716972 10.5082 0.000482559 10.7971C0.00813675 11.0859 0.105154 11.3653 0.278175 11.5967C0.451197 11.8281 0.69171 12.0002 0.966593 12.0893Z" fill="#00175D"/>
</svg>
