<svg width="42" height="41" viewBox="0 0 42 41" fill="none" xmlns="http://www.w3.org/2000/svg">
<path d="M25.4593 21.7205L26.0178 18.0689H22.5241V15.6996C22.4998 15.4269 22.537 15.1522 22.6329 14.8959C22.7288 14.6396 22.8809 14.4082 23.0781 14.2188C23.2752 14.0294 23.5123 13.8869 23.7718 13.8018C24.0313 13.7167 24.3066 13.6912 24.5772 13.7272H26.1683V10.6182C25.2349 10.467 24.2917 10.3845 23.3462 10.3713C20.4684 10.3713 18.5876 12.116 18.5876 15.2861V18.0689H15.3887V21.7205H18.5876V30.5477H22.5241V21.7205H25.4593Z" fill="white"/>
<path d="M20.7772 40.1276C31.5877 40.1276 40.3512 31.34 40.3512 20.5C40.3512 9.65992 31.5877 0.872314 20.7772 0.872314C9.96682 0.872314 1.20325 9.65992 1.20325 20.5C1.20325 31.34 9.96682 40.1276 20.7772 40.1276Z" stroke="#61DCAB"/>
</svg>
