<svg width="42" height="41" viewBox="0 0 42 41" fill="none" xmlns="http://www.w3.org/2000/svg">
<path d="M20.9489 15.4351C19.8976 15.4351 18.8699 15.7477 17.9958 16.3334C17.1217 16.9191 16.4404 17.7515 16.0381 18.7254C15.6358 19.6994 15.5305 20.7711 15.7356 21.805C15.9407 22.8389 16.4469 23.7886 17.1903 24.534C17.9337 25.2794 18.8808 25.7871 19.9119 25.9927C20.943 26.1984 22.0117 26.0928 22.983 25.6894C23.9543 25.286 24.7844 24.6028 25.3685 23.7263C25.9526 22.8498 26.2643 21.8193 26.2643 20.7651C26.2654 20.0649 26.1287 19.3713 25.862 18.7241C25.5953 18.0769 25.2038 17.4889 24.71 16.9937C24.2162 16.4985 23.6298 16.106 22.9844 15.8385C22.3389 15.5711 21.6472 15.434 20.9489 15.4351ZM20.9489 24.2301C20.2654 24.2301 19.5974 24.0269 19.0291 23.6461C18.4609 23.2654 18.018 22.7242 17.7564 22.0911C17.4949 21.458 17.4265 20.7613 17.5598 20.0892C17.6931 19.417 18.0222 18.7996 18.5055 18.3151C18.9888 17.8305 19.6045 17.5005 20.2747 17.3668C20.945 17.2331 21.6398 17.3017 22.2712 17.564C22.9026 17.8262 23.4423 18.2703 23.822 18.8401C24.2017 19.4099 24.4043 20.0798 24.4043 20.7651C24.4025 21.6835 24.0379 22.5638 23.3902 23.2132C22.7426 23.8626 21.8648 24.2282 20.9489 24.2301ZM27.7206 15.2171C27.7206 15.4629 27.6479 15.7033 27.5117 15.9077C27.3755 16.1121 27.1819 16.2714 26.9553 16.3655C26.7288 16.4596 26.4795 16.4842 26.2391 16.4363C25.9986 16.3883 25.7777 16.2699 25.6043 16.096C25.431 15.9222 25.3129 15.7007 25.2651 15.4596C25.2172 15.2184 25.2418 14.9685 25.3356 14.7413C25.4294 14.5142 25.5883 14.3201 25.7922 14.1835C25.9961 14.0469 26.2357 13.974 26.4809 13.974C26.6438 13.9736 26.8052 14.0055 26.9557 14.0679C27.1063 14.1302 27.2431 14.2218 27.3583 14.3373C27.4735 14.4528 27.5648 14.59 27.6269 14.7409C27.6891 14.8919 27.721 15.0537 27.7206 15.2171ZM31.2413 16.4793C31.2754 14.8632 30.6738 13.2986 29.5667 12.1237C28.3926 11.0173 26.8339 10.4147 25.223 10.4445C23.5118 10.3468 18.3808 10.3468 16.6722 10.4436C15.0596 10.4101 13.4981 11.0113 12.3224 12.1185C11.2181 13.295 10.6177 14.8588 10.6503 16.4741C10.5529 18.1909 10.5529 23.3351 10.6503 25.0509C10.6154 26.667 11.216 28.2319 12.3224 29.4074C13.4984 30.5147 15.0593 31.1173 16.6722 31.0867C18.3842 31.1844 23.5144 31.1844 25.2256 31.0867C26.8372 31.1208 28.3976 30.5176 29.5693 29.4074C30.6726 28.2301 31.2736 26.6671 31.2439 25.0518C31.3414 23.3351 31.3414 18.1952 31.2439 16.4793H31.2413ZM29.0308 26.8933C28.8548 27.3405 28.5891 27.7466 28.2502 28.0864C27.9112 28.4263 27.5062 28.6928 27.0603 28.8692C25.6954 29.4118 22.4574 29.287 20.9489 29.287C19.4404 29.287 16.1981 29.4074 14.8374 28.8692C14.3915 28.6928 13.9865 28.4263 13.6476 28.0864C13.3086 27.7466 13.0429 27.3405 12.867 26.8933C12.3259 25.5246 12.4503 22.2778 12.4503 20.7651C12.4503 19.2525 12.3302 16.0013 12.867 14.6369C13.0429 14.1898 13.3086 13.7837 13.6476 13.4438C13.9865 13.1039 14.3915 12.8375 14.8374 12.6611C16.2024 12.1185 19.4404 12.2432 20.9489 12.2432C22.4574 12.2432 25.6997 12.1229 27.0603 12.6611C27.5062 12.8375 27.9112 13.1039 28.2502 13.4438C28.5891 13.7837 28.8548 14.1898 29.0308 14.6369C29.5719 16.0056 29.4475 19.2525 29.4475 20.7651C29.4475 22.2778 29.5719 25.5299 29.0308 26.8933Z" fill="white"/>
<path d="M21.1046 40.1276C31.915 40.1276 40.6786 31.34 40.6786 20.5C40.6786 9.65992 31.915 0.872314 21.1046 0.872314C10.2942 0.872314 1.53058 9.65992 1.53058 20.5C1.53058 31.34 10.2942 40.1276 21.1046 40.1276Z" stroke="#61DCAB"/>
</svg>
