<svg width="33" height="33" viewBox="0 0 33 33" fill="none" xmlns="http://www.w3.org/2000/svg">
<rect x="0.5" y="0.5" width="32" height="32" rx="16" stroke="#61DCAB"/>
<path d="M23.1328 13.7529C23.1015 13.0443 22.9869 12.5571 22.8228 12.135C22.6534 11.6869 22.3929 11.2858 22.0516 10.9523C21.7181 10.6136 21.3143 10.3505 20.8714 10.1838C20.4469 10.0196 19.9623 9.90503 19.2537 9.87379C18.5398 9.8399 18.3132 9.83206 16.5026 9.83206C14.692 9.83206 14.4653 9.8399 13.7541 9.87114C13.0455 9.90238 12.5584 10.0171 12.1364 10.1811C11.6882 10.3505 11.287 10.611 10.9535 10.9523C10.6149 11.2858 10.3518 11.6896 10.185 12.1325C10.0209 12.5571 9.90628 13.0416 9.87504 13.7502C9.84115 14.4641 9.83331 14.6907 9.83331 16.5013C9.83331 18.3119 9.84115 18.5386 9.87239 19.2498C9.90363 19.9584 10.0183 20.4455 10.1825 20.8676C10.3518 21.3157 10.6149 21.7169 10.9535 22.0504C11.287 22.389 11.6908 22.6522 12.1337 22.8189C12.5584 22.983 13.0429 23.0976 13.7516 23.1289C14.4627 23.1602 14.6894 23.1679 16.5 23.1679C18.3106 23.1679 18.5373 23.1602 19.2485 23.1289C19.9571 23.0976 20.4442 22.983 20.8663 22.8189C21.7625 22.4724 22.4711 21.7638 22.8176 20.8676C22.9816 20.443 23.0963 19.9584 23.1276 19.2498C23.1588 18.5386 23.1666 18.3119 23.1666 16.5013C23.1666 14.6907 23.164 14.4641 23.1328 13.7529ZM21.9318 19.1977C21.9031 19.849 21.7937 20.2007 21.7026 20.4351C21.4785 21.0161 21.0174 21.4772 20.4364 21.7013C20.2019 21.7925 19.8477 21.9019 19.1989 21.9305C18.4955 21.9618 18.2846 21.9696 16.5052 21.9696C14.7259 21.9696 14.5123 21.9618 13.8114 21.9305C13.1601 21.9019 12.8084 21.7925 12.5739 21.7013C12.2848 21.5944 12.0217 21.4251 11.8081 21.2037C11.5866 20.9874 11.4173 20.7269 11.3104 20.4378C11.2192 20.2033 11.1099 19.849 11.0813 19.2003C11.0499 18.4969 11.0422 18.2859 11.0422 16.5065C11.0422 14.7272 11.0499 14.5135 11.0813 13.8128C11.1099 13.1615 11.2192 12.8098 11.3104 12.5753C11.4173 12.2861 11.5866 12.0231 11.8107 11.8094C12.0269 11.5879 12.2874 11.4186 12.5766 11.3118C12.8111 11.2206 13.1654 11.1112 13.814 11.0825C14.5174 11.0513 14.7285 11.0435 16.5078 11.0435C18.2898 11.0435 18.5007 11.0513 19.2016 11.0825C19.8529 11.1112 20.2046 11.2206 20.439 11.3118C20.7282 11.4186 20.9913 11.5879 21.2049 11.8094C21.4264 12.0256 21.5957 12.2861 21.7026 12.5753C21.7937 12.8098 21.9031 13.164 21.9318 13.8128C21.9631 14.5162 21.9709 14.7272 21.9709 16.5065C21.9709 18.2859 21.9631 18.4943 21.9318 19.1977Z" fill="white"/>
<path d="M16.5026 13.0755C14.6113 13.0755 13.0768 14.6099 13.0768 16.5013C13.0768 18.3927 14.6113 19.9271 16.5026 19.9271C18.394 19.9271 19.9284 18.3927 19.9284 16.5013C19.9284 14.6099 18.394 13.0755 16.5026 13.0755ZM16.5026 18.7236C15.2756 18.7236 14.2803 17.7284 14.2803 16.5013C14.2803 15.2742 15.2756 14.2791 16.5026 14.2791C17.7297 14.2791 18.7248 15.2742 18.7248 16.5013C18.7248 17.7284 17.7297 18.7236 16.5026 18.7236Z" fill="white"/>
<path d="M20.8637 12.9401C20.8637 13.3817 20.5056 13.7398 20.0638 13.7398C19.6222 13.7398 19.2641 13.3817 19.2641 12.9401C19.2641 12.4983 19.6222 12.1403 20.0638 12.1403C20.5056 12.1403 20.8637 12.4983 20.8637 12.9401Z" fill="white"/>
</svg>
