<svg width="42" height="41" viewBox="0 0 42 41" fill="none" xmlns="http://www.w3.org/2000/svg">
<path d="M15.5722 29.8952H11.5356V16.8607H15.5722V29.8952ZM13.5513 15.082C13.0867 15.0842 12.6319 14.9482 12.2444 14.6912C11.8569 14.4343 11.554 14.0678 11.3742 13.6383C11.1944 13.2087 11.1457 12.7353 11.2342 12.278C11.3227 11.8206 11.5445 11.3999 11.8715 11.0689C12.1985 10.738 12.616 10.5117 13.0712 10.4187C13.5265 10.3257 13.999 10.3702 14.4291 10.5466C14.8591 10.7229 15.2273 11.0231 15.4872 11.4093C15.747 11.7955 15.8868 12.2503 15.8889 12.7162C15.8894 13.34 15.6439 13.9387 15.2061 14.3819C14.7682 14.825 14.1734 15.0767 13.5513 15.082ZM30.6799 29.8943H26.652V23.5498C26.652 22.0371 26.6215 20.0979 24.5536 20.0979C22.4553 20.0979 22.1334 21.7405 22.1334 23.4407V29.896H18.1003V16.8607H21.9716V18.6385H22.0282C22.4153 17.974 22.975 17.4273 23.6475 17.0566C24.3201 16.6859 25.0803 16.5051 25.8473 16.5335C29.9361 16.5335 30.6834 19.2308 30.6834 22.735V29.8952L30.6799 29.8943Z" fill="white"/>
<path d="M20.8894 40.1276C31.6998 40.1276 40.4634 31.34 40.4634 20.5C40.4634 9.65992 31.6998 0.872314 20.8894 0.872314C10.0789 0.872314 1.31537 9.65992 1.31537 20.5C1.31537 31.34 10.0789 40.1276 20.8894 40.1276Z" stroke="#61DCAB"/>
</svg>
