<svg width="33" height="33" viewBox="0 0 33 33" fill="none" xmlns="http://www.w3.org/2000/svg">
<rect x="0.5" y="0.5" width="32" height="32" rx="16" stroke="#61DCAB"/>
<path d="M22.7954 22.7954V18.184C22.7954 15.9177 22.3075 14.1865 19.6634 14.1865C18.3886 14.1865 17.5387 14.879 17.1925 15.54H17.161V14.3911H14.6586V22.7954H17.2712V18.6247C17.2712 17.523 17.4758 16.4685 18.8293 16.4685C20.1671 16.4685 20.1828 17.7119 20.1828 18.6877V22.7796H22.7954V22.7954Z" fill="white"/>
<path d="M10.4093 14.3911H13.0218V22.7954H10.4093V14.3911Z" fill="white"/>
<path d="M11.7155 10.2047C10.8814 10.2047 10.2047 10.8814 10.2047 11.7155C10.2047 12.5497 10.8814 13.2422 11.7155 13.2422C12.5497 13.2422 13.2264 12.5497 13.2264 11.7155C13.2264 10.8814 12.5497 10.2047 11.7155 10.2047Z" fill="white"/>
</svg>
