<svg width="129" height="27" viewBox="0 0 129 27" fill="none" xmlns="http://www.w3.org/2000/svg">
<path d="M97.4901 15.7312L99.7766 1.47298L97.4293 15.8396C97.4497 15.804 97.4706 15.7678 97.4901 15.7312Z" fill="#61DCAB"/>
<path d="M57.0533 0.674738C55.9606 0.64763 54.8736 0.850522 53.8537 1.27199C54.0684 2.59334 54.0555 3.94574 53.8157 5.26212L53.2466 8.79033L52.6257 12.317L52.602 12.3384L51.1658 21.1478C50.664 24.122 51.7388 26.2049 54.6111 26.2888C55.7996 26.2891 56.965 25.937 57.9786 25.2713C57.7428 23.976 57.7365 22.6446 57.9602 21.3468L58.4141 18.5247L59.263 13.684L59.3299 13.3055L60.6105 5.46209C61.1104 2.48743 59.9252 0.758682 57.0533 0.674738Z" fill="#61DCAB"/>
<path d="M23.6025 11.9552C23.8106 10.7161 23.9083 9.45863 23.8942 8.19967C23.8264 4.63384 22.6065 2.20556 20.4081 1.19721C19.5835 0.833786 18.6985 0.654288 17.8071 0.669646C17.049 0.67226 16.2952 0.790976 15.5684 1.02221C13.4663 1.68002 11.4083 3.23881 9.3712 5.5119L8.49422 11.3712C10.4863 8.5827 12.6059 7.16435 14.8972 7.16435C16.0104 7.16435 16.6702 7.68478 16.9068 8.8081C17.061 9.85414 17.0288 10.9221 16.812 11.9552L15.308 21.1947C14.761 24.6165 15.9002 26.3274 18.7258 26.3274C19.9685 26.3816 21.2004 26.0596 22.2806 25.3984C21.8248 24.4695 21.7793 22.9564 22.0985 20.9499L23.6025 11.9552Z" fill="#61DCAB"/>
<path d="M46.3759 0.667106C45.2759 0.655053 44.184 0.870089 43.1597 1.3005C43.295 2.1952 43.311 3.106 43.2071 4.00553C43.2161 4.52004 43.1683 5.0339 43.0648 5.53638L42.8818 6.50301L42.6788 8.57664C42.7366 8.7369 42.3321 10.8406 42.3828 11.0039L41.6078 15.0617C41.5392 15.2174 41.4674 15.3712 41.3925 15.5231L40.5164 20.8304C40.481 21.0543 40.4494 21.272 40.4216 21.4836C40.4363 21.445 40.4519 21.4068 40.4662 21.3682C40.2385 22.9814 40.3751 24.2034 40.922 24.9854C41.4688 25.8167 42.4302 26.2858 43.8432 26.2858C45.1058 26.315 46.351 25.9663 47.4393 25.279C46.9835 24.35 46.938 22.8369 47.2567 20.8304L49.6215 6.50301L49.8046 5.53638C50.3776 2.6192 49.2459 0.745454 46.3759 0.667106Z" fill="#61DCAB"/>
<path d="M81.3307 1.76957C80.7027 1.05223 79.7039 0.689468 78.3388 0.689468C77.5647 0.68644 76.7955 0.820697 76.0622 1.0868C74.2941 1.7319 72.7388 3.16306 71.4141 5.38274C71.5635 4.51786 71.0223 7.22336 71.0223 7.22336C71.0223 7.22336 71.1333 6.27915 71.1314 6.27864L70.7657 8.52628L70.4811 10.7775C72.0714 8.69725 73.9777 7.68025 76.2899 7.68025C77.3943 7.64877 78.4802 7.9891 79.3951 8.65347C79.7476 8.91943 80.0664 9.2332 80.3437 9.58701C80.741 9.04992 81.0826 8.46804 81.3625 7.85166C81.8645 6.74802 82.1241 5.53572 82.1213 4.30773C82.1749 3.38367 81.8914 2.47346 81.3307 1.76957Z" fill="#61DCAB"/>
<path d="M103.415 20.4733L106.651 0.669172H99.908L99.7766 1.47298L97.4901 15.7312C97.4706 15.7678 97.4497 15.804 97.4293 15.8396L96.67 20.4727C96.6372 20.6762 96.6092 20.8798 96.5841 21.0802C96.5964 21.0568 96.6092 21.0339 96.6216 21.01C96.3939 22.6232 96.5305 23.8452 97.0774 24.6272C97.4304 25.142 97.8914 25.5607 98.423 25.8492C98.9547 26.1377 99.5422 26.2881 100.138 26.2883C101.345 26.1568 102.518 25.7819 103.595 25.1833C103.141 24.2553 103.096 22.4773 103.415 20.4733Z" fill="#61DCAB"/>
<path d="M81.3307 1.76957C80.7027 1.05223 79.7039 0.689468 78.3388 0.689468C77.5647 0.68644 76.7955 0.820697 76.0622 1.0868C74.2941 1.7319 72.7388 3.16306 71.4141 5.38274C71.5765 4.63564 71.5684 3.85747 71.3894 3.11473C71.2916 2.77155 71.1318 2.45238 70.9189 2.17554C70.5237 1.72271 70.0445 1.3636 69.5122 1.12133C68.9799 0.879067 68.4061 0.758994 67.8279 0.768836C66.7165 0.735237 65.6078 0.905242 64.5496 1.2715C64.8056 2.67525 64.8306 4.11623 64.6236 5.52924L64.4998 6.27963H64.4941L64.1289 8.52728L62.3393 19.3606L62.3332 19.3708C62.2217 20.0098 62.1155 20.6508 61.9708 21.2806L61.9846 21.2588C61.7564 22.5785 61.8508 24.0523 62.4888 24.8836C62.9569 25.487 63.7063 26.2903 65.5394 26.2903C66.6939 26.3421 67.8268 25.9446 68.7296 25.1711C68.626 24.6128 68.576 24.0446 68.5802 23.4754C68.5866 22.6839 68.6518 21.8942 68.7751 21.1138V21.1041H68.7827L69.2684 18.1147L70.4811 10.7775C72.0714 8.69725 73.9777 7.68025 76.2899 7.68025C77.3943 7.64877 78.4802 7.9891 79.3951 8.65347C79.7476 8.91943 80.0664 9.2332 80.3437 9.58701C80.741 9.04992 81.0826 8.46804 81.3625 7.85166C81.8645 6.74802 82.1241 5.53572 82.1213 4.30773C82.1749 3.38367 81.8914 2.47346 81.3307 1.76957Z" fill="#61DCAB"/>
<path d="M103.415 20.4733L106.651 0.669172H99.908L99.7766 1.47298L97.4901 15.7312C97.4706 15.7678 97.4497 15.804 97.4293 15.8396C96.0226 18.3564 94.1301 19.5931 91.8387 19.5931C90.4158 19.5931 89.6769 18.9439 89.5019 17.5337C89.4253 16.6203 89.4757 15.6997 89.6513 14.8022L91.2469 5.26978C91.7482 2.33633 90.5629 0.674203 87.6896 0.674203C86.6004 0.667095 85.5188 0.869584 84.4962 1.27201C84.6513 2.13958 84.6899 3.0265 84.6109 3.90581C84.5793 4.34198 84.5271 4.79665 84.4544 5.26978L82.7683 15.4865C81.997 20.4865 83.1525 23.975 85.7037 25.4702C86.7095 26.0339 87.8319 26.3158 88.9664 26.2893C89.8747 26.295 90.7775 26.138 91.6377 25.8248C93.7246 25.054 95.3737 23.3655 96.5841 21.0802C96.5964 21.0568 96.6092 21.0339 96.6216 21.01C96.3939 22.6232 96.5305 23.8452 97.0774 24.6272C97.4304 25.142 97.8914 25.5607 98.423 25.8492C98.9547 26.1377 99.5422 26.2881 100.138 26.2883C101.345 26.1568 102.518 25.7819 103.595 25.1833C103.141 24.2553 103.096 22.4773 103.415 20.4733Z" fill="#61DCAB"/>
<path d="M128.246 0.728667H113.388C113.236 0.728667 113.088 0.733793 112.945 0.742951C110.549 0.895576 109.332 2.31546 109.332 5.00522C109.325 5.96962 109.447 6.93009 109.697 7.85676C110.66 7.28846 111.731 6.95656 112.828 6.88503L112.927 6.8754C113.222 6.85098 113.526 6.8386 113.842 6.83827H119.311C119.311 6.83827 116.389 9.68982 113.371 12.9692C111.051 15.4896 108.675 18.2602 107.523 20.1869C107.428 20.3492 107.337 20.5058 107.258 20.6549C106.404 22.3897 105.973 24.3278 106.004 26.2893H121.985C122.244 26.2898 122.504 26.2748 122.762 26.2446C124.937 25.9841 126.041 24.5743 126.041 22.0122C126.048 21.0486 125.925 20.089 125.676 19.1632C124.516 19.8324 123.219 20.1803 121.902 20.1751C121.779 20.1792 121.655 20.1818 121.529 20.1818H114.984C114.984 20.1818 117.347 17.374 120.201 14.0793C122.336 11.6165 124.745 8.88191 126.649 6.84385C126.652 6.84029 126.655 6.83672 126.658 6.83367C128.895 4.42372 128.246 0.728667 128.246 0.728667Z" fill="#61DCAB"/>
<path d="M46.3759 0.667106C45.2759 0.655053 44.184 0.870089 43.1597 1.3005C43.295 2.1952 43.311 3.106 43.2071 4.00553C43.1755 4.31349 43.135 4.62875 43.0867 4.9513C42.756 3.82426 42.1237 2.82637 41.2684 2.08182C40.4131 1.33726 39.3726 0.878931 38.2763 0.763801C37.9304 0.714754 37.5818 0.690258 37.2329 0.690519C35.9838 0.681837 34.7451 0.934104 33.586 1.43327C31.8966 2.20488 30.4101 3.41044 29.2576 4.94366C27.0246 7.77893 25.8848 11.4455 25.8848 15.9917C25.8848 20.865 27.5515 24.1317 30.236 25.5328C31.2685 26.0573 32.3991 26.3218 33.5414 26.3061C34.2315 26.31 34.9196 26.2262 35.5913 26.0563C36.685 25.7785 37.698 25.2161 38.541 24.4186C39.3839 23.6212 40.0279 22.6128 40.4216 21.4836C40.4363 21.445 40.4519 21.4068 40.4662 21.3682C40.2385 22.9814 40.3751 24.2034 40.922 24.9854C41.4688 25.8167 42.4302 26.2858 43.8432 26.2858C45.1058 26.315 46.351 25.9663 47.4393 25.279C46.9835 24.35 46.938 22.8369 47.2567 20.8304L49.6215 6.50301L49.8046 5.53638C50.3776 2.6192 49.2459 0.745454 46.3759 0.667106ZM41.6078 15.0617C41.5392 15.2174 41.4674 15.3712 41.3925 15.5231C40.1318 18.0974 38.0558 20.1487 35.7753 20.1487C34.637 20.1487 33.6695 19.3266 33.1567 17.8492C32.8851 17.0177 32.7533 16.1411 32.7674 15.2601C32.7674 12.5032 33.5044 10.2835 34.6589 8.81779C35.1036 8.21561 35.6674 7.72685 36.3097 7.38681C36.9519 7.04676 37.6565 6.86393 38.3726 6.85148C40.2285 6.85148 41.4982 8.52626 42.2192 10.5195C42.2773 10.6803 42.3316 10.8404 42.3828 11.0039L41.6078 15.0617Z" fill="#61DCAB"/>
<path d="M23.6025 11.9552C23.8106 10.7161 23.9083 9.45863 23.8942 8.19967C23.8264 4.63384 22.6065 2.20556 20.4081 1.19721C19.5835 0.833786 18.6985 0.654288 17.8071 0.669646C17.049 0.67226 16.2952 0.790976 15.5684 1.02221C13.4663 1.68002 11.4083 3.23881 9.3712 5.5119L9.29045 5.60173C9.51812 4.28203 9.54515 3.00705 8.90722 2.17779C8.34518 1.47419 7.78313 0.670913 5.90966 0.670913C4.76442 0.666821 3.62681 0.870623 2.54499 1.27375C2.75642 2.75891 2.7404 4.27115 2.49756 5.75078L1.31988 13.6293C1.31988 13.6293 1.32462 13.6293 1.32984 13.6318L0.131765 20.9924C-0.4151 24.4148 0.742184 26.2885 3.56805 26.2885C4.81963 26.2915 6.04622 25.9128 7.10489 25.1967C6.64909 24.2678 6.60355 22.7547 6.92276 20.7482L8.42676 11.7535C8.44668 11.6294 8.46549 11.5063 8.4832 11.3842L8.49422 11.3712C10.4863 8.5827 12.6059 7.16435 14.8972 7.16435C16.0104 7.16435 16.6702 7.68478 16.9068 8.8081C17.061 9.85414 17.0288 10.9221 16.812 11.9552L15.308 21.1947C14.761 24.6165 15.9002 26.3274 18.7258 26.3274C19.9685 26.3816 21.2004 26.0596 22.2806 25.3984C21.8248 24.4695 21.7793 22.9564 22.0985 20.9499L23.6025 11.9552Z" fill="#61DCAB"/>
<path d="M57.0533 0.674738C55.9606 0.64763 54.8736 0.850522 53.8537 1.27199C54.0684 2.59334 54.0555 3.94574 53.8157 5.26212L53.2466 8.79033L52.6257 12.317L52.602 12.3384L51.1658 21.1478C50.664 24.122 51.7388 26.2049 54.6111 26.2888C55.7996 26.2891 56.965 25.937 57.9786 25.2713C57.7428 23.976 57.7365 22.6446 57.9602 21.3468L58.4141 18.5247L59.263 13.684L59.3299 13.3055L60.6105 5.46209C61.1104 2.48743 59.9252 0.758682 57.0533 0.674738Z" fill="#61DCAB"/>
<path d="M126.649 6.84385C126.652 6.84029 126.655 6.83672 126.658 6.83367L120.668 6.83063L119.311 6.83827C119.311 6.83827 116.389 9.68982 113.371 12.9692C111.051 15.4896 108.675 18.2602 107.523 20.1869L120.511 20.1869L120.518 20.1792L114.984 20.1818C114.984 20.1818 117.347 17.374 120.201 14.0793C122.336 11.6165 124.745 8.88191 126.649 6.84385Z" fill="#61DCAB"/>
</svg>
