<svg width="32" height="33" viewBox="0 0 32 33" fill="none" xmlns="http://www.w3.org/2000/svg">
<g clip-path="url(#clip0_2060_1173)">
<path d="M32.0039 17.666C31.9219 18.283 31.867 18.905 31.755 19.517C31.3944 21.7133 30.5704 23.8076 29.3378 25.6608C28.1051 27.5139 26.4921 29.0835 24.6059 30.265C21.9751 32.0165 18.8593 32.8947 15.701 32.775C12.9237 32.7562 10.2014 31.9986 7.8137 30.58C5.42595 29.1615 3.45872 27.133 2.11395 24.703C0.622315 22.2219 -0.107885 19.3574 0.0139549 16.465C0.0410574 13.8105 0.741659 11.2063 2.05012 8.89651C3.35858 6.58673 5.23206 4.64694 7.49496 3.25897C9.67403 1.85119 12.1748 1.01957 14.7629 0.84198C14.8444 0.830238 14.9249 0.812861 15.0039 0.789978H17.0039C17.5899 0.870978 18.1799 0.928985 18.7589 1.04099C19.4009 1.16499 20.0379 1.32299 20.6699 1.49399C20.7841 1.51247 20.893 1.5555 20.9889 1.62012C21.0849 1.68473 21.1657 1.76939 21.2258 1.86826C21.2859 1.96712 21.3238 2.07782 21.3369 2.19275C21.3501 2.30768 21.3381 2.42412 21.3019 2.534C21.2659 2.6412 21.2078 2.73969 21.1315 2.82321C21.0553 2.90673 20.9624 2.97341 20.8589 3.01904C20.7554 3.06468 20.6435 3.08824 20.5304 3.08823C20.4173 3.08821 20.3054 3.06464 20.202 3.01898C18.6175 2.52811 16.9582 2.32326 15.3019 2.414C11.6041 2.56298 8.11247 4.15725 5.57795 6.85397C3.2728 9.16759 1.88167 12.2365 1.66096 15.495C1.36358 18.2528 1.8913 21.0368 3.17728 23.4945C4.46327 25.9522 6.44969 27.973 8.88496 29.301C11.678 30.9992 14.9983 31.6103 18.2129 31.018C20.7202 30.6636 23.085 29.6377 25.0567 28.0489C27.0284 26.4601 28.5336 24.3676 29.413 21.993C30.6253 19.0105 30.7538 15.6974 29.7759 12.63C29.7193 12.5041 29.6949 12.3661 29.7052 12.2284C29.7155 12.0907 29.76 11.9578 29.8347 11.8418C29.9095 11.7257 30.012 11.6301 30.1331 11.5638C30.2542 11.4975 30.3899 11.4625 30.5279 11.462C30.7013 11.4656 30.8686 11.5264 31.0039 11.6349C31.1391 11.7434 31.2348 11.8935 31.2759 12.062C31.6267 13.1854 31.8498 14.3447 31.941 15.518C31.951 15.651 31.979 15.783 31.999 15.918L32.0039 17.666Z" fill="#00175D"/>
<path d="M16.3141 27.9C13.4653 27.9681 10.6983 26.9439 8.58058 25.0372C6.46283 23.1305 5.15476 20.4859 4.92456 17.6456C4.69436 14.8053 5.55947 11.9846 7.34252 9.76174C9.12558 7.53891 11.6915 6.08245 14.514 5.69097C15.2281 5.61622 15.9465 5.59016 16.6641 5.61296C16.8593 5.60224 17.0523 5.65885 17.2109 5.77333C17.3694 5.88782 17.4838 6.05324 17.5351 6.24196C17.5723 6.36498 17.5777 6.49542 17.5507 6.62108C17.5238 6.74675 17.4655 6.86353 17.3812 6.96053C17.2969 7.05752 17.1894 7.13156 17.0687 7.17571C16.948 7.21986 16.818 7.23268 16.6911 7.21297C14.9052 7.0646 13.1149 7.44321 11.542 8.30196C10.1005 9.07055 8.87988 10.1956 7.99659 11.5699C7.1133 12.9441 6.59679 14.5218 6.49632 16.1523C6.39584 17.7829 6.71476 19.412 7.42265 20.8843C8.13053 22.3566 9.20379 23.623 10.5401 24.5628C11.8763 25.5025 13.4311 26.0843 15.056 26.2526C16.681 26.4209 18.322 26.1701 19.8225 25.5242C21.323 24.8782 22.633 23.8586 23.6276 22.5626C24.6222 21.2667 25.2682 19.7375 25.5041 18.121C25.5754 17.4602 25.5971 16.795 25.5691 16.131C25.5418 15.9123 25.6021 15.6917 25.7368 15.5174C25.8715 15.343 26.0696 15.2289 26.288 15.2C26.3976 15.1844 26.5092 15.1927 26.6152 15.2243C26.7212 15.2559 26.8191 15.3102 26.9021 15.3832C26.9852 15.4563 27.0514 15.5465 27.0963 15.6476C27.1411 15.7487 27.1636 15.8583 27.1621 15.969C27.2068 16.8828 27.1589 17.7988 27.0191 18.703C26.6584 20.8778 25.65 22.8933 24.1257 24.4859C22.6013 26.0786 20.632 27.1743 18.475 27.63C18.1928 27.7024 17.9058 27.7542 17.6161 27.785C17.1011 27.842 16.5821 27.877 16.3141 27.9Z" fill="#00175D"/>
<path d="M23.4599 11.976C22.9672 11.9016 22.4652 11.9144 21.9769 12.014C21.5579 12.181 21.2619 12.659 20.9159 13.005C19.5453 14.3737 18.1749 15.743 16.8049 17.113C16.719 17.2036 16.6271 17.2885 16.5299 17.367C16.3774 17.4846 16.187 17.5423 15.9949 17.5292C15.8027 17.5162 15.6219 17.4333 15.4866 17.2962C15.3513 17.1591 15.2709 16.9771 15.2604 16.7848C15.25 16.5925 15.3103 16.403 15.4299 16.252C15.5099 16.1561 15.5953 16.0649 15.6859 15.979C17.3279 14.3363 18.9713 12.6953 20.616 11.056C20.6915 10.9871 20.7507 10.9023 20.7892 10.8077C20.8278 10.713 20.8448 10.611 20.8389 10.509C20.8269 9.71798 20.839 8.92599 20.832 8.13499C20.8265 7.97937 20.8542 7.82436 20.9132 7.68025C20.9721 7.53613 21.061 7.4062 21.1739 7.29899C22.7033 5.77966 24.2279 4.25564 25.7479 2.72697C25.8604 2.5816 26.0173 2.47691 26.1947 2.42872C26.3721 2.38054 26.5603 2.3915 26.7309 2.45997C26.8955 2.53005 27.0324 2.65258 27.1201 2.80848C27.2078 2.96439 27.2415 3.14492 27.216 3.32197C27.209 3.97797 27.2239 4.63399 27.2089 5.28999C27.2029 5.52999 27.285 5.58998 27.509 5.58998C28.165 5.57698 28.8209 5.58999 29.4769 5.58299C29.6543 5.55832 29.8347 5.59339 29.9899 5.68266C30.1451 5.77193 30.2661 5.91029 30.3339 6.07597C30.3999 6.24203 30.4107 6.42492 30.3648 6.59761C30.3189 6.77029 30.2187 6.92362 30.0789 7.03498C28.5456 8.56365 27.0139 10.097 25.4839 11.635C25.3808 11.7451 25.2552 11.8317 25.1156 11.889C24.976 11.9463 24.8257 11.9729 24.6749 11.967C24.2689 11.959 23.8629 11.967 23.4559 11.967L23.4599 11.976ZM25.625 5.15098C25.5801 5.17751 25.537 5.20692 25.496 5.23899C24.5153 6.21766 23.5359 7.19698 22.5579 8.17698C22.5089 8.22598 22.445 8.29398 22.444 8.35298C22.436 9.01498 22.4389 9.67698 22.4389 10.353C23.0729 10.353 23.6659 10.363 24.2579 10.345C24.4063 10.3368 24.5474 10.2783 24.6579 10.179C25.6019 9.25297 26.5339 8.31398 27.4679 7.37898C27.5268 7.31103 27.5819 7.23991 27.6329 7.16597C27.2059 7.16597 26.8329 7.17197 26.4589 7.16597C26.3464 7.17297 26.2337 7.15584 26.1284 7.11567C26.0231 7.07551 25.9275 7.01325 25.8483 6.93312C25.769 6.85298 25.7078 6.7568 25.6687 6.65104C25.6297 6.54529 25.6137 6.43242 25.6219 6.31999C25.6209 5.94899 25.625 5.57699 25.625 5.15199V5.15098Z" fill="#00175D"/>
<path d="M9.66504 16.734C9.67075 15.0948 10.3052 13.5203 11.4375 12.3351C12.5699 11.1499 14.1138 10.4444 15.751 10.364C15.8656 10.3566 15.9805 10.3566 16.095 10.364C16.2951 10.3752 16.4836 10.461 16.6234 10.6045C16.7632 10.748 16.8441 10.9387 16.85 11.139C16.8555 11.3339 16.7882 11.5238 16.6611 11.6717C16.5341 11.8196 16.3565 11.9149 16.163 11.939C15.742 12.003 15.309 12.007 14.897 12.106C14.037 12.3209 13.2538 12.771 12.635 13.4058C12.0162 14.0406 11.5863 14.8352 11.3935 15.7004C11.2006 16.5657 11.2524 17.4676 11.543 18.3051C11.8336 19.1426 12.3516 19.8827 13.0389 20.4425C13.7263 21.0024 14.5559 21.3599 15.4348 21.475C16.3138 21.5901 17.2075 21.4583 18.0159 21.0944C18.8242 20.7304 19.5153 20.1487 20.0118 19.4143C20.5083 18.6799 20.7906 17.8217 20.827 16.936C20.853 16.327 21.078 16.016 21.534 15.954C21.6538 15.9369 21.7758 15.9475 21.8908 15.9849C22.0058 16.0222 22.1108 16.0854 22.1976 16.1695C22.2845 16.2537 22.3509 16.3566 22.3919 16.4704C22.4329 16.5841 22.4473 16.7058 22.434 16.826C22.4342 17.7841 22.2112 18.7291 21.7826 19.5861C21.3541 20.443 20.7318 21.1884 19.965 21.763C19.097 22.477 18.0477 22.9361 16.9342 23.089C15.8206 23.2419 14.6864 23.0826 13.658 22.629C12.6033 22.2278 11.6797 21.5435 10.9888 20.6513C10.2978 19.7591 9.86645 18.6935 9.74203 17.572C9.69703 17.296 9.68904 17.014 9.66504 16.734Z" fill="#00175D"/>
</g>
<defs>
<clipPath id="clip0_2060_1173">
<rect width="32.004" height="31.996" fill="white" transform="translate(0 0.789978)"/>
</clipPath>
</defs>
</svg>
