<svg width="740" height="530" viewBox="0 0 740 530" fill="none" xmlns="http://www.w3.org/2000/svg">
<path d="M274.899 530H191.462C182.439 530.002 173.454 528.843 164.727 526.55C164.702 526.558 164.677 526.566 164.651 526.573C164.546 526.534 164.444 526.489 164.339 526.452C164.235 526.415 164.115 526.397 164.004 526.368C164.027 526.362 164.048 526.355 164.069 526.348C144.774 518.976 127.415 503.06 114.512 484.705C106.979 473.988 100.049 453.965 97.6833 448.892C95.0762 443.295 92.9494 439.736 88.9423 432.604C82.945 421.938 75.1448 412.397 65.889 404.403H0.020121C0.020121 404.275 0 404.008 0 403.881C0.000932122 398.6 1.76261 393.472 5.00549 389.308C8.24836 385.145 12.7867 382.185 17.9003 380.899C17.963 380.884 18.0248 380.865 18.0856 380.844C30.3458 377.805 32.5379 378.308 40.361 378.312H185.507C190.484 378.313 195.454 378.666 200.381 379.366C218.451 381.93 235.537 389.181 249.945 400.401L263.337 347.765L266.373 335.838L309.378 168.222C314.646 150.504 324.471 134.483 337.868 121.765C351.265 109.047 367.763 100.077 385.71 95.7549L385.575 95.7264C393.073 94.0606 400.73 93.2199 408.411 93.2194H553.559C558.536 93.2202 563.506 93.5723 568.434 94.2731C608.069 99.8924 642.52 127.036 653.161 164.63C654.591 169.682 654.814 171.966 657.33 181.332L675.512 254.162C676.078 255.918 679.507 268.217 679.771 269.112L656.59 361.523L700.141 187.898L725.851 85.8605C729.981 64.3386 740.721 44.6464 756.57 29.535C772.419 14.4237 792.585 4.64821 814.251 1.57421L828.838 0.119219L857.803 0L866.66 0.0218299L866.674 0.0285429L1007.09 0.119219C1051.28 0.119219 1088.97 27.67 1104.54 66.1329H1121.98C1121.98 66.2487 1121.99 66.3638 1121.99 66.4805C1121.99 72.6262 1119.55 78.5202 1115.21 82.8658C1110.87 87.2115 1104.99 89.6529 1098.85 89.6529C1097.76 89.6516 1096.67 89.5736 1095.58 89.4195L947.877 89.2977L946.338 89.2507L941.559 88.9863C941.57 88.9863 941.579 88.9812 941.591 88.9795L938.724 88.8208C925.205 87.7445 922.126 79.2924 917.759 67.2218L904.643 119.276L885.633 194.718L843.383 361.427L843.226 362.173C838.733 386.367 825.919 408.221 807.012 423.938C788.105 439.655 764.298 448.243 739.726 448.211H618.771C596.092 448.216 574.018 440.88 555.842 427.295C537.666 413.711 524.361 394.607 517.911 372.831C517.053 369.93 516.316 366.979 515.701 363.98L496.504 287.061L490.766 264.078L483.945 236.749L483.855 236.386L483.488 234.921L481.393 226.538L472.203 262.66L465.86 287.589C465.86 287.589 424.159 454.133 421.893 460.426C414.543 480.806 401.098 498.421 383.39 510.872C365.682 523.323 344.572 530.004 322.936 530.004L274.899 530Z" fill="#F4F4F4"/>
</svg>
