<?xml version="1.0" encoding="utf-8"?>
<!-- Generator: Adobe Illustrator 25.4.1, SVG Export Plug-In . SVG Version: 6.00 Build 0)  -->
<svg version="1.0" id="katman_1" xmlns="http://www.w3.org/2000/svg" xmlns:xlink="http://www.w3.org/1999/xlink" x="0px" y="0px"
	 viewBox="0 0 1280 1024" style="enable-background:new 0 0 1280 1024;" xml:space="preserve">
<style type="text/css">
	.st0{fill:#2C3357;}
</style>
<g>
	<path class="st0" d="M404.8,563h-19.2v-81.3h19.2v10.8c5.1-7.9,13.5-12.8,24.8-12.8c19.9,0,31.4,13.1,31.4,34.3V563h-19.2v-45.3
		c0-12.6-6.2-20.3-18.1-20.3c-11.5,0-19,8.8-19,22.6V563L404.8,563z M475.1,527.9v-46.2h19.2v45.1c0,12.8,6.2,20.5,17,20.5
		s17-7.7,17-20.5v-45.1h19v46.2c0,23.4-13.5,36.9-36.2,36.9C488.6,565,475.1,551.3,475.1,527.9z M553.1,481.7h20.5l21.7,56.4
		l21.9-56.4h19.9L603.7,563h-17L553.1,481.7L553.1,481.7z M714.5,543.8c-6.8,12.8-19.4,21-36.7,21c-24.7,0-42.2-17.5-42.2-42.5
		c0-24.3,17.9-42.5,41.3-42.5c23.7,0,40.4,18.3,40.4,42.5c0,1.5,0,3.5-0.2,5.8h-62.4c0.9,11.7,11.3,20.6,23.4,20.6
		c10.6,0,16.1-5.1,20.6-12.2L714.5,543.8z M698.2,514.2c-1.3-10.8-9.9-18.8-21.7-18.8c-11.5,0-20.5,9.5-21.7,18.8H698.2L698.2,514.2
		z M746.8,563h-19.2v-81.3h19.2v10.8c4.6-7.9,12.1-12.8,23.2-12.8c11.7,0,20.3,5.7,24.7,15.2c4.4-7.9,13.5-15.2,27-15.2
		c18.8,0,29.6,13,29.6,33.2v49.8h-19.2v-46c0-11.9-5.5-19.4-15.5-19.4c-10.4,0-17.2,8.4-17.3,21.7V563h-19.2v-45.6
		c0-12.6-5.5-20.1-15.5-20.1c-10.6,0-17.3,8.6-17.3,22.5V563H746.8z M874.5,536.1c2.7,7.5,8.9,12.4,16.3,12.4c6,0,11-2.7,11-8.4
		c0-4.6-2.7-6.8-9.3-8.8l-9.9-3.1c-13.7-4.4-20.6-12.2-20.6-23.6c0-15.2,12.8-24.8,27.9-24.8c13.3,0,24.3,7.1,29.6,18.4l-15.3,8.2
		c-3.1-6.4-8-10.8-14.1-10.8c-5.5,0-9.9,2.7-9.9,7.5c0,3.8,2.9,6.8,9.1,8.8l9.7,3.1c15.2,5.1,21.4,13,21.4,23.7
		c0,16.6-13.9,26.1-29.8,26.1c-15.2,0-26.8-8-31.4-20.6L874.5,536.1z M949.1,563H930V451.4h19.2v41.1c5.1-7.9,13.5-12.8,24.8-12.8
		c19.9,0,31.4,13.1,31.4,34.3V563h-19.2v-45.3c0-12.6-6.2-20.3-18.1-20.3c-11.5,0-19,8.8-19,22.6V563L949.1,563z M1102,522.3
		c0,23.9-18.4,42.5-43.3,42.5s-43.3-18.8-43.3-42.5c0-23.9,18.4-42.5,43.3-42.5C1083.7,479.7,1102,498.5,1102,522.3z M1034.6,522.3
		c0,13.9,10.6,25,24.1,25s24.1-11.1,24.1-25c0-13.9-10.6-25-24.1-25S1034.6,508.4,1034.6,522.3z M1132.1,481.7v11.7
		c6-8.4,16.3-13.5,27.6-13.5c22.5,0,39.6,18.3,39.6,42.5c0,23.9-17.2,42.5-39.6,42.5c-11.3,0-21.5-4.6-27.6-13.1v41.4h-19V481.7
		H1132.1z M1155.6,497.3c-13.7,0-24.3,11.3-24.3,25.2c0,13.9,10.6,25.2,24.3,25.2s24.3-11.3,24.3-25.2
		C1179.9,508.6,1169.5,497.3,1155.6,497.3z M243.2,420.9H243c-23.9,0-46.6,9.3-63.5,25.9c-8.6-3.7-18.1-5.7-27.8-5.7
		c-39.1,0-70.8,32-70.8,71c0,39.1,31.8,71,71,71c9.5,0,19-2,27.6-5.7c16.4,16.1,38.9,25.9,63.5,25.9c50.4,0,91.3-40.9,91.3-91.3
		C334.3,462,293.4,420.9,243.2,420.9z M243,583.3c-39.1,0-71-32-71-71h-20.3c0,17.9,5.1,34.7,14.1,48.8c-4.6,1.3-9.3,2-14.1,2
		c-27.9,0-50.8-22.8-50.8-50.8c0-27.9,22.8-50.8,50.8-50.8c11.1,0,21.5,3.5,30.5,10.2c13,9.7,20.3,24.5,20.3,40.5h20.3
		c0-21.2-9.1-40.9-25.4-54.4c12.8-10.6,28.8-16.6,45.6-16.6c39.1,0,71,32,71,71C314.1,551.3,282.3,583.3,243,583.3L243,583.3z"/>
</g>
</svg>
