<svg width="250" height="290" viewBox="0 0 250 290" fill="none" xmlns="http://www.w3.org/2000/svg">
<g clip-path="url(#clip0_2089_1177)">
<path d="M77.7212 229.336C78.3847 230.3 77.9249 230.898 77.2634 231.564C75.7593 230.706 74.3136 230.576 72.8384 232.949C76.0054 231.718 78.9902 232.275 81.672 230.284C81.644 228.951 81.5167 227.246 82.7882 225.899C82.8587 225.761 82.9008 225.611 82.912 225.456C82.9233 225.301 82.9034 225.146 82.8536 225C82.0474 221.896 83.0738 219.314 84.525 216.548C85.445 214.796 86.5803 212.976 86.9831 210.944C87.0713 210.329 87.3651 209.763 87.8165 209.337C88.268 208.912 88.8503 208.652 89.4682 208.601C91.3208 208.285 92.0067 207.078 91.837 205.352C91.7561 204.529 92.0212 203.635 92.6587 203.713C94.0215 203.882 94.377 200.712 96.4338 202.944C98.3447 205.019 98.6632 205.043 96.6524 207.218C95.8756 208.057 95.4808 208.995 96.1677 210.242C99.3047 208.896 101.418 206.422 103.63 204.135C106.218 201.46 108.469 198.26 111.247 196.002C116.278 191.915 121.778 187.829 129.102 189.533C130.454 189.847 131.663 190.543 132.946 191.032C136.194 192.274 139.049 194.431 142.526 195.121C143.245 195.263 143.919 195.58 144.102 196.313C144.628 198.14 145.607 199.804 146.948 201.15C148.741 203.111 146.993 204.59 146.273 206.103C145.22 208.317 143.566 210.224 142.691 212.45C143.417 213.535 144.098 213.044 144.825 212.773C147.705 211.697 148.622 212.313 148.726 215.28C148.755 216.114 148.907 216.943 149.002 217.761C148.366 218.316 147.584 218.677 146.75 218.801C146.834 219.683 146.732 220.581 148.066 220.709C148.765 220.776 148.978 221.391 149.238 221.99C149.697 223.053 150.352 223.968 151.602 224.282C151.949 224.357 152.267 224.529 152.521 224.777C152.775 225.025 152.953 225.34 153.035 225.686C153.975 230.161 157.583 230.548 161.093 230.833C163.561 230.976 165.95 231.75 168.033 233.082C171.164 235.125 171.6 235.84 170.149 239.17C169.254 241.081 167.884 242.73 166.171 243.961C164.299 245.407 162.495 247.062 160.619 248.577C159.565 249.427 158.638 250.39 157.318 250.945C155.306 251.792 155.928 253.984 155.821 255.427C155.575 258.676 153.968 260.883 151.591 262.651C149.618 264.12 148.154 266.085 146.414 267.754C142.876 271.147 138.326 272.485 134.278 274.807C133.899 275.025 133.341 274.899 133.062 275.364C130.466 279.693 125.355 280.703 121.736 283.769C119.816 285.396 116.158 285.269 113.266 285.356C110.581 285.438 108.317 286.575 106.02 287.498C99.5019 290.115 93.0795 290.896 86.5848 287.659C84.4506 286.596 81.7424 286.86 80.045 284.792C79.9806 284.748 79.9071 284.72 79.8301 284.709C79.753 284.698 79.6744 284.704 79.6003 284.728C76.1976 285.82 73.4459 284.334 70.5071 282.823C66.6222 280.824 62.2016 281.101 58.0606 281.565C51.5246 282.31 44.9071 281.356 38.8459 278.797C36.7167 277.928 34.3744 277.709 32.6202 275.951C31.9862 275.316 31.779 274.554 31.3881 273.832C29.9605 271.172 28.7356 268.407 27.7239 265.562C27.0699 263.755 25.3496 262.357 24.5209 260.582C23.9813 259.426 22.7457 259.611 22.1612 258.558C20.4903 255.548 18.124 252.901 17.4965 249.371C17.3273 248.417 16.3124 248.284 16.0268 247.142C15.2151 243.894 15.0334 240.545 14.8976 237.334C14.665 231.834 13.2906 226.556 12.6936 221.146C12.5523 219.869 12.8573 218.711 12.8932 217.498C13.019 212.995 11.7076 208.647 11.6173 204.176C11.5643 201.558 11.6043 198.938 12.6057 196.48C14.019 193.011 14.333 189.596 12.5218 186.179C12.2692 185.703 11.765 185.206 12.0026 184.697C12.9921 182.583 13.023 180.217 13.7674 178.089C14.2202 176.795 14.2167 176.104 12.8308 175.301C14.4658 174.626 14.8167 173.541 14.7348 172.111C14.4907 167.859 16.515 164.064 17.2928 160.01C17.7421 157.668 18.105 155.231 20.0884 153.608C22.8875 151.318 25.5229 148.625 29.595 148.848C29.8141 148.859 30.1301 148.871 30.2439 148.744C32.7245 145.964 35.9075 146.335 38.8219 147.332C41.7174 148.323 43.9084 146.85 46.2972 146.071C48.9375 145.21 51.2554 143.562 54.3086 143.766C55.8776 143.871 57.6094 142.758 59.1509 142.577C64.0362 142.004 68.2676 138.618 73.715 139.978C76.5046 140.678 79.7595 139.411 82.0519 136.765C84.1311 134.366 87.077 133.945 89.9095 135.221C90.9669 135.698 91.6483 135.482 92.6223 134.845C95.5252 132.95 97.8475 130.059 101.748 129.787C103.036 129.622 104.344 129.819 105.526 130.356C109.416 132.33 113.596 133.423 117.757 134.592C119.237 135.007 120.617 134.182 122.107 134.237C124.416 134.323 126.257 135.673 128.089 136.605C130.903 138.037 133.58 138.032 136.552 137.64C137.271 139.181 138.666 139.576 140.267 139.834C143.771 140.387 147.05 141.91 149.734 144.232C150.193 144.578 150.512 145.078 150.634 145.639C150.756 146.201 150.672 146.788 150.398 147.293C149.517 149.129 149.091 151.15 149.156 153.185C149.256 156.599 147.754 159.561 146.26 162.431C144.583 165.659 143.605 169.167 141.798 172.349C139.909 175.678 137.608 178.012 133.841 179.37C131.184 180.329 128.585 181.656 125.845 182.458C122.301 183.494 118.929 184.935 114.941 184.598C113.716 184.537 112.492 184.736 111.35 185.182C110.207 185.628 109.172 186.312 108.313 187.187C106.301 189.275 101.512 189.642 98.9273 188.032C99.3316 187.359 99.5708 186.599 99.6254 185.816C99.68 185.032 99.5484 184.247 99.2413 183.524C94.8547 184.665 90.2011 184.568 86.081 186.595C84.5754 187.336 82.8212 187.672 81.6051 189.029C80.8907 189.825 80.0031 188.95 79.2473 189.013C77.1551 190.995 75.2541 193.171 73.5697 195.51C72.477 197.038 70.6658 195.805 69.3404 195.682C65.3612 195.316 64.6368 195.449 63.9154 199.542C63.6279 201.176 63.2665 202.707 62.4033 204.029C60.7245 206.597 62.6315 209.14 61.954 212.352C63.1721 210.209 64.3373 211.323 64.6553 211.882C65.481 213.335 67.7165 214.268 66.8234 216.418C65.9198 217.037 65.6866 215.984 65.1759 215.988C62.7752 218.079 63.1761 220.425 64.3857 222.871C64.5915 223.198 64.6805 223.586 64.6383 223.971C63.2729 228.129 65.768 231.751 66.2652 235.645C66.3855 236.589 66.4564 237.933 67.8068 238.25C68.4703 238.405 68.944 237.962 69.3544 237.437C70.2954 236.234 69.2281 235.513 68.6295 234.869C69.2595 233.53 72.0886 233.533 70.2095 231.145C69.6359 230.416 71.8155 230.005 71.9378 228.729C72.0796 227.253 73.0221 226.43 74.4983 226.57C74.3485 223.198 74.2771 219.657 76.0019 217.117C77.6229 214.73 78.0157 211.757 80.111 209.707C81.049 208.789 81.7264 208.436 83.0563 209.339C84.4242 210.267 84.2414 210.999 83.6668 212.183C83.0503 213.452 83.0328 215.122 81.1533 215.395C80.7689 215.45 80.7305 215.749 80.8039 216.095C81.3635 218.643 79.7271 220.961 80.0111 223.475C80.1968 225.115 79.0491 225.974 78.1246 227.003C77.5804 227.61 76.3813 228.164 77.7197 229.337M74.5247 179.423C72.5663 180.804 70.5625 182.128 68.1258 182.444C66.4445 182.663 65.4835 183.694 64.5514 184.964C63.4382 186.482 63.1981 187.981 64.6732 189.232C66.071 190.414 67.6555 190.831 69.0479 188.994C69.4942 188.405 69.9325 187.625 70.848 187.694C72.9392 187.855 74.4623 186.433 76.1771 185.672C78.0612 184.836 78.174 182.548 78.1241 180.889C78.0771 179.386 76.3943 178.933 74.5257 179.422M65.6607 170.314C68.4273 168.501 70.1781 166.252 70.5395 162.68C70.8031 160.077 70.7771 158.538 67.5248 158.586C69.0933 161.531 66.3496 162.809 65.147 164.627C63.7632 166.719 63.6548 168.449 65.6602 170.314M130.9 214.549C129.838 215.026 130.895 216.602 129.868 216.872C127.604 217.466 126.669 219.348 125.516 221.088C128.412 219.576 131.457 218.274 133.113 214.68C132.913 213.885 132.468 213.046 130.9 214.549ZM70.5365 241.108C71.1356 240.327 70.9084 239.846 69.9759 239.723C69.3768 239.645 68.9061 239.923 68.9275 240.593C68.957 241.625 69.5605 241.641 70.5365 241.108Z" fill="#61DCAB"/>
<path d="M127.723 84.4041C129.041 88.1979 127.72 91.6009 126.967 95.1058C126.245 98.4618 123.982 100.72 122.006 103.222C121.82 103.458 121.457 103.567 121.307 103.814C119.419 106.94 118.232 107.337 114.835 106.174C113.076 105.571 111.299 105.327 109.581 104.263C108.088 103.339 107.39 102.635 107.5 100.997C107.483 100.629 107.422 100.264 107.317 99.9111C104.441 99.7162 103.209 97.7121 103.213 94.9209C103.218 91.1411 104.788 87.7576 105.464 84.1672C106.067 80.9726 110.313 78.7671 114.465 79.5692C116.121 79.8891 117.42 79.3888 118.802 78.991C118.855 78.8097 118.863 78.6187 118.828 78.4335C118.792 78.2482 118.714 78.0739 118.598 77.9248C118.483 77.7757 118.334 77.6559 118.164 77.5751C117.994 77.4944 117.807 77.455 117.618 77.4602C115.315 77.7201 114.499 76.1608 113.6 74.5615C113.02 73.5289 112.005 73.2486 110.869 73.0832C109.899 72.9412 108.863 72.6289 109.002 71.224C109.442 66.817 108.955 62.35 109.906 57.9714C110.229 56.4821 109.969 55.0257 111.315 53.6354C112.424 52.4859 111.648 50.3678 111.691 48.6821C111.767 45.7334 111.217 42.6848 113.438 40.1789C114.179 39.3428 114.127 38.2882 113.988 37.3012C113.217 31.8826 113.833 25.466 115.186 20.3353C115.919 17.5515 115.867 14.5704 116.409 11.7241C116.763 9.69829 117.518 7.7635 118.628 6.03279C119.738 4.30208 121.181 2.81016 122.874 1.64416C124.361 0.60862 126.524 0.644604 128.182 1.04942C130.037 1.49922 132.437 1.41726 133.489 3.70323C133.537 3.81022 133.606 3.90645 133.692 3.98615C133.777 4.06585 133.878 4.12737 133.989 4.16703C139.253 5.18357 138.816 9.98642 139.746 13.5128C140.608 16.7799 140.241 20.3458 139.214 23.7158C138.96 24.6828 138.809 25.6741 138.765 26.6729C138.494 29.966 136.542 32.8037 136.251 36.0792C136.173 36.9658 135.641 37.3107 134.984 37.7785C132.35 39.6516 131.819 41.2029 133.228 43.8283C134.897 46.9384 134.533 49.884 133.058 52.8402C131.71 55.539 132.066 58.5672 131.346 61.3954C131.105 62.34 131.582 63.2366 130.173 63.6214C129.421 63.8268 129.366 64.7554 129.463 65.604C129.865 69.1554 129.334 72.4374 126.622 75.0928C126.158 75.5455 126.005 76.3157 125.667 77.0279C124.788 77.3182 123.776 76.646 122.648 77.2068C123.428 78.5127 123.206 79.7107 121.517 80.5128C123.763 81.9842 126.399 81.9937 127.731 84.4026M123.94 12.6672C124.244 12.2329 124.702 11.4907 123.811 11.5677C123.569 11.5705 123.332 11.6308 123.119 11.7436C122.905 11.8565 122.722 12.0187 122.584 12.2167C122.445 12.4148 122.356 12.6429 122.324 12.8823C122.291 13.1217 122.316 13.3655 122.396 13.5933C123.152 13.7447 123.53 13.4264 123.94 12.6672Z" fill="#61DCAB"/>
<path d="M78.3936 33.1635C77.8545 36.3886 75.4113 39.1464 77.0627 42.5433C77.3123 43.0576 77.2065 43.7608 77.2125 44.377C77.2499 47.5156 77.2929 50.6857 77.0937 53.7863C76.865 57.3562 76.4567 60.9456 76.0453 64.509C75.8327 66.3557 76.1676 68.0374 76.3374 69.7566C76.8406 74.8489 74.8292 79.4478 73.7499 84.2222C73.3705 85.9004 73.5463 87.0914 75.1522 87.9005C75.6979 88.1754 76.2285 88.4892 76.258 89.2499C76.3753 92.2675 76.4387 95.2932 75.2556 98.1414C73.8503 101.524 72.7196 105.048 69.3933 107.304C68.9358 107.703 68.5926 108.217 68.399 108.793C68.2054 109.369 68.1683 109.987 68.2915 110.582C68.8252 112.985 68.649 113.176 66.0096 112.952C66.1938 111.293 65.8409 110.592 63.7132 110.607C62.2945 110.617 60.8118 108.832 59.454 107.732C58.5343 106.936 57.6806 106.067 56.9015 105.133C54.1877 102.078 53.5612 98.6357 54.3814 94.6015C54.8712 92.1911 54.8028 89.7192 57.0273 87.7995C54.8332 86.4282 54.4873 84.4645 54.5896 82.2116C54.6465 79.2257 54.3008 76.2458 53.5617 73.3525C53.1848 71.6793 53.4569 69.5737 53.8083 67.5936C54.2981 64.8348 55.1652 61.6962 53.2143 58.8255C51.3742 56.1162 53.2642 53.3575 53.681 50.6412C53.7534 50.1669 54.2237 49.6746 54.1258 49.1354C53.2966 44.5614 54.5841 40.2499 55.4882 35.8348C56.4557 31.1094 55.905 26.3081 54.9435 21.5862C54.5587 19.6956 54.017 17.9473 56.3873 16.6204C57.3812 16.0642 57.6603 14.247 58.2943 13.0186C58.5743 12.4753 58.9233 11.5222 59.2488 11.5192C61.7528 11.4942 63.1801 9.59659 65.1046 8.55506C68.0419 6.96577 72.9053 8.77696 75.0429 11.6971C75.6804 12.5688 76.8121 12.7397 77.3059 13.8987C79.1958 18.3198 79.7043 23.2103 78.7646 27.9264C78.4595 29.5796 78.5005 31.2974 78.3936 33.1635Z" fill="#61DCAB"/>
<path d="M180.857 34.308C184.334 33.5903 185.923 35.2076 185.193 38.7165C186.333 39.7386 188.145 38.9195 189.376 40.1659C190.027 40.8251 190.474 41.2799 190.469 42.1935C190.448 45.9093 190.913 49.7036 190.298 53.316C189.836 56.0298 189.1 58.935 187.36 61.3189C187.224 61.5053 186.947 61.7157 186.974 61.8747C187.465 64.7889 184.706 66.0088 183.648 68.1119C182.819 69.7611 180.876 70.4833 179.021 70.8911C177.353 71.257 176.619 71.6743 177.669 73.6854C179.622 77.4242 178.901 81.4534 178.184 85.4331C177.393 89.8166 175.235 93.8184 174.589 98.1994C174.14 101.243 172.093 103.579 171.504 106.558C171.228 107.568 171.056 108.603 170.992 109.648C171.029 112.98 171.008 116.008 168.101 118.678C165.59 120.985 164.952 124.818 162.703 127.574C160.761 129.955 158.493 132.019 156.565 134.418C155.575 135.65 153.641 136.529 151.917 135.801C150.249 135.097 149.82 133.16 149.513 131.587C149.307 130.122 148.538 128.795 147.369 127.889C146.121 126.85 144.937 124.931 144.914 123.382C144.843 118.657 144.739 113.92 147.535 109.53C148.571 107.902 148.383 105.293 149.15 103.199C149.992 100.897 150.994 98.9211 153.43 97.7961C155.404 96.8845 155.392 94.691 155.815 92.8093C156.955 87.7301 157.34 82.417 160.424 77.92C161.189 76.7481 161.669 75.4129 161.825 74.0217C162.188 71.3229 163.041 70.4863 165.831 70.1465C166.824 70.025 167.866 70.1055 168.561 68.8076C163.875 66.3347 164.556 62.1146 165.654 58.1328C167.136 52.7632 168.591 47.3327 171.193 42.3574C171.996 40.6642 172.966 39.0553 174.088 37.5546C175.819 35.41 178.24 34.8853 180.857 34.308Z" fill="#61DCAB"/>
<path d="M0.661963 72.262C0.27657 68.0079 -0.510196 63.8448 0.475253 59.9255C1.22158 56.9564 2.30238 53.8782 4.16445 51.2694C5.30265 49.6751 8.51111 49.6481 9.87346 51.3339C10.5851 52.1201 11.4253 52.7792 12.3581 53.283C13.4154 53.9582 14.0813 53.8523 14.6165 52.8287C15.3923 51.3459 16.51 52.0161 17.0032 52.7422C19.8073 56.8734 23.1086 60.6327 22.5795 66.3946C22.0743 71.9022 22.3323 77.4962 20.985 82.9132C20.5701 84.583 19.5467 86.1008 18.7036 87.896C21.9195 90.206 23.2464 93.6339 23.9638 97.4617C24.1949 98.6952 25.1499 99.7757 25.6322 100.983C28.2825 107.619 29.6369 114.511 28.8661 121.639C28.6424 123.712 27.4683 125.741 26.4728 127.654C25.6337 129.264 24.9198 130.593 27.1218 131.596C27.8661 131.935 28.0014 132.611 28.0029 133.345C28.0029 134.429 28.0189 135.513 28.0174 136.597C28.0124 140.427 27.7928 140.699 23.8 140.795C22.9903 140.814 22.7801 141.787 21.9689 141.569C21.3799 140.297 21.4802 139.187 21.9125 137.728C22.6858 135.119 21.3878 132.915 19.7659 130.624C17.7281 127.745 14.606 125.646 13.6455 121.904C13.2082 120.2 11.8848 118.489 10.0043 117.998C8.57301 117.625 8.21257 116.729 7.84715 115.623C6.40561 111.39 5.5567 106.977 5.32462 102.511C5.13242 98.1494 5.36456 93.8148 6.78882 89.6842C2.04428 84.9368 1.92897 78.5032 0.661963 72.262Z" fill="#61DCAB"/>
<path d="M202.591 216.038C203.225 216.048 203.689 216.08 204.057 216.602C204.759 215.772 204.752 214.953 204.606 214.004C204.157 211.037 205.232 208.709 207.442 206.657C209.385 204.852 211.014 202.709 212.761 200.695C213.039 200.433 213.219 200.084 213.273 199.705C213.092 197.125 215.419 196.847 216.883 196.162C217.968 195.653 218.845 195.024 219.171 194.128C219.827 192.325 220.968 190.771 220.946 188.578C220.92 186.129 223.678 185.936 225.375 185.454C230.544 183.986 235.923 184.609 241.222 184.36C245.101 184.178 247.738 186.448 249.244 189.791C250.846 193.346 249.802 197.604 246.98 200.404C245.761 201.613 244.791 203.048 243.498 204.223C241.425 206.11 238.78 206.922 236.301 207.645C231.763 208.968 228.673 212.323 224.899 214.699C221.275 216.981 218.23 220.346 213.624 220.796C212.633 220.893 211.509 221.189 210.656 220.854C208.577 220.099 206.395 219.665 204.185 219.567C202.787 219.462 202.065 218.435 201.577 217.231C201.239 216.392 201.663 216.091 202.591 216.038Z" fill="#61DCAB"/>
</g>
<defs>
<clipPath id="clip0_2089_1177">
<rect width="250" height="289" fill="white" transform="translate(0 0.786011)"/>
</clipPath>
</defs>
</svg>
