<svg width="32" height="33" viewBox="0 0 32 33" fill="none" xmlns="http://www.w3.org/2000/svg">
<g clip-path="url(#clip0_2090_1196)">
<g clip-path="url(#clip1_2090_1196)">
<path d="M31.205 31.192L31.085 31L28.905 27.5L22.746 17.6C22.6775 17.4584 22.5726 17.3374 22.442 17.2496C22.3115 17.1618 22.16 17.1101 22.003 17.1C21.8445 17.1199 21.6943 17.1816 21.5676 17.2788C21.4409 17.376 21.3423 17.5051 21.282 17.653C20.9573 18.253 20.6337 18.853 20.311 19.453L19.562 20.843C19.298 21.333 19.033 21.822 18.762 22.323L18.488 22.83C18.469 22.803 18.451 22.778 18.434 22.752L17.925 21.969C16.268 19.416 14.554 16.776 12.875 14.175C12.7996 14.0549 12.7578 13.9167 12.754 13.775C12.745 12.968 12.746 12.148 12.747 11.354C12.747 11.092 12.747 10.8303 12.747 10.569V10.4H24.056C24.2118 10.4153 24.3686 10.3825 24.5053 10.3062C24.642 10.2299 24.7521 10.1136 24.8209 9.9729C24.8896 9.83223 24.9138 9.6739 24.89 9.51913C24.8663 9.36437 24.7958 9.22057 24.688 9.10699C24.531 8.90699 24.374 8.70699 24.223 8.50699L22.06 5.698C22.091 5.654 22.12 5.61398 22.15 5.57498C22.9613 4.51965 23.773 3.46467 24.585 2.41C25.039 1.82 25.006 1.48398 24.449 1.02698L24.41 0.994995H11.793L11.764 1.009C11.5906 1.09253 11.4475 1.22783 11.3543 1.39621C11.2612 1.56459 11.2226 1.75776 11.244 1.94901C11.253 5.75801 11.252 9.708 11.244 13.69C11.2417 13.87 11.1906 14.0459 11.096 14.199C8.76 17.812 6.37797 21.482 4.07497 25.03L1.975 28.263C1.375 29.191 0.772657 30.1183 0.16799 31.045C0.0732065 31.1625 0.0155528 31.3056 0.00240146 31.456C-0.0107498 31.6064 0.0211869 31.7572 0.0941373 31.8894C0.167088 32.0216 0.277749 32.129 0.412008 32.1981C0.546268 32.2671 0.698044 32.2945 0.847983 32.277C0.872983 32.277 0.896988 32.277 0.921988 32.277H5.22198C13.448 32.277 21.953 32.277 30.322 32.283C30.5113 32.3023 30.702 32.2652 30.8702 32.1762C31.0384 32.0872 31.1765 31.9504 31.267 31.783L31.284 31.752V31.312L31.205 31.192ZM20.617 6.284L21.736 7.73898L22.59 8.85098L22.619 8.88998H12.77V2.513H22.616L22.573 2.57098L21.703 3.70398C21.3417 4.17398 20.9803 4.64432 20.619 5.11499C20.5378 5.18913 20.4729 5.27938 20.4284 5.37997C20.384 5.48057 20.361 5.58931 20.3609 5.69928C20.3608 5.80925 20.3836 5.91804 20.4279 6.01871C20.4722 6.11938 20.5359 6.20972 20.617 6.284ZM29.185 30.784H24.785C24.464 30.784 24.133 30.784 23.806 30.784C23.7568 30.7912 23.7065 30.7826 23.6625 30.7594C23.6184 30.7362 23.5829 30.6997 23.561 30.655C22.9477 29.705 22.333 28.7557 21.717 27.807C20.991 26.687 20.239 25.528 19.504 24.387C19.4701 24.3262 19.4585 24.2555 19.471 24.187C20.231 22.759 21.013 21.311 21.771 19.912L22.071 19.352L29.185 30.784ZM15.849 21.967C15.688 21.967 15.516 21.967 15.349 21.957C14.9478 21.9086 14.5408 21.9475 14.156 22.071C13.7909 22.2606 13.4713 22.5271 13.219 22.852C13.112 22.97 13.002 23.092 12.891 23.2C12.66 23.423 12.44 23.647 12.206 23.885L11.996 24.098L11.559 23.663C11.104 23.211 10.674 22.783 10.245 22.339C10.1381 22.2212 10.0071 22.1277 9.86104 22.0647C9.71494 22.0018 9.55703 21.9708 9.39797 21.974H9.363C8.972 21.983 8.57698 21.981 8.16298 21.98H7.85399L11.998 15.593L16.14 21.967C16.034 21.967 15.942 21.967 15.849 21.967ZM9.39098 23.616C9.86298 24.071 10.334 24.544 10.791 25.002L11.365 25.577C11.4369 25.6774 11.5315 25.7594 11.6412 25.8162C11.7509 25.873 11.8724 25.9031 11.9959 25.9038C12.1194 25.9046 12.2414 25.8761 12.3518 25.8207C12.4621 25.7653 12.5578 25.6845 12.631 25.585C12.8496 25.3677 13.0673 25.1497 13.284 24.931C13.714 24.5 14.159 24.053 14.604 23.624C14.6993 23.5373 14.8206 23.4846 14.949 23.474C15.536 23.457 16.178 23.456 16.969 23.474C17.0445 23.4789 17.1157 23.5113 17.169 23.565C18.652 25.836 20.151 28.151 21.6 30.389L21.85 30.776H2.139L2.17397 30.721L3.30199 28.983C4.43299 27.242 5.60198 25.441 6.74798 23.667C6.77853 23.5997 6.8294 23.5436 6.89342 23.5067C6.95745 23.4697 7.03141 23.4538 7.10497 23.461C7.42897 23.471 7.757 23.47 8.074 23.468C8.391 23.466 8.71998 23.468 9.04098 23.476C9.16961 23.4824 9.29258 23.5309 9.39098 23.614V23.616Z" fill="#00175D"/>
</g>
</g>
<defs>
<clipPath id="clip0_2090_1196">
<rect width="32.004" height="31.996" fill="white" transform="translate(0 0.789978)"/>
</clipPath>
<clipPath id="clip1_2090_1196">
<rect width="31.281" height="31.288" fill="white" transform="translate(0 1)"/>
</clipPath>
</defs>
</svg>
