<svg width="33" height="33" viewBox="0 0 33 33" fill="none" xmlns="http://www.w3.org/2000/svg">
<rect x="0.5" y="0.5" width="32" height="32" rx="16" stroke="#61DCAB"/>
<path fill-rule="evenodd" clip-rule="evenodd" d="M21.5307 11.4397C20.1959 10.1034 18.4208 9.36712 16.5297 9.36633C12.6328 9.36633 9.46132 12.5377 9.45975 16.4356C9.45923 17.6817 9.78474 18.898 10.4034 19.9702L9.40045 23.6337L13.1483 22.6505C14.181 23.2138 15.3436 23.5107 16.5268 23.511H16.5298C20.4262 23.511 23.598 20.3394 23.5995 16.4413C23.6003 14.5522 22.8656 12.776 21.5307 11.4397ZM16.5297 22.3171H16.5272C15.4729 22.3166 14.4388 22.0333 13.5364 21.498L13.322 21.3706L11.0979 21.954L11.6915 19.7856L11.5518 19.5633C10.9636 18.6277 10.6529 17.5464 10.6535 16.4361C10.6547 13.1962 13.2908 10.5604 16.532 10.5604C18.1016 10.5609 19.577 11.1729 20.6864 12.2836C21.7958 13.3943 22.4064 14.8707 22.4059 16.4409C22.4045 19.681 19.7686 22.3171 16.5297 22.3171ZM19.7529 17.9161C19.5763 17.8276 18.7077 17.4004 18.5458 17.3414C18.384 17.2824 18.2661 17.2531 18.1484 17.4298C18.0306 17.6066 17.6921 18.0046 17.589 18.1224C17.4859 18.2403 17.383 18.2551 17.2063 18.1666C17.0296 18.0782 16.4604 17.8916 15.7857 17.2898C15.2606 16.8214 14.9061 16.2429 14.8029 16.0662C14.7 15.8892 14.8021 15.8028 14.8804 15.7056C15.0717 15.4682 15.2632 15.2192 15.322 15.1014C15.381 14.9835 15.3515 14.8803 15.3072 14.7919C15.2632 14.7035 14.9099 13.834 14.7627 13.4802C14.6192 13.1359 14.4737 13.1824 14.3652 13.177C14.2623 13.1719 14.1444 13.1708 14.0266 13.1708C13.9089 13.1708 13.7175 13.215 13.5555 13.3919C13.3936 13.5688 12.9373 13.9961 12.9373 14.8656C12.9373 15.7351 13.5703 16.5751 13.6586 16.693C13.7469 16.8109 14.9043 18.5952 16.6763 19.3603C17.0978 19.5424 17.4268 19.651 17.6834 19.7324C18.1066 19.8669 18.4916 19.8479 18.796 19.8024C19.1355 19.7517 19.8411 19.3751 19.9884 18.9625C20.1356 18.5498 20.1356 18.1962 20.0914 18.1224C20.0473 18.0487 19.9295 18.0046 19.7529 17.9161Z" fill="white"/>
</svg>
