<svg width="41" height="41" viewBox="0 0 41 41" fill="none" xmlns="http://www.w3.org/2000/svg">
<path d="M32.8684 15.1666C32.7136 14.6833 32.4354 14.249 32.0613 13.9069C31.6872 13.5649 31.2304 13.327 30.7361 13.2169C28.8509 12.7563 21.3084 12.7563 21.3084 12.7563C21.3084 12.7563 13.7659 12.7563 11.8851 13.2169C11.3908 13.327 10.934 13.5649 10.5599 13.9069C10.1858 14.249 9.90755 14.6833 9.75281 15.1666C9.40552 16.9143 9.23675 18.6929 9.24911 20.4748C9.23675 22.2568 9.40552 24.0354 9.75281 25.783C9.9087 26.2626 10.1879 26.6925 10.5622 27.0294C10.9365 27.3663 11.3928 27.5984 11.8851 27.7022C13.7659 28.1628 21.3084 28.1628 21.3084 28.1628C21.3084 28.1628 28.8509 28.1628 30.7318 27.7022C31.224 27.5984 31.6803 27.3663 32.0546 27.0294C32.429 26.6925 32.7082 26.2626 32.864 25.783C33.2113 24.0354 33.3801 22.2568 33.3677 20.4748C33.3815 18.693 33.2142 16.9144 32.8684 15.1666ZM18.8421 23.733V17.2166L25.1458 20.4748L18.8421 23.733Z" fill="white"/>
<path d="M20.562 40.1276C31.3724 40.1276 40.136 31.34 40.136 20.5C40.136 9.65992 31.3724 0.872314 20.562 0.872314C9.75155 0.872314 0.987976 9.65992 0.987976 20.5C0.987976 31.34 9.75155 40.1276 20.562 40.1276Z" stroke="#61DCAB"/>
</svg>
