<svg id="Camada_1" data-name="Camada 1" xmlns="http://www.w3.org/2000/svg" width="103.11" height="76.999" viewBox="0 0 103.11 76.999">
  <path id="Caminho_216359" data-name="Caminho 216359" d="M56.693,32.942V67.627L23.81,34.751,41.156,17.39Z" transform="translate(-6.227 -4.548)" fill="#312b25" fill-rule="evenodd"/>
  <path id="Caminho_216360" data-name="Caminho 216360" d="M55.577,35.027,42.3,21.75,28.18,35.891l27.4,27.382Z" transform="translate(-7.37 -5.689)" fill="#f4d01c" fill-rule="evenodd"/>
  <path id="Caminho_216361" data-name="Caminho 216361" d="M16.113,43.48l.8.82L48.849,76.216H16.608L0,59.593Z" transform="translate(0 -11.372)" fill="#312b25" fill-rule="evenodd"/>
  <path id="Caminho_216362" data-name="Caminho 216362" d="M44.5,75.084,17.248,47.85,4.34,60.736,18.688,75.084Z" transform="translate(-1.135 -12.515)" fill="#f4d01c" fill-rule="evenodd"/>
  <path id="Caminho_216363" data-name="Caminho 216363" d="M71.27,32.942V67.627l32.9-32.876L86.807,17.39Z" transform="translate(-18.64 -4.548)" fill="#312b25" fill-rule="evenodd"/>
  <path id="Caminho_216364" data-name="Caminho 216364" d="M74.35,35.027,87.613,21.75l14.134,14.141L74.35,63.273Z" transform="translate(-19.446 -5.689)" fill="#f4d01c" fill-rule="evenodd"/>
  <path id="Caminho_216365" data-name="Caminho 216365" d="M73.46,76.216h32.256l16.608-16.623L107.015,44.3l-.8-.82-.812.82Z" transform="translate(-19.213 -11.372)" fill="#312b25" fill-rule="evenodd"/>
  <path id="Caminho_216366" data-name="Caminho 216366" d="M80.91,75.084,108.159,47.85l12.908,12.886L106.719,75.084Z" transform="translate(-21.162 -12.515)" fill="#f4d01c" fill-rule="evenodd"/>
  <path id="Caminho_216367" data-name="Caminho 216367" d="M44.831,0,43.184,5.1H37.86l4.313,3.146-1.654,5.081,4.313-3.161,4.313,3.161L47.482,8.241,51.809,5.1H46.47Z" transform="translate(-9.902)" fill="#312b25" fill-rule="evenodd"/>
  <path id="Caminho_216368" data-name="Caminho 216368" d="M45.54,2.82,46.7,6.446h3.81L47.43,8.676,48.6,12.294,45.54,10.049l-3.072,2.245,1.182-3.618L40.57,6.446h3.8Z" transform="translate(-10.611 -0.738)" fill="#f4d01c" fill-rule="evenodd"/>
  <path id="Caminho_216369" data-name="Caminho 216369" d="M89.858,0,91.49,5.1h5.339L92.517,8.241l1.654,5.081-4.313-3.161-4.313,3.161,1.647-5.081L82.88,5.1h5.339Z" transform="translate(-21.677)" fill="#312b25" fill-rule="evenodd"/>
  <path id="Caminho_216370" data-name="Caminho 216370" d="M90.57,2.82,89.4,6.446H85.6l3.079,2.23L87.49,12.294l3.079-2.245,3.079,2.245L92.46,8.676l3.079-2.23h-3.8Z" transform="translate(-22.388 -0.738)" fill="#f4d01c" fill-rule="evenodd"/>
  <path id="Caminho_216371" data-name="Caminho 216371" d="M7.676,97.9a1.4,1.4,0,0,1-1.122.436,1.5,1.5,0,0,1-1.2-.546,3.4,3.4,0,0,1-.414-1.972A3.154,3.154,0,0,1,5.291,94.1a1.52,1.52,0,0,1,1.366-.738,1.723,1.723,0,0,1,.709.162,1.563,1.563,0,0,1,.532.48,1.933,1.933,0,0,1,.258.576l2.311-.532A3.965,3.965,0,0,0,9.1,92.011a4.217,4.217,0,0,0-2.5-.657,4.206,4.206,0,0,0-3.161,1.152A4.6,4.6,0,0,0,2.33,95.822a5.005,5.005,0,0,0,.628,2.644,3.716,3.716,0,0,0,1.506,1.44,5.06,5.06,0,0,0,2.245.414,4.484,4.484,0,0,0,1.876-.34,3.126,3.126,0,0,0,1.218-1,4.48,4.48,0,0,0,.738-1.654L8.252,96.6a2.608,2.608,0,0,1-.561,1.263m36.7-6.853h.93l1.986-1.794H45.271Zm55.288,9.172h2.407V97.764H99.68ZM95.124,97.9A1.425,1.425,0,0,1,94,98.333a1.5,1.5,0,0,1-1.2-.546,3.256,3.256,0,0,1-.436-1.972,3.139,3.139,0,0,1,.369-1.713,1.493,1.493,0,0,1,1.344-.738,1.792,1.792,0,0,1,.724.162,1.563,1.563,0,0,1,.532.48,2.4,2.4,0,0,1,.258.576l2.289-.532a3.894,3.894,0,0,0-1.344-2.038,4.235,4.235,0,0,0-2.518-.657,4.154,4.154,0,0,0-3.138,1.152,4.605,4.605,0,0,0-1.122,3.316,5,5,0,0,0,.642,2.644,3.585,3.585,0,0,0,1.506,1.44,5.06,5.06,0,0,0,2.245.414,4.366,4.366,0,0,0,1.861-.34,3.17,3.17,0,0,0,1.233-1,4.239,4.239,0,0,0,.724-1.654L95.693,96.6a2.608,2.608,0,0,1-.561,1.263Zm-9.474,2.289h2.407V97.764H85.65Zm-8.817,0h7.119V98.214h-4.5V96.5H83.5V94.736H79.447V93.355h4.379V91.494H76.84v8.692Zm-8.271,0H71.3l-3.175-8.692h-2.85l-3.161,8.692h2.658l.4-1.44h2.983l.4,1.44ZM65.756,96.87l.916-3.124.945,3.124ZM51.43,100.186h2.134V93.562l1.654,6.624h1.927L58.8,93.562v6.624h2.134V91.494H57.5l-1.314,5.287-1.314-5.287H51.437v8.692ZM46.748,96.8a1.5,1.5,0,0,1-.384,1.108,1.37,1.37,0,0,1-1.056.4,1.443,1.443,0,0,1-1.056-.4,1.544,1.544,0,0,1-.384-1.108V91.494h-2.6v5.177a5.159,5.159,0,0,0,.244,1.462,2.663,2.663,0,0,0,.561,1.012,3.085,3.085,0,0,0,.9.753,3.45,3.45,0,0,0,1.218.354c.48.044.93.081,1.329.081a5.125,5.125,0,0,0,1.831-.288,2.805,2.805,0,0,0,1.041-.724,2.956,2.956,0,0,0,.724-1.189,4.36,4.36,0,0,0,.222-1.462V91.494H46.755V96.8Zm-10.361,3.382H39V91.494H36.387v8.692Zm-4.6-2.289a1.458,1.458,0,0,1-1.137.436,1.5,1.5,0,0,1-1.2-.546,3.4,3.4,0,0,1-.414-1.972,3.154,3.154,0,0,1,.354-1.713,1.52,1.52,0,0,1,1.366-.738,1.662,1.662,0,0,1,.7.162,1.563,1.563,0,0,1,.532.48,1.933,1.933,0,0,1,.258.576l2.311-.532a3.965,3.965,0,0,0-1.366-2.038,4.217,4.217,0,0,0-2.5-.657,4.206,4.206,0,0,0-3.161,1.152,4.6,4.6,0,0,0-1.108,3.316,5.005,5.005,0,0,0,.628,2.644,3.716,3.716,0,0,0,1.506,1.44,5.06,5.06,0,0,0,2.245.414,4.484,4.484,0,0,0,1.876-.34,3.28,3.28,0,0,0,1.233-1,4.86,4.86,0,0,0,.724-1.654L32.341,96.6a2.75,2.75,0,0,1-.546,1.263Zm-9.94,2.289h2.614V91.494H21.847v8.692Zm-7,0v-3.53h.222a1.135,1.135,0,0,1,.642.192,2.58,2.58,0,0,1,.465.672l1.4,2.658h2.946l-1.27-2.518a3.7,3.7,0,0,0-.369-.546,1.982,1.982,0,0,0-.414-.45,2.286,2.286,0,0,0-.672-.318,3.076,3.076,0,0,0,.916-.354,2.157,2.157,0,0,0,.82-.849,2.387,2.387,0,0,0,.3-1.248,2.44,2.44,0,0,0-.384-1.4,1.916,1.916,0,0,0-1.041-.783,5.867,5.867,0,0,0-1.846-.222H12.218v8.692h2.629Zm0-6.941h1.137a1.437,1.437,0,0,1,.975.244.821.821,0,0,1,.258.642.862.862,0,0,1-.162.495.676.676,0,0,1-.436.273,3.452,3.452,0,0,1-.687.111H14.839V93.245Z" transform="translate(-0.609 -23.335)" fill="#312b25" fill-rule="evenodd"/>
  <path id="Caminho_216372" data-name="Caminho 216372" d="M67.348,0,68.98,5.1h5.339L70.007,8.241l1.647,5.081-4.305-3.161-4.313,3.161,1.647-5.081L60.37,5.1h5.339Z" transform="translate(-15.79)" fill="#312b25" fill-rule="evenodd"/>
  <path id="Caminho_216373" data-name="Caminho 216373" d="M68.06,2.82,66.886,6.446h-3.8l3.072,2.23L64.98,12.294l3.079-2.245,3.072,2.245L69.95,8.676l3.079-2.23h-3.8Z" transform="translate(-16.501 -0.738)" fill="#f4d01c" fill-rule="evenodd"/>
</svg>
