<svg id="Camada_1" data-name="Camada 1" xmlns="http://www.w3.org/2000/svg" width="74.4" height="91.182" viewBox="0 0 74.4 91.182">
  <g id="Grupo_2893" data-name="Grupo 2893">
    <path id="Caminho_216441" data-name="Caminho 216441" d="M73.749,17.87H0V41.458C0,51.289,3.529,61.7,10.156,71.6A90.009,90.009,0,0,0,36.875,97.019l.325.179.292-.179A89.616,89.616,0,0,0,64.211,71.6C70.871,61.7,74.4,51.289,74.4,41.458V17.87Z" transform="translate(0 -6.016)" fill="#fff" fill-rule="evenodd"/>
    <path id="Caminho_216442" data-name="Caminho 216442" d="M37.762,96.69l-.358-.272c-.391-.212-.776-.458-1.141-.7l-.033-.027c-.046-.033-.1-.066-.146-.1h-.007c-2.415-1.612-4.325-2.978-6.016-4.292-1.181-.876-2.388-1.857-3.682-2.992a74.2,74.2,0,0,1-6.885-6.56c-1.174-1.24-2.361-2.574-3.615-4.08h0l-.232-.285c-1.619-2.017-2.965-3.847-4.119-5.592C5.073,62.216,1.67,52.12,1.67,42.595V19.65H73.854V42.6c0,9.525-3.4,19.621-9.851,29.2-.146.212-.285.418-.431.63s-.279.4-.411.6h0l-.239.352v-.02a83.778,83.778,0,0,1-5.6,6.985h0l-.239.265h0c-1.791,1.95-3.635,3.814-5.492,5.539h0l-.239.219h0c-.968.876-2.216,1.983-3.555,3.065a96.405,96.405,0,0,1-9.7,6.992l-.352.265Z" transform="translate(-0.562 -6.615)" fill="#005b94"/>
    <path id="Caminho_216443" data-name="Caminho 216443" d="M42.748,96.865c1.114.862,2.176,1.645,3.23,2.388V41.43H38.94V93.681l.179.159c1.061.929,2.216,1.891,3.628,3.018" transform="translate(-13.11 -13.948)" fill="#fff"/>
    <path id="Caminho_216444" data-name="Caminho 216444" d="M62.607,41.43V99.253c1.745-1.227,3.569-2.64,5.565-4.332.259-.219.517-.431.769-.643.232-.192.464-.385.7-.584V41.43H62.6Z" transform="translate(-21.075 -13.948)" fill="#fff"/>
    <path id="Caminho_216445" data-name="Caminho 216445" d="M20.431,82.623c.65.823,1.267,1.565,1.877,2.275V41.43H15.27V75.1c.517.862,1.214,2,2,3.138,1,1.559,2.109,3.031,3.164,4.385" transform="translate(-5.141 -13.948)" fill="#fff"/>
    <path id="Caminho_216446" data-name="Caminho 216446" d="M86.28,41.43V84.9a72.4,72.4,0,0,0,5.041-6.66l.113-.146c.67-.988,1.28-2,1.871-2.965l.013-.027V41.43H86.28Z" transform="translate(-29.048 -13.948)" fill="#fff"/>
    <rect id="Retângulo_1473" data-name="Retângulo 1473" width="69.557" height="11.489" transform="translate(2.262 14.169)" fill="#fff"/>
    <path id="Caminho_216447" data-name="Caminho 216447" d="M94.076,34.33h-.8v1.579h1.592V34.33Z" transform="translate(-31.404 -11.558)" fill="#005b94"/>
    <path id="Caminho_216448" data-name="Caminho 216448" d="M85.085,30.736a1.556,1.556,0,0,1-1.128.431.345.345,0,0,1-.179-.033,1.71,1.71,0,0,1-1.307-.65,3.313,3.313,0,0,1-.577-2.235,3.163,3.163,0,0,1,.577-2.162,1.836,1.836,0,0,1,1.307-.65h.179a1.783,1.783,0,0,1,1.161.358,1.833,1.833,0,0,1,.617,1.041l1.672-.4a3.043,3.043,0,0,0-.869-1.546,3.51,3.51,0,0,0-2.468-.9.879.879,0,0,0-.292.033,3.608,3.608,0,0,0-2.541,1.114,4.474,4.474,0,0,0-1.088,3.2,4.207,4.207,0,0,0,1.088,3.1,3.441,3.441,0,0,0,2.541,1.114h.179a3.6,3.6,0,0,0,2.216-.65,3.677,3.677,0,0,0,1.267-2.017l-1.632-.5a2.516,2.516,0,0,1-.723,1.333" transform="translate(-26.984 -8.077)" fill="#005b94"/>
    <path id="Caminho_216449" data-name="Caminho 216449" d="M75.73,34.33v1.579h1.592V34.33H75.73Z" transform="translate(-25.496 -11.558)" fill="#005b94"/>
    <path id="Caminho_216450" data-name="Caminho 216450" d="M66.93,24.23v8.278h1.7V29.019h3.476V27.613H68.635V25.636h4.02V24.23H66.93Z" transform="translate(-22.533 -8.157)" fill="#005b94"/>
    <path id="Caminho_216451" data-name="Caminho 216451" d="M52.719,21.36,51.89,22.8H52.9l.146-.146,1.187-1.294H52.719Z" transform="translate(-17.47 -7.191)" fill="#005b94"/>
    <path id="Caminho_216452" data-name="Caminho 216452" d="M52.22,24.23v8.278h1.672V24.23H52.22Z" transform="translate(-17.581 -8.157)" fill="#005b94"/>
    <path id="Caminho_216453" data-name="Caminho 216453" d="M42.413,24.23h-.869l-2.826,7.2-.438,1.075H40.1l.683-1.871h3.337l.723,1.871h1.818L43.321,24.23Z" transform="translate(-12.888 -8.157)" fill="#005b94"/>
    <path id="Caminho_216454" data-name="Caminho 216454" d="M43.941,30.225H42.82l1.121-3.065v.04L45.1,30.225Z" transform="translate(-14.416 -9.144)" fill="#fff"/>
    <path id="Caminho_216455" data-name="Caminho 216455" d="M35.654,24.23H33.883l-2.07,6.156-2.1-6.156H27.9l.4,1.154,2.574,7.124h1.811l2.541-7.091Z" transform="translate(-9.393 -8.157)" fill="#005b94"/>
    <path id="Caminho_216456" data-name="Caminho 216456" d="M21.511,24.23H19.734L16.47,32.508h1.811l.69-1.871h3.337l.723,1.871h1.818l-.4-1.008Z" transform="translate(-5.545 -8.157)" fill="#005b94"/>
    <path id="Caminho_216457" data-name="Caminho 216457" d="M22.131,30.225H21.01l1.121-3.065v.04l1.161,3.025Z" transform="translate(-7.073 -9.144)" fill="#fff"/>
    <path id="Caminho_216458" data-name="Caminho 216458" d="M53.289,0,54.43,3.582l3.761-.02-3.051,2.2L56.32,9.333,53.289,7.1,50.257,9.333l1.174-3.569-3.051-2.2,3.761.02Z" transform="translate(-16.288)" fill="#fd0"/>
  </g>
</svg>
