<svg xmlns="http://www.w3.org/2000/svg" width="125" height="60" viewBox="0 0 125 60">
  <g id="Grupo_2913" data-name="Grupo 2913" transform="translate(20 -1480)">
    <rect id="Retângulo_1442" data-name="Retângulo 1442" width="125" height="60" rx="10" transform="translate(-20 1480)" fill="#fff"/>
    <g id="Spieler-PB" transform="translate(-62.983 1425.396)">
      <g id="Grupo_2911" data-name="Grupo 2911" transform="translate(86.584 76.451)">
        <path id="Caminho_216506" data-name="Caminho 216506" d="M195.827,100.935V98.488h4.632c1.021,0,1.409-.5,1.409-1s-.324-.982-1.409-.982h-.94c-2.3,0-3.84-1.267-3.84-3.117s1.539-3.132,3.871-3.132H204.9v2.448h-4.52c-.68,0-1.037.313-1.037.754,0,.4.357.712,1.037.712h.859c2.722,0,4.213,1.48,4.213,3.358s-1.506,3.4-4.228,3.4h-5.394Z" transform="translate(-195.68 -90.26)" fill="#231f20"/>
        <path id="Caminho_216507" data-name="Caminho 216507" d="M257.99,97.993v2.961h-3.45V90.28h5.346c2.9,0,4.682,1.5,4.682,3.844s-1.782,3.871-4.666,3.871H257.99Zm0-5.309v2.9h1.425c1.216,0,1.734-.684,1.734-1.466s-.5-1.438-1.718-1.438Z" transform="translate(-243.716 -90.276)" fill="#231f20"/>
        <path id="Caminho_216508" data-name="Caminho 216508" d="M315.15,100.944V90.27h3.45v10.674Z" transform="translate(-293.179 -90.268)" fill="#231f20"/>
        <path id="Caminho_216509" data-name="Caminho 216509" d="M350.739,100.944H342.8V90.27h7.825V92.7H346.25v1.666h4.18v2.106h-4.18v2.036h4.487v2.433Z" transform="translate(-315.745 -90.268)" fill="#231f20"/>
        <path id="Caminho_216510" data-name="Caminho 216510" d="M399.071,100.944H393.19V90.27h3.45v8.241h2.429v2.433Z" transform="translate(-356.868 -90.268)" fill="#231f20"/>
        <path id="Caminho_216511" data-name="Caminho 216511" d="M439.979,100.944H432.04V90.27h7.825V92.7H435.49v1.666h4.18v2.106h-4.18v2.036h4.487v2.433Z" transform="translate(-388.573 -90.268)" fill="#231f20"/>
        <path id="Caminho_216512" data-name="Caminho 216512" d="M487.558,97.5H485.89v3.444h-3.45V90.27h5.817c2.836,0,4.423,1.508,4.423,3.7a3.205,3.205,0,0,1-1.846,3l1.846,3.97h-3.614L487.56,97.5Zm-1.668-4.824v2.76h1.6c1.182,0,1.62-.655,1.62-1.394s-.438-1.366-1.6-1.366Z" transform="translate(-429.705 -90.268)" fill="#231f20"/>
      </g>
      <g id="Grupo_2912" data-name="Grupo 2912" transform="translate(106.938 90.473)">
        <path id="Caminho_216513" data-name="Caminho 216513" d="M306.375,176.163v-.531h1.541c.614,0,.857-.325.857-.714,0-.327-.2-.631-.842-.631H307.5a1.007,1.007,0,1,1,0-2h1.67v.531H307.52c-.4,0-.577.2-.577.471s.189.463.577.463h.441c.964,0,1.4.539,1.4,1.17a1.227,1.227,0,0,1-1.4,1.238Z" transform="translate(-306.36 -171.227)" fill="#ff0930"/>
        <path id="Caminho_216514" data-name="Caminho 216514" d="M328.722,174.936v2.111h-.592v-5.39h.592v.614a1.691,1.691,0,0,1,1.374-.721,2.049,2.049,0,0,1,0,4.094,1.7,1.7,0,0,1-1.374-.706Zm0-1.966v1.276a1.579,1.579,0,0,0,1.374.835,1.384,1.384,0,0,0,1.344-1.473,1.4,1.4,0,0,0-1.344-1.5,1.587,1.587,0,0,0-1.374.859Z" transform="translate(-324.127 -170.623)" fill="#ff0930"/>
        <path id="Caminho_216515" data-name="Caminho 216515" d="M355.156,175.812a2.047,2.047,0,1,1,2.126-2.058A2.076,2.076,0,0,1,355.156,175.812Zm0-.561a1.471,1.471,0,0,0,1.519-1.5,1.52,1.52,0,0,0-3.038,0A1.48,1.48,0,0,0,355.156,175.251Z" transform="translate(-344.447 -170.762)" fill="#ff0930"/>
        <path id="Caminho_216516" data-name="Caminho 216516" d="M381.612,173.125v2.733h-.592v-3.871h.592v.432a1.912,1.912,0,0,1,1.344-.539v.638A1.642,1.642,0,0,0,381.612,173.125Z" transform="translate(-367.29 -170.892)" fill="#ff0930"/>
        <path id="Caminho_216517" data-name="Caminho 216517" d="M411.155,176.333V175.8H412.7c.614,0,.857-.326.857-.714,0-.327-.2-.631-.842-.631h-.432a1.007,1.007,0,1,1,0-2h1.67v.531H412.3c-.4,0-.577.2-.577.471s.189.463.577.463h.441c.964,0,1.4.539,1.4,1.17a1.227,1.227,0,0,1-1.405,1.238Z" transform="translate(-391.871 -171.366)" fill="#ff0930"/>
        <path id="Caminho_216518" data-name="Caminho 216518" d="M398.326,168.136V167.6h-.82V166.51h-.592l0,4.018a.953.953,0,0,0,.953.953l.493.007v-.531l-.324-.007a.528.528,0,0,1-.528-.528v-2.29h.82Z" transform="translate(-380.258 -166.51)" fill="#ff0930"/>
      </g>
      <path id="Caminho_216519" data-name="Caminho 216519" d="M75.919,78.213c-3.511.916-6.769,3.159-10.554,3.012l-.037-1.905c5.324.246,10.8-5.245,16.172-2.163v-.114s0-1.252-.013-1.949a.8.8,0,0,0-.326-.715c-1.631-1.245-5.414-1.387-7.613-.342-3.992,1.7-7.619,3.8-11.549,1.552,0,0,0,0,0,0,0,.988.02,5.778.02,8.02,4.5,3.194,11.792-4.265,16.626-2.508l-.068,1.782c-5.407-1.146-11.056,5.265-16.562,2.777l-.007,2.8s1.111.879,4.329.763c3.465-.125,6.08-2.21,9.258-3.078a6.541,6.541,0,0,1,5.719.9l.162-7.786h0l-.1-.074a6.783,6.783,0,0,0-5.451-.977Z" transform="translate(0)" fill="#ff0a31"/>
    </g>
  </g>
</svg>
