<svg xmlns="http://www.w3.org/2000/svg" xmlns:xlink="http://www.w3.org/1999/xlink" width="125" height="60" viewBox="0 0 125 60">
  <defs>
    <clipPath id="clip-path">
      <rect id="Ret창ngulo_1484" data-name="Ret창ngulo 1484" width="81.004" height="28.477" fill="none"/>
    </clipPath>
  </defs>
  <g id="Grupo_2910" data-name="Grupo 2910" transform="translate(20 -1480)">
    <rect id="Ret창ngulo_1442" data-name="Ret창ngulo 1442" width="125" height="60" rx="10" transform="translate(-20 1480)" fill="#fff"/>
    <g id="Grupo_2909" data-name="Grupo 2909" transform="translate(2.036 1496.067)">
      <g id="Grupo_2908" data-name="Grupo 2908" clip-path="url(#clip-path)">
        <path id="Caminho_216502" data-name="Caminho 216502" d="M214.043,35.777h-5.258l.949-4.694H226.3l-.949,4.694H220.1l-2.642,13.261H211.4Zm-17.108-4.694h6.053l-2.642,13.261h8.105l-.949,4.694H193.344ZM182.212,44.549a4.255,4.255,0,0,0,2.5-.744,4.764,4.764,0,0,0,1.629-2,6.626,6.626,0,0,0,.564-2.744,3.253,3.253,0,0,0-3.514-3.488,4.255,4.255,0,0,0-2.5.744,4.763,4.763,0,0,0-1.629,2,6.623,6.623,0,0,0-.564,2.744,3.253,3.253,0,0,0,3.514,3.488m-.513,4.9a10.791,10.791,0,0,1-4.809-1.013,7.5,7.5,0,0,1-3.18-2.834,7.841,7.841,0,0,1-1.116-4.181,10.746,10.746,0,0,1,1.449-5.579,10,10,0,0,1,4.027-3.809,12.318,12.318,0,0,1,5.835-1.359,10.793,10.793,0,0,1,4.809,1.013,7.5,7.5,0,0,1,3.18,2.834,7.841,7.841,0,0,1,1.116,4.181,10.749,10.749,0,0,1-1.449,5.579,10,10,0,0,1-4.027,3.809,12.316,12.316,0,0,1-5.835,1.359" transform="translate(-145.299 -25.822)"/>
        <path id="Caminho_216503" data-name="Caminho 216503" d="M214.46,99.234h5.129l1.673-8.4c-1.663.306-3.433.586-5.3.839Zm-16.832-6.126L196.4,99.234h13.235l.766-3.787h-8.1l.509-2.555q-2.536.139-5.181.216m-13.423,6.536a11.9,11.9,0,0,0,5.624-1.307,9.607,9.607,0,0,0,4.576-5.159q-1.547.022-3.12.023-1.16,0-2.3-.012a5.117,5.117,0,0,1-1.5,1.637,4.715,4.715,0,0,1-2.76.826,3.921,3.921,0,0,1-2.9-1.084,3.572,3.572,0,0,1-.914-1.617q-2.734-.134-5.335-.335a7.236,7.236,0,0,0,1.033,3.4,7.063,7.063,0,0,0,2.994,2.664,10.4,10.4,0,0,0,4.61.967" transform="translate(-147.803 -76.472)" fill="#1a1a1a" fill-rule="evenodd"/>
        <path id="Caminho_216504" data-name="Caminho 216504" d="M11.3,14.743C8.441,8.581,5.031,7.656,4.145,0-9.776,12.177,16.224,11.2,11.539,26.682l6.427-11.939Z" transform="translate(0)" fill="#f60" fill-rule="evenodd"/>
        <path id="Caminho_216505" data-name="Caminho 216505" d="M83.772,13.267H73.938L81.124,0h6.882L82.588,10.072l6.225,0-15.038,18.4Z" transform="translate(-62.108 0)" fill="#f60" fill-rule="evenodd"/>
      </g>
    </g>
  </g>
</svg>
