<svg xmlns="http://www.w3.org/2000/svg" width="40" height="40" viewBox="0 0 40 40">
  <g id="Grupo_1851" data-name="Grupo 1851" transform="translate(9022 -2730)">
    <g id="Elipse_68" data-name="Elipse 68" transform="translate(-9022 2730)" fill="none" stroke="#fff" stroke-width="2">
      <circle cx="20" cy="20" r="20" stroke="none"/>
      <circle cx="20" cy="20" r="19" fill="none"/>
    </g>
    <path id="Icon_awesome-angle-double-up" data-name="Icon awesome-angle-double-up" d="M7.561,12.487l5.81,5.81a1.021,1.021,0,0,1,0,1.448l-.966.966a1.021,1.021,0,0,1-1.448,0L6.834,16.6,2.716,20.716a1.021,1.021,0,0,1-1.448,0L.3,19.75A1.021,1.021,0,0,1,.3,18.3l5.81-5.81A1.022,1.022,0,0,1,7.561,12.487Zm-1.453-8.2L.3,10.095a1.021,1.021,0,0,0,0,1.448l.966.966a1.021,1.021,0,0,0,1.448,0L6.83,8.39l4.118,4.118a1.021,1.021,0,0,0,1.448,0l.966-.966a1.021,1.021,0,0,0,0-1.448l-5.81-5.81A1.016,1.016,0,0,0,6.108,4.284Z" transform="translate(-8995.166 2762.5) rotate(180)" fill="none" stroke="#fff" stroke-width="2"/>
  </g>
</svg>
