<svg xmlns="http://www.w3.org/2000/svg" width="73.356" height="57" viewBox="0 0 73.356 57">
  <g id="Grupo_1853" data-name="Grupo 1853" transform="translate(0 0)">
    <path id="Caminho_1152" data-name="Caminho 1152" d="M31.7,1.853l.006,8.392a.27.27,0,0,0,.306.306l10.183.006a.35.35,0,0,0,.345-.289,12.667,12.667,0,0,1,2.788-6.1.558.558,0,0,1,.8-.134l.473.278q.4.24.083.579c-1.909,2.037-2.337,4.09-2.96,6.8a.364.364,0,0,1-.39.312l-12.9-.011a.175.175,0,0,1-.178-.173V.368a.256.256,0,0,1,.256-.256c4.83-.022,11.135-.484,15.147.646C52.1,2.577,56.271,8.971,56.6,15.409c.362,6.984.323,13.762-5.136,19.059a.838.838,0,0,1-.952.195l-.534-.206q-.551-.211-.106-.6c5.754-5.019,5.765-11.686,5.136-18.992A13.917,13.917,0,0,0,50.094,4.858C44.841.523,38.319,1.475,32.014,1.536a.28.28,0,0,0-.317.317" transform="translate(-13.417 0)" fill="#fff"/>
    <path id="Caminho_1153" data-name="Caminho 1153" d="M83.643,11.925C82.057,4.212,75.451.011,67.894,2.025a1.544,1.544,0,0,1-1.28-.195L66.2,1.574q-.662-.412.089-.629c8.97-2.576,17.017,1.48,18.8,10.957q.028.144-.117.15l-1.135.033a.2.2,0,0,1-.2-.161" transform="translate(-29.225 -0.082)" fill="#fff"/>
    <path id="Caminho_1154" data-name="Caminho 1154" d="M31.7,49.337l.006,8.453a.251.251,0,0,0,.284.284c5.214.05,9.36.428,12.927-.518a.778.778,0,0,1,.757.184l.6.54q.317.278-.083.406a15.533,15.533,0,0,1-4.847.846q-5.47.017-10.885,0a.211.211,0,0,1-.211-.211V47.89a.253.253,0,0,1,.284-.289l12.888.006a.3.3,0,0,1,.295.256c1.13,7.306,5.687,10.8,13.1,10.239,5.837-.434,9.827-4.6,11-10.334a.2.2,0,0,1,.206-.167l1.146.022c.085,0,.121.048.106.134-1.163,6.75-6.283,11.808-13.3,11.864Q44.918,59.7,42.431,49.254a.254.254,0,0,0-.273-.217l-10.15-.006a.27.27,0,0,0-.306.306" transform="translate(-13.417 -21.112)" fill="#fff"/>
    <path id="Caminho_1155" data-name="Caminho 1155" d="M47.65,94.714c-2.105,0-3.816-2.161-3.82-4.835s1.7-4.844,3.8-4.848,3.816,2.161,3.82,4.835S49.755,94.71,47.65,94.714Zm-.008-1.052c1.429,0,2.588-1.7,2.588-3.79s-1.159-3.79-2.588-3.79-2.588,1.7-2.588,3.79S46.213,93.662,47.642,93.662Z" transform="translate(-19.44 -37.714)" fill="#fff"/>
    <path id="Caminho_1156" data-name="Caminho 1156" d="M61.091,87.705c-.039,1.764,4.129,1.575,4.958,3.411,1.82,4.046-5.926,4.958-6.483,1.068a.232.232,0,0,1,.239-.3l.534-.05a.4.4,0,0,1,.456.306c.6,1.937,4.2,2.181,4.246.056a1.358,1.358,0,0,0-.929-1.319c-1.558-.518-4.229-1.046-4.24-3.144-.006-3.333,5.854-3.445,6.344-.117q.05.356-.306.362l-.556.011a.33.33,0,0,1-.367-.3c-.367-2.076-3.851-2-3.9.017" transform="translate(-26.417 -37.778)" fill="#fff"/>
    <path id="Caminho_1157" data-name="Caminho 1157" d="M79.19,87.032a1.486,1.486,0,0,0-.913-.623c-5.114-1.13-3.957,10.016.7,6.923a3.252,3.252,0,0,0,.61-.767l.236-.474c.088-.23.216-.561.446-.473a.476.476,0,0,1,.059.028l.223.128a.556.556,0,0,1,.245.829c-1.736,3.411-6.322,2.732-6.889-.913-.462-2.949.211-6.744,4.135-6.383a2.941,2.941,0,0,1,2.816,2.732.306.306,0,0,1-.252.352.349.349,0,0,1-.048,0l-.579.006a.369.369,0,0,1-.406-.356,2.42,2.42,0,0,0-.384-1.013" transform="translate(-32.724 -37.825)" fill="#fff"/>
    <path id="Caminho_1158" data-name="Caminho 1158" d="M92.6,94.714c-2.108.007-3.825-2.154-3.835-4.828s1.692-4.847,3.8-4.855S96.4,87.185,96.4,89.859s-1.692,4.847-3.8,4.855m0-1.052c1.423-.005,2.57-1.706,2.563-3.8S94,86.078,92.574,86.083s-2.57,1.706-2.563,3.8S91.178,93.667,92.6,93.662Z" transform="translate(-39.372 -37.714)" fill="#fff"/>
    <path id="Caminho_1159" data-name="Caminho 1159" d="M0,85.674a.267.267,0,0,1,.267-.267L2.732,85.4a3.994,3.994,0,0,1,3.962,4.023v1.191A3.993,3.993,0,0,1,2.743,94.65l-2.465.006a.267.267,0,0,1-.267-.267Zm1.23.952v6.789a.228.228,0,0,0,.228.228H2.649A2.884,2.884,0,0,0,5.481,90.71V89.33A2.884,2.884,0,0,0,2.649,86.4H1.458a.228.228,0,0,0-.228.228" transform="translate(0 -37.878)" fill="#fff"/>
    <path id="Caminho_1160" data-name="Caminho 1160" d="M19.389,92.225l-3.6.006a.189.189,0,0,0-.178.128l-.768,2.159a.189.189,0,0,1-.184.122l-.846-.017a.189.189,0,0,1-.185-.194.185.185,0,0,1,.012-.062L17,85.548a.189.189,0,0,1,.167-.122l.807-.045a.189.189,0,0,1,.189.122l3.389,8.853a.189.189,0,0,1-.108.245.182.182,0,0,1-.042.011l-.84.1a.189.189,0,0,1-.2-.128l-.79-2.231a.189.189,0,0,0-.178-.128M16.128,91a.189.189,0,0,0,.178.256l2.588-.006a.189.189,0,0,0,.178-.256l-1.3-3.578a.189.189,0,0,0-.356,0Z" transform="translate(-6.044 -37.869)" fill="#fff"/>
    <path id="Caminho_1161" data-name="Caminho 1161" d="M31.456,91.121v3.194a.26.26,0,0,1-.3.295l-.668-.017a.252.252,0,0,1-.278-.284V85.678a.246.246,0,0,1,.273-.278c2.014-.05,6.271-.623,6.027,2.916a2.646,2.646,0,0,1-1.452,2.2.289.289,0,0,0-.122.445l1.792,3.189q.245.428-.245.473l-.328.028a.713.713,0,0,1-.746-.4L33.76,91.176a.551.551,0,0,0-.479-.289l-1.575-.011a.216.216,0,0,0-.25.245m-.006-4.5.011,3.027a.228.228,0,0,0,.228.228H31.7l1.847-.011a1.693,1.693,0,0,0,1.731-1.653v-.2a1.7,1.7,0,0,0-1.752-1.63h0l-1.847.011a.228.228,0,0,0-.223.228" transform="translate(-13.399 -37.849)" fill="#fff"/>
    <path id="Caminho_1162" data-name="Caminho 1162" d="M106.754,91.175l-.006,3.216a.245.245,0,0,1-.244.245h-.017l-.7-.05a.243.243,0,0,1-.256-.273V85.671a.224.224,0,0,1,.234-.25c2.092-.15,5.531-.551,6,2.131a2.694,2.694,0,0,1-1.408,2.972.283.283,0,0,0-.111.423l1.82,3.294q.184.323-.189.345l-.562.028a.581.581,0,0,1-.584-.328l-1.681-3.15a.458.458,0,0,0-.423-.256l-1.569-.006a.268.268,0,0,0-.306.3m-.006-4.574v3.038a.228.228,0,0,0,.228.228h.006l1.82-.006a1.73,1.73,0,0,0,1.8-1.653v-.2a1.73,1.73,0,0,0-1.809-1.642l-1.82.006a.228.228,0,0,0-.223.228" transform="translate(-46.805 -37.837)" fill="#fff"/>
    <path id="Caminho_1163" data-name="Caminho 1163" d="M121.12,91.272l-.011,3.077a.232.232,0,0,1-.262.256l-.785.006a.145.145,0,0,1-.167-.161l-.006-8.764a.258.258,0,0,1,.289-.295c2.454-.017,6.789-.6,6.316,3.356-.295,2.454-2.955,2.3-5.1,2.254a.241.241,0,0,0-.278.273m-.022-4.635.011,3.138a.234.234,0,0,0,.234.234L123.524,90A1.765,1.765,0,0,0,125.3,88.25v-.111a1.764,1.764,0,0,0-1.786-1.742l-2.181.006a.234.234,0,0,0-.234.234" transform="translate(-53.175 -37.856)" fill="#fff"/>
  </g>
</svg>
