<svg xmlns="http://www.w3.org/2000/svg" width="40" height="40" viewBox="0 0 40 40">
  <g id="Grupo_1852" data-name="Grupo 1852" transform="translate(9022 -2781)">
    <g id="Elipse_69" data-name="Elipse 69" transform="translate(-9022 2781)" fill="none" stroke="#fff" stroke-width="2">
      <circle cx="20" cy="20" r="20" stroke="none"/>
      <circle cx="20" cy="20" r="19" fill="none"/>
    </g>
    <path id="computador" d="M1.25,5.377A2.127,2.127,0,0,1,3.377,3.25H15.755a2.127,2.127,0,0,1,2.127,2.127v7.736a2.127,2.127,0,0,1-2.127,2.127H11.279l.58,1.16h1.575a.58.58,0,1,1,0,1.16H5.7a.58.58,0,0,1,0-1.16H7.274l.58-1.16H3.377A2.127,2.127,0,0,1,1.25,13.114Zm14.505,8.7H3.377a.967.967,0,0,1-.967-.967V5.377a.967.967,0,0,1,.967-.967H15.755a.967.967,0,0,1,.967.967v7.736A.967.967,0,0,1,15.755,14.081Z" transform="translate(-9011.25 2790.75)" fill="#fff" fill-rule="evenodd"/>
  </g>
</svg>
