<svg xmlns="http://www.w3.org/2000/svg" xmlns:xlink="http://www.w3.org/1999/xlink" width="131" height="131" viewBox="0 0 131 131">
  <defs>
    <linearGradient id="linear-gradient" x1="0.5" x2="0.5" y2="1" gradientUnits="objectBoundingBox">
      <stop offset="0" stop-color="#6316c9"/>
      <stop offset="1" stop-color="#2a1e87"/>
    </linearGradient>
  </defs>
  <g id="Grupo_1835" data-name="Grupo 1835" transform="translate(-872 -1867)">
    <g id="Grupo_1763" data-name="Grupo 1763" transform="translate(362 -439)">
      <g id="Grupo_1761" data-name="Grupo 1761" transform="translate(52.008 -1160.992)">
        <rect id="Ret창ngulo_404" data-name="Ret창ngulo 404" width="131" height="131" rx="10" transform="translate(457.992 3466.992)" fill="#fff"/>
        <g id="diagram" transform="translate(491.586 3500.586)">
          <path id="Caminho_446" data-name="Caminho 446" d="M60.857,209.087H58.9V172.843a1.837,1.837,0,0,0-1.837-1.837H49.714a1.837,1.837,0,0,0-1.837,1.837v36.245H44.2v-24a1.837,1.837,0,0,0-1.837-1.837H35.02a1.837,1.837,0,0,0-1.837,1.837v24H29.51V191.822a1.837,1.837,0,0,0-1.837-1.837H20.326a1.837,1.837,0,0,0-1.837,1.837v17.265H14.816V196.23a1.837,1.837,0,0,0-1.837-1.837H5.633A1.837,1.837,0,0,0,3.8,196.23v12.857H1.837a1.837,1.837,0,1,0,0,3.673h59.02a1.837,1.837,0,1,0,0-3.673Z" transform="translate(0 -150.067)" fill="#fff"/>
          <path id="Caminho_447" data-name="Caminho 447" d="M1.837,39.469c11.463,0,23.895-4.117,35-11.593,8.7-5.855,15.953-13.334,20.458-20.993l1.784,6.657a1.99,1.99,0,0,0,2.249,1.3,1.819,1.819,0,0,0,1.3-2.249L59.623,1.365a1.837,1.837,0,0,0-2.25-1.3L46.149,3.074A1.837,1.837,0,0,0,47.1,6.622l7.231-1.938c-4.2,7.3-11.149,14.5-19.541,20.144C24.28,31.9,12.577,35.8,1.837,35.8a1.837,1.837,0,1,0,0,3.673Z" transform="translate(0 -0.003)" fill="#fff"/>
        </g>
      </g>
      <g id="Grupo_502" data-name="Grupo 502" transform="translate(52.008 -1160.992)">
        <rect id="Ret창ngulo_404-2" data-name="Ret창ngulo 404" width="131" height="131" rx="10" transform="translate(457.992 3466.992)" fill="url(#linear-gradient)"/>
      </g>
    </g>
    <g id="plano" transform="translate(888.996 1884.501)">
      <path id="Caminho_1147" data-name="Caminho 1147" d="M139.972,243.766a.968.968,0,0,0-1.37,0l-1.8,1.8-1.8-1.8a.969.969,0,0,0-1.37,1.37l1.8,1.8-1.8,1.8a.969.969,0,0,0,1.37,1.37l1.8-1.8,1.8,1.8a.969.969,0,0,0,1.37-1.37l-1.8-1.8,1.8-1.8A.968.968,0,0,0,139.972,243.766Zm11.1-7.156a.968.968,0,0,0-1.37,0l-1.8,1.8-1.8-1.8a.969.969,0,0,0-1.37,1.37l1.8,1.8-1.8,1.8a.969.969,0,0,0,1.37,1.37l1.8-1.8,1.8,1.8a.969.969,0,1,0,1.37-1.37l-1.8-1.8,1.8-1.8a.968.968,0,0,0,0-1.37Zm-25.99-12.8a3.787,3.787,0,1,0,3.614-3.951A3.781,3.781,0,0,0,125.085,223.81Zm3.776-2.017a1.849,1.849,0,1,1-1.84,1.935A1.86,1.86,0,0,1,128.861,221.794Zm-12.883,16.69a3.789,3.789,0,0,0-2.393,6.573,3.752,3.752,0,0,0,2.55,1c.055,0,.11,0,.165,0a3.785,3.785,0,0,0,2.408-6.571A3.725,3.725,0,0,0,115.978,238.483Zm.239,5.631a1.846,1.846,0,0,1-1.917-1.76,1.852,1.852,0,0,1,1.76-1.935l.081,0a1.849,1.849,0,0,1,.076,3.7Z" transform="translate(-90.602 -178.46)" fill="#fff"/>
      <path id="Caminho_1148" data-name="Caminho 1148" d="M135.419,117.05a.968.968,0,0,0,0-1.37l-4.441-4.44a.968.968,0,0,0-1.37,0l-4.425,4.425a.969.969,0,0,0,1.37,1.37l2.778-2.778v1.466a7.4,7.4,0,0,1-7.392,7.392,9.34,9.34,0,0,0-9.33,9.33v7.238a3.811,3.811,0,1,0,1.937.012s0,0,0,0v-7.246a7.4,7.4,0,0,1,7.392-7.392,9.34,9.34,0,0,0,9.33-9.33V114.27l2.78,2.78A.968.968,0,0,0,135.419,117.05Zm-19.993,26.221a1.849,1.849,0,0,1-3.7.157h0a1.849,1.849,0,1,1,3.7-.156Zm16.94-43.431a.968.968,0,0,0-.969-.969H107.038a.969.969,0,0,0,0,1.937H131.4A.968.968,0,0,0,132.366,99.84Zm40.061,20.975-3.171-4.03a2.326,2.326,0,0,0-.874-.679v-.088a.969.969,0,1,0-1.937,0v.09a2.331,2.331,0,0,0-.869.678l-3.171,4.029a1.029,1.029,0,0,0-.21.6V161.5a2.563,2.563,0,0,0,2.561,2.561h5.322a2.563,2.563,0,0,0,2.56-2.561V121.414A1.037,1.037,0,0,0,172.427,120.815Zm-5.329-2.831a.406.406,0,0,1,.636,0l1.937,2.461h-4.51Zm3.6,43.515a.624.624,0,0,1-.622.623h-5.322a.625.625,0,0,1-.623-.623v-2.344H170.7Zm0-4.282h-6.568V122.383H170.7ZM137.068,86.61H101.715a4.608,4.608,0,1,0,0,9.216h35.353a4.608,4.608,0,1,0,0-9.216Zm0,7.279H101.715a2.671,2.671,0,1,1,0-5.341h35.353a2.671,2.671,0,1,1,0,5.341Z" transform="translate(-78.134 -69.56)" fill="#fff"/>
      <path id="Caminho_1149" data-name="Caminho 1149" d="M65.675,7.472h-6.7l-.784-2.33A5.351,5.351,0,0,0,51.4,1.783L34.583,7.472H16.841a5.358,5.358,0,0,0-5.352,5.352v2.454l-6.344,2.15a5.362,5.362,0,0,0-3.358,6.789l9.7,28.682v30.28a5.358,5.358,0,0,0,5.352,5.352h6.695l.794,2.336a5.349,5.349,0,0,0,6.778,3.348L47.919,88.53H65.675a5.358,5.358,0,0,0,5.352-5.352V80.711l6.349-2.142a5.355,5.355,0,0,0,3.347-6.778l-9.7-28.684V12.824a5.358,5.358,0,0,0-5.352-5.352ZM11.489,46.853,3.622,23.6a3.423,3.423,0,0,1,2.145-4.334l5.723-1.939ZM52.021,3.618a3.419,3.419,0,0,1,4.334,2.143l.576,1.711h-16.3ZM30.486,92.378a3.411,3.411,0,0,1-4.321-2.135l-.582-1.713H41.87Zm38.6-9.2a3.418,3.418,0,0,1-3.414,3.414H16.841a3.418,3.418,0,0,1-3.414-3.414V12.824A3.418,3.418,0,0,1,16.841,9.41H65.675a3.418,3.418,0,0,1,3.414,3.414Zm9.8-10.768a3.415,3.415,0,0,1-2.132,4.322l-5.728,1.933V49.156Z" fill="#fff"/>
    </g>
  </g>
</svg>
