<?xml version="1.0" encoding="utf-8"?>
<!-- Generator: Adobe Illustrator 25.0.1, SVG Export Plug-In . SVG Version: 6.00 Build 0)  -->
<svg version="1.1" id="Camada_1" xmlns="http://www.w3.org/2000/svg" xmlns:xlink="http://www.w3.org/1999/xlink" x="0px" y="0px" width="152.34" height="40.82"
	 viewBox="0 0 128 28.7" style="enable-background:new 0 0 128 28.7;" xml:space="preserve">
<style type="text/css">
	.st0{fill-rule:evenodd;clip-rule:evenodd;fill:#FFFFFF;filter:url(#Adobe_OpacityMaskFilter);}
	.st1{mask:url(#mask0_278_8479_2_);}
	.st2{fill:#EB612B;}
	.st3{fill-rule:evenodd;clip-rule:evenodd;fill:#FFFFFF;filter:url(#Adobe_OpacityMaskFilter_1_);}
	.st4{mask:url(#mask1_278_8479_2_);}
	.st5{fill:#020203;}
</style>
<g>
	<defs>
		<filter id="Adobe_OpacityMaskFilter" filterUnits="userSpaceOnUse" x="0" y="0" width="128" height="16.7">
			<feColorMatrix  type="matrix" values="1 0 0 0 0  0 1 0 0 0  0 0 1 0 0  0 0 0 1 0"/>
		</filter>
	</defs>
	<mask maskUnits="userSpaceOnUse" x="0" y="0" width="128" height="16.7" id="mask0_278_8479_2_">
		<path class="st0" d="M22,0.7L22,0.7c-0.1-0.1-0.1-0.3-0.2-0.4L21.8,0h-4.4h-4.4l-1.4,1.8c-0.8,1-1.6,2-1.8,2.3
			C9.6,4.3,9.4,4.6,9.3,4.7l0,0C9.1,4.9,7.9,6.4,6.5,8.1C5.2,9.8,4,11.3,4,11.3c0,0-0.2,0.3-0.4,0.5c-0.2,0.3-0.5,0.6-0.6,0.7
			c-0.8,0.9-3,3.7-3,3.8c0,0.1,7.6,0.2,7.8,0.1c0.1,0,0.3-0.3,0.6-0.7C8.7,15.4,9,15,9.2,14.8l0.3-0.3l5.1,0l5.1,0l0.2,0.5
			c0.3,0.9,0.5,1.3,0.6,1.3c0,0,1.9,0.1,4.1,0.1h0.2c3.1,0,3.8,0,3.8-0.2c0,0,0-0.1-0.1-0.2l0,0c0-0.1-0.1-0.2-0.2-0.5l0,0v0v0v0
			l0,0v0c-0.1-0.2-0.1-0.4-0.2-0.5c-0.2-0.5-0.4-0.9-0.4-1c0-0.1-0.2-0.4-0.3-0.8c-0.3-0.8-0.5-1.2-0.6-1.5
			c-0.1-0.1-0.1-0.3-0.1-0.3c0,0-0.1-0.2-0.1-0.4c-0.1-0.2-0.2-0.6-0.4-0.9c-0.1-0.3-0.2-0.6-0.3-0.6c0,0-0.1-0.1-0.1-0.2
			s-0.1-0.3-0.2-0.5c-0.1-0.2-0.3-0.6-0.4-0.9c-0.1-0.3-0.2-0.6-0.3-0.7c0-0.1-0.3-0.7-0.6-1.4c-0.6-1.6-1.1-2.7-1.3-3
			c-0.1-0.1-0.1-0.3-0.1-0.3c0,0-0.1-0.2-0.1-0.3c-0.1-0.1-0.2-0.5-0.3-0.7c-0.1-0.3-0.2-0.6-0.3-0.7C22.1,0.8,22.1,0.7,22,0.7z
			 M50.1,1.2c0-0.2,0.1-0.5,0.1-0.8l0-0.4h-3.5c-2.3,0-3.5,0-3.5,0.1c0,0-0.1,0.5-0.2,1c-0.1,0.4-0.2,1.1-0.3,1.6l0,0.1
			c-0.2,1.2-0.5,2.5-0.6,3.5c-0.1,0.5-0.2,1.2-0.3,1.7c0,0.2-0.1,0.6-0.2,0.9v0c-0.1,0.3-0.1,0.6-0.1,0.8c-0.1,0.4-0.2,0.8-0.2,1.3
			c-0.1,0.7-0.3,1.4-0.4,2.2c-0.1,0.4-0.2,1.1-0.3,1.5c-0.1,0.4-0.2,0.9-0.2,1.3c-0.1,0.3-0.1,0.6-0.1,0.7c0,0,1.5,0.1,3.5,0.1h3.5
			l0-0.2c0-0.2,0.3-1.4,0.4-2.1c0-0.3,0.1-0.7,0.2-1c0.1-0.5,0.2-0.8,0.5-2.6c0.1-0.6,0.3-1.2,0.6-1.4c0.5-0.6,2-0.9,3.1-0.6
			c0.3,0.1,0.5,0.3,0.6,0.6c0.1,0.2,0,1.2-0.3,2.6c-0.1,0.3-0.2,1.1-0.3,1.8c-0.1,0.7-0.3,1.5-0.3,1.8c-0.1,0.5-0.1,0.8-0.1,1
			c0,0.1,0.8,0.1,3.4,0.1h3.4l0-0.2c0-0.1,0-0.2,0.1-0.2v0v0c0,0,0-0.1,0-0.1c0-0.1,0.1-0.3,0.1-0.5v0c0-0.1,0-0.2,0.1-0.3
			c0.1-0.4,0.2-1.1,0.3-1.6c0-0.3,0.1-0.6,0.2-0.9c0.1-0.3,0.1-0.6,0.1-0.8c0.1-0.4,0.2-1.2,0.3-1.6C60,8.2,60.1,8,60,7.4
			c0-0.8-0.3-1.2-0.8-1.7c-0.5-0.4-0.8-0.6-1.6-0.9c-0.6-0.2-2-0.4-2.9-0.4c-0.8,0-2.4,0.2-3.1,0.3c-0.5,0.1-1.6,0.5-1.7,0.6
			c0,0-0.1,0.1-0.3,0.1l-0.2,0.1l0-0.3c0-0.2,0.1-0.7,0.2-1.1c0.1-0.5,0.2-1.3,0.3-1.7C50,1.9,50.1,1.4,50.1,1.2z M70,2
			c0.3-1.5,0.3-1.7,0.3-1.9V0h-3.5c-1.9,0-3.5,0-3.5,0.1c0,0-0.1,0.3-0.1,0.6c0,0.3-0.1,0.7-0.2,0.9c0,0.2-0.1,0.6-0.2,1
			c-0.1,0.4-0.2,1.1-0.3,1.5c-0.1,0.4-0.2,1.1-0.3,1.5l0,0.1c-0.1,0.4-0.1,0.7-0.2,0.9c-0.1,0.3-0.2,1.2-0.5,2.8
			c-0.1,0.3-0.2,1-0.3,1.5v0v0c-0.3,1.5-0.5,2.6-0.6,3.3c-0.1,0.4-0.1,0.7-0.2,0.8c-0.1,0.2-0.2,1.4-0.2,1.4c0,0,1.6,0.1,3.5,0.1
			c3.2,0,3.5,0,3.5-0.1c0-0.1,0.1-0.4,0.1-0.6c0-0.3,0.2-0.9,0.2-1.4l0.1-0.3c0.2-0.9,0.3-1.7,0.5-2.7c0-0.2,0.1-0.5,0.1-0.7v0
			c0.1-0.3,0.1-0.6,0.1-0.8c0.1-0.3,0.2-0.9,0.2-1.3C68.9,8,69,7.4,69.4,5.4c0-0.1,0-0.3,0.1-0.4l0,0l0,0c0.1-0.4,0.2-0.9,0.2-1.2
			c0.1-0.4,0.2-0.9,0.2-1.4L70,2z M112.7,0.8L112.7,0.8L112.7,0.8L112.7,0.8L112.7,0.8L112.7,0.8L112.7,0.8c0-0.2,0.1-0.4,0.1-0.5
			l0-0.2l-3.5,0c-1.9,0-3.5,0-3.5,0c0,0-0.2,1.1-0.4,2.1c-0.1,0.5-0.2,1.1-0.2,1.3l0,0.3l3.3,0c1.8,0,3.4,0,3.5,0
			c0.1,0,0.2-0.1,0.2-0.6C112.5,2.1,112.6,1.2,112.7,0.8L112.7,0.8z M101,2.6c0-0.3,0.1-0.7,0.2-0.9c0.1-0.5,0-0.6-0.6-0.3
			c-0.1,0-0.4,0.1-0.7,0.2c-0.2,0.1-0.6,0.2-0.9,0.3l0,0l-0.1,0c-0.1,0-0.2,0.1-0.3,0.1C98.4,2,98.2,2.1,98,2.1
			c-0.2,0.1-0.5,0.1-0.6,0.2c-0.1,0-0.5,0.2-1,0.3c-0.5,0.1-0.9,0.3-1,0.3c-0.1,0-0.3,0.1-0.6,0.2c-0.2,0.1-0.5,0.1-0.5,0.2
			c0,0-0.2,0.1-0.3,0.1c-0.2,0-0.2,0.1-0.3,0.4c-0.1,0.2-0.1,0.5-0.2,0.6c0,0.2,0,0.2-0.7,0.2h-0.6l-0.1,0.7l0,0.1
			c-0.1,0.4-0.2,1-0.2,1.3c-0.1,0.3-0.1,0.8-0.1,1.1l0,0.5l0.5,0c0.3,0,0.6,0,0.6,0c0,0,0,0.1-0.2,1.5l0,0c-0.4,2.3-0.5,3.2-0.5,3.8
			c0,1.8,0.8,2.6,3.2,2.8c0.9,0.1,4.3,0.1,4.8,0l0.3-0.1l1-1.9c0.5-1.1,1-1.9,1-2c0,0,0.1-0.1,0.1-0.2c0-0.1-0.2-0.1-1-0.1
			c-0.8,0-1.1,0-1.4-0.1c-0.6-0.2-0.7-0.4-0.6-1.2c0.1-0.7,0.4-2.4,0.5-2.6c0-0.1,0.1-0.1,1.3-0.1c0.7,0,1.3,0,1.3-0.1
			c0.1-0.1,0.3-1.1,0.3-1.4c0-0.1,0.1-0.4,0.1-0.6c0.1-0.2,0.1-0.7,0.2-1l0.1-0.6H102h-1.2V4.4c0-0.1,0.1-0.4,0.1-0.8
			C100.9,3.4,101,2.9,101,2.6z M38.3,2.6c0.1-0.5,0.2-1.1,0.2-1.2c0-0.2,0-0.2-0.2-0.2c-0.1,0-0.3,0.1-0.5,0.1
			c-0.1,0.1-0.4,0.2-0.7,0.2l0,0c-0.2,0.1-0.7,0.2-1.1,0.3C35.9,2,35.7,2,35.4,2.1c-0.2,0-0.3,0.1-0.4,0.1c-0.4,0.1-0.6,0.2-1.6,0.5
			c-0.1,0-0.3,0.1-0.4,0.1h0v0C32.7,2.9,32.5,3,32.3,3c-0.3,0.1-0.6,0.2-0.7,0.2c-0.1,0-0.2,0.1-0.3,0.1c-0.2,0-0.3,0.4-0.4,1l0,0.2
			l-0.7,0c-0.4,0-0.7,0-0.7,0.1c0,0-0.1,0.3-0.1,0.6C29.3,6,29,7.5,29,7.8c-0.1,0.4,0,0.5,0.7,0.5c0.6,0,0.6,0,0.6,0.2
			c-0.1,0.2-0.3,1.4-0.5,2.6c-0.1,0.5-0.2,1-0.2,1.1c-0.2,0.7-0.2,2.8,0.1,2.8c0,0,0.1,0.1,0.1,0.1c0,0.2,0.5,0.7,0.8,0.8
			c0.3,0.2,0.8,0.3,1.5,0.5c0.5,0.1,4.8,0.2,5.3,0.1l0.4-0.1l0.3-0.7c1-1.9,1.6-3.3,1.6-3.4c0,0-0.4-0.1-0.9-0.1c-0.7,0-1,0-1.4-0.1
			c-0.4-0.1-0.4-0.2-0.5-0.4c-0.1-0.2-0.1-0.4,0-1c0.1-0.3,0.1-0.8,0.2-1.2l0,0v0l0-0.3l0-0.3l0,0c0.1-0.3,0.1-0.6,0.1-0.6
			c0-0.1,0.3-0.1,1.2-0.1c0.7,0,1.3,0,1.3-0.1c0.1-0.1,0.2-0.6,0.4-1.5c0.1-0.4,0.2-1,0.2-1.3c0.1-0.3,0.1-0.7,0.1-0.7
			c0-0.1-0.3-0.1-1.3-0.1c-0.1,0-0.2,0-0.3,0l0,0c-0.6,0-0.9,0-0.9-0.1c-0.1-0.1,0-0.2,0-0.4v0v0c0,0,0-0.1,0-0.2
			c0-0.2,0.1-0.6,0.2-1L38.3,2.6z M86,5c-0.1-0.1-1.8-0.4-2.7-0.5c-1.5-0.1-4.1,0-4.8,0.1c-0.1,0-0.2,0.1-0.4,0.1
			c-0.2,0-0.4,0.1-0.5,0.1c-0.8,0.2-1.5,0.4-1.6,0.4c0,0-0.2,0.1-0.3,0.1c-0.3,0.1-1,0.4-1.5,0.6c-0.2,0.1-0.4,0.2-0.4,0.2
			c0,0-0.1,0-0.1,0.1c0,0-0.1,0.1-0.2,0.1c-0.4,0.1-1.7,1-2.3,1.7c-0.5,0.6-0.8,0.8-1,1.4c-0.4,0.9-0.5,1.2-0.5,2
			c0,0.9,0.1,1.3,0.6,2.1c0.7,1.1,1.9,1.9,3.8,2.5c1.3,0.4,3.4,0.7,5.4,0.7c1,0,4.2-0.3,4.5-0.4c0.1,0,0.4-0.1,0.9-0.2
			c1.3-0.3,1.8-0.4,2-0.5c0.1,0,0.2-0.1,0.4-0.1c0.1,0,0.4-0.1,0.6-0.2l0,0c0.1,0,0.2-0.1,0.2-0.1c0.2-0.2,0.2-0.5,0.2-2.1l0-0.1
			c0-0.1,0-0.2,0-0.3l0,0v0v0l0,0v0c0-0.9,0-1.2-0.1-1.3c-0.1,0-0.2,0-0.5,0.1l0,0l0,0v0c0,0-0.1,0-0.1,0.1
			c-0.4,0.2-1.6,0.6-2.5,0.9c-0.4,0.1-1.1,0.3-2,0.4c-0.6,0.1-3.6,0.1-4,0L78.7,13l0.8-0.3c0.2-0.1,0.3-0.1,0.5-0.2v0
			c0.3-0.1,0.5-0.2,0.6-0.2c0.2-0.1,0.5-0.2,0.7-0.2c0.2-0.1,0.5-0.2,0.6-0.2c0.1-0.1,0.6-0.2,1.2-0.4c1.1-0.4,1.7-0.6,2-0.7
			c0.1-0.1,0.3-0.1,0.5-0.2c0.1,0,0.3-0.1,0.3-0.1c0,0,0.2-0.1,0.4-0.2c0.2-0.1,0.6-0.2,0.9-0.3c0.3-0.1,0.7-0.2,0.8-0.3
			c0.1,0,0.3-0.1,0.3-0.1c0,0,0.3-0.1,0.5-0.2c0.5-0.1,1-0.3,1.2-0.4c0.1,0,0.2-0.1,0.3-0.1c0.2,0,0.2-0.1,0.1-0.3
			c-0.2-0.7-1.1-1.7-2.1-2.4c-0.7-0.4-1.6-0.9-2-1C86.2,5.1,86,5.1,86,5z M128,4.9c0-0.1,0-0.1-1.3-0.3c-1.4-0.2-4.5-0.1-5.5,0.1
			c-0.2,0-0.5,0.1-0.8,0.2l-0.1,0c-0.3,0-0.7,0.1-0.9,0.2c-0.9,0.2-1.7,0.5-1.8,0.6c0,0-0.2,0.1-0.4,0.2c-0.4,0.1-1.3,0.6-1.8,0.9
			C115.2,6.9,115,7,115,7c-0.1,0-0.9,0.7-1.1,0.9c-0.4,0.4-1,1.2-1.1,1.6c-0.1,0.2-0.1,0.3-0.2,0.4c-0.1,0.2-0.2,1.3-0.2,1.8
			c0.1,1.1,0.5,1.9,1.4,2.7c0.7,0.7,1.3,1,2.5,1.5c0.3,0.1,0.6,0.2,0.7,0.3c0.1,0.1,0.3,0.1,0.3,0.1s0.4,0.1,0.7,0.1
			c1.6,0.4,3.9,0.5,6.6,0.2c1.2-0.1,1.3-0.1,1.3-0.5c0-0.4,0.3-1.9,0.5-2.6c0.1-0.3,0.1-0.6,0.1-0.8c0-0.2,0-0.2-0.4-0.2
			c-0.7,0.1-1.2,0.1-2.5,0.1c-1.4,0-1.9-0.1-2.8-0.4c-0.8-0.3-1.3-1-1.3-1.5c0.1-1.1,1.2-1.9,2.8-2.1c1.1-0.2,2-0.2,3.4,0
			c0.8,0.1,1.4,0.1,1.4,0.1c0,0,0.1-0.4,0.2-0.8c0.2-1.2,0.3-2.1,0.4-2.5C128,5.1,128,4.9,128,4.9L128,4.9z M112.1,5.1
			c0-0.2,0.1-0.4,0-0.4c0-0.1-6.9-0.1-7,0c0,0-0.1,0.1-0.1,0.2c0,0.1-0.1,0.4-0.1,0.7c-0.1,0.3-0.2,0.9-0.2,1.3
			c-0.1,0.4-0.2,1.1-0.3,1.6l-0.1,0.3v0c-0.1,0.8-0.3,1.5-0.5,2.6c0,0.1,0,0.3-0.1,0.4l0,0l0,0l0,0v0c-0.1,0.4-0.1,0.7-0.2,0.8
			c0,0.2-0.1,0.6-0.2,0.9c-0.1,0.9-0.4,2.1-0.5,2.5c0,0.1,0,0.1,0,0.2v0c0,0.1-0.1,0.2,0,0.3c0.1,0.2,0.6,0.2,2.5,0.2l0,0h0h0l0,0h0
			c0.3,0,0.6,0,1,0h3.5l0-0.2c0-0.1,0.1-0.6,0.2-1.1c0-0.1,0.1-0.3,0.1-0.5c0.1-0.4,0.1-0.7,0.2-0.9c0-0.1,0.1-0.3,0.1-0.5v0v0l0,0
			c0-0.2,0.1-0.5,0.1-0.7c0.1-0.4,0.2-0.9,0.2-1.4l0.1-0.3c0-0.3,0.1-0.6,0.1-0.8l0,0l0,0l0,0c0-0.2,0.1-0.4,0.1-0.5l0,0
			c0-0.3,0.1-0.7,0.2-1c0.1-0.6,0.3-1.5,0.5-2.6C112,5.7,112.1,5.3,112.1,5.1z M37.8,22.9c-0.1-0.6-0.6-1.2-1.2-1.4
			c-0.2-0.1-0.8-0.1-1.9-0.1c-1.4,0-1.7,0-1.8,0.1c-0.1,0.1-0.1,1-0.1,3.6c0,2.9,0,3.5,0.1,3.6c0.1,0.1,0.6,0.1,1.8,0.1
			c1.6,0,1.7,0,2.1-0.2c0.8-0.4,1.2-1,1.2-1.9c0-0.5,0-0.6-0.2-1c-0.1-0.2-0.3-0.5-0.5-0.6l-0.3-0.2l0.2-0.2
			C37.7,24.4,37.9,23.6,37.8,22.9z M43.6,22.6l0-0.6l0-0.6l-2.3,0c-1.8,0-2.3,0-2.3,0.1c0,0.1,0,1.7,0,3.7l0,3.6l2.2,0
			c1.4,0,2.3,0,2.3-0.1c0.1,0,0.1-0.2,0.1-0.5c0-0.1,0-0.2,0-0.3v0v0v0v0v0c0-0.1,0-0.2,0-0.2c0-0.1-0.4-0.1-1.7-0.1h-1.7v-0.9v-0.9
			h1.4H43l0-0.2c0-0.1,0-0.4,0-0.6l0-0.4l-1.4,0l-1.5,0v-0.9v-0.9h1.7H43.6z M49,22.1c0,0-0.3-0.2-0.7-0.4c-0.6-0.3-0.7-0.3-1.5-0.3
			c-1.2,0-1.7,0.2-2.2,1c-0.2,0.3-0.2,0.4-0.2,1c0,0.6,0,0.7,0.2,1.1c0.4,0.7,1.1,1.1,2.4,1.3c0.6,0.1,0.7,0.1,0.9,0.3
			c0.5,0.5,0.1,1.3-0.7,1.4c-0.8,0.1-1.8-0.2-2.3-0.6c-0.1-0.1-0.2-0.1-0.5,0.3c-0.2,0.2-0.4,0.5-0.4,0.5c0,0.1,0.8,0.6,1.3,0.8
			c0.4,0.2,0.6,0.2,1.4,0.2c0.9,0,1,0,1.4-0.2c0.5-0.3,0.8-0.5,1-1c0.4-0.9,0-2.2-0.9-2.7c-0.3-0.1-1.2-0.4-1.4-0.4
			c-1,0-1.6-0.8-1-1.5c0.2-0.3,0.2-0.3,1-0.2c0.6,0,0.8,0,1.1,0.2c0.2,0.1,0.4,0.2,0.5,0.2C48.4,23,49,22.2,49,22.1z M54.6,22.5
			l0-0.6l0-0.6l-2.5,0c-2.1,0-2.5,0-2.5,0.1c0,0.1,0,0.3,0,0.6l0,0.5l1,0l0.9,0v3c0,1.6,0,3,0,3.1c0,0.1,0.2,0.1,0.6,0.1
			c0.3,0,0.5,0,0.6-0.1c0,0,0.1-1.4,0.1-3.1l0-3l1,0L54.6,22.5z M62.2,22.5V22v-0.6l-2.3,0c-1.3,0-2.3,0-2.3,0c0,0-0.1,1.6-0.1,3.6
			c0,2.6,0,3.5,0.1,3.6c0.1,0.1,0.8,0.1,1,0c0.1,0,0.1-0.2,0.1-1.5v-1.5l1.4,0c0.8,0,1.4,0,1.5,0c0.1,0,0.1-0.2,0.1-0.6v-0.5h-1.5
			h-1.5v-1v-1l1.7,0L62.2,22.5z M67.7,22.9c-0.3-0.5-0.8-1.1-1.3-1.3c-0.3-0.1-0.5-0.2-1.1-0.2c-0.9,0-1.2,0.1-1.9,0.8
			c-0.7,0.7-0.8,1-0.8,2.9c0,1.8,0.1,2.2,0.7,2.9c0.7,0.7,1.7,1,2.7,0.7c0.6-0.2,1.4-0.9,1.6-1.4c0.2-0.4,0.2-0.5,0.2-2.1
			C67.9,23.3,67.9,23.3,67.7,22.9z M74,23.2c0-0.7-0.5-1.3-1.1-1.6l-0.5-0.2l-1.7,0c-1.4,0-1.7,0-1.7,0.1c0,0.1,0,1.7,0,3.7l0,3.6
			l0.5,0c0.3,0,0.5,0,0.6-0.1c0.1-0.1,0.1-0.4,0.1-1.5v-1.5h0.6c0.5,0,0.8,0.1,0.8,0.3c0,0.1,1.2,2.5,1.3,2.6
			c0.1,0.1,0.2,0.1,0.7,0.1c0.7,0,0.8-0.1,0.6-0.4c-0.2-0.4-1-1.9-1.3-2.4l-0.2-0.4l0.3-0.1C73.7,25,74.1,24.2,74,23.2z M78.8,24.5
			c0-2.1,0-3-0.1-3c-0.1-0.1-0.9-0.1-1.1-0.1c-0.1,0-0.1,0.8-0.1,3.6v3.6l0.2,0c0.1,0,1.1,0,2.3,0l2.2,0v-0.6v-0.6l-1.7,0l-1.7,0
			L78.8,24.5z M84.2,25.1c0-2.8,0-3.6-0.1-3.7c-0.1-0.1-1-0.1-1.1,0c0,0-0.1,1.7-0.1,3.6v3.6l0.2,0c0.1,0,0.4,0,0.6,0l0.4,0
			L84.2,25.1z M90.2,22.5V22v-0.6l-2.3,0l-2.3,0l0,0.2c0,0.1,0,6.9,0,7.1c0,0,0.3,0.1,0.6,0l0.6,0l0-1.5l0-1.5l1,0
			c0.6,0,1.2,0,1.5,0l0.4,0V25v-0.5l-1.4,0l-1.5,0l0-0.9l0-1l1.7,0L90.2,22.5z M95.6,22.5V22v-0.6l-2.3,0c-1.8,0-2.3,0-2.3,0.1
			c0,0.1,0,1.7,0,3.7l0,3.6l2.2,0c1.2,0,2.2,0,2.3,0c0.2,0,0.2-0.1,0.2-0.6l0-0.6l-1.7,0l-1.7,0v-0.9v-0.9h1.4c1.1,0,1.4,0,1.5-0.1
			c0.1-0.1,0.1-0.3,0.1-0.6l0-0.4l-1.5,0l-1.5,0v-0.9v-0.9l1.7,0L95.6,22.5z M15.5,5.9L15.5,5.9l-0.1,0.1C15.2,6.4,15,6.7,15,6.7
			c0,0-0.1,0.1-0.2,0.3c-0.1,0.1-0.4,0.6-0.8,1c-0.3,0.4-0.8,1.1-1.1,1.5c-0.3,0.4-0.5,0.7-0.5,0.8c0,0,1.3,0,2.8,0
			c1.8,0,2.8-0.1,2.8-0.1c0-0.2-0.9-2.7-1.4-3.9c-0.1-0.3-0.2-0.7-0.3-0.9l0-0.1v0v0c-0.1-0.1-0.1-0.3-0.1-0.3c0,0-0.1,0.1-0.2,0.2
			C15.9,5.4,15.7,5.7,15.5,5.9L15.5,5.9z M76.3,10c0.3-1,2-2,3.8-2.2c0.8-0.1,1.5,0,2,0.1C82.4,8,82.6,8,82.7,8.1
			c0,0-0.3,0.1-0.6,0.3l-0.1,0.1c-0.3,0.1-0.7,0.3-0.8,0.3c-0.1,0.1-0.3,0.1-0.3,0.1c0,0-0.2,0.1-0.4,0.2c-0.2,0.1-0.3,0.1-0.4,0.2
			c0,0-0.2,0.1-0.3,0.1c-0.1,0.1-0.6,0.2-1,0.4c-0.4,0.1-1.1,0.4-1.5,0.6c-0.1,0.1-0.3,0.1-0.4,0.2c-0.3,0.1-0.4,0.2-0.5,0.2
			C76.2,10.6,76.2,10.3,76.3,10z M34.1,23.4v0.9H35c1.1,0,1.3-0.1,1.5-0.4c0.3-0.5,0.1-1.2-0.4-1.4c-0.1,0-0.6-0.1-1.1-0.1h-0.9
			V23.4z M34.1,26.5c0-0.5,0-1,0.1-1c0,0,0.4-0.1,0.8-0.1c1.3,0,1.7,0.3,1.7,1c0,0.4-0.2,0.7-0.6,0.9c-0.1,0.1-0.7,0.1-1.2,0.1
			l-0.9,0V26.5z M64.8,22.6c-0.2,0.1-0.4,0.3-0.6,0.6c-0.2,0.3-0.2,0.3-0.2,1.8v1.5l0.2,0.3c0.3,0.4,0.5,0.5,0.9,0.6
			c0.5,0.1,0.8-0.1,1.2-0.4c0.3-0.4,0.4-0.6,0.3-2.2c0-1.1,0-1.3-0.2-1.5c-0.3-0.4-0.6-0.6-1.1-0.6C65.1,22.6,64.8,22.6,64.8,22.6z
			 M70.3,24.5l0-1l0-1h0.9c1,0,1.4,0.1,1.6,0.3c0.1,0.2,0.2,0.3,0.1,0.6c0,0.6-0.3,0.9-0.8,1c-0.2,0-0.7,0.1-1.1,0.1L70.3,24.5z"/>
	</mask>
	<g class="st1">
		<rect class="st2" width="128" height="16.7"/>
	</g>
	<defs>
		<filter id="Adobe_OpacityMaskFilter_1_" filterUnits="userSpaceOnUse" x="32.3" y="20.3" width="63.4" height="8.4">
			<feColorMatrix  type="matrix" values="1 0 0 0 0  0 1 0 0 0  0 0 1 0 0  0 0 0 1 0"/>
		</filter>
	</defs>
	<mask maskUnits="userSpaceOnUse" x="32.3" y="20.3" width="63.4" height="8.4" id="mask1_278_8479_2_">
		<path class="st3" d="M22,0.7L22,0.7c-0.1-0.1-0.1-0.3-0.2-0.4L21.8,0h-4.4h-4.4l-1.4,1.8c-0.8,1-1.6,2-1.8,2.3
			C9.6,4.3,9.4,4.6,9.3,4.7l0,0C9.1,4.9,7.9,6.4,6.5,8.1C5.2,9.8,4,11.3,4,11.3c0,0-0.2,0.3-0.4,0.5c-0.2,0.3-0.5,0.6-0.6,0.7
			c-0.8,0.9-3,3.7-3,3.8c0,0.1,7.6,0.2,7.8,0.1c0.1,0,0.3-0.3,0.6-0.7C8.7,15.4,9,15,9.2,14.8l0.3-0.3l5.1,0l5.1,0l0.2,0.5
			c0.3,0.9,0.5,1.3,0.6,1.3c0,0,1.9,0.1,4.1,0.1h0.2c3.1,0,3.8,0,3.8-0.2c0,0,0-0.1-0.1-0.2l0,0c0-0.1-0.1-0.2-0.2-0.5l0,0v0v0v0
			l0,0v0c-0.1-0.2-0.1-0.4-0.2-0.5c-0.2-0.5-0.4-0.9-0.4-1c0-0.1-0.2-0.4-0.3-0.8c-0.3-0.8-0.5-1.2-0.6-1.5
			c-0.1-0.1-0.1-0.3-0.1-0.3c0,0-0.1-0.2-0.1-0.4c-0.1-0.2-0.2-0.6-0.4-0.9c-0.1-0.3-0.2-0.6-0.3-0.6c0,0-0.1-0.1-0.1-0.2
			s-0.1-0.3-0.2-0.5c-0.1-0.2-0.3-0.6-0.4-0.9c-0.1-0.3-0.2-0.6-0.3-0.7c0-0.1-0.3-0.7-0.6-1.4c-0.6-1.6-1.1-2.7-1.3-3
			c-0.1-0.1-0.1-0.3-0.1-0.3c0,0-0.1-0.2-0.1-0.3c-0.1-0.1-0.2-0.5-0.3-0.7c-0.1-0.3-0.2-0.6-0.3-0.7C22.1,0.8,22.1,0.7,22,0.7z
			 M50.1,1.2c0-0.2,0.1-0.5,0.1-0.8l0-0.4h-3.5c-2.3,0-3.5,0-3.5,0.1c0,0-0.1,0.5-0.2,1c-0.1,0.4-0.2,1.1-0.3,1.6l0,0.1
			c-0.2,1.2-0.5,2.5-0.6,3.5c-0.1,0.5-0.2,1.2-0.3,1.7c0,0.2-0.1,0.6-0.2,0.9v0c-0.1,0.3-0.1,0.6-0.1,0.8c-0.1,0.4-0.2,0.8-0.2,1.3
			c-0.1,0.7-0.3,1.4-0.4,2.2c-0.1,0.4-0.2,1.1-0.3,1.5c-0.1,0.4-0.2,0.9-0.2,1.3c-0.1,0.3-0.1,0.6-0.1,0.7c0,0,1.5,0.1,3.5,0.1h3.5
			l0-0.2c0-0.2,0.3-1.4,0.4-2.1c0-0.3,0.1-0.7,0.2-1c0.1-0.5,0.2-0.8,0.5-2.6c0.1-0.6,0.3-1.2,0.6-1.4c0.5-0.6,2-0.9,3.1-0.6
			c0.3,0.1,0.5,0.3,0.6,0.6c0.1,0.2,0,1.2-0.3,2.6c-0.1,0.3-0.2,1.1-0.3,1.8c-0.1,0.7-0.3,1.5-0.3,1.8c-0.1,0.5-0.1,0.8-0.1,1
			c0,0.1,0.8,0.1,3.4,0.1h3.4l0-0.2c0-0.1,0-0.2,0.1-0.2v0v0c0,0,0-0.1,0-0.1c0-0.1,0.1-0.3,0.1-0.5v0c0-0.1,0-0.2,0.1-0.3
			c0.1-0.4,0.2-1.1,0.3-1.6c0-0.3,0.1-0.6,0.2-0.9c0.1-0.3,0.1-0.6,0.1-0.8c0.1-0.4,0.2-1.2,0.3-1.6C60,8.2,60.1,8,60,7.4
			c0-0.8-0.3-1.2-0.8-1.7c-0.5-0.4-0.8-0.6-1.6-0.9c-0.6-0.2-2-0.4-2.9-0.4c-0.8,0-2.4,0.2-3.1,0.3c-0.5,0.1-1.6,0.5-1.7,0.6
			c0,0-0.1,0.1-0.3,0.1l-0.2,0.1l0-0.3c0-0.2,0.1-0.7,0.2-1.1c0.1-0.5,0.2-1.3,0.3-1.7C50,1.9,50.1,1.4,50.1,1.2z M70,2
			c0.3-1.5,0.3-1.7,0.3-1.9V0h-3.5c-1.9,0-3.5,0-3.5,0.1c0,0-0.1,0.3-0.1,0.6c0,0.3-0.1,0.7-0.2,0.9c0,0.2-0.1,0.6-0.2,1
			c-0.1,0.4-0.2,1.1-0.3,1.5c-0.1,0.4-0.2,1.1-0.3,1.5l0,0.1c-0.1,0.4-0.1,0.7-0.2,0.9c-0.1,0.3-0.2,1.2-0.5,2.8
			c-0.1,0.3-0.2,1-0.3,1.5v0v0c-0.3,1.5-0.5,2.6-0.6,3.3c-0.1,0.4-0.1,0.7-0.2,0.8c-0.1,0.2-0.2,1.4-0.2,1.4c0,0,1.6,0.1,3.5,0.1
			c3.2,0,3.5,0,3.5-0.1c0-0.1,0.1-0.4,0.1-0.6c0-0.3,0.2-0.9,0.2-1.4l0.1-0.3c0.2-0.9,0.3-1.7,0.5-2.7c0-0.2,0.1-0.5,0.1-0.7v0
			c0.1-0.3,0.1-0.6,0.1-0.8c0.1-0.3,0.2-0.9,0.2-1.3C68.9,8,69,7.4,69.4,5.4c0-0.1,0-0.3,0.1-0.4l0,0l0,0c0.1-0.4,0.2-0.9,0.2-1.2
			c0.1-0.4,0.2-0.9,0.2-1.4L70,2z M112.7,0.8L112.7,0.8L112.7,0.8L112.7,0.8L112.7,0.8L112.7,0.8L112.7,0.8c0-0.2,0.1-0.4,0.1-0.5
			l0-0.2l-3.5,0c-1.9,0-3.5,0-3.5,0c0,0-0.2,1.1-0.4,2.1c-0.1,0.5-0.2,1.1-0.2,1.3l0,0.3l3.3,0c1.8,0,3.4,0,3.5,0
			c0.1,0,0.2-0.1,0.2-0.6C112.5,2.1,112.6,1.2,112.7,0.8L112.7,0.8z M101,2.6c0-0.3,0.1-0.7,0.2-0.9c0.1-0.5,0-0.6-0.6-0.3
			c-0.1,0-0.4,0.1-0.7,0.2c-0.2,0.1-0.6,0.2-0.9,0.3l0,0l-0.1,0c-0.1,0-0.2,0.1-0.3,0.1C98.4,2,98.2,2.1,98,2.1
			c-0.2,0.1-0.5,0.1-0.6,0.2c-0.1,0-0.5,0.2-1,0.3c-0.5,0.1-0.9,0.3-1,0.3c-0.1,0-0.3,0.1-0.6,0.2c-0.2,0.1-0.5,0.1-0.5,0.2
			c0,0-0.2,0.1-0.3,0.1c-0.2,0-0.2,0.1-0.3,0.4c-0.1,0.2-0.1,0.5-0.2,0.6c0,0.2,0,0.2-0.7,0.2h-0.6l-0.1,0.7l0,0.1
			c-0.1,0.4-0.2,1-0.2,1.3c-0.1,0.3-0.1,0.8-0.1,1.1l0,0.5l0.5,0c0.3,0,0.6,0,0.6,0c0,0,0,0.1-0.2,1.5l0,0c-0.4,2.3-0.5,3.2-0.5,3.8
			c0,1.8,0.8,2.6,3.2,2.8c0.9,0.1,4.3,0.1,4.8,0l0.3-0.1l1-1.9c0.5-1.1,1-1.9,1-2c0,0,0.1-0.1,0.1-0.2c0-0.1-0.2-0.1-1-0.1
			c-0.8,0-1.1,0-1.4-0.1c-0.6-0.2-0.7-0.4-0.6-1.2c0.1-0.7,0.4-2.4,0.5-2.6c0-0.1,0.1-0.1,1.3-0.1c0.7,0,1.3,0,1.3-0.1
			c0.1-0.1,0.3-1.1,0.3-1.4c0-0.1,0.1-0.4,0.1-0.6c0.1-0.2,0.1-0.7,0.2-1l0.1-0.6H102h-1.2V4.4c0-0.1,0.1-0.4,0.1-0.8
			C100.9,3.4,101,2.9,101,2.6z M38.3,2.6c0.1-0.5,0.2-1.1,0.2-1.2c0-0.2,0-0.2-0.2-0.2c-0.1,0-0.3,0.1-0.5,0.1
			c-0.1,0.1-0.4,0.2-0.7,0.2l0,0c-0.2,0.1-0.7,0.2-1.1,0.3C35.9,2,35.7,2,35.4,2.1c-0.2,0-0.3,0.1-0.4,0.1c-0.4,0.1-0.6,0.2-1.6,0.5
			c-0.1,0-0.3,0.1-0.4,0.1h0v0C32.7,2.9,32.5,3,32.3,3c-0.3,0.1-0.6,0.2-0.7,0.2c-0.1,0-0.2,0.1-0.3,0.1c-0.2,0-0.3,0.4-0.4,1l0,0.2
			l-0.7,0c-0.4,0-0.7,0-0.7,0.1c0,0-0.1,0.3-0.1,0.6C29.3,6,29,7.5,29,7.8c-0.1,0.4,0,0.5,0.7,0.5c0.6,0,0.6,0,0.6,0.2
			c-0.1,0.2-0.3,1.4-0.5,2.6c-0.1,0.5-0.2,1-0.2,1.1c-0.2,0.7-0.2,2.8,0.1,2.8c0,0,0.1,0.1,0.1,0.1c0,0.2,0.5,0.7,0.8,0.8
			c0.3,0.2,0.8,0.3,1.5,0.5c0.5,0.1,4.8,0.2,5.3,0.1l0.4-0.1l0.3-0.7c1-1.9,1.6-3.3,1.6-3.4c0,0-0.4-0.1-0.9-0.1c-0.7,0-1,0-1.4-0.1
			c-0.4-0.1-0.4-0.2-0.5-0.4c-0.1-0.2-0.1-0.4,0-1c0.1-0.3,0.1-0.8,0.2-1.2l0,0v0l0-0.3l0-0.3l0,0c0.1-0.3,0.1-0.6,0.1-0.6
			c0-0.1,0.3-0.1,1.2-0.1c0.7,0,1.3,0,1.3-0.1c0.1-0.1,0.2-0.6,0.4-1.5c0.1-0.4,0.2-1,0.2-1.3c0.1-0.3,0.1-0.7,0.1-0.7
			c0-0.1-0.3-0.1-1.3-0.1c-0.1,0-0.2,0-0.3,0l0,0c-0.6,0-0.9,0-0.9-0.1c-0.1-0.1,0-0.2,0-0.4v0v0c0,0,0-0.1,0-0.2
			c0-0.2,0.1-0.6,0.2-1L38.3,2.6z M86,5c-0.1-0.1-1.8-0.4-2.7-0.5c-1.5-0.1-4.1,0-4.8,0.1c-0.1,0-0.2,0.1-0.4,0.1
			c-0.2,0-0.4,0.1-0.5,0.1c-0.8,0.2-1.5,0.4-1.6,0.4c0,0-0.2,0.1-0.3,0.1c-0.3,0.1-1,0.4-1.5,0.6c-0.2,0.1-0.4,0.2-0.4,0.2
			c0,0-0.1,0-0.1,0.1c0,0-0.1,0.1-0.2,0.1c-0.4,0.1-1.7,1-2.3,1.7c-0.5,0.6-0.8,0.8-1,1.4c-0.4,0.9-0.5,1.2-0.5,2
			c0,0.9,0.1,1.3,0.6,2.1c0.7,1.1,1.9,1.9,3.8,2.5c1.3,0.4,3.4,0.7,5.4,0.7c1,0,4.2-0.3,4.5-0.4c0.1,0,0.4-0.1,0.9-0.2
			c1.3-0.3,1.8-0.4,2-0.5c0.1,0,0.2-0.1,0.4-0.1c0.1,0,0.4-0.1,0.6-0.2l0,0c0.1,0,0.2-0.1,0.2-0.1c0.2-0.2,0.2-0.5,0.2-2.1l0-0.1
			c0-0.1,0-0.2,0-0.3l0,0v0v0l0,0v0c0-0.9,0-1.2-0.1-1.3c-0.1,0-0.2,0-0.5,0.1l0,0l0,0v0c0,0-0.1,0-0.1,0.1
			c-0.4,0.2-1.6,0.6-2.5,0.9c-0.4,0.1-1.1,0.3-2,0.4c-0.6,0.1-3.6,0.1-4,0L78.7,13l0.8-0.3c0.2-0.1,0.3-0.1,0.5-0.2v0
			c0.3-0.1,0.5-0.2,0.6-0.2c0.2-0.1,0.5-0.2,0.7-0.2c0.2-0.1,0.5-0.2,0.6-0.2c0.1-0.1,0.6-0.2,1.2-0.4c1.1-0.4,1.7-0.6,2-0.7
			c0.1-0.1,0.3-0.1,0.5-0.2c0.1,0,0.3-0.1,0.3-0.1c0,0,0.2-0.1,0.4-0.2c0.2-0.1,0.6-0.2,0.9-0.3c0.3-0.1,0.7-0.2,0.8-0.3
			c0.1,0,0.3-0.1,0.3-0.1c0,0,0.3-0.1,0.5-0.2c0.5-0.1,1-0.3,1.2-0.4c0.1,0,0.2-0.1,0.3-0.1c0.2,0,0.2-0.1,0.1-0.3
			c-0.2-0.7-1.1-1.7-2.1-2.4c-0.7-0.4-1.6-0.9-2-1C86.2,5.1,86,5.1,86,5z M128,4.9c0-0.1,0-0.1-1.3-0.3c-1.4-0.2-4.5-0.1-5.5,0.1
			c-0.2,0-0.5,0.1-0.8,0.2l-0.1,0c-0.3,0-0.7,0.1-0.9,0.2c-0.9,0.2-1.7,0.5-1.8,0.6c0,0-0.2,0.1-0.4,0.2c-0.4,0.1-1.3,0.6-1.8,0.9
			C115.2,6.9,115,7,115,7c-0.1,0-0.9,0.7-1.1,0.9c-0.4,0.4-1,1.2-1.1,1.6c-0.1,0.2-0.1,0.3-0.2,0.4c-0.1,0.2-0.2,1.3-0.2,1.8
			c0.1,1.1,0.5,1.9,1.4,2.7c0.7,0.7,1.3,1,2.5,1.5c0.3,0.1,0.6,0.2,0.7,0.3c0.1,0.1,0.3,0.1,0.3,0.1s0.4,0.1,0.7,0.1
			c1.6,0.4,3.9,0.5,6.6,0.2c1.2-0.1,1.3-0.1,1.3-0.5c0-0.4,0.3-1.9,0.5-2.6c0.1-0.3,0.1-0.6,0.1-0.8c0-0.2,0-0.2-0.4-0.2
			c-0.7,0.1-1.2,0.1-2.5,0.1c-1.4,0-1.9-0.1-2.8-0.4c-0.8-0.3-1.3-1-1.3-1.5c0.1-1.1,1.2-1.9,2.8-2.1c1.1-0.2,2-0.2,3.4,0
			c0.8,0.1,1.4,0.1,1.4,0.1c0,0,0.1-0.4,0.2-0.8c0.2-1.2,0.3-2.1,0.4-2.5C128,5.1,128,4.9,128,4.9L128,4.9z M112.1,5.1
			c0-0.2,0.1-0.4,0-0.4c0-0.1-6.9-0.1-7,0c0,0-0.1,0.1-0.1,0.2c0,0.1-0.1,0.4-0.1,0.7c-0.1,0.3-0.2,0.9-0.2,1.3
			c-0.1,0.4-0.2,1.1-0.3,1.6l-0.1,0.3v0c-0.1,0.8-0.3,1.5-0.5,2.6c0,0.1,0,0.3-0.1,0.4l0,0l0,0l0,0v0c-0.1,0.4-0.1,0.7-0.2,0.8
			c0,0.2-0.1,0.6-0.2,0.9c-0.1,0.9-0.4,2.1-0.5,2.5c0,0.1,0,0.1,0,0.2v0c0,0.1-0.1,0.2,0,0.3c0.1,0.2,0.6,0.2,2.5,0.2l0,0h0h0l0,0h0
			c0.3,0,0.6,0,1,0h3.5l0-0.2c0-0.1,0.1-0.6,0.2-1.1c0-0.1,0.1-0.3,0.1-0.5c0.1-0.4,0.1-0.7,0.2-0.9c0-0.1,0.1-0.3,0.1-0.5v0v0l0,0
			c0-0.2,0.1-0.5,0.1-0.7c0.1-0.4,0.2-0.9,0.2-1.4l0.1-0.3c0-0.3,0.1-0.6,0.1-0.8l0,0l0,0l0,0c0-0.2,0.1-0.4,0.1-0.5l0,0
			c0-0.3,0.1-0.7,0.2-1c0.1-0.6,0.3-1.5,0.5-2.6C112,5.7,112.1,5.3,112.1,5.1z M37.8,22.9c-0.1-0.6-0.6-1.2-1.2-1.4
			c-0.2-0.1-0.8-0.1-1.9-0.1c-1.4,0-1.7,0-1.8,0.1c-0.1,0.1-0.1,1-0.1,3.6c0,2.9,0,3.5,0.1,3.6c0.1,0.1,0.6,0.1,1.8,0.1
			c1.6,0,1.7,0,2.1-0.2c0.8-0.4,1.2-1,1.2-1.9c0-0.5,0-0.6-0.2-1c-0.1-0.2-0.3-0.5-0.5-0.6l-0.3-0.2l0.2-0.2
			C37.7,24.4,37.9,23.6,37.8,22.9z M43.6,22.6l0-0.6l0-0.6l-2.3,0c-1.8,0-2.3,0-2.3,0.1c0,0.1,0,1.7,0,3.7l0,3.6l2.2,0
			c1.4,0,2.3,0,2.3-0.1c0.1,0,0.1-0.2,0.1-0.5c0-0.1,0-0.2,0-0.3v0v0v0v0v0c0-0.1,0-0.2,0-0.2c0-0.1-0.4-0.1-1.7-0.1h-1.7v-0.9v-0.9
			h1.4H43l0-0.2c0-0.1,0-0.4,0-0.6l0-0.4l-1.4,0l-1.5,0v-0.9v-0.9h1.7H43.6z M49,22.1c0,0-0.3-0.2-0.7-0.4c-0.6-0.3-0.7-0.3-1.5-0.3
			c-1.2,0-1.7,0.2-2.2,1c-0.2,0.3-0.2,0.4-0.2,1c0,0.6,0,0.7,0.2,1.1c0.4,0.7,1.1,1.1,2.4,1.3c0.6,0.1,0.7,0.1,0.9,0.3
			c0.5,0.5,0.1,1.3-0.7,1.4c-0.8,0.1-1.8-0.2-2.3-0.6c-0.1-0.1-0.2-0.1-0.5,0.3c-0.2,0.2-0.4,0.5-0.4,0.5c0,0.1,0.8,0.6,1.3,0.8
			c0.4,0.2,0.6,0.2,1.4,0.2c0.9,0,1,0,1.4-0.2c0.5-0.3,0.8-0.5,1-1c0.4-0.9,0-2.2-0.9-2.7c-0.3-0.1-1.2-0.4-1.4-0.4
			c-1,0-1.6-0.8-1-1.5c0.2-0.3,0.2-0.3,1-0.2c0.6,0,0.8,0,1.1,0.2c0.2,0.1,0.4,0.2,0.5,0.2C48.4,23,49,22.2,49,22.1z M54.6,22.5
			l0-0.6l0-0.6l-2.5,0c-2.1,0-2.5,0-2.5,0.1c0,0.1,0,0.3,0,0.6l0,0.5l1,0l0.9,0v3c0,1.6,0,3,0,3.1c0,0.1,0.2,0.1,0.6,0.1
			c0.3,0,0.5,0,0.6-0.1c0,0,0.1-1.4,0.1-3.1l0-3l1,0L54.6,22.5z M62.2,22.5V22v-0.6l-2.3,0c-1.3,0-2.3,0-2.3,0c0,0-0.1,1.6-0.1,3.6
			c0,2.6,0,3.5,0.1,3.6c0.1,0.1,0.8,0.1,1,0c0.1,0,0.1-0.2,0.1-1.5v-1.5l1.4,0c0.8,0,1.4,0,1.5,0c0.1,0,0.1-0.2,0.1-0.6v-0.5h-1.5
			h-1.5v-1v-1l1.7,0L62.2,22.5z M67.7,22.9c-0.3-0.5-0.8-1.1-1.3-1.3c-0.3-0.1-0.5-0.2-1.1-0.2c-0.9,0-1.2,0.1-1.9,0.8
			c-0.7,0.7-0.8,1-0.8,2.9c0,1.8,0.1,2.2,0.7,2.9c0.7,0.7,1.7,1,2.7,0.7c0.6-0.2,1.4-0.9,1.6-1.4c0.2-0.4,0.2-0.5,0.2-2.1
			C67.9,23.3,67.9,23.3,67.7,22.9z M74,23.2c0-0.7-0.5-1.3-1.1-1.6l-0.5-0.2l-1.7,0c-1.4,0-1.7,0-1.7,0.1c0,0.1,0,1.7,0,3.7l0,3.6
			l0.5,0c0.3,0,0.5,0,0.6-0.1c0.1-0.1,0.1-0.4,0.1-1.5v-1.5h0.6c0.5,0,0.8,0.1,0.8,0.3c0,0.1,1.2,2.5,1.3,2.6
			c0.1,0.1,0.2,0.1,0.7,0.1c0.7,0,0.8-0.1,0.6-0.4c-0.2-0.4-1-1.9-1.3-2.4l-0.2-0.4l0.3-0.1C73.7,25,74.1,24.2,74,23.2z M78.8,24.5
			c0-2.1,0-3-0.1-3c-0.1-0.1-0.9-0.1-1.1-0.1c-0.1,0-0.1,0.8-0.1,3.6v3.6l0.2,0c0.1,0,1.1,0,2.3,0l2.2,0v-0.6v-0.6l-1.7,0l-1.7,0
			L78.8,24.5z M84.2,25.1c0-2.8,0-3.6-0.1-3.7c-0.1-0.1-1-0.1-1.1,0c0,0-0.1,1.7-0.1,3.6v3.6l0.2,0c0.1,0,0.4,0,0.6,0l0.4,0
			L84.2,25.1z M90.2,22.5V22v-0.6l-2.3,0l-2.3,0l0,0.2c0,0.1,0,6.9,0,7.1c0,0,0.3,0.1,0.6,0l0.6,0l0-1.5l0-1.5l1,0
			c0.6,0,1.2,0,1.5,0l0.4,0V25v-0.5l-1.4,0l-1.5,0l0-0.9l0-1l1.7,0L90.2,22.5z M95.6,22.5V22v-0.6l-2.3,0c-1.8,0-2.3,0-2.3,0.1
			c0,0.1,0,1.7,0,3.7l0,3.6l2.2,0c1.2,0,2.2,0,2.3,0c0.2,0,0.2-0.1,0.2-0.6l0-0.6l-1.7,0l-1.7,0v-0.9v-0.9h1.4c1.1,0,1.4,0,1.5-0.1
			c0.1-0.1,0.1-0.3,0.1-0.6l0-0.4l-1.5,0l-1.5,0v-0.9v-0.9l1.7,0L95.6,22.5z M15.5,5.9L15.5,5.9l-0.1,0.1C15.2,6.4,15,6.7,15,6.7
			c0,0-0.1,0.1-0.2,0.3c-0.1,0.1-0.4,0.6-0.8,1c-0.3,0.4-0.8,1.1-1.1,1.5c-0.3,0.4-0.5,0.7-0.5,0.8c0,0,1.3,0,2.8,0
			c1.8,0,2.8-0.1,2.8-0.1c0-0.2-0.9-2.7-1.4-3.9c-0.1-0.3-0.2-0.7-0.3-0.9l0-0.1v0v0c-0.1-0.1-0.1-0.3-0.1-0.3c0,0-0.1,0.1-0.2,0.2
			C15.9,5.4,15.7,5.7,15.5,5.9L15.5,5.9z M76.3,10c0.3-1,2-2,3.8-2.2c0.8-0.1,1.5,0,2,0.1C82.4,8,82.6,8,82.7,8.1
			c0,0-0.3,0.1-0.6,0.3l-0.1,0.1c-0.3,0.1-0.7,0.3-0.8,0.3c-0.1,0.1-0.3,0.1-0.3,0.1c0,0-0.2,0.1-0.4,0.2c-0.2,0.1-0.3,0.1-0.4,0.2
			c0,0-0.2,0.1-0.3,0.1c-0.1,0.1-0.6,0.2-1,0.4c-0.4,0.1-1.1,0.4-1.5,0.6c-0.1,0.1-0.3,0.1-0.4,0.2c-0.3,0.1-0.4,0.2-0.5,0.2
			C76.2,10.6,76.2,10.3,76.3,10z M34.1,23.4v0.9H35c1.1,0,1.3-0.1,1.5-0.4c0.3-0.5,0.1-1.2-0.4-1.4c-0.1,0-0.6-0.1-1.1-0.1h-0.9
			V23.4z M34.1,26.5c0-0.5,0-1,0.1-1c0,0,0.4-0.1,0.8-0.1c1.3,0,1.7,0.3,1.7,1c0,0.4-0.2,0.7-0.6,0.9c-0.1,0.1-0.7,0.1-1.2,0.1
			l-0.9,0V26.5z M64.8,22.6c-0.2,0.1-0.4,0.3-0.6,0.6c-0.2,0.3-0.2,0.3-0.2,1.8v1.5l0.2,0.3c0.3,0.4,0.5,0.5,0.9,0.6
			c0.5,0.1,0.8-0.1,1.2-0.4c0.3-0.4,0.4-0.6,0.3-2.2c0-1.1,0-1.3-0.2-1.5c-0.3-0.4-0.6-0.6-1.1-0.6C65.1,22.6,64.8,22.6,64.8,22.6z
			 M70.3,24.5l0-1l0-1h0.9c1,0,1.4,0.1,1.6,0.3c0.1,0.2,0.2,0.3,0.1,0.6c0,0.6-0.3,0.9-0.8,1c-0.2,0-0.7,0.1-1.1,0.1L70.3,24.5z"/>
	</mask>
	<g class="st4">
		<rect x="32.3" y="20.3" class="st5" width="63.4" height="8.4"/>
	</g>
</g>
</svg>
