<svg width="65" height="21" viewBox="0 0 65 21" fill="none" xmlns="http://www.w3.org/2000/svg">
<g clip-path="url(#clip0_2937_3979)">
<path d="M0 6.04289C0.0131932 4.44412 0.68336 2.9144 1.86588 1.78386C3.04839 0.653323 4.64844 0.0126133 6.32071 0H65V14.9571C65.0009 15.7509 64.8381 16.5371 64.5208 17.2707C64.2035 18.0042 63.7379 18.6708 63.1508 19.2321C62.5637 19.7934 61.8665 20.2385 61.0992 20.5418C60.3319 20.8452 59.5096 21.0009 58.6793 21H0V6.04289Z" fill="#E2211D"/>
<path d="M10.7138 6.51403C10.6951 6.05167 10.5044 5.61087 10.1759 5.27105C10.0068 5.1238 9.80878 5.01009 9.59335 4.93654C9.37792 4.86298 9.14936 4.83103 8.92092 4.84254C8.64294 4.83774 8.36847 4.90246 8.1247 5.03028C7.88094 5.15811 7.67633 5.3446 7.53116 5.5713C7.1633 6.24532 6.97836 6.99687 6.9933 7.757C6.96566 8.43513 7.10389 9.11007 7.39699 9.72816C7.5672 9.98227 7.80883 10.1854 8.0942 10.3143C8.37958 10.4432 8.69716 10.4926 9.01057 10.4569C9.23649 10.4708 9.46276 10.4356 9.67241 10.3539C9.88205 10.2722 10.0696 10.1462 10.221 9.98527C10.5157 9.6422 10.7023 9.22606 10.7589 8.78543H14.0312C13.9539 9.56626 13.6769 10.3169 13.2244 10.9711C12.7918 11.5735 12.2055 12.0603 11.5212 12.3855C10.7573 12.702 9.93272 12.8627 9.10021 12.8572C8.31936 12.8693 7.54331 12.7383 6.81402 12.4712C6.17105 12.2376 5.58961 11.8718 5.1108 11.3996C4.61866 10.9316 4.24907 10.3591 4.03212 9.72873C3.79426 9.03716 3.674 8.31359 3.67592 7.58559C3.66728 6.83938 3.80418 6.09815 4.07961 5.39989C4.32297 4.77207 4.70529 4.2019 5.20044 3.7284C5.64813 3.27065 6.20033 2.91792 6.81402 2.6977C7.45534 2.45322 8.14235 2.33731 8.83247 2.35716C9.75276 2.34436 10.6667 2.50462 11.5223 2.82881C12.2434 3.11712 12.8539 3.61103 13.2707 4.24319C13.7078 4.91414 13.9549 5.68221 13.9878 6.47203L10.7138 6.51403Z" fill="white"/>
<path d="M17.5724 8.82849L18.8725 13.3287L20.2171 8.87163H23.0887L20.6208 15.6001C20.4556 16.116 20.2457 16.6177 19.9933 17.1002C19.841 17.3971 19.6447 17.6714 19.4104 17.9147C19.1439 18.1463 18.8197 18.3087 18.4688 18.3863C17.9519 18.4814 17.426 18.5246 16.8998 18.5152C16.765 18.5152 16.3168 18.5152 15.5996 18.472V16.4572C16.0226 16.4809 16.4466 16.4373 16.8546 16.3283C16.948 16.2858 17.0269 16.219 17.0824 16.1356C17.138 16.0522 17.1679 15.9555 17.1687 15.8567C17.1605 15.7105 17.1303 15.5661 17.079 15.4282L14.6587 8.87163L17.5724 8.82849Z" fill="white"/>
<path d="M26.8068 2.74304V6.21429C27.071 5.91858 27.4018 5.68396 27.7744 5.52805C28.1471 5.37214 28.5518 5.299 28.9582 5.31412C29.5541 5.31349 30.1348 5.49353 30.6169 5.82834C31.1312 6.17293 31.5348 6.64779 31.7823 7.19958C32.0623 7.80704 32.2 8.46564 32.186 9.12931C32.2404 10.1233 31.94 11.1055 31.3341 11.9149C31.0272 12.2708 30.6346 12.5502 30.19 12.7293C29.7454 12.9084 29.2621 12.9819 28.7813 12.9434C28.3034 12.9624 27.8275 12.8744 27.3916 12.6863C27.0965 12.5582 26.8358 12.3676 26.6293 12.1289C26.5394 12.0088 26.4641 11.8793 26.4049 11.743V12.7714H23.7584L23.848 2.82874L26.8068 2.74304ZM27.8825 10.8428C28.138 10.8374 28.3866 10.763 28.5997 10.6283C28.8018 10.4695 28.9564 10.2626 29.0479 10.0283C29.1363 9.76508 29.1818 9.49037 29.1826 9.21388C29.1852 8.93713 29.1397 8.66189 29.0479 8.39942C28.9691 8.14704 28.813 7.92304 28.5997 7.75637C28.4047 7.58469 28.1475 7.49246 27.8825 7.49926C27.6916 7.49534 27.5031 7.54112 27.3373 7.63169C27.1714 7.72227 27.0344 7.85423 26.941 8.01347C26.7033 8.37203 26.5796 8.78884 26.5848 9.21331C26.5644 9.62635 26.6898 10.034 26.941 10.3706C27.0513 10.5112 27.1931 10.6266 27.356 10.7082C27.5189 10.7898 27.6988 10.8356 27.8825 10.8422" fill="white"/>
<path d="M41.51 9.81433L35.8168 9.7712C35.8222 10.0289 35.8997 10.2805 36.0412 10.5C36.1898 10.7134 36.3897 10.8897 36.6242 11.0142C36.8461 11.1301 37.0898 11.203 37.3413 11.2287C37.5967 11.2233 37.8454 11.1489 38.0585 11.0142C38.227 10.9044 38.3655 10.7574 38.4622 10.5857H41.2886C41.1758 10.9689 40.9825 11.3262 40.7205 11.6356C40.4585 11.9451 40.1333 12.2002 39.7646 12.3854C38.944 12.7751 38.0359 12.9665 37.1199 12.9428C36.3656 12.9374 35.6195 12.7919 34.9233 12.5143C34.2905 12.2438 33.7589 11.7954 33.3994 11.2287C33.0279 10.6181 32.8417 9.92058 32.8615 9.21442C32.8411 8.48902 33.0438 7.77382 33.4445 7.15755C33.8052 6.55524 34.3538 6.0758 35.0136 5.78631C35.6998 5.47445 36.4503 5.3133 37.2101 5.31466C38.0312 5.2979 38.8401 5.50606 39.5414 5.91458C40.212 6.27582 40.7455 6.83101 41.0654 7.50036C41.3599 8.23963 41.5117 9.02383 41.5136 9.8149L41.51 9.81433ZM35.8168 8.35739H38.5518C38.5613 8.18779 38.5298 8.01839 38.4598 7.86229C38.3898 7.7062 38.2831 7.5676 38.1481 7.45723C37.8701 7.23881 37.5219 7.11856 37.162 7.11669C36.8157 7.11878 36.4816 7.23962 36.2205 7.45723C36.0782 7.56165 35.9663 7.69927 35.8956 7.85689C35.825 8.01451 35.7978 8.18685 35.8168 8.35739Z" fill="white"/>
<path d="M42.6308 2.82874L42.5412 12.7714H45.5L45.5897 2.82874H42.6308Z" fill="white"/>
<path d="M55.2272 12.8571H52.1342L51.9994 12.0858C51.7755 12.2948 51.5182 12.4684 51.2372 12.6C50.9188 12.7391 50.589 12.853 50.2511 12.9405C49.9145 13.0255 49.568 13.0688 49.2199 13.0694C48.7586 13.0669 48.3021 12.9796 47.8753 12.8123C47.481 12.6837 47.1473 12.4254 46.9337 12.0835C46.696 11.7249 46.5723 11.3081 46.5775 10.8837C46.551 10.579 46.6072 10.2729 46.7408 9.99504C46.8743 9.71722 47.0806 9.47708 47.3398 9.29788C47.5895 9.13549 47.8609 9.00569 48.1466 8.91193C48.4606 8.82623 48.8192 8.74166 49.1777 8.65483C49.5339 8.61169 49.8949 8.52599 50.2089 8.48456L51.0608 8.35572C51.6438 8.27002 51.9573 8.05548 51.9573 7.79837C51.9657 7.69779 51.9396 7.59732 51.883 7.5122C51.8263 7.42708 51.7421 7.36196 51.6432 7.32672C51.4297 7.24292 51.2014 7.19918 50.9706 7.19788C50.3431 7.19788 49.9845 7.45499 49.8949 7.92664H47.0708C47.0534 7.45388 47.1949 6.98824 47.4745 6.59796C47.8085 6.20356 48.2631 5.9188 48.7746 5.7835C49.5351 5.59289 50.32 5.50633 51.106 5.52639C51.7998 5.51708 52.4922 5.58913 53.1677 5.74094C53.5875 5.84931 53.9725 6.05542 54.2886 6.34085C54.5254 6.59348 54.681 6.90601 54.7368 7.24102C54.8161 7.65073 54.8462 8.06775 54.8264 8.48399L54.7813 11.8695C54.7675 12.0421 54.7827 12.2157 54.8264 12.3837C54.9047 12.5419 55.0282 12.6757 55.1826 12.7697L55.2272 12.8571ZM50.5651 11.4427C50.7425 11.4518 50.9197 11.4217 51.083 11.3547C51.2463 11.2878 51.3912 11.1859 51.5067 11.0568C51.7932 10.639 51.9191 10.1391 51.8629 9.64239C51.5372 9.79234 51.1895 9.8936 50.8317 9.94264C50.4881 9.99057 50.1549 10.092 49.8456 10.2429C49.7453 10.2998 49.6631 10.3817 49.6078 10.4799C49.5524 10.5781 49.5261 10.6888 49.5316 10.8002C49.5246 10.8882 49.5401 10.9764 49.5767 11.0573C49.6119 11.1332 49.6754 11.1939 49.7548 11.2276C50.0004 11.3632 50.278 11.437 50.5616 11.4422" fill="white"/>
<path d="M56.1687 12.8996L56.2138 5.69948H58.9037V7.15642C59.0664 6.63023 59.436 6.18474 59.9349 5.91345C60.4662 5.67199 61.0501 5.55524 61.6381 5.57291V8.44424C61.3241 8.4011 61.1448 8.35853 61.0551 8.35853C60.6969 8.3329 60.3386 8.40744 60.0239 8.57307C59.7289 8.7142 59.5036 8.96039 59.3964 9.2587C59.2372 9.65497 59.161 10.0773 59.172 10.5017V12.9876L56.1687 12.8996Z" fill="white"/>
</g>
<defs>
<clipPath id="clip0_2937_3979">
<rect width="65" height="21" fill="white"/>
</clipPath>
</defs>
</svg>
