<svg xmlns="http://www.w3.org/2000/svg" width="138" height="65" viewBox="0 0 138 65">
  <g id="Grupo_264" data-name="Grupo 264" transform="translate(-1014 -2133)">
    <rect id="Ret창ngulo_120" data-name="Ret창ngulo 120" width="138" height="65" transform="translate(1014 2133)" fill="none"/>
    <g id="Grupo_382" data-name="Grupo 382" transform="translate(102.031 1878.646)">
      <path id="Caminho_404" data-name="Caminho 404" d="M1315.719,276.481l-1.521-1.065a5.567,5.567,0,0,1-2.327-4.567V266.4h3.848Z" transform="translate(-301.02 -0.035)" fill="#00aae3"/>
      <path id="Caminho_405" data-name="Caminho 405" d="M1333.541,324.781h-3.848V313.1l1.548,1.1a5.57,5.57,0,0,1,2.3,4.549Z" transform="translate(-314.994 -36.652)" fill="#00aae3"/>
      <path id="Caminho_406" data-name="Caminho 406" d="M1351.321,277.238l-1.521-1.065a5.566,5.566,0,0,1-2.327-4.567v-5.251h3.848Z" transform="translate(-328.935)" fill="#00aae3"/>
      <path id="Caminho_407" data-name="Caminho 407" d="M1369.143,327.657H1365.3V316.766l1.548,1.1a5.569,5.569,0,0,1,2.3,4.549Z" transform="translate(-342.909 -39.528)" fill="#00aae3"/>
      <path id="Caminho_408" data-name="Caminho 408" d="M1386.9,278.035l-1.521-1.065a5.567,5.567,0,0,1-2.327-4.568v-6.048h3.848Z" transform="translate(-356.833 -0.001)" fill="#00aae3"/>
      <path id="Caminho_409" data-name="Caminho 409" d="M1404.722,330.551h-3.848V320.456l1.548,1.1a5.569,5.569,0,0,1,2.3,4.549Z" transform="translate(-370.807 -42.422)" fill="#00aae3"/>
      <path id="Caminho_410" data-name="Caminho 410" d="M1122.082,303.272a4.679,4.679,0,0,1-3.377,1.2,4.243,4.243,0,0,1-4.2-4.409V300a4.091,4.091,0,0,1,4.141-4.35,5.137,5.137,0,0,1,3.4,1.253l2.058-3.4a8.86,8.86,0,0,0-5.4-1.758,8.381,8.381,0,0,0-8.67,8.312v.06a8.3,8.3,0,0,0,8.61,8.253,8.9,8.9,0,0,0,5.443-1.786Z" transform="translate(-142.759 -19.91)" fill="#606366"/>
      <path id="Caminho_411" data-name="Caminho 411" d="M1020.216,300.117v-.06a8.647,8.647,0,0,1,17.279-.06v.06a8.647,8.647,0,0,1-17.279.06m12.81,0v-.06a4.243,4.243,0,0,0-4.2-4.409,4.091,4.091,0,0,0-4.141,4.35v.06a4.243,4.243,0,0,0,4.2,4.409,4.091,4.091,0,0,0,4.141-4.35" transform="translate(-72.331 -19.909)" fill="#606366"/>
      <rect id="Ret창ngulo_318" data-name="Ret창ngulo 318" width="4.528" height="21.775" transform="translate(1001.795 266.354)" fill="#606366"/>
      <path id="Caminho_412" data-name="Caminho 412" d="M945.248,266.355H940.72v6.42a9.091,9.091,0,0,0-4.081-.938,8.381,8.381,0,0,0-8.67,8.312v.06a8.3,8.3,0,0,0,8.61,8.253A6.46,6.46,0,0,0,940.72,287V288.1h4.528V266.355Zm-8.61,18.2a4.243,4.243,0,0,1-4.2-4.409v-.059a4.091,4.091,0,0,1,4.141-4.35,4.243,4.243,0,0,1,4.2,4.409v.06a4.091,4.091,0,0,1-4.141,4.35" transform="translate(0 -0.001)" fill="#606366"/>
      <path id="Caminho_413" data-name="Caminho 413" d="M1178.9,300.117v-.06a8.647,8.647,0,0,1,17.279-.06v.06a8.647,8.647,0,0,1-17.279.06m12.811,0v-.06a4.243,4.243,0,0,0-4.2-4.409,4.091,4.091,0,0,0-4.141,4.35v.06a4.243,4.243,0,0,0,4.2,4.409,4.091,4.091,0,0,0,4.141-4.35" transform="translate(-196.754 -19.909)" fill="#606366"/>
      <path id="Caminho_414" data-name="Caminho 414" d="M934.383,406.011h.929l-3.222,7.507h-.944l-3.177-7.507h.974l2.712,6.593Z" transform="translate(0 -109.506)" fill="#606366"/>
      <path id="Caminho_415" data-name="Caminho 415" d="M968.429,394.746h.9v7.507h-.9Zm-.135-3.1h1.214v1.169h-1.214Z" transform="translate(-31.619 -98.241)" fill="#606366"/>
      <path id="Caminho_416" data-name="Caminho 416" d="M986.645,406.011h.929l-3.222,7.507h-.944l-3.177-7.507h.974l2.712,6.593Z" transform="translate(-40.979 -109.506)" fill="#606366"/>
      <path id="Caminho_417" data-name="Caminho 417" d="M1023.9,411.352a4.375,4.375,0,0,0,0-4.57,2.464,2.464,0,0,0-3.671.023,3.608,3.608,0,0,0-.659,2.3,3.457,3.457,0,0,0,.659,2.255,2.271,2.271,0,0,0,1.858.8,2.184,2.184,0,0,0,1.813-.809m1.559-5.994v7.507h-.914v-1.439a2.432,2.432,0,0,1-1,1.146,3.06,3.06,0,0,1-1.6.4,3.256,3.256,0,0,1-1.761-.472,3.093,3.093,0,0,1-1.169-1.348,5.277,5.277,0,0,1,.008-4.106,3.225,3.225,0,0,1,1.176-1.378,3.157,3.157,0,0,1,1.746-.487,3.084,3.084,0,0,1,1.581.389,2.481,2.481,0,0,1,1.011,1.139v-1.349Z" transform="translate(-71.075 -108.853)" fill="#606366"/>
      <path id="Caminho_418" data-name="Caminho 418" d="M1082.619,411.352a4.375,4.375,0,0,0,0-4.57,2.464,2.464,0,0,0-3.671.023,3.608,3.608,0,0,0-.659,2.3,3.456,3.456,0,0,0,.659,2.255,2.271,2.271,0,0,0,1.858.8,2.184,2.184,0,0,0,1.813-.809m1.559-5.994v7.507h-.914v-1.439a2.432,2.432,0,0,1-1,1.146,3.06,3.06,0,0,1-1.6.4,3.256,3.256,0,0,1-1.761-.472,3.093,3.093,0,0,1-1.169-1.348,5.276,5.276,0,0,1,.008-4.106,3.225,3.225,0,0,1,1.176-1.378,3.156,3.156,0,0,1,1.746-.487,3.085,3.085,0,0,1,1.581.389,2.482,2.482,0,0,1,1.011,1.139v-1.349Z" transform="translate(-117.115 -108.853)" fill="#606366"/>
      <path id="Caminho_419" data-name="Caminho 419" d="M1140.063,390.383h-.7l1.514-3.042h1.169Zm1.274,6.983a4.375,4.375,0,0,0,0-4.57,2.464,2.464,0,0,0-3.671.023,3.608,3.608,0,0,0-.659,2.3,3.456,3.456,0,0,0,.659,2.255,2.271,2.271,0,0,0,1.858.8,2.184,2.184,0,0,0,1.813-.809m1.559-5.994v7.507h-.914V397.44a2.432,2.432,0,0,1-1,1.146,3.06,3.06,0,0,1-1.6.4,3.256,3.256,0,0,1-1.761-.472,3.093,3.093,0,0,1-1.169-1.348,5.276,5.276,0,0,1,.008-4.106,3.225,3.225,0,0,1,1.176-1.378,3.156,3.156,0,0,1,1.746-.487,3.085,3.085,0,0,1,1.581.389,2.481,2.481,0,0,1,1.011,1.139v-1.349Z" transform="translate(-163.155 -94.866)" fill="#606366"/>
      <path id="Caminho_420" data-name="Caminho 420" d="M1182.392,411.038a3.167,3.167,0,0,0,.667-2.128,3.222,3.222,0,0,0-.667-2.151,2.279,2.279,0,0,0-1.836-.786,2.317,2.317,0,0,0-1.858.786,3.2,3.2,0,0,0-.674,2.151,3.137,3.137,0,0,0,.674,2.135,2.338,2.338,0,0,0,1.858.772,2.289,2.289,0,0,0,1.836-.779m1.581-5.679V412.9a3.428,3.428,0,0,1-.809,2.473,3.161,3.161,0,0,1-2.383.839,5.235,5.235,0,0,1-2.922-.809l.18-.794a6.016,6.016,0,0,0,1.348.614,5.026,5.026,0,0,0,1.409.18,2.222,2.222,0,0,0,1.7-.614,2.534,2.534,0,0,0,.577-1.8v-1.933a2.58,2.58,0,0,1-1.019,1.176,3.042,3.042,0,0,1-1.618.412,3.271,3.271,0,0,1-1.753-.472,3.212,3.212,0,0,1-1.191-1.319,4.657,4.657,0,0,1,0-3.9,3.161,3.161,0,0,1,1.191-1.311,3.309,3.309,0,0,1,1.753-.464,3.145,3.145,0,0,1,1.611.389,2.482,2.482,0,0,1,1.011,1.139v-1.349Z" transform="translate(-195.317 -108.853)" fill="#606366"/>
      <path id="Caminho_421" data-name="Caminho 421" d="M1226.458,406.011v7.507h-.884v-1.364a2.517,2.517,0,0,1-1.019,1.094,3.008,3.008,0,0,1-1.513.375,2.572,2.572,0,0,1-1.993-.734,3.11,3.11,0,0,1-.674-2.173v-4.705h.9v4.645a2.472,2.472,0,0,0,.45,1.633,1.736,1.736,0,0,0,1.393.524,2.318,2.318,0,0,0,1.768-.7,2.581,2.581,0,0,0,.66-1.85v-4.256Z" transform="translate(-229.276 -109.506)" fill="#606366"/>
      <path id="Caminho_422" data-name="Caminho 422" d="M1263.141,411.352a4.375,4.375,0,0,0,0-4.57,2.464,2.464,0,0,0-3.671.023,3.61,3.61,0,0,0-.659,2.3,3.458,3.458,0,0,0,.659,2.255,2.271,2.271,0,0,0,1.858.8,2.184,2.184,0,0,0,1.813-.809m1.558-5.994v7.507h-.914v-1.439a2.431,2.431,0,0,1-1,1.146,3.06,3.06,0,0,1-1.6.4,3.255,3.255,0,0,1-1.76-.472,3.094,3.094,0,0,1-1.169-1.348,5.278,5.278,0,0,1,.008-4.106,3.225,3.225,0,0,1,1.176-1.378,3.156,3.156,0,0,1,1.746-.487,3.084,3.084,0,0,1,1.581.389,2.481,2.481,0,0,1,1.011,1.139v-1.349Z" transform="translate(-258.663 -108.853)" fill="#606366"/>
    </g>
  </g>
</svg>
