<svg width="82" height="19" viewBox="0 0 82 19" fill="none" xmlns="http://www.w3.org/2000/svg">
<g clip-path="url(#clip0_2937_3991)">
<mask id="mask0_2937_3991" style="mask-type:luminance" maskUnits="userSpaceOnUse" x="0" y="0" width="82" height="19">
<path d="M82 0H0V19H82V0Z" fill="white"/>
</mask>
<g mask="url(#mask0_2937_3991)">
<path d="M9.95119 0.683491C9.88942 0.486855 9.76661 0.31477 9.60039 0.191966C9.43418 0.0691612 9.23313 0.00195996 9.02613 1.93641e-05H5.22184C5.10412 -0.00948246 4.98572 0.00669703 4.87493 0.0474288C4.76413 0.0881605 4.6636 0.152463 4.58035 0.23585C4.4971 0.319237 4.43314 0.419698 4.39292 0.530225C4.35271 0.640751 4.33721 0.75868 4.34752 0.875781V4.38648C8.0124 4.47013 9.65292 1.26291 9.9517 0.682981" fill="#F05123"/>
<path d="M4.34494 4.59358C5.59915 4.62516 6.82763 4.23624 7.83301 3.48931C8.77394 2.75505 9.50455 1.78767 9.95168 0.684021C9.33777 1.61154 8.50676 2.37685 7.53006 2.91417C6.55335 3.4515 5.46016 3.74479 4.34442 3.76882V4.12586C4.34442 4.2192 4.34442 4.50891 4.34442 4.59715" fill="#E72B25"/>
<path d="M6.89823 6.84594C8.55616 5.01281 10.3489 2.12948 9.95068 0.681946C9.95068 0.681946 8.29325 4.38697 4.56943 4.38646H0.874302C0.252639 4.38646 0.00305176 4.65271 0.00305176 5.28059V9.24064C0.0166811 9.46298 0.111068 9.67281 0.268626 9.83102C0.426183 9.98923 0.636163 10.085 0.859439 10.1006H1.74248C4.1871 10.1006 5.48783 8.40721 6.89823 6.84594Z" fill="#F37121"/>
<path d="M4.39313 13.3894C4.4547 13.5862 4.57768 13.7583 4.74421 13.8807C4.91075 14.0031 5.11216 14.0696 5.31921 14.0703H9.12607C9.24382 14.0812 9.36254 14.0664 9.47393 14.0269C9.58532 13.9874 9.68669 13.9241 9.77094 13.8415C9.85519 13.7589 9.9203 13.659 9.9617 13.5488C10.0031 13.4385 10.0198 13.3206 10.0106 13.2033V9.68134C6.33909 9.57371 4.69448 12.808 4.39569 13.3879" fill="#FFD100"/>
<path d="M10.0071 9.31768C8.72856 9.28768 7.47465 9.67044 6.4329 10.4087C5.47011 11.1788 4.75905 12.2163 4.39008 13.3894C5.00673 12.4624 5.8397 11.6976 6.81784 11.1605C7.79598 10.6234 8.89021 10.3299 10.0071 10.3051V9.94811C10.0071 9.85477 10.0071 9.40592 10.0071 9.31768Z" fill="#F6861F"/>
<path d="M7.44611 7.22338C5.78818 9.05957 3.9975 11.9444 4.3952 13.3915C4.3952 13.3915 6.05057 9.68286 9.77645 9.68286H13.47C14.0917 9.68286 14.3413 9.41661 14.3413 8.78975V4.82919C14.3271 4.60703 14.2326 4.3975 14.0751 4.2394C13.9177 4.08129 13.708 3.98532 13.4849 3.96924H12.5988C10.1547 3.96924 8.85344 5.66261 7.44304 7.22389" fill="#F99B1C"/>
<path d="M18.5955 3.66478C18.5555 3.78005 16.8392 10.5291 16.8392 10.5291H18.8958L19.5985 7.94515H23.2659L23.7784 6.22219H20.0341L20.5133 4.51657H24.6297L25.0515 2.79565C25.0515 2.79565 19.7374 2.79565 19.5805 2.79565C19.3481 2.8255 19.1301 2.92411 18.9547 3.07871C18.7792 3.2333 18.6545 3.43677 18.5965 3.66274" fill="#C4161C"/>
<path d="M25.3308 10.5275C24.8891 10.5674 24.4495 10.4325 24.107 10.1521C23.955 10.0172 23.8363 9.8492 23.76 9.66124C23.6838 9.47329 23.652 9.27039 23.6672 9.06826C23.6616 8.76256 23.7249 8.4595 23.8522 8.18127C23.9775 7.92173 24.1599 7.69356 24.3858 7.51361C24.6311 7.32107 24.9114 7.17734 25.2114 7.09027C25.5599 6.99027 25.9213 6.94181 26.284 6.94643C26.5456 6.94597 26.8068 6.96661 27.0651 7.00815C27.3105 7.04808 27.5527 7.10552 27.7898 7.18004L27.8123 7.102C27.8262 7.05099 27.839 6.99438 27.8497 6.93521C27.8619 6.86928 27.8676 6.80231 27.8667 6.73527C27.8684 6.64402 27.8477 6.55373 27.8065 6.47223C27.7652 6.39073 27.7046 6.32047 27.6299 6.26755C27.3928 6.12825 27.118 6.06586 26.8437 6.08903C26.5576 6.09038 26.2724 6.12063 25.9925 6.17931C25.7019 6.23746 24.7199 6.55012 24.5062 6.63173L25.0669 4.86083C25.3766 4.74685 25.6975 4.66531 26.0242 4.61753C26.4406 4.54966 26.8619 4.51555 27.2839 4.51552C27.9828 4.45453 28.6827 4.62176 29.2776 4.99191C29.4927 5.15667 29.6646 5.3707 29.7787 5.6158C29.8928 5.8609 29.9458 6.12982 29.933 6.39966C29.9294 6.69255 29.8889 6.98384 29.8126 7.26675L28.9598 10.5275H26.8944L27.0415 9.93739C26.829 10.1383 26.5709 10.2853 26.2892 10.3658C25.9801 10.4703 25.6562 10.5248 25.3298 10.5275M26.2922 9.40285C26.5746 9.39866 26.8447 9.28716 27.0472 9.09121C27.2773 8.88359 27.44 8.61243 27.5146 8.31236L27.5699 8.11293C27.4521 8.07518 27.329 8.04407 27.2014 8.01652C27.0652 7.99107 26.9269 7.97844 26.7884 7.97878C26.5063 7.96491 26.2275 8.04475 25.996 8.20576C25.8986 8.28096 25.8208 8.37837 25.7692 8.48977C25.7175 8.60118 25.6936 8.72331 25.6993 8.84587C25.6956 8.92166 25.7084 8.99734 25.7368 9.06775C25.7652 9.13817 25.8085 9.20166 25.8638 9.25392C25.9822 9.35647 26.1354 9.41012 26.2922 9.40387" fill="#C4161C"/>
<path d="M46.9644 0.316228H45.1456C44.9419 0.322282 44.7415 0.368395 44.5558 0.451908C44.3701 0.535421 44.2029 0.654682 44.0637 0.802819L40.9938 4.29872L39.8335 0.932372C39.8335 0.932372 39.6224 0.314697 39.0853 0.314697H37.5549C37.2516 0.328661 36.9641 0.453539 36.7475 0.665402C36.531 0.877264 36.4006 1.16121 36.3813 1.46283L34.1125 10.5249H36.7826L38.3647 4.72411L39.8848 8.71987H39.9452L43.6501 4.69504L42.0614 10.5336H44.7725L47.3247 0.968586C47.3247 0.968586 47.5707 0.316738 46.966 0.316738" fill="#C4161C"/>
<path d="M48.8207 7.11678C48.8159 7.51195 48.956 7.89531 49.2149 8.19503C49.5086 8.4395 49.8867 8.55995 50.2685 8.53065C50.5439 8.53128 50.8173 8.4838 51.0762 8.39038C51.3765 8.27707 51.6588 8.12107 51.9142 7.92725L53.1744 9.38652C52.7618 9.72916 52.2979 10.0054 51.7994 10.2052C50.7267 10.5977 49.5534 10.625 48.4635 10.2827C48.0332 10.1402 47.6381 9.90869 47.3042 9.60329C46.9875 9.30599 46.7381 8.94481 46.5729 8.54391C46.3963 8.10282 46.3092 7.63131 46.3167 7.15657C46.3263 5.99443 46.7736 4.87816 47.5703 4.02841C47.9879 3.59051 48.4859 3.23628 49.0375 2.98484C49.6443 2.71037 50.3048 2.57344 50.9712 2.58393C51.4775 2.57175 51.9812 2.66001 52.4528 2.84355C52.8409 2.99795 53.1907 3.23447 53.4778 3.53671C53.7439 3.82622 53.9463 4.16774 54.0723 4.53948C54.2016 4.92173 54.2669 5.32254 54.2655 5.72586C54.2673 5.99142 54.2408 6.25642 54.1866 6.51645C54.1386 6.72476 54.0642 6.92615 53.9652 7.11576L48.8207 7.11678ZM51.7722 5.98956C51.8181 5.85832 51.842 5.72047 51.8429 5.58152C51.8473 5.33059 51.7557 5.08739 51.5867 4.90111C51.4814 4.79864 51.3552 4.71995 51.2166 4.6704C51.078 4.62084 50.9303 4.60159 50.7836 4.61395C50.4104 4.61725 50.0477 4.73734 49.7468 4.95721C49.397 5.21388 49.1383 5.57475 49.0083 5.98752L51.7722 5.98956Z" fill="#C4161C"/>
<path d="M56.1762 1.46131C56.0906 1.73877 53.5859 10.525 53.5859 10.525H56.1613L59.0933 0.304504H57.3139C57.3139 0.304504 56.5293 0.325417 56.1762 1.46131Z" fill="#C4161C"/>
<path d="M59.5991 1.45774C59.4628 2.03716 57.0033 10.5336 57.0033 10.5336H59.8082L60.9321 6.56898C61.0266 6.18921 61.2143 5.83871 61.4784 5.54888C61.6023 5.4273 61.7501 5.33255 61.9126 5.27058C62.075 5.2086 62.2487 5.18076 62.4225 5.18878C62.6609 5.17197 62.8966 5.24826 63.0795 5.40147C63.158 5.47791 63.219 5.57027 63.2585 5.67227C63.2979 5.77428 63.3148 5.88354 63.3081 5.99263C63.3071 6.09177 63.2997 6.19075 63.286 6.28897C63.2731 6.39828 63.2508 6.5063 63.2194 6.61183L62.1016 10.5321H64.9071L66.0551 6.45728C66.1243 6.21297 66.1806 5.97681 66.2247 5.74576C66.2677 5.52989 66.2898 5.31041 66.2908 5.09034C66.3069 4.78522 66.2611 4.48 66.156 4.19291C66.051 3.90581 65.8889 3.64274 65.6794 3.41941C65.4514 3.208 65.1827 3.04476 64.8896 2.93957C64.5964 2.83437 64.2849 2.78939 63.9738 2.80734C63.5231 2.80227 63.0786 2.91164 62.6823 3.1251C62.3173 3.31884 61.9817 3.56303 61.6855 3.8504L62.6746 0.31216C62.6746 0.31216 61.3303 0.307569 60.7368 0.31216C59.8143 0.31216 59.5996 1.46029 59.5996 1.46029" fill="#C4161C"/>
<path d="M70.3432 10.5128C69.7994 10.5222 69.2587 10.4296 68.7493 10.2399C68.3051 10.0738 67.898 9.82256 67.5511 9.5003C67.2211 9.18889 66.9636 8.80937 66.7967 8.38839C66.622 7.94303 66.535 7.46839 66.5404 6.99033C66.5405 6.42337 66.6576 5.86247 66.8843 5.34235C67.1098 4.81646 67.4366 4.3396 67.8462 3.93868C68.2644 3.52903 68.7556 3.2004 69.2946 2.96958C70.38 2.51713 71.596 2.48457 72.7042 2.87828C73.1512 3.04338 73.5609 3.29491 73.9097 3.61836C74.2391 3.93049 74.4967 4.31002 74.6646 4.73079C74.8382 5.17112 74.9252 5.64055 74.9208 6.11354C74.9222 6.68408 74.8018 7.2484 74.5677 7.76918C74.3364 8.2921 74.0105 8.76825 73.6062 9.17387C73.191 9.5902 72.6989 9.92274 72.1569 10.1532C71.5838 10.398 70.9658 10.5215 70.3421 10.5158M70.502 8.32259C70.7586 8.32428 71.011 8.25809 71.2334 8.13081C71.4544 8.00595 71.6482 7.83844 71.8033 7.6381C71.9601 7.43394 72.0822 7.20565 72.1651 6.96227C72.2495 6.71976 72.2931 6.46506 72.2943 6.20842C72.3042 6.02105 72.2765 5.83359 72.2129 5.65697C72.1493 5.48035 72.051 5.31809 71.9237 5.17964C71.798 5.05269 71.6471 4.95327 71.4805 4.88775C71.314 4.82223 71.1355 4.79205 70.9566 4.79914C70.6996 4.79729 70.4467 4.86329 70.2237 4.99041C70.003 5.11506 69.8097 5.28262 69.6554 5.48312C69.4977 5.68708 69.3751 5.91562 69.2925 6.15945C69.2087 6.39682 69.1653 6.64642 69.1639 6.89801C69.1533 7.08778 69.1806 7.27776 69.2444 7.45691C69.3082 7.63607 69.4071 7.80081 69.5354 7.94158C69.6609 8.06869 69.8118 8.16822 69.9783 8.23376C70.1447 8.2993 70.3231 8.32989 70.502 8.32259Z" fill="#C4161C"/>
<path d="M76.3128 3.73613C76.156 4.31045 74.5344 10.527 74.5344 10.527H77.3378L77.9404 8.18839C78.1065 7.39483 78.4978 6.66533 79.068 6.08646C79.5926 5.63395 80.2705 5.39691 80.9642 5.42339H81.2031L81.9985 2.6232C81.3574 2.5286 80.7027 2.63559 80.1258 2.92923C79.6654 3.27346 79.2828 3.71016 79.0028 4.211L79.4308 2.59923C79.4308 2.59923 78.3151 2.57372 77.4546 2.59923C76.5941 2.62473 76.3112 3.74021 76.3112 3.74021" fill="#C4161C"/>
<path d="M32.9609 5.55856L33.3017 4.51703H31.6515C31.6515 4.51703 30.9852 4.50887 30.7925 5.378C30.6132 6.05127 29.5543 10.5295 29.5543 10.5295H31.613L31.8129 9.89605C31.8888 8.43577 32.2614 6.48482 32.9609 5.5606" fill="#C4161C"/>
<path d="M32.9732 5.54382C32.2419 6.53179 31.8898 8.41134 31.8149 9.88999C31.8149 9.88999 32.597 6.71847 34.1489 6.71847C35.0842 6.71847 36.0154 6.7098 36.0154 6.7098C36.1453 6.71213 36.2709 6.66326 36.3648 6.57384C36.4587 6.48441 36.5133 6.36168 36.5166 6.23239V4.53493C36.5223 4.40365 36.4761 4.27537 36.388 4.1775C36.2999 4.07962 36.1769 4.01991 36.0451 4.01111H35.8586C35.2974 4.0554 34.7514 4.21442 34.2548 4.47823C33.7581 4.74204 33.3215 5.10497 32.9722 5.54433" fill="#F7941E"/>
<path d="M19.6554 0.379523H20.2786C20.3956 0.377961 20.5118 0.398738 20.6209 0.44073C20.721 0.477162 20.8126 0.533572 20.89 0.606497C20.9658 0.677186 21.0257 0.76306 21.0658 0.858463C21.1076 0.956881 21.1287 1.06276 21.1278 1.1696V1.17419C21.1286 1.28167 21.1075 1.3882 21.0658 1.48736C21.0259 1.58284 20.9659 1.66874 20.89 1.73933C20.8125 1.81272 20.721 1.86995 20.6209 1.90764C20.5117 1.9493 20.3956 1.97006 20.2786 1.96885H19.6554V0.379523ZM21.5747 0.379523H22.3045C22.3891 0.373846 22.4739 0.385192 22.5539 0.412885C22.634 0.440579 22.7076 0.48405 22.7704 0.5407C22.8168 0.588914 22.8528 0.646017 22.8764 0.708536C22.8999 0.771055 22.9104 0.837683 22.9072 0.904368V0.908449C22.9122 1.02146 22.8784 1.13279 22.8114 1.22417C22.7476 1.30519 22.6621 1.36671 22.5649 1.40167L22.9549 1.96885H22.5449L22.2025 1.4588H21.9263V1.96885H21.5752L21.5747 0.379523ZM22.282 1.15174C22.3534 1.15664 22.4241 1.13482 22.4803 1.09054C22.5038 1.07035 22.5223 1.04513 22.5346 1.01677C22.5468 0.988405 22.5524 0.957648 22.551 0.926811V0.92273C22.5533 0.890509 22.5478 0.858218 22.5351 0.828513C22.5223 0.798807 22.5027 0.772537 22.4777 0.751862C22.4179 0.710335 22.3455 0.690364 22.2727 0.695246H21.9237V1.15174H22.282ZM24.1341 1.99384C23.9076 1.9972 23.6889 1.91163 23.5253 1.75565C23.4507 1.68112 23.3911 1.5932 23.3495 1.49654C23.3086 1.39523 23.2878 1.28695 23.2885 1.17776V1.17419C23.2877 1.06501 23.3095 0.956831 23.3526 0.856423C23.3939 0.757746 23.4545 0.668212 23.5309 0.593006C23.6073 0.517799 23.6978 0.458414 23.7974 0.418287C23.9059 0.373446 24.0223 0.350892 24.1398 0.35198C24.2564 0.350797 24.372 0.373362 24.4796 0.418287C24.5793 0.458401 24.6701 0.517872 24.7466 0.593236C24.8227 0.666173 24.8824 0.7543 24.9218 0.851833C24.965 0.952412 24.9868 1.06076 24.9859 1.17011V1.1747C24.9866 1.28452 24.9648 1.39333 24.9218 1.4945C24.8799 1.59209 24.8196 1.68075 24.744 1.75565C24.667 1.83179 24.5755 1.89195 24.475 1.93264C24.3669 1.97616 24.2512 1.99784 24.1347 1.99639M24.1393 1.67404C24.2058 1.67483 24.2718 1.6618 24.333 1.63578C24.3904 1.61135 24.4418 1.57481 24.4837 1.52867C24.5265 1.48341 24.5599 1.43021 24.5821 1.37209C24.6065 1.31055 24.6188 1.24493 24.6185 1.17878V1.17419C24.6188 1.10819 24.6065 1.04274 24.5821 0.981386C24.5474 0.891287 24.4861 0.813786 24.4062 0.759139C24.3263 0.704492 24.2316 0.675276 24.1347 0.675354C24.0672 0.674684 24.0004 0.687881 23.9384 0.714118C23.8816 0.739312 23.8306 0.77556 23.7882 0.82072C23.7463 0.867604 23.713 0.921473 23.6898 0.979856C23.6667 1.04081 23.6553 1.10549 23.656 1.17062V1.17521C23.6554 1.24098 23.6669 1.30631 23.6898 1.36801C23.7137 1.42682 23.7484 1.48063 23.7923 1.52663C23.8364 1.5721 23.8885 1.6091 23.9461 1.63578C24.0081 1.66203 24.0749 1.67506 24.1423 1.67404M26.2277 1.99639C26.1107 1.99778 25.9945 1.97701 25.8853 1.93519C25.7867 1.89647 25.6968 1.83855 25.6209 1.76483C25.5468 1.69095 25.4884 1.60301 25.4492 1.50623C25.4076 1.40226 25.3867 1.29121 25.3877 1.17929V1.17419C25.387 1.06527 25.4079 0.957279 25.4492 0.856423C25.4903 0.759041 25.55 0.670525 25.625 0.595786C25.7002 0.519401 25.7901 0.459013 25.8894 0.418287C25.9955 0.373281 26.1098 0.350701 26.2251 0.35198C26.2901 0.351539 26.3549 0.357003 26.4189 0.368302C26.4749 0.376548 26.53 0.390214 26.5834 0.409106C26.6328 0.426864 26.6802 0.449773 26.7248 0.477453C26.7699 0.505073 26.8127 0.536108 26.8529 0.570283L26.6315 0.836021C26.6026 0.811407 26.5721 0.788582 26.5403 0.767674C26.51 0.747858 26.4779 0.730788 26.4445 0.716668C26.4107 0.702415 26.3755 0.691813 26.3394 0.685045C26.2981 0.677044 26.256 0.673115 26.2139 0.673314C26.1515 0.673029 26.09 0.686989 26.034 0.714118C25.9789 0.740109 25.9294 0.776287 25.8879 0.82072C25.8458 0.866421 25.8126 0.91952 25.79 0.977306C25.7666 1.03818 25.7548 1.10288 25.7552 1.16807V1.17266C25.7544 1.24219 25.7662 1.31129 25.79 1.37668C25.8138 1.43552 25.8486 1.48935 25.8925 1.5353C25.9362 1.58067 25.9885 1.61707 26.0463 1.64242C26.1087 1.66718 26.1754 1.67948 26.2426 1.67863C26.3603 1.68254 26.4762 1.64914 26.5736 1.58325V1.35628H26.22V1.05381H26.9134V1.74392C26.8248 1.81787 26.7257 1.87837 26.6193 1.92345C26.4964 1.97407 26.3643 1.99891 26.2313 1.99639M27.9794 0.368812H28.3033L28.9875 1.96936H28.62L28.474 1.61232H27.7985L27.6524 1.96936H27.2937L27.9794 0.368812ZM28.3489 1.30425L28.1368 0.788586L27.9246 1.30425H28.3489ZM29.4375 0.380033H30.1673C30.2518 0.374454 30.3365 0.38585 30.4164 0.41354C30.4964 0.44123 30.5699 0.484648 30.6326 0.54121C30.6791 0.589389 30.7152 0.646487 30.7387 0.709015C30.7622 0.771542 30.7727 0.838187 30.7695 0.904878V0.908959C30.7743 1.02196 30.7405 1.13326 30.6736 1.22468C30.61 1.30567 30.5248 1.36718 30.4276 1.40218L30.8176 1.96936H30.4077L30.0653 1.45931H29.7896V1.96936H29.4385L29.4375 0.380033ZM30.1447 1.15225C30.2162 1.1572 30.287 1.13537 30.3431 1.09105C30.3666 1.07091 30.3853 1.04571 30.3976 1.01735C30.41 0.988982 30.4157 0.958199 30.4143 0.927321V0.92273C30.4166 0.890509 30.4111 0.858218 30.3983 0.828513C30.3856 0.798807 30.366 0.772537 30.341 0.751862C30.2811 0.710446 30.2088 0.690487 30.136 0.695246H29.787V1.15174L30.1447 1.15225ZM31.3286 0.380033H31.6802V1.96936H31.3286V0.380033ZM32.8533 0.368812H33.1772L33.8619 1.96936H33.4873L33.3412 1.61232H32.6673L32.5217 1.96936H32.163L32.8533 0.368812ZM33.2228 1.30425L33.0106 0.788586L32.798 1.30425H33.2228ZM34.9023 1.9918C34.7801 1.99182 34.6588 1.97112 34.5435 1.9306C34.4253 1.88784 34.3166 1.82232 34.2237 1.7378L34.4313 1.49042C34.4994 1.54661 34.5745 1.59392 34.6547 1.63119C34.7345 1.66607 34.8208 1.68346 34.9079 1.6822C34.9667 1.68578 35.0253 1.67232 35.0765 1.64344C35.0957 1.6319 35.1114 1.61555 35.1222 1.59603C35.133 1.57652 35.1385 1.55452 35.138 1.53224V1.52765C35.1384 1.50726 35.1336 1.4871 35.1242 1.469C35.1139 1.44736 35.0971 1.4295 35.076 1.41799C35.0453 1.3991 35.0124 1.38386 34.9781 1.3726C34.9249 1.35391 34.8706 1.33807 34.8157 1.32516C34.7415 1.30742 34.6685 1.28545 34.5968 1.25937C34.5373 1.23811 34.4812 1.20839 34.4303 1.17113C34.3849 1.13497 34.3483 1.08913 34.3231 1.03698C34.2966 0.974443 34.284 0.906927 34.2862 0.839082V0.836021C34.2851 0.768842 34.2991 0.702265 34.3273 0.641181C34.3536 0.582601 34.3924 0.530401 34.441 0.488165C34.4934 0.444407 34.5538 0.411153 34.6189 0.390235C34.6918 0.36673 34.7682 0.355188 34.8449 0.356061C34.9543 0.354291 35.0632 0.371553 35.1667 0.407066C35.2651 0.441413 35.357 0.492116 35.4384 0.557022L35.2559 0.820209C35.1902 0.774788 35.1198 0.736648 35.0458 0.706468C34.981 0.678594 34.9113 0.664021 34.8408 0.663623C34.7864 0.660013 34.7324 0.674356 34.687 0.704427C34.6712 0.715325 34.6583 0.729884 34.6493 0.746853C34.6404 0.763821 34.6358 0.782693 34.6358 0.801847V0.806438C34.6352 0.829749 34.6397 0.852907 34.6491 0.874275C34.6626 0.895756 34.6815 0.913342 34.7039 0.925281C34.7372 0.943685 34.7724 0.958231 34.809 0.968635C34.8546 0.982406 34.9115 0.997708 34.9797 1.01658C35.0531 1.03489 35.1249 1.05911 35.1944 1.08901C35.2527 1.11139 35.3066 1.14366 35.3538 1.18439C35.3968 1.21889 35.4306 1.26338 35.4522 1.31394C35.4761 1.37056 35.4876 1.43158 35.486 1.49297V1.49756C35.4873 1.57023 35.4726 1.64229 35.443 1.70872C35.4143 1.76787 35.373 1.82008 35.322 1.86174C35.2668 1.9046 35.204 1.93693 35.137 1.95712C35.0598 1.97898 34.9799 1.98963 34.8997 1.98874M20.2827 1.65058C20.3495 1.65139 20.4158 1.63998 20.4785 1.61691C20.5353 1.59561 20.5867 1.56219 20.6291 1.51898C20.6719 1.47632 20.7052 1.42525 20.727 1.36903C20.7521 1.30769 20.7645 1.24193 20.7634 1.17572V1.17419C20.7642 1.10816 20.7518 1.04263 20.727 0.981386C20.7057 0.92404 20.6723 0.871877 20.6291 0.82837C20.5868 0.785209 20.5353 0.751936 20.4785 0.73095C20.4162 0.706256 20.3497 0.693953 20.2827 0.694737H20.0111V1.65262L20.2827 1.65058Z" fill="#404041"/>
<path d="M18.0441 16.7696V17.2949H19.4396C19.4675 17.2908 19.496 17.2932 19.5227 17.302C19.5495 17.3108 19.5738 17.3257 19.5937 17.3456C19.6137 17.3654 19.6287 17.3896 19.6375 17.4162C19.6463 17.4429 19.6488 17.4712 19.6446 17.499V18.111C19.6488 18.1388 19.6463 18.1671 19.6375 18.1937C19.6287 18.2204 19.6137 18.2446 19.5937 18.2644C19.5738 18.2842 19.5495 18.2992 19.5227 18.3079C19.496 18.3167 19.4675 18.3192 19.4396 18.315H17.0339C17.0061 18.3192 16.9776 18.3167 16.9508 18.3079C16.9241 18.2992 16.8997 18.2842 16.8798 18.2644C16.8599 18.2446 16.8449 18.2204 16.8361 18.1937C16.8272 18.1671 16.8248 18.1388 16.8289 18.111V14.5202C16.8248 14.4925 16.8272 14.4642 16.8361 14.4375C16.8449 14.4109 16.8599 14.3867 16.8798 14.3668C16.8997 14.347 16.9241 14.3321 16.9508 14.3233C16.9776 14.3145 17.0061 14.3121 17.0339 14.3162H19.4053C19.4331 14.3121 19.4616 14.3145 19.4884 14.3233C19.5151 14.3321 19.5395 14.347 19.5594 14.3668C19.5793 14.3867 19.5943 14.4109 19.6031 14.4375C19.612 14.4642 19.6144 14.4925 19.6103 14.5202V15.1323C19.6144 15.16 19.612 15.1884 19.6031 15.215C19.5943 15.2417 19.5793 15.2659 19.5594 15.2857C19.5395 15.3055 19.5151 15.3204 19.4884 15.3292C19.4616 15.338 19.4331 15.3405 19.4053 15.3363H18.0436V15.8051H19.3202C19.3477 15.8014 19.3757 15.8043 19.4019 15.8133C19.4281 15.8224 19.4519 15.8375 19.4712 15.8573C19.4905 15.8771 19.5049 15.9012 19.5132 15.9275C19.5215 15.9539 19.5235 15.9818 19.519 16.0091V16.5793C19.5229 16.6062 19.5204 16.6336 19.5118 16.6593C19.5032 16.6851 19.4886 16.7085 19.4693 16.7276C19.45 16.7468 19.4265 16.7612 19.4006 16.7697C19.3747 16.7782 19.3472 16.7806 19.3202 16.7767L18.0441 16.7696ZM17.9984 13.3874C18.0132 13.3458 18.0412 13.31 18.0782 13.2855C18.1152 13.2611 18.1591 13.2492 18.2034 13.2517H19.0204C19.0448 13.2483 19.0695 13.2543 19.0896 13.2686C19.1096 13.2828 19.1234 13.3042 19.128 13.3282C19.1338 13.3524 19.1326 13.3777 19.1245 13.4011C19.1164 13.4246 19.1018 13.4453 19.0824 13.4609L18.6114 13.9408C18.5799 13.9712 18.5426 13.9949 18.5016 14.0104C18.4606 14.0259 18.4169 14.033 18.3731 14.0311H17.9364C17.9162 14.0334 17.8957 14.0311 17.8765 14.0243C17.8573 14.0175 17.8399 14.0064 17.8257 13.9918C17.8152 13.9762 17.8089 13.9582 17.8074 13.9394C17.8058 13.9207 17.8092 13.9018 17.817 13.8847L17.9984 13.3874Z" fill="#404041"/>
<path d="M24.3412 18.1192C24.3448 18.1452 24.3424 18.1717 24.334 18.1967C24.3256 18.2216 24.3115 18.2442 24.2928 18.2628C24.2742 18.2814 24.2514 18.2955 24.2263 18.3038C24.2013 18.3122 24.1746 18.3146 24.1485 18.311H23.4904C23.445 18.3151 23.3996 18.3024 23.363 18.2753C23.3264 18.2482 23.3011 18.2086 23.2921 18.164L23.2408 18.0003C23.1212 18.127 22.9743 18.2249 22.8111 18.2867C22.648 18.3486 22.4728 18.3727 22.2989 18.3574C22.0492 18.3677 21.8045 18.2851 21.6126 18.1258C21.52 18.0376 21.4482 17.9301 21.4021 17.8111C21.356 17.6921 21.3369 17.5644 21.3461 17.4372C21.3439 17.3088 21.3631 17.1809 21.403 17.0588C21.4374 16.955 21.4979 16.8618 21.5788 16.7879C21.6585 16.7161 21.7483 16.6562 21.8453 16.6099C21.9636 16.5568 22.0886 16.5197 22.2169 16.4997C22.3643 16.4746 22.5129 16.4576 22.6622 16.4487C22.8098 16.4392 22.9877 16.4326 23.1957 16.4289V16.3442C23.1957 16.1521 23.0331 16.056 22.7078 16.056C22.4461 16.0618 22.1873 16.1115 21.9422 16.2029C21.9189 16.2156 21.8928 16.2227 21.8662 16.2233C21.8396 16.224 21.8133 16.2183 21.7894 16.2067C21.7655 16.1951 21.7447 16.1779 21.7288 16.1567C21.713 16.1354 21.7025 16.1107 21.6982 16.0846L21.5619 15.6668C21.5515 15.6433 21.5464 15.6177 21.5469 15.592C21.5474 15.5663 21.5536 15.541 21.565 15.5179C21.5764 15.4948 21.5927 15.4744 21.6127 15.4582C21.6328 15.442 21.6562 15.4303 21.6813 15.424C22.0694 15.2709 22.4836 15.1941 22.901 15.1981C23.2804 15.172 23.658 15.269 23.9773 15.4745C24.0995 15.5695 24.1966 15.6926 24.2604 15.8333C24.3241 15.974 24.3526 16.1279 24.3432 16.2819L24.3412 18.1192ZM23.1952 16.9899C23.0026 16.9814 22.8101 17.0092 22.6279 17.072C22.5748 17.096 22.5305 17.1357 22.501 17.1858C22.4715 17.2358 22.4584 17.2937 22.4634 17.3515C22.4612 17.3906 22.4674 17.4297 22.4816 17.4662C22.4959 17.5027 22.5178 17.5358 22.5459 17.5632C22.6097 17.6171 22.692 17.6443 22.7755 17.6392C22.8325 17.6473 22.8906 17.6421 22.9453 17.624C22.9999 17.6058 23.0495 17.5753 23.0903 17.5347C23.131 17.4942 23.1617 17.4448 23.1799 17.3904C23.1981 17.3361 23.2034 17.2782 23.1952 17.2215V16.9899Z" fill="#404041"/>
<path d="M25.8105 18.3777C25.4612 18.385 25.1137 18.3276 24.7855 18.2084C24.7606 18.2016 24.7375 18.1897 24.7175 18.1735C24.6975 18.1573 24.6811 18.1372 24.6693 18.1144C24.6576 18.0915 24.6507 18.0665 24.6492 18.0409C24.6477 18.0153 24.6515 17.9897 24.6604 17.9656L24.7681 17.5928C24.7724 17.5666 24.7828 17.5418 24.7986 17.5204C24.8143 17.499 24.8349 17.4816 24.8586 17.4695C24.8823 17.4574 24.9086 17.4511 24.9352 17.451C24.9619 17.4509 24.9882 17.457 25.012 17.4688C25.1995 17.5265 25.3944 17.5569 25.5906 17.5591C25.8817 17.5591 26.0273 17.5045 26.0273 17.3954C26.0254 17.3686 26.0158 17.343 25.9998 17.3215C25.9837 17.3 25.9617 17.2835 25.9365 17.274C25.8339 17.2255 25.7277 17.1849 25.6188 17.1526L25.3492 17.0623C25.2652 17.0298 25.1836 16.991 25.1053 16.9465C25.0151 16.9018 24.9343 16.8406 24.867 16.766C24.8066 16.6872 24.7587 16.5996 24.725 16.5064C24.68 16.3864 24.6579 16.259 24.6599 16.131C24.6509 15.9935 24.6781 15.8561 24.7388 15.7323C24.7994 15.6085 24.8915 15.5026 25.0059 15.425C25.2935 15.2559 25.625 15.1753 25.9586 15.1935C26.2833 15.1834 26.6068 15.2353 26.9118 15.3465C26.9366 15.3534 26.9598 15.3653 26.9797 15.3815C26.9996 15.3977 27.016 15.4179 27.0277 15.4407C27.0394 15.4635 27.0462 15.4885 27.0477 15.5141C27.0492 15.5397 27.0453 15.5653 27.0364 15.5893L26.9288 15.9616C26.9238 15.9874 26.9129 16.0118 26.897 16.0328C26.8811 16.0538 26.8607 16.0709 26.8372 16.0828C26.8137 16.0948 26.7877 16.1012 26.7613 16.1017C26.7349 16.1022 26.7087 16.0967 26.6848 16.0856C26.5095 16.0365 26.3282 16.0117 26.1462 16.0121C25.9268 16.0121 25.8171 16.0667 25.8171 16.1759C25.8187 16.1973 25.8252 16.218 25.836 16.2366C25.8469 16.2551 25.8618 16.271 25.8797 16.283C25.921 16.3165 25.9669 16.344 26.016 16.3646C26.0652 16.3853 26.1427 16.4164 26.2487 16.4579C26.3809 16.5069 26.4801 16.5444 26.5464 16.5706C26.631 16.6064 26.7126 16.6489 26.7904 16.6976C26.8723 16.7437 26.9454 16.804 27.0062 16.8756C27.0596 16.9469 27.1017 17.0258 27.1312 17.1098C27.1688 17.2159 27.187 17.3278 27.185 17.4403C27.185 18.0653 26.7273 18.3777 25.812 18.3777" fill="#404041"/>
<path d="M28.5334 18.3778C28.1841 18.385 27.8366 18.3276 27.5084 18.2084C27.4835 18.2016 27.4604 18.1897 27.4404 18.1736C27.4204 18.1574 27.404 18.1372 27.3922 18.1144C27.3805 18.0916 27.3736 18.0666 27.3721 18.041C27.3706 18.0154 27.3744 17.9897 27.3834 17.9657L27.491 17.5928C27.4953 17.5666 27.5057 17.5418 27.5215 17.5204C27.5372 17.499 27.5577 17.4816 27.5815 17.4695C27.6052 17.4575 27.6315 17.4511 27.6581 17.451C27.6848 17.4509 27.7111 17.457 27.7349 17.4689C27.9224 17.5265 28.1173 17.5569 28.3135 17.5591C28.6046 17.5591 28.7502 17.5046 28.7502 17.3954C28.7483 17.3687 28.7387 17.343 28.7227 17.3215C28.7066 17.3 28.6847 17.2835 28.6595 17.274C28.5568 17.2255 28.4506 17.185 28.3417 17.1526L28.0722 17.0624C27.9881 17.0298 27.9065 16.9911 27.8282 16.9466C27.738 16.9019 27.6572 16.8406 27.5899 16.766C27.5295 16.6872 27.4816 16.5996 27.4479 16.5064C27.4029 16.3864 27.3808 16.2591 27.3828 16.131C27.3738 15.9935 27.401 15.8561 27.4617 15.7324C27.5223 15.6086 27.6144 15.5026 27.7288 15.4251C28.0165 15.2558 28.3483 15.1753 28.682 15.1935C29.0067 15.1834 29.3303 15.2353 29.6353 15.3465C29.6601 15.3533 29.6833 15.3652 29.7033 15.3814C29.7233 15.3976 29.7397 15.4177 29.7514 15.4406C29.7632 15.4634 29.77 15.4884 29.7716 15.514C29.7731 15.5396 29.7692 15.5653 29.7603 15.5893L29.6527 15.9616C29.6477 15.9875 29.6368 16.0118 29.621 16.0328C29.6051 16.0538 29.5846 16.0709 29.5611 16.0829C29.5376 16.0948 29.5116 16.1013 29.4852 16.1017C29.4588 16.1022 29.4327 16.0967 29.4087 16.0856C29.2333 16.0364 29.0518 16.0117 28.8696 16.0121C28.6502 16.0121 28.5406 16.0667 28.5406 16.1759C28.5422 16.1973 28.5486 16.218 28.5594 16.2366C28.5703 16.2551 28.5852 16.271 28.6031 16.283C28.6444 16.3165 28.6903 16.344 28.7394 16.3646C28.7886 16.3853 28.8662 16.4164 28.9721 16.4579C29.1043 16.5069 29.2036 16.5445 29.2699 16.5707C29.3544 16.6064 29.436 16.6489 29.5138 16.6977C29.5958 16.7438 29.6688 16.8041 29.7295 16.8757C29.783 16.9469 29.8251 17.0259 29.8546 17.1098C29.8922 17.2159 29.9104 17.3278 29.9084 17.4403C29.9084 18.0653 29.4508 18.3778 28.5354 18.3778" fill="#404041"/>
<path d="M31.4382 14.8048C31.4419 14.8309 31.4395 14.8574 31.4311 14.8823C31.4227 14.9073 31.4086 14.9299 31.3899 14.9485C31.3712 14.9671 31.3485 14.9811 31.3234 14.9895C31.2983 14.9978 31.2717 15.0003 31.2455 14.9966H30.4286C30.4024 15.0003 30.3758 14.9978 30.3507 14.9895C30.3257 14.9811 30.3029 14.9671 30.2842 14.9485C30.2655 14.9299 30.2515 14.9073 30.2431 14.8823C30.2347 14.8574 30.2322 14.8309 30.2359 14.8048V14.5054C30.2322 14.4794 30.2347 14.4529 30.2431 14.4279C30.2515 14.403 30.2655 14.3803 30.2842 14.3618C30.3029 14.3432 30.3257 14.3291 30.3507 14.3208C30.3758 14.3125 30.4024 14.31 30.4286 14.3137H31.2445C31.2707 14.31 31.2973 14.3125 31.3224 14.3208C31.3474 14.3291 31.3702 14.3432 31.3889 14.3618C31.4076 14.3803 31.4216 14.403 31.43 14.4279C31.4384 14.4529 31.4409 14.4794 31.4372 14.5054L31.4382 14.8048ZM31.427 18.1202C31.4306 18.1462 31.4282 18.1727 31.4198 18.1977C31.4114 18.2226 31.3973 18.2453 31.3786 18.2639C31.3599 18.2825 31.3372 18.2965 31.3121 18.3048C31.2871 18.3132 31.2604 18.3156 31.2343 18.312H30.4399C30.4137 18.3157 30.387 18.3133 30.3618 18.305C30.3367 18.2967 30.3139 18.2827 30.2951 18.2641C30.2764 18.2455 30.2623 18.2228 30.2539 18.1978C30.2454 18.1729 30.243 18.1463 30.2467 18.1202V15.4541C30.243 15.428 30.2454 15.4015 30.2539 15.3765C30.2623 15.3515 30.2764 15.3288 30.2951 15.3102C30.3139 15.2916 30.3367 15.2776 30.3618 15.2693C30.387 15.261 30.4137 15.2586 30.4399 15.2623H31.2343C31.2604 15.2587 31.2871 15.2611 31.3121 15.2695C31.3372 15.2778 31.3599 15.2919 31.3786 15.3105C31.3973 15.3291 31.4114 15.3517 31.4198 15.3766C31.4282 15.4016 31.4306 15.4281 31.427 15.4541V18.1202Z" fill="#404041"/>
<path d="M34.8192 18.1192C34.8229 18.1452 34.8204 18.1717 34.812 18.1967C34.8036 18.2216 34.7896 18.2442 34.7709 18.2628C34.7522 18.2814 34.7294 18.2955 34.7044 18.3038C34.6793 18.3122 34.6527 18.3146 34.6265 18.311H33.8547C33.8285 18.3146 33.8019 18.3122 33.7768 18.3038C33.7518 18.2955 33.729 18.2814 33.7103 18.2628C33.6916 18.2442 33.6775 18.2216 33.6692 18.1967C33.6608 18.1717 33.6583 18.1452 33.662 18.1192V16.5666C33.669 16.4563 33.6495 16.346 33.6051 16.2447C33.5842 16.21 33.5538 16.182 33.5175 16.164C33.4812 16.1459 33.4405 16.1385 33.4001 16.1427C33.3503 16.1395 33.3004 16.1493 33.2555 16.171C33.2106 16.1927 33.1721 16.2257 33.1439 16.2666C33.083 16.3648 33.0533 16.4789 33.0588 16.5941V18.1187C33.0624 18.1447 33.06 18.1712 33.0516 18.1962C33.0432 18.2211 33.0291 18.2437 33.0104 18.2623C32.9918 18.2809 32.969 18.2949 32.9439 18.3033C32.9189 18.3116 32.8922 18.3141 32.8661 18.3104H32.083C32.0568 18.3141 32.0301 18.3116 32.0051 18.3033C31.98 18.2949 31.9573 18.2809 31.9386 18.2623C31.9199 18.2437 31.9058 18.2211 31.8975 18.1962C31.8891 18.1712 31.8866 18.1447 31.8903 18.1187V15.4536C31.8866 15.4276 31.8891 15.4011 31.8975 15.3761C31.9058 15.3512 31.9199 15.3285 31.9386 15.31C31.9573 15.2914 31.98 15.2773 32.0051 15.269C32.0301 15.2606 32.0568 15.2582 32.083 15.2618H32.7866C32.8321 15.2577 32.8775 15.2704 32.9141 15.2975C32.9507 15.3246 32.9759 15.3642 32.985 15.4087L33.0475 15.6061C33.1496 15.4738 33.2818 15.3674 33.4333 15.2958C33.5847 15.2241 33.7511 15.1892 33.9187 15.194C34.0821 15.1772 34.2469 15.2097 34.3915 15.2872C34.5362 15.3647 34.6541 15.4836 34.73 15.6286C34.8406 15.4863 34.9838 15.3726 35.1478 15.297C35.3117 15.2213 35.4915 15.186 35.672 15.194C35.8025 15.1822 35.9338 15.2016 36.0552 15.2507C36.1766 15.2997 36.2843 15.377 36.3695 15.4761C36.5324 15.7337 36.608 16.0365 36.5853 16.3401V18.1187C36.5889 18.1447 36.5865 18.1712 36.5781 18.1962C36.5697 18.2211 36.5556 18.2437 36.5369 18.2623C36.5183 18.2809 36.4955 18.2949 36.4704 18.3033C36.4454 18.3116 36.4188 18.3141 36.3926 18.3104H35.6095C35.5833 18.3141 35.5567 18.3116 35.5316 18.3033C35.5066 18.2949 35.4838 18.2809 35.4651 18.2623C35.4464 18.2437 35.4323 18.2211 35.424 18.1962C35.4156 18.1712 35.4131 18.1447 35.4168 18.1187V16.566C35.4168 16.2838 35.3261 16.1427 35.1447 16.1427C34.9253 16.1427 34.8156 16.2933 34.8156 16.5946L34.8192 18.1192Z" fill="#404041"/>
<path d="M40.5034 15.4093C40.5124 15.3647 40.5376 15.3251 40.5743 15.298C40.6109 15.2709 40.6563 15.2582 40.7017 15.2624H41.3941C41.4203 15.2587 41.447 15.2611 41.4721 15.2695C41.4972 15.2779 41.52 15.292 41.5387 15.3106C41.5574 15.3293 41.5715 15.352 41.5798 15.377C41.5881 15.402 41.5905 15.4286 41.5868 15.4547V18.7404C41.5904 18.7665 41.588 18.793 41.5796 18.8179C41.5712 18.8428 41.5571 18.8655 41.5384 18.8841C41.5198 18.9027 41.497 18.9167 41.4719 18.9251C41.4469 18.9334 41.4203 18.9358 41.3941 18.9322H40.5982C40.572 18.9358 40.5453 18.9334 40.5203 18.9251C40.4952 18.9167 40.4725 18.9027 40.4538 18.8841C40.4351 18.8655 40.421 18.8428 40.4127 18.8179C40.4043 18.793 40.4018 18.7665 40.4055 18.7404V18.0401C40.3194 18.1561 40.1995 18.2428 40.0621 18.2885C39.9153 18.3467 39.7589 18.3773 39.6008 18.3788C39.4303 18.3893 39.2597 18.3586 39.1036 18.2893C38.9476 18.22 38.8106 18.1142 38.7045 17.9809C38.5034 17.6147 38.3981 17.204 38.3981 16.7867C38.3981 16.3693 38.5034 15.9586 38.7045 15.5924C38.8106 15.459 38.9475 15.3532 39.1036 15.284C39.2597 15.2147 39.4303 15.184 39.6008 15.1945C39.7681 15.1972 39.933 15.2336 40.0857 15.3016C40.2319 15.3567 40.3603 15.4503 40.4572 15.5725L40.5034 15.4093ZM40.3163 16.2503C40.2841 16.1974 40.2381 16.1542 40.1831 16.1253C40.1281 16.0965 40.0663 16.0831 40.0042 16.0866C39.9431 16.0831 39.8821 16.0963 39.8279 16.1247C39.7738 16.1531 39.7284 16.1956 39.6967 16.2478C39.5643 16.5951 39.5643 16.9787 39.6967 17.326C39.7284 17.3782 39.7738 17.4208 39.8279 17.4492C39.8821 17.4776 39.9431 17.4907 40.0042 17.4872C40.0663 17.4907 40.1281 17.4773 40.1831 17.4484C40.238 17.4196 40.2841 17.3764 40.3163 17.3235C40.452 16.9792 40.452 16.5966 40.3163 16.2524" fill="#404041"/>
<path d="M42.0065 15.4542C42.0028 15.4281 42.0052 15.4015 42.0135 15.3765C42.0219 15.3515 42.036 15.3288 42.0546 15.3101C42.0733 15.2915 42.0961 15.2774 42.1212 15.269C42.1463 15.2606 42.173 15.2582 42.1992 15.2619H42.9916C43.0178 15.2582 43.0445 15.2606 43.0696 15.269C43.0947 15.2774 43.1175 15.2915 43.1362 15.3101C43.1549 15.3288 43.1689 15.3515 43.1773 15.3765C43.1856 15.4015 43.188 15.4281 43.1842 15.4542V17.0404C43.1778 17.1442 43.1974 17.248 43.2411 17.3424C43.2653 17.3775 43.2988 17.4054 43.3379 17.4228C43.3769 17.4403 43.4201 17.4467 43.4625 17.4413C43.7017 17.4413 43.8213 17.2907 43.8213 16.9894V15.4536C43.8175 15.4276 43.8199 15.401 43.8283 15.376C43.8366 15.351 43.8507 15.3283 43.8694 15.3096C43.8881 15.291 43.9109 15.2769 43.936 15.2685C43.9611 15.2601 43.9878 15.2577 44.014 15.2614H44.8084C44.8346 15.2577 44.8613 15.2601 44.8864 15.2685C44.9115 15.2769 44.9343 15.291 44.953 15.3096C44.9717 15.3283 44.9857 15.351 44.9941 15.376C45.0024 15.401 45.0048 15.4276 45.0011 15.4536V18.1187C45.0049 18.1447 45.0025 18.1713 44.9941 18.1963C44.9858 18.2213 44.9717 18.244 44.953 18.2626C44.9343 18.2812 44.9114 18.2952 44.8863 18.3035C44.8612 18.3118 44.8345 18.3142 44.8084 18.3105H44.1047C44.0593 18.3146 44.0139 18.3019 43.9773 18.2748C43.9407 18.2477 43.9154 18.2081 43.9064 18.1636L43.8439 17.9662C43.7536 18.1018 43.6289 18.2113 43.4825 18.2837C43.3361 18.356 43.1731 18.3887 43.01 18.3783C42.872 18.3903 42.733 18.3739 42.6017 18.33C42.4704 18.2861 42.3496 18.2157 42.2469 18.1233C42.0631 17.8809 41.9771 17.5789 42.006 17.2766L42.0065 15.4542Z" fill="#404041"/>
<path d="M47.931 17.4245C47.9542 17.4108 47.9804 17.4031 48.0072 17.402C48.0341 17.4009 48.0609 17.4065 48.0851 17.4182C48.1093 17.4299 48.1301 17.4475 48.1458 17.4692C48.1615 17.4909 48.1715 17.5162 48.175 17.5428L48.2883 17.8927C48.2967 17.9164 48.3002 17.9415 48.2987 17.9666C48.2973 17.9917 48.2908 18.0162 48.2798 18.0388C48.2687 18.0614 48.2532 18.0816 48.2343 18.0982C48.2153 18.1148 48.1933 18.1274 48.1693 18.1355C47.8292 18.3024 47.4538 18.3857 47.0746 18.3783C46.6081 18.4095 46.1471 18.2637 45.7842 17.9702C45.6281 17.8169 45.5069 17.6318 45.4291 17.4277C45.3513 17.2236 45.3186 17.0052 45.3332 16.7874C45.3125 16.5752 45.3389 16.361 45.4105 16.1601C45.4821 15.9591 45.5971 15.7762 45.7475 15.6244C45.898 15.4726 46.0801 15.3555 46.2809 15.2814C46.4818 15.2072 46.6966 15.1779 46.9101 15.1955C47.1111 15.1839 47.3123 15.2142 47.5008 15.2844C47.6893 15.3547 47.861 15.4634 48.0048 15.6036C48.1393 15.7516 48.2431 15.9245 48.3103 16.1125C48.3775 16.3005 48.4067 16.4999 48.3964 16.6991V16.97C48.4 16.996 48.3976 17.0226 48.3892 17.0475C48.3808 17.0724 48.3668 17.0951 48.3481 17.1137C48.3294 17.1323 48.3066 17.1463 48.2816 17.1546C48.2565 17.163 48.2299 17.1654 48.2037 17.1618H46.496C46.5408 17.3037 46.6352 17.4251 46.7622 17.5037C46.8891 17.5824 47.0401 17.6133 47.1879 17.5907C47.4445 17.5892 47.6978 17.5333 47.931 17.427M46.5986 16.1228C46.5084 16.2482 46.458 16.3976 46.454 16.5518H47.3673V16.5125C47.3673 16.1626 47.2236 15.9875 46.9363 15.9871C46.8733 15.983 46.8103 15.9931 46.7518 16.0165C46.6934 16.04 46.641 16.0764 46.5986 16.1228Z" fill="#404041"/>
<path d="M53.0689 18.1192C53.0725 18.1452 53.0701 18.1717 53.0617 18.1967C53.0533 18.2216 53.0392 18.2442 53.0206 18.2628C53.0019 18.2814 52.9791 18.2955 52.9541 18.3038C52.929 18.3122 52.9023 18.3146 52.8762 18.311H52.2181C52.1727 18.3151 52.1273 18.3024 52.0906 18.2753C52.054 18.2482 52.0288 18.2086 52.0198 18.164L51.9685 18.0003C51.849 18.1269 51.7021 18.2248 51.539 18.2866C51.376 18.3485 51.2009 18.3727 51.027 18.3574C50.7773 18.3677 50.5327 18.2851 50.3408 18.1258C50.2482 18.0376 50.1762 17.9302 50.13 17.8112C50.0839 17.6922 50.0647 17.5645 50.0738 17.4372C50.0716 17.3088 50.0909 17.1809 50.1307 17.0588C50.1652 16.955 50.2256 16.8618 50.3065 16.7879C50.3862 16.7161 50.476 16.6562 50.573 16.6099C50.6913 16.5568 50.8163 16.5197 50.9445 16.4997C51.0919 16.4745 51.2406 16.4575 51.3899 16.4487C51.5375 16.4392 51.7152 16.4326 51.9229 16.4289V16.3442C51.9229 16.1521 51.7603 16.056 51.435 16.056C51.1731 16.0618 50.9141 16.1115 50.6688 16.2029C50.6455 16.2156 50.6195 16.2227 50.5929 16.2233C50.5663 16.224 50.54 16.2183 50.5161 16.2067C50.4921 16.1951 50.4714 16.1779 50.4555 16.1567C50.4396 16.1354 50.4292 16.1107 50.4249 16.0846L50.2886 15.6668C50.2782 15.6433 50.2731 15.6178 50.2736 15.5921C50.2741 15.5664 50.2801 15.5411 50.2915 15.518C50.3028 15.4949 50.319 15.4745 50.3391 15.4583C50.3591 15.4421 50.3824 15.4304 50.4074 15.424C50.7955 15.271 51.2098 15.1942 51.6272 15.1981C52.0065 15.172 52.3842 15.269 52.7034 15.4745C52.8256 15.5695 52.9228 15.6926 52.9865 15.8333C53.0503 15.974 53.0787 16.1279 53.0694 16.2819L53.0689 18.1192ZM51.9229 16.9899C51.7303 16.9814 51.5378 17.0092 51.3556 17.072C51.3025 17.096 51.2581 17.1357 51.2287 17.1858C51.1992 17.2358 51.1861 17.2937 51.1911 17.3515C51.1889 17.3906 51.1951 17.4297 51.2094 17.4662C51.2236 17.5027 51.2455 17.5358 51.2736 17.5632C51.3374 17.6172 51.4197 17.6444 51.5032 17.6392C51.5602 17.6473 51.6183 17.6421 51.6729 17.624C51.7276 17.6058 51.7772 17.5753 51.8179 17.5347C51.8587 17.4942 51.8894 17.4448 51.9076 17.3904C51.9258 17.3361 51.9311 17.2782 51.9229 17.2215V16.9899Z" fill="#404041"/>
<path d="M57.9191 17.6841C57.9191 18.561 57.3801 18.9995 56.3021 18.9995C56.0912 18.9986 55.8806 18.9815 55.6723 18.9485C55.5059 18.9295 55.3433 18.8857 55.1901 18.8184C55.1662 18.8103 55.1441 18.7976 55.1252 18.781C55.1063 18.7644 55.0908 18.7442 55.0798 18.7217C55.0687 18.6991 55.0623 18.6746 55.0608 18.6495C55.0593 18.6245 55.0628 18.5993 55.0711 18.5756L55.1844 18.1579C55.2185 18.0338 55.2999 17.9944 55.4284 18.0396C55.6703 18.127 55.9254 18.1728 56.1827 18.1748C56.3611 18.1927 56.54 18.1446 56.685 18.0396C56.7359 17.9865 56.7751 17.9234 56.7999 17.8544C56.8248 17.7853 56.8349 17.7119 56.8295 17.6387V17.5086C56.7408 17.6246 56.624 17.7165 56.4901 17.7757C56.3562 17.8349 56.2094 17.8595 56.0634 17.8473C55.9065 17.8552 55.7497 17.8312 55.6025 17.7768C55.4552 17.7225 55.3207 17.6388 55.207 17.5311C55.0908 17.3945 55.0029 17.2364 54.9484 17.0658C54.8939 16.8953 54.8737 16.7158 54.8892 16.5375C54.8593 16.1748 54.9692 15.8145 55.1967 15.5296C55.3026 15.4209 55.4304 15.3358 55.5717 15.2799C55.7131 15.224 55.8647 15.1985 56.0167 15.2052C56.1693 15.1955 56.322 15.224 56.4607 15.2881C56.5995 15.3521 56.7199 15.4497 56.8111 15.572L56.8567 15.4082C56.8657 15.3636 56.891 15.3239 56.9278 15.2968C56.9645 15.2697 57.01 15.257 57.0555 15.2613H57.7249C57.751 15.2577 57.7777 15.2601 57.8027 15.2685C57.8278 15.2768 57.8506 15.2908 57.8692 15.3094C57.8879 15.328 57.902 15.3507 57.9104 15.3756C57.9188 15.4005 57.9212 15.4271 57.9175 15.4531L57.9191 17.6841ZM56.4098 15.9958C56.1707 15.9958 56.051 16.1765 56.051 16.538C56.051 16.9069 56.1707 17.0914 56.4098 17.0914C56.649 17.0914 56.7699 16.9069 56.7726 16.538C56.7726 16.1765 56.6517 15.9958 56.4098 15.9958Z" fill="#404041"/>
<path d="M60.8466 17.4245C60.8697 17.4108 60.8959 17.4031 60.9228 17.402C60.9496 17.4009 60.9763 17.4065 61.0005 17.4182C61.0247 17.4299 61.0456 17.4475 61.0613 17.4692C61.077 17.4909 61.087 17.5162 61.0905 17.5428L61.2038 17.8927C61.2122 17.9164 61.2157 17.9415 61.2142 17.9666C61.2128 17.9917 61.2063 18.0162 61.1953 18.0388C61.1842 18.0614 61.1688 18.0816 61.1498 18.0982C61.1308 18.1148 61.1088 18.1274 61.0849 18.1355C60.7447 18.3024 60.3693 18.3857 59.9902 18.3783C59.5236 18.4095 59.0625 18.2637 58.6997 17.9702C58.5435 17.8169 58.4225 17.6318 58.3446 17.4277C58.2668 17.2236 58.234 17.0052 58.2487 16.7874C58.228 16.5752 58.2544 16.361 58.326 16.1601C58.3976 15.9591 58.5126 15.7762 58.6631 15.6244C58.8135 15.4726 58.9956 15.3555 59.1965 15.2814C59.3973 15.2072 59.6121 15.1779 59.8256 15.1955C60.0266 15.1839 60.2278 15.2142 60.4163 15.2844C60.6049 15.3547 60.7765 15.4634 60.9203 15.6036C61.0548 15.7516 61.1586 15.9245 61.2258 16.1125C61.293 16.3005 61.3222 16.4999 61.3119 16.6991V16.97C61.3156 16.996 61.3131 17.0226 61.3047 17.0475C61.2963 17.0724 61.2822 17.0951 61.2635 17.1137C61.2449 17.1323 61.2221 17.1463 61.1971 17.1546C61.172 17.163 61.1454 17.1654 61.1192 17.1618H59.4115C59.4564 17.3037 59.5508 17.4251 59.6777 17.5037C59.8046 17.5824 59.9556 17.6133 60.1034 17.5907C60.36 17.5892 60.6133 17.5334 60.8466 17.427M59.514 16.1228C59.4238 16.2482 59.3735 16.3976 59.3695 16.5518H60.2828V16.5125C60.2828 16.1626 60.1391 15.9875 59.8518 15.9871C59.7889 15.983 59.7258 15.9931 59.6674 16.0165C59.6089 16.04 59.5564 16.0764 59.514 16.1228Z" fill="#404041"/>
<path d="M64.6585 18.1191C64.6622 18.1452 64.6598 18.1717 64.6514 18.1967C64.643 18.2216 64.6289 18.2442 64.6102 18.2628C64.5916 18.2814 64.5688 18.2954 64.5437 18.3038C64.5187 18.3121 64.492 18.3146 64.4658 18.3109H63.6714C63.6453 18.3147 63.6186 18.3123 63.5935 18.304C63.5684 18.2957 63.5456 18.2817 63.5269 18.2631C63.5082 18.2445 63.4941 18.2217 63.4857 18.1968C63.4774 18.1718 63.475 18.1452 63.4788 18.1191V16.589C63.4874 16.4742 63.4649 16.3591 63.4137 16.2559C63.3869 16.2198 63.351 16.1913 63.3096 16.1734C63.2682 16.1555 63.2228 16.1487 63.178 16.1539C62.9388 16.1539 62.8192 16.3083 62.8192 16.617V18.1186C62.8228 18.1447 62.8204 18.1712 62.812 18.1961C62.8036 18.2211 62.7896 18.2437 62.7709 18.2623C62.7522 18.2809 62.7294 18.2949 62.7044 18.3033C62.6793 18.3116 62.6527 18.3141 62.6265 18.3104H61.8321C61.8059 18.3141 61.7793 18.3116 61.7543 18.3033C61.7292 18.2949 61.7064 18.2809 61.6878 18.2623C61.6691 18.2437 61.655 18.2211 61.6466 18.1961C61.6382 18.1712 61.6357 18.1447 61.6394 18.1186V15.4536C61.6357 15.4276 61.6382 15.401 61.6466 15.3761C61.655 15.3512 61.6691 15.3285 61.6878 15.3099C61.7064 15.2913 61.7292 15.2773 61.7543 15.269C61.7793 15.2606 61.8059 15.2582 61.8321 15.2618H62.5358C62.5812 15.2576 62.6266 15.2703 62.6632 15.2975C62.6998 15.3246 62.7251 15.3642 62.7341 15.4087L62.7967 15.6061C62.8965 15.4693 63.0295 15.3598 63.1832 15.2877C63.337 15.2157 63.5065 15.1834 63.6761 15.194C63.815 15.1814 63.9549 15.2012 64.0849 15.2516C64.2148 15.3021 64.3312 15.3819 64.4249 15.4847C64.5982 15.7414 64.6801 16.0485 64.6575 16.3569L64.6585 18.1191Z" fill="#404041"/>
<path d="M66.3785 16.2223V17.2623C66.3744 17.2971 66.3776 17.3323 66.3878 17.3659C66.3981 17.3994 66.4151 17.4305 66.4379 17.4571C66.4977 17.4986 66.5704 17.5176 66.6429 17.5107C66.658 17.5107 66.6892 17.5078 66.7367 17.502C66.7753 17.4969 66.8142 17.494 66.8531 17.4933C66.959 17.4933 67.012 17.5517 67.012 17.6683V18.1202C67.0141 18.1442 67.011 18.1684 67.0032 18.1913C66.9953 18.2141 66.9828 18.2351 66.9663 18.2528C66.9253 18.2861 66.8765 18.3084 66.8244 18.3176C66.6472 18.3549 66.4663 18.372 66.2852 18.3686C65.9967 18.3931 65.7089 18.314 65.4739 18.1457C65.3796 18.0456 65.3079 17.9265 65.2637 17.7964C65.2195 17.6664 65.2038 17.5284 65.2177 17.3918V16.2233H65.0363C65.0101 16.227 64.9835 16.2245 64.9584 16.2162C64.9334 16.2078 64.9106 16.1938 64.8919 16.1752C64.8732 16.1566 64.8591 16.134 64.8508 16.109C64.8424 16.0841 64.8399 16.0576 64.8436 16.0315V15.5913C64.8399 15.5653 64.8424 15.5388 64.8508 15.5138C64.8591 15.4889 64.8732 15.4663 64.8919 15.4477C64.9106 15.4291 64.9334 15.415 64.9584 15.4067C64.9835 15.3984 65.0101 15.3959 65.0363 15.3996H65.229V14.7334C65.229 14.6205 65.2951 14.5641 65.4273 14.5641H66.1648C66.2974 14.5641 66.3635 14.6205 66.3631 14.7334V15.3996H66.8172C66.8434 15.3959 66.87 15.3984 66.8951 15.4067C66.9201 15.415 66.9429 15.4291 66.9616 15.4477C66.9803 15.4663 66.9943 15.4889 67.0027 15.5138C67.0111 15.5388 67.0136 15.5653 67.0099 15.5913V16.0315C67.0136 16.0576 67.0111 16.0841 67.0027 16.109C66.9943 16.134 66.9803 16.1566 66.9616 16.1752C66.9429 16.1938 66.9201 16.2078 66.8951 16.2162C66.87 16.2245 66.8434 16.227 66.8172 16.2233L66.3785 16.2223Z" fill="#404041"/>
<path d="M69.7984 17.4245C69.8216 17.4109 69.8477 17.4033 69.8746 17.4023C69.9014 17.4013 69.9281 17.4069 69.9523 17.4186C69.9764 17.4303 69.9972 17.4478 70.0129 17.4694C70.0287 17.4911 70.0388 17.5163 70.0423 17.5428L70.1556 17.8927C70.164 17.9164 70.1675 17.9415 70.1661 17.9666C70.1646 17.9917 70.1582 18.0162 70.1471 18.0388C70.1361 18.0614 70.1207 18.0816 70.1017 18.0982C70.0828 18.1148 70.0606 18.1274 70.0367 18.1355C69.6966 18.3024 69.3212 18.3857 68.942 18.3783C68.4755 18.4095 68.0144 18.2637 67.6516 17.9702C67.4954 17.8169 67.3743 17.6318 67.2965 17.4277C67.2187 17.2236 67.186 17.0052 67.2006 16.7874C67.1799 16.5752 67.2062 16.361 67.2778 16.1601C67.3494 15.9591 67.4646 15.7762 67.615 15.6244C67.7654 15.4726 67.9474 15.3555 68.1483 15.2814C68.3492 15.2072 68.564 15.1779 68.7775 15.1955C68.9784 15.1839 69.1797 15.2142 69.3682 15.2844C69.5567 15.3547 69.7283 15.4634 69.8722 15.6036C70.0066 15.7516 70.1104 15.9245 70.1776 16.1125C70.2448 16.3005 70.2741 16.4999 70.2637 16.6991V16.97C70.2674 16.996 70.2649 17.0226 70.2566 17.0475C70.2482 17.0724 70.2341 17.0951 70.2154 17.1137C70.1968 17.1323 70.174 17.1463 70.1489 17.1546C70.1239 17.163 70.0972 17.1654 70.0711 17.1618H68.3634C68.4082 17.3037 68.5026 17.4251 68.6295 17.5037C68.7564 17.5824 68.9075 17.6133 69.0553 17.5907C69.3118 17.5892 69.5652 17.5334 69.7984 17.427M68.4659 16.1228C68.3758 16.2482 68.3254 16.3976 68.3214 16.5518H69.2347V16.5125C69.2347 16.1626 69.091 15.9875 68.8036 15.9871C68.7407 15.983 68.6777 15.9931 68.6192 16.0166C68.5607 16.0401 68.5084 16.0764 68.4659 16.1228Z" fill="#404041"/>
<path d="M73.8149 15.3975C73.8411 15.3938 73.8678 15.3962 73.8929 15.4045C73.918 15.4128 73.9408 15.4268 73.9596 15.4454C73.9783 15.464 73.9925 15.4867 74.0009 15.5117C74.0093 15.5366 74.0118 15.5632 74.0081 15.5893V16.0295C74.0118 16.0556 74.0093 16.0822 74.0009 16.1071C73.9925 16.1321 73.9783 16.1548 73.9596 16.1734C73.9408 16.192 73.918 16.206 73.8929 16.2143C73.8678 16.2226 73.8411 16.225 73.8149 16.2213H73.3951V18.1411C73.3951 18.254 73.329 18.3104 73.1968 18.3104H72.4367C72.3042 18.3104 72.2381 18.254 72.2384 18.1411V16.2208H72.057C72.0308 16.2245 72.0041 16.2221 71.979 16.2138C71.9539 16.2055 71.9311 16.1915 71.9124 16.1729C71.8937 16.1543 71.8796 16.1316 71.8712 16.1066C71.8629 16.0816 71.8605 16.055 71.8643 16.029V15.5888C71.8606 15.5628 71.8631 15.5362 71.8715 15.5113C71.8799 15.4864 71.8939 15.4637 71.9126 15.4451C71.9313 15.4265 71.954 15.4125 71.9791 15.4042C72.0041 15.3958 72.0308 15.3934 72.057 15.397H72.2384V15.2108C72.2256 15.0769 72.2428 14.9418 72.289 14.8154C72.3352 14.689 72.4091 14.5744 72.5054 14.4799C72.7446 14.3134 73.0344 14.2346 73.3254 14.2571C73.4911 14.2537 73.6567 14.269 73.819 14.3024C73.8709 14.3116 73.9196 14.3339 73.9604 14.3672C73.9768 14.385 73.9894 14.4059 73.9972 14.4288C74.0051 14.4516 74.0081 14.4758 74.006 14.4998V14.8951C74.006 15.0267 73.9531 15.0925 73.8472 15.0925C73.8171 15.0925 73.7802 15.0906 73.7364 15.0869C73.6929 15.0833 73.6637 15.0813 73.6483 15.0813C73.5772 15.0736 73.5057 15.0917 73.4469 15.1323C73.4266 15.1564 73.4114 15.1843 73.4021 15.2143C73.3929 15.2444 73.3898 15.276 73.3931 15.3072V15.3975H73.8149Z" fill="#404041"/>
<path d="M76.9918 18.1192C76.9955 18.1453 76.9931 18.1718 76.9847 18.1968C76.9762 18.2218 76.962 18.2445 76.9433 18.2631C76.9246 18.2817 76.9017 18.2957 76.8766 18.304C76.8515 18.3123 76.8248 18.3147 76.7986 18.311H76.1406C76.0951 18.3153 76.0495 18.3026 76.0128 18.2755C75.9761 18.2484 75.9507 18.2087 75.9417 18.164L75.8905 18.0003C75.771 18.1269 75.6241 18.2248 75.461 18.2867C75.298 18.3485 75.1228 18.3727 74.949 18.3574C74.6993 18.3677 74.4547 18.2851 74.2628 18.1258C74.1701 18.0376 74.0981 17.9302 74.052 17.8112C74.0058 17.6922 73.9866 17.5645 73.9957 17.4372C73.9935 17.3088 74.0128 17.1809 74.0526 17.0588C74.087 16.955 74.1476 16.8618 74.2284 16.7879C74.3083 16.7161 74.3983 16.6561 74.4954 16.6099C74.6137 16.5568 74.7387 16.5197 74.867 16.4997C75.0144 16.4745 75.1631 16.4575 75.3123 16.4487C75.4599 16.4392 75.6378 16.4326 75.8459 16.4289V16.3442C75.8459 16.1521 75.6832 16.056 75.3579 16.056C75.0961 16.0618 74.8371 16.1115 74.5918 16.2029C74.5685 16.2156 74.5425 16.2227 74.5159 16.2233C74.4893 16.224 74.4629 16.2183 74.439 16.2067C74.4151 16.1951 74.3943 16.1779 74.3784 16.1567C74.3626 16.1354 74.3521 16.1107 74.3478 16.0846L74.2115 15.6668C74.2011 15.6433 74.196 15.6178 74.1965 15.5921C74.197 15.5664 74.2031 15.5411 74.2145 15.518C74.2258 15.4949 74.242 15.4745 74.262 15.4583C74.282 15.4421 74.3054 15.4304 74.3304 15.424C74.7185 15.271 75.1327 15.1942 75.5501 15.1981C75.9295 15.172 76.3072 15.269 76.6264 15.4745C76.7486 15.5695 76.8458 15.6926 76.9095 15.8333C76.9733 15.974 77.0017 16.1279 76.9924 16.2819L76.9918 18.1192ZM75.8459 16.9899C75.6532 16.9814 75.4608 17.0092 75.2786 17.072C75.2255 17.096 75.1811 17.1357 75.1516 17.1858C75.1222 17.2358 75.109 17.2937 75.114 17.3515C75.1119 17.3906 75.1181 17.4297 75.1324 17.4662C75.1466 17.5027 75.1685 17.5358 75.1965 17.5632C75.2604 17.6171 75.3426 17.6443 75.4261 17.6392C75.4832 17.6473 75.5413 17.6421 75.5959 17.624C75.6506 17.6058 75.7002 17.5753 75.7409 17.5347C75.7816 17.4942 75.8123 17.4448 75.8305 17.3904C75.8488 17.3361 75.854 17.2782 75.8459 17.2215V16.9899Z" fill="#404041"/>
<path d="M80.0381 15.8489C80.0358 15.9485 79.9953 16.0434 79.9248 16.1141L78.7051 17.4071H79.8792C79.9054 17.4035 79.9322 17.4059 79.9572 17.4143C79.9823 17.4226 80.0051 17.4367 80.0238 17.4554C80.0425 17.474 80.0566 17.4967 80.0649 17.5217C80.0733 17.5467 80.0757 17.5733 80.0719 17.5994V18.1186C80.0757 18.1447 80.0733 18.1713 80.065 18.1962C80.0566 18.2212 80.0425 18.2439 80.0238 18.2626C80.0051 18.2812 79.9824 18.2952 79.9572 18.3035C79.9321 18.3118 79.9054 18.3142 79.8792 18.3104H77.5299C77.5038 18.3142 77.477 18.3118 77.4519 18.3035C77.4268 18.2952 77.404 18.2812 77.3853 18.2626C77.3666 18.2439 77.3525 18.2212 77.3442 18.1962C77.3359 18.1713 77.3335 18.1447 77.3373 18.1186V17.7254C77.3361 17.6377 77.3686 17.5529 77.428 17.4882L78.6702 16.1672H77.5868C77.5606 16.1708 77.534 16.1684 77.5089 16.16C77.4839 16.1517 77.4612 16.1377 77.4425 16.1191C77.4238 16.1005 77.4097 16.0778 77.4013 16.0529C77.3929 16.028 77.3905 16.0014 77.3941 15.9754V15.4562C77.3904 15.4301 77.3928 15.4035 77.4011 15.3785C77.4095 15.3535 77.4235 15.3308 77.4422 15.3121C77.4609 15.2935 77.4837 15.2794 77.5088 15.271C77.5339 15.2626 77.5606 15.2602 77.5868 15.2639H79.8444C79.8706 15.2602 79.8973 15.2626 79.9224 15.271C79.9475 15.2794 79.9703 15.2935 79.989 15.3121C80.0077 15.3308 80.0217 15.3535 80.0301 15.3785C80.0384 15.4035 80.0408 15.4301 80.0371 15.4562L80.0381 15.8489Z" fill="#404041"/>
<path d="M80.3785 17.4245C80.3785 17.3 80.4485 17.2379 80.5886 17.2383H81.2922C81.4323 17.2383 81.5024 17.3003 81.5024 17.4245V18.1186C81.506 18.1447 81.5036 18.1712 81.4952 18.1961C81.4868 18.2211 81.4727 18.2437 81.454 18.2623C81.4353 18.2809 81.4126 18.2949 81.3876 18.3033C81.3625 18.3116 81.3358 18.3141 81.3097 18.3104H80.5722C80.546 18.3141 80.5194 18.3116 80.4943 18.3033C80.4693 18.2949 80.4465 18.2809 80.4278 18.2623C80.4091 18.2437 80.395 18.2211 80.3867 18.1961C80.3783 18.1712 80.3758 18.1447 80.3795 18.1186L80.3785 17.4245Z" fill="#404041"/>
</g>
</g>
<defs>
<clipPath id="clip0_2937_3991">
<rect width="82" height="19" fill="white"/>
</clipPath>
</defs>
</svg>
