<svg xmlns="http://www.w3.org/2000/svg" width="51.918" height="51.918" viewBox="0 0 51.918 51.918">
  <g id="Grupo_2629" data-name="Grupo 2629" transform="translate(-949 -7093.082)">
    <g id="Grupo_2618" data-name="Grupo 2618" transform="translate(16.459 -26)">
      <g id="Caminho_217044" data-name="Caminho 217044" transform="translate(932.541 7119.082)" fill="none">
        <path d="M25.959,0A25.959,25.959,0,1,1,0,25.959,25.959,25.959,0,0,1,25.959,0Z" stroke="none"/>
        <path d="M 25.9588623046875 2.000003814697266 C 22.72355270385742 2.000003814697266 19.58609390258789 2.633193969726562 16.63361358642578 3.881992340087891 C 13.78084182739258 5.088603973388672 11.2183723449707 6.816402435302734 9.017391204833984 9.017391204833984 C 6.816402435302734 11.2183723449707 5.088603973388672 13.78084182739258 3.881992340087891 16.63361358642578 C 2.633193969726562 19.58609390258789 2.000003814697266 22.72355270385742 2.000003814697266 25.9588623046875 C 2.000003814697266 29.19417190551758 2.633193969726562 32.33163452148438 3.881992340087891 35.28411102294922 C 5.088603973388672 38.13688278198242 6.816402435302734 40.6993522644043 9.017391204833984 42.90033340454102 C 11.2183723449707 45.10132217407227 13.78084182739258 46.82912063598633 16.63361358642578 48.03573226928711 C 19.58609390258789 49.28453063964844 22.72355270385742 49.91772079467773 25.9588623046875 49.91772079467773 C 29.19417190551758 49.91772079467773 32.33163452148438 49.28453063964844 35.28411102294922 48.03573226928711 C 38.13688278198242 46.82912063598633 40.6993522644043 45.10132217407227 42.90033340454102 42.90033340454102 C 45.10132217407227 40.6993522644043 46.82912063598633 38.13688278198242 48.03573226928711 35.28411102294922 C 49.28453063964844 32.33163452148438 49.91772079467773 29.19417190551758 49.91772079467773 25.9588623046875 C 49.91772079467773 22.72355270385742 49.28453063964844 19.58609390258789 48.03573226928711 16.63361358642578 C 46.82912063598633 13.78084182739258 45.10132217407227 11.2183723449707 42.90033340454102 9.017391204833984 C 40.6993522644043 6.816402435302734 38.13688278198242 5.088603973388672 35.28411102294922 3.881992340087891 C 32.33163452148438 2.633193969726562 29.19417190551758 2.000003814697266 25.9588623046875 2.000003814697266 M 25.9588623046875 3.814697265625e-06 C 40.2955436706543 3.814697265625e-06 51.91772079467773 11.6221809387207 51.91772079467773 25.9588623046875 C 51.91772079467773 40.2955436706543 40.2955436706543 51.91772079467773 25.9588623046875 51.91772079467773 C 11.6221809387207 51.91772079467773 3.814697265625e-06 40.2955436706543 3.814697265625e-06 25.9588623046875 C 3.814697265625e-06 11.6221809387207 11.6221809387207 3.814697265625e-06 25.9588623046875 3.814697265625e-06 Z" stroke="none" fill="#61dcab"/>
      </g>
      <path id="Icon_akar-arrow-up" data-name="Icon akar-arrow-up" d="M9.218,21.071V0M0,9.218,9.218,0l9.218,9.218" transform="translate(967.43 7154.6) rotate(180)" fill="none" stroke="#61dcab" stroke-linecap="round" stroke-linejoin="round" stroke-width="4"/>
    </g>
  </g>
</svg>
