<svg xmlns="http://www.w3.org/2000/svg" xmlns:xlink="http://www.w3.org/1999/xlink" width="331.799" height="331.799" viewBox="0 0 331.799 331.799">
  <defs>
    <clipPath id="clip-path">
      <rect id="Retângulo_1651" data-name="Retângulo 1651" width="331.799" height="331.799" fill="#61dcab"/>
    </clipPath>
  </defs>
  <g id="Grupo_2615" data-name="Grupo 2615" clip-path="url(#clip-path)">
    <path id="Caminho_217050" data-name="Caminho 217050" d="M1176.947,1098.1q-2.913,6.135-6.306,11.983l-60.559,60.559q-5.843,3.39-11.983,6.306Z" transform="translate(-861.109 -861.109)" fill="#61dcab"/>
    <path id="Caminho_217051" data-name="Caminho 217051" d="M1102.561,991.95q-1.305,4.309-2.836,8.514l-99.262,99.261q-4.205,1.531-8.514,2.836Z" transform="translate(-777.869 -777.869)" fill="#61dcab"/>
    <path id="Caminho_217052" data-name="Caminho 217052" d="M1039.755,906.17q-.647,3.591-1.45,7.126L913.3,1038.3q-3.535.8-7.126,1.448Z" transform="translate(-710.601 -710.601)" fill="#61dcab"/>
    <path id="Caminho_217053" data-name="Caminho 217053" d="M983.153,831.31q-.253,3.169-.628,6.3L837.614,982.525q-3.134.372-6.3.628Z" transform="translate(-651.898 -651.898)" fill="#61dcab"/>
    <path id="Caminho_217054" data-name="Caminho 217054" d="M930.671,764.769q0,2.337-.065,4.659L769.429,930.606q-2.321.065-4.659.065c-.36,0-.721,0-1.079,0L930.667,763.69c0,.358,0,.718,0,1.079" transform="translate(-598.872 -598.872)" fill="#61dcab"/>
    <path id="Caminho_217055" data-name="Caminho 217055" d="M881.621,706.753,706.76,881.613q-2.661-.145-5.3-.375L881.245,701.45q.23,2.638.376,5.3" transform="translate(-550.072 -550.064)" fill="#61dcab"/>
    <path id="Caminho_217056" data-name="Caminho 217056" d="M835.022,648.514,648.514,835.022q-2.486-.333-4.944-.733L834.289,643.57q.4,2.46.733,4.944" transform="translate(-504.676 -504.676)" fill="#61dcab"/>
    <path id="Caminho_217057" data-name="Caminho 217057" d="M790.456,593.99,593.99,790.456q-2.331-.485-4.64-1.038L789.418,589.35q.55,2.308,1.038,4.64" transform="translate(-462.157 -462.157)" fill="#61dcab"/>
    <path id="Caminho_217058" data-name="Caminho 217058" d="M747.666,542.692,542.695,747.666q-2.2-.621-4.375-1.306L746.36,538.32q.683,2.172,1.306,4.372" transform="translate(-422.141 -422.141)" fill="#61dcab"/>
    <path id="Caminho_217059" data-name="Caminho 217059" d="M706.456,494.255l-212.2,212.2q-2.082-.744-4.135-1.543L704.913,490.12q.8,2.052,1.543,4.135" transform="translate(-384.343 -384.343)" fill="#61dcab"/>
    <path id="Caminho_217060" data-name="Caminho 217060" d="M666.688,448.4,448.4,666.688q-1.972-.855-3.915-1.763L664.925,444.49q.91,1.942,1.763,3.915" transform="translate(-348.561 -348.561)" fill="#61dcab"/>
    <path id="Caminho_217061" data-name="Caminho 217061" d="M628.244,404.934,404.932,628.244q-1.871-.958-3.712-1.964L626.28,401.22q1,1.842,1.964,3.714" transform="translate(-314.629 -314.629)" fill="#61dcab"/>
    <path id="Caminho_217062" data-name="Caminho 217062" d="M591.048,363.686,363.694,591.041q-1.777-1.052-3.524-2.154L588.894,360.16q1.1,1.748,2.154,3.526" transform="translate(-282.439 -282.431)" fill="#61dcab"/>
    <path id="Caminho_217063" data-name="Caminho 217063" d="M555.038,324.563,324.563,555.038q-1.687-1.146-3.343-2.335L552.7,321.22q1.188,1.654,2.335,3.343" transform="translate(-251.895 -251.895)" fill="#61dcab"/>
    <path id="Caminho_217064" data-name="Caminho 217064" d="M520.177,287.468,287.468,520.177q-1.6-1.237-3.168-2.512L517.665,284.3q1.275,1.567,2.512,3.168" transform="translate(-222.943 -222.943)" fill="#61dcab"/>
    <path id="Caminho_217065" data-name="Caminho 217065" d="M486.429,252.348,252.348,486.429q-1.515-1.321-3-2.68l234.4-234.4q1.36,1.483,2.68,3" transform="translate(-195.536 -195.536)" fill="#61dcab"/>
    <path id="Caminho_217066" data-name="Caminho 217066" d="M453.789,219.177,219.177,453.789q-1.431-1.408-2.827-2.851L450.938,216.35q1.444,1.4,2.851,2.827" transform="translate(-169.658 -169.658)" fill="#61dcab"/>
    <path id="Caminho_217067" data-name="Caminho 217067" d="M422.252,187.949l-234.3,234.3q-1.347-1.492-2.659-3.019L419.233,185.29q1.525,1.311,3.019,2.659" transform="translate(-145.301 -145.301)" fill="#61dcab"/>
    <path id="Caminho_217068" data-name="Caminho 217068" d="M391.831,158.676,158.676,391.831q-1.263-1.58-2.486-3.192L388.639,156.19q1.612,1.224,3.192,2.486" transform="translate(-122.481 -122.481)" fill="#61dcab"/>
    <path id="Caminho_217069" data-name="Caminho 217069" d="M362.549,131.4,131.4,362.549q-1.178-1.667-2.311-3.365L359.185,129.09q1.7,1.133,3.365,2.311" transform="translate(-101.23 -101.23)" fill="#61dcab"/>
    <path id="Caminho_217070" data-name="Caminho 217070" d="M334.447,106.18,106.18,334.447q-1.088-1.758-2.13-3.548L330.9,104.05q1.79,1.042,3.55,2.13" transform="translate(-81.594 -81.594)" fill="#61dcab"/>
    <path id="Caminho_217071" data-name="Caminho 217071" d="M307.589,83.116,83.116,307.589q-.991-1.858-1.936-3.74L303.846,81.18q1.884.942,3.742,1.936" transform="translate(-63.66 -63.66)" fill="#61dcab"/>
    <path id="Caminho_217072" data-name="Caminho 217072" d="M282.035,62.325,62.325,282.035q-.893-1.959-1.735-3.945l217.5-217.5q1.984.842,3.945,1.735" transform="translate(-47.514 -47.514)" fill="#61dcab"/>
    <path id="Caminho_217073" data-name="Caminho 217073" d="M257.91,43.993,43.993,257.91q-.783-2.069-1.513-4.165L253.745,42.48q2.1.728,4.165,1.513" transform="translate(-33.312 -33.312)" fill="#61dcab"/>
    <path id="Caminho_217074" data-name="Caminho 217074" d="M235.343,28.339l-207,207q-.664-2.192-1.269-4.411L230.932,27.07q2.218.6,4.411,1.269" transform="translate(-21.228 -21.228)" fill="#61dcab"/>
    <path id="Caminho_217075" data-name="Caminho 217075" d="M214.5,15.659,15.659,214.506q-.534-2.328-1-4.679L209.827,14.66q2.35.466,4.677,1" transform="translate(-11.496 -11.496)" fill="#61dcab"/>
    <path id="Caminho_217076" data-name="Caminho 217076" d="M195.666,6.376,6.376,195.666q-.382-2.483-.686-4.992L190.674,5.69q2.509.3,4.992.686" transform="translate(-4.462 -4.462)" fill="#61dcab"/>
    <path id="Caminho_217077" data-name="Caminho 217077" d="M179.154,1.039,1.039,179.154q-.2-2.668-.319-5.357L173.8.72q2.69.117,5.357.319" transform="translate(-0.565 -0.565)" fill="#61dcab"/>
    <path id="Caminho_217078" data-name="Caminho 217078" d="M165.013,0,0,165.013q.013-2.914.127-5.806L159.207.127Q162.1.014,165.013,0" fill="#61dcab"/>
    <path id="Caminho_217079" data-name="Caminho 217079" d="M152.868,3.36,3.36,152.868q.3-3.221.725-6.4L146.465,4.085q3.182-.424,6.4-.725" transform="translate(-2.635 -2.635)" fill="#61dcab"/>
    <path id="Caminho_217080" data-name="Caminho 217080" d="M145.379,13.41,13.41,145.381q.686-3.635,1.532-7.213L138.168,14.942q3.577-.845,7.21-1.532" transform="translate(-10.516 -10.516)" fill="#61dcab"/>
    <path id="Caminho_217081" data-name="Caminho 217081" d="M144.024,37.99,37.99,144.024q1.47-4.49,3.185-8.864L135.16,41.175q4.37-1.716,8.864-3.185" transform="translate(-29.791 -29.791)" fill="#61dcab"/>
    <path id="Caminho_217082" data-name="Caminho 217082" d="M158.137,89.03,89.03,158.137q3.83-7.229,8.339-14.02l46.748-46.748q6.785-4.5,14.02-8.339" transform="translate(-69.816 -69.816)" fill="#61dcab"/>
  </g>
</svg>
