<svg xmlns="http://www.w3.org/2000/svg" width="87.057" height="224.507" viewBox="0 0 87.057 224.507">
  <g id="Grupo_2614" data-name="Grupo 2614" transform="translate(-248.738 -5528.181)">
    <g id="Grupo_2613" data-name="Grupo 2613" transform="translate(248.738 5528.181)">
      <g id="Grupo_2612" data-name="Grupo 2612" transform="translate(0 0)">
        <path id="Caminho_217045" data-name="Caminho 217045" d="M0,24.022a2.629,2.629,0,0,0,4.491,1.949l8.34-8.34A25.049,25.049,0,0,0,20.175,0,149.42,149.42,0,0,1,.434,13Z" transform="translate(48.146 69.201) rotate(-45)" fill="#61dcab"/>
        <path id="Caminho_217046" data-name="Caminho 217046" d="M2.735,20.173l11.018-.432A148.592,148.592,0,0,1,26.758,0,25.027,25.027,0,0,0,9.127,7.329L.774,15.682a2.635,2.635,0,0,0,1.962,4.491Z" transform="translate(5.715 73.856) rotate(-45)" fill="#61dcab"/>
        <path id="Caminho_217047" data-name="Caminho 217047" d="M26.056,10.709C16.518,20.247,5.575,35.509.331,47.316a3.96,3.96,0,0,0,.839,4.392l8.674,8.674a3.96,3.96,0,0,0,4.392.839c11.807-5.244,27.07-16.2,36.607-25.725A49.122,49.122,0,0,0,61.564,18.433L43.119,0A48.492,48.492,0,0,0,26.056,10.709ZM46.685,26.922a8.524,8.524,0,1,1,0-12.054A8.586,8.586,0,0,1,46.685,26.922Z" transform="translate(0 49.821) rotate(-45)" fill="#61dcab"/>
        <path id="Caminho_217048" data-name="Caminho 217048" d="M17.413.008A74.169,74.169,0,0,0,0,3.525l3.8,3.8L16.793,20.318A74.036,74.036,0,0,0,20.311,2.907a2.692,2.692,0,0,0-2.9-2.9Z" transform="translate(29.154 14.368) rotate(-45)" fill="#61dcab"/>
      </g>
      <line id="Linha_57" data-name="Linha 57" y2="27.23" transform="translate(35.681 114.852)" fill="none" stroke="#61dcab" stroke-linecap="round" stroke-width="1"/>
      <path id="Caminho_217049" data-name="Caminho 217049" d="M0,0V132.531" transform="translate(43.528 91.476)" fill="none" stroke="#61dcab" stroke-linecap="round" stroke-width="1"/>
      <line id="Linha_59" data-name="Linha 59" y2="61.496" transform="translate(51.376 137.365)" fill="none" stroke="#61dcab" stroke-linecap="round" stroke-width="1"/>
    </g>
  </g>
</svg>
