<svg xmlns="http://www.w3.org/2000/svg" xmlns:xlink="http://www.w3.org/1999/xlink" width="363.008" height="362.944" viewBox="0 0 363.008 362.944">
  <defs>
    <linearGradient id="linear-gradient" x1="-0.195" y1="1.229" x2="1.036" y2="-0.081" gradientUnits="objectBoundingBox">
      <stop offset="0" stop-color="#001b7b"/>
      <stop offset="0.581" stop-color="#205877"/>
      <stop offset="1" stop-color="#61dcab"/>
    </linearGradient>
    <filter id="Subtração_23" x="0" y="0" width="363.008" height="362.944" filterUnits="userSpaceOnUse">
      <feOffset input="SourceAlpha"/>
      <feGaussianBlur stdDeviation="12.5" result="blur"/>
      <feFlood flood-opacity="0.18"/>
      <feComposite operator="in" in2="blur"/>
      <feComposite in="SourceGraphic"/>
    </filter>
  </defs>
  <g transform="matrix(1, 0, 0, 1, 0, 0)" filter="url(#Subtração_23)">
    <path id="Subtração_23-2" data-name="Subtração 23" d="M147.925,70.934q2.839-.842,5.716-1.54t5.782-1.25q2.9-.552,5.828-.956t5.854-.657q2.856-.247,5.727-.351t5.747-.066q2.875.038,5.746.219t5.725.5q2.8.318,5.595.774t5.564,1.048q2.771.592,5.513,1.318t5.443,1.585q2.675.85,5.314,1.832t5.231,2.089q2.592,1.108,5.129,2.34t5.008,2.582q2.471,1.351,4.88,2.822t4.745,3.057q2.336,1.585,4.593,3.281t4.424,3.494q2.188,1.816,4.288,3.739t4.1,3.947q2,2.023,3.905,4.14t3.692,4.319q1.824,2.243,3.537,4.579t3.308,4.756q1.595,2.42,3.068,4.916t2.816,5.059q1.378,2.629,2.625,5.337t2.356,5.482q1.11,2.774,2.08,5.607t1.8,5.712q.825,2.879,1.5,5.8t1.207,5.856q.528,2.94.906,5.9t.6,5.915q.218,2.883.292,5.779t0,5.791q-.071,2.9-.286,5.783t-.574,5.754q-.352,2.814-.844,5.615t-1.12,5.576q-.628,2.774-1.391,5.516t-1.657,5.438q-.886,2.67-1.9,5.3t-2.158,5.209q-1.142,2.578-2.406,5.1t-2.645,4.971q-1.381,2.45-2.881,4.836t-3.112,4.693q-1.612,2.308-3.331,4.535t-3.538,4.361q-1.836,2.154-3.778,4.219t-3.979,4.03q-2.037,1.965-4.166,3.827t-4.338,3.611q-2.25,1.781-4.591,3.451t-4.76,3.22q-2.419,1.55-4.912,2.979t-5.046,2.727q-2.62,1.332-5.316,2.534t-5.452,2.267q-2.757,1.065-5.57,1.992t-5.667,1.711q-2.854.784-5.743,1.423t-5.8,1.131q-2.908.492-5.831.836t-5.845.538q-2.848.189-5.707.236t-5.715-.046q-2.856-.093-5.7-.328t-5.672-.608q-2.773-.367-5.533-.87t-5.493-1.138q-2.733-.635-5.434-1.4t-5.356-1.66q-2.63-.885-5.221-1.9t-5.132-2.146q-2.54-1.134-5.025-2.386t-4.9-2.618q-2.416-1.366-4.769-2.848t-4.632-3.072q-2.279-1.59-4.479-3.285t-4.311-3.487q-2.131-1.809-4.175-3.722t-3.993-3.918q-1.949-2.006-3.8-4.1T90.3,255.3q-1.772-2.215-3.437-4.519t-3.215-4.687q-1.55-2.382-2.981-4.837t-2.738-4.972q-1.34-2.582-2.554-5.24t-2.3-5.378q-1.082-2.72-2.03-5.5t-1.757-5.6q-.809-2.821-1.476-5.678t-1.191-5.737q-.524-2.88-.9-5.776t-.61-5.8q-.226-2.826-.312-5.665t-.034-5.679q.052-2.84.244-5.674t.521-5.65q.324-2.765.782-5.519t1.049-5.486q.59-2.732,1.311-5.434t1.57-5.363q.841-2.636,1.81-5.235t2.06-5.153q1.091-2.553,2.3-5.053t2.538-4.935q1.327-2.435,2.771-4.81t3-4.678q1.555-2.3,3.218-4.531t3.425-4.367q1.78-2.161,3.665-4.236t3.869-4.058q1.983-1.983,4.058-3.866t4.235-3.66q2.2-1.809,4.491-3.511t4.666-3.29q2.375-1.588,4.825-3.057t4.968-2.813q2.583-1.379,5.245-2.63t5.391-2.37q2.73-1.119,5.519-2.1T147.925,70.934Zm51.686,180.251a67.055,67.055,0,0,0,24.393-12.62,69.143,69.143,0,0,0,17.076-20.654,71.284,71.284,0,0,0,8.152-25.866,72.818,72.818,0,0,0-15.306-53.378A71.483,71.483,0,0,0,213.3,121.022a69.337,69.337,0,0,0-25.438-8.51,67.366,67.366,0,0,0-51.577,15.052,69.2,69.2,0,0,0-16.763,20.691,71.323,71.323,0,0,0-7.905,25.67,72.821,72.821,0,0,0,15.137,52.788,71.519,71.519,0,0,0,20.315,17.608,69.4,69.4,0,0,0,25.193,8.706A67.165,67.165,0,0,0,199.612,251.185Z" fill="url(#linear-gradient)"/>
  </g>
</svg>
