<svg width="94" height="94" viewBox="0 0 94 94" fill="none" xmlns="http://www.w3.org/2000/svg">
<path d="M0 0H74C85.0457 0 94 8.95431 94 20V94H20C8.9543 94 0 85.0457 0 74V0Z" fill="#61DCAB"/>
<path d="M46.4991 42.2007C47.5996 42.2007 48.7002 42.6199 49.54 43.4598L66.7402 60.6598C68.4199 62.3395 68.4199 65.0619 66.7402 66.7402C65.0605 68.4199 62.338 68.4199 60.6597 66.7402L46.5004 52.5811L32.3412 66.7402C30.6615 68.4199 27.939 68.4199 26.2606 66.7402C24.5809 65.0605 24.5809 62.3381 26.2606 60.6598L43.4608 43.4598C44.3007 42.6199 45.4012 42.2007 46.5018 42.2007H46.4991ZM63.6993 50.8007C62.5987 50.8007 61.4982 50.3814 60.6583 49.5416L46.4991 35.3825L32.3398 49.5416C30.6601 51.2213 27.9376 51.2213 26.2593 49.5416C24.5809 47.8619 24.5796 45.1395 26.2593 43.4611L43.4581 26.2598C45.1378 24.5801 47.8603 24.5801 49.54 26.2598L66.7402 43.4598C68.4199 45.1395 68.4199 47.8619 66.7402 49.5402C65.9004 50.3801 64.7998 50.7993 63.6993 50.7993V50.8007Z" fill="white"/>
</svg>
