<svg width="561" height="149" viewBox="0 0 561 149" fill="none" xmlns="http://www.w3.org/2000/svg">
<path d="M0 0H521C543.091 0 561 17.9086 561 40V149H40C17.9086 149 0 131.091 0 109V0Z" fill="url(#paint0_linear_2160_8834)"/>
<path d="M175.564 86.222H162.82L160.93 92H148.348L162.334 53.768H176.158L190.09 92H177.454L175.564 86.222ZM172.648 77.204L169.192 66.566L165.736 77.204H172.648ZM204.531 53.768V75.314C204.531 77.078 204.909 78.482 205.665 79.526C206.457 80.534 207.717 81.038 209.445 81.038C211.173 81.038 212.451 80.534 213.279 79.526C214.107 78.482 214.521 77.078 214.521 75.314V53.768H226.455V75.314C226.455 78.95 225.699 82.064 224.187 84.656C222.675 87.212 220.605 89.138 217.977 90.434C215.349 91.73 212.415 92.378 209.175 92.378C205.935 92.378 203.055 91.73 200.535 90.434C198.051 89.138 196.107 87.212 194.703 84.656C193.299 82.1 192.597 78.986 192.597 75.314V53.768H204.531ZM250.85 92L243.668 78.284H243.614V92H231.626V53.768H249.446C252.542 53.768 255.188 54.326 257.384 55.442C259.58 56.522 261.218 58.016 262.298 59.924C263.414 61.796 263.972 63.92 263.972 66.296C263.972 68.852 263.252 71.12 261.812 73.1C260.408 75.08 258.374 76.502 255.71 77.366L264.026 92H250.85ZM243.614 70.292H248.366C249.518 70.292 250.382 70.04 250.958 69.536C251.534 68.996 251.822 68.168 251.822 67.052C251.822 66.044 251.516 65.252 250.904 64.676C250.328 64.1 249.482 63.812 248.366 63.812H243.614V70.292ZM279.79 63.326V68.024H291.67V77.042H279.79V82.442H293.29V92H267.802V53.768H293.29V63.326H279.79ZM287.242 46.478L273.256 51.554V43.562L287.242 37.622V46.478ZM309.795 82.928H321.351V92H297.807V53.768H309.795V82.928ZM337.112 53.768V92H325.124V53.768H337.112ZM354.244 53.768V75.314C354.244 77.078 354.622 78.482 355.378 79.526C356.17 80.534 357.43 81.038 359.158 81.038C360.886 81.038 362.164 80.534 362.992 79.526C363.82 78.482 364.234 77.078 364.234 75.314V53.768H376.168V75.314C376.168 78.95 375.412 82.064 373.9 84.656C372.388 87.212 370.318 89.138 367.69 90.434C365.062 91.73 362.128 92.378 358.888 92.378C355.648 92.378 352.768 91.73 350.248 90.434C347.764 89.138 345.82 87.212 344.416 84.656C343.012 82.1 342.31 78.986 342.31 75.314V53.768H354.244ZM394.623 82.442H409.959V92H381.339V82.982L396.459 63.272H381.339V53.768H409.959V62.786L394.623 82.442Z" fill="white"/>
<defs>
<linearGradient id="paint0_linear_2160_8834" x1="280.5" y1="0" x2="280.5" y2="149" gradientUnits="userSpaceOnUse">
<stop stop-color="#034C8C"/>
<stop offset="1" stop-color="#00175D"/>
</linearGradient>
</defs>
</svg>
