<svg width="561" height="149" viewBox="0 0 561 149" fill="none" xmlns="http://www.w3.org/2000/svg">
<path d="M0 0H521C543.091 0 561 17.9086 561 40V149H40C17.9086 149 0 131.091 0 109V0Z" fill="url(#paint0_linear_2160_8796)"/>
<path d="M199.692 50.8953C199.692 43.6463 204.998 38.513 211.762 38.513C216.999 38.513 221.161 41.149 222.965 45.8314H219.184C217.866 42.9179 215.299 41.2878 211.762 41.2878C206.698 41.2878 202.917 44.9643 202.917 50.8953C202.917 56.7915 206.698 60.4681 211.762 60.4681C215.299 60.4681 217.866 58.8379 219.184 55.9591H222.965C221.161 60.6068 216.999 63.2081 211.762 63.2081C204.998 63.2081 199.692 58.1442 199.692 50.8953ZM227.663 38.8252H230.819V60.4334H239.282V63H227.663V38.8252ZM242.565 54.0862V38.8252H245.721V54.1209C245.721 58.5604 248.114 60.4681 251.687 60.4681C255.259 60.4681 257.618 58.5604 257.618 54.1209V38.8252H260.774V54.0862C260.774 60.364 256.646 63.2428 251.652 63.2428C246.657 63.2428 242.565 60.364 242.565 54.0862ZM279.774 56.2019C279.774 53.5312 277.762 51.8664 274.675 51.8664H269.195V60.3987H274.779C277.901 60.3987 279.774 58.8379 279.774 56.2019ZM279.15 45.3458C279.15 42.9526 277.519 41.4265 274.433 41.4265H269.195V49.2651H274.502C277.45 49.2651 279.15 47.8084 279.15 45.3458ZM282.93 56.5141C282.93 60.1559 280.051 63 275.057 63H266.039V38.8252H274.71C279.809 38.8252 282.375 41.5999 282.375 44.9643C282.375 48.0165 280.468 49.7854 278.144 50.5484C280.78 50.9993 282.93 53.5312 282.93 56.5141ZM300.317 38.7905V41.3918H290.466V49.4732H299.276V52.0745H290.466V60.3987H300.317V63H287.31V38.7905H300.317ZM321.866 38.8252C329.808 38.8252 334.699 43.4729 334.699 50.9646C334.699 58.4564 329.808 63 321.866 63H314.339V38.8252H321.866ZM317.496 60.3987H321.866C328.178 60.3987 331.473 56.8609 331.473 50.9646C331.473 45.0683 328.178 41.3918 321.866 41.3918H317.496V60.3987ZM361.962 50.8953C361.962 58.1442 356.655 63.2428 349.822 63.2428C343.024 63.2428 337.683 58.1442 337.683 50.8953C337.683 43.6463 343.024 38.5477 349.822 38.5477C356.655 38.5477 361.962 43.6463 361.962 50.8953ZM340.908 50.8953C340.908 56.7915 344.724 60.5027 349.822 60.5027C354.921 60.5027 358.736 56.7915 358.736 50.8953C358.736 44.9643 354.921 41.2878 349.822 41.2878C344.724 41.2878 340.908 44.9643 340.908 50.8953Z" fill="white"/>
<path d="M197.093 105.169H208.739V114.311H185.013V75.7832H197.093V105.169ZM224.621 75.7832V114.311H212.541V75.7832H224.621ZM268.878 75.7832L255.926 114.311H240.308L227.357 75.7832H240.199L248.144 102.285L256.035 75.7832H268.878ZM290.955 114.311L283.717 100.489H283.663V114.311H271.582V75.7832H289.54C292.66 75.7832 295.327 76.3455 297.54 77.4702C299.753 78.5585 301.403 80.0641 302.492 81.9869C303.616 83.8734 304.179 86.0138 304.179 88.4082C304.179 90.984 303.453 93.2696 302.002 95.2649C300.587 97.2602 298.537 98.6932 295.853 99.5639L304.233 114.311H290.955ZM283.663 92.4352H288.452C289.613 92.4352 290.483 92.1812 291.064 91.6733C291.644 91.1291 291.934 90.2947 291.934 89.1701C291.934 88.1543 291.626 87.3561 291.009 86.7757C290.429 86.1952 289.576 85.905 288.452 85.905H283.663V92.4352ZM319.847 75.7832V97.496C319.847 99.2737 320.228 100.689 320.99 101.741C321.788 102.756 323.057 103.264 324.799 103.264C326.54 103.264 327.828 102.756 328.662 101.741C329.497 100.689 329.914 99.2737 329.914 97.496V75.7832H341.941V97.496C341.941 101.16 341.179 104.298 339.655 106.91C338.131 109.486 336.045 111.427 333.397 112.733C330.749 114.039 327.792 114.692 324.527 114.692C321.262 114.692 318.359 114.039 315.82 112.733C313.317 111.427 311.358 109.486 309.943 106.91C308.528 104.335 307.82 101.196 307.82 97.496V75.7832H319.847ZM360.538 104.679H375.993V114.311H347.151V105.223L362.388 85.3608H347.151V75.7832H375.993V84.871L360.538 104.679Z" fill="white"/>
<defs>
<linearGradient id="paint0_linear_2160_8796" x1="280.5" y1="0" x2="280.5" y2="149" gradientUnits="userSpaceOnUse">
<stop stop-color="#034C8C"/>
<stop offset="1" stop-color="#00175D"/>
</linearGradient>
</defs>
</svg>
