<svg width="84" height="84" viewBox="0 0 84 84" fill="none" xmlns="http://www.w3.org/2000/svg">
<rect width="84" height="84" rx="5" fill="#61DCAB"/>
<path fill-rule="evenodd" clip-rule="evenodd" d="M52.944 65.6168V36.5322C52.944 35.8078 53.5366 35.2151 54.261 35.2151H62.2181C62.9425 35.2151 63.5352 35.8078 63.5352 36.5322V65.6168H70.1313C70.8557 65.6059 71.4484 66.1985 71.4594 66.9229C71.4703 67.6473 70.8777 68.2399 70.1533 68.2509H16.5827C15.8583 68.2509 15.2656 67.6582 15.2656 66.9339C15.2656 66.2095 15.8583 65.6168 16.5827 65.6168H23.1788V49.3733C23.1788 48.649 23.7715 48.0563 24.4959 48.0563H32.453C33.1774 48.0563 33.77 48.649 33.77 49.3733V65.6168H38.0614V42.9528C38.0614 42.2284 38.6541 41.6357 39.3784 41.6357H47.3356C48.0599 41.6357 48.6526 42.2284 48.6526 42.9528V65.6168H52.944ZM24.7593 46.4539C32.2664 44.1491 39.3675 40.6918 45.821 36.2139C51.4403 32.3067 56.5219 27.6751 60.9011 22.4179V26.6544C60.8901 27.3788 61.4828 27.9714 62.2072 27.9824C62.9315 27.9934 63.5242 27.4007 63.5352 26.6763V18.6424C63.5352 17.918 62.9425 17.3253 62.2181 17.3253H54.2061C53.4818 17.3144 52.8891 17.907 52.8781 18.6314C52.8671 19.3558 53.4598 19.9485 54.1842 19.9594H59.5182C55.139 25.3483 50.0245 30.0897 44.3283 34.0518C38.0943 38.376 31.2347 41.7125 23.991 43.9405C23.2996 44.1491 22.9045 44.8844 23.124 45.5868C23.3435 46.2893 24.0678 46.6734 24.7593 46.4539Z" fill="white"/>
</svg>
