<svg width="94" height="94" viewBox="0 0 94 94" fill="none" xmlns="http://www.w3.org/2000/svg">
<path d="M0 0H74C85.0457 0 94 8.95431 94 20V94H20C8.9543 94 0 85.0457 0 74V0Z" fill="#61DCAB"/>
<path d="M58.1787 50.3194C56.6578 50.39 55.1763 50.8256 53.8593 51.5893C55.5101 54.1495 56.3858 57.1324 56.3809 60.1787V66.2549C56.3781 67.0794 56.1043 67.88 55.6016 68.5335H67.0142C67.4158 68.5335 67.801 68.3745 68.0857 68.0913C68.3703 67.808 68.5312 67.4236 68.5333 67.0221V60.1408C68.5306 58.8062 68.2568 57.4862 67.7286 56.2606C67.2004 55.0351 66.4288 53.9296 65.4606 53.0112C64.4923 52.0928 63.3476 51.3806 62.0959 50.9179C60.8441 50.4552 59.5115 50.2516 58.1787 50.3194Z" fill="#00175D"/>
<path d="M26 60.5423V66.2547C26 66.859 26.2401 67.4386 26.6674 67.8659C27.0947 68.2932 27.6743 68.5333 28.2786 68.5333H52.5833C53.1877 68.5333 53.7672 68.2932 54.1945 67.8659C54.6218 67.4386 54.8619 66.859 54.8619 66.2547V60.1785C54.8619 56.352 53.3421 52.6821 50.6368 49.9759C47.9315 47.2697 44.2621 45.7488 40.4355 45.7476C40.2578 45.7476 40.0816 45.7476 39.9038 45.7567C32.2372 46.0293 26 52.6592 26 60.5423Z" fill="#00175D"/>
<path d="M40.4309 44.2286C45.4646 44.2286 49.5452 40.148 49.5452 35.1143C49.5452 30.0806 45.4646 26 40.4309 26C35.3973 26 31.3167 30.0806 31.3167 35.1143C31.3167 40.148 35.3973 44.2286 40.4309 44.2286Z" fill="#00175D"/>
<path d="M58.6596 48.7852C62.0154 48.7852 64.7358 46.0648 64.7358 42.709C64.7358 39.3532 62.0154 36.6328 58.6596 36.6328C55.3038 36.6328 52.5834 39.3532 52.5834 42.709C52.5834 46.0648 55.3038 48.7852 58.6596 48.7852Z" fill="#00175D"/>
</svg>
