<svg width="64" height="64" viewBox="0 0 64 64" fill="none" xmlns="http://www.w3.org/2000/svg">
<path d="M0 0H54C59.5228 0 64 4.47715 64 10V64H10C4.47715 64 0 59.5228 0 54V0Z" fill="#61DCAB"/>
<path d="M31.6592 28.7326C32.4085 28.7326 33.1578 29.018 33.7296 29.5898L45.4404 41.3005C46.584 42.4441 46.584 44.2977 45.4404 45.4404C44.2967 46.584 42.4431 46.584 41.3004 45.4404L31.6601 35.8001L22.0197 45.4404C20.8761 46.584 19.0225 46.584 17.8798 45.4404C16.7361 44.2967 16.7361 42.4432 17.8798 41.3005L29.5906 29.5898C30.1624 29.018 30.9117 28.7326 31.661 28.7326H31.6592ZM43.3699 34.5879C42.6206 34.5879 41.8713 34.3025 41.2995 33.7306L31.6592 24.0904L22.0188 33.7306C20.8752 34.8743 19.0216 34.8743 17.8789 33.7306C16.7361 32.587 16.7352 30.7335 17.8789 29.5908L29.5887 17.8792C30.7324 16.7356 32.586 16.7356 33.7296 17.8792L45.4404 29.5898C46.584 30.7335 46.584 32.587 45.4404 33.7297C44.8685 34.3015 44.1192 34.587 43.3699 34.587V34.5879Z" fill="white"/>
</svg>
