<svg width="65" height="65" viewBox="0 0 65 65" fill="none" xmlns="http://www.w3.org/2000/svg">
<path d="M0 0H54.0312C59.5541 0 64.0312 4.47715 64.0312 10V64.0312H10C4.47715 64.0312 0 59.5541 0 54.0312V0Z" fill="#61DCAB"/>
<path d="M39.6337 34.2767C38.5978 34.3249 37.5886 34.6216 36.6914 35.1418C37.816 36.8858 38.4125 38.9177 38.4091 40.9928V45.1318C38.4072 45.6934 38.2207 46.2388 37.8783 46.6839H45.6523C45.9259 46.6839 46.1883 46.5756 46.3822 46.3827C46.5761 46.1897 46.6857 45.9279 46.6871 45.6543V40.9669C46.6853 40.0579 46.4988 39.1586 46.139 38.3238C45.7792 37.489 45.2536 36.736 44.594 36.1104C43.9345 35.4848 43.1547 34.9997 42.3021 34.6845C41.4494 34.3693 40.5416 34.2306 39.6337 34.2767Z" fill="white"/>
<path d="M17.7148 41.2401V45.1312C17.7148 45.5429 17.8784 45.9377 18.1695 46.2288C18.4605 46.5198 18.8553 46.6834 19.267 46.6834H35.823C36.2346 46.6834 36.6294 46.5198 36.9205 46.2288C37.2116 45.9377 37.3751 45.5429 37.3751 45.1312V40.9922C37.3751 38.3857 36.3399 35.8858 34.497 34.0424C32.6542 32.199 30.1547 31.1629 27.5481 31.1621C27.427 31.1621 27.307 31.1621 27.1859 31.1683C21.9635 31.3541 17.7148 35.8702 17.7148 41.2401Z" fill="white"/>
<path d="M27.5444 30.1275C30.9733 30.1275 33.7529 27.3478 33.7529 23.919C33.7529 20.4901 30.9733 17.7104 27.5444 17.7104C24.1156 17.7104 21.3359 20.4901 21.3359 23.919C21.3359 27.3478 24.1156 30.1275 27.5444 30.1275Z" fill="white"/>
<path d="M39.9632 33.2311C42.2491 33.2311 44.1022 31.378 44.1022 29.0921C44.1022 26.8062 42.2491 24.9531 39.9632 24.9531C37.6773 24.9531 35.8242 26.8062 35.8242 29.0921C35.8242 31.378 37.6773 33.2311 39.9632 33.2311Z" fill="white"/>
</svg>
