<svg width="75" height="75" viewBox="0 0 75 75" fill="none" xmlns="http://www.w3.org/2000/svg">
<rect width="75" height="75" rx="13" fill="#61DCAB"/>
<path fill-rule="evenodd" clip-rule="evenodd" d="M36.2061 16.7363L34.6462 18.2981C34.6282 18.3141 34.6062 18.3201 34.5822 18.3141L32.4504 17.7422C30.8146 17.3042 29.1348 18.2741 28.6968 19.91L28.1249 22.0418C28.1189 22.0658 28.1029 22.0818 28.0789 22.0878L25.9471 22.6597C24.3113 23.0977 23.3414 24.7775 23.7793 26.4133L24.3513 28.5451C24.3573 28.5691 24.3513 28.5911 24.3353 28.6091L22.7734 30.169C21.5755 31.3668 21.5755 33.3066 22.7734 34.5045L24.3353 36.0644C24.3513 36.0824 24.3573 36.1044 24.3513 36.1284L23.7793 38.2601C23.3414 39.896 24.3113 41.5758 25.9471 42.0138L28.0789 42.5857C28.1029 42.5917 28.1189 42.6077 28.1249 42.6317L28.6968 44.7635C29.1348 46.3993 30.8146 47.3692 32.4504 46.9313L34.5822 46.3593C34.6062 46.3533 34.6282 46.3593 34.6462 46.3753L36.2061 47.9372C37.4039 49.1351 39.3437 49.1351 40.5416 47.9372L42.1015 46.3753C42.1195 46.3593 42.1415 46.3533 42.1655 46.3593L44.2973 46.9313C45.9331 47.3692 47.6129 46.3993 48.0509 44.7635L48.6228 42.6317C48.6288 42.6077 48.6448 42.5917 48.6688 42.5857L50.8006 42.0138C52.4364 41.5758 53.4063 39.896 52.9684 38.2601L52.3964 36.1284C52.3904 36.1044 52.3964 36.0824 52.4124 36.0644L53.9743 34.5045C55.1722 33.3066 55.1722 31.3668 53.9743 30.169L52.4124 28.6091C52.3964 28.5911 52.3904 28.5691 52.3964 28.5451L52.9684 26.4133C53.4063 24.7775 52.4364 23.0977 50.8006 22.6597L48.6688 22.0878C48.6448 22.0818 48.6288 22.0658 48.6228 22.0418L48.0509 19.91C47.6129 18.2741 45.9331 17.3042 44.2973 17.7422L42.1655 18.3141C42.1415 18.3201 42.1195 18.3141 42.1015 18.2981L40.5416 16.7363C39.3437 15.5384 37.4039 15.5384 36.2061 16.7363ZM32.3145 33.3966L36.0641 37.1463C36.362 37.4442 36.77 37.6042 37.192 37.5842C37.6119 37.5662 38.0059 37.3702 38.2759 37.0463L44.5252 29.547C45.0552 28.9111 44.9692 27.9652 44.3332 27.4352C43.6973 26.9053 42.7514 26.9913 42.2215 27.6272L37.024 33.8646L34.4342 31.2768C33.8503 30.6909 32.8984 30.6909 32.3145 31.2768C31.7285 31.8608 31.7285 32.8127 32.3145 33.3966Z" fill="white"/>
<path fill-rule="evenodd" clip-rule="evenodd" d="M24.5745 43.6338L21.7968 54.0027C21.6528 54.5427 21.8208 55.1186 22.2328 55.4966C22.6467 55.8746 23.2367 55.9905 23.7626 55.7986L29.3001 53.7708L33.0817 58.2963C33.4396 58.7263 34.0096 58.9203 34.5555 58.7983C35.1015 58.6783 35.5354 58.2643 35.6814 57.7224L37.5452 50.7671C36.5373 50.6011 35.5694 50.1291 34.7915 49.3512L34.0216 48.5813L32.9677 48.8633C30.266 49.5872 27.4882 47.9834 26.7643 45.2816L26.4823 44.2277L25.4284 43.9458C25.1305 43.8658 24.8445 43.7598 24.5745 43.6338Z" fill="white"/>
<path fill-rule="evenodd" clip-rule="evenodd" d="M52.1719 43.6338C51.9019 43.7598 51.6159 43.8658 51.318 43.9458L50.2641 44.2277L49.9821 45.2816C49.2582 47.9834 46.4804 49.5872 43.7787 48.8633L42.7248 48.5813L41.9549 49.3512C41.177 50.1291 40.2091 50.6011 39.2012 50.7671L41.065 57.7224C41.211 58.2643 41.6449 58.6783 42.1909 58.7983C42.7368 58.9203 43.3068 58.7263 43.6647 58.2963L47.4463 53.7708L52.9838 55.7986C53.5097 55.9905 54.0997 55.8746 54.5136 55.4966C54.9256 55.1186 55.0936 54.5427 54.9496 54.0027L52.1719 43.6338Z" fill="white"/>
</svg>
