<svg width="67" height="66" viewBox="0 0 67 66" fill="none" xmlns="http://www.w3.org/2000/svg">
<rect width="66.2454" height="66" rx="10" fill="#61DCAB"/>
<path d="M34.0364 25.4053V38.0326C34.5576 38.2169 34.9969 38.5795 35.2766 39.0563C35.5563 39.5331 35.6585 40.0935 35.565 40.6384C35.4715 41.1833 35.1884 41.6775 34.7658 42.0339C34.3431 42.3902 33.8081 42.5856 33.2552 42.5856C32.7024 42.5856 32.1674 42.3902 31.7447 42.0339C31.322 41.6775 31.0389 41.1833 30.9454 40.6384C30.852 40.0935 30.9541 39.5331 31.2338 39.0563C31.5136 38.5795 31.9528 38.2169 32.474 38.0326V25.4053L24.7214 40.1078C24.6611 40.2224 24.6302 40.3503 24.6316 40.4798C24.6329 40.6094 24.6665 40.7366 24.7292 40.8499L28.6351 47.9117C28.7027 48.0338 28.8017 48.1356 28.9219 48.2065C29.0421 48.2774 29.1791 48.3148 29.3186 48.3149H37.1924C37.3319 48.3148 37.4689 48.2774 37.5891 48.2065C37.7093 48.1356 37.8083 48.0338 37.8759 47.9117L41.7818 40.8499C41.8445 40.7366 41.8781 40.6094 41.8794 40.4798C41.8808 40.3503 41.8499 40.2224 41.7896 40.1078L34.0364 25.4053Z" fill="#00175D"/>
<path d="M47.374 11C46.6831 11.0021 46.0125 11.2333 45.4671 11.6574C44.9218 12.0815 44.5325 12.6745 44.3603 13.3435H36.3799V11.7812C36.3799 11.574 36.2976 11.3753 36.1511 11.2288C36.0046 11.0823 35.8059 11 35.5988 11H30.9117C30.7045 11 30.5058 11.0823 30.3593 11.2288C30.2128 11.3753 30.1305 11.574 30.1305 11.7812V13.3435H22.1502C21.9601 12.6072 21.5079 11.9654 20.8784 11.5385C20.249 11.1117 19.4854 10.9291 18.731 11.0249C17.9765 11.1207 17.2829 11.4884 16.7801 12.0591C16.2774 12.6298 16 13.3642 16 14.1247C16 14.8852 16.2774 15.6197 16.7801 16.1903C17.2829 16.761 17.9765 17.1287 18.731 17.2245C19.4854 17.3203 20.249 17.1377 20.8784 16.7109C21.5079 16.284 21.9601 15.6423 22.1502 14.9059H28.0067C26.6643 15.7812 25.5609 16.977 24.7961 18.3853C24.0313 19.7936 23.6292 21.3702 23.6259 22.9728V24.272H22.0636C21.8564 24.272 21.6577 24.3543 21.5112 24.5008C21.3647 24.6473 21.2824 24.8459 21.2824 25.0531V29.7402C21.2824 29.9474 21.3647 30.1461 21.5112 30.2926C21.6577 30.4391 21.8564 30.5214 22.0636 30.5214H26.7506C26.9578 30.5214 27.1565 30.4391 27.303 30.2926C27.4495 30.1461 27.5318 29.9474 27.5318 29.7402V25.0531C27.5318 24.8459 27.4495 24.6473 27.303 24.5008C27.1565 24.3543 26.9578 24.272 26.7506 24.272H25.1883V22.9728C25.1916 21.3856 25.662 19.8345 26.5409 18.5129C27.4197 17.1912 28.6682 16.1575 30.1305 15.5405V16.4686C30.1305 16.6758 30.2128 16.8745 30.3593 17.021C30.5058 17.1675 30.7045 17.2498 30.9117 17.2498H35.5988C35.8059 17.2498 36.0046 17.1675 36.1511 17.021C36.2976 16.8745 36.3799 16.6758 36.3799 16.4686V15.5405C37.8423 16.1575 39.0908 17.1913 39.9697 18.513C40.8485 19.8348 41.3189 21.3859 41.3222 22.9732V24.2723H39.7598C39.5527 24.2723 39.354 24.3546 39.2075 24.5011C39.061 24.6476 38.9787 24.8463 38.9787 25.0535V29.7406C38.9787 29.9478 39.061 30.1464 39.2075 30.2929C39.354 30.4394 39.5527 30.5217 39.7598 30.5217H44.4469C44.6541 30.5217 44.8528 30.4394 44.9993 30.2929C45.1458 30.1464 45.2281 29.9478 45.2281 29.7406V25.0535C45.2281 24.8463 45.1458 24.6476 44.9993 24.5011C44.8528 24.3546 44.6541 24.2723 44.4469 24.2723H42.8845V22.9728C42.8813 21.3702 42.4791 19.7936 41.7143 18.3853C40.9495 16.977 39.8462 15.7812 38.5038 14.9059H44.3603C44.5073 15.4704 44.8097 15.9825 45.2332 16.3838C45.6566 16.7851 46.1841 17.0596 46.7557 17.1762C47.3274 17.2928 47.9202 17.2467 48.467 17.0433C49.0138 16.8398 49.4925 16.4871 49.8489 16.0252C50.2053 15.5633 50.425 15.0108 50.4831 14.4303C50.5412 13.8498 50.4354 13.2646 50.1776 12.7413C49.9199 12.2179 49.5205 11.7773 49.0249 11.4695C48.5293 11.1617 47.9574 10.9991 47.374 11Z" fill="#00175D"/>
<path d="M28.3973 49.8763C28.216 49.8744 28.041 49.809 27.9029 49.6914V53.9366C27.9029 54.1438 27.9852 54.3425 28.1317 54.489C28.2782 54.6355 28.4769 54.7178 28.6841 54.7178H37.8264C38.0335 54.7178 38.2322 54.6355 38.3787 54.489C38.5252 54.3425 38.6075 54.1438 38.6075 53.9366V49.6914C38.4694 49.8089 38.2945 49.8744 38.1132 49.8763H28.3973Z" fill="#00175D"/>
</svg>
