<svg width="67" height="66" viewBox="0 0 67 66" fill="none" xmlns="http://www.w3.org/2000/svg">
<rect width="66.2454" height="66" rx="10" fill="#61DCAB"/>
<path d="M13.1262 17V40.6719H53.5262V17H13.1262ZM17.9394 21.7344H27.4082V24.1016H17.9394V21.7344ZM17.9394 26.4688H27.4082V28.8359H17.9394V26.4688ZM48.7129 27.6523H46.3457V25.7752L38.0605 34.0604L33.3262 29.326L24.3475 38.3047H17.9394V35.9375H23.3673L33.3262 25.9787L38.0605 30.713L44.672 24.1016H42.7949V21.7344H48.7129V27.6523Z" fill="#00175D"/>
<path d="M13.1262 43.0391H53.5262V47.7734H13.1262V43.0391Z" fill="#00175D"/>
<path d="M39.2441 50.1406H27.4082V52.5078H22.6738V54.875C23.2948 54.875 44.2177 54.875 43.9785 54.875V52.5078H39.2441V50.1406Z" fill="#00175D"/>
</svg>
