<svg width="67" height="66" viewBox="0 0 67 66" fill="none" xmlns="http://www.w3.org/2000/svg">
<rect width="66.2454" height="66" rx="10" fill="#61DCAB"/>
<path d="M47.918 14H18.082C15.8312 14 14 15.8312 14 18.082V22.9062H52V18.082C52 15.8312 50.1688 14 47.918 14ZM37.4531 19.5664C36.8383 19.5664 36.3398 19.068 36.3398 18.4531C36.3398 17.8383 36.8383 17.3398 37.4531 17.3398C38.068 17.3398 38.5664 17.8383 38.5664 18.4531C38.5664 19.068 38.068 19.5664 37.4531 19.5664ZM41.9062 19.5664C41.2914 19.5664 40.793 19.068 40.793 18.4531C40.793 17.8383 41.2914 17.3398 41.9062 17.3398C42.5211 17.3398 43.0195 17.8383 43.0195 18.4531C43.0195 19.068 42.5211 19.5664 41.9062 19.5664ZM46.3594 19.5664C45.7445 19.5664 45.2461 19.068 45.2461 18.4531C45.2461 17.8383 45.7445 17.3398 46.3594 17.3398C46.9742 17.3398 47.4727 17.8383 47.4727 18.4531C47.4727 19.068 46.9742 19.5664 46.3594 19.5664Z" fill="#00175D"/>
<path d="M14 25.1328V47.918C14 50.1688 15.8312 52 18.082 52H47.918C50.1688 52 52 50.1688 52 47.918V25.1328H14ZM41.3241 30.2168C44.3934 30.2168 46.8905 32.7139 46.8905 35.7832C46.8905 38.8525 44.3934 41.3496 41.3241 41.3496C38.2548 41.3496 35.7577 38.8525 35.7577 35.7832C35.7577 32.7139 38.2548 30.2168 41.3241 30.2168ZM28.7634 31.3301C28.7634 30.7153 29.2619 30.2168 29.8767 30.2168H33.6294C34.2443 30.2168 34.7427 30.7153 34.7427 31.3301C34.7427 31.9449 34.2443 32.4434 33.6294 32.4434H30.99V34.6699H33.3528C33.9676 34.6699 34.466 35.1684 34.466 35.7832C34.466 36.398 33.9676 36.8965 33.3528 36.8965H30.99V39.123H33.6294C34.2443 39.123 34.7427 39.6215 34.7427 40.2363C34.7427 40.8512 34.2443 41.3496 33.6294 41.3496H29.8767C29.2619 41.3496 28.7634 40.8512 28.7634 40.2363V31.3301ZM19.4752 38.0942C19.9308 37.6814 20.6349 37.7159 21.0477 38.1716C21.5876 38.7673 22.4369 39.123 23.3194 39.123C24.1767 39.123 24.7806 38.6104 24.8691 38.1148C24.9867 37.4561 24.0946 37.0513 23.7057 36.9078C22.3274 36.3994 21.1036 35.8547 21.0522 35.8317C20.9986 35.8078 20.947 35.7796 20.8978 35.7476C19.9601 35.1362 19.4768 34.0639 19.6368 32.9493C19.8073 31.7614 20.6759 30.7937 21.9036 30.4239C24.1744 29.7399 26.2509 30.9337 26.6814 31.7388C26.9713 32.281 26.7667 32.9556 26.2245 33.2455C25.7344 33.5074 25.1362 33.3656 24.8117 32.9355C24.5875 32.7457 23.6725 32.2164 22.5458 32.5558C21.9769 32.7272 21.8633 33.1094 21.8408 33.2657C21.8247 33.3781 21.8165 33.6477 22.0571 33.8414C22.3694 33.9781 23.3852 34.4164 24.4762 34.8188C26.7197 35.6463 27.2824 37.2662 27.061 38.5061C26.7668 40.1538 25.1932 41.3497 23.3193 41.3497C21.8187 41.3497 20.3527 40.7205 19.3977 39.6667C18.985 39.2111 19.0196 38.507 19.4752 38.0942ZM46.3594 46.916H19.6406C19.0258 46.916 18.5273 46.4176 18.5273 45.8027C18.5273 45.1879 19.0258 44.6895 19.6406 44.6895H46.3594C46.9742 44.6895 47.4727 45.1879 47.4727 45.8027C47.4727 46.4176 46.9742 46.916 46.3594 46.916Z" fill="#00175D"/>
<path d="M41.3241 39.123C43.1686 39.123 44.6639 37.6277 44.6639 35.7832C44.6639 33.9387 43.1686 32.4434 41.3241 32.4434C39.4795 32.4434 37.9842 33.9387 37.9842 35.7832C37.9842 37.6277 39.4795 39.123 41.3241 39.123Z" fill="#00175D"/>
</svg>
