<svg width="67" height="66" viewBox="0 0 67 66" fill="none" xmlns="http://www.w3.org/2000/svg">
<rect width="66.2454" height="66" rx="10" fill="#61DCAB"/>
<path fill-rule="evenodd" clip-rule="evenodd" d="M47.9648 53.0841H18.8776C18.458 53.0841 18.1154 52.7439 18.1154 52.3244V48.2329C18.1154 47.8133 18.458 47.4707 18.8776 47.4707H47.9648C48.3869 47.4707 48.727 47.8133 48.727 48.2329V52.3244C48.727 52.7439 48.3869 53.0841 47.9648 53.0841Z" fill="#00175D"/>
<path fill-rule="evenodd" clip-rule="evenodd" d="M55.0802 43.9428H11.7622C11.3401 43.9428 11 43.6027 11 43.1831V18.5473C11 18.1278 11.3401 17.7852 11.7622 17.7852H14.2275V39.1984C14.2275 40.0375 14.9078 40.7178 15.7444 40.7178H51.098C51.9371 40.7178 52.6149 40.0375 52.6149 39.1984V17.7852H55.0802C55.5023 17.7852 55.8424 18.1278 55.8424 18.5473V43.1831C55.8424 43.6027 55.5023 43.9428 55.0802 43.9428Z" fill="#00175D"/>
<path fill-rule="evenodd" clip-rule="evenodd" d="M26.6683 46.7152V44.6992H40.1741V46.7152H26.6683Z" fill="#00175D"/>
<path fill-rule="evenodd" clip-rule="evenodd" d="M51.098 39.9602H15.7444C15.3248 39.9602 14.9847 39.6201 14.9847 39.198V19.0684C15.2082 19.1975 15.4664 19.2719 15.7444 19.2719H51.098C51.376 19.2719 51.6342 19.1975 51.8602 19.0684V39.198C51.8602 39.6201 51.5176 39.9602 51.098 39.9602ZM41.8053 33.3985C42.0163 33.3985 42.1876 33.2247 42.1876 33.0137V32.5668H43.1385C43.352 32.5668 43.5233 32.3955 43.5233 32.1844V29.5131C43.5233 29.302 43.352 29.1307 43.1385 29.1307H40.8519V27.2265H43.1385C43.352 27.2265 43.5233 27.0552 43.5233 26.8442C43.5233 26.6306 43.352 26.4593 43.1385 26.4593H42.1876V26.0125C42.1876 25.8014 42.0163 25.6301 41.8053 25.6301C41.5917 25.6301 41.4204 25.8014 41.4204 26.0125V26.4593H40.4696C40.2585 26.4593 40.0872 26.6306 40.0872 26.8442V29.5131C40.0872 29.7266 40.2585 29.8979 40.4696 29.8979H42.7561V31.8021H40.4696C40.2585 31.8021 40.0872 31.9734 40.0872 32.1844C40.0872 32.3955 40.2585 32.5668 40.4696 32.5668H41.4204V33.0137C41.4204 33.2247 41.5917 33.3985 41.8053 33.3985ZM41.8053 35.9457C45.3505 35.9457 48.2354 33.0608 48.2354 29.5131C48.2354 25.9678 45.3505 23.0829 41.8053 23.0829C38.2575 23.0829 35.3726 25.9678 35.3726 29.5131C35.3726 33.0608 38.2575 35.9457 41.8053 35.9457ZM41.8053 23.8475C44.9285 23.8475 47.4708 26.3898 47.4708 29.5131C47.4708 32.6388 44.9285 35.1786 41.8053 35.1786C38.6795 35.1786 36.1397 32.6388 36.1397 29.5131C36.1397 26.3898 38.6795 23.8475 41.8053 23.8475ZM24.4016 31.7375V25.1708L30.2905 22.991V26.9236V26.9261V29.9823V29.9848V33.9174L24.4016 31.7375ZM23.9497 24.5204H18.9893C18.7783 24.5204 18.607 24.6917 18.607 24.9052V32.0032C18.607 32.2142 18.7783 32.3855 18.9893 32.3855H19.8384V36.5887C19.8384 36.7998 20.0097 36.9711 20.2232 36.9711H22.7853C22.9964 36.9711 23.1677 36.7998 23.1677 36.5887V32.3855H23.9497L30.5413 34.8285C30.5835 34.8434 30.6282 34.8508 30.6729 34.8508C30.7523 34.8508 30.8268 34.8285 30.8913 34.7813C30.9956 34.7118 31.0552 34.5926 31.0552 34.4685V30.3646H33.1878C33.3989 30.3646 33.5702 30.1933 33.5702 29.9823V26.9261C33.5702 26.7151 33.3989 26.5438 33.1878 26.5438H31.0552V22.4399C31.0552 22.3132 30.9956 22.1966 30.8913 22.1246C30.7895 22.055 30.658 22.0377 30.5413 22.0799L23.9497 24.5204ZM31.0552 29.5999V27.3084H32.803V29.5999H31.0552ZM20.6055 32.3855H22.403V36.2039H20.6055V32.3855ZM19.3741 31.6209V25.2875H23.6344V31.6209H22.7853H20.2232H20.2182H19.3741Z" fill="#00175D"/>
<path fill-rule="evenodd" clip-rule="evenodd" d="M51.098 18.5146H15.7444C15.3248 18.5146 14.9847 18.1745 14.9847 17.7549V12.7622C14.9847 12.3401 15.3248 12 15.7444 12H51.098C51.5176 12 51.8602 12.3401 51.8602 12.7622V17.7549C51.8602 18.1745 51.5176 18.5146 51.098 18.5146ZM25.1141 15.6421C25.3251 15.6421 25.4989 15.4708 25.4989 15.2573C25.4989 15.0463 25.3251 14.875 25.1141 14.875H23.0882C22.8772 14.875 22.7059 15.0463 22.7059 15.2573C22.7059 15.4683 22.8772 15.6421 23.0882 15.6421H25.1141ZM20.4739 15.6421C20.685 15.6421 20.8563 15.4708 20.8563 15.2573C20.8563 15.0463 20.685 14.875 20.4739 14.875H18.4481C18.2346 14.875 18.0633 15.0463 18.0633 15.2573C18.0633 15.4683 18.2346 15.6421 18.4481 15.6421H20.4739Z" fill="#00175D"/>
</svg>
