<svg xmlns="http://www.w3.org/2000/svg" width="27" height="27" viewBox="0 0 27 27">
  <g id="target" transform="translate(0 -0.001)">
    <g id="Grupo_1734" data-name="Grupo 1734" transform="translate(0 0.001)">
      <g id="Grupo_1733" data-name="Grupo 1733" transform="translate(0 0)">
        <path id="Caminho_790" data-name="Caminho 790" d="M14.07,12.958s-.006-.011-.01-.015L9.545,8.428V5.591a.791.791,0,0,0-.232-.559L4.567.233a.791.791,0,0,0-1.35.559V3.166H.791a.791.791,0,0,0-.559,1.35l4.8,4.8a.79.79,0,0,0,.559.232H8.427l4.514,4.514s.011.006.015.01a.788.788,0,0,0,1.113-1.113Z" transform="translate(0 -0.001)" fill="#fff"/>
      </g>
    </g>
    <g id="Grupo_1736" data-name="Grupo 1736" transform="translate(0 0.001)">
      <g id="Grupo_1735" data-name="Grupo 1735" transform="translate(0 0)">
        <path id="Caminho_791" data-name="Caminho 791" d="M13.5,0A13.382,13.382,0,0,0,7.842,1.321l2.427,2.427a10.309,10.309,0,1,1-6.52,6.52L1.322,7.841A13.384,13.384,0,0,0,0,13.5,13.5,13.5,0,1,0,13.5,0Z" transform="translate(-0.003 -0.002)" fill="#fff"/>
      </g>
    </g>
    <g id="Grupo_1738" data-name="Grupo 1738" transform="translate(6.381 6.382)">
      <g id="Grupo_1737" data-name="Grupo 1737">
        <path id="Caminho_792" data-name="Caminho 792" d="M128.121,121a7.036,7.036,0,0,0-2.373.437v.953l1.829,1.829a3.894,3.894,0,0,1,.544-.055,3.955,3.955,0,1,1-3.955,3.955,3.893,3.893,0,0,1,.055-.544l-1.829-1.829h-.953A7.036,7.036,0,0,0,121,128.12,7.119,7.119,0,1,0,128.121,121Z" transform="translate(-121.002 -121.001)" fill="#fff"/>
      </g>
    </g>
  </g>
</svg>
