<svg xmlns="http://www.w3.org/2000/svg" width="75" height="75" viewBox="0 0 75 75">
  <g id="Grupo_300" data-name="Grupo 300" transform="translate(-210 -7948)">
    <circle id="Elipse_41" data-name="Elipse 41" cx="37.5" cy="37.5" r="37.5" transform="translate(210 7948)" fill="#fff"/>
    <path id="Caminho_273" data-name="Caminho 273" d="M10.112-1.342c0-4.351-3.811-5.4-7.369-6.289v-7.4a11.447,11.447,0,0,1,5.4,1.779l1.048-2.541a12.745,12.745,0,0,0-6.447-1.937V-21.32H.711V-17.7c-4.923.413-7.178,3.144-7.178,6.289,0,4.319,3.684,5.431,7.178,6.289V2.247A11.078,11.078,0,0,1-5.832-.294L-7.007,2.183A12.847,12.847,0,0,0,.711,4.946V8.535H2.744V4.946C7.762,4.533,10.112,1.8,10.112-1.342Zm-13.467-10.2c0-1.683,1.239-3.113,4.065-3.462v6.86C-1.576-8.743-3.354-9.568-3.354-11.538Zm6.1,13.753V-4.614C5.094-3.978,7-3.184,7-1.152,7,.563,5.7,1.929,2.744,2.215Z" transform="translate(245.767 7991.393)" fill="#2d2d2d"/>
  </g>
</svg>
