<svg xmlns="http://www.w3.org/2000/svg" width="40" height="40" viewBox="0 0 40 40">
  <g id="Grupo_296" data-name="Grupo 296" transform="translate(0 -51.529)">
    <path id="Caminho_273" data-name="Caminho 273" d="M2.167-10.614c0-2.332-2.043-2.894-3.949-3.37V-17.95A6.135,6.135,0,0,1,1.112-17l.562-1.362A6.83,6.83,0,0,0-1.781-19.4V-21.32H-2.871v1.94c-2.638.221-3.847,1.685-3.847,3.37,0,2.315,1.974,2.911,3.847,3.37V-8.69a5.937,5.937,0,0,1-3.506-1.362l-.63,1.328A6.885,6.885,0,0,0-2.871-7.243V-5.32h1.089V-7.243C.908-7.465,2.167-8.929,2.167-10.614ZM-5.05-16.077c0-.9.664-1.668,2.179-1.855v3.677C-4.1-14.58-5.05-15.022-5.05-16.077Zm3.268,7.37v-3.66C-.522-12.026.5-11.6.5-10.511.5-9.592-.2-8.86-1.781-8.707Z" transform="translate(22.42 84.849)" fill="#fff"/>
    <g id="Elipse_41" data-name="Elipse 41" transform="translate(0 51.529)" fill="none" stroke="#fff" stroke-width="2">
      <circle cx="20" cy="20" r="20" stroke="none"/>
      <circle cx="20" cy="20" r="19" fill="none"/>
    </g>
  </g>
</svg>
