<svg xmlns="http://www.w3.org/2000/svg" width="75" height="75" viewBox="0 0 75 75">
  <g id="Grupo_299" data-name="Grupo 299" transform="translate(-210 -7834)">
    <circle id="Elipse_40" data-name="Elipse 40" cx="37.5" cy="37.5" r="37.5" transform="translate(210 7834)" fill="#fff"/>
    <g id="Icon_feather-users" data-name="Icon feather-users" transform="translate(229.255 7856.572)">
      <path id="Caminho_269" data-name="Caminho 269" d="M28.357,32.571V29.214A6.714,6.714,0,0,0,21.643,22.5H8.214A6.714,6.714,0,0,0,1.5,29.214v3.357" transform="translate(-1.5 -2.716)" fill="none" stroke="#2d2d2d" stroke-linejoin="round" stroke-width="3"/>
      <path id="Caminho_270" data-name="Caminho 270" d="M20.928,11.214A6.714,6.714,0,1,1,14.214,4.5,6.714,6.714,0,0,1,20.928,11.214Z" transform="translate(-0.911 -4.5)" fill="none" stroke="#2d2d2d" stroke-linejoin="round" stroke-width="3"/>
      <path id="Caminho_271" data-name="Caminho 271" d="M35.036,32.548V29.191A6.714,6.714,0,0,0,30,22.7" transform="translate(1.454 -2.693)" fill="none" stroke="#2d2d2d" stroke-linejoin="round" stroke-width="3"/>
      <path id="Caminho_272" data-name="Caminho 272" d="M24,4.7A6.714,6.714,0,0,1,24,17.7" transform="translate(0.832 -4.477)" fill="none" stroke="#2d2d2d" stroke-linejoin="round" stroke-width="3"/>
    </g>
  </g>
</svg>
