<svg xmlns="http://www.w3.org/2000/svg" width="40" height="40" viewBox="0 0 40 40">
  <g id="Grupo_295" data-name="Grupo 295" transform="translate(0 0.471)">
    <g id="Icon_feather-users" data-name="Icon feather-users" transform="translate(10.223 11.529)">
      <path id="Caminho_269" data-name="Caminho 269" d="M15.893,27.9V26.1a3.6,3.6,0,0,0-3.6-3.6H5.1a3.6,3.6,0,0,0-3.6,3.6v1.8" transform="translate(-1.5 -11.897)" fill="none" stroke="#fff" stroke-linecap="square" stroke-linejoin="round" stroke-width="2"/>
      <path id="Caminho_270" data-name="Caminho 270" d="M14.7,8.1a3.6,3.6,0,1,1-3.6-3.6A3.6,3.6,0,0,1,14.7,8.1Z" transform="translate(-3.969 -4.5)" fill="none" stroke="#fff" stroke-linecap="square" stroke-linejoin="round" stroke-width="2"/>
      <path id="Caminho_271" data-name="Caminho 271" d="M32.7,27.975v-1.8A3.6,3.6,0,0,0,30,22.7" transform="translate(-13.143 -11.975)" fill="none" stroke="#fff" stroke-linecap="square" stroke-linejoin="round" stroke-width="2"/>
      <path id="Caminho_272" data-name="Caminho 272" d="M24,4.7a3.6,3.6,0,0,1,0,6.972" transform="translate(-10.692 -4.578)" fill="none" stroke="#fff" stroke-linecap="square" stroke-linejoin="round" stroke-width="2"/>
    </g>
    <g id="Elipse_40" data-name="Elipse 40" transform="translate(0 -0.471)" fill="none" stroke="#fff" stroke-width="2">
      <circle cx="20" cy="20" r="20" stroke="none"/>
      <circle cx="20" cy="20" r="19" fill="none"/>
    </g>
  </g>
</svg>
