<svg xmlns="http://www.w3.org/2000/svg" width="130" height="63.354" viewBox="0 0 130 63.354">
  <g id="Grupo_156" data-name="Grupo 156" transform="translate(0)">
    <g id="Grupo_107" data-name="Grupo 107" transform="translate(25.189 22.699)">
      <path id="Caminho_261" data-name="Caminho 261" d="M-151.15,352.082V318.973h-3.42v-5.581H-141.7v5.581h-3.419v33.109Z" transform="translate(225.739 -312.313)" fill="#fff"/>
      <path id="Caminho_262" data-name="Caminho 262" d="M-237.567,352.082v-38.69h6.028V346.5h4.409v5.578Z" transform="translate(281.924 -312.313)" fill="#fff"/>
      <rect id="Ret창ngulo_188" data-name="Ret창ngulo 188" width="6.028" height="38.69" transform="translate(17.455 1.079)" fill="#fff"/>
      <rect id="Ret창ngulo_189" data-name="Ret창ngulo 189" width="6.028" height="38.69" transform="translate(98.783 1.079)" fill="#fff"/>
      <path id="Caminho_263" data-name="Caminho 263" d="M-108.815,352.082V318.973h-3.42v-5.581h12.866v5.581h-3.419v33.109Z" transform="translate(197.08 -312.313)" fill="#fff"/>
      <path id="Caminho_264" data-name="Caminho 264" d="M-369.119,331.39h2.25c.6,0,.675-.2.675-.9V319.918c0-.618-.091-.944-.675-.944h-2.25Zm0,15.115h2.25c.6,0,.675-.2.675-.9v-7.874c0-.618-.091-1.395-.675-1.395l-2.25,0Zm-5.756,5.579,0-38.689h11.606c2.461,0,2.924,1.969,2.924,3.6V332.74c0,.9-.983,1.188-1.575,1.259.592.09,1.593.786,1.575,1.539v13.217a3.127,3.127,0,0,1-2.924,3.33Z" transform="translate(374.877 -312.315)" fill="#fff" fill-rule="evenodd"/>
      <path id="Caminho_265" data-name="Caminho 265" d="M-283.43,334.076v-16.2a1.318,1.318,0,0,0-1.349-1.35,1.318,1.318,0,0,0-1.35,1.35v16.2Zm6.029,15.746h-6.029v-9.9h-2.7v9.9h-6.027V319.005c0-4.931,3.325-8.953,7.378-8.953,4.857,0,7.378,4.021,7.378,8.953Z" transform="translate(318.879 -310.053)" fill="#fff" fill-rule="evenodd"/>
      <path id="Caminho_266" data-name="Caminho 266" d="M-194.444,327.328v-9.447a1.318,1.318,0,0,0-1.35-1.35,1.318,1.318,0,0,0-1.35,1.35l0,9.447Zm6.028,16.42c0,9.271-14.756,9.289-14.756,0V317.655c0-3.855,3.4-7.6,7.378-7.6a7.545,7.545,0,0,1,7.378,7.6l0,15.746h-8.724l0,9.9c0,.986.588,1.8,1.395,1.8s1.3-.813,1.3-1.8v-6.433h6.026Z" transform="translate(258.64 -310.053)" fill="#fff" fill-rule="evenodd"/>
    </g>
    <path id="Caminho_267" data-name="Caminho 267" d="M-436.969,262.8l-.094-.954c-.125-1.219-1.938-1.532-1.673.234Zm-5.018-.047,1.766-.672c.36-.141-.14-.954-.5-1.094-.719-.281-1.125,1.141-1.266,1.719Zm.86-3.439h3.846l-.047-.641H-441Zm.078,3.564-1.079.375-.141.313s1.64-.044,2.688-.043,2.658.043,2.658.043v-.313l-.985-.375a.972.972,0,0,1-.875.47c-.626-.141-1.032-3.488,1.594-2.55l-.047-.859h-4.028l-.178.813c1.673-.813,2.11,2.408,1.266,2.6C-440.409,263.375-440.675,263.25-441.05,262.875Zm5.628,25.265a7.509,7.509,0,0,1,.266-4.08C-436.062,285.466-436.829,286.733-435.422,288.139Zm.672,5.378c.187,0,.828-.219.828-.5l-.828-.844-.66.667Zm-9.146,2.6.453.985v-.885Zm7.754,1.126.484-.954v-3.174l-.484.453Zm-6.5,1.257V296.3l-.422-.045v1.34Zm5.674.057.456-.718v-3.891l-.456.4Zm-2.771.219a1.536,1.536,0,0,1,.279.066.479.479,0,0,1,.209.121v-3.224l-.488.19Zm-2.529.046.376.47v-3.014l-.376.012Zm4.346.547.579-.406v-4.3l-.579.419Zm-2.74-3.181v3.275a2.923,2.923,0,0,1,.266-.365,3.56,3.56,0,0,1,.282-.276v-2.8Zm-.856,3.3.482.093v-3.364l-.482.036Zm2.641.215.581-.093-.025-4.329-.557.294Zm-.528-31.518c1.313,0,6.519-.219,6.519-2.267,0-2.2-4.915-2.12-6.612-2.12-.936,0-6.175-.4-6.44,2.055C-445.941,268.678-441.05,268.175-439.408,268.175Zm-5.269,6.25,3.768,7.774,5.487-2.533-1.048-9.49a16.287,16.287,0,0,1-2.939-1.407,10.582,10.582,0,0,1-4.207,1.676Zm5.347,11.088,4.22-3.458-.188-1.8-5.83,2.721-3.713-7.812-.414,1.731,1.219,6.3,1.094-2.439,1.547,2.72,2.751-.234Zm-3.611,2.673,2.079-1.36-.86-2.314h-2.032Zm-3.58-39.163c.047.047.266-.172.266-.266-.047-.187-.266-.281-.3-.359-.735-1.595.75-1.908,1.579-1.861.043-.695-.005-.975.093-1.707.249-1.86,1.714-4.5.626-4.718-1.719-.422-1.047,5.065-2.533,5.472C-448.648,246.037-447.6,248.429-446.521,249.023Zm-1.892-1.094c0,.5,1.032,1.923,1.36,1.876.125,0,.265-.156.172-.454-.594-.375-.906-1.219-1.266-1.72C-448.413,247.4-448.413,247.71-448.413,247.929Zm-.234,1.47c.047.625.5.8,1,.891a.246.246,0,0,0,.093-.219,3.241,3.241,0,0,1-1-1.142C-448.742,248.929-448.648,249.3-448.648,249.4Zm3.244,4.111h.973v-2.673c0-1.214.395-.359.989-1.986.906-2.36-2.579-2.142-2.892-1.548-.5,1.126.86,1.173,1.5.86.344-.266-.281.86-.922.641a.65.65,0,0,1-.719.594c0,.531-.219.8-.547.8-.454.782.688.876,1,.423.187-.329.571-.094.617.453Zm0,4.127h1.02l-.047-3.58h-.973Zm13.921,32.894c1.267,1.313,1.314,2.36.86,3.22-.547,1-2.032,1.314-3.533.766a36.232,36.232,0,0,0-2.439,4.3c-.594,1.6.453.954,1.485,1.642.86.547,1.235,1,1.235,1.892-1.547,2.22-3.986-.985-4.721-.626-.5.313-.688.219-1.219-.047,0-.407,1.126-2.861.047-2.486-.594.172-.281,1.485-.5,2.126-.183.654-.5.72-1.5.313-.766.5-2.845,2.314-3.846,1.094-.86-1.689,1.907-2.5,2.767-3.221-.547-1.188-1.094-2.407-1.689-3.58-2.61-1.172-4.659-3.486-6.519-5.613l5.221-13.461.219-.75v-5.612c0-.141-.719-.047-.86-.813-.125-.453.313-1.047.766-1.548l.033-.763a1.819,1.819,0,0,1-.127-2.676l-.078-13.618a1.069,1.069,0,0,1-1.673-.375c-1.36,0-1.594-1.845-1.313-2.126.181-.11.271-.086.3-.064-.4-1.3.369-1.249.369-1.468,0-.5.08-1.39.8-1.578,1.365-.2,1.251-2.2,1.561-3.678.2-.975.5-1.835,1.033-1.949,2.484-.525.494,3.512.292,4.861a13.344,13.344,0,0,0-.1,1.843c.625.219,1.22.219,1.626,1.094a3.231,3.231,0,0,1-.956,2.75v.458l.1,12.947a7.011,7.011,0,0,1,1.124-.2l.877-3.647h-.735v-.625h.907l2.095-8.067.8,2.486,1.047-3.3.953,8.88h.938l-.031.625h-.86l.313,3.674c1.485.091,3.873.707,3.873,2.181a1.946,1.946,0,0,1-1.239,1.734c1.1.686,2.143,2.154.587,2.917a5.168,5.168,0,0,1-2.851-.152l.037.246,1.36,11.522C-431.388,284.325-430.716,286.733-431.482,290.531Z" transform="translate(451.635 -239.786)" fill="#fff" fill-rule="evenodd"/>
    <path id="Caminho_268" data-name="Caminho 268" d="M-452.851,424.846a1.858,1.858,0,0,0,1.874,1.868,1.853,1.853,0,0,0,1.864-1.868A1.848,1.848,0,0,0-450.977,423,1.853,1.853,0,0,0-452.851,424.846Zm.338,0a1.53,1.53,0,0,1,1.536-1.576,1.528,1.528,0,0,1,1.526,1.576,1.533,1.533,0,0,1-1.526,1.6A1.535,1.535,0,0,1-452.513,424.846Zm.81,1.093h.338v-.934h.358l.592.934h.363l-.621-.959a.558.558,0,0,0,.572-.591c0-.417-.244-.621-.761-.621h-.84Zm.338-1.9h.447c.229,0,.477.045.477.333,0,.343-.273.358-.571.358h-.353Z" transform="translate(452.851 -363.813)" fill="#fff" fill-rule="evenodd"/>
  </g>
</svg>
