<svg id="Grupo_1806" data-name="Grupo 1806" xmlns="http://www.w3.org/2000/svg" xmlns:xlink="http://www.w3.org/1999/xlink" width="106.078" height="63.227" viewBox="0 0 106.078 63.227">
  <defs>
    <clipPath id="clip-path">
      <rect id="Retângulo_430" data-name="Retângulo 430" width="106.078" height="63.227" fill="none"/>
    </clipPath>
  </defs>
  <g id="Grupo_1805" data-name="Grupo 1805" clip-path="url(#clip-path)">
    <path id="Caminho_905" data-name="Caminho 905" d="M49.241,57Q28.371,57,7.5,57q-2.6,0-5.192,0C1.87,57,1.141,57.2.89,56.758c-.093-.163.15-.466.025-.624-.164-.206-.392-.006-.577-.1-.483-.24-.349-.258-.208-.951.153-.752.313-1.5.469-2.256.37-1.779.739-3.556,1.069-5.343.521-2.822.717-6.243,2.1-8.806s3.928-3.37,6.689-3.373q5.1,0,10.2,0l5.1,0c.239,0,1.622.182,1.739-.056.13-.263-1.466-1.706-1.682-1.96-.474-.56-.937-1.132-1.382-1.716-.179-.235-.592-1.179-.888-1.273-.552-.176-.748.5-1.368.037a3.157,3.157,0,0,1-.936-1.811,2.342,2.342,0,0,0-.585-1.383,2.408,2.408,0,0,1-.577-1.431c-.11-.672-.176-.865-.794-1.186a3.018,3.018,0,0,1-1.23-1.185c-.3-.4-.24-.428-.758-.352a7.248,7.248,0,0,0-2.286,1.049c-.941.533-2.686,1.621-3.747.79-.517-.405-.245-.939-.495-1.436-.238-.473-.6-.531-.646-1.107a4.353,4.353,0,0,1,.542-1.637c.316-.9.03-1.718.221-2.591a12.377,12.377,0,0,0,.546-1.877,2.315,2.315,0,0,1,.528-1.381,8.948,8.948,0,0,1,3.714-2.37c1-.381,2.711-.451,3.5-1.173.886-.816-.5-2.581-.678-3.518-.253-1.316,0-2.926,1.395-3.467,1.994-.631,3.388,1.779,3.353,3.689.5,1.507,1.39.8,2.116,2.191.278.535.339,2.3,1.111,2.271a4.879,4.879,0,0,1,1.93.1c1.25.459.358,1.445.991,2.316.213.293.708.29.543.625-.125.254.356.714.611,1.014a28.375,28.375,0,0,0,2.106,2.1,4.638,4.638,0,0,1,1.121,1.352A2.568,2.568,0,0,0,35.4,21.257c.637.28,1.176.241,1.571.815a12.659,12.659,0,0,1,.466,2.437c-.269.4,1.365-1.7,1.393-1.784.171-.52-.3-.331-.9-.563-1.018-.393-1.806-.886-1.722-2.091.029-.412.408-.872.407-1.223,0-.521-.333-.341-.892-.6a1.665,1.665,0,0,1-.8-2.493c.232-.431,1.745-1.405,1.675-1.688-.029-.117-.826-.323-.942-.375a2.638,2.638,0,0,1-1.288-.986.994.994,0,0,1-.045-1.06c.22-.394.894-.427,1.062-.745s-.433-.986-.547-1.285a3.977,3.977,0,0,1-.208-2.106,4.289,4.289,0,0,1,1.537-2.693,3.364,3.364,0,0,1,1.09-.542c.343-.1,1.379,0,1.6-.208s.144-.952.227-1.262a2.832,2.832,0,0,1,.578-1.131A3.345,3.345,0,0,1,42.468.7a3.612,3.612,0,0,1,1.3.371c.637.312.49.39,1.022-.077A3.561,3.561,0,0,1,48.033.417c.353.085.377.284.645.536s.6,1,.815,1.154c.277.2,1.464-1.536,1.908-1.762a3.126,3.126,0,0,1,3.031.1c.494.291.9,1,1.482,1.123a12.6,12.6,0,0,0,1.868.175,3.71,3.71,0,0,0,1.592-.335c.108-.063.187-.341.338-.448s.856.111.992.085a3.412,3.412,0,0,1,3.057.7c.376.318.818.4,1.021.847.105.229.4,1.22.7,1.27.4.067.8-1.675,1.176-1.971.692-.553,2.047-.213,2.865.076.482.17.544.074.9.441.4.4.32.622.85.654.453.028,1.033-.361,1.542-.374a3.659,3.659,0,0,1,1.894.487A2.805,2.805,0,0,1,76.1,5.606c.034.535-.154.87.257,1.136.209.135.957.069,1.238.171a3.493,3.493,0,0,1,2.04,2.048,4.7,4.7,0,0,1,.113,2.995c-.169.522-.8.521-1.048.989-.34.636.185.785.671,1.232.862.794.306,1.712-.614,2.126-.423.19-.981.146-1.373.356-.414.221-.4.093.037.532.676.676,1.436,1.327,1.366,2.39-.078,1.192-.975,1.244-1.875,1.522-.542.167-.438.1-.281.633A2.422,2.422,0,0,1,76.811,23a1.814,1.814,0,0,1-.635,1.035c-.435.363-1.282.306-1.634.632-.5.467.232,1.424.9,1.3s.585-.424.915-.914a6.035,6.035,0,0,1,1.347-1.211,13.624,13.624,0,0,0,2.779-2.294c.158-.228.158-.528.308-.736.137-.19.325-.271.462-.428.335-.384.277-.646.439-1.17a1.817,1.817,0,0,1,1.842-1.375c.355.017.792.359,1.1.336.574-.044.72-.711,1.044-1.236a19.2,19.2,0,0,1,2.11-2.489c.706-.813.86-1.961,1.614-2.78,1.711-1.857,4.036-.309,3.918,1.948a8.3,8.3,0,0,1-1.235,3.051c-.507,1.074.169,1.516,1.141,1.946,2,.883,4.374,1.679,5.71,3.547.609.851.316,1.75.594,2.683a3.36,3.36,0,0,1,.215,1.734,2.689,2.689,0,0,0,.088,1.864,3.315,3.315,0,0,1,.3,1.434c-.1.682-.348.438-.673.891-.4.559-.066,1.357-.885,1.647-2.365.837-3.758-2.6-5.824-2.561-.727.013-1.058,1.08-1.823,1.369-.5.189-.678.11-.918.639s-.107,1.272-.534,1.737c-.279.3-1.395,1-.89,1.622.156.193.922.1,1.1.1h2.343l8.9,0h2.109a6.346,6.346,0,0,1,1.888.006c.3.181.124.216.243.514.067.166-.084.323.062.464.164.159.436-.044.6.039.379.187.187-.052.222.415a8.283,8.283,0,0,1-.408,1.927q-.432,2.072-.831,4.151c-.556,2.875-1.08,5.761-1.75,8.613a7,7,0,0,1-3.137,4.69c-2.076,1.222-4.655.857-6.962.859q-17.516.017-35.033,0h-8.7M69.961,8.445c-.274-.521.234-1.917.276-2.488A4.557,4.557,0,0,0,69.9,3.614,1.883,1.883,0,0,0,66.822,2.8c-.393.317-1.067,1-.868,1.573.159.46,1.307,1.019,1.669,1.369a8.043,8.043,0,0,1,1.3,1.644c.271.451.442,1.349.949,1.467.54.125,1.4-.372,2-.332a3.557,3.557,0,0,1,2,.851,4.27,4.27,0,0,1,1.431,3.274A4.037,4.037,0,0,1,74.2,15.589c-.3.289-3.175,1.609-3.252.968-.018-.15,1.18-.531,1.331-.614A4.836,4.836,0,0,0,73.7,14.774a3.552,3.552,0,0,0,.811-2.7c-.256-1.915-2.174-3.66-4.176-3-.457.151-.86.688-1.218.408-.225-.176-.379-1.046-.525-1.329a7.4,7.4,0,0,0-1.89-2.24,4.256,4.256,0,0,0-1.351-.961c-.394-.081-.707.182-1.132.084-.886-.2-1.232-1.146-2.136-1.277a2.711,2.711,0,0,1-1.558-.545,2.265,2.265,0,0,0-1.211-.452,11.022,11.022,0,0,0-3.078-.293c-.525.083-.984.392-1.508.509-.439.1-.894.061-1.331.146-.887.173-1.264,1.087-2.239,1.1-.582,0-.917-.245-1.482-.005a4.46,4.46,0,0,0-.994.743A8.786,8.786,0,0,0,46.892,7.07c-.164.27-.351.907-.68,1.015-.217.072-.9-.348-1.148-.406a3.946,3.946,0,0,0-2.61.169c-1.906.926-2.443,3.32-1.924,5.209a2.624,2.624,0,0,0,1.576,1.826,10.332,10.332,0,0,0,1.972.126c.121.311-1.416.543-1.618.53a3.082,3.082,0,0,1-1.7-.773c-.634-.527-.656-.8-1.544-.575a6.779,6.779,0,0,0-1.837.737c-.773.458-2.033,1.6-1.476,2.634.626,1.162,2.461.228,3.3-.133-.35.651-1.07,1-1.414,1.7a2.63,2.63,0,0,0-.344,1.741c.461,1.642,2.577.957,3.724.7-.06.26-.863.633-1.077.832a4.166,4.166,0,0,0-1.351,3.283c.037.84.221,1.731,1.142,1.916a4.161,4.161,0,0,0,3.1-1.135c.034.295-.335.789-.409,1.1a3.813,3.813,0,0,0-.061,1.386,3.075,3.075,0,0,0,1.133,2.158c1,.634,1.537-.42,1.876-1.217a5.409,5.409,0,0,0,.442-1.656c.015-.179-.127-.9.091-.969.161.615.6,2,1.215,2.322,1.084.567.854-.74,1.4-1.1.088.821.26,3.23,1.495,2.905.279-.073,1.17-1.253,1.246-1.236.187.043.205,1.125.243,1.3.312,1.41,1.3,2.159,2.532,1.153a4.924,4.924,0,0,0,1.236-1.417c.09-.165.4-1.449.522-1.449a12.466,12.466,0,0,1,.5,1.612,4.508,4.508,0,0,0,.912,1.476c1.23,1.266,2.349.38,2.836-1.038.15-.437.038-1.116.434-.874.438.266.476,1.255,1.21,1.267,1.111.019,1.316-2.764,1.608-2.73s.086,1.606,1.012,1.406c.673-.144,1.361-1.451,1.537-2.027.438,1.146.487,4.2,2.541,2.678A2.749,2.749,0,0,0,69.6,29.7c.045-.359-.385-1.386-.218-1.552.844,1.049,3.184,2.639,3.961.719.868-2.146-.216-3.745-1.618-5.259,1.033.313,2.759,1.367,3.606.112.87-1.289-.335-3.085-1.26-3.966.893.017,1.515,1.214,2.531,1.087a1.224,1.224,0,0,0,.981-1.518,3.082,3.082,0,0,0-1.442-1.937c-.221-.158-2.258-1.1-2.252-1.129.013-.069,3.636.18,4.192-.234a.987.987,0,0,0,.339-1.3c-.409-.619-1.309-.347-1.905-.249l-.05-.1c1.927-.678,2.652-3.27,1.991-5.045-.308-.826-.993-1.9-2-1.81a24.759,24.759,0,0,0-2.4,1.411c-.05-.038.885-2.556.892-3a2.421,2.421,0,0,0-1.5-2.392c-2.331-.678-3.174,3.44-3.483,4.915m-11.822,25.8a.9.9,0,0,0-1.107.578c-.141.559.311.438.8.444,1.534.021,3.065-.029,4.6-.039,2.922-.018,5.845.037,8.766.038,3,0,6-.007,9-.009,1.343,0,2.713-.153,4.05-.109.652.021,1.02.295,1.341-.345.085-.17.035-1.308.264-1.322.291-.017.638,3.122,1.844,1.366a2.014,2.014,0,0,0,.228-1.055c0-.176-.245-.843-.182-.965.215-.414.691.482,1.06.37,1.155-.352-.581-3.722-.89-4.316-.2-.39-2.523-4.012-2.44-4.085.314-.274,2.443,2.932,2.63,3.251.442.757,1.335,3.12,2.513,2.564,2.5-1.179-1.074-6.113-1.971-7.31-.726-.967-4.329-5.231-5.747-3.98-1.06.935.338,2.045.884,2.682a10.073,10.073,0,0,1,1.086,1.587c.2.344.472.644.019.6-.386-.041-1.1-.961-1.429-1.236s-.991-.9-1.474-.922c-.538-.022-1.095.678-1.465.978-.491.4-.987.782-1.51,1.138-.764.518-2.585,1.6-1.152,2.3.217.106.977.26.579.6a7.352,7.352,0,0,1-1.407-.219,3.232,3.232,0,0,0-2.052.418c-.371.332-.293.748-.411,1.2a2.984,2.984,0,0,1-.763,1.321,4.374,4.374,0,0,0-.535.891c-.193.042-.406-.363-.68-.473a2.841,2.841,0,0,0-1.776.009c-.5.291-.558.914-.874,1.343a2.28,2.28,0,0,1-1.211.815,2.926,2.926,0,0,1-1.751-.053c-.512-.169-1.026-.695-1.575-.718-.284-.013-.482.194-.75.2s-.475-.13-.707-.136c-.464-.014-.4.04-.745.425-.377.423-.707.838-1.323.872-.47.026-.807-.233-1.239.039s-.493.768-.987,1.007a4.169,4.169,0,0,1-1.513.258M31.75,35.271c.86-.014.893-.113,1.159-.865s.639-1.495.982-2.229a13.133,13.133,0,0,1,2.407-3.8c.386-.389,1.411-.881,1.61-1.327a7.545,7.545,0,0,0-.222-2.083c-.345-.2-.536.8-.977.494-.043-.03-.172-1.918-.3-2.17-.717-1.453-2.359-1.855-3.86-1.793-1.1.046-.557-.273.139-.575.765-.332.636-.581.121-1.227A20.646,20.646,0,0,0,30.979,18c-.488-.479-1.186-1.52-1.878-1.726-.839-.25-3.406,2.148-3.6,1.994-.264-.212,1.233-1.851,1.455-2.078.549-.558,1.334-.921,1.485-1.746.425-2.32-2.242-.659-3.1-.212A14.6,14.6,0,0,0,21.535,17.5c-1.012,1.12-2.411,2.794-2.64,4.327a2.218,2.218,0,0,0,.618,1.99c.833.674,1.349-.273,1.821-.892.578-.757,1.125-1.536,1.689-2.3.343-.466,1.1-1.645,1.716-1.733.74-.105-.33.772-.57,1.075-.533.671-1.04,1.365-1.552,2.052-.468.628-2.568,3.794-1.554,4.524.489.352.952-.74,1.138-.2a7.236,7.236,0,0,1-.288.784,2.312,2.312,0,0,0,.068,1.045c.8,2.507,1.8-1.111,2.036-1.037.2.062.178,1.422.2,1.563a5.017,5.017,0,0,0,.644,1.875,14.538,14.538,0,0,0,2.191,2.76c.664.636,1.95,2.016,2.948,1.724.389-.114.6-.616.946-.357.082.062-.024.368.1.485.155.143.529.087.7.087M14.629,18.577A5.855,5.855,0,0,0,11.218,20.9c-.19.333-.557,1.321.032,1.531.454.162,1.413-.676,1.821-.879.148-.074,1.423-.773,1.468-.439.034.248-1.065.567-1.279.691-.688.4-2.389,1.793-1.066,2.55,1.1.63,2.792-.887,3.685-1.349.583-.3,1.435-.366,1.952-.691.57-.358.587-1.176.832-1.786a13.164,13.164,0,0,1,2.927-3.922c.428-.438,1.2-.874.4-1.13-.284-.091-1.579.405-1.646.287-.155-.276,1.211-.961,1.444-1.045.79-.284,1.52.138,2.2-.374.381-.289,1.275-.818,1.357-1.3.11-.65-.716-1.836-1.047-2.339-.42-.64-.921-1.191-1.387-1.782a8.571,8.571,0,0,1-.8-1.941c-.407-.9-2.218-2.949-2.8-1.04C18.814,7.561,20.43,8.86,20.4,10.4s-1.7,2-2.9,2.4a12.18,12.18,0,0,0-4.748,2.312c-.39.378-1.043,1.3-.257,1.525.273.078.8-.254,1.083-.338a2.555,2.555,0,0,1,1.622-.108c-1.17.49-3.4.633-3.843,2.112-.222.738-.061,1.232.64,1.021a7.661,7.661,0,0,1,2.632-.748m81.086,7.1c1.132,0,1.829.728,2.821,1.067.735.251.921-.223.727-.966A2.739,2.739,0,0,0,97.7,24.253a19.883,19.883,0,0,1-2.35-1.033c.1-.328,1.989.413,2.285.533.587.239,1.162.441.982-.493-.268-1.387-2.56-2.427-3.691-2.976-1.258-.611-3.285-.968-3.815-2.458-.572-1.611,1.319-2.972,1.35-4.557.041-2.076-2-1.21-2.709-.066-.461.739-.542,1.575-1.164,2.207a17.724,17.724,0,0,0-1.549,1.618c-.346.452-1.26,1.561-1.2,2.2.043.461,1.036,1.309,1.379,1.551.581.41,1.212.144,1.9.44.166.072,1.527.933,1.35,1.112-.309.313-1.852-.873-1.786.083.022.322.769,1.024.972,1.3.346.466.689.934,1.011,1.417A8.591,8.591,0,0,1,91.989,27.8c.09.371.018.97.266,1.263s.851.334,1.186.475c.852.36,4.159,3.47,4.9,1.772.71-1.623-2.833-3.025-3.751-3.691a6.154,6.154,0,0,1,2.469,1.1c.517.3,1.795,1.7,2.318.965s-.562-1.957-1.046-2.39a10.826,10.826,0,0,0-2.617-1.613M85.662,41.646v0c-1.053,0-1.312-.115-1.4.977a32.106,32.106,0,0,1-.536,3.9c-.138.669-.255,1.34-.375,2.012-.073.41-.511,1.5-.357,1.844.2.45,2.508.49,2.9.175.344-.279.285-1.274.354-1.691.1-.579.209-1.155.36-1.722A3.922,3.922,0,0,1,87.8,44.9a2.11,2.11,0,0,1,1.4-.47c.469.112.283.035.314.484a12.9,12.9,0,0,1-.353,1.669A4.569,4.569,0,0,0,89.182,48c.5,2.408,2.906,3.059,5.076,2.706a5.078,5.078,0,0,0,3.968-4.17c.36-2.017-.218-4.324-2.43-4.854-2.344-.562-3.858.262-5.47,1.874-1.085,1.084-.144-1.21-.247-1.657-.171-.748-1.069-.337-1.585-.082a3.025,3.025,0,0,0-1.1.99c-.136.18-.2.676-.5.4-.337-.309.132-.951.015-1.27-.164-.446-.807-.286-1.246-.286M58.576,41.61V41.6c-.582,0-1.12-.137-1.442.377a4.053,4.053,0,0,0-.184,1.321q-.114.839-.256,1.675c-.379,2.228-.8,4.449-1.193,6.674-.071.4-.708,2.326-.369,2.611a7.987,7.987,0,0,0,2.682-.007c.536-.4.473-1.852.59-2.464.2-1.062.244-1.161,1.28-1.048,3.877.421,6.192-3.28,5.491-6.88a2.694,2.694,0,0,0-3.3-2.284c-.5.089-1.868,1.18-2.11.912-.081-.09.123-.541.024-.7-.217-.337-.866-.178-1.213-.178m22.44,9.061v-.039c.747,0,1.15.185,1.372-.5a23.463,23.463,0,0,0,.314-2.908c.343-1.969.786-3.923,1.169-5.884.182-.935.385-1.867.557-2.8.14-.763.14-.861-.631-.907-.837-.05-2.086-.3-2.385.642-.217.685-.211,1.487-.367,2.194-.219,1-.177,1.118-1.2,1.033a4.846,4.846,0,0,0-3.94,1.56c-1.643,1.683-2.885,5.934-.312,7.411A3.093,3.093,0,0,0,79.075,50c.139-.122.4-.593.644-.476.2.1-.047.487-.029.623.094.722.67.523,1.326.523M37.537,11.84c-.57-.122-1.45-.47-1.926.061-.575.64.13,1.379.723,1.624a6.918,6.918,0,0,0,2.657.373c1.137-.009,1.017.016.633-.9a4.262,4.262,0,0,1,5.26-5.779c.106.036.569.306.738.25.5-.168.945-1.451,1.269-1.859.784-.988,2.877-1.795,2.248-3.253a1.973,1.973,0,0,0-3.522-.533,4.29,4.29,0,0,0-.734,2.079,18.439,18.439,0,0,1-.128,2.454c-.038,0-.533-2.8-.669-3.167-.281-.762-.987-1.78-1.915-1.781-1.043,0-1.8,1.145-1.949,2.04a29.1,29.1,0,0,0,.451,3.23C40.548,6.753,38.9,5.063,38.379,5c-1.014-.13-1.842.889-2.209,1.7a4.2,4.2,0,0,0,1.366,5.139m5.329,38.868V50.7c1.182,0,1.308.134,1.376-1.046a24.647,24.647,0,0,1,.332-2.759c.142-.826.328-1.645.484-2.468.092-.486.558-1.744.374-2.216-.362-.93-3.277-.659-4.083-.553a5.593,5.593,0,0,0-3.7,1.769c-1.494,1.61-2.686,5.97-.109,7.182a3.042,3.042,0,0,0,2.044.157c.815-.232.971-.808,1.6-1.192s.209.061.324.644c.139.707.672.493,1.352.493M39.244,35.27v0h2.737l2.611,0c.277,0,.475-.086.295-.4a4.783,4.783,0,0,1-.575-2.7c.015-.292-.115-.4-.4-.386a1.527,1.527,0,0,1-.735-.138,3.142,3.142,0,0,1-1.648-3.371c.1-.531.091-.541-.431-.373a2.747,2.747,0,0,1-2.643-.292.336.336,0,0,0-.455.037,13.127,13.127,0,0,0-2.129,2.073,13.94,13.94,0,0,0-2.22,5.016c-.158.492-.088.54.455.541q2.569,0,5.138,0m6.077,12.045C45.242,50.4,48.48,51.4,51,50.644A5.623,5.623,0,0,0,54.545,45C54.3,42.39,51.9,41.161,49.46,41.632c-2.689.519-4.123,3.138-4.139,5.683m24.339-.027c1.363.108,3.477-.384,4.14-1.713A2.859,2.859,0,0,0,72.871,42c-3.193-1.734-6.831.917-7.16,4.231-.158,1.591.05,3.294,1.624,4.067a5.709,5.709,0,0,0,2.575.528,5.462,5.462,0,0,0,2.6-.461,2.051,2.051,0,0,0,.344-2.013c-.3-.468-1.153.063-1.645.145a3.072,3.072,0,0,1-2.27-.34c-1-.757-.076-.87.719-.87M33.7,41.564c-1.762,0-3.67.717-4.074,2.631a2.263,2.263,0,0,0,.641,2.136c.559.528,1.474.593,1.978,1.178.8.928-.259,1.281-1.108,1.154-.548-.081-1.545-.735-2.01-.3a3.683,3.683,0,0,0-.445,1.35c-.029.448-.05.466.324.73a5.473,5.473,0,0,0,2.556.427c1.609.021,3.427-.572,3.947-2.234.48-1.532-.266-2.521-1.555-3.243-.433-.242-1.718-.774-1.145-1.474.537-.657,1.7.2,2.3.02a1.906,1.906,0,0,0,.865-1.725c-.159-.76-1.641-.658-2.274-.652M24.271,45a3.756,3.756,0,0,0-4.1,3.245,2.181,2.181,0,0,0,.752,2.306,1.984,1.984,0,0,0,1.227.186c.485-.08.664-.47,1.049-.611.572-.211.215.419.88.572,1.308.3,1.093-.493,1.193-1.441.119-1.129.408-2.241.58-3.362.071-.465.227-.459-.165-.729A3.122,3.122,0,0,0,24.271,45M14.108,45a3.8,3.8,0,0,0-3.968,3.245c-.255,1.56.989,3.252,2.657,2.269.295-.174.483-.565.768-.4.167.094.1.443.39.58a2.186,2.186,0,0,0,.938-.01c.433-.207.329-.587.365-1.054.092-1.2.414-2.353.6-3.536.178-1.142-.746-1.123-1.748-1.087M18.9,45a2.378,2.378,0,0,0-2.568,1.365c-.436,1.26.394,1.583,1.24,2.156.414.28.73.555.111.858-.466.228-1.055-.283-1.5-.132a.9.9,0,0,0-.323,1.328c.334.308,1.555.212,1.986.176a2.476,2.476,0,0,0,1.462-.523,1.647,1.647,0,0,0,.243-2.369c-.311-.37-1.238-.552-1.4-.966-.317-.8.825-.479,1.161-.525.372-.051,1.057-.335.832-.969-.159-.448-.862-.375-1.243-.4M8.5,50.76c.655,0,1.164.05,1.346-.622.381-1.4-.934-.479-1.56-1.059a1.708,1.708,0,0,1,.227-2.242c.638-.55,1.567-.131,2.011-.976.584-1.109-.851-.963-1.563-.833a3.6,3.6,0,0,0-2.232,1.311,3.46,3.46,0,0,0-.664,2.735c.293,1.275,1.253,1.6,2.435,1.686M51.45,35.277c.373.041,1.783-.5,1.716-1-.045-.329-1.3-.74-1.6-1.131-.454-.612-.559-.931-1.339-1.062-.837-.141-1.048-.055-1.545-.786-.312-.459-.713-1.228-1.462-.7-.56.393.069,1.444.271,1.917a5.547,5.547,0,0,0,1.53,2.2c.777.66,1.457.438,2.425.561M19.877,41.558v.019c.412,0,1.374.2,1.706-.1s.324-1.118.417-1.537c.076-.345.541-1.428.375-1.771-.182-.377-1.02-.175-1.377-.171-1.469.016-2.228-.077-2.6,1.487-.086.361-.473,1.592-.245,1.909.25.346,1.354.165,1.728.165M14.99,43.936c1.188,0,1.952.1,2.285-1.194a5.069,5.069,0,0,0,.344-1.7c-.11-.528-.624-.372-1.125-.381-1.3-.023-2.412-.132-2.8,1.295-.089.326-.462,1.5-.265,1.8.225.344,1.205.178,1.565.179m8.333,0c1.509,0,2.126-.178,2.425-1.72.067-.345.4-1.14.173-1.421s-1.123-.123-1.484-.123c-1.429,0-2.092.063-2.435,1.59-.059.264-.382,1.309-.193,1.575.2.282,1.237.1,1.514.1m19.845-3.569c.929,0,2.564-2.291,1.174-2.407-.673-.056-.767.653-1.263.8-.527.157-1.174-.578-1.726-.647-1.361-.168-2.762,2.569-1.395,2.483.744-.047.757-1.029,1.443-.935.226.031.431.391.651.5a2.594,2.594,0,0,0,1.115.209M53.085,1.045A3.794,3.794,0,0,0,50.4,2.652c-.253.333-.472.517-.19.83.211.234.988.156,1.251.048.5-.2.708-.751,1.19-.971.571-.26,1.26-.03,1.852-.154,1.443-.3-.736-1.41-1.421-1.361m8.736.7c-.282.005-1.353-.03-1.511.269-.194.367.4.873.652,1.005.438.226.812.024,1.264.141a2.778,2.778,0,0,1,1.031.747c.237.21.835.852,1.173.517.254-.251.022-1.045-.1-1.325a2.54,2.54,0,0,0-2.509-1.354M19.693,42.223c-.368,0-1.331-.178-1.642.026a1.815,1.815,0,0,0-.453,1.307c.208.693,1.5.4,2.136.377.742-.03,1.358-.139,1.621-.922.382-1.139-.874-.787-1.662-.787M46.385,30.447q.077-.2-.072-.283c-.183.01-.375.729-.505.88-.276.321-.687.388-.788.849-.187.856.793,2.224,1.333,2.835.13.147.74.806.892.316.049-.159-.587-.913-.678-1.128a6.855,6.855,0,0,1-.181-3.468m8.588,4.442c-.036-.349-.291.033-.3.033.084-.008.249.23.3-.033" transform="translate(0 0)" fill="#fff"/>
    <path id="Caminho_906" data-name="Caminho 906" d="M139.2,175.844c-.007.229-.249,2.649-.937,1.818-.3-.361.795-2.6-.419-1.99-.207.1-.655,2.821-1.249,1.979-.22-.312.761-2.6-.364-1.945-.563.328-.3,2.391-1.143,2.058-.38-.151.024-2.477.329-2.668.233-.146.325.123.535.093s.548-.17.741-.185c.543-.044.788.241,1.344.131.717-.142,1.162-.2,1.162.71" transform="translate(-89.305 -115.823)" fill="#fff"/>
    <path id="Caminho_907" data-name="Caminho 907" d="M148.639,176.522a1.626,1.626,0,0,1,1.374-1.585,1.9,1.9,0,0,1,1.12-.054c.5.265.265.646.176,1.212-.045.288-.031,1.282-.252,1.472-.377.326-.528-.231-.779-.227-.457.008-.645.489-1.19.232-.505-.238-.43-.536-.448-1.049m.815.143c.033,1.017,1.342-.3,1.073-1.008-.332-.878-1.058.549-1.073,1.008" transform="translate(-98.373 -115.7)" fill="#fff"/>
    <path id="Caminho_908" data-name="Caminho 908" d="M230.619,174.926c.955.032.552,1.022.466,1.731-.059.484.042,1.072-.58,1.072-.144,0-.279-.27-.386-.272-.212,0-.258.192-.451.221-.975.145-1.417-.528-1.078-1.486a2.029,2.029,0,0,1,2.029-1.266m-1.347,1.689c.059,1.157,1.186.03,1.137-.683-.074-1.082-1.126.045-1.137.683" transform="translate(-151.217 -115.774)" fill="#fff"/>
    <path id="Caminho_909" data-name="Caminho 909" d="M72.274,174.855c1.181.153.554,1.033.436,1.979-.1.808,0,.714-.611.745-.117.006-.249-.113-.395-.106-.187.009-.354.218-.563.233-.985.069-1.066-1.02-.79-1.711a2.014,2.014,0,0,1,1.922-1.14m-.106,1c.063-.963-1.17.021-1.158.675.026,1.388,1.048-.047,1.158-.675" transform="translate(-46.471 -115.728)" fill="#fff"/>
    <path id="Caminho_910" data-name="Caminho 910" d="M87.945,174.941c.53.043.511-.005.624.428a5.634,5.634,0,0,1-.252,1.588c-.057.351.006.7-.372.787a4.755,4.755,0,0,0-.565-.22q-.337.1-.666.22c-1.088.017-1.093-1.118-.684-1.835a2.027,2.027,0,0,1,1.916-.968m-.178.948c.037-.916-.982-.076-1.077.416-.072.37-.073.966.44.855.386-.083.6-.957.637-1.271" transform="translate(-56.773 -115.782)" fill="#fff"/>
    <path id="Caminho_911" data-name="Caminho 911" d="M62.871,175.693a1.64,1.64,0,0,1-1.655-2.328,1.911,1.911,0,0,1,1.055-1.222c.222-.109,1.954-.63,1.885.063-.05.5-1.167.252-1.549.47a1.6,1.6,0,0,0-.655,1.671c.182.647.646.683,1.237.754.207.024.479-.11.612.111.28.466-.778.478-.929.482" transform="translate(-40.44 -113.74)" fill="#fff"/>
    <path id="Caminho_912" data-name="Caminho 912" d="M240.342,176.184c.01,1.83-3.062,2.26-2.77.17.213-1.527,2.76-2.01,2.77-.17m-.76-.025c.031-1.206-1.591-.317-1.161.735.407.995,1.052-.237,1.161-.735" transform="translate(-157.224 -115.82)" fill="#fff"/>
    <path id="Caminho_913" data-name="Caminho 913" d="M176.417,176.664c.013-1.89,3.126-2.245,2.76-.144-.255,1.466-2.772,1.939-2.76.144m.83-.056c.153,1.161,1.2.564,1.193-.336,0-.388-.218-.795-.7-.651-.425.129-.435.637-.5.986" transform="translate(-116.762 -115.883)" fill="#fff"/>
    <path id="Caminho_914" data-name="Caminho 914" d="M120.045,176.763c.017-1.908,3.022-2.392,2.77-.331-.177,1.448-2.786,2.091-2.77.331m.83-.088c.21,1.136,1.1.5,1.116-.4.023-1.223-1.085-.527-1.116.4" transform="translate(-79.452 -115.886)" fill="#fff"/>
    <path id="Caminho_915" data-name="Caminho 915" d="M187.381,176.126c-.48-1.893-1.21,1.46-1.409,1.561-.958.484-.349-2.5.1-2.647a7.889,7.889,0,0,1,.939.042c.233-.024.434-.152.679-.076.512.159.534.565.5,1.05-.028.351-.106,1.951-.78,1.724-.509-.171-.091-1.273-.023-1.653" transform="translate(-122.749 -115.811)" fill="#fff"/>
    <path id="Caminho_916" data-name="Caminho 916" d="M213.026,176.957c.058-.41.017-1.587.379-1.812.516-.322.533.111.549.412.021.405-.515,1.651.2,1.641.739-.009.578-1.342.794-1.761s.62-.545.786-.024a5.369,5.369,0,0,1-.517,2.337c-.212.13-.421-.069-.631-.068-.259,0-.518.112-.772.116-.558.008-.8-.25-.789-.84" transform="translate(-140.991 -115.844)" fill="#fff"/>
    <path id="Caminho_917" data-name="Caminho 917" d="M107.852,177.662c-1.023,0-1.519-.73-1.166-1.734.282-.8,1.882-1.667,2.423-.614.649,1.263-1.424.968-1.6,1.42-.233.6.809.2,1.03.378.541.43-.318.54-.688.551m.213-2.278c-.441.017-.832.643-.252.708.479.054.823-.734.252-.708" transform="translate(-70.535 -115.709)" fill="#fff"/>
    <path id="Caminho_918" data-name="Caminho 918" d="M161.107,177.232c.451,0,.831.158.3.523a1.713,1.713,0,0,1-1.65-.264,1.748,1.748,0,0,1,.524-2.243c.664-.427,2.211-.153,1.741.893-.246.547-.758.388-1.2.572-.669.278-.419.524.283.524Zm-.461-.977c.473-.019.973-.641.3-.7-.424-.039-.859.707-.3.7" transform="translate(-105.585 -115.861)" fill="#fff"/>
    <path id="Caminho_919" data-name="Caminho 919" d="M223.188,177.2c.314,0,.561.03.413.416-.076.2-.447.023-.555.285-.07.17.2.492.126.7s-.716.684-.92.308c-.117-.214.347-.231.353-.671.007-.609-.86-.815-.969-1.436-.232-1.319,2.29-2.347,2.3-1.481,0,.3-1.044.3-1.278.631-.366.523-.163,1.257.531,1.25" transform="translate(-146.679 -115.826)" fill="#fff"/>
    <path id="Caminho_920" data-name="Caminho 920" d="M115.086,174.933c.155-1.059-.033-2.068.607-2.95.256-.353.53-.73,1.037-.673.7.079.341.252.045.57-.153.165-.411.142-.419.448-.007.261.369.332.38.475.044.534-.231.087-.515.424-.393.466-.036,1.426-.432,1.871-.242.272-.738.353-.7-.165" transform="translate(-76.169 -113.377)" fill="#fff"/>
    <path id="Caminho_921" data-name="Caminho 921" d="M79.469,177.608c-.689,0-.882-.36-.178-.544.61-.16.913.07.4-.568-.281-.348-.7-.556-.516-1.084a1.334,1.334,0,0,1,1.531-.562c.769.547-1.033.241-.6,1.028.223.407.822.361.738,1.01s-.862.7-1.372.735v-.015" transform="translate(-52.186 -115.666)" fill="#fff"/>
    <path id="Caminho_922" data-name="Caminho 922" d="M201.55,175.736c0-.47.143-.935.138-1.4,0-.2-.28-.024-.266-.236,0-.072.416-.431.475-.488.311-.3.5-.6.824-.369.075.055.01.394.084.517a5.385,5.385,0,0,0,.463.294c.027.406-.39.173-.634.376-.415.347-.3,1.133-.165,1.558.1.29.566.391-.079.585-.539.162-.889-.358-.84-.838" transform="translate(-133.311 -114.607)" fill="#fff"/>
    <path id="Caminho_923" data-name="Caminho 923" d="M170.746,177.728a1.2,1.2,0,0,1-1.025-2.017,1.75,1.75,0,0,1,1.472-.766c.355.06.778.22.341.568-.322.257-.761-.073-1.068.435-.163.27-.229.916.043,1.146.244.206.759-.121.9.187.172.391-.4.447-.657.447" transform="translate(-112.13 -115.78)" fill="#fff"/>
    <path id="Caminho_924" data-name="Caminho 924" d="M195.915,175.4c-.864-.161-.213.545-.028.752.287.322.619.559.371,1.05-.232.46-.919.525-1.367.437-.606-.118-.683-.226-.14-.47.577-.26.853.221.524-.483-.212-.454-.865-.548-.648-1.183a1.305,1.305,0,0,1,1.383-.605c.5.17.438.458-.095.5" transform="translate(-128.654 -115.73)" fill="#fff"/>
    <path id="Caminho_925" data-name="Caminho 925" d="M101.046,177.7c-.61.122-.184-2.26.054-2.508.421-.439.179,0,.7,0,.187,0,.668-.326.764-.295.732.233-.644,1.039-.767,1.266-.195.359-.09,1.684-.748,1.531" transform="translate(-66.669 -115.759)" fill="#fff"/>
    <path id="Caminho_926" data-name="Caminho 926" d="M129.091,177.353c.109-.628.07-2.085.732-2.22a1.387,1.387,0,0,0,.419.271.446.446,0,0,0,.271-.163c.232.009.483-.4.577.059.085.42-.377.321-.569.52a2.072,2.072,0,0,0-.581.991c-.062.216-.047.883-.3,1-.389.176-.5-.166-.548-.455" transform="translate(-85.439 -115.878)" fill="#fff"/>
    <path id="Caminho_927" data-name="Caminho 927" d="M206.773,177.518c.1-.83.288-1.535.319-2.263.012-.277.276-.26.413-.182a.882.882,0,0,0,.913-.048c.12-.06.3-.149.366.02s.083.415-.134.47c-.922.232-1.009.971-1.107,1.716-.032.242-.07.472-.4.5-.257.023-.421-.014-.374-.214" transform="translate(-136.847 -115.789)" fill="#fff"/>
    <path id="Caminho_928" data-name="Caminho 928" d="M248.484,172.433c-.044.436-.221,1.825-.569,2.1-.431.338-.415.08-.5-.22a5.639,5.639,0,0,1,.345-2.048c.227-.257.851-.344.722.17" transform="translate(-163.744 -113.877)" fill="#fff"/>
    <path id="Caminho_929" data-name="Caminho 929" d="M94.779,180.359c.435-.066-.465,1.908-.963,1.611-.27-.161.158-.844.241-1,.247-.48.25-.443.723-.606" transform="translate(-62.033 -119.369)" fill="#fff"/>
    <path id="Caminho_930" data-name="Caminho 930" d="M232.04,171.824c.146.028,1.044-.013,1.092.08.243.473-.732.5-.845.518a3.014,3.014,0,0,1-.7.075c-.345-.342.212-.617.456-.674" transform="translate(-153.202 -113.722)" fill="#fff"/>
    <path id="Caminho_931" data-name="Caminho 931" d="M246.483,180.9c.073-.551,1.185-.312.854.318-.271.515-.888.212-.854-.318" transform="translate(-163.134 -119.526)" fill="#fff"/>
    <path id="Caminho_932" data-name="Caminho 932" d="M152.226,15.416c-4.568-1.994-6.489,4.313-5.187,7.671.214.552,1.01,2.057,1.69,2.142.221.027.849-.512.873-.7.044-.351-.63-1.143-.732-1.553-.351-1.411.469-4.315,2.426-3.861.931.216,1.371,1.266,1.5,2.111.093.633-.42,2.245.011,2.553a3.045,3.045,0,0,0,1.331-.006c.228-.184.041-.892.043-1.136a3.792,3.792,0,0,1,1.094-2.866c1.826-1.425,3.01,1.266,2.909,2.743a3.922,3.922,0,0,1-.324,1.34c-.139.309-.709.839-.693,1.175a1.072,1.072,0,0,0,.787.73c.423.014.845-.493,1.1-.765a6.883,6.883,0,0,0,1.358-6.129,4.87,4.87,0,0,0-1.518-2.733,2.9,2.9,0,0,0-1.653-.7,9.74,9.74,0,0,1-1.439.125c-.146-.307,1.508-.74,1.708-.762a2.933,2.933,0,0,1,2.495,1,6.1,6.1,0,0,1,1.407,4.621,6.754,6.754,0,0,1-2.237,4.847c-.858.7-1.1.429-.632,1.445a2.9,2.9,0,0,1,.141,2.278c-1.26,3.351-6.726,3.141-9.072,1.207a5.186,5.186,0,0,1-1.406-1.8,2.655,2.655,0,0,1-.268-1.3c.031-.5.468-.94.5-1.382.047-.727-.883-1.088-1.341-1.667a7.048,7.048,0,0,1-1.18-2.9,6.836,6.836,0,0,1,1.425-5.593,3.1,3.1,0,0,1,4.893-.128m1.2,8.938c-1.94,0-4.818.762-4.907,3.174-.085,2.31,2.575,3.271,4.47,3.421,2,.159,4.831-.541,5.3-2.845.508-2.507-2.81-4.019-4.861-3.75m-1.5-2.28c.047-1.817-1.966-1.244-1.778.322s1.77,1.068,1.778-.322m4.929.468c.126-1.576-1.648-1.745-1.759-.165-.034.488.055,1.245.628,1.388.634.159,1.2-.658,1.131-1.224" transform="translate(-96.489 -9.451)" fill="#fff"/>
    <path id="Caminho_933" data-name="Caminho 933" d="M156.656,68.4a4.531,4.531,0,0,1-3.361-1.927c-.283-.345-2.074-3.341-1.577-3.607.062-.033,1.7,1.071,1.917,1.172a7.849,7.849,0,0,0,2.658.724,12.437,12.437,0,0,0,5.409-.917c.523-.2,1.1-.678.843.028a7.889,7.889,0,0,1-1.528,2.083,6.1,6.1,0,0,1-4.361,2.442" transform="translate(-100.357 -41.604)" fill="#fff"/>
    <path id="Caminho_934" data-name="Caminho 934" d="M212.189,32.54c.159.33.212,3.032-.028,3.069-.733.114-.114-2.772.028-3.069" transform="translate(-140.187 -21.537)" fill="#fff"/>
    <path id="Caminho_935" data-name="Caminho 935" d="M128.6,32.252c0,.215.032.309-.088.484-.272-.319-.261-.961-.4-1.349-.172-.474-.478-.865-.254-1.385.581.319.706,1.7.744,2.25" transform="translate(-84.569 -19.857)" fill="#fff"/>
    <path id="Caminho_936" data-name="Caminho 936" d="M48.825,42.326c-.444,1.7-.467,3.4-.784,5.078-.486-1.536-.343-4,.784-5.078" transform="translate(-31.621 -28.013)" fill="#fff"/>
    <path id="Caminho_937" data-name="Caminho 937" d="M277.74,68.879a28.569,28.569,0,0,0-.164-5.842,6.76,6.76,0,0,1,.164,5.842" transform="translate(-183.714 -41.721)" fill="#fff"/>
    <path id="Caminho_938" data-name="Caminho 938" d="M272.877,132.641c-.094-.965.285-2.546,1.261-2.985,1.318-.592,1.74.693,1.638,1.757-.084.874-.333,2.275-1.237,2.7-1.186.555-1.662-.517-1.662-1.471" transform="translate(-180.594 -85.714)" fill="#fff"/>
    <path id="Caminho_939" data-name="Caminho 939" d="M175.294,133.631a5.819,5.819,0,0,1,.945-3.118c.812-.915,1.859-.528,1.942.65A3.955,3.955,0,0,1,177.1,134.2c-.722.647-1.854.47-1.8-.569" transform="translate(-116.017 -86.045)" fill="#fff"/>
    <path id="Caminho_940" data-name="Caminho 940" d="M230.547,129.359c.484.108.74.09.843.586a5.8,5.8,0,0,1-.387,2.121c-.226.85-1.087,2.627-2.2,1.665-1.506-1.306.262-4,1.74-4.371" transform="translate(-151.056 -85.616)" fill="#fff"/>
    <path id="Caminho_941" data-name="Caminho 941" d="M115.755,132.74a4.57,4.57,0,0,1,1.257-2.885c.25-.227.974-.633,1.343-.517.437.137.317.5.253.929-.148.989-.318,2.63-1.057,3.365-.92.915-1.664.083-1.8-.892" transform="translate(-76.612 -85.588)" fill="#fff"/>
    <path id="Caminho_942" data-name="Caminho 942" d="M142.981,133.127a4.577,4.577,0,0,1,.977-3.035c1.015-.984,2.1-.113,2.089,1.091-.005.944-.283,2.437-1.14,3.008a1.225,1.225,0,0,1-1.926-1.064" transform="translate(-94.632 -85.82)" fill="#fff"/>
    <path id="Caminho_943" data-name="Caminho 943" d="M204.092,130.759c-.587-.077-.739-.215-.313-.782a1.687,1.687,0,0,1,1.4-.647c.475.022.984.31.672.875-.283.513-1.268.547-1.764.555" transform="translate(-134.711 -85.596)" fill="#fff"/>
    <path id="Caminho_944" data-name="Caminho 944" d="M65.16,139.2a2.438,2.438,0,0,1,.991-1.963c.734-.376.892.047.759.714-.114.572-.168,1.415-.661,1.826-.633.527-1,.086-1.089-.577" transform="translate(-43.126 -90.738)" fill="#fff"/>
    <path id="Caminho_945" data-name="Caminho 945" d="M35.559,139.146a2.272,2.272,0,0,1,.939-1.869c.746-.475.928-.2.836.54a3.216,3.216,0,0,1-.59,1.882c-.561.523-1.188.223-1.185-.553" transform="translate(-23.535 -90.701)" fill="#fff"/>
    <path id="Caminho_946" data-name="Caminho 946" d="M102.611,17.951a2.542,2.542,0,0,1,1.593.225c.271.153.394.042.53-.2a16.2,16.2,0,0,1,1.371-2.155A13.3,13.3,0,0,1,107.4,14.49a2.342,2.342,0,0,0,.641-1.022,4.526,4.526,0,0,1,1-1.8,2.154,2.154,0,0,1,3.622.365,3.441,3.441,0,0,1-.219,3.4c-.28.562-.582,1.112-.854,1.677a.822.822,0,0,0,.309.981,6.82,6.82,0,0,0,1.843.894,12.861,12.861,0,0,1,4.56,2.841,2.072,2.072,0,0,1,.707,1.662,4.751,4.751,0,0,0,.375,2.046,1.927,1.927,0,0,1-.124,1.574.746.746,0,0,0,.012.716,5.56,5.56,0,0,1,.453,1.457.5.5,0,0,0,.166.333v.406c-.321.529-1.036.81-.984,1.583a1.692,1.692,0,0,1-.072.29.718.718,0,0,1-.518.546,2.813,2.813,0,0,1-2.4-.466.562.562,0,0,1,.087-.344,6.557,6.557,0,0,0,1.258.179c.564-.041.746-.228.773-.783a2.472,2.472,0,0,0-.263-.983c.028-.237.217-.182.365-.2a.586.586,0,0,0,.695.135.621.621,0,0,0,.32-.636,3,3,0,0,0-.5-1.34,6.258,6.258,0,0,0-1.606-1.377c.17-.386.449-.006.662-.1.206.114.414.224.617.342.231.134.476.117.57-.12a2,2,0,0,0,.05-.723c-.005-.839-.624-1.189-1.241-1.536-.009-.16-.015-.319.168-.4.269.02.377-.107.4-.374a1.492,1.492,0,0,0-.491-1.3,11.839,11.839,0,0,0-3.635-2.3,11.546,11.546,0,0,1-2.608-1.289,2.044,2.044,0,0,1-.739-2.26,12.552,12.552,0,0,1,.887-1.681,3.381,3.381,0,0,0,.4-1.022,2.368,2.368,0,0,0,.195-.976c.024-.316-.046-.574-.406-.651a1.265,1.265,0,0,0-1.34-.1,3.445,3.445,0,0,0-1.6,2.179,2.067,2.067,0,0,1-.59,1.057,9.254,9.254,0,0,0-1.161,1.159,9.488,9.488,0,0,0-1.575,2.367.626.626,0,0,0,.213.834,5.057,5.057,0,0,1,1.133,1.126.444.444,0,0,0,.424.221c.189,0,.379.01.568,0,.805-.052,1.3.56,1.923.894a.112.112,0,0,1,.051.061c.022.074.071.164.047.223-.034.087-.147.06-.216.037a7.244,7.244,0,0,0-1.55-.085l.648.909a.462.462,0,0,1-.164.5c-.6-.728-1.194-1.452-1.848-2.132a7.817,7.817,0,0,0-3.21-2.256c-1-.313-1.468-.042-1.406.954.01.161,0,.325.014.485a.848.848,0,0,0,.357.639,6.326,6.326,0,0,1,1.666,1.947c-.083.14-.151.3-.361.269a11.272,11.272,0,0,0-1.622-1.254c-.727-.433-.721-.443-1.315.139a.979.979,0,0,1-.123.105c-.862.591-1.657,1.274-2.546,1.83a3.246,3.246,0,0,0-1.373,1.394c-.1.224-.186.457.079.641a.785.785,0,0,1,.083.453,5.2,5.2,0,0,0-2.366.329.7.7,0,0,0-.462.637,2.654,2.654,0,0,1-1.133,2.219l-.1.06-.006.008-.385.139a4.652,4.652,0,0,1-1.27-.128,1.049,1.049,0,0,0-1.4.722,2.339,2.339,0,0,1-2.994,1.52,1.525,1.525,0,0,0-.273-.055,1.293,1.293,0,0,1-.969-.557c-.067-.268-.269-.5-.506-.4a5.867,5.867,0,0,1-1.462.176c-.655-.058-.639-.05-.927.514a1.547,1.547,0,0,1-2.123.734c-.133-.194-.313-.2-.414-.014-.221.416-.585.721-.825,1.119a3.853,3.853,0,0,1-2.046.451c-.211-.007-.431-.009-.512.221-.1.274-.314.465-.431.722-.239.01-.479.04-.717.028-.342-.018-.42-.229-.248-.535.079-.141.269-.23.23-.434.265-.1.275-.38.414-.569.234-.165.229-.274-.017-.388-.168-.251-.367-.254-.559.005a2.682,2.682,0,0,1-.672.724.76.76,0,0,0-.362.406,2.623,2.623,0,0,0-.748.787,6.09,6.09,0,0,1-1.293.161c-.189.01-.4.084-.577-.064A5.224,5.224,0,0,1,73.461,34.3c.169-.05.3-.148.238-.337-.047-.152-.189-.163-.329-.115-.2,0-.4-.01-.606,0a1.692,1.692,0,0,1-1.678-1.19c-.207-.457-.416-.687-.912-.6l-.856-.088a.519.519,0,0,1-.419-.189,3.414,3.414,0,0,1-.662-1.144c-.072-.187-.162-.278-.348-.223a3.23,3.23,0,0,1-.793.081c-.276.013-.448.132-.44.448a1.747,1.747,0,0,0,.161.932.781.781,0,0,0,.306.811q.017.112.034.223a5.294,5.294,0,0,0,.168.651c.127.327.3.623.709.664.119.108.249.207.356.325.239.263.611.411.7.8a3.29,3.29,0,0,1-1.863-.083c.039-.214-.145-.307-.254-.424a2.89,2.89,0,0,1-.832-2.2c.033-.727.025-1.457.033-2.186,0-.1.035-.235-.092-.285-.162-.064-.21.089-.263.186A2.889,2.889,0,0,1,64.8,31.548a.461.461,0,0,0-.139.7,2.154,2.154,0,0,1,.21.567,3.746,3.746,0,0,0,.809,1.553,1.4,1.4,0,0,1,.483.817c-.384.369-.745.371-1.356.007,0-.027.006-.061-.007-.08a4.321,4.321,0,0,1-.713-2.879c.014-.221-.049-.34-.3-.364A2.482,2.482,0,0,1,62,30.9a2.944,2.944,0,0,1-.7-2.535c.106-.459,0-.561-.47-.468a3.025,3.025,0,0,1-2.645-.343.436.436,0,0,0-.352-.035.223.223,0,0,1-.205-.207c.034-.056.106-.119.1-.166a9.918,9.918,0,0,1-.168-1.993c0-.192-.208-.2-.35-.145a1.23,1.23,0,0,0-.288.217c-.168.048-.231-.111-.342-.175,0-.043,0-.086,0-.128A.261.261,0,0,0,56.6,24.5c-.161-.216-.053-.473-.107-.705a.984.984,0,0,0-.442-.925l-.1-.147a.68.68,0,0,0-.525-.53,2.822,2.822,0,0,0-1.411-.626c-.047-.186-.2-.137-.325-.142-.361-.015-.569-.181-.565-.561.154-.3-.022-.533-.158-.763a5.936,5.936,0,0,0-1.13-1.249,2.673,2.673,0,0,0-1.085-.913c-.478-.471-.96-.938-1.433-1.413a.926.926,0,0,0-1.016-.241,5.653,5.653,0,0,0-1.428.762.553.553,0,0,1-.325-.482,3.017,3.017,0,0,1,.953-1c.321-.24.76-.388.82-.879a.67.67,0,0,0,.041-.642c-.092-.3-.106-.7-.451-.79a3.964,3.964,0,0,0-1.053-.036c-.51.005-.82.459-1.277.586a1.232,1.232,0,0,0-.825.476,14.631,14.631,0,0,0-2.341,2.015c-.311.3-.617.6-.913.909a16.077,16.077,0,0,0-2.093,2.745,4.317,4.317,0,0,0-.9,2.625,1.905,1.905,0,0,0,.6,1.389c.387.309.862.429,1.645-.3.148.016.3.025.364.2-.03.073-.059.147-.092.218a4.781,4.781,0,0,0-.489,2.221.46.46,0,0,0,.758.4.415.415,0,0,1,.215-.089l.227.161a1.833,1.833,0,0,0,.57,2.394c.3.24.568.128.821-.082.216-.179.405-.406.731-.361a6.255,6.255,0,0,0,1.212,2.773c.105.23.194.473.468.563A8.407,8.407,0,0,0,47.18,33.8q.819.666,1.64,1.33c.017.226-.1.311-.313.3a6.021,6.021,0,0,0-.808.005.494.494,0,0,1-.452-.185c-.284-.375-.671-.648-.956-1.019a1.318,1.318,0,0,0-.973-1.222,8.241,8.241,0,0,1-1.811-2.369c-.146-.281-.311-.264-.545-.151-.625.3-.772.263-1.2-.263-.059-.072-.119-.142-.178-.213a6.242,6.242,0,0,0-.439-1.483c-.01-.031-.089-.04-.136-.058l-.059-.167c.065-.34.074-.662-.268-.878l-.066-.1c0-.062-.025-.092-.09-.069a.922.922,0,0,1-.408-.318c.045-.469-.156-.915-.134-1.384,0-.03-.1-.064-.159-.1a.684.684,0,0,0-.59-.732,2.454,2.454,0,0,1-.4-.16,4.19,4.19,0,0,0-.9-.812c-.051-.092-.107-.182-.152-.277-.23-.478-.423-.567-.917-.4-.4.14-.8.295-1.2.443-.038-.114-.179-.176-.161-.319.131-.086.259-.176.394-.255a5.713,5.713,0,0,1,1.8-.559.651.651,0,0,0,.322-.385,13.546,13.546,0,0,1,.645-1.974.222.222,0,0,0,.162-.243h0c.167-.119.359-.221.338-.474l.208-.285a1.974,1.974,0,0,0,.677-1.02l.144-.1a1.462,1.462,0,0,0,.828-.957c.34-.328.682-.653,1.017-.986.132-.131.235-.327-.024-.388a2.1,2.1,0,0,0-1.328.027c-.114.048-.254.235-.369.026-.1-.184.108-.258.2-.336a2.965,2.965,0,0,1,2.394-.6.715.715,0,0,0,.671-.206c.33-.344.733-.593,1.087-.906.45-.4.482-.569.269-1.12a18.479,18.479,0,0,0-1.262-2.242,2.335,2.335,0,0,0-1.222-1.444c-.11-.022-.128-.094-.153-.2a6.681,6.681,0,0,0-.705-2.035,2.353,2.353,0,0,0-1.517-1.293.763.763,0,0,0-.868.356,1.777,1.777,0,0,0-.181,1.617c.227.785.646,1.494.914,2.261a1.865,1.865,0,0,1-.23,2.088,3.51,3.51,0,0,1-1.272.841c-1.051.413-2.155.677-3.189,1.136a1.5,1.5,0,0,0-.9.388c-.5.274-1.013.514-1.478.83a2.457,2.457,0,0,0-.97,1.081.769.769,0,0,0,.053.753c.137.214.309.027.467.029a2.6,2.6,0,0,0,.463-.1c.083.066.221.069.24.208-.349.176-.7.339-1.045.529a1.7,1.7,0,0,0-1.061,1.807c.054.411.17.519.548.376a8.159,8.159,0,0,1,.982-.411,1.229,1.229,0,0,1,.483.11,6.692,6.692,0,0,0-1.662,1.223,3.19,3.19,0,0,0-.722,1.213.79.79,0,0,0,.2.8c.247.258.447.044.664-.045.4-.165.7-.529,1.14-.616l.085.252a9.32,9.32,0,0,0-.757.564,1.166,1.166,0,0,0-.122,1.771c.191.388.461.425.8.181a5.874,5.874,0,0,0,.971-.26l.331.259a4,4,0,0,1-2.029.634,1.088,1.088,0,0,1-1.307-.881,1.724,1.724,0,0,1-.157-.764c.009-.093.02-.21-.081-.25-.291-.115-.391-.4-.568-.612v-.649c.1-.244.21-.484.285-.734.177-.592.717-1.079.521-1.779a2.113,2.113,0,0,0,.014-1.3,4.815,4.815,0,0,1,.579-1.377.413.413,0,0,0,0-.657,1.934,1.934,0,0,1,.968-1.778l.068-.07.154-.1a1.414,1.414,0,0,0,1.14-.813,8.379,8.379,0,0,1,2.521-1.137c.858-.261,1.717-.524,2.556-.839a.74.74,0,0,0,.507-1.042A8.947,8.947,0,0,0,38.8,9.32a4.517,4.517,0,0,1-.613-1.938,1.676,1.676,0,0,0,0-1.136,2.142,2.142,0,0,1,3.453-1.632A3.808,3.808,0,0,1,42.96,6.883a3.077,3.077,0,0,0,.616,1.258c.278.324.6.6.853.954a9.43,9.43,0,0,1,1.444,2.827c.069.242.2.289.372.239a4.987,4.987,0,0,1,1.477-.066,1.219,1.219,0,0,1,1.225.687A2.679,2.679,0,0,1,49.21,14a.751.751,0,0,0,.255.672,1.731,1.731,0,0,0,.639.985c.009.048.019.1.029.144-.093.236.087.34.228.456.346.285.546.739,1.017.879.025.046.039.11.078.136a13.607,13.607,0,0,1,2.06,1.912,1.868,1.868,0,0,1,.572,1.046.421.421,0,0,0,.208.362c.384.154.776.287,1.165.428l.652.473a.6.6,0,0,0,.456.347,4.842,4.842,0,0,1,.7,1.882.182.182,0,0,0,.14.111.216.216,0,0,0,.149-.112,3.44,3.44,0,0,1,.628-1.126c.153-.145-.064-.238-.168-.262a6.609,6.609,0,0,1-1.418-.581.943.943,0,0,0-.4-.422c-.2-.2-.067-.554-.328-.729a2.546,2.546,0,0,1,.471-1.745c.093-.122.111-.273-.133-.28a1.689,1.689,0,0,1-.815-.238c-.683-.4-1.212-.9-1.067-1.787a2.645,2.645,0,0,1,.574-1.2,3.989,3.989,0,0,1,1.233-.917.207.207,0,0,0,.14-.181c.015-.113-.061-.125-.136-.157-.217-.094-.405-.269-.668-.228a11.6,11.6,0,0,1-1.168-.776,1.147,1.147,0,0,1,.441-1.982c.5-.164.507-.209.2-.643a3.741,3.741,0,0,1-.711-2.035,4.74,4.74,0,0,1,.738-2.647,3.3,3.3,0,0,1,1.549-1.337,3.773,3.773,0,0,1,1.515-.235c.3-.011.581-.066.592-.477A2.809,2.809,0,0,1,61,.77,3.845,3.845,0,0,1,63.53,1.1c.4.226.68.468.95-.1a.264.264,0,0,1,.086-.085A3.131,3.131,0,0,1,66.283.131c.124-.006.351.054.46-.131h.324a4.57,4.57,0,0,0,.92.241,1.811,1.811,0,0,1,1.188,1.323c.034.111.057.259.158.285s.135-.135.2-.209A8.952,8.952,0,0,1,70.715.564,5.085,5.085,0,0,1,72.1,0h.974A7.806,7.806,0,0,1,75.24,1.2a.9.9,0,0,0,.551.177c.968-.029,1.933.044,2.9.079.13,0,.3.044.365-.1.273-.615.861-.53,1.363-.625a3.789,3.789,0,0,1,.605-.019h.487a3.951,3.951,0,0,1,1.814.492,2.84,2.84,0,0,1,1.269,1.735.733.733,0,0,0,.084.216c.131.173.186.487.428.472s.222-.329.322-.511c.279-.506.428-1.1,1.024-1.393a1.447,1.447,0,0,1,.432-.149c1.238-.14,2.5-.091,3.315.963.468.608.836.476,1.381.343a3.536,3.536,0,0,1,3.551.879,3.115,3.115,0,0,1,.7,2.007c.005.04,0,.081,0,.121.034.28-.131.612.045.829s.528.048.8.1a3.22,3.22,0,0,1,2.644,2.2,4.45,4.45,0,0,1-.147,3.611,4.163,4.163,0,0,1-.781,1.035,2.633,2.633,0,0,0,.521.456,1.119,1.119,0,0,1,.065,1.961,3.94,3.94,0,0,1-1.786.633c-.16.031-.411-.1-.456.111-.03.139.2.263.331.372a3.393,3.393,0,0,1,1.184,1.365,1.832,1.832,0,0,1-.113,2,1.76,1.76,0,0,1-1.322.61,2.523,2.523,0,0,0-.52.034c-.144.036-.256.123-.116.314a1.937,1.937,0,0,1-.2,2.494,2.267,2.267,0,0,1-1.317.641c-.1.024-.2.053-.3.072-.334.064-.477.164-.2.475a.525.525,0,0,1,.09.254c.092.528.23.643.74.581A.857.857,0,0,0,95.8,25.5a4.785,4.785,0,0,1,1.574-1.638c.489-.421,1.009-.807,1.516-1.208q.479-.378.96-.754a1.149,1.149,0,0,0,.57-.974,1.526,1.526,0,0,1,.482-.6.669.669,0,0,0,.3-.483c-.025-.558.357-.92.59-1.354a1.33,1.33,0,0,0,.822-.542m-27.848,14,.078-.078c.445-.112.537-.427.482-.829a1.734,1.734,0,0,0,.155-.7,1.839,1.839,0,0,0,.023-.2c0-.094.052-.181.127-.179s.1.1.122.183a6.183,6.183,0,0,0,1.089,2.527,2.1,2.1,0,0,0,1.262.91c.657.11,1.113-.261,1.469-1.111a2.021,2.021,0,0,0,.462-1.154.329.329,0,0,1,.218-.281,4.842,4.842,0,0,0,.794.991.78.78,0,0,0,1.284-.45c.506-.4.426-1.038.638-1.557l.012.008.214.009a2.615,2.615,0,0,0,.58.845.234.234,0,0,0,.373.016,6.179,6.179,0,0,0,1.272-1.426c.056-.1.049-.307.234-.249.119.038.157.188.16.327a4.95,4.95,0,0,0,.462,1.773.92.92,0,0,0,.962.654,2.14,2.14,0,0,0,1.178-.563,1.7,1.7,0,0,0,.65-.9,2.4,2.4,0,0,0,.158-1.78.606.606,0,0,1,.382.17,1.5,1.5,0,0,0,.666.395,2.1,2.1,0,0,0,.728.428A1.453,1.453,0,0,0,93.129,28.7a7.379,7.379,0,0,0,.148-1.5,3.572,3.572,0,0,0-1.378-3.03c0-.114.075-.147.171-.156a4.181,4.181,0,0,0,2.08.33,1.159,1.159,0,0,0,.961-.675,3.835,3.835,0,0,0,.051-1.7,4.934,4.934,0,0,0-1.063-1.9.244.244,0,0,1,.274.055,6.74,6.74,0,0,0,1.252.691,1.054,1.054,0,0,0,1.214-.154,1.254,1.254,0,0,0,.463-1.316,3,3,0,0,0-.8-1.388A5.8,5.8,0,0,0,94.469,16.7c-.256-.106-.6-.063-.768-.377a4.226,4.226,0,0,1,1.1.06c.6-.005,1.191-.024,1.785.006a2.157,2.157,0,0,0,1.209-.329,1.075,1.075,0,0,0,.429-1.115c-.093-.4-.442-.447-.766-.507a1.75,1.75,0,0,0-.365,0,.549.549,0,0,1-.459-.175,8.4,8.4,0,0,0,1.045-1.094A4.113,4.113,0,0,0,98.281,9.8a2.865,2.865,0,0,0-1.346-2.044,1.289,1.289,0,0,0-1.345-.063,7.845,7.845,0,0,0-1.369.949c-.134.121-.264.354-.517.259a11.5,11.5,0,0,0,.767-1.964,2.978,2.978,0,0,0-.311-2.586,1.688,1.688,0,0,0-2.528-.416,5.018,5.018,0,0,0-1.2,1.69c-.2.434-.253.906-.415,1.347-.14-.1.015-.319-.163-.4a5.558,5.558,0,0,0-.217-2.857,1.926,1.926,0,0,0-2.083-1.416A2.742,2.742,0,0,0,85.69,3.806c-.206.449-.155.63.251.921a8.828,8.828,0,0,1,2.157,1.9,13.906,13.906,0,0,1,1.29,2.205,1.678,1.678,0,0,0-.086.587c-.305.339-.435.317-.564-.13a5.182,5.182,0,0,0-.6-1.405A10.518,10.518,0,0,0,85.3,5.064a.662.662,0,0,0-.688-.075c-.512.277-.879.035-1.246-.272.119-.155.288-.074.435-.091.123-.015.272.033.307-.154.166-.171.08-.384.071-.569A1.891,1.891,0,0,0,83,2.033a2.451,2.451,0,0,0-.922-.182,5.718,5.718,0,0,0-1.866.093c-.272.092-.305.233-.147.467a1.557,1.557,0,0,0,1.513.759c.269-.022.568-.068.75.228q-.043.2-.085.409a2.01,2.01,0,0,1-2.113-.66.868.868,0,0,0-.522-.237c-.636-.078-1.268-.2-1.9-.3a1.549,1.549,0,0,0-.468-.065,5.339,5.339,0,0,0-1.732.031,3.746,3.746,0,0,1-1.957.528,1.742,1.742,0,0,0-1.375.583,1.729,1.729,0,0,1-1.986.505,1.025,1.025,0,0,0-.986.14,9.564,9.564,0,0,0-2.01,1.951c-.372.5-.661,1.056-1.014,1.569-.116.168-.257.37-.432.233a3,3,0,0,0-1.491-.424,3.286,3.286,0,0,0-2.113.216,3.812,3.812,0,0,0-1.879,2.368,6.547,6.547,0,0,0-.084,2.648A2.077,2.077,0,0,0,61.37,14.7c.245.261.6.28.9.406a1.315,1.315,0,0,1,.082.536,2.087,2.087,0,0,1-1.249-.367c-.638-.343-.961-1.1-1.75-1.246.372-.132.371-.132.2-.484a4.587,4.587,0,0,1-.534-2.965A4.256,4.256,0,0,1,60.61,7.831a4.315,4.315,0,0,1,4.46-.375c.214.094.346.057.453-.124.252-.429.483-.871.747-1.292a8.948,8.948,0,0,1,2.369-2.28.879.879,0,0,0,.347-.99,2.549,2.549,0,0,0-.91-1.313c-1.12-.871-1.855-.735-2.731.381a4.178,4.178,0,0,0-.763,3.025l-.044.163-.241.091a.49.49,0,0,1-.151-.306,9.251,9.251,0,0,0-.492-1.971c-.323-.938-1.672-1.748-2.574-1.146a2.572,2.572,0,0,0-.524.492,2.619,2.619,0,0,0-.764,1.823,15.484,15.484,0,0,0,.486,2.3c.02.087.122.18.018.249s-.214,0-.272-.1A3.335,3.335,0,0,0,58.972,5.43a1.541,1.541,0,0,0-2.264.168,5.177,5.177,0,0,0-1,1.6,2.792,2.792,0,0,0-.3,1.408,6.054,6.054,0,0,0,.708,2.04,2.137,2.137,0,0,0,.771.9c.085.049.236.117.184.232-.071.158-.192.021-.3,0-.141-.028-.282-.051-.424-.082-.735-.16-1.272.226-1.2.859a1.2,1.2,0,0,0,.485.834,3.791,3.791,0,0,0,2.06.559c.5.043,1,.017,1.5.022.066,0,.157-.009.155.078,0,.048-.088.14-.12.134-.325-.067-.524.217-.814.274a3.59,3.59,0,0,0-2.85,2.277.969.969,0,0,0,.429,1.284,2.26,2.26,0,0,0,1.87-.07,2.49,2.49,0,0,1,.774-.25.392.392,0,0,1-.206.307,3.185,3.185,0,0,0-1.272,2.172A1.439,1.439,0,0,0,58.7,22.066a4.168,4.168,0,0,0,1.216-.155c.093-.026.267-.082.312.065.037.12-.121.138-.2.2a4.214,4.214,0,0,0-1.16,5.053c.11.215.245.429.521.434a4.313,4.313,0,0,0,1.2-.056,5.541,5.541,0,0,0,1.527-.724c.135-.085.289-.251.416-.163.183.128-.034.281-.083.416a3.263,3.263,0,0,0,.161,2.96,1.484,1.484,0,0,0,.7,1.053,1.073,1.073,0,0,0,1.482-.263c.431-.489.428-1.141.709-1.682a.655.655,0,0,0,.155-.58l.034-.718a1.211,1.211,0,0,1,.007-.542c.136.04.126.139.154.228a4.925,4.925,0,0,0,1.1,1.939.605.605,0,0,0,.926-.072.81.81,0,0,0,.246-.607.171.171,0,0,1,.151-.2c.163-.017.086.132.109.2.058.187.1.38.147.57a6.642,6.642,0,0,0,.489,1.647c.238.42.58.55.953.285s.8-.475.987-.938c.032-.081.077-.144.166-.148.069,0,.077.056.079.112.014.5.209.982.24,1.48.034.553.9,1.48,1.46,1.322a3.556,3.556,0,0,0,1.149-.649.748.748,0,0,0,.709-.585M70.435,3.655A1.931,1.931,0,0,0,71.821,3a1.121,1.121,0,0,1,1.1-.5c.346.042.7-.009,1.05.014a1.215,1.215,0,0,0,.658-.236A.169.169,0,0,0,74.692,2a1.533,1.533,0,0,0-1.371-.789A1.319,1.319,0,0,1,72.88,1.2a1.635,1.635,0,0,0-1.42.252,5,5,0,0,0-1.625,1.6c-.076.133-.184.308.024.415a1.324,1.324,0,0,0,.577.19" transform="translate(-19.738)" fill="#0d0d0d"/>
    <path id="Caminho_947" data-name="Caminho 947" d="M253.641,101.534c-.07.069-.2.057-.233.175h-.487c-.016-.089-.084-.131-.153-.173l.308-1.546a5.947,5.947,0,0,1,.564,1.544" transform="translate(-167.295 -66.178)" fill="#0d0d0d"/>
    <path id="Caminho_948" data-name="Caminho 948" d="M237.478,61.9a1.149,1.149,0,0,1-.57.974,1.068,1.068,0,0,1,.57-.974" transform="translate(-156.798 -40.968)" fill="#ddd"/>
    <path id="Caminho_949" data-name="Caminho 949" d="M243.467,53.082a1.33,1.33,0,0,1-.822.542c.083-.408.318-.563.822-.542" transform="translate(-160.595 -35.131)" fill="#383838"/>
    <path id="Caminho_950" data-name="Caminho 950" d="M181.722,1.782h-.487c.162-.228.324-.227.487,0" transform="translate(-119.95 -1.067)" fill="#fefefe"/>
    <path id="Caminho_951" data-name="Caminho 951" d="M119.4,17.934a6.555,6.555,0,0,1,.084-2.649,3.811,3.811,0,0,1,1.879-2.368,3.285,3.285,0,0,1,2.113-.216,3,3,0,0,1,1.492.424c.174.137.316-.065.432-.233.354-.513.642-1.066,1.014-1.569a9.562,9.562,0,0,1,2.009-1.951,1.025,1.025,0,0,1,.986-.14,1.73,1.73,0,0,0,1.986-.505,1.743,1.743,0,0,1,1.375-.583,3.748,3.748,0,0,0,1.957-.528,7.242,7.242,0,0,0,1.537.162c.214.02.487.132.663-.128.634.1,1.265.223,1.9.3a.867.867,0,0,1,.522.237,2.009,2.009,0,0,0,2.113.66c.4.268.636.749,1.126.91.367.307.733.548,1.245.272a.662.662,0,0,1,.688.075,10.514,10.514,0,0,1,2.833,2.816,5.183,5.183,0,0,1,.605,1.405c.129.447.258.469.564.13a3.533,3.533,0,0,1,2.272-.342,3,3,0,0,1,1.914,1.272,3.672,3.672,0,0,1-.071,4.443,4.43,4.43,0,0,1-2.243,1.524c-.2.088-.563.047-.536.295.022.206.35.1.549.077.157,0,.305-.093.466-.043a4.787,4.787,0,0,0,.024,1.046,11.494,11.494,0,0,1,.009,3.518c-.052.807-.545,1.561-.278,2.4,0,.051.006.1.009.153-.405-.046-.563.261-.736.53a6.551,6.551,0,0,1-1.407,1.6,4.216,4.216,0,0,1-3.049.8,4.3,4.3,0,0,1-2.556-.849,3.231,3.231,0,0,1-1.377-2.153c-.04-.342-.085-.845-.634-.906.056-.3.291-.508.424-.872A23.668,23.668,0,0,1,137.5,28.14a.389.389,0,0,0-.472.134l-.182,0a10.245,10.245,0,0,0-2.365,0c-.27-.064-.544-.112-.807-.2a13.514,13.514,0,0,1-2.033-.765c-.485-.245-.815-.7-1.3-.925-.3.257.038.478.016.716a.344.344,0,0,0-.357.208c-.125.253-.3.486-.4.746a3.206,3.206,0,0,1-3.61,1.6A4.779,4.779,0,0,1,122.9,27.74a5.061,5.061,0,0,1-1.014-1.568,10.584,10.584,0,0,1-.269-1.867,3.664,3.664,0,0,1,.768-2.917c.218-.233.4-.535.1-.857.013-.1.13-.085.175-.15a.527.527,0,0,0,.452-.332c-.2,0-.391-.1-.545.073l-1.06.022c-.306-.126-.66-.145-.9-.406-.13-.419-.512-.7-.623-1.123a1.044,1.044,0,0,0-.57-.683m3.005-1.55c.233.511.159,1.12.495,1.629a.846.846,0,0,0,.07-.7,6.406,6.406,0,0,1-.186-1.05,1.448,1.448,0,0,0-.473-1.031c-.19-.24-.267-.075-.306.1a5.618,5.618,0,0,0-.1.673c-.059.614-.056.614.5.381M151.05,17.46c.246-.09.426.227.7.106a1.416,1.416,0,0,0-.7-.768c0-.148,0-.3-.007-.444-.007-.092-.036-.2-.148-.2s-.066.123-.1.186a4.153,4.153,0,0,0-.22,2.214.767.767,0,0,0,.477.683Zm-9.833,5.592c.079-.4-.192-.677-.364-.98a1.518,1.518,0,0,1-.284-.642l.253-.166a2.174,2.174,0,0,0,1.547-1.21.586.586,0,0,0,.221-.227,7.226,7.226,0,0,0,1.235-3.508,6.4,6.4,0,0,0-.268-2.836,4.942,4.942,0,0,0-.532-1.4,3.517,3.517,0,0,0-2.523-1.624,2.515,2.515,0,0,0-2.2.66.666.666,0,0,1-.121.158,4.61,4.61,0,0,0-1.736,2.873c-.051.212-.008.592-.212.58-.289-.017-.249-.407-.275-.638a4.176,4.176,0,0,0-1.324-2.976c.019-.335-.26-.42-.47-.563-.172-.309-.512-.308-.788-.413a3.307,3.307,0,0,0-2.171-.1,3.464,3.464,0,0,0-1.7,1.357,6.589,6.589,0,0,0-1.257,3.647,7.722,7.722,0,0,0,.751,3.615,3.038,3.038,0,0,0,1.032,1.533,2.153,2.153,0,0,1,.886.992,6.852,6.852,0,0,0-.514,1.212,2.181,2.181,0,0,0,.491,2.043,5.731,5.731,0,0,0,1.846,1.863,5.921,5.921,0,0,0,2.362.872,6.3,6.3,0,0,0,2.22-.06.432.432,0,0,0,.575-.16,3.938,3.938,0,0,0,1.125-.346,3.353,3.353,0,0,0,2.16-2.234,3.862,3.862,0,0,0,.027-1.324" transform="translate(-78.966 -5.04)" fill="#ddd"/>
    <path id="Caminho_952" data-name="Caminho 952" d="M112.806,17.232c.3.322.121.624-.1.857A3.663,3.663,0,0,0,111.941,21a10.557,10.557,0,0,0,.269,1.867,5.047,5.047,0,0,0,1.014,1.567,4.777,4.777,0,0,0,3.091,1.919,3.206,3.206,0,0,0,3.61-1.6c.107-.26.279-.492.4-.746a.344.344,0,0,1,.356-.208,12.445,12.445,0,0,1,.509,1.215c.016.281.263.464.308.732a.578.578,0,0,0,.493.642,6.248,6.248,0,0,0,1.557,1.633,2,2,0,0,0,1.358.5l.381.077c.143.234.285.235.428,0a5.855,5.855,0,0,0,3.675-1.875,21.924,21.924,0,0,0,1.819-2.2c.549.061.6.563.634.906a3.233,3.233,0,0,0,1.377,2.153,4.3,4.3,0,0,0,2.556.849,4.215,4.215,0,0,0,3.049-.8,6.559,6.559,0,0,0,1.407-1.6c.173-.268.331-.576.736-.53l.48.4a3.57,3.57,0,0,1,1.378,3.031,7.351,7.351,0,0,1-.148,1.5,1.452,1.452,0,0,1-2.13,1.024,2.1,2.1,0,0,1-.728-.428,1.617,1.617,0,0,0-.794-.806c-.1-.06-.233-.149-.336-.061-.136.118.128.178.081.3a2.4,2.4,0,0,1-.158,1.78.961.961,0,0,0-.65.9,2.137,2.137,0,0,1-1.177.563.921.921,0,0,1-.963-.654,4.973,4.973,0,0,1-.462-1.773c0-.139-.04-.289-.16-.326-.185-.058-.178.145-.234.249a6.2,6.2,0,0,1-1.272,1.426.234.234,0,0,1-.373-.016,2.614,2.614,0,0,1-.58-.845c.045-.171.2-.333.045-.522-.038-.045-.1-.081-.138-.045a.556.556,0,0,0-.121.557l-.012-.008a1.293,1.293,0,0,0-.639,1.557.779.779,0,0,1-1.283.45,4.842,4.842,0,0,1-.795-.99.327.327,0,0,0-.217.281,1.134,1.134,0,0,0-.463,1.154c-.356.85-.812,1.221-1.469,1.111a2.1,2.1,0,0,1-1.261-.91,6.183,6.183,0,0,1-1.09-2.526c-.018-.087-.057-.18-.122-.183s-.126.085-.127.178a1.827,1.827,0,0,1-.023.2c-.244.283-.544.54-.47.976l-.035.125c-.253.064-.314.283-.392.488-.1.27-.442.327-.528.608a3.559,3.559,0,0,1-1.149.649c-.561.158-1.427-.769-1.46-1.322-.031-.5-.227-.976-.24-1.481,0-.056-.009-.115-.079-.112-.089,0-.134.067-.166.148-.183.463-.619.677-.988.938s-.715.134-.952-.286a6.635,6.635,0,0,1-.49-1.647c-.05-.19-.089-.383-.147-.57-.022-.073.054-.222-.108-.2a.17.17,0,0,0-.151.2.812.812,0,0,1-.247.607.605.605,0,0,1-.926.072,4.929,4.929,0,0,1-1.1-1.939c-.028-.089-.018-.188-.154-.228a1.216,1.216,0,0,0-.007.542,1.113,1.113,0,0,0-.486.823c-.116.622-.571,1.139-.517,1.829.023.294-.254.482-.575.517-.5.054-.725-.337-1-.622-.149-.153-.239-.359-.495-.357a3.264,3.264,0,0,1-.161-2.96c.049-.135.266-.288.084-.416-.126-.088-.281.078-.417.163a5.553,5.553,0,0,1-1.527.724,4.328,4.328,0,0,1-1.2.055c-.275,0-.411-.218-.521-.434a4.213,4.213,0,0,1,1.16-5.053c.081-.061.239-.079.2-.2-.045-.147-.219-.09-.313-.065a4.178,4.178,0,0,1-1.216.155,1.439,1.439,0,0,1-1.55-1.893,3.188,3.188,0,0,1,1.273-2.172.392.392,0,0,0,.206-.306,2.491,2.491,0,0,0-.774.25,2.262,2.262,0,0,1-1.87.07.969.969,0,0,1-.429-1.284,3.592,3.592,0,0,1,2.85-2.277c.289-.056.489-.341.814-.274.032.007.119-.086.121-.134,0-.086-.089-.077-.155-.077-.5-.005-1,.021-1.5-.022a3.791,3.791,0,0,1-2.059-.559,1.2,1.2,0,0,1-.485-.834c-.071-.633.466-1.019,1.2-.859.142.031.283.053.424.081.105.021.227.158.3,0,.051-.114-.1-.183-.184-.232a2.131,2.131,0,0,1-.771-.9,6.049,6.049,0,0,1-.708-2.04,2.783,2.783,0,0,1,.3-1.407,5.163,5.163,0,0,1,1-1.6,1.541,1.541,0,0,1,2.264-.168A3.337,3.337,0,0,1,109.576,8.2c.058.1.164.172.272.1s0-.162-.018-.248a15.435,15.435,0,0,1-.486-2.3,2.619,2.619,0,0,1,.764-1.823,2.589,2.589,0,0,1,.524-.492c.9-.6,2.252.208,2.574,1.146a9.276,9.276,0,0,1,.492,1.971.49.49,0,0,0,.151.306c0,.342.009.684.011,1.026,0,.129-.031.272.157.3,0,.043.007.091.058.082.018,0,.026-.067.038-.1l.008-.008c.117-.022.142-.107.142-.209q0-.564,0-1.128c0-.1-.012-.19-.131-.217a4.179,4.179,0,0,1,.763-3.025c.875-1.117,1.611-1.253,2.731-.382a2.553,2.553,0,0,1,.91,1.313.879.879,0,0,1-.346.99,8.947,8.947,0,0,0-2.369,2.28c-.264.421-.5.863-.747,1.292-.107.182-.239.218-.453.124a4.313,4.313,0,0,0-4.46.376,4.257,4.257,0,0,0-1.582,2.749,4.588,4.588,0,0,0,.534,2.965c.167.352.168.352-.2.484.789.148,1.113.9,1.75,1.246a2.082,2.082,0,0,0,1.249.367c.321.087.59-.142.9-.149" transform="translate(-69.291 -1.74)" fill="#fefefe"/>
    <path id="Caminho_953" data-name="Caminho 953" d="M197.4,72.763a5.947,5.947,0,0,0-.564-1.544l-.308,1.546c-2.356.221-4.716.078-7.074.088-5.3.022-10.592.012-15.888.013-1.8,0-3.594-.006-5.39-.009-.161,0-.334.025-.385-.194.117-.256.335-.448.431-.722.081-.23.3-.228.512-.221a3.855,3.855,0,0,0,2.046-.451c.417-.06.566-.4.741-.712.115-.2.208-.419.5-.393a1.547,1.547,0,0,0,2.123-.733c.288-.564.272-.572.927-.515a.646.646,0,0,0,.79.215,1.624,1.624,0,0,1,1.178.006,1.292,1.292,0,0,0,.969.557,1.525,1.525,0,0,1,.273.056,2.339,2.339,0,0,0,2.994-1.52,1.049,1.049,0,0,1,1.4-.722,4.638,4.638,0,0,0,1.27.129c.109.117.038.426.275.368.2-.05.085-.3.112-.467a.23.23,0,0,0,0-.04l.006-.008.1-.06a2.655,2.655,0,0,0,1.133-2.219.7.7,0,0,1,.462-.637,5.2,5.2,0,0,1,2.366-.329c.275.057.548.117.824.169.074.014.175.039.213-.053s-.053-.143-.122-.178a3.4,3.4,0,0,0-1-.391c-.265-.184-.177-.417-.079-.64a3.244,3.244,0,0,1,1.373-1.394c.889-.556,1.683-1.239,2.546-1.83a.925.925,0,0,0,.123-.105c.594-.582.588-.572,1.315-.139a11.288,11.288,0,0,1,1.622,1.254c.272.253.486.585.9.646l.034.04c0-.008,0-.02,0-.024a.114.114,0,0,0-.03-.017,2.7,2.7,0,0,0-.537-.913,6.328,6.328,0,0,0-1.666-1.947.849.849,0,0,1-.357-.639c-.016-.161,0-.324-.013-.485-.063-1,.4-1.267,1.406-.954a7.819,7.819,0,0,1,3.21,2.255c.654.679,1.253,1.4,1.848,2.132A20.473,20.473,0,0,0,201.169,63a7.383,7.383,0,0,0,.634,1.211,2.213,2.213,0,0,1,.406,1.029c.035.181.023.379.223.483,0,.364.017.729,0,1.093a1.488,1.488,0,0,1-.808,1.314c-.516.285-.619.257-1.011-.189-.169-.193-.342-.382-.516-.569a1.537,1.537,0,0,1-.441-.748c-.033-.408-.391-.632-.548-.972a8.417,8.417,0,0,0-1.436-2.19c-.329-.357-.664-.707-1.025-1.09-.016.094-.032.126-.023.144a2.341,2.341,0,0,0,.143.244,21.243,21.243,0,0,1,2.154,3.558.768.768,0,0,0,.414.474c.266.564.394,1.177.61,1.759.045.3.071.6.143.884.033.134-.1.335.13.406a1.96,1.96,0,0,1-.116.538c-.179.424-.371.484-.758.215-.014-.1-.1-.158-.166-.22s-.162-.156-.245-.087c-.114.094-.075.214.038.3-.008.159-.025.318-.022.477a3.377,3.377,0,0,1-.175,1.314,1.043,1.043,0,0,1-1.38.385" transform="translate(-111.049 -37.407)" fill="#888"/>
    <path id="Caminho_954" data-name="Caminho 954" d="M66.988,60.889A.681.681,0,0,1,66.1,61a.481.481,0,0,0-.307-.034q-.82-.664-1.64-1.33a8.4,8.4,0,0,1-1.642-1.749.674.674,0,0,0-.469-.563,6.259,6.259,0,0,1-1.212-2.773v-1.5l-.131-.021c-.145.434-.339.846-.521,1.262a1.107,1.107,0,0,1-.9.706,1.832,1.832,0,0,1-.57-2.394c.092-.034.09-.118.11-.195s.1-.187,0-.252-.2.023-.265.107a.735.735,0,0,0-.074.179.415.415,0,0,0-.215.089.46.46,0,0,1-.758-.4,4.78,4.78,0,0,1,.488-2.221c.033-.072.061-.145.092-.218.7-.771,1.132-1.732,1.805-2.54.594-.713,1.166-1.462,1.731-2.207.048-.063.213-.081.109-.206-.074-.089-.228-.116-.287-.022-.231.368-.682.5-.917.839-.73,1.067-1.543,2.072-2.313,3.109a2.684,2.684,0,0,0-.492.829c-.783.728-1.258.608-1.645.3a1.9,1.9,0,0,1-.6-1.389,4.319,4.319,0,0,1,.9-2.625,16.077,16.077,0,0,1,2.093-2.745c.3-.311.6-.613.913-.909a14.646,14.646,0,0,1,2.341-2.015c.324-.075.672-.107.825-.476.457-.128.767-.581,1.277-.586a3.964,3.964,0,0,1,1.053.036c.346.093.36.489.451.79a.621.621,0,0,0-.041.642c-.06.491-.5.639-.82.879a3.017,3.017,0,0,0-.953,1,.181.181,0,0,0-.185.051c-.305.4-.61.8-.95,1.249a2.528,2.528,0,0,0,1.46-.819,5.65,5.65,0,0,1,1.428-.762.926.926,0,0,1,1.016.241c.473.476.955.943,1.433,1.413.31.366.54.827,1.085.913a5.947,5.947,0,0,1,1.13,1.249c.136.23.311.467.158.763a2.64,2.64,0,0,0-1.156.4c-.1.045-.287.067-.267.2.026.174.217.138.337.117a3.82,3.82,0,0,1,1.549,0,.545.545,0,0,0,.427-.018,2.824,2.824,0,0,1,1.412.626.864.864,0,0,0,.525.53l.1.147c.13.317.137.692.442.925.054.232-.054.489.107.705a.351.351,0,0,0-.021.422c0,.043,0,.086,0,.129a.338.338,0,0,0,.08.456c.153.069.187-.168.263-.281a1.245,1.245,0,0,1,.288-.217c.142-.053.35-.048.35.145a9.918,9.918,0,0,0,.168,1.993c.009.047-.063.111-.1.167a4.656,4.656,0,0,0-1.53,1.043,5.189,5.189,0,0,0-.948,1.342,8.9,8.9,0,0,0-1.465,2.49,3.974,3.974,0,0,0-.358.831,2.8,2.8,0,0,1-.4,1.082,2.475,2.475,0,0,0-.458,1.257,3.529,3.529,0,0,1-1.8,0c0-.122,0-.243,0-.365a.286.286,0,0,0-.152-.3c-.14-.075-.2.031-.269.1s-.231.106-.232.259" transform="translate(-36.709 -25.834)" fill="#888"/>
    <path id="Caminho_955" data-name="Caminho 955" d="M265.224,50.1a6.258,6.258,0,0,1,1.606,1.377,3.01,3.01,0,0,1,.5,1.34.622.622,0,0,1-.32.636.587.587,0,0,1-.695-.134.643.643,0,0,0-.348-.425,11.615,11.615,0,0,0-1.942-1.115,2.994,2.994,0,0,0-1.457-.733.507.507,0,0,1-.42-.687,7.272,7.272,0,0,0,.223-1.1,19.994,19.994,0,0,0,.024-2.386,5.552,5.552,0,0,0-.423-1.735c-.035-.113-.112-.2-.24-.148s-.045.15-.035.241a13.472,13.472,0,0,1,.237,2.144c-.023.444.006.891.012,1.336-.088.039-.1.118-.106.2-.053.546-.1,1.092-.165,1.637a.451.451,0,0,0,.4.576,2.449,2.449,0,0,1,.747.385,3.725,3.725,0,0,0,1.032.529c.345.243.736.409,1.069.675a6.409,6.409,0,0,0,1.029.806,2.469,2.469,0,0,1,.263.983c-.027.555-.209.743-.773.783a6.527,6.527,0,0,1-1.258-.179c-.491-.4-.979-.809-1.475-1.206-.138-.111-.242-.3-.471-.251a4.186,4.186,0,0,0-1.726-.8c-.36-.1-.648-.275-.618-.695a3.9,3.9,0,0,0-.58-1.982,2.947,2.947,0,0,0-.408-1.053.907.907,0,0,0-.559-.738,5.629,5.629,0,0,0-.547-.73c-.314-.308-.354-.807-.761-1.04l-.648-.909a7.243,7.243,0,0,1,1.55.085c.069.023.182.049.216-.037.023-.059-.025-.149-.047-.223a.114.114,0,0,0-.051-.061c-.624-.334-1.118-.946-1.923-.894-.189.012-.379,0-.568,0a.444.444,0,0,1-.424-.222A5.056,5.056,0,0,0,254,43.229a.626.626,0,0,1-.213-.834,9.488,9.488,0,0,1,1.575-2.367,9.252,9.252,0,0,1,1.161-1.158,2.07,2.07,0,0,0,.59-1.058,3.445,3.445,0,0,1,1.6-2.179,1.266,1.266,0,0,1,1.34.1l.158.321a3.86,3.86,0,0,0,.053,1.306,3.39,3.39,0,0,1-.4,1.022,12.555,12.555,0,0,0-.887,1.681,2.044,2.044,0,0,0,.739,2.26,11.547,11.547,0,0,0,2.608,1.289,11.843,11.843,0,0,1,3.635,2.3,1.493,1.493,0,0,1,.491,1.3c-.026.267-.134.394-.4.374a6.175,6.175,0,0,0-1.939-.764,1.241,1.241,0,0,0-.965-.086c-.011,0-.031.092-.015.108a1.116,1.116,0,0,0,.828.3,13.843,13.843,0,0,1,1.924.845c.617.348,1.236.7,1.241,1.536a1.989,1.989,0,0,1-.05.723c-.094.237-.34.253-.57.12-.2-.118-.412-.228-.617-.342a4.309,4.309,0,0,0-1.928-.779c-.291-.214-.614-.065-.928-.074a1.106,1.106,0,0,0,.742.206l1.452.742" transform="translate(-167.919 -23.485)" fill="#ddd"/>
    <path id="Caminho_956" data-name="Caminho 956" d="M34.476,26.791a2.576,2.576,0,0,1-.462.1c-.158,0-.33.184-.467-.029a.769.769,0,0,1-.053-.753,2.454,2.454,0,0,1,.97-1.081c.465-.317.983-.557,1.478-.831.411.128.669-.1.9-.388,1.034-.46,2.138-.723,3.189-1.136a3.505,3.505,0,0,0,1.272-.841,1.864,1.864,0,0,0,.23-2.088c-.268-.767-.687-1.476-.914-2.261a1.778,1.778,0,0,1,.181-1.617.763.763,0,0,1,.868-.356A2.352,2.352,0,0,1,43.184,16.8a6.694,6.694,0,0,1,.705,2.035c.025.1.044.176.153.2a3,3,0,0,0,1.222,1.444,18.412,18.412,0,0,1,1.262,2.242c.213.551.181.722-.269,1.12-.354.312-.757.562-1.087.906a.715.715,0,0,1-.671.206,2.967,2.967,0,0,0-2.394.6c-.1.078-.3.153-.2.337.114.209.254.022.369-.026a2.1,2.1,0,0,1,1.328-.028c.258.061.155.257.023.389-.334.333-.677.658-1.017.986-.173-.021-.24.11-.29.231-.118.29-.48.395-.537.726l-.144.1c-.514.148-.559.609-.677,1.02l-.208.285c-.3.023-.352.226-.338.474h0c-.157.013-.169.121-.162.243h0a.363.363,0,0,0-.343.232,5.431,5.431,0,0,0-.623,2.127,5.7,5.7,0,0,0-1.8.559c-.135.079-.263.17-.394.255a7.854,7.854,0,0,0-1.872,1.032,5.845,5.845,0,0,1-.971.26,2.006,2.006,0,0,0-.8-.181,1.165,1.165,0,0,1,.122-1.771,9.159,9.159,0,0,1,.757-.564l.879-.425a8.317,8.317,0,0,0,1.929-.683c.174-.063.552-.057.477-.309-.087-.291-.406-.067-.6-.033a5.38,5.38,0,0,0-2.136.846,1.322,1.322,0,0,0-.629.353c-.444.087-.738.451-1.14.616-.216.089-.416.3-.664.046a.791.791,0,0,1-.2-.8,3.191,3.191,0,0,1,.722-1.213,6.7,6.7,0,0,1,1.662-1.222,3.234,3.234,0,0,0,.829-.347,2.2,2.2,0,0,0,1.144-.282c-.383.038-.777-.151-1.145.063a3.163,3.163,0,0,0-1.311.455,8.239,8.239,0,0,0-.982.412c-.378.143-.494.035-.548-.376a1.7,1.7,0,0,1,1.061-1.807c.341-.189.7-.353,1.045-.528a8.531,8.531,0,0,0,1.544-.375.7.7,0,0,1,.2.024c.216.093.352-.018.267-.2-.072-.153-.306-.074-.472-.04a2.446,2.446,0,0,0-1.775.378M38,28.149a27.236,27.236,0,0,1,.489-3.461c-.211.046-.237.191-.3.3a3.657,3.657,0,0,0-.672,1.89,4.279,4.279,0,0,0-.134.9c-.063.733.224,1.433.176,2.162-.007.108.021.231.157.244.16.016.218-.127.224-.237.031-.6.043-1.2.061-1.8" transform="translate(-21.314 -10.246)" fill="#ddd"/>
    <path id="Caminho_957" data-name="Caminho 957" d="M200.526,28.014c-.267-.842.226-1.6.278-2.4a11.5,11.5,0,0,0-.009-3.518,4.766,4.766,0,0,1-.024-1.046c.684-.225,1.521-.084,1.992-.828.025-.04.089-.054.13-.086a2.084,2.084,0,0,0,.472-.489,4.6,4.6,0,0,0,.337-4.464,3.332,3.332,0,0,0-2.93-2.163c-.208-.008-.4-.154-.616-.082a9.151,9.151,0,0,1-1.652.3,13.937,13.937,0,0,0-1.29-2.205,8.82,8.82,0,0,0-2.157-1.9c-.406-.291-.457-.472-.251-.921A2.743,2.743,0,0,1,196.669,6.7a1.925,1.925,0,0,1,2.083,1.416,5.562,5.562,0,0,1,.217,2.857,7.662,7.662,0,0,0-.294,1.919l.113.015.344-1.53c.162-.442.218-.914.415-1.347a5.021,5.021,0,0,1,1.2-1.69,1.688,1.688,0,0,1,2.528.416,2.978,2.978,0,0,1,.311,2.586,11.463,11.463,0,0,1-.767,1.964c.252.1.382-.138.517-.259a7.827,7.827,0,0,1,1.369-.949,1.289,1.289,0,0,1,1.345.062A2.867,2.867,0,0,1,207.4,14.2a4.114,4.114,0,0,1-.606,3.372,8.4,8.4,0,0,1-1.045,1.094.548.548,0,0,0,.459.174,1.727,1.727,0,0,1,.365,0c.325.059.673.108.766.507a1.075,1.075,0,0,1-.429,1.115,2.157,2.157,0,0,1-1.209.329c-.594-.029-1.19-.011-1.785-.006a4.226,4.226,0,0,0-1.1-.06c.166.313.512.271.768.377a5.8,5.8,0,0,1,2.032,1.244,3,3,0,0,1,.8,1.388,1.253,1.253,0,0,1-.463,1.316,1.054,1.054,0,0,1-1.214.154,6.74,6.74,0,0,1-1.252-.691.245.245,0,0,0-.274-.055,4.936,4.936,0,0,1,1.063,1.9,3.835,3.835,0,0,1-.051,1.7,1.159,1.159,0,0,1-.961.674,4.177,4.177,0,0,1-2.08-.33c-.129-.284-.41-.313-.66-.395" transform="translate(-128.855 -4.404)" fill="#fefefe"/>
    <path id="Caminho_958" data-name="Caminho 958" d="M110.366,89.017a1.351,1.351,0,0,1-.651.168q-5.278-.012-10.557,0c-.186,0-.372.016-.5-.166a1.316,1.316,0,0,0,.228-.373,13.505,13.505,0,0,1,.757-2.281,14.745,14.745,0,0,1,1.421-2.846c.881-.613,1.494-1.511,2.327-2.174a.435.435,0,0,1,.353.035,3.026,3.026,0,0,0,2.645.343c.468-.094.576.008.469.467a2.945,2.945,0,0,0,.7,2.535,2.482,2.482,0,0,0,1.793.973c.247.023.309.142.295.364a4.326,4.326,0,0,0,.713,2.879c.013.019.005.053.007.08" transform="translate(-65.3 -53.822)" fill="#888"/>
    <path id="Caminho_959" data-name="Caminho 959" d="M143.147,94.959a7.032,7.032,0,0,1-1.235,0c-.046-.077-.094-.07-.144,0-.206.078-.38-.105-.581-.071-.089-.393-.461-.541-.7-.8-.108-.118-.237-.217-.356-.325a3.721,3.721,0,0,1-.333-.617,1.117,1.117,0,0,0-.544-.7l-.034-.223c.008-.312.042-.634-.306-.812a1.746,1.746,0,0,1-.161-.932c-.008-.316.164-.435.44-.448a3.23,3.23,0,0,0,.793-.081c.186-.056.276.036.348.223A3.418,3.418,0,0,0,141,91.311a.517.517,0,0,0,.419.188.63.63,0,0,0,.856.088c.5-.089.705.141.912.6a1.691,1.691,0,0,0,1.678,1.19c.2-.013.4,0,.606,0a.605.605,0,0,1,.091.452,5.223,5.223,0,0,0-1.536,1.072.813.813,0,0,0-.488.06.3.3,0,0,0-.386,0" transform="translate(-91.834 -59.519)" fill="#888"/>
    <path id="Caminho_960" data-name="Caminho 960" d="M148.559,5.876a1.324,1.324,0,0,1-.577-.19c-.208-.107-.1-.282-.024-.415a5,5,0,0,1,1.625-1.6A1.635,1.635,0,0,1,151,3.42a1.319,1.319,0,0,0,.441.015,1.533,1.533,0,0,1,1.371.789.169.169,0,0,1-.059.281,1.215,1.215,0,0,1-.658.236c-.349-.023-.7.028-1.05-.014a1.121,1.121,0,0,0-1.1.5,1.931,1.931,0,0,1-1.386.651" transform="translate(-97.862 -2.221)" fill="#fefefe"/>
    <path id="Caminho_961" data-name="Caminho 961" d="M180.474,6.963c-.182-.3-.48-.25-.749-.228a1.556,1.556,0,0,1-1.513-.759c-.158-.234-.125-.375.147-.467a5.718,5.718,0,0,1,1.866-.093,2.451,2.451,0,0,1,.922.182,1.891,1.891,0,0,1,1.182,1.871c.009.186.1.4-.071.569a1.056,1.056,0,0,1-.935-.4,2.058,2.058,0,0,0-.848-.677" transform="translate(-117.886 -3.564)" fill="#fefefe"/>
    <path id="Caminho_962" data-name="Caminho 962" d="M135.214,94.341c-.239.394-.533.021-.8.048-.084.008-.18-.092-.27-.143a1.4,1.4,0,0,0-.483-.817,3.753,3.753,0,0,1-.809-1.553,2.159,2.159,0,0,0-.21-.567.462.462,0,0,1,.139-.7,2.892,2.892,0,0,0,1.022-1.173c.054-.1.1-.25.263-.186.127.05.093.181.092.285-.008.729,0,1.458-.033,2.186a2.889,2.889,0,0,0,.832,2.2c.109.116.294.21.254.423" transform="translate(-87.724 -59.058)" fill="#888"/>
    <path id="Caminho_963" data-name="Caminho 963" d="M263.211,68.394c.407.232.446.732.761,1.039a5.645,5.645,0,0,1,.547.73,1.6,1.6,0,0,0,.56.738,2.954,2.954,0,0,1,.408,1.054c-.2-.028-.258.081-.249.261a2.727,2.727,0,0,0,.165.574c.07.256.273.506.076.79-.2-.1-.188-.3-.223-.483a2.212,2.212,0,0,0-.406-1.029,7.386,7.386,0,0,1-.634-1.211,20.48,20.48,0,0,1-1.171-1.968.461.461,0,0,0,.164-.5" transform="translate(-174.098 -45.267)" fill="#383838"/>
    <path id="Caminho_964" data-name="Caminho 964" d="M62.137,60.512a2.679,2.679,0,0,1,.492-.829c.77-1.037,1.583-2.042,2.313-3.109.235-.344.686-.471.917-.839.059-.094.213-.067.287.022.1.125-.061.143-.109.206-.566.745-1.138,1.495-1.731,2.207-.673.808-1.1,1.769-1.805,2.54-.063-.172-.215-.182-.364-.2" transform="translate(-41.125 -36.849)" fill="#383838"/>
    <path id="Caminho_965" data-name="Caminho 965" d="M126.806,84.708c.255,0,.345.2.495.357.279.285.509.675,1,.622.32-.034.6-.223.575-.517-.053-.689.4-1.207.517-1.829a1.112,1.112,0,0,1,.486-.823l-.035.718a.488.488,0,0,0-.155.58c-.28.541-.278,1.193-.708,1.683a1.073,1.073,0,0,1-1.482.262,1.484,1.484,0,0,1-.7-1.053" transform="translate(-83.927 -54.615)" fill="#ddd"/>
    <path id="Caminho_966" data-name="Caminho 966" d="M107.406,80.975c-.833.663-1.446,1.562-2.327,2.174l-.356,0a5.191,5.191,0,0,1,.947-1.342,4.656,4.656,0,0,1,1.53-1.043.223.223,0,0,0,.205.206" transform="translate(-69.311 -53.457)" fill="#383838"/>
    <path id="Caminho_967" data-name="Caminho 967" d="M161.806,99.6a2.283,2.283,0,0,0-.843.834.76.76,0,0,1-1.1.131,2.619,2.619,0,0,1,.748-.787c.467-.076.7-.466,1.014-.751.172-.157.281-.415.579-.384q.009.194.017.388c-.139.189-.149.472-.414.569" transform="translate(-105.804 -65.287)" fill="#888"/>
    <path id="Caminho_968" data-name="Caminho 968" d="M278.578,89.2c.229-.052.332.141.471.251.5.4.984.8,1.475,1.206a.564.564,0,0,0-.088.344,4.076,4.076,0,0,1-1.445-.923c-.2-.147-.389-.3-.583-.45-.008-.168.191-.254.17-.427" transform="translate(-184.264 -59.03)" fill="#383838"/>
    <path id="Caminho_969" data-name="Caminho 969" d="M283.861,83.683A11.614,11.614,0,0,1,285.8,84.8a.643.643,0,0,1,.348.424c-.148.019-.337-.036-.365.2a6.393,6.393,0,0,1-1.029-.806c-.333-.265-.725-.432-1.069-.675a.265.265,0,0,1,.173-.26" transform="translate(-187.759 -55.386)" fill="#383838"/>
    <path id="Caminho_970" data-name="Caminho 970" d="M66.735,82.39a1.107,1.107,0,0,0,.9-.706c.182-.416.376-.828.521-1.262l.131.021v1.5c-.325-.044-.515.183-.731.362a.587.587,0,0,1-.822.082" transform="translate(-44.169 -53.227)" fill="#383838"/>
    <path id="Caminho_971" data-name="Caminho 971" d="M205.8,25.488a9.151,9.151,0,0,0,1.652-.3c.22-.071.408.074.616.082a.937.937,0,0,0-.081.461,3.533,3.533,0,0,0-2.272.342,1.671,1.671,0,0,1,.086-.587" transform="translate(-136.145 -16.659)" fill="#383838"/>
    <path id="Caminho_972" data-name="Caminho 972" d="M41.1,69.686a7.861,7.861,0,0,1,1.872-1.032c-.018.142.123.2.161.319a6.626,6.626,0,0,1-1.7.972l-.331-.259" transform="translate(-27.199 -45.439)" fill="#383838"/>
    <path id="Caminho_973" data-name="Caminho 973" d="M285.9,70.135a13.8,13.8,0,0,0-1.924-.845.225.225,0,0,1,.152-.318,6.171,6.171,0,0,1,1.939.764c-.183.079-.177.238-.168.4" transform="translate(-187.939 -45.649)" fill="#383838"/>
    <path id="Caminho_974" data-name="Caminho 974" d="M96.817,62.395a.544.544,0,0,1-.427.018,3.808,3.808,0,0,0-1.549,0c-.119.021-.31.057-.336-.117-.021-.136.163-.158.266-.2a2.642,2.642,0,0,1,1.156-.4c0,.381.2.546.565.561.124.005.277-.044.325.142" transform="translate(-62.546 -40.83)" fill="#383838"/>
    <path id="Caminho_975" data-name="Caminho 975" d="M184.921,10.052a2.058,2.058,0,0,1,.848.677,1.056,1.056,0,0,0,.935.4c-.035.187-.184.139-.307.154-.147.017-.316-.064-.435.091-.49-.161-.722-.642-1.126-.91l.085-.409" transform="translate(-122.334 -6.653)" fill="#383838"/>
    <path id="Caminho_976" data-name="Caminho 976" d="M77.379,49.454a2.53,2.53,0,0,1-1.46.82l.95-1.25a.182.182,0,0,1,.185-.051.553.553,0,0,0,.325.481" transform="translate(-50.247 -32.41)" fill="#383838"/>
    <path id="Caminho_977" data-name="Caminho 977" d="M119.586,38.131a1.045,1.045,0,0,1,.57.683c.111.421.493.7.623,1.123a2.078,2.078,0,0,1-1.194-1.806" transform="translate(-79.148 -25.237)" fill="#888"/>
    <path id="Caminho_978" data-name="Caminho 978" d="M53.134,61.627a5.437,5.437,0,0,1,.623-2.127.364.364,0,0,1,.343-.232,13.572,13.572,0,0,0-.645,1.974.652.652,0,0,1-.322.385" transform="translate(-35.166 -39.227)" fill="#888"/>
    <path id="Caminho_979" data-name="Caminho 979" d="M40.707,47.962a8.558,8.558,0,0,1-1.544.375c-.02-.139-.157-.142-.24-.208a2.444,2.444,0,0,1,1.775-.378q0,.106.009.212" transform="translate(-25.761 -31.585)" fill="#383838"/>
    <path id="Caminho_980" data-name="Caminho 980" d="M284.914,77.005l-1.452-.742.186-.132a4.309,4.309,0,0,1,1.928.779c-.212.089-.492-.29-.662.1" transform="translate(-187.609 -50.387)" fill="#383838"/>
    <path id="Caminho_981" data-name="Caminho 981" d="M184.988,90.314a1.293,1.293,0,0,1,.638-1.557c-.212.519-.132,1.158-.638,1.557" transform="translate(-122.398 -58.744)" fill="#ddd"/>
    <path id="Caminho_982" data-name="Caminho 982" d="M191.278,93.009A1.626,1.626,0,0,0,190.1,93a.645.645,0,0,1-.79-.215,5.851,5.851,0,0,0,1.462-.175c.237-.1.439.128.506.4" transform="translate(-125.295 -61.28)" fill="#383838"/>
    <path id="Caminho_983" data-name="Caminho 983" d="M68.435,27.422a3,3,0,0,1-1.222-1.443,2.336,2.336,0,0,1,1.222,1.443" transform="translate(-44.485 -17.194)" fill="#888"/>
    <path id="Caminho_984" data-name="Caminho 984" d="M126.769,45.015c-.306.008-.575.236-.9.149a1.31,1.31,0,0,0-.083-.536l1.06-.022.094.258c-.045.066-.163.046-.175.15" transform="translate(-83.255 -29.523)" fill="#383838"/>
    <path id="Caminho_985" data-name="Caminho 985" d="M206.936,19.827l-.344,1.53-.113-.015a7.673,7.673,0,0,1,.294-1.919c.178.085.023.3.163.4" transform="translate(-136.658 -12.855)" fill="#383838"/>
    <path id="Caminho_986" data-name="Caminho 986" d="M167.113,7.478c-.177.26-.45.148-.663.128a7.266,7.266,0,0,1-1.537-.162,5.329,5.329,0,0,1,1.732-.031,1.549,1.549,0,0,1,.468.065" transform="translate(-109.148 -4.869)" fill="#888"/>
    <path id="Caminho_987" data-name="Caminho 987" d="M140.236,97.358a1.117,1.117,0,0,1,.544.7,3.745,3.745,0,0,0,.332.617c-.4-.041-.582-.337-.709-.664a5.352,5.352,0,0,1-.167-.651" transform="translate(-92.815 -64.436)" fill="#383838"/>
    <path id="Caminho_988" data-name="Caminho 988" d="M76.619,98.865c-.524-.249-.634-.826-.973-1.222a1.318,1.318,0,0,1,.973,1.222" transform="translate(-50.066 -64.625)" fill="#383838"/>
    <path id="Caminho_989" data-name="Caminho 989" d="M163.667,98.28c-.3-.03-.406.228-.579.384-.313.285-.547.675-1.014.751a.76.76,0,0,1,.362-.406,2.682,2.682,0,0,0,.672-.724c.192-.26.391-.256.558-.005" transform="translate(-107.269 -64.921)" fill="#383838"/>
    <path id="Caminho_990" data-name="Caminho 990" d="M228.48,78.026a3.39,3.39,0,0,1,1,.391c.069.035.161.08.122.178s-.139.067-.213.053c-.275-.052-.549-.112-.824-.169a.785.785,0,0,0-.083-.453" transform="translate(-151.22 -51.642)" fill="#383838"/>
    <path id="Caminho_991" data-name="Caminho 991" d="M63.453,85.76a1.9,1.9,0,0,1-.575-1.542c.047.019.126.028.136.059a6.235,6.235,0,0,1,.439,1.483" transform="translate(-41.606 -55.74)" fill="#383838"/>
    <path id="Caminho_992" data-name="Caminho 992" d="M39.243,55.218a3.239,3.239,0,0,1-.829.347,1.228,1.228,0,0,0-.483-.11A3.162,3.162,0,0,1,39.242,55v.218" transform="translate(-25.105 -36.402)" fill="#383838"/>
    <path id="Caminho_993" data-name="Caminho 993" d="M205.247,84.285c.047-.124-.217-.184-.08-.3.1-.088.234,0,.335.061a1.616,1.616,0,0,1,.794.806,1.509,1.509,0,0,1-.667-.4.607.607,0,0,0-.382-.17" transform="translate(-135.763 -55.559)" fill="#ddd"/>
    <path id="Caminho_994" data-name="Caminho 994" d="M249.248,68.788a2.7,2.7,0,0,1,.537.913l0,0c-.41-.061-.625-.393-.9-.646.209.03.278-.129.361-.269" transform="translate(-164.726 -45.527)" fill="#383838"/>
    <path id="Caminho_995" data-name="Caminho 995" d="M131.939,16.284c-.187-.032-.156-.174-.157-.3,0-.342-.007-.684-.011-1.025l.24-.091.031,1.391-.008.008-.1.021" transform="translate(-87.213 -9.838)" fill="#383838"/>
    <path id="Caminho_996" data-name="Caminho 996" d="M38.221,63.6a1.322,1.322,0,0,1,.629-.353c.107.069.309-.041.335.179l-.879.425-.085-.252" transform="translate(-25.297 -41.859)" fill="#383838"/>
    <path id="Caminho_997" data-name="Caminho 997" d="M177.864,96.576c-.29-.026-.383.19-.5.393-.174.309-.324.652-.741.711.24-.4.6-.7.825-1.119.1-.19.282-.18.414.014" transform="translate(-116.899 -63.819)" fill="#383838"/>
    <path id="Caminho_998" data-name="Caminho 998" d="M59.643,76.8a1.792,1.792,0,0,1-.294-1.481c.055.032.161.067.159.1-.022.468.179.915.134,1.384" transform="translate(-39.263 -49.847)" fill="#383838"/>
    <path id="Caminho_999" data-name="Caminho 999" d="M37.484,40.383a2.473,2.473,0,0,1,1.14-.813,1.415,1.415,0,0,1-1.14.813" transform="translate(-24.809 -26.189)" fill="#383838"/>
    <path id="Caminho_1000" data-name="Caminho 1000" d="M92.785,53.958c-.545-.087-.775-.547-1.085-.913a2.672,2.672,0,0,1,1.085.913" transform="translate(-60.692 -35.108)" fill="#383838"/>
    <path id="Caminho_1001" data-name="Caminho 1001" d="M176.916,93.747a1.134,1.134,0,0,1,.462-1.154,2.023,2.023,0,0,1-.462,1.154" transform="translate(-117.084 -61.283)" fill="#ddd"/>
    <path id="Caminho_1002" data-name="Caminho 1002" d="M54.724,71.087a.9.9,0,0,1-.9-.812,4.191,4.191,0,0,1,.9.812" transform="translate(-35.625 -46.512)" fill="#ddd"/>
    <path id="Caminho_1003" data-name="Caminho 1003" d="M31.907,55.04c-.1-.434-.293-.868.014-1.3a2.115,2.115,0,0,1-.014,1.3" transform="translate(-21.017 -35.57)" fill="#383838"/>
    <path id="Caminho_1004" data-name="Caminho 1004" d="M132.513,15.935l-.031-1.391.044-.163c.119.027.131.119.131.217q0,.564,0,1.128c0,.1-.024.187-.142.209" transform="translate(-87.683 -9.518)" fill="#ddd"/>
    <path id="Caminho_1005" data-name="Caminho 1005" d="M272.939,38.464a3.861,3.861,0,0,1-.053-1.306c.167.046.1.267.248.33a2.368,2.368,0,0,1-.195.976" transform="translate(-180.59 -24.593)" fill="#888"/>
    <path id="Caminho_1006" data-name="Caminho 1006" d="M58.086,54.308c.119-.411.163-.871.677-1.02a1.974,1.974,0,0,1-.677,1.02" transform="translate(-38.444 -35.269)" fill="#888"/>
    <path id="Caminho_1007" data-name="Caminho 1007" d="M163.426,90.686c-.074-.437.226-.693.47-.976a1.738,1.738,0,0,1-.155.7c-.138.052-.146.255-.315.272" transform="translate(-108.156 -59.375)" fill="#ddd"/>
    <path id="Caminho_1008" data-name="Caminho 1008" d="M60.515,51.115c.057-.331.419-.436.538-.726.049-.121.116-.251.29-.231a1.462,1.462,0,0,1-.828.957" transform="translate(-40.052 -33.196)" fill="#888"/>
    <path id="Caminho_1009" data-name="Caminho 1009" d="M203.091,91.115a.962.962,0,0,1,.65-.9,1.7,1.7,0,0,1-.65.9" transform="translate(-134.416 -59.707)" fill="#ddd"/>
    <path id="Caminho_1010" data-name="Caminho 1010" d="M44.158,40.094c-.23.291-.489.516-.9.388a1.507,1.507,0,0,1,.9-.388" transform="translate(-28.63 -26.536)" fill="#888"/>
    <path id="Caminho_1011" data-name="Caminho 1011" d="M54.344,19.607a1.656,1.656,0,0,1,0-1.135,1.674,1.674,0,0,1,0,1.135" transform="translate(-35.9 -12.226)" fill="#383838"/>
    <path id="Caminho_1012" data-name="Caminho 1012" d="M163.123,92.065c.169-.016.177-.219.315-.272.056.4-.037.718-.482.829,0-.158.24-.242.132-.433l.035-.125" transform="translate(-107.852 -60.753)" fill="#383838"/>
    <path id="Caminho_1013" data-name="Caminho 1013" d="M107.819,68.553c-.305-.233-.312-.608-.442-.925a.984.984,0,0,1,.442.925" transform="translate(-71.067 -44.76)" fill="#383838"/>
    <path id="Caminho_1014" data-name="Caminho 1014" d="M139.213,94.3c.348.178.315.5.306.811a.781.781,0,0,1-.306-.811" transform="translate(-92.133 -62.412)" fill="#383838"/>
    <path id="Caminho_1015" data-name="Caminho 1015" d="M211.952,69.823c.25.081.532.111.66.395-.1.01-.17.042-.171.156l-.48-.4c0-.051-.006-.1-.009-.153" transform="translate(-140.28 -46.212)" fill="#383838"/>
    <path id="Caminho_1016" data-name="Caminho 1016" d="M35.871,71.938a2.006,2.006,0,0,1,.8.181c-.334.245-.6.207-.8-.181" transform="translate(-23.741 -47.612)" fill="#888"/>
    <path id="Caminho_1017" data-name="Caminho 1017" d="M215.953,88.984a.235.235,0,0,1,0,.04c-.027.163.092.417-.112.467-.237.058-.166-.251-.275-.368l.385-.139" transform="translate(-142.673 -58.894)" fill="#383838"/>
    <path id="Caminho_1018" data-name="Caminho 1018" d="M160.626,95.016c.086-.281.429-.338.528-.608l.182.023a.748.748,0,0,1-.709.585" transform="translate(-106.31 -62.484)" fill="#383838"/>
    <path id="Caminho_1019" data-name="Caminho 1019" d="M74.8,40.818c-.154.369-.5.4-.825.476a1.231,1.231,0,0,1,.825-.476" transform="translate(-48.962 -27.015)" fill="#383838"/>
    <path id="Caminho_1020" data-name="Caminho 1020" d="M186.973,87.662a.556.556,0,0,1,.121-.557c.039-.037.1,0,.137.044.159.189,0,.35-.044.522l-.214-.009" transform="translate(-123.732 -57.64)" fill="#888"/>
    <path id="Caminho_1021" data-name="Caminho 1021" d="M64.376,78.075a.727.727,0,0,1,.074-.179c.065-.084.151-.182.265-.107s.021.166,0,.252-.017.161-.11.195l-.227-.161" transform="translate(-42.607 -51.467)" fill="#383838"/>
    <path id="Caminho_1022" data-name="Caminho 1022" d="M147.479,94.662a.63.63,0,0,1-.856-.088l.856.088" transform="translate(-97.042 -62.594)" fill="#383838"/>
    <path id="Caminho_1023" data-name="Caminho 1023" d="M106.046,66.156a.865.865,0,0,1-.525-.53.681.681,0,0,1,.525.53" transform="translate(-69.839 -43.435)" fill="#383838"/>
    <path id="Caminho_1024" data-name="Caminho 1024" d="M272.881,36.86c-.146-.062-.081-.284-.248-.33l-.158-.321c.361.076.43.334.406.651" transform="translate(-180.338 -23.965)" fill="#383838"/>
    <path id="Caminho_1025" data-name="Caminho 1025" d="M74.91,93.132a.674.674,0,0,1,.469.563c-.275-.089-.363-.333-.469-.563" transform="translate(-49.579 -61.639)" fill="#383838"/>
    <path id="Caminho_1026" data-name="Caminho 1026" d="M162.368,93.477l-.182-.023c.077-.206.139-.424.392-.488.109.19-.132.275-.132.432l-.078.078" transform="translate(-107.343 -61.53)" fill="#888"/>
    <path id="Caminho_1027" data-name="Caminho 1027" d="M109.181,74.254c-.075.114-.11.35-.263.281a.338.338,0,0,1-.08-.456c.111.064.174.223.343.175" transform="translate(-72.001 -49.029)" fill="#383838"/>
    <path id="Caminho_1028" data-name="Caminho 1028" d="M158.694,100.515a.6.6,0,0,0-.091-.452c.141-.048.282-.037.33.115.059.189-.069.287-.238.337" transform="translate(-104.971 -66.21)" fill="#383838"/>
    <path id="Caminho_1029" data-name="Caminho 1029" d="M84.382,42.167a.621.621,0,0,1,.041-.642.668.668,0,0,1-.041.642" transform="translate(-55.803 -27.483)" fill="#383838"/>
    <path id="Caminho_1030" data-name="Caminho 1030" d="M33.958,48.384q0-.329,0-.658a.414.414,0,0,1,0,.658" transform="translate(-22.475 -31.587)" fill="#383838"/>
    <path id="Caminho_1031" data-name="Caminho 1031" d="M56.468,57.619c-.014-.248.035-.452.338-.474.022.254-.171.355-.338.474" transform="translate(-37.372 -37.821)" fill="#888"/>
    <path id="Caminho_1032" data-name="Caminho 1032" d="M135.274,85.222a.488.488,0,0,1,.155-.58.654.654,0,0,1-.155.58" transform="translate(-89.507 -56.02)" fill="#888"/>
    <path id="Caminho_1033" data-name="Caminho 1033" d="M108.821,72.871a.352.352,0,0,1,.021-.423.262.262,0,0,1-.021.423" transform="translate(-71.983 -47.95)" fill="#383838"/>
    <path id="Caminho_1034" data-name="Caminho 1034" d="M166.8,99.039c-.005-.129-.011-.259-.017-.388.246.114.251.222.017.388" transform="translate(-110.388 -65.292)" fill="#383838"/>
    <path id="Caminho_1035" data-name="Caminho 1035" d="M55.989,58.792c-.007-.122.005-.231.162-.243a.222.222,0,0,1-.162.243" transform="translate(-37.055 -38.751)" fill="#888"/>
    <path id="Caminho_1036" data-name="Caminho 1036" d="M61.569,80.688l-.09-.069c.065-.023.09.007.09.069" transform="translate(-40.69 -53.352)" fill="#888"/>
    <path id="Caminho_1037" data-name="Caminho 1037" d="M36.819,42.326c-.016-.06.008-.082.068-.07l-.068.07" transform="translate(-24.366 -27.965)" fill="#383838"/>
    <path id="Caminho_1038" data-name="Caminho 1038" d="M216.823,88.783l-.1.06.1-.06" transform="translate(-143.44 -58.761)" fill="#383838"/>
    <path id="Caminho_1039" data-name="Caminho 1039" d="M99.479,87.813l.356,0a14.754,14.754,0,0,0-1.42,2.846,13.537,13.537,0,0,0-.757,2.281,1.307,1.307,0,0,1-.228.373c-.188.14-.343.405-.63.164a2.471,2.471,0,0,1,.458-1.257,2.8,2.8,0,0,0,.4-1.082,3.959,3.959,0,0,1,.358-.831,8.9,8.9,0,0,1,1.465-2.49" transform="translate(-64.066 -58.116)" fill="#0d0d0d"/>
    <path id="Caminho_1040" data-name="Caminho 1040" d="M89.544,102.9c0-.154.154-.174.232-.259s.13-.18.269-.1a.286.286,0,0,1,.152.3c-.006.121,0,.243,0,.365l-.652-.3" transform="translate(-59.265 -67.849)" fill="#383838"/>
    <path id="Caminho_1041" data-name="Caminho 1041" d="M151.746,104.664a.3.3,0,0,1,.386,0l-.386,0" transform="translate(-100.433 -69.225)" fill="#383838"/>
    <path id="Caminho_1042" data-name="Caminho 1042" d="M147.671,104.692c.049-.068.1-.074.144,0l-.144,0" transform="translate(-97.736 -69.255)" fill="#383838"/>
    <path id="Caminho_1043" data-name="Caminho 1043" d="M266.018,82.4c.021.173-.179.259-.17.427a3.918,3.918,0,0,0-1.47-.652.427.427,0,0,0-.522.223,2.429,2.429,0,0,1-1.79,1.237c-.3.032-.382.351-.417.575-.06.38-.2.735-.273,1.109a.959.959,0,0,1-.584.766,1.178,1.178,0,0,0-.6,1.051c-.03.356-.275.419-.5.528-.131.064-.267.026-.25-.181a2.231,2.231,0,0,0-.01-.281,3.377,3.377,0,0,0,.175-1.314c0-.159.014-.318.022-.477l.374,0c.387.268.579.209.758-.215a1.961,1.961,0,0,0,.116-.538,1.572,1.572,0,0,0-.273-1.29c-.216-.582-.344-1.194-.61-1.759a.262.262,0,0,1,.321-.168,1.537,1.537,0,0,0,.441.748q.262.282.516.57c.391.446.494.474,1.01.189a1.488,1.488,0,0,0,.808-1.314c.014-.364,0-.729,0-1.093.2-.283-.006-.533-.076-.79a2.741,2.741,0,0,1-.165-.574c-.01-.179.045-.288.249-.261a3.9,3.9,0,0,1,.58,1.982c-.031.42.257.594.617.695a4.2,4.2,0,0,1,1.726.8" transform="translate(-171.704 -52.228)" fill="#0d0d0d"/>
    <path id="Caminho_1044" data-name="Caminho 1044" d="M159.921,27.162l-.253.166a1.152,1.152,0,0,1-.982-.817.351.351,0,0,1,.1-.21,3.162,3.162,0,0,0,.849-1.578,5.09,5.09,0,0,0,.049-1.493,2.853,2.853,0,0,0-.918-1.961,1.559,1.559,0,0,0-2.2.245,4.172,4.172,0,0,0-.719,1.429,3.623,3.623,0,0,1-1.45.165,4.288,4.288,0,0,0-.488-1.65,1.613,1.613,0,0,0-2.659-.2c-.1.127-.19.255-.29.378a3.225,3.225,0,0,0-.228,3.681c.541.829.555.82-.3,1.377-.12-.045-.258.032-.372-.1a6.609,6.609,0,0,1-1.182-1.477c-.117-.245-.261-.478-.393-.717a5.647,5.647,0,0,1-.313-1.7,1.711,1.711,0,0,0,.062-1.383,5.213,5.213,0,0,1,.489-2.006,6.13,6.13,0,0,1,1.047-1.722,2.89,2.89,0,0,1,2.005-1.061,9.738,9.738,0,0,1,1.332.164c.163.2.456.146.635.317a4.178,4.178,0,0,1,1.323,2.976c.026.231-.014.621.275.638.2.012.161-.367.212-.58a4.609,4.609,0,0,1,1.736-2.873.683.683,0,0,0,.121-.158c.472,0,.945,0,1.417.007a2.588,2.588,0,0,1,2.151,1.151,6.066,6.066,0,0,1,1.14,3.551.454.454,0,0,0,0,.57,8.3,8.3,0,0,1-.819,3.4,9.742,9.742,0,0,0-1.372,1.466" transform="translate(-98.064 -10.939)" fill="#fefefe"/>
    <path id="Caminho_1045" data-name="Caminho 1045" d="M158.34,31.011a4.178,4.178,0,0,1,.719-1.429,1.559,1.559,0,0,1,2.2-.245,2.856,2.856,0,0,1,.918,1.961,5.09,5.09,0,0,1-.05,1.493,3.158,3.158,0,0,1-.849,1.578.353.353,0,0,0-.1.21c-.109.017-.237-.026-.313.1a1.514,1.514,0,0,1-.776-.262,7.342,7.342,0,0,0-3.437-.472c-.146-.024-.3-.073-.416.066a3.83,3.83,0,0,0-2.428.982c-.45.065-.6.428-.761.775a.728.728,0,0,0-.3.43,3.489,3.489,0,0,0-.015,2.122c-.1-.023-.162.055-.239.091A2.181,2.181,0,0,1,152,36.364a6.885,6.885,0,0,1,.514-1.211.408.408,0,0,0,.4-.391c.86-.558.845-.548.3-1.377a3.225,3.225,0,0,1,.228-3.681c.1-.123.2-.25.29-.378a1.613,1.613,0,0,1,2.659.2,4.294,4.294,0,0,1,.488,1.65,5.8,5.8,0,0,1-.314,1.952c-.043.113-.024.231.165.24a11.8,11.8,0,0,0,1.335,0c.125-.009.2-.042.2-.188a14.842,14.842,0,0,1,.067-2.173m2.544,1.466a.464.464,0,0,0,.2-.587c-.06-.189.1-.531-.289-.555a1.415,1.415,0,0,0-.531-.472.548.548,0,0,0-.729.074,1.7,1.7,0,0,0-.015,2.332.456.456,0,0,0,.64.087,1.343,1.343,0,0,0,.461-.418c.2-.087.242-.27.263-.461m-4.945-.9a1.452,1.452,0,0,0-.28-.844.638.638,0,0,0-.987-.114A1.568,1.568,0,0,0,154.706,33a.321.321,0,0,0,.424.064c.593-.256.782-.734.809-1.494" transform="translate(-100.557 -19.007)" fill="#0d0d0d"/>
    <path id="Caminho_1046" data-name="Caminho 1046" d="M152.226,65.054a12.353,12.353,0,0,0-.508-1.215c.023-.238-.311-.459-.016-.716.482.224.813.68,1.3.925a13.481,13.481,0,0,0,2.033.765c.263.084.538.132.807.2a3.319,3.319,0,0,0,2.365,0l.182,0a.391.391,0,0,0,.472-.134,23.669,23.669,0,0,0,3.809-1.183c-.133.365-.368.577-.424.872a21.846,21.846,0,0,1-1.819,2.2,5.852,5.852,0,0,1-3.675,1.875.4.4,0,0,0-.428,0l-.381-.077a12.586,12.586,0,0,1-.281-1.509,1.767,1.767,0,0,0-1.056-1.576,3.576,3.576,0,0,0-1.5-.176,1.058,1.058,0,0,1-.876-.249" transform="translate(-100.323 -41.778)" fill="#0d0d0d"/>
    <path id="Caminho_1047" data-name="Caminho 1047" d="M146.544,21.284a5.647,5.647,0,0,0,.313,1.7c-.125.052-.211.2-.375.155a7.716,7.716,0,0,1-.751-3.615,6.59,6.59,0,0,1,1.257-3.648,3.463,3.463,0,0,1,1.7-1.356,3.3,3.3,0,0,1,2.171.1c.276.1.616.1.788.413l-.164.246a9.726,9.726,0,0,0-1.332-.164,2.89,2.89,0,0,0-2.005,1.061A6.145,6.145,0,0,0,147.1,17.9a5.208,5.208,0,0,0-.489,2.006,4.466,4.466,0,0,0-.062,1.383" transform="translate(-96.442 -9.518)" fill="#0d0d0d"/>
    <path id="Caminho_1048" data-name="Caminho 1048" d="M179.371,25.309a8.3,8.3,0,0,0,.819-3.4.476.476,0,0,0,0-.57,6.066,6.066,0,0,0-1.14-3.552,2.59,2.59,0,0,0-2.151-1.151c-.472-.007-.945-.005-1.417-.007a2.514,2.514,0,0,1,2.2-.66,3.516,3.516,0,0,1,2.523,1.624,4.942,4.942,0,0,1,.532,1.4A6.4,6.4,0,0,1,181,21.83a7.22,7.22,0,0,1-1.235,3.508.588.588,0,0,1-.221.227.245.245,0,0,1-.175-.256" transform="translate(-116.142 -10.551)" fill="#0d0d0d"/>
    <path id="Caminho_1049" data-name="Caminho 1049" d="M211.618,25.932a.937.937,0,0,1,.081-.461,3.331,3.331,0,0,1,2.929,2.163,4.6,4.6,0,0,1-.336,4.464,2.074,2.074,0,0,1-.472.489c-.041.032-.1.046-.13.086-.47.744-1.307.6-1.992.828-.161-.05-.309.043-.466.043a.676.676,0,0,1-.014-.372,4.43,4.43,0,0,0,2.243-1.524,3.672,3.672,0,0,0,.071-4.443,3,3,0,0,0-1.914-1.272" transform="translate(-139.782 -16.858)" fill="#0d0d0d"/>
    <path id="Caminho_1050" data-name="Caminho 1050" d="M153.588,57.184c.077-.037.139-.114.239-.091.2.219.381.46.6.671a4.973,4.973,0,0,0,3.178,1.527,20.483,20.483,0,0,0,2.573,0l0,.416-.161.155a6.307,6.307,0,0,1-2.22.06,5.912,5.912,0,0,1-2.362-.873,5.732,5.732,0,0,1-1.847-1.863" transform="translate(-101.652 -37.784)" fill="#383838"/>
    <path id="Caminho_1051" data-name="Caminho 1051" d="M173.075,57.172q0-.208,0-.416a8.31,8.31,0,0,0,1.659-.722,3.063,3.063,0,0,0,1.6-2.365c.223-.059.178-.422.465-.407a3.862,3.862,0,0,1-.027,1.324,3.353,3.353,0,0,1-2.16,2.234,3.94,3.94,0,0,1-1.125.346.726.726,0,0,0-.414.005" transform="translate(-114.55 -35.251)" fill="#0d0d0d"/>
    <path id="Caminho_1052" data-name="Caminho 1052" d="M212.158,34.168v1.775a.766.766,0,0,1-.477-.683,4.152,4.152,0,0,1,.22-2.214c.034-.062-.014-.186.1-.186s.141.11.148.2c.011.147.006.3.007.444l0,.662" transform="translate(-140.073 -21.748)" fill="#383838"/>
    <path id="Caminho_1053" data-name="Caminho 1053" d="M147.984,39.976c.164.043.251-.1.376-.155.132.238.276.471.392.717a6.62,6.62,0,0,0,1.182,1.477c.114.129.252.051.372.1a.407.407,0,0,1-.4.391,2.156,2.156,0,0,0-.886-.992,3.035,3.035,0,0,1-1.032-1.533" transform="translate(-97.943 -26.356)" fill="#383838"/>
    <path id="Caminho_1054" data-name="Caminho 1054" d="M180.291,48.49c-.287-.015-.242.349-.465.407a2.765,2.765,0,0,0-.567-1.8,12.71,12.71,0,0,0-.911-.952c.076-.123.2-.08.313-.1a1.151,1.151,0,0,0,.982.817,1.518,1.518,0,0,0,.284.642c.172.3.443.58.364.98" transform="translate(-118.04 -30.479)" fill="#383838"/>
    <path id="Caminho_1055" data-name="Caminho 1055" d="M128.178,30.137a1.449,1.449,0,0,1,.472,1.031,6.372,6.372,0,0,0,.186,1.05.849.849,0,0,1-.07.7c-.336-.509-.262-1.119-.495-1.629a5.788,5.788,0,0,1-.094-1.154" transform="translate(-84.828 -19.946)" fill="#383838"/>
    <path id="Caminho_1056" data-name="Caminho 1056" d="M184.3,43.644a.244.244,0,0,0,.175.256,2.176,2.176,0,0,1-1.547,1.21,9.726,9.726,0,0,1,1.372-1.466" transform="translate(-121.07 -28.886)" fill="#383838"/>
    <path id="Caminho_1057" data-name="Caminho 1057" d="M127.36,29.9a5.788,5.788,0,0,0,.094,1.154c-.553.233-.556.233-.5-.381a5.541,5.541,0,0,1,.1-.673c.039-.174.116-.34.306-.1" transform="translate(-84.01 -19.711)" fill="#888"/>
    <path id="Caminho_1058" data-name="Caminho 1058" d="M166.545,68.566a3.321,3.321,0,0,1-2.365,0,10.223,10.223,0,0,1,2.365,0" transform="translate(-108.663 -45.335)" fill="#383838"/>
    <path id="Caminho_1059" data-name="Caminho 1059" d="M213.171,35.43l0-.662a1.414,1.414,0,0,1,.7.768c-.277.121-.457-.2-.7-.106" transform="translate(-141.086 -23.011)" fill="#888"/>
    <path id="Caminho_1060" data-name="Caminho 1060" d="M162.759,16.55l.164-.246c.211.143.49.228.471.563-.179-.171-.471-.115-.635-.317" transform="translate(-107.722 -10.791)" fill="#383838"/>
    <path id="Caminho_1061" data-name="Caminho 1061" d="M210.205,48.244a.672.672,0,0,0,.013.372c-.2.026-.527.129-.549-.077-.027-.248.341-.207.536-.295" transform="translate(-138.769 -31.93)" fill="#888"/>
    <path id="Caminho_1062" data-name="Caminho 1062" d="M129.019,44.668l-.094-.258c.155-.173.343-.07.546-.073a.528.528,0,0,1-.452.331" transform="translate(-85.329 -29.326)" fill="#888"/>
    <path id="Caminho_1063" data-name="Caminho 1063" d="M172.759,64.758a.726.726,0,0,1,.414-.005.431.431,0,0,1-.575.16l.161-.155" transform="translate(-114.234 -42.837)" fill="#888"/>
    <path id="Caminho_1064" data-name="Caminho 1064" d="M172.183,68.253a.391.391,0,0,1-.472.134.391.391,0,0,1,.472-.134" transform="translate(-113.647 -45.153)" fill="#383838"/>
    <path id="Caminho_1065" data-name="Caminho 1065" d="M153.492,68.833a1.058,1.058,0,0,0,.876.249,3.576,3.576,0,0,1,1.5.176,1.767,1.767,0,0,1,1.056,1.576,12.591,12.591,0,0,0,.281,1.509,2,2,0,0,1-1.357-.5,6.242,6.242,0,0,1-1.557-1.633,1.782,1.782,0,0,0-.493-.642c-.045-.268-.292-.451-.308-.732" transform="translate(-101.589 -45.557)" fill="#383838"/>
    <path id="Caminho_1066" data-name="Caminho 1066" d="M154.4,71a1.788,1.788,0,0,1,.493.642A.577.577,0,0,1,154.4,71" transform="translate(-102.187 -46.99)" fill="#ddd"/>
    <path id="Caminho_1067" data-name="Caminho 1067" d="M165.6,79.319a.4.4,0,0,1,.428,0c-.143.235-.285.234-.428,0" transform="translate(-109.606 -52.456)" fill="#ddd"/>
    <path id="Caminho_1068" data-name="Caminho 1068" d="M132.267,19.024l.1-.021c-.013.036-.02.1-.039.1-.051.009-.059-.039-.058-.082" transform="translate(-87.541 -12.577)" fill="#ddd"/>
    <path id="Caminho_1069" data-name="Caminho 1069" d="M256.1,78.07a.262.262,0,0,0-.321.168.768.768,0,0,1-.414-.474,21.206,21.206,0,0,0-2.154-3.558,2.445,2.445,0,0,1-.143-.244c-.009-.018.007-.049.023-.144.36.383.7.733,1.025,1.09a8.418,8.418,0,0,1,1.436,2.19c.158.34.515.564.548.972" transform="translate(-167.492 -48.856)" fill="#383838"/>
    <path id="Caminho_1070" data-name="Caminho 1070" d="M262.9,92.09a1.571,1.571,0,0,1,.273,1.29c-.232-.071-.1-.272-.13-.406-.072-.288-.1-.589-.143-.884" transform="translate(-173.998 -60.95)" fill="#383838"/>
    <path id="Caminho_1071" data-name="Caminho 1071" d="M260.179,97.486l-.374,0c-.113-.09-.151-.209-.037-.3.084-.069.176.025.245.087s.152.116.166.22" transform="translate(-171.882 -64.302)" fill="#383838"/>
    <path id="Caminho_1072" data-name="Caminho 1072" d="M251.54,71.488a.109.109,0,0,1,.03.017s0,.016,0,.024l-.035-.04,0,0" transform="translate(-166.48 -47.314)" fill="#383838"/>
    <path id="Caminho_1073" data-name="Caminho 1073" d="M277.505,67.3c-.006-.446-.035-.892-.012-1.336a13.483,13.483,0,0,0-.237-2.144c-.009-.091-.078-.191.035-.241s.205.036.24.148a5.552,5.552,0,0,1,.423,1.735,19.976,19.976,0,0,1-.024,2.386c-.422.035-.3-.354-.426-.547" transform="translate(-183.483 -42.069)" fill="#383838"/>
    <path id="Caminho_1074" data-name="Caminho 1074" d="M277.5,74.618c.129.193,0,.583.426.547a7.232,7.232,0,0,1-.223,1.1.507.507,0,0,0,.42.687,2.994,2.994,0,0,1,1.457.733.265.265,0,0,0-.173.26,3.722,3.722,0,0,1-1.032-.529,2.444,2.444,0,0,0-.747-.385.451.451,0,0,1-.4-.576c.066-.544.112-1.091.165-1.637.008-.082.018-.161.106-.2" transform="translate(-183.481 -49.386)" fill="#888"/>
    <path id="Caminho_1075" data-name="Caminho 1075" d="M282.536,68.7a.225.225,0,0,0-.152.318,1.118,1.118,0,0,1-.828-.3c-.016-.016,0-.106.015-.108a1.241,1.241,0,0,1,.965.086" transform="translate(-186.344 -45.373)" fill="#888"/>
    <path id="Caminho_1076" data-name="Caminho 1076" d="M282.2,75.9l-.185.133a1.1,1.1,0,0,1-.742-.206c.313.009.636-.141.927.074" transform="translate(-186.158 -50.159)" fill="#888"/>
    <path id="Caminho_1077" data-name="Caminho 1077" d="M267.961,74.366a1.6,1.6,0,0,1-.56-.738.907.907,0,0,1,.56.738" transform="translate(-176.979 -48.731)" fill="#888"/>
    <path id="Caminho_1078" data-name="Caminho 1078" d="M47.927,44.9a3.657,3.657,0,0,1,.672-1.89c.064-.111.09-.256.3-.3a27.235,27.235,0,0,0-.489,3.461c-.191.1-.1.375-.324.5a10.961,10.961,0,0,1-.043-1.382c-.006-.133.078-.306-.117-.386" transform="translate(-31.72 -28.266)" fill="#383838"/>
    <path id="Caminho_1079" data-name="Caminho 1079" d="M40.415,61.544c-.026-.22-.229-.11-.335-.179a5.378,5.378,0,0,1,2.136-.847c.2-.033.518-.258.6.033.075.253-.3.246-.476.31a8.324,8.324,0,0,1-1.929.682" transform="translate(-26.527 -39.979)" fill="#888"/>
    <path id="Caminho_1080" data-name="Caminho 1080" d="M47.647,49.192c.2.08.111.253.117.386a10.961,10.961,0,0,0,.043,1.382c.225-.124.133-.4.324-.5-.019.6-.03,1.2-.061,1.8-.006.11-.064.253-.224.237-.135-.014-.164-.137-.157-.244.048-.729-.239-1.429-.177-2.162a4.3,4.3,0,0,1,.135-.9" transform="translate(-31.44 -32.558)" fill="#888"/>
    <path id="Caminho_1081" data-name="Caminho 1081" d="M41.809,55.013V54.8c.368-.215.761-.026,1.145-.064a2.191,2.191,0,0,1-1.144.282" transform="translate(-27.671 -36.197)" fill="#888"/>
    <path id="Caminho_1082" data-name="Caminho 1082" d="M44.182,47.919q0-.106-.009-.212c.166-.034.4-.113.472.04.085.179-.051.288-.267.2a.7.7,0,0,0-.2-.024" transform="translate(-29.236 -31.541)" fill="#888"/>
    <path id="Caminho_1083" data-name="Caminho 1083" d="M167.389,35.5a14.85,14.85,0,0,0-.067,2.173c0,.146-.073.179-.2.188a11.638,11.638,0,0,1-1.335,0c-.189-.009-.208-.126-.165-.24a5.8,5.8,0,0,0,.314-1.952,3.617,3.617,0,0,0,1.45-.165" transform="translate(-109.606 -23.495)" fill="#ddd"/>
    <path id="Caminho_1084" data-name="Caminho 1084" d="M148.118,32.087a4.466,4.466,0,0,1,.062-1.383,1.711,1.711,0,0,1-.062,1.383" transform="translate(-98.015 -20.321)" fill="#ddd"/>
    <path id="Caminho_1085" data-name="Caminho 1085" d="M189.208,31.9a.477.477,0,0,1,0,.57.454.454,0,0,1,0-.57" transform="translate(-125.161 -21.116)" fill="#ddd"/>
    <path id="Caminho_1086" data-name="Caminho 1086" d="M162.442,44.559a13.047,13.047,0,0,1,.933.974,2.832,2.832,0,0,1,.58,1.841,3.135,3.135,0,0,1-1.638,2.421,8.5,8.5,0,0,1-1.7.739,20.944,20.944,0,0,1-2.635,0,5.089,5.089,0,0,1-3.254-1.563,3.229,3.229,0,0,1-.55-.729,3.445,3.445,0,0,1-.051-2.131,1.1,1.1,0,0,1,.264-.464,2.319,2.319,0,0,1,.823-.77,3.92,3.92,0,0,1,2.486-1c.159.082.325.212.426-.068a7.519,7.519,0,0,1,3.518.484,1.547,1.547,0,0,0,.794.269" transform="translate(-101.913 -28.979)" fill="#ddd"/>
    <path id="Caminho_1087" data-name="Caminho 1087" d="M160.252,34.926c-.026.76-.215,1.238-.809,1.494a.321.321,0,0,1-.424-.064,1.568,1.568,0,0,1-.034-2.388.638.638,0,0,1,.987.114,1.452,1.452,0,0,1,.28.844" transform="translate(-104.87 -22.36)" fill="#fefefe"/>
    <path id="Caminho_1088" data-name="Caminho 1088" d="M174.573,36.935a1.34,1.34,0,0,1-.461.418.456.456,0,0,1-.64-.087,1.7,1.7,0,0,1,.016-2.332.547.547,0,0,1,.729-.074,1.418,1.418,0,0,1,.531.473l-.015.247c-.174.438.016.918-.158,1.355" transform="translate(-114.509 -23.003)" fill="#fefefe"/>
    <path id="Caminho_1089" data-name="Caminho 1089" d="M178.092,36.707l.015-.247c.388.024.23.366.289.555a.464.464,0,0,1-.2.587c-.094-.291.1-.616-.105-.894" transform="translate(-117.87 -24.131)" fill="#383838"/>
    <path id="Caminho_1090" data-name="Caminho 1090" d="M177.782,37.19c.2.279.011.6.105.894a.484.484,0,0,1-.263.461c.174-.438-.016-.918.158-1.356" transform="translate(-117.56 -24.614)" fill="#ddd"/>
  </g>
</svg>
