<svg xmlns="http://www.w3.org/2000/svg" xmlns:xlink="http://www.w3.org/1999/xlink" width="166.05" height="71.043" viewBox="0 0 166.05 71.043">
  <defs>
    <clipPath id="clip-path">
      <rect id="Retângulo_433" data-name="Retângulo 433" width="166.05" height="71.043" fill="none"/>
    </clipPath>
  </defs>
  <g id="LOGO_MARAVILHAS_DO_LAR" data-name="LOGO MARAVILHAS DO LAR" transform="translate(44.54 -194.166)">
    <g id="Grupo_1816" data-name="Grupo 1816" transform="translate(-44.54 194.166)" clip-path="url(#clip-path)">
      <path id="Caminho_1124" data-name="Caminho 1124" d="M42.424,27.6V40.254a.318.318,0,0,1-.318.316H39.081a.323.323,0,0,1-.32-.316V27.6h0a3.2,3.2,0,0,0-6.4,0c.009,4.219,0,8.438,0,12.656a.318.318,0,0,1-.317.317H29.02a.318.318,0,0,1-.316-.317V27.6h0v0a3.2,3.2,0,0,0-6.4,0v0h0V40.254a.314.314,0,0,1-.314.316H18.967a.32.32,0,0,1-.32-.316V27.6a6.863,6.863,0,0,1,11.764-4.725.175.175,0,0,0,.248,0l0,0h0a6.826,6.826,0,0,1,4.9-2.06A6.73,6.73,0,0,1,42.424,27.6M36.049,48.952a17.047,17.047,0,0,0-.343-5.93,17.05,17.05,0,0,0,3.952,4.436A6.964,6.964,0,0,1,39,49.936a.627.627,0,0,1-.728.3,6.925,6.925,0,0,1-2.22-1.285M21.408,47.457a17.046,17.046,0,0,0,3.951-4.436,17.048,17.048,0,0,0-.342,5.93,6.952,6.952,0,0,1-2.22,1.285.627.627,0,0,1-.728-.3,6.929,6.929,0,0,1-.661-2.478m3.609-35.345a17.048,17.048,0,0,0,.343,5.93,17.047,17.047,0,0,0-3.951-4.436,6.937,6.937,0,0,1,.661-2.478.627.627,0,0,1,.728-.3,6.941,6.941,0,0,1,2.22,1.286m13.251-1.285a6.939,6.939,0,0,0-2.22,1.285,17.031,17.031,0,0,1-.342,5.93,17.058,17.058,0,0,1,3.951-4.436A6.929,6.929,0,0,0,39,11.129a.627.627,0,0,0-.728-.3M145.626,57.122l.247.581q1.109-.18,2.222-.375v-.621q-1.237.216-2.469.416m-2.476-5.838.279.658q2.257-.338,4.666-.755v-.7q-2.562.443-4.944.8M122.111,58.7v.621c2.5.116,4.983.128,7.459.05l.271-.63c-2.566.088-5.138.079-7.73-.041m0-5.924v.7a100.507,100.507,0,0,0,10.067-.247l.3-.721a101.028,101.028,0,0,1-10.369.27m-39.152.308q.265-.2.545-.373c-3.182-1.45-6.351-2.877-9.524-4.174a73.476,73.476,0,0,0-13.8-4.6A49.276,49.276,0,0,0,54,43.148a11.739,11.739,0,0,1-2.655.435l.032.077a50.614,50.614,0,0,1,8.8.9,73.477,73.477,0,0,1,13.8,4.6c2.991,1.223,5.98,2.561,8.978,3.925m28.261,10.1q-.123.287-.267.563,2.208.486,4.486.837v-.621q-2.137-.33-4.219-.779m.38-5.6q.088.319.152.646,1.854.309,3.687.533v-.621q-1.908-.234-3.839-.558M96.438,53.635v.621l.52.175c.138-.165.281-.325.429-.478q-.475-.157-.949-.318m55.531-24.264a6.108,6.108,0,0,0,2.892,4.611,2.366,2.366,0,0,0-.545.343l-1.83,1.91a1.866,1.866,0,0,0-.517,1.112ZM142.6,28.48a4.211,4.211,0,1,1-4.211,4.211A4.212,4.212,0,0,1,142.6,28.48m-.03-3.633a7.863,7.863,0,1,0,3.939,14.678.179.179,0,0,1,.079-.028h.022a.176.176,0,0,1,.177.176v.607a.3.3,0,0,0,.317.288h3.024a.329.329,0,0,0,.326-.321q0-7.308,0-14.613a.833.833,0,0,0-.4-.7.85.85,0,0,0-.693-.081L146.669,25.9a.178.178,0,0,1-.153-.012,7.884,7.884,0,0,0-3.947-1.045m-20.288,6.78a3.2,3.2,0,0,1,3.2-3.124,3.15,3.15,0,0,1,3.187,3.124v8.618a.343.343,0,0,0,.331.324h3.025a.318.318,0,0,0,.317-.317v-8.63a6.74,6.74,0,0,0-6.86-6.787,6.818,6.818,0,0,0-2.944.662.173.173,0,0,1-.081.02.176.176,0,0,1-.176-.177v-4.2a.317.317,0,0,0-.086-.217l-.007-.007a.317.317,0,0,0-.224-.094h-3.025a.32.32,0,0,0-.317.317V40.252a.316.316,0,0,0,.093.224h0a.316.316,0,0,0,.223.093h3.026a.322.322,0,0,0,.315-.324ZM115.932,20.82h-3.026a.319.319,0,0,0-.316.317V40.249a.316.316,0,0,0,.093.224h0a.316.316,0,0,0,.223.093h3.026a.321.321,0,0,0,.317-.317V21.137a.317.317,0,0,0-.087-.217l-.007-.007a.316.316,0,0,0-.224-.093m-6.327-.011a1.842,1.842,0,0,0-2.6,0h0A1.841,1.841,0,0,0,109.6,23.42l.008-.009a1.841,1.841,0,0,0,0-2.6m.211,4.017h-3.025a.319.319,0,0,0-.317.317V40.249a.316.316,0,0,0,.093.224h0a.319.319,0,0,0,.224.093h3.025a.316.316,0,0,0,.216-.086l.007-.007a.317.317,0,0,0,.094-.224V25.143a.318.318,0,0,0-.093-.224h0a.317.317,0,0,0-.223-.093m-5.15.042a.289.289,0,0,0-.125-.028h-3.515a.211.211,0,0,0-.13.044h0a.419.419,0,0,0-.119.162l-3.667,8.45h0a.176.176,0,0,1-.323,0L93.12,25.049l0,0a.449.449,0,0,0-.112-.157L93,24.882a.21.21,0,0,0-.13-.044H89.354a.284.284,0,0,0-.125.028.273.273,0,0,0-.105.089l-.005.008a.274.274,0,0,0-.043.152.433.433,0,0,0,.047.188l0,.006,6.743,14.58h0a1.216,1.216,0,0,0,2.156.009l0-.009,6.742-14.58v0a.439.439,0,0,0,.049-.191.274.274,0,0,0-.044-.152h0a.28.28,0,0,0-.11-.1M79.779,28.48A4.211,4.211,0,1,1,76.8,29.713a4.2,4.2,0,0,1,2.978-1.233m-9.022-3.642a9.7,9.7,0,0,0-3.949,1.081.178.178,0,0,1-.153.012h0L64,24.889a.841.841,0,0,0-1.126.771V40.245a.321.321,0,0,0,.318.321h3.025a.319.319,0,0,0,.317-.317V32.284a.171.171,0,0,1,0-.032,4.135,4.135,0,0,1,1.006-2.3,4.224,4.224,0,0,1,2.174-1.321,6.068,6.068,0,0,1,1.351-.093h.177a.327.327,0,0,0,.238-.1.365.365,0,0,0,.094-.258h0l0-3.01h0a.343.343,0,0,0-.1-.238l-.007-.007c-.14-.132-.531-.087-.71-.087m-18.143,0a7.865,7.865,0,0,0-7.84,7.764v.2a7.873,7.873,0,0,0,7.84,7.764,8.056,8.056,0,0,0,2.064-.267c.2-.054.4-.116.6-.185a7.824,7.824,0,0,0,1.262-.58c.136-.078.3-.044.3.131v.607a.3.3,0,0,0,.317.288h3.025a.323.323,0,0,0,.322-.317l0-14.617a.841.841,0,0,0-1.094-.782L56.725,25.9a.178.178,0,0,1-.153-.012,7.93,7.93,0,0,0-3.958-1.051m0,3.639a4.211,4.211,0,1,1-4.17,4.2c0,.026.177-4.2,4.17-4.2M164.43,66.3l-4.919-6.759a.151.151,0,0,1-.015-.021.176.176,0,0,1,.061-.241,7.745,7.745,0,0,0,2.749-2.817A7.7,7.7,0,0,0,155.6,44.973h-5.681a.317.317,0,0,0-.316.317V66.427a.316.316,0,0,0,.093.224h0a.316.316,0,0,0,.223.093h3.025a.315.315,0,0,0,.216-.086l.007-.007a.319.319,0,0,0,.094-.224l.022-18.094a.175.175,0,0,1,.175-.176l.945,0h.013a5.2,5.2,0,0,1,3.891,1.564,4.94,4.94,0,0,1,1.336,3.36h0v.009a4.889,4.889,0,0,1-1.123,3.126,5.217,5.217,0,0,1-2.9,1.753,1.469,1.469,0,0,0-.478.165.4.4,0,0,0-.167.359.486.486,0,0,0,.071.2l.006.009.007.013h0a2.146,2.146,0,0,0,.157.23l.008.01c.027.036.056.075.1.136l5.187,7.415.006.008a.716.716,0,0,0,.178.179l.008.005a.309.309,0,0,0,.163.052h3.515a.2.2,0,0,0,.12-.034.127.127,0,0,0,.039-.047.167.167,0,0,0,.015-.075.5.5,0,0,0-.118-.283Zm-16.781.441a.284.284,0,0,0,.125-.028.277.277,0,0,0,.111-.1h0a.274.274,0,0,0,.043-.152.443.443,0,0,0-.048-.191.1.1,0,0,1-.007-.017l-8.738-20.607a1.208,1.208,0,0,0-2.159,0l-8.693,20.617,0,.008a.443.443,0,0,0-.048.191.274.274,0,0,0,.043.152l.005.008a.273.273,0,0,0,.105.089.284.284,0,0,0,.125.028h3.514a.211.211,0,0,0,.13-.044l.008-.006a.433.433,0,0,0,.11-.151l.835-2.153a.176.176,0,0,1,.164-.112h9.612a.176.176,0,0,1,.168.123l.84,2.146A.419.419,0,0,0,144,66.7h0a.21.21,0,0,0,.13.044h3.514ZM134.67,60.356l3.22-8.3a.176.176,0,0,1,.328,0l3.253,8.315a.176.176,0,0,1-.1.228.17.17,0,0,1-.064.013h-6.479a.176.176,0,0,1-.159-.253M120.288,44.969h-3.025a.319.319,0,0,0-.317.317V66.427a.319.319,0,0,0,.317.317h9.087a.315.315,0,0,0,.221-.09l0,0h0a.313.313,0,0,0,.093-.224V63.4a.317.317,0,0,0-.316-.317h-5.568a.176.176,0,0,1-.177-.176V45.286a.315.315,0,0,0-.086-.217l-.007-.007a.315.315,0,0,0-.224-.093m-16.833,7.914a6.957,6.957,0,1,1-6.946,6.957,6.952,6.952,0,0,1,6.946-6.957m0,3.472a3.485,3.485,0,1,1-3.48,3.485,3.482,3.482,0,0,1,3.48-3.485m-15.46-3.434a6.9,6.9,0,0,1,3.444.915V49.953a.427.427,0,0,1,.425-.425h2.641a.427.427,0,0,1,.425.425V66.363a.427.427,0,0,1-.425.425H91.891a.406.406,0,0,1-.425-.4v-.523h0a6.937,6.937,0,1,1-3.468-12.945m.013,3.443a3.481,3.481,0,1,1-3.48,3.48,3.48,3.48,0,0,1,3.48-3.48m72.422-27.3h0c.578.29.753.351,1.108-.013l1.648-1.692c.2-.2.527-.433.081-.851a7.129,7.129,0,0,0-6.3-1.7,4.313,4.313,0,0,0-3.4,4.913,4.358,4.358,0,0,0,2.31,3.117l.006,0,.043.025,3.961,2.249h0c1.371.791.72,2.134-.888,1.933a4.217,4.217,0,0,1-2.626-1.4.733.733,0,0,0-1.188-.089l-1.6,1.693c-.193.194-.147.5.13.826a6.631,6.631,0,0,0,1.288,1.18c2.053,1.42,5.239,1.882,7.435.5a4.376,4.376,0,0,0-.351-7.611l-4.355-2.513c-.755-.437-.664-1.558.435-1.531a4.771,4.771,0,0,1,2.261.957M56.3,41.854a1.747,1.747,0,0,0,.861.219h3.025a1.807,1.807,0,0,0,.721-.151c4.4.664,8.73,2.252,13.084,3.625,5.552,1.751,10.732,3.8,15.946,5.751v.344a8.409,8.409,0,0,0-1.273-.2c-4.787-1.8-9.573-3.664-14.673-5.273-4.593-1.449-9.16-3.135-13.807-3.726-1.333-.169-2.69-.294-4.062-.38a2.218,2.218,0,0,0,.179-.208M47.438,24.9a9.326,9.326,0,0,0-2.269,2.16,9.192,9.192,0,0,0-1.685-.135,8.5,8.5,0,0,0-.3-1.6,17.959,17.959,0,0,1,4.255-.425m6.515-1.469a9.408,9.408,0,0,0-4.131.326,4.2,4.2,0,0,0,.417-.959.628.628,0,0,0-.3-.728,6.937,6.937,0,0,0-2.478-.661,16.913,16.913,0,0,1-4.293,3.859,7.777,7.777,0,0,0-.68-1.585c1.631-1.717,3.607-5.506,3.292-7.837a.628.628,0,0,0-.558-.557c-2.388-.322-6.307,1.759-7.959,3.412a10.374,10.374,0,0,0-.924,1.071q-.383-.035-.775-.036a8.042,8.042,0,0,0-1.717.183,12.064,12.064,0,0,0,.3-2.508c0-2.338-1.3-6.581-3.216-8.042a.631.631,0,0,0-.789,0c-1.916,1.462-3.216,5.7-3.216,8.042a12.088,12.088,0,0,0,.3,2.506,8.032,8.032,0,0,0-2.5-.153,10.437,10.437,0,0,0-.918-1.062c-1.653-1.653-5.572-3.734-7.96-3.412a.626.626,0,0,0-.557.557c-.315,2.336,1.67,6.137,3.3,7.848a7.856,7.856,0,0,0-.683,1.579,16.921,16.921,0,0,1-4.3-3.865,6.936,6.936,0,0,0-2.478.662.627.627,0,0,0-.3.728,6.95,6.95,0,0,0,1.285,2.22,16.931,16.931,0,0,1,5.78.31,7.886,7.886,0,0,0-.3,1.6H17.41c-2.338,0-6.581,1.3-8.042,3.216a.63.63,0,0,0,0,.788c1.461,1.916,5.7,3.216,8.042,3.216h.152V35.8a16.665,16.665,0,0,1-5.448.242,6.952,6.952,0,0,0-1.285,2.22.628.628,0,0,0,.3.728,6.937,6.937,0,0,0,2.478.661,16.588,16.588,0,0,1,3.953-3.633v2.639c-1.323,1.923-2.523,4.7-2.273,6.556a.628.628,0,0,0,.558.558c2.388.322,6.307-1.759,7.96-3.413.216-.216.429-.453.637-.707H27.12a11.334,11.334,0,0,0-.2,2c0,2.338,1.3,6.581,3.216,8.042a.628.628,0,0,0,.788,0c1.916-1.461,3.216-5.7,3.216-8.042a11.325,11.325,0,0,0-.2-2h2.676c.208.253.421.49.638.707,1.653,1.653,5.572,3.734,7.96,3.413a.629.629,0,0,0,.558-.558c.249-1.853-.947-4.627-2.268-6.549V36.027q.25.169.492.342a9.461,9.461,0,0,0,8.138,5.7,18.366,18.366,0,0,1-2.993.24c1.137,2.163,2.557,5.863,2.232,8.2a.986.986,0,0,1-.871.871c-2.338.324-6.039-1.1-8.2-2.232a13.262,13.262,0,0,1-1.086,5.71.907.907,0,0,1-1.047.433,13.252,13.252,0,0,1-4.8-3.27c-.726,2.334-2.338,5.954-4.22,7.378a.992.992,0,0,1-1.233,0c-1.882-1.424-3.495-5.044-4.22-7.378a13.262,13.262,0,0,1-4.805,3.27.908.908,0,0,1-1.047-.433,13.272,13.272,0,0,1-1.085-5.71c-2.163,1.137-5.863,2.557-8.2,2.232a.988.988,0,0,1-.871-.871c-.324-2.338,1.1-6.038,2.233-8.2-1.221.01-5.605-.312-6.111-1.533S8.2,36.2,9.047,35.368c-1.891-.588-7.595-3.026-7.594-4.836,0-1.88,6.03-4.35,7.594-4.837l-.04-.04a13.38,13.38,0,0,1-3.23-4.765.91.91,0,0,1,.434-1.048,13.281,13.281,0,0,1,5.71-1.085c-1.137-2.163-2.557-5.862-2.232-8.2a.986.986,0,0,1,.871-.871c2.338-.324,6.037,1.1,8.2,2.232a13.272,13.272,0,0,1,1.086-5.71.909.909,0,0,1,1.047-.434,13.256,13.256,0,0,1,4.8,3.27c.726-2.334,2.338-5.953,4.221-7.378a.991.991,0,0,1,1.232,0c1.882,1.424,3.494,5.044,4.22,7.378a13.26,13.26,0,0,1,4.805-3.27.908.908,0,0,1,1.047.433,13.263,13.263,0,0,1,1.085,5.711c2.164-1.137,5.863-2.557,8.2-2.233a.987.987,0,0,1,.871.871c.324,2.338-1.1,6.038-2.233,8.2a13.263,13.263,0,0,1,5.711,1.085.908.908,0,0,1,.433,1.047,8.367,8.367,0,0,1-1.338,2.54m39.6,24.59c-6.51-1.747-12.939-3.72-19.563-5.476-2.061-.546-4.111-1.03-6.163-1.449a1.845,1.845,0,0,1-.5.6c2.22.441,4.436.959,6.665,1.55C79.851,44.8,85.557,46.519,91.3,48.105a1.914,1.914,0,0,1,.563-.085Zm21.884,4.325c-1.681-.171-3.353-.386-5.039-.645a146.642,146.642,0,0,1-14.473-3.055,1.926,1.926,0,0,1,.447.814c4.584,1.173,9.228,2.2,14.027,2.94,1.686.259,3.358.474,5.039.644ZM86.772,42.073a194.683,194.683,0,0,0,23.608,4.012c1.639.141,3.329.24,5.059.3v-1.1a1.837,1.837,0,0,1,1.823-1.823h3.025a1.835,1.835,0,0,1,1.823,1.823v1.155c4.336-.072,8.8-.343,13.227-.767l.253-.6A2.694,2.694,0,0,1,140.483,45l.045.108c2.8-.347,5.555-.75,8.214-1.2a1.809,1.809,0,0,1,1.176-.437h1.3l.12-.022v.022l4.128,0c.044,0,.089-.006.133-.006a9.2,9.2,0,0,1,5.9,16.268l4.057,5.574a1.877,1.877,0,0,1,.343,1.974,1.675,1.675,0,0,1-1.528.968H160.9a1.947,1.947,0,0,1-1.61-.859l-4.526-6.475-.006,5.511c-.137.535-.031.735-.473,1.223a1.916,1.916,0,0,1-1.346.6h-1.6v1.293c-13.372,2.119-28.019,2.15-40.961-.933q-1.835-.437-3.616-.983a8.439,8.439,0,0,1-10.324-3.074v1.809A1.947,1.947,0,0,1,94.506,68.3H91.891a1.941,1.941,0,0,1-1.221-.43A8.445,8.445,0,0,1,80.885,55.3c-2.332-1.3-4.646-2.576-6.96-3.759-4.559-2.33-8.912-4.449-13.745-5.575a43.869,43.869,0,0,0-8.236-.854c.026.076.053.153.078.23a13.179,13.179,0,0,1,.8,5.366,2.439,2.439,0,0,1-2.111,2.111c-2.084.289-5.143-.609-7.068-1.437a11.4,11.4,0,0,1-1.165,4.21,2.359,2.359,0,0,1-2.666,1.1,11.417,11.417,0,0,1-3.8-2.155c-.777,1.948-2.3,4.744-3.982,6.015a2.445,2.445,0,0,1-2.985,0c-1.679-1.27-3.206-4.068-3.982-6.014a11.443,11.443,0,0,1-3.8,2.154,2.361,2.361,0,0,1-2.667-1.1,11.431,11.431,0,0,1-1.165-4.21c-1.931.826-4.976,1.727-7.068,1.436a2.439,2.439,0,0,1-2.111-2.111c-.289-2.085.609-5.144,1.436-7.068-1.577-.178-4.518-.621-5.218-2.31s1.067-4.08,2.057-5.322C4.553,35.217,0,32.986,0,30.532s4.612-4.712,6.524-5.475a11.417,11.417,0,0,1-2.154-3.8,2.361,2.361,0,0,1,1.1-2.668,11.428,11.428,0,0,1,4.21-1.164c-.826-1.931-1.727-4.976-1.437-7.068a2.441,2.441,0,0,1,2.111-2.111c2.086-.289,5.143.61,7.069,1.437a11.426,11.426,0,0,1,1.164-4.21,2.36,2.36,0,0,1,2.667-1.1,11.434,11.434,0,0,1,3.8,2.154c.779-1.948,2.3-4.742,3.982-6.014a2.445,2.445,0,0,1,2.985,0c1.682,1.272,3.2,4.066,3.983,6.014a11.434,11.434,0,0,1,3.8-2.154,2.36,2.36,0,0,1,2.667,1.1,11.426,11.426,0,0,1,1.164,4.211c1.932-.827,4.976-1.728,7.069-1.437a2.439,2.439,0,0,1,2.111,2.111c.289,2.085-.609,5.144-1.436,7.068a11.431,11.431,0,0,1,4.21,1.165,2.361,2.361,0,0,1,1.1,2.667,8.951,8.951,0,0,1-1.221,2.521,9.426,9.426,0,0,1,1.267.5l2.122-.832a2.22,2.22,0,0,1,.778-.149A2.372,2.372,0,0,1,61.7,24.484a2.358,2.358,0,0,1,1.65-1.119,2.3,2.3,0,0,1,1.2.124l2.107.826a11.309,11.309,0,0,1,4.328-.985,1.89,1.89,0,0,1,2.1,1.841l0,.943a9.843,9.843,0,0,1,3.059-2.074,9.187,9.187,0,0,1,3.543-.7,9.715,9.715,0,0,1,4.177.942l2.123-.833v0l.005,0a2.264,2.264,0,0,1,1.682.034,2.39,2.39,0,0,1,.51.285,1.814,1.814,0,0,1,1.168-.435h3.514A1.8,1.8,0,0,1,94.5,24.438l0,0,0,0L96.947,30.1l2.443-5.646a1.814,1.814,0,0,1,1.681-1.121h3.47a1.893,1.893,0,0,1,.716.153,3.313,3.313,0,0,1-.043-2.651,3.34,3.34,0,0,1,6-.369l.011-.027a1.839,1.839,0,0,1,1.681-1.126h3.026a1.8,1.8,0,0,1,1.5.8,1.911,1.911,0,0,1,.218-.263l.006-.005a1.824,1.824,0,0,1,1.283-.535h3.025a1.842,1.842,0,0,1,1.823,1.824V23.5a8.139,8.139,0,0,1,1.694-.17,8.4,8.4,0,0,1,5.939,2.4,8.135,8.135,0,0,1,2.24,4.1,9.346,9.346,0,0,1,8.906-6.467,9.453,9.453,0,0,1,4.117.912l2.122-.832a2.214,2.214,0,0,1,1.059-.13,2.437,2.437,0,0,1,.963.328v0a2.4,2.4,0,0,1,1.139,1.982V28.4a6.475,6.475,0,0,1,2.547-4.123,7.633,7.633,0,0,1,6.209-.828,8.434,8.434,0,0,1,3.573,1.966c1.3,1.221.809,2.107.133,2.828L162.616,30.1a3.1,3.1,0,0,1-.431.376l.657.376a6.046,6.046,0,0,1,3.149,5.162A5.8,5.8,0,0,1,165.215,39a6.73,6.73,0,0,1-6.472,3.083,8.818,8.818,0,0,1-6.167-3.018l0,0,0,0a2.51,2.51,0,0,1-.607-1.339v2.65a1.868,1.868,0,0,1-1.843,1.706H147.1a1.847,1.847,0,0,1-1.32-.559,9.367,9.367,0,0,1-11.932-5.4v4.141a1.83,1.83,0,0,1-1.823,1.823H129a1.862,1.862,0,0,1-1.837-1.831V31.627a1.612,1.612,0,0,0-1.753-1.615,1.656,1.656,0,0,0-1.623,1.615v8.618a1.839,1.839,0,0,1-1.821,1.831H118.94a1.817,1.817,0,0,1-1.505-.8,1.707,1.707,0,0,1-1.5.8h-3.026a1.748,1.748,0,0,1-1.544-.862,1.813,1.813,0,0,1-1.546.862h-3.025a1.833,1.833,0,0,1-1.823-1.823V28.463L99.295,40.705a2.638,2.638,0,0,1-2.347,1.368,2.816,2.816,0,0,1-2.47-1.608L89.129,28.9l-.005,11.2a1.816,1.816,0,0,1-1.818,1.972Zm-9.779-2q1.28.243,2.559.5c.07,0,.141,0,.212,0a7.83,7.83,0,0,0,3.923-1.047.179.179,0,0,1,.079-.028h.022a.176.176,0,0,1,.177.176v.607a.272.272,0,0,0,.085.2.339.339,0,0,0,.232.086h3.025a.319.319,0,0,0,.224-.093.316.316,0,0,0,.093-.224l.007-14.617a.836.836,0,0,0-.836-.822.952.952,0,0,0-.14.01.518.518,0,0,0-.118.03L83.849,25.9a.177.177,0,0,1-.152-.012,8.033,8.033,0,0,0-4.009-1.045,7.63,7.63,0,0,0-5.482,2.276,7.883,7.883,0,0,0,2.787,12.946M68.04,38.623c1.674.212,3.386.464,5.149.762a9.368,9.368,0,0,1-2.408-9.346,2.55,2.55,0,0,0-2.108.9,2.639,2.639,0,0,0-.633,1.389Z" fill="#fff" fill-rule="evenodd"/>
    </g>
  </g>
</svg>
