<svg id="LOGO_OFICIAL_HORIZONTAL" data-name="LOGO OFICIAL HORIZONTAL" xmlns="http://www.w3.org/2000/svg" width="199.523" height="40.327" viewBox="0 0 199.523 40.327">
  <path id="Caminho_299" data-name="Caminho 299" d="M540.948,204.09h-5.224a.061.061,0,0,1-.066-.055l-2.437-12.644a.066.066,0,0,0-.131,0l-2.59,12.644a.069.069,0,0,1-.065.055h-5.191a.069.069,0,0,1-.065-.055l-4.3-17.748a.07.07,0,0,1,.066-.087h4.776a.061.061,0,0,1,.066.055L527.943,199a.066.066,0,0,0,.131,0l2.492-12.743a.069.069,0,0,1,.065-.055H535.6a.069.069,0,0,1,.066.055l2.612,12.765a.066.066,0,0,0,.131,0l2.262-12.754a.069.069,0,0,1,.066-.055H545.3a.07.07,0,0,1,.066.087L541,204.046A.05.05,0,0,1,540.948,204.09Z" transform="translate(-473.474 -174.911)" fill="#fff"/>
  <path id="Caminho_300" data-name="Caminho 300" d="M758.1,119.1a2.613,2.613,0,0,1,1.049.219,2.759,2.759,0,0,1,.863.59,2.9,2.9,0,0,1,.6.874,2.856,2.856,0,0,1,.219,1.115,2.773,2.773,0,0,1-.219,1.082,2.6,2.6,0,0,1-.6.874,2.955,2.955,0,0,1-.863.59,2.7,2.7,0,0,1-3.749-2.535,2.853,2.853,0,0,1,.219-1.115,2.713,2.713,0,0,1,.6-.874,2.759,2.759,0,0,1,.864-.59A2.377,2.377,0,0,1,758.1,119.1Zm2.251,25.223H755.9a.07.07,0,0,1-.065-.066V126.51a.07.07,0,0,1,.065-.066h4.448a.071.071,0,0,1,.066.066v17.748C760.427,144.291,760.394,144.323,760.351,144.323Z" transform="translate(-682.364 -115.144)" fill="#fff"/>
  <path id="Caminho_301" data-name="Caminho 301" d="M1006.718,182.3a8.137,8.137,0,0,1,3.421.689,6.98,6.98,0,0,1,2.536,1.956,8.97,8.97,0,0,1,1.585,3.049,13.551,13.551,0,0,1,.546,3.945v.874a.07.07,0,0,1-.066.066h-11.464a.061.061,0,0,0-.066.077,4.864,4.864,0,0,0,1.191,3.224,4.352,4.352,0,0,0,5.169.426,4.748,4.748,0,0,0,1.41-1.607.073.073,0,0,1,.087-.033l3.552,1.858a.071.071,0,0,1,.022.1,8.614,8.614,0,0,1-3.071,3.071,9.01,9.01,0,0,1-4.612,1.115,8.656,8.656,0,0,1-3.574-.71,7.529,7.529,0,0,1-2.645-1.956,8.616,8.616,0,0,1-1.661-2.983,11.9,11.9,0,0,1-.579-3.759,12.721,12.721,0,0,1,.546-3.792,8.656,8.656,0,0,1,1.585-2.984,7.066,7.066,0,0,1,2.568-1.934A8.532,8.532,0,0,1,1006.718,182.3Zm0,3.574a3.252,3.252,0,0,0-2.426.94,4.507,4.507,0,0,0-1.071,2.852.073.073,0,0,0,.065.077h6.754c.044,0,.066-.033.066-.077a4.576,4.576,0,0,0-.995-2.874A3.2,3.2,0,0,0,1006.718,185.874Z" transform="translate(-898.897 -171.437)" fill="#fff"/>
  <path id="Caminho_302" data-name="Caminho 302" d="M1164.2,182.3a10.364,10.364,0,0,1,4.109.754,9.429,9.429,0,0,1,2.9,1.891.069.069,0,0,1,0,.1l-2.262,2.667a.069.069,0,0,1-.1.011,8.145,8.145,0,0,0-2.1-1.333,6.031,6.031,0,0,0-2.393-.47,3.519,3.519,0,0,0-2.022.459,1.407,1.407,0,0,0-.645,1.191,1.618,1.618,0,0,0,.153.71,1.276,1.276,0,0,0,.6.535,5.9,5.9,0,0,0,1.2.437c.514.131,1.191.284,2.022.437a9.181,9.181,0,0,1,4.48,1.891,4.821,4.821,0,0,1,1.476,3.8,5.266,5.266,0,0,1-.5,2.328,5.079,5.079,0,0,1-1.475,1.8,7.259,7.259,0,0,1-2.383,1.18,11.2,11.2,0,0,1-3.234.426,11.708,11.708,0,0,1-4.678-.831,10.288,10.288,0,0,1-3.278-2.2.081.081,0,0,1,0-.1l2.262-2.787a.061.061,0,0,1,.1,0,7.708,7.708,0,0,0,2.459,1.661,7.118,7.118,0,0,0,2.732.535,4.744,4.744,0,0,0,2.426-.47,1.466,1.466,0,0,0,.765-1.311,2.073,2.073,0,0,0-.12-.721,1.262,1.262,0,0,0-.546-.59,5.109,5.109,0,0,0-1.213-.492q-.787-.213-2.131-.492a9.026,9.026,0,0,1-4.4-1.869,4.652,4.652,0,0,1-1.432-3.617,4.957,4.957,0,0,1,.546-2.339,5.033,5.033,0,0,1,1.519-1.738,7.25,7.25,0,0,1,2.284-1.082A10.285,10.285,0,0,1,1164.2,182.3Z" transform="translate(-1039.229 -171.437)" fill="#fff"/>
  <path id="Caminho_303" data-name="Caminho 303" d="M1422.288,182.3a8.764,8.764,0,0,1,3.618.721,7.99,7.99,0,0,1,2.743,1.989,8.787,8.787,0,0,1,1.738,2.984,11.072,11.072,0,0,1,.612,3.7,11.558,11.558,0,0,1-.6,3.825,8.4,8.4,0,0,1-1.727,2.983,7.649,7.649,0,0,1-2.743,1.923,9.449,9.449,0,0,1-3.65.678,9.024,9.024,0,0,1-3.65-.71,7.766,7.766,0,0,1-2.732-1.956,8.528,8.528,0,0,1-1.7-2.962,11.562,11.562,0,0,1-.59-3.77,11.744,11.744,0,0,1,.59-3.792,8.4,8.4,0,0,1,1.727-2.984,7.769,7.769,0,0,1,2.732-1.934A8.969,8.969,0,0,1,1422.288,182.3Zm0,3.9a3.418,3.418,0,0,0-2.841,1.344,6.565,6.565,0,0,0-1.049,4.076,7.038,7.038,0,0,0,1.016,4.142,3.635,3.635,0,0,0,5.748,0,7.061,7.061,0,0,0,1.017-4.142,6.585,6.585,0,0,0-1.049-4.076A3.418,3.418,0,0,0,1422.288,186.2Z" transform="translate(-1268.632 -171.437)" fill="#fff"/>
  <path id="Caminho_304" data-name="Caminho 304" d="M1596.27,182.3a7.808,7.808,0,0,1,7.6,4.787.088.088,0,0,1-.033.1l-3.858,1.628a.065.065,0,0,1-.088-.044,4.093,4.093,0,0,0-1.278-1.891,3.3,3.3,0,0,0-2.088-.678,3.453,3.453,0,0,0-2.852,1.344,6.49,6.49,0,0,0-1.071,4.076,6.872,6.872,0,0,0,1.049,4.142,3.393,3.393,0,0,0,2.874,1.41,3.5,3.5,0,0,0,1.366-.24,3.02,3.02,0,0,0,1.006-.656,4.026,4.026,0,0,0,.721-.973,9.816,9.816,0,0,0,.491-1.093.061.061,0,0,1,.087-.033l3.825,1.628a.06.06,0,0,1,.032.087,9.267,9.267,0,0,1-2.907,3.727,7.853,7.853,0,0,1-4.874,1.464,8.711,8.711,0,0,1-3.563-.71,7.51,7.51,0,0,1-2.667-1.956,8.61,8.61,0,0,1-1.661-2.962,11.865,11.865,0,0,1-.579-3.77,11.744,11.744,0,0,1,.59-3.792,8.674,8.674,0,0,1,1.694-2.984,7.522,7.522,0,0,1,2.667-1.934A8.862,8.862,0,0,1,1596.27,182.3Z" transform="translate(-1423.794 -171.437)" fill="#fff"/>
  <path id="Caminho_305" data-name="Caminho 305" d="M1773.215,146.439l-6.524-10.929a.068.068,0,0,1,.011-.076l6.251-6.656a.064.064,0,0,0-.055-.109h-5.147c-.022,0-.033.011-.055.022l-6.2,6.787a.071.071,0,0,1-.121-.044l-.032-10.36a.062.062,0,0,1,0-.109h0a3.466,3.466,0,0,0-3.465-3.464h-1.016a.07.07,0,0,0-.065.066v3.4h0v21.508a.07.07,0,0,0,.065.066h4.448a.07.07,0,0,0,.065-.066v-5.355a.057.057,0,0,1,.022-.044l2.087-2.208a.073.073,0,0,1,.11.011l4.36,7.628a.06.06,0,0,0,.055.033h5.136C1773.2,146.548,1773.236,146.483,1773.215,146.439Z" transform="translate(-1574.325 -117.282)" fill="#fff"/>
  <path id="Caminho_306" data-name="Caminho 306" d="M840.957,130.587a.094.094,0,0,0-.088-.087h-2.339a2.075,2.075,0,0,0-2.076,2.076v.077a.038.038,0,0,0,.011.022.04.04,0,0,0-.011.033c-.011.448-.066,4.415-.077,5.279a.062.062,0,0,1-.109.044,5.9,5.9,0,0,0-1.814-1.344,6.1,6.1,0,0,0-2.623-.525,6.507,6.507,0,0,0-2.951.678,7.043,7.043,0,0,0-2.35,1.923,9.21,9.21,0,0,0-1.563,2.962,12.4,12.4,0,0,0-.568,3.836,13.479,13.479,0,0,0,.514,3.792,9.489,9.489,0,0,0,1.453,2.983,6.573,6.573,0,0,0,2.284,1.934,6.5,6.5,0,0,0,3.005.688,6.386,6.386,0,0,0,2.634-.568,5.286,5.286,0,0,0,2.077-1.694.064.064,0,0,1,.12.033v1.683a.071.071,0,0,0,.066.066h4.317a.07.07,0,0,0,.066-.066V130.587Zm-5.322,19.092a3.164,3.164,0,0,1-2.677,1.333,3.2,3.2,0,0,1-2.787-1.377,9.052,9.052,0,0,1,.011-8.186,3.356,3.356,0,0,1,5.421-.066,6.716,6.716,0,0,1,1.049,4.142A7.17,7.17,0,0,1,835.635,149.68Z" transform="translate(-743.823 -125.298)" fill="#fff"/>
  <path id="Caminho_307" data-name="Caminho 307" d="M1333.519,160.25a8.756,8.756,0,0,1-1.06.24,7.347,7.347,0,0,1-1.235.1,1.835,1.835,0,0,1-1.541-.536,2.72,2.72,0,0,1-.4-1.65v-8.317a.07.07,0,0,1,.065-.066h3.88a.07.07,0,0,0,.065-.066v-3.366a.071.071,0,0,0-.065-.066h-3.88a.07.07,0,0,1-.065-.066v-5.071a.086.086,0,0,0-.088-.087h-2.382a2.111,2.111,0,0,0-2.109,2.109v15.759a8.9,8.9,0,0,0,.262,2.251,3.879,3.879,0,0,0,2.547,2.8,7.209,7.209,0,0,0,2.491.372,11.029,11.029,0,0,0,1.945-.164,10.539,10.539,0,0,0,1.618-.426.06.06,0,0,0,.044-.066v-3.6C1333.607,160.272,1333.563,160.239,1333.519,160.25Z" transform="translate(-1189.447 -134.918)" fill="#fff"/>
  <path id="Caminho_308" data-name="Caminho 308" d="M96,82.9a8.9,8.9,0,0,0-8.9,8.9v18.688a8.9,8.9,0,0,0,8.9,8.9h20.185a8.9,8.9,0,0,0,8.9-8.9V82.9Zm23.223,11.716a54.989,54.989,0,0,0-6.7,14.579c-.066.208-.131.415-.186.623a2.033,2.033,0,0,1-.109.273,2.786,2.786,0,0,1-.459.667,3.139,3.139,0,0,1-5.344-1.158c-.033-.2-.077-.4-.12-.634-.131-.667-.306-1.475-.5-2.339a43.325,43.325,0,0,0-1.749-6.022c0-.011-.011-.022-.011-.033a4.424,4.424,0,0,0-.634-1.191c-1.038-1.06-3.279,4.743-3.279,4.743a39.856,39.856,0,0,0-1.639,5.486v.022a.456.456,0,0,1-.044.109c0,.011-.011.022-.011.033a1.714,1.714,0,0,1-.765.831,1.68,1.68,0,0,1-1.617-.022,2.2,2.2,0,0,1-.689-.732v-.011c-.426-.863-2.186-6.546-3.169-9.814-1.158-2.656-2.787-3.1-2.787-3.1s.426-.612,1.77-.546a4.167,4.167,0,0,1,3.617,2.688h0l2.131,7.147c.055.175.262-.59.328-.809a33.833,33.833,0,0,1,3.716-8.918,3.552,3.552,0,0,1,4.426-1.519c2.24,1.333,3.432,5.945,3.8,8.043a.173.173,0,0,0,.339.011c.612-2.546,2.568-9.5,6.393-12.655a6.358,6.358,0,0,1,4.011-1.148,14.16,14.16,0,0,1,3.344.426A25.813,25.813,0,0,0,119.219,94.616Z" transform="translate(-87.1 -82.9)" fill="#fff"/>
  <g id="Grupo_113" data-name="Grupo 113" transform="translate(49.561 31.704)">
    <path id="Caminho_309" data-name="Caminho 309" d="M540.6,397.974l.6-.4a1.27,1.27,0,0,0,.426.492,1.14,1.14,0,0,0,.612.164.831.831,0,0,0,.557-.175.544.544,0,0,0,.219-.448.486.486,0,0,0-.142-.361,1.246,1.246,0,0,0-.5-.262c-.022-.011-.066-.022-.12-.044-1.005-.35-1.5-.776-1.5-1.29a1.12,1.12,0,0,1,.4-.9,1.579,1.579,0,0,1,1.049-.35,1.841,1.841,0,0,1,.918.219,1.218,1.218,0,0,1,.546.6l-.568.35a.975.975,0,0,0-.372-.437,1.076,1.076,0,0,0-.568-.153.706.706,0,0,0-.5.175.566.566,0,0,0-.2.437c0,.251.273.459.82.634.1.033.186.055.24.077a2.188,2.188,0,0,1,.929.492,1.019,1.019,0,0,1,.262.732,1.226,1.226,0,0,1-.415.951,1.578,1.578,0,0,1-1.082.361,2.03,2.03,0,0,1-.973-.219A1.528,1.528,0,0,1,540.6,397.974Z" transform="translate(-540.6 -392.061)" fill="#fff"/>
    <path id="Caminho_310" data-name="Caminho 310" d="M585.732,395.711v2.022a2.132,2.132,0,0,0,.262,1.235,1.016,1.016,0,0,0,.885.35,1.047,1.047,0,0,0,.885-.35,2.152,2.152,0,0,0,.262-1.246V395.7h.721v2.4a1.687,1.687,0,0,1-1.88,1.891,1.877,1.877,0,0,1-1.388-.481A1.914,1.914,0,0,1,585,398.1v-2.4h.732Z" transform="translate(-580.148 -393.219)" fill="#fff"/>
    <path id="Caminho_311" data-name="Caminho 311" d="M638.6,400.851v-6.109h.667v.776a1.73,1.73,0,0,1,.634-.678,1.6,1.6,0,0,1,.874-.24,1.863,1.863,0,0,1,1.432.6,2.321,2.321,0,0,1,.536,1.606,2.361,2.361,0,0,1-.525,1.617,1.765,1.765,0,0,1-1.41.6,1.668,1.668,0,0,1-.885-.23,1.644,1.644,0,0,1-.612-.688v2.754h-.71Zm.677-4.044a1.623,1.623,0,0,0,.383,1.115,1.309,1.309,0,0,0,1.005.415,1.275,1.275,0,0,0,.973-.382,1.479,1.479,0,0,0,.35-1.06,1.864,1.864,0,0,0-.35-1.191,1.191,1.191,0,0,0-.983-.426,1.27,1.27,0,0,0-1.005.4A1.572,1.572,0,0,0,639.277,396.808Z" transform="translate(-627.89 -392.239)" fill="#fff"/>
    <path id="Caminho_312" data-name="Caminho 312" d="M693.6,398.851v-4.109h.623v.852a2.168,2.168,0,0,1,.6-.765,1.28,1.28,0,0,1,.776-.229,1.629,1.629,0,0,1,.24.022.907.907,0,0,1,.229.066l-.229.634-.229-.066a1.506,1.506,0,0,0-.208-.022.93.93,0,0,0-.831.4,2.144,2.144,0,0,0-.273,1.213v2Z" transform="translate(-676.879 -392.239)" fill="#fff"/>
    <path id="Caminho_313" data-name="Caminho 313" d="M728.7,373.514a.5.5,0,0,1,.153-.361.5.5,0,0,1,.372-.153.5.5,0,0,1,.361.153.521.521,0,0,1,.153.372.523.523,0,0,1-.514.514.541.541,0,0,1-.372-.153A.5.5,0,0,1,728.7,373.514Zm.164,6.1V375.5h.71v4.109Z" transform="translate(-708.143 -373)" fill="#fff"/>
    <path id="Caminho_314" data-name="Caminho 314" d="M762.827,398.495v-2.426a1.472,1.472,0,0,0-.251-.929.931.931,0,0,0-.776-.306,1.221,1.221,0,0,0-.525.109,1.075,1.075,0,0,0-.4.328,1.025,1.025,0,0,0-.175.383,3.465,3.465,0,0,0-.055.71v2.12h-.677v-2.426a1.472,1.472,0,0,0-.251-.929.93.93,0,0,0-.776-.306,1.221,1.221,0,0,0-.525.109,1.2,1.2,0,0,0-.415.328,1.08,1.08,0,0,0-.164.361,3.458,3.458,0,0,0-.055.721v2.12H757.1v-4.109h.688v.634a1.745,1.745,0,0,1,.612-.59,1.683,1.683,0,0,1,.82-.2,1.647,1.647,0,0,1,.852.219,1.366,1.366,0,0,1,.536.623,1.821,1.821,0,0,1,.623-.634,1.629,1.629,0,0,1,.841-.208,1.456,1.456,0,0,1,1.071.383,1.43,1.43,0,0,1,.383,1.071v2.8h-.7Z" transform="translate(-733.44 -391.883)" fill="#fff"/>
    <path id="Caminho_315" data-name="Caminho 315" d="M836.122,396.806h-3.257v.066a1.529,1.529,0,0,0,.383,1.071,1.27,1.27,0,0,0,.984.4,1.347,1.347,0,0,0,.743-.219,2.1,2.1,0,0,0,.59-.667l.536.361a2.05,2.05,0,0,1-1.9,1.126,1.977,1.977,0,0,1-1.519-.623,2.3,2.3,0,0,1-.579-1.628,2.245,2.245,0,0,1,.579-1.585,1.907,1.907,0,0,1,1.475-.612,1.86,1.86,0,0,1,1.443.579,2.307,2.307,0,0,1,.536,1.6v.131Zm-.754-.568a1.181,1.181,0,0,0-.361-.841,1.285,1.285,0,0,0-.9-.3,1.2,1.2,0,0,0-1.246,1.126h2.5Z" transform="translate(-800.243 -392.15)" fill="#fff"/>
    <path id="Caminho_316" data-name="Caminho 316" d="M885.4,398.762v-4.109h.688v.634a1.8,1.8,0,0,1,.634-.59,1.828,1.828,0,0,1,.863-.2,1.624,1.624,0,0,1,1.136.383,1.4,1.4,0,0,1,.4,1.071v2.8h-.71v-2.426a1.408,1.408,0,0,0-.262-.929,1,1,0,0,0-.809-.306,1.353,1.353,0,0,0-.568.109,1.067,1.067,0,0,0-.426.328.915.915,0,0,0-.186.372,3.522,3.522,0,0,0-.055.721v2.12h-.71Z" transform="translate(-847.718 -392.15)" fill="#fff"/>
    <path id="Caminho_317" data-name="Caminho 317" d="M934.054,382.94H933.3v-.579h.754V380.7h.721v1.661h.754v.579h-.754v3.53h-.721Z" transform="translate(-890.383 -379.858)" fill="#fff"/>
    <path id="Caminho_318" data-name="Caminho 318" d="M964.7,396.719a2.2,2.2,0,0,1,.164-.852,2.211,2.211,0,0,1,1.2-1.2,2.272,2.272,0,0,1,2.448.481,2.206,2.206,0,0,1,.481.71,2.277,2.277,0,0,1,.164.852,2.182,2.182,0,0,1-.164.842,2.208,2.208,0,0,1-.481.71,2.163,2.163,0,0,1-.732.492,2.228,2.228,0,0,1-1.7.011,2.139,2.139,0,0,1-.721-.481,2.382,2.382,0,0,1-.481-.721A2.187,2.187,0,0,1,964.7,396.719Zm.754,0a1.516,1.516,0,0,0,.437,1.1,1.4,1.4,0,0,0,1.06.448,1.421,1.421,0,0,0,1.049-.448,1.642,1.642,0,0,0,0-2.208,1.365,1.365,0,0,0-1.049-.448,1.445,1.445,0,0,0-1.06.448A1.5,1.5,0,0,0,965.454,396.719Z" transform="translate(-918.352 -392.15)" fill="#fff"/>
    <path id="Caminho_319" data-name="Caminho 319" d="M1018.5,397.974l.6-.4a1.269,1.269,0,0,0,.426.492,1.14,1.14,0,0,0,.612.164.831.831,0,0,0,.557-.175.544.544,0,0,0,.219-.448.486.486,0,0,0-.142-.361,1.248,1.248,0,0,0-.5-.262c-.022-.011-.066-.022-.12-.044-1.005-.35-1.5-.776-1.5-1.29a1.12,1.12,0,0,1,.4-.9,1.578,1.578,0,0,1,1.049-.35,1.84,1.84,0,0,1,.918.219,1.218,1.218,0,0,1,.546.6l-.568.35a.977.977,0,0,0-.371-.437,1.077,1.077,0,0,0-.568-.153.706.706,0,0,0-.5.175.566.566,0,0,0-.2.437c0,.251.273.459.82.634.1.033.186.055.24.077a2.189,2.189,0,0,1,.929.492,1.02,1.02,0,0,1,.262.732,1.225,1.225,0,0,1-.415.951,1.578,1.578,0,0,1-1.082.361,2.031,2.031,0,0,1-.973-.219A1.47,1.47,0,0,1,1018.5,397.974Z" transform="translate(-966.272 -392.061)" fill="#fff"/>
    <path id="Caminho_320" data-name="Caminho 320" d="M1095.2,400.851v-6.109h.667v.776a1.73,1.73,0,0,1,.634-.678,1.6,1.6,0,0,1,.874-.24,1.863,1.863,0,0,1,1.432.6,2.321,2.321,0,0,1,.535,1.606,2.361,2.361,0,0,1-.524,1.617,1.765,1.765,0,0,1-1.41.6,1.667,1.667,0,0,1-.885-.23,1.645,1.645,0,0,1-.612-.688v2.754h-.71Zm.677-4.044a1.624,1.624,0,0,0,.383,1.115,1.427,1.427,0,0,0,1.978.033,1.531,1.531,0,0,0,.35-1.06,1.864,1.864,0,0,0-.35-1.191,1.206,1.206,0,0,0-.984-.426,1.309,1.309,0,0,0-1.016.4A1.586,1.586,0,0,0,1095.877,396.808Z" transform="translate(-1034.59 -392.239)" fill="#fff"/>
    <path id="Caminho_321" data-name="Caminho 321" d="M1151.353,394.642v4.109h-.678v-.743a1.839,1.839,0,0,1-.634.689,1.652,1.652,0,0,1-.863.24,1.85,1.85,0,0,1-1.432-.612,2.325,2.325,0,0,1-.547-1.607,2.38,2.38,0,0,1,.525-1.617,1.766,1.766,0,0,1,1.41-.6,1.68,1.68,0,0,1,.9.229,1.644,1.644,0,0,1,.612.689v-.776Zm-.678,2.1a1.652,1.652,0,0,0-.382-1.126,1.259,1.259,0,0,0-.995-.426,1.237,1.237,0,0,0-.983.393,1.547,1.547,0,0,0-.35,1.093,1.661,1.661,0,0,0,.361,1.148,1.452,1.452,0,0,0,2,.011A1.579,1.579,0,0,0,1150.675,396.74Z" transform="translate(-1080.907 -392.15)" fill="#fff"/>
    <path id="Caminho_322" data-name="Caminho 322" d="M1205,398.851v-4.109h.623v.852a2.163,2.163,0,0,1,.6-.765,1.28,1.28,0,0,1,.776-.229,1.629,1.629,0,0,1,.24.022.907.907,0,0,1,.229.066l-.229.634-.229-.066a1.5,1.5,0,0,0-.208-.022.918.918,0,0,0-.831.4,2.144,2.144,0,0,0-.273,1.213v2Z" transform="translate(-1132.39 -392.239)" fill="#fff"/>
    <path id="Caminho_323" data-name="Caminho 323" d="M1242.453,394.642v4.109h-.677v-.743a1.841,1.841,0,0,1-.634.689,1.655,1.655,0,0,1-.864.24,1.85,1.85,0,0,1-1.431-.612,2.325,2.325,0,0,1-.547-1.607,2.38,2.38,0,0,1,.525-1.617,1.766,1.766,0,0,1,1.41-.6,1.682,1.682,0,0,1,.9.229,1.646,1.646,0,0,1,.612.689v-.776Zm-.677,2.1a1.652,1.652,0,0,0-.383-1.126,1.258,1.258,0,0,0-.994-.426,1.238,1.238,0,0,0-.984.393,1.548,1.548,0,0,0-.35,1.093,1.661,1.661,0,0,0,.361,1.148,1.453,1.453,0,0,0,2,.011A1.581,1.581,0,0,0,1241.775,396.74Z" transform="translate(-1162.051 -392.15)" fill="#fff"/>
    <path id="Caminho_324" data-name="Caminho 324" d="M1324.6,396.719a2.2,2.2,0,0,1,.164-.852,2.211,2.211,0,0,1,1.2-1.2,2.271,2.271,0,0,1,2.448.481,2.212,2.212,0,0,1,.481.71,2.277,2.277,0,0,1,.164.852,2.182,2.182,0,0,1-.164.842,2.214,2.214,0,0,1-.481.71,2.164,2.164,0,0,1-.732.492,2.229,2.229,0,0,1-1.705.011,2.138,2.138,0,0,1-.721-.481,2.384,2.384,0,0,1-.481-.721A2.185,2.185,0,0,1,1324.6,396.719Zm.743,0a1.516,1.516,0,0,0,.437,1.1,1.405,1.405,0,0,0,1.06.448,1.421,1.421,0,0,0,1.049-.448,1.643,1.643,0,0,0,0-2.208,1.365,1.365,0,0,0-1.049-.448,1.446,1.446,0,0,0-1.06.448A1.5,1.5,0,0,0,1325.343,396.719Z" transform="translate(-1238.92 -392.15)" fill="#fff"/>
    <path id="Caminho_325" data-name="Caminho 325" d="M1410,397.974l.6-.4a1.27,1.27,0,0,0,.426.492,1.14,1.14,0,0,0,.612.164.832.832,0,0,0,.558-.175.545.545,0,0,0,.219-.448.487.487,0,0,0-.142-.361,1.246,1.246,0,0,0-.5-.262c-.022-.011-.065-.022-.12-.044-1.005-.35-1.5-.776-1.5-1.29a1.12,1.12,0,0,1,.4-.9,1.578,1.578,0,0,1,1.049-.35,1.84,1.84,0,0,1,.918.219,1.216,1.216,0,0,1,.546.6l-.568.35a.975.975,0,0,0-.372-.437,1.075,1.075,0,0,0-.568-.153.705.705,0,0,0-.5.175.566.566,0,0,0-.2.437c0,.251.273.459.82.634.1.033.186.055.24.077a2.191,2.191,0,0,1,.929.492,1.018,1.018,0,0,1,.263.732,1.226,1.226,0,0,1-.416.951,1.578,1.578,0,0,1-1.082.361,2.03,2.03,0,0,1-.973-.219A1.528,1.528,0,0,1,1410,397.974Z" transform="translate(-1314.987 -392.061)" fill="#fff"/>
    <path id="Caminho_326" data-name="Caminho 326" d="M1455.922,396.806h-3.257v.066a1.529,1.529,0,0,0,.383,1.071,1.27,1.27,0,0,0,.983.4,1.345,1.345,0,0,0,.743-.219,2.093,2.093,0,0,0,.59-.667l.536.361a2.05,2.05,0,0,1-1.9,1.126,1.978,1.978,0,0,1-1.519-.623,2.3,2.3,0,0,1-.579-1.628,2.246,2.246,0,0,1,.579-1.585,1.908,1.908,0,0,1,1.476-.612,1.86,1.86,0,0,1,1.442.579,2.3,2.3,0,0,1,.536,1.6v.131Zm-.754-.568a1.181,1.181,0,0,0-.361-.841,1.285,1.285,0,0,0-.9-.3,1.2,1.2,0,0,0-1.246,1.126h2.5Z" transform="translate(-1352.307 -392.15)" fill="#fff"/>
    <path id="Caminho_327" data-name="Caminho 327" d="M1505.332,395.711v2.022a2.133,2.133,0,0,0,.262,1.235,1.016,1.016,0,0,0,.885.35,1.047,1.047,0,0,0,.885-.35,2.151,2.151,0,0,0,.262-1.246V395.7h.722v2.4a1.687,1.687,0,0,1-1.88,1.891,1.877,1.877,0,0,1-1.388-.481,1.914,1.914,0,0,1-.481-1.41v-2.4h.732Z" transform="translate(-1399.248 -393.219)" fill="#fff"/>
    <path id="Caminho_328" data-name="Caminho 328" d="M1589.7,398.762v-4.109h.688v.634a1.685,1.685,0,0,1,1.5-.787,1.623,1.623,0,0,1,1.136.383,1.4,1.4,0,0,1,.4,1.071v2.8h-.721v-2.426a1.408,1.408,0,0,0-.262-.929,1,1,0,0,0-.809-.306,1.352,1.352,0,0,0-.568.109,1.064,1.064,0,0,0-.426.328.914.914,0,0,0-.186.372,3.534,3.534,0,0,0-.055.721v2.12h-.7Z" transform="translate(-1475.048 -392.15)" fill="#fff"/>
    <path id="Caminho_329" data-name="Caminho 329" d="M1644.222,396.806h-3.257v.066a1.529,1.529,0,0,0,.383,1.071,1.27,1.27,0,0,0,.983.4,1.346,1.346,0,0,0,.743-.219,2.092,2.092,0,0,0,.59-.667l.536.361a2.05,2.05,0,0,1-1.9,1.126,1.977,1.977,0,0,1-1.519-.623,2.3,2.3,0,0,1-.579-1.628,2.245,2.245,0,0,1,.579-1.585,1.907,1.907,0,0,1,1.476-.612,1.86,1.86,0,0,1,1.442.579,2.306,2.306,0,0,1,.536,1.6v.131Zm-.754-.568a1.181,1.181,0,0,0-.361-.841,1.285,1.285,0,0,0-.9-.3,1.2,1.2,0,0,0-1.246,1.126h2.5Z" transform="translate(-1520.029 -392.15)" fill="#fff"/>
    <path id="Caminho_330" data-name="Caminho 330" d="M1694.931,394.553V398.6a3.731,3.731,0,0,1-.087.951,1.3,1.3,0,0,1-.3.5,1.774,1.774,0,0,1-.7.459,2.8,2.8,0,0,1-.951.153,2.237,2.237,0,0,1-1.454-.426,1.521,1.521,0,0,1-.546-1.213h.787v.055a.86.86,0,0,0,.317.71,1.444,1.444,0,0,0,.907.251,1.6,1.6,0,0,0,.721-.142,1.107,1.107,0,0,0,.459-.4.9.9,0,0,0,.131-.35,3.554,3.554,0,0,0,.044-.579v-.7a1.871,1.871,0,0,1-.623.678,1.683,1.683,0,0,1-.864.24,1.825,1.825,0,0,1-1.431-.6,2.645,2.645,0,0,1-.022-3.191,1.792,1.792,0,0,1,1.41-.59,1.709,1.709,0,0,1,.9.229,1.609,1.609,0,0,1,.612.678v-.765h.688Zm-.688,2.076a1.623,1.623,0,0,0-.383-1.115,1.259,1.259,0,0,0-.995-.426,1.237,1.237,0,0,0-.983.393,1.547,1.547,0,0,0-.35,1.093,1.662,1.662,0,0,0,.36,1.148,1.453,1.453,0,0,0,2,.011A1.65,1.65,0,0,0,1694.242,396.629Z" transform="translate(-1565.099 -392.061)" fill="#fff"/>
    <path id="Caminho_331" data-name="Caminho 331" d="M1745.4,379.884a2.2,2.2,0,0,1,.164-.852,2.212,2.212,0,0,1,1.2-1.2,2.272,2.272,0,0,1,2.448.481,2.218,2.218,0,0,1,.481.71,2.273,2.273,0,0,1,.164.852,2.177,2.177,0,0,1-.164.841,2.217,2.217,0,0,1-.481.71,2.158,2.158,0,0,1-.732.492,2.227,2.227,0,0,1-1.7.011,2.135,2.135,0,0,1-.721-.481,2.386,2.386,0,0,1-.481-.721A2.19,2.19,0,0,1,1745.4,379.884Zm.743,0a1.516,1.516,0,0,0,.437,1.1,1.405,1.405,0,0,0,1.06.448,1.422,1.422,0,0,0,1.05-.448,1.644,1.644,0,0,0,0-2.208,1.366,1.366,0,0,0-1.05-.448,1.444,1.444,0,0,0-1.06.448A1.5,1.5,0,0,0,1746.143,379.884Zm.852-2.721.918-1.563h.907l-1.278,1.563Z" transform="translate(-1613.732 -375.316)" fill="#fff"/>
    <path id="Caminho_332" data-name="Caminho 332" d="M1803.586,397.868v.82a2.244,2.244,0,0,1-.623.251,3.243,3.243,0,0,1-.754.087,2.009,2.009,0,0,1-1.53-.6,2.467,2.467,0,0,1,.022-3.2,2.059,2.059,0,0,1,1.541-.623,3.1,3.1,0,0,1,1.279.284v.754a1.855,1.855,0,0,0-.557-.262,1.774,1.774,0,0,0-.579-.087,1.474,1.474,0,0,0-1.115.437,1.608,1.608,0,0,0-.415,1.148,1.469,1.469,0,0,0,.415,1.06,1.426,1.426,0,0,0,1.049.426,1.783,1.783,0,0,0,.623-.109A4.132,4.132,0,0,0,1803.586,397.868Z" transform="translate(-1662.454 -392.239)" fill="#fff"/>
    <path id="Caminho_333" data-name="Caminho 333" d="M1846.6,373.514a.5.5,0,0,1,.153-.361.5.5,0,0,1,.372-.153.5.5,0,0,1,.361.153.52.52,0,0,1,.153.372.523.523,0,0,1-.514.514.54.54,0,0,1-.372-.153A.5.5,0,0,1,1846.6,373.514Zm.164,6.1V375.5h.71v4.109Z" transform="translate(-1703.872 -373)" fill="#fff"/>
    <path id="Caminho_334" data-name="Caminho 334" d="M1872,396.719a2.188,2.188,0,0,1,.164-.852,2.212,2.212,0,0,1,1.2-1.2,2.273,2.273,0,0,1,2.448.481,2.21,2.21,0,0,1,.48.71,2.272,2.272,0,0,1,.164.852,2.178,2.178,0,0,1-.164.842,2.212,2.212,0,0,1-.48.71,2.167,2.167,0,0,1-.733.492,2.229,2.229,0,0,1-1.7.011,2.147,2.147,0,0,1-.721-.481,2.383,2.383,0,0,1-.48-.721A2.185,2.185,0,0,1,1872,396.719Zm.743,0a1.516,1.516,0,0,0,.437,1.1,1.405,1.405,0,0,0,1.06.448,1.422,1.422,0,0,0,1.049-.448,1.642,1.642,0,0,0,0-2.208,1.365,1.365,0,0,0-1.049-.448,1.446,1.446,0,0,0-1.06.448A1.5,1.5,0,0,0,1872.743,396.719Z" transform="translate(-1726.496 -392.15)" fill="#fff"/>
  </g>
</svg>
