<svg xmlns="http://www.w3.org/2000/svg" width="82.847" height="58.032" viewBox="0 0 82.847 58.032">
  <g id="Grupo_1742" data-name="Grupo 1742" transform="translate(-85.096 -126.81)">
    <path id="LOGO" d="M108.636,151.75c-.079.258-.208.7-.4,1.22l-.486,1.087a8.009,8.009,0,0,1-.6,1.063l-.2.449-.4.614-.282.352a2.429,2.429,0,0,1-.533.664,2.53,2.53,0,0,1-.72.578.56.56,0,0,0-.262.207c0-.035-.294.246-.423.367-.164.125-.388.363-.587.492l.032-.039-1.037.613a2.379,2.379,0,0,1-.4.258c-.235.133-.81.41-.739.4a5.893,5.893,0,0,1-.9.276l-.38.113a.927.927,0,0,1-.27.137,3.082,3.082,0,0,1-.787.3c-.419.082-.982.143-1.439.194,0,0-.786-.02-1.353.006-.649-.071-.825-.052-1.005-.068a6.22,6.22,0,0,1-.977-.142l.035,0a.526.526,0,0,0-.215-.012,6.751,6.751,0,0,1-.755-.06l-.633-.251-.035,0c-.074-.027-.481-.161-.375-.173l-.672-.282.039.031-.485-.2-1.168-.584a11.3,11.3,0,0,0-1.212-.651,5.161,5.161,0,0,1-.832-.764l-.32-.321.039.032-.9-1.077-.379-.528.078.062-.551-.794c-.187-.407-.374-.814-.526-1.225,0,0-.112-.7-.186-1.048-.012-.106-.07-.313-.082-.418a1.731,1.731,0,0,0-.082-.419,3.119,3.119,0,0,1-.179-.978,10.092,10.092,0,0,1,.037-1.287,6.149,6.149,0,0,1,.24-1.38c.188-.555.4-1.185.487-1.407a9.345,9.345,0,0,1,.576-1.239,9.854,9.854,0,0,1,.905-1.168,14.051,14.051,0,0,1,.948-1.1,13.229,13.229,0,0,1,1.123-.8l-.035,0a4.157,4.157,0,0,1,1.123-.48l.126-.156.442-.191a16.378,16.378,0,0,1,2.034-.295l.317-.035a7.369,7.369,0,0,1,.919-.065,10.487,10.487,0,0,1,1.376.2l-.071.008a3.638,3.638,0,0,1,1.142.338,8.384,8.384,0,0,1,1.391.667l.262.114c.269.184.8.482.8.482.359.352.484.517.6.611l.258.4c.043.067.008.07.2.227a3.371,3.371,0,0,1,.613.717,4.731,4.731,0,0,1,.351.924c.012.106.055.172.067.278a6.9,6.9,0,0,1,.131,1.2,4.667,4.667,0,0,1-.017,1.142,4.884,4.884,0,0,1-.225,1.521,7.016,7.016,0,0,1-.709,1.325,3.334,3.334,0,0,1-1.28,1l.035,0a2.537,2.537,0,0,1-1.35.362l.07-.008a1.676,1.676,0,0,1-1.114-.733l.039.031a1.781,1.781,0,0,1-.4-1.346,1.589,1.589,0,0,1,.749-1.294l.266-.172.059-.113.141-.336-.031.039a2.262,2.262,0,0,0,.11-.618,4.825,4.825,0,0,0-.135-1.232c-.008-.07-.054-.172-.062-.242a.6.6,0,0,0-.062-.243c-.242-.258-.836-.8-1.031-.955a1.808,1.808,0,0,0-.774-.236l.035,0-.333-.106-.262-.114a2.994,2.994,0,0,0-1.161-.193,5.772,5.772,0,0,0-1.087.155c-.07.007-.243.062-.313.07-.14.015-.313.07-.453.085a2.024,2.024,0,0,0-.419.082s0,.035-.062.078l-.654.535-.435.261-.133.086.032-.039a8.606,8.606,0,0,0-.838,1.126,5.783,5.783,0,0,0-.538,1.27c-.07.328-.291,1.564-.3,1.849a4.775,4.775,0,0,0,.007.712l.039.352a2.3,2.3,0,0,0,.054.493,2.42,2.42,0,0,0,.152.411l.148.376.269.5.211.3.015.141a5.189,5.189,0,0,0,.637.927l0,.035a.809.809,0,0,1,.379.208,11.586,11.586,0,0,0,1.286,1,3.347,3.347,0,0,0,.872.474l1.114.412.54.048a2.093,2.093,0,0,1,.688.1l-.07.008.473.09a2.76,2.76,0,0,0,.684.067c.352-.039.884-.061,1.2-.1s.736-.117,1.119-.194a6.79,6.79,0,0,0,1.178-.308,1.642,1.642,0,0,0,.634-.39l.372-.184c.059-.113.336-.179.54-.273a3.3,3.3,0,0,0,.5-.3l.454-.406.349-.394a9.06,9.06,0,0,0,.764-.832l.411-.473c.129-.121.266-.172.294-.246a6.461,6.461,0,0,0,.278-.708l.161-.481.259-.563a2.673,2.673,0,0,0,.3-.531,1.893,1.893,0,0,0,.068-.684l.008.07c-.012-.106.047-.219.035-.324.059-.434.118-.868.146-1.263-.015-.141-.007-.391-.018-.5a5.9,5.9,0,0,0-.011-.747,6.99,6.99,0,0,0-.268-1.146c-.015-.141-.082-.419-.1-.559a2.107,2.107,0,0,0-.4-1.06l.039.031a8.463,8.463,0,0,1-.476-.767l-.191-.442.04.031c-.047-.127-.157-.279-.247-.462l-.791-.885-.781-.627-.5-.337-.422-.274c-.184-.051-.227-.118-.387-.278l-.152-.09c-.039-.032-.078-.063-.113-.059a3.606,3.606,0,0,0-.684-.388l-.364-.067-.258-.079a1.7,1.7,0,0,1-1.359-1.988,1.854,1.854,0,0,1,1.6-1.672c.035,0,.356,0,.391-.007.29.04,1.115-.229,1.123-.8a5.481,5.481,0,0,0-.042-.708c-.019-.176-.09-.489-.117-.735a4.239,4.239,0,0,0-.523-1.189,6.114,6.114,0,0,0-.789-1.018l-1.176-.975a7.763,7.763,0,0,0-1.055-.525l.039.031c-.434-.059-.836-.157-1.3-.178a4.82,4.82,0,0,0-1.412.12,5.406,5.406,0,0,0-1.225.526,7.5,7.5,0,0,0-1.092.761,5.066,5.066,0,0,0-.842,1.09c-.031.039-.063.078-.059.113a4.455,4.455,0,0,0-.56,1.059l.031-.039a6.264,6.264,0,0,0-.154,1.513l.093.845a1.547,1.547,0,0,1,.07.313c.023.532.023.532.085,1.1.027.246.007.391.023.532l.089.81c.108.986-.569,1.63-1.617,1.816a1.8,1.8,0,0,1-1.325-.389c-.391-.313-.664-.533-.718-1.025a3,3,0,0,1-.011-.747,1.565,1.565,0,0,0,.02-.465l-.046-.423a3.064,3.064,0,0,0-.1-.595c-.015-.141-.07-.313-.1-.559,0,0,0-.035.035,0l-.179-.657-.035-.317c0-.035.016-.18.012-.215a3.08,3.08,0,0,0,.056-.79c-.008-.07.055-.148.043-.254a3.2,3.2,0,0,1,.213-.985.968.968,0,0,0,.113-.262,7.4,7.4,0,0,1,.459-1.333,8.659,8.659,0,0,1,.69-1.18,1.532,1.532,0,0,0,.208-.379c.156-.2.122-.512.552-.809l.908-.812a3.191,3.191,0,0,1,.732-.472,2.461,2.461,0,0,0,.438-.226l.563-.383a1.715,1.715,0,0,1,.533-.344c.379-.113.786-.3,1.2-.382l1.2-.131a5.594,5.594,0,0,1,1.138-.018l-.07.008a1.318,1.318,0,0,0,.325.035,1.859,1.859,0,0,0,.461-.015,2.327,2.327,0,0,1,1.189.119l-.145-.02a3.741,3.741,0,0,1,.891.33l.755.38a4.382,4.382,0,0,1,.9.4c.383.243.731.49,1.117.768a5.738,5.738,0,0,1,.965,1,10.442,10.442,0,0,1,.746.951,2.617,2.617,0,0,1,.5,1.013l-.043-.067.132.235.5,1.334a7.966,7.966,0,0,1,.217,1.33l.019.176a3.727,3.727,0,0,1,.022,1.173,2.251,2.251,0,0,0-.043.254,6.57,6.57,0,0,0-.1,1.685,2.479,2.479,0,0,0,.46,1.268,3.477,3.477,0,0,0,.66.818l.359.352.5.657.253.364.164.2a2.884,2.884,0,0,1,.551.794l.331.747.273.54a2.542,2.542,0,0,1,.214.653l.156.446.347,1.209a7.254,7.254,0,0,1,.249,1.291,9.946,9.946,0,0,1,.042,1.029,4.061,4.061,0,0,1-.005.927l-.012-.106a.275.275,0,0,0-.023.109,10.632,10.632,0,0,1-.072,1.291l-.224.88Zm8.659-9.008a.424.424,0,1,0,.764.371c.274-.564.575-1.13.893-1.686-.234-.164-.455-.331-.684-.517C117.92,141.516,117.593,142.13,117.3,142.743Zm-6.373-1.877-.037-1.629a7.876,7.876,0,0,1,1.2-3.648l.075-.071a1.531,1.531,0,0,1,.3-.709c.037-.071,0-.142.3-.389.15-.142.412-.46.636-.673l.337-.39-.037.035a2.906,2.906,0,0,1,1.384-1.133l.187-.071.187-.142.487-.248a4.456,4.456,0,0,0,1.01-.5h.112a5.1,5.1,0,0,1,.562-.177l1.572-.248h-.037a5.946,5.946,0,0,1,2.1,0,4.386,4.386,0,0,1,1.235.354,3.562,3.562,0,0,1,.748.283l.412.248h.037a4.64,4.64,0,0,1,1.235.885l.337.319.112.142.187.248.674.6a1.786,1.786,0,0,1,.337.425,1.341,1.341,0,0,1,.561.744l.412.956a11.8,11.8,0,0,1,.524,1.665v.071a1.229,1.229,0,0,1,.075.5l.075.248a1.921,1.921,0,0,1,.187.921,9.956,9.956,0,0,1-1.123,4.816c0,.177-.037.248-.262.354,0,.035-.037.035-.037.071a3.067,3.067,0,0,1-.973,1.381,5.254,5.254,0,0,0-1.2,1.169,1.177,1.177,0,0,0-.449.248l.037-.071-.262.212-.3.213a5.748,5.748,0,0,1-1.5.708l-.674.212h.037a1.386,1.386,0,0,1-.711.213h-.449c-.075,0-.075.035-.187.035a.85.85,0,0,1-.3,0,1.22,1.22,0,0,1-.337.035h-1.048c-.412,0-.935,0-1.31-.035h-.225a5.718,5.718,0,0,1-3.106-1.665,4.4,4.4,0,0,0-.449-.425l-.636-.531-.187-.142a2.971,2.971,0,0,1-.935-1.275,1.942,1.942,0,0,0-.262-.708.457.457,0,0,1-.112-.283,5.708,5.708,0,0,1-.337-1.133l-.037-.071C111.035,142.459,110.923,141.4,110.923,140.865Zm4.984-1.8a1.482,1.482,0,0,0,.695.272,14.643,14.643,0,0,0,1.153,1.157c-.184.319-.372.658-.571,1.036a1.457,1.457,0,0,0-.709.519,1.485,1.485,0,1,0,2.622.454c.124-.235.253-.467.384-.7a10.184,10.184,0,0,0,1.6.816,1.454,1.454,0,0,0,.471.584,1.485,1.485,0,1,0,.332-2.572,7.993,7.993,0,0,1-1.277-.654c.454-.676.855-1.213,1.13-1.565a1.481,1.481,0,1,0-1.674-1.347c-.384.489-.77,1.018-1.148,1.576-.227-.214-.446-.441-.658-.672a1.483,1.483,0,1,0-2.353,1.1Zm3.263,1.746a9.02,9.02,0,0,0,3.265,1.57.425.425,0,0,0,.192-.827,8.141,8.141,0,0,1-2.942-1.421,12.809,12.809,0,0,1-2.521-2.467.432.432,0,0,0-.094-.093.42.42,0,0,0-.5,0,.425.425,0,0,0-.1.592A13.474,13.474,0,0,0,119.169,140.808Zm2.609-3.458a.427.427,0,0,0-.034-.6.419.419,0,0,0-.6.034,22.145,22.145,0,0,0-1.73,2.287c.219.185.444.359.67.527A22.81,22.81,0,0,1,121.778,137.35Zm10.331,13.694c.566-.083.985-1.076,1.043-1.316a6.567,6.567,0,0,1,.147-.766c.033-.138.109-.3.158-.508l.107-.448.263-1.1c.807-3.375,2.91-5.167,4.919-1.992l.488.7c.157.256,2.123,3.457,1.634,5.961l-.041.172a1.488,1.488,0,0,0,.275,1.595c.287.324,2.081,1.043,2.877,0a6.139,6.139,0,0,0,.386-.854c.123-.517.2-.973.295-1.386a6.572,6.572,0,0,1,.163-.835l.14-.585c.033-.138.117-.336.175-.577a5.466,5.466,0,0,0,.4-1.653l.247-1.033.634-2.652c.264-1.1.448-1.568.555-2.016l.189-.792a8.582,8.582,0,0,1,.248-.887,9.857,9.857,0,0,0,.372-1.4l.041-.172c.033-.138.04-.318.081-.49a2.069,2.069,0,0,0,.079-.637,1.507,1.507,0,0,0-1.278-1.507,1.724,1.724,0,0,0-1.959.734,5.676,5.676,0,0,0-.559,1.578l-.156.654c-.058.241-.073.456-.13.7a.471.471,0,0,1-.076.164,5.718,5.718,0,0,0-.224.784c-.5,2.393-2.394,1.94-3.7-.194l-.165-.222c-.1-.171-.586-1.05-.631-1.17l-.175-.333a1.1,1.1,0,0,1-.262-.427l-.622-1.2c-.324-.624-.616-1.385-.966-2.051l-.516-.888a.821.821,0,0,0-.129-.067,1.088,1.088,0,0,0-.492-.227,2.848,2.848,0,0,1-.267-.1l-.448-.107a1.333,1.333,0,0,0-.584.006,4.236,4.236,0,0,0-.973.568l.043-.026a1.351,1.351,0,0,0-.455.838,1.162,1.162,0,0,1-.1.267l-.42,1.756a9.753,9.753,0,0,1-.338,1.412c-.133.405-.291.914-.4,1.361l-.24.853a1.641,1.641,0,0,0-.117.336c-.156.654-.3,1.24-.36,1.662l-.255,1.068a5.227,5.227,0,0,0-.138.731c-.041.172-.032.284-.073.456-.158.509-.291.913-.382,1.292-.247,1.033-.446,1.714-.744,2.808a1.814,1.814,0,0,0,.068,1.545A2.5,2.5,0,0,0,132.109,151.043Zm35.669,2.858a1.728,1.728,0,0,0-1.871-.946l-.111.014a4.5,4.5,0,0,0-.685.291c-.128.062-.91.478-1.245.679-.319.154-.573.2-.86.336a8.327,8.327,0,0,0-.813.352l-1.244.6c-.542.261-2.472,1.153-3.1,0a2.227,2.227,0,0,1,1.164-2.724,11.937,11.937,0,0,0,1.182-.727,1.582,1.582,0,0,1,.176-.124,1.635,1.635,0,0,0,.539-2.226,1.459,1.459,0,0,0-2.079-.806l-1.276.615c-1.308.631-2.529.708-2.939-.47-.607-1.83,1.037-2.741,2.186-3.3l1.053-.507c.127-.062,1.546-.706,2.391-1.074l.829-.4a1.638,1.638,0,0,0,1.018-1.4,1.981,1.981,0,0,0-1.81-1.879,2.333,2.333,0,0,0-.763.211s-.335.122-.462.183l-1.244.6c-.829.4-1.627.785-2.184,1.014-.494.2-.972.43-1.419.645l-2.839,1.369a2.78,2.78,0,0,0-.905,3.5c.325.512.738,1.531,1.016,2.026a8.406,8.406,0,0,0,.489,1.258c.031.064.153.4.26.621l.215.447a5.764,5.764,0,0,1,.416.782,5.348,5.348,0,0,1,.309.559l.154.319c.061.128.091.271.137.366l.031.064a16.088,16.088,0,0,0,.816,1.612l.154.319a1.468,1.468,0,0,1,.167.509l.646,1.34c1.38,3.188,3.261,2.359,4.265,1.914l.128-.062a11.24,11.24,0,0,0,1.355-.614,9.249,9.249,0,0,1,1.119-.7l1.659-.8c.494-.2,1.164-.522,1.738-.8.383-.184.749-.322,1-.445l.447-.215A1.86,1.86,0,0,0,167.779,153.9Zm-60.89,22.38a1.647,1.647,0,0,0-1.835.433.924.924,0,0,0-.2.385c-.035.005-.211.28-.367.444l-.056.115-.161.129-.4.449-.161.13.156-.165a6.853,6.853,0,0,1-.723.458l-.516.143c-.416.093-.727.172-1.078.221a2.529,2.529,0,0,1-1.427-.231,1.526,1.526,0,0,0-.275-.176,6.749,6.749,0,0,1-2.992-4.554,8.831,8.831,0,0,1,.21-3.64,4.766,4.766,0,0,1,.566-1.33,4.292,4.292,0,0,1,3.063-2.142,2.693,2.693,0,0,1,2.137.454,1.486,1.486,0,0,1,.542,1.069,3.072,3.072,0,0,0-.53,1.074,1.46,1.46,0,0,0,1.782,1.5,2.56,2.56,0,0,0,1.956-1.88,3.607,3.607,0,0,0,.051-1.437,4.92,4.92,0,0,0-1.8-3.182,11.015,11.015,0,0,0-2.565-.967,8.984,8.984,0,0,0-2.144.011,5.8,5.8,0,0,0-1.79.5,14.175,14.175,0,0,0-1.532,1.071,7.088,7.088,0,0,0-2.578,3.325l-.03.04a2.446,2.446,0,0,0-.384.84,10.543,10.543,0,0,0-.527,4.185l.195,1.4a2.641,2.641,0,0,0,.222.827l-.04-.03c1.308,3.752,2.725,4.949,4.815,5.839a5.455,5.455,0,0,0,1.275.431l.626.128a4.054,4.054,0,0,0,1.386.2,3.364,3.364,0,0,0,.692-.167l.6-.083c.14-.019.556-.113.556-.113l-.17.059a5.3,5.3,0,0,0,2.684-1.266l0,.035a8.05,8.05,0,0,0,1.721-2.027l.111-.23a.675.675,0,0,0,.126-.375l0,.035A1.632,1.632,0,0,0,106.889,176.281Zm56.975.724c.02.176-.007.25-.206.38,0,.035-.031.039-.027.074a3.073,3.073,0,0,1-.758,1.476,5.111,5.111,0,0,0-.994,1.29,1.1,1.1,0,0,0-.394.294l.027-.075-.222.239-.258.243a5.3,5.3,0,0,1-1.327.864l-.609.283.035,0a1.263,1.263,0,0,1-.644.287l-.422.048c-.07.008-.066.043-.172.055a.76.76,0,0,1-.282.032,1.092,1.092,0,0,1-.313.071l-.985.112c-.387.044-.88.1-1.236.1l-.211.024a5.325,5.325,0,0,1-3.109-1.321,4.234,4.234,0,0,0-.47-.374l-.659-.46-.192-.121a2.967,2.967,0,0,1-1.024-1.166,2.006,2.006,0,0,0-.326-.676.47.47,0,0,1-.138-.269,5.981,5.981,0,0,1-.445-1.09l-.043-.066c-.075-.348-.3-1.391-.361-1.919l-.219-1.615a8.186,8.186,0,0,1,.713-3.753l.062-.078a1.574,1.574,0,0,1,.2-.736c.027-.074-.016-.141.237-.419.124-.157.335-.5.522-.737l.273-.423-.031.039a2.794,2.794,0,0,1,1.174-1.275l.168-.09.16-.161.43-.3a4.158,4.158,0,0,0,.894-.6l.106-.012a4.642,4.642,0,0,1,.508-.236l1.45-.415-.035,0a5.338,5.338,0,0,1,1.971-.225,3.978,3.978,0,0,1,1.2.22,3.285,3.285,0,0,1,.736.2l.415.2.035,0a4.4,4.4,0,0,1,1.261.747l.353.281.121.129.2.226.7.526a1.783,1.783,0,0,1,.365.386,1.339,1.339,0,0,1,.612.679l.5.906a12.267,12.267,0,0,1,.681,1.6l.008.07a1.291,1.291,0,0,1,.127.485l.1.238a2.011,2.011,0,0,1,.28.895A10.4,10.4,0,0,1,163.864,177Zm-2.764-2.679a20.108,20.108,0,0,0-.689-3.236,7.756,7.756,0,0,0-.692-1.383,10.679,10.679,0,0,0-1.7-1.446,9.355,9.355,0,0,0-1.722-.41,1.579,1.579,0,0,0-.559.1l.07-.008a5.8,5.8,0,0,1-.766.159,2.274,2.274,0,0,0-1.023.4l-.532.347c-.632.393-.822.913-1.258,1.462a12.323,12.323,0,0,0-.768,2.333,3.446,3.446,0,0,0-.118,1.154l.092.809A11.022,11.022,0,0,0,152.03,177a2.33,2.33,0,0,1,.259.4c.039.031.039.031.043.066l.165.2.2.191a6.048,6.048,0,0,0,1.426.943,3.63,3.63,0,0,0,1.523.539,3.685,3.685,0,0,0,1.27-.109C159.281,178.7,160.688,176.975,161.1,174.326Zm-11.743-13.078-8.266,20.8c-.062.16-.141.355-.381.388l-.229.027-.134-.183a.526.526,0,0,1-.03-.49l5.78-21.2a14.5,14.5,0,0,1-3.127-1.259c-.806,1.115-1.633,2.415-2.513,3.881-.206.343-.372.646-.521.932a8.234,8.234,0,0,1-.118,1.576,7.828,7.828,0,0,1-1.7,3.556,2.462,2.462,0,0,0-.712,1.312,4.672,4.672,0,0,0,.1,1.079c.273,1.1.442,1.508.679,2.282l.524,1.41.028.074a.123.123,0,0,0,.027.074c.127.477.257.918,0,1.283a1.654,1.654,0,0,1-1.706.955,1.729,1.729,0,0,1-1.5-1.267l-.007.07a10.78,10.78,0,0,1-.521-1.445,6.263,6.263,0,0,0-.694-1.82c-.272-.778-1.48-1.8-2.328-1.534A3.267,3.267,0,0,0,130,173.173l0-.035a3.547,3.547,0,0,0-.383,1.562,2.062,2.062,0,0,1-.087.81,1.31,1.31,0,0,1-.218.368l.043-.066a1.555,1.555,0,0,1-1.62.822,1.718,1.718,0,0,1-1.525-1.376l.023.109s0-.321.022-.532l.072-.669a6.084,6.084,0,0,1,.087-1.131l.023-.211a9.965,9.965,0,0,1,.079-1.06l.076-.7c.011-.105.057-.528.142-.982a19.509,19.509,0,0,0,.329-2.387l.061-.563c.012-.106.062-.243.073-.348l.08-.739a5.742,5.742,0,0,1,.084-.775c.085-.454.146-1.017.191-1.44.034-.317.022-.532.041-.708l.068-.634a12.137,12.137,0,0,1,.329-2.387c0-.035.051-.137.058-.207,0-.035.058-.208.062-.243a1.208,1.208,0,0,1,.482-.838l-.035,0a3.322,3.322,0,0,1,2.434-.77l.88.1a6.7,6.7,0,0,1,1.9.241,5.261,5.261,0,0,1,.771.119c.072.008.145.019.217.028.618-.186,5.242-1.51,7.535-.4l.444.223a11.281,11.281,0,0,1,4.652-3.991,3.729,3.729,0,0,1,4.4,1.18c.734,1.135.427,2.548-.82,3.778a5.334,5.334,0,0,1-1.2.9A9.7,9.7,0,0,1,149.357,161.248Zm-13.844,1.123a1.984,1.984,0,0,0-.807-.443l-.443-.19c-.282-.03-.771-.119-1.017-.145-1.745-.331-2.242.968-2.417,2.588-.065.6-.055,1.169-.089,1.807-.031,1.279,1.1,1.722,2.317,1.96,1.366.219,3.1-1.339,3.3-3.17A3.023,3.023,0,0,0,135.513,162.371Zm6.758-3.394c-.108-.055-.213-.107-.317-.157-1.387-.676-3.926-.284-5.544.075a4.756,4.756,0,0,1,3.338,3.186c.034.23.062.448.087.661C140.681,161.333,141.484,160.07,142.27,158.977Zm4.028.865c.232-.808.812-2.48,1.753-3a1.256,1.256,0,0,1,1.032-.1,1.382,1.382,0,0,1,.689.5,2.524,2.524,0,0,1,.268,1.863,4.8,4.8,0,0,0,.382-.338c.982-.968,1.24-1.991.712-2.809-.018-.028-.037-.058-.057-.086a2.96,2.96,0,0,0-3.407-.789,10.4,10.4,0,0,0-4.231,3.627A13.146,13.146,0,0,0,146.3,159.842Zm2.192.839a4.793,4.793,0,0,1-1.207.087c-.046.4-.068.72-.078.87l-.058.989.582-.8C147.9,161.592,148.2,161.169,148.49,160.68Zm.52-.975c.319-.7.489-1.377.209-1.758a.681.681,0,0,0-.312-.237.656.656,0,0,0-.618.06,3.68,3.68,0,0,0-.9,2.223A3.928,3.928,0,0,0,149.01,159.705Zm-30.229-3.194.319-.155c.041-.028.048-.063.3-.266l.408-.245a2.028,2.028,0,0,0,.616-.385l.035.007.955-.645a6.436,6.436,0,0,0,.581-.392,1.225,1.225,0,0,0-.408-2.171.99.99,0,0,1-.341-.1c-.1-.02-.306-.1-.515-.136l-.452-.087a2.35,2.35,0,0,0-2.052.72l.007-.035a1.138,1.138,0,0,1-.346.294,3.309,3.309,0,0,0-.608.531l-.856.88-.366.4c-.048.063.015.111-.193.251a1.193,1.193,0,0,0,.546,2.018C116,157.09,118.645,157.026,118.781,156.512Zm18.283,25.036-.323.468a9.272,9.272,0,0,1-1.731,1.586,12.416,12.416,0,0,1-2.234.99,8.239,8.239,0,0,1-3.019.193c-.4-.046-.86-.133-1.222-.208a11.567,11.567,0,0,1-4.153-1.957,12.886,12.886,0,0,1-3.348-3.987,27.646,27.646,0,0,1-1.443-3.566s-.018-.137-.486-1.638l.022.1c-.2-1.168-1.065-1.57-2.1-1.958a2.95,2.95,0,0,1-.834-.365,2.754,2.754,0,0,0-3.906,1.471,10.181,10.181,0,0,1-.964,1.943l.033,0a1.447,1.447,0,0,1-1.328.42,3.1,3.1,0,0,1-1.321-.522l-.157-.388a2.61,2.61,0,0,1,.454-1.9c.033,0,.037-.029.052-.162a5.786,5.786,0,0,0,.551-1.284c.093-.225,1.549-3.526,1.866-4.231l1.265-2.515c.276-.642.759-1.63,1.121-2.43l0,.033.187-.45,0-.033a.81.81,0,0,0,.242-.342l-.041.062.227-.513.126-.221c.42-.726,1.182-2.087,2.445-1.942l.233.027a1.71,1.71,0,0,1,.89.169,1.481,1.481,0,0,1,.732.96c-.008.066.022.1.08.177l.626,1.587-.03-.037a2.077,2.077,0,0,1,.268.6l.051.14.154.422a1.126,1.126,0,0,0,.124.385c.087.414.482,1.671,1.246,4.992.164.625.875,4.41.911,4.684a8.646,8.646,0,0,0,.269,1.176s.179.492.175.525a23.48,23.48,0,0,0,1.522,4.047l-.029-.037a3.3,3.3,0,0,0,.434.622,4.321,4.321,0,0,0,.688.752s.026.07.059.074c.151.152.18.189.214.193l.214.193a7.079,7.079,0,0,0,1.312.891,7.8,7.8,0,0,0,1.863.786c.3.067.657.142.857.165a8.91,8.91,0,0,0,.9.037,7.638,7.638,0,0,0,1.3-.188,1.571,1.571,0,0,0,.636-.264l.214-.11.293-.2.07-.026.626-.467.156-.184.115-.122.39-.46-.037.029a1.594,1.594,0,0,1,2.167-.391A1.653,1.653,0,0,1,137.064,181.548ZM117.9,167.195l-.546-2.285c-.207-.832-.723-1.329-1.265-.415a11.507,11.507,0,0,0-.868,1.988c-.008.066.022.1-.056.2a1.238,1.238,0,0,0,.6,1.214C116.272,168.186,117.991,168.754,117.9,167.195Z" transform="translate(0 0)" fill="#ee5758"/>
    <g id="Grupo_1035" data-name="Grupo 1035" transform="translate(163.249 161.759)">
      <path id="Caminho_210" data-name="Caminho 210" d="M350.425,245.42a2.116,2.116,0,1,1-2.109-2.058A2.069,2.069,0,0,1,350.425,245.42Zm-3.7,0a1.6,1.6,0,0,0,1.607,1.645,1.577,1.577,0,0,0,1.569-1.632,1.589,1.589,0,1,0-3.176-.012Zm1.268,1.08h-.477v-2.059a4.169,4.169,0,0,1,.791-.063,1.284,1.284,0,0,1,.715.151.571.571,0,0,1,.2.452.528.528,0,0,1-.427.477v.025a.607.607,0,0,1,.376.5,1.573,1.573,0,0,0,.151.515H348.8a1.775,1.775,0,0,1-.163-.5c-.038-.226-.163-.327-.427-.327h-.226Zm.012-1.167h.226c.264,0,.477-.088.477-.3,0-.188-.139-.314-.44-.314a1.112,1.112,0,0,0-.264.026Z" transform="translate(-346.194 -243.362)" fill="#ee5758"/>
    </g>
  </g>
</svg>
