<svg id="Grupo_162" data-name="Grupo 162" xmlns="http://www.w3.org/2000/svg" width="208.545" height="32" viewBox="0 0 208.545 32">
  <g id="Grupo_110" data-name="Grupo 110" transform="translate(34.475 0)">
    <path id="Caminho_284" data-name="Caminho 284" d="M589.989,209.393v.448H578.74V178.469h2.42v30.924Z" transform="translate(-578.74 -178.155)" fill="#fff"/>
    <path id="Caminho_285" data-name="Caminho 285" d="M660.816,178.469h2.42l7.215,25.994,6.364-25.994h.4l-7.709,31.372Z" transform="translate(-649.567 -178.155)" fill="#fff"/>
    <path id="Caminho_286" data-name="Caminho 286" d="M893.293,201.323c-.314,4.706-3.272,6.857-6.857,6.857v-.314c2.285,0,4.3-2.42,4.437-5.826.269-6.229-4.885-11.832-4.034-19.63.493-4.571,3.137-6.23,6.23-6.23v.314c-2.241,0-3.585,2.51-3.81,5.333C888.677,189.446,893.786,194.421,893.293,201.323Z" transform="translate(-844.264 -176.18)" fill="#fff"/>
    <path id="Caminho_287" data-name="Caminho 287" d="M978.145,178.872h-8.022v30.969H967.7V178.872H959.68v-.4h18.465Z" transform="translate(-907.469 -178.155)" fill="#fff"/>
    <path id="Caminho_288" data-name="Caminho 288" d="M1133.34,192.18c0,8.829-6.14,16-16.179,16-10.084,0-16.224-7.171-16.224-16,0-8.874,6.14-16,16.224-16C1127.2,176.18,1133.34,183.306,1133.34,192.18Zm-2.823,0c0-8.695-5.154-15.686-13.355-15.686-8.246,0-13.4,6.991-13.4,15.686,0,8.65,5.154,15.686,13.4,15.686C1125.362,207.866,1130.516,200.829,1130.516,192.18Z" transform="translate(-1029.366 -176.18)" fill="#fff"/>
    <path id="Caminho_289" data-name="Caminho 289" d="M1386.7,209.841l-3.63-6.678a13.417,13.417,0,0,1-5.468,1.12h-.179v5.557h-2.465V178.469h2.644c5.916,0,11.921,3.451,11.921,12.907,0,5.064-1.748,8.381-4.257,10.4l4.392,8.067Zm-8.65-6.005c4.034,0,8.784-3.541,8.784-12.459,0-8.963-4.75-12.5-8.784-12.5h-.627v24.963Z" transform="translate(-1265.828 -178.155)" fill="#fff"/>
    <path id="Caminho_290" data-name="Caminho 290" d="M1532.761,209.393v.448h-12.952V178.469h12.1v.4h-9.636v15.014h8.739v.448h-8.739v15.059Z" transform="translate(-1390.829 -178.155)" fill="#fff"/>
  </g>
  <path id="Caminho_291" data-name="Caminho 291" d="M1694.326,197.015a15.769,15.769,0,0,0-8.261-2.418c.193-.859.5-1.373,1.345-.946.671.34,1.275.362,1.667-.337a1.767,1.767,0,0,0,.224-.72h0a1.767,1.767,0,0,0-.224-.72c-.393-.7-1-.677-1.667-.337-.842.427-1.152-.087-1.345-.946a15.771,15.771,0,0,0,8.261-2.418,7.931,7.931,0,0,0,3.675-5.522,5.162,5.162,0,0,0-4.122-5.854,3.27,3.27,0,0,0-3.728,1.992,2.848,2.848,0,0,0,.344,3.7,1.746,1.746,0,0,0,2.044.57c.875-.375,1.486-.865.448-1.758a1.875,1.875,0,0,1-.591-2.5,1.261,1.261,0,0,1,1.595-.717c.753.242.5.707.261,1.245s-.056.962.655.774c1.041-.276,1.57.319,1.872,1.146a2.357,2.357,0,0,1-.674,2.882c-.176-.761-.365-1.56-1.109-1.37-.846.216-.259,1.005-.3,1.519-.212,2.432-1.493,3.823-3.874,3.943.675-1.024,1.309-2.019.639-3.226a1.5,1.5,0,0,0-1.69-.953c-.881.22-.208.875-.2,1.309a3.857,3.857,0,0,1-4.31,3.683v7.114a3.857,3.857,0,0,1,4.31,3.684c-.012.434-.685,1.089.2,1.309a1.5,1.5,0,0,0,1.69-.952c.67-1.207.035-2.2-.639-3.226,2.381.121,3.661,1.511,3.874,3.943.045.514-.542,1.3.3,1.519.744.19.933-.609,1.109-1.37a2.357,2.357,0,0,1,.674,2.882c-.3.828-.83,1.423-1.872,1.146-.71-.188-.888.247-.655.773s.492,1-.261,1.245a1.261,1.261,0,0,1-1.595-.717,1.875,1.875,0,0,1,.591-2.5c1.037-.892.427-1.382-.448-1.758a1.746,1.746,0,0,0-2.044.57,2.848,2.848,0,0,0-.344,3.7,3.27,3.27,0,0,0,3.728,1.992,5.162,5.162,0,0,0,4.122-5.854A7.931,7.931,0,0,0,1694.326,197.015Z" transform="translate(-1499.13 -176.647)" fill="#fff"/>
  <path id="Caminho_292" data-name="Caminho 292" d="M1733.392,254.127c-1.161,1.444-2.648,1.785-4.329,2.055-1.146.184-2.145.734-2.177,1.952h0c.032,1.217,1.031,1.768,2.177,1.952,1.68.27,3.168.611,4.329,2.055.549.682,1.9.194,2.581.9,1.177,1.211,1.2.193,1.365-.626.074-.362-.437-.765.085-1.111a4.63,4.63,0,0,0,2.335.6c.517-.09,1.231-.233.839-.951-.741-1.359.236-1.072.965-1.2.959-.174,1.911-.673,2.032-1.606h0c-.121-.933-1.073-1.433-2.032-1.606-.729-.132-1.706.155-.965-1.2.392-.718-.322-.861-.839-.951a4.63,4.63,0,0,0-2.335.6c-.521-.346-.01-.75-.085-1.111-.168-.819-.188-1.838-1.365-.626C1735.29,253.933,1733.94,253.445,1733.392,254.127Z" transform="translate(-1535.05 -242.189)" fill="#fff"/>
  <path id="Caminho_293" data-name="Caminho 293" d="M400.925,197.015a15.769,15.769,0,0,1,8.261-2.418c-.193-.859-.5-1.373-1.345-.946-.672.34-1.275.362-1.667-.337a1.761,1.761,0,0,1-.224-.72h0a1.761,1.761,0,0,1,.224-.72c.392-.7,1-.677,1.667-.337.842.427,1.152-.087,1.345-.946a15.771,15.771,0,0,1-8.261-2.418,7.932,7.932,0,0,1-3.675-5.522,5.163,5.163,0,0,1,4.122-5.854,3.27,3.27,0,0,1,3.728,1.992,2.848,2.848,0,0,1-.344,3.7,1.745,1.745,0,0,1-2.044.57c-.875-.375-1.485-.865-.449-1.758a1.875,1.875,0,0,0,.591-2.5,1.261,1.261,0,0,0-1.594-.717c-.753.242-.5.707-.262,1.245s.056.962-.654.774c-1.041-.276-1.57.319-1.872,1.146a2.357,2.357,0,0,0,.674,2.882c.176-.761.365-1.56,1.109-1.37.846.216.259,1.005.3,1.519.212,2.432,1.493,3.823,3.873,3.943-.674-1.024-1.309-2.019-.639-3.226a1.5,1.5,0,0,1,1.69-.953c.881.22.208.875.2,1.309a3.857,3.857,0,0,0,4.31,3.683v7.114a3.858,3.858,0,0,0-4.31,3.684c.012.434.685,1.089-.2,1.309a1.5,1.5,0,0,1-1.69-.952c-.67-1.207-.035-2.2.639-3.226-2.38.121-3.661,1.511-3.873,3.943-.045.514.543,1.3-.3,1.519-.744.19-.933-.609-1.109-1.37a2.357,2.357,0,0,0-.674,2.882c.3.828.83,1.423,1.872,1.146.71-.188.888.247.654.773s-.492,1,.262,1.245a1.261,1.261,0,0,0,1.594-.717,1.875,1.875,0,0,0-.591-2.5c-1.037-.892-.426-1.382.449-1.758a1.746,1.746,0,0,1,2.044.57,2.848,2.848,0,0,1,.344,3.7,3.27,3.27,0,0,1-3.728,1.992,5.163,5.163,0,0,1-4.122-5.854A7.932,7.932,0,0,1,400.925,197.015Z" transform="translate(-387.576 -176.647)" fill="#fff"/>
  <path id="Caminho_294" data-name="Caminho 294" d="M337.407,254.127c1.161,1.444,2.648,1.785,4.329,2.055,1.146.184,2.145.734,2.177,1.952h0c-.032,1.217-1.031,1.768-2.177,1.952-1.68.27-3.168.611-4.329,2.055-.549.682-1.9.194-2.581.9-1.178,1.211-1.2.193-1.366-.626-.074-.362.437-.765-.085-1.111a4.63,4.63,0,0,1-2.335.6c-.517-.09-1.231-.233-.84-.951.742-1.359-.235-1.072-.965-1.2-.959-.174-1.911-.673-2.032-1.606h0c.121-.933,1.073-1.433,2.032-1.606.729-.132,1.706.155.965-1.2-.391-.718.322-.861.84-.951a4.63,4.63,0,0,1,2.335.6c.522-.346.01-.75.085-1.111.169-.819.188-1.838,1.366-.626C335.508,253.933,336.858,253.445,337.407,254.127Z" transform="translate(-327.204 -242.189)" fill="#fff"/>
</svg>
