<svg xmlns="http://www.w3.org/2000/svg" xmlns:xlink="http://www.w3.org/1999/xlink" width="160.74" height="57" viewBox="0 0 160.74 57">
  <defs>
    <clipPath id="clip-path">
      <rect id="Retângulo_425" data-name="Retângulo 425" width="160.74" height="57" fill="none"/>
    </clipPath>
  </defs>
  <g id="LOGO_COVABRA" transform="translate(-9 0)">
    <g id="Grupo_1778" data-name="Grupo 1778" transform="translate(9 0)" clip-path="url(#clip-path)">
      <path id="Caminho_816" data-name="Caminho 816" d="M49.795,36.106a1.087,1.087,0,0,1,.476-.822,2.064,2.064,0,0,0,1.268.423c.5,0,.689-.158.689-.4s-.109-.361-.889-.56c-.746-.181-1.4-.469-1.406-1.358,0-.848.673-1.393,1.7-1.393a2.5,2.5,0,0,1,1.537.455,1.082,1.082,0,0,1-.476.834,1.969,1.969,0,0,0-1.131-.346c-.407,0-.627.153-.627.358,0,.221.1.319.889.511.829.207,1.392.559,1.408,1.351.02.959-.648,1.491-1.712,1.491a2.563,2.563,0,0,1-1.722-.546m6.143-1.337a1.743,1.743,0,0,0,1.918,1.9,1.781,1.781,0,0,0,1.894-1.925V32.12a3.553,3.553,0,0,0-.517-.041,2.929,2.929,0,0,0-.49.041v2.635a.888.888,0,1,1-1.771,0V32.12a3.576,3.576,0,0,0-.525-.041,3.222,3.222,0,0,0-.51.041v2.649m9.15-1.222c0,.423-.249.753-.889.753-.172,0-.33,0-.482-.007v-1.4c.151-.014.309-.02.473-.02.615,0,.9.26.9.673m1.056-.013c0-.924-.559-1.536-1.994-1.536a7.021,7.021,0,0,0-1.466.151v4.392a2.808,2.808,0,0,0,.522.041,2.587,2.587,0,0,0,.511-.041V35.182c.155.006.318.006.482.006,1.186,0,1.945-.591,1.945-1.653m5.709,2.545a2.024,2.024,0,0,0-.049-.456H69.839v-.889h1.687a1.874,1.874,0,0,0,.049-.449,1.951,1.951,0,0,0-.049-.455H69.839v-.8h1.9a1.763,1.763,0,0,0,.057-.455,1.741,1.741,0,0,0-.057-.462H68.812v4.427H71.8a2.082,2.082,0,0,0,.049-.462m3.8-3.153c.179-.013.354-.02.536-.02.512,0,.76.234.76.613,0,.358-.213.647-.752.647-.172,0-.358,0-.545-.007Zm1.557,1.862A1.414,1.414,0,0,0,78,33.457c0-.861-.552-1.418-1.889-1.418a8.054,8.054,0,0,0-1.491.143v4.359a2.874,2.874,0,0,0,.525.041,2.587,2.587,0,0,0,.511-.041V35.01c.174.007.346.007.5.007H76.2l.913,1.551c.074.007.174.007.26.007a3.7,3.7,0,0,0,.869-.083Zm8.254-2.661a2.876,2.876,0,0,0-.525-.046,3.4,3.4,0,0,0-.54.039l-1.1,2.733-.069.22-.085-.22L81.947,32.12a4.063,4.063,0,0,0-.559-.039,2.07,2.07,0,0,0-.517.053v4.407a2.961,2.961,0,0,0,.468.041,3.2,3.2,0,0,0,.484-.041V34.4l-.028-.571.155.42.8,1.918a3.836,3.836,0,0,0,.434.028,3.387,3.387,0,0,0,.427-.028l.76-1.911.172-.5-.035.648v2.139a3.208,3.208,0,0,0,.483.041,2.976,2.976,0,0,0,.468-.041V32.127m6.027,3.952a2.025,2.025,0,0,0-.049-.456H89.476v-.889h1.691a2.111,2.111,0,0,0,.046-.449,2.2,2.2,0,0,0-.046-.455H89.476v-.8h1.9a1.86,1.86,0,0,0,0-.917H88.449v4.427H91.44a2.082,2.082,0,0,0,.049-.462m3.8-3.153c.178-.013.353-.02.539-.02.511,0,.757.234.757.613,0,.358-.217.647-.752.647-.172,0-.358,0-.545-.007Zm1.558,1.862a1.418,1.418,0,0,0,.785-1.331c0-.861-.55-1.418-1.89-1.418a8.019,8.019,0,0,0-1.487.143v4.359a2.817,2.817,0,0,0,.522.041,2.587,2.587,0,0,0,.511-.041V35.01c.172.007.344.007.5.007h.049l.909,1.551c.08.007.172.007.262.007a3.7,3.7,0,0,0,.869-.083Zm3.35-.461a2.177,2.177,0,0,0,2.283,2.338,2.233,2.233,0,0,0,1.49-.449,1.068,1.068,0,0,0-.56-.829,1.339,1.339,0,1,1-.862-2.439,1.264,1.264,0,0,1,.78.256,1.164,1.164,0,0,0,.56-.809,2.122,2.122,0,0,0-1.364-.427,2.248,2.248,0,0,0-2.327,2.359m7.565.482.372-1.019.122-.428.14.428.372,1.019Zm1.039-2.695a2.363,2.363,0,0,0-.5-.043,2.742,2.742,0,0,0-.533.043l-1.655,4.378a1.637,1.637,0,0,0,.545.076,3.755,3.755,0,0,0,.47-.027l.318-.875h1.639l.318.875a2.39,2.39,0,0,0,.379.034,2.947,2.947,0,0,0,.662-.083Zm7.008,2.177a1.249,1.249,0,0,1-1.331,1.375c-.167,0-.318-.007-.468-.015V33c.158-.013.3-.013.44-.013a1.219,1.219,0,0,1,1.359,1.3m1.13-.013c0-1.351-.9-2.255-2.535-2.255a8.062,8.062,0,0,0-1.427.111v4.4a10.207,10.207,0,0,0,1.446.09,2.271,2.271,0,0,0,2.516-2.345m6.031.042a1.216,1.216,0,1,1-1.2-1.38,1.217,1.217,0,0,1,1.2,1.38m-3.526,0a2.323,2.323,0,1,0,2.324-2.352,2.228,2.228,0,0,0-2.324,2.352m7.1,1.785a2.572,2.572,0,0,0,1.722.546c1.065,0,1.733-.532,1.714-1.491-.014-.792-.58-1.144-1.407-1.351-.8-.192-.889-.29-.889-.511,0-.206.22-.358.627-.358a1.971,1.971,0,0,1,1.13.346,1.059,1.059,0,0,0,.476-.834A2.48,2.48,0,0,0,128.381,32c-1.021,0-1.7.545-1.7,1.393.006.889.661,1.177,1.406,1.358.778.2.888.332.888.56s-.19.4-.686.4a2.067,2.067,0,0,1-1.271-.423,1.087,1.087,0,0,0-.476.822" transform="translate(19.915 12.786)" fill="#fff"/>
      <path id="Caminho_817" data-name="Caminho 817" d="M63.3,26.054A3.339,3.339,0,0,1,66.7,22.476a3.462,3.462,0,0,1,3.445,3.631v.052a3.335,3.335,0,0,1-3.391,3.578,3.464,3.464,0,0,1-3.448-3.63Zm3.448-7.595a7.726,7.726,0,0,0-7.964,7.648v.052a7.946,7.946,0,0,0,15.878-.052v-.053a7.677,7.677,0,0,0-7.914-7.595m17.688.713L81.6,27.61l-2.822-8.437a.7.7,0,0,0-.62-.449H74.24a.3.3,0,0,0-.3.441L79.386,33.1a.741.741,0,0,0,.645.438H83.11a.744.744,0,0,0,.645-.438L89.2,19.164a.3.3,0,0,0-.3-.441H85.064a.7.7,0,0,0-.623.449m30.976,6.934c0,2.106-1.34,3.631-3.182,3.631s-3.155-1.526-3.155-3.631v-.053c0-2.1,1.326-3.63,3.155-3.63a3.352,3.352,0,0,1,3.182,3.63Zm-6.286-5.845V14.072a.473.473,0,0,0-.473-.473h-3.626a.471.471,0,0,0-.47.473V32.964a.471.471,0,0,0,.47.472h3.626a.472.472,0,0,0,.473-.472v-.939a5.565,5.565,0,0,0,4.134,1.677,6.435,6.435,0,0,0,4.681-1.973,7.911,7.911,0,0,0,2.043-5.624v-.053c0-4.985-3.382-7.593-6.724-7.593a5.346,5.346,0,0,0-4.134,1.8m16.419-1.539h-3.626a.473.473,0,0,0-.473.472v13.77a.474.474,0,0,0,.473.473h3.626a.474.474,0,0,0,.473-.473V27.93c0-3.085,1.392-4.715,4.028-4.715h0a.472.472,0,0,0,.473-.475v-3.8a.478.478,0,0,0-.473-.479l.224-.006a4.386,4.386,0,0,0-4.249,2.234v-1.5a.474.474,0,0,0-.473-.472m14.657,9.444c0,1.319-1.151,2.2-2.866,2.2-.927,0-1.914-.378-1.914-1.439v-.052c0-1.46,1.561-1.677,2.493-1.677a6.028,6.028,0,0,1,2.286.433Zm-7.282-8.678a.518.518,0,0,0-.287.631l.885,2.7a.455.455,0,0,0,.589.291,9.624,9.624,0,0,1,3.281-.56c1.772,0,2.7.727,2.756,2.164a10.262,10.262,0,0,0-3.179-.475c-3.8,0-5.985,1.749-5.985,4.793v.053c0,2.758,2.066,4.611,5.139,4.611a5.775,5.775,0,0,0,4-1.408v.671a.473.473,0,0,0,.47.473h3.494a.474.474,0,0,0,.473-.473v-8.02c0-4.175-2.281-6.378-6.59-6.378a12.69,12.69,0,0,0-5.051.923m-34.7,8.678c0,1.319-1.151,2.2-2.866,2.2-.924,0-1.914-.378-1.914-1.439v-.052c0-1.46,1.564-1.677,2.5-1.677a6.029,6.029,0,0,1,2.283.433Zm-7.278-8.678a.52.52,0,0,0-.29.631l.882,2.7a.46.46,0,0,0,.594.291,9.607,9.607,0,0,1,3.279-.56c1.772,0,2.7.727,2.756,2.164a10.259,10.259,0,0,0-3.178-.475c-3.8,0-5.985,1.749-5.985,4.793v.053c0,2.758,2.066,4.611,5.141,4.611a5.775,5.775,0,0,0,4-1.408v.671a.473.473,0,0,0,.473.473h3.491a.475.475,0,0,0,.476-.473v-8.02c0-4.175-2.281-6.378-6.592-6.378a12.658,12.658,0,0,0-5.047.923M58.075,30.173a.247.247,0,0,0-.063-.162L55.37,27.342a.254.254,0,0,0-.178-.071.246.246,0,0,0-.161.06L55,27.353a6.392,6.392,0,0,1-4.67,2.094c-2.9,0-5.083-2.38-5.083-5.534v-.053a5.176,5.176,0,0,1,5.083-5.479A6.532,6.532,0,0,1,54.876,20.4l.029.028a.254.254,0,0,0,.157.052.258.258,0,0,0,.183-.074l2.622-3.024a.29.29,0,0,0,.06-.171.3.3,0,0,0-.066-.185l-.017-.017a9.9,9.9,0,0,0-7.487-2.931,9.66,9.66,0,0,0-9.917,9.839v.053A9.56,9.56,0,0,0,50.2,33.754a9.67,9.67,0,0,0,7.785-3.389l.021-.022a.248.248,0,0,0,.069-.169" transform="translate(16.174 5.439)" fill="#fff"/>
      <path id="Caminho_818" data-name="Caminho 818" d="M48.322,8.027a8.381,8.381,0,0,1-5.6,14.624,9.348,9.348,0,0,1-6.13-2.67,23.288,23.288,0,0,0-3.746-2.4c-.508-.239-1.011-.456-1.512-.662-8.552-3.659-16.952-2.56-22.8,3.108-5.321,5.153-7.413,12.858-5.9,20.463A28.333,28.333,0,0,1,.092,30.824C.029,30.06,0,29.284,0,28.5s.029-1.558.092-2.324A28.487,28.487,0,0,1,48.322,8.027M36.838,53.994a19.186,19.186,0,0,1-8.881-2.127c-4.043-2.113-10.795-7.662-11.128-21.25-.006-.249-.083-1.887-.083-2.117A11.751,11.751,0,0,1,27.481,16.8c-6.889-1.9-13.414-.507-18.136,4.068-5.7,5.526-7.477,14.172-4.8,22.284a14.623,14.623,0,0,0,.624,1.508,13.145,13.145,0,0,0,.724,1.2,28.455,28.455,0,0,0,37.02,7.231,20.893,20.893,0,0,1-6.076.909M28.5,50.837a19.174,19.174,0,0,0,17.89-.459c.553-.337,1.086-.7,1.609-1.091.078-.078.158-.153.238-.225A8.383,8.383,0,1,0,36.677,36.937,11.987,11.987,0,0,1,35.269,38.1a11.744,11.744,0,0,1-17-3.823c1.3,10.323,6.8,14.764,10.227,16.556" transform="translate(0 0)" fill="#fff"/>
    </g>
  </g>
</svg>
