<svg id="Grupo_382" data-name="Grupo 382" xmlns="http://www.w3.org/2000/svg" width="116.309" height="49.196" viewBox="0 0 116.309 49.196">
  <path id="Caminho_52" data-name="Caminho 52" d="M966.273,719.692l-.267-.213h-.249l-.26.164-3.186,7.372h-.058l-3.2-7.372-.26-.164h-.245l-.276.213-1.9,9.7a.262.262,0,0,0,.29.333h1l.267-.205,1.109-6.448h.06l2.771,6.641.267.156h.269l.261-.156,2.754-6.641h.042l1.133,6.448.295.205h.992a.253.253,0,0,0,.278-.333Z" transform="translate(-931.501 -680.673)" fill="#fff"/>
  <path id="Caminho_53" data-name="Caminho 53" d="M971.62,719.609h-1.005a.3.3,0,0,0-.3.272v9.552a.3.3,0,0,0,.3.278h1.005a.293.293,0,0,0,.29-.278v-9.552a.291.291,0,0,0-.29-.272" transform="translate(-929.884 -680.658)" fill="#fff"/>
  <path id="Caminho_54" data-name="Caminho 54" d="M981.521,728.372h-4.152v-8.491l-.288-.27h-1.012a.28.28,0,0,0-.288.27v9.553a.283.283,0,0,0,.288.277h5.452a.284.284,0,0,0,.288-.277v-.79a.278.278,0,0,0-.288-.271" transform="translate(-929.251 -680.658)" fill="#fff"/>
  <path id="Caminho_55" data-name="Caminho 55" d="M988.5,719.642l-.259-.163h-.154l-.262.163-4.7,9.712a.256.256,0,0,0,.261.372h.964a.4.4,0,0,0,.356-.219c.3-.657.628-1.31.931-1.976h5.012l.941,1.976a.359.359,0,0,0,.351.219h.968a.257.257,0,0,0,.261-.372Zm-2.262,6.647,1.863-3.954h.078l1.881,3.954" transform="translate(-928.402 -680.673)" fill="#fff"/>
  <path id="Caminho_56" data-name="Caminho 56" d="M1003.473,719.624h-.983a.279.279,0,0,0-.289.272v6.825h-.017l-6.64-7.243h-.385l-.291.261v9.708l.291.278h.969a.288.288,0,0,0,.288-.278v-7.021h.018l6.636,7.442h.4a.279.279,0,0,0,.286-.262V719.9Z" transform="translate(-927.037 -680.673)" fill="#fff"/>
  <path id="Caminho_57" data-name="Caminho 57" d="M1011.662,719.479a5.2,5.2,0,1,0,5.505,5.212,5.34,5.34,0,0,0-5.505-5.212m0,8.952a3.762,3.762,0,1,1,3.979-3.741A3.872,3.872,0,0,1,1011.662,728.431Z" transform="translate(-925.727 -680.673)" fill="#fff"/>
  <path id="Caminho_58" data-name="Caminho 58" d="M1048.153,712.728l-7.943-27.461h-2.6l-7.946,27.461h-6.013V685.267h-3.813v27.461h-7.057V698.9h-3.807v9.748a10.647,10.647,0,0,1-6.38-9.748c0-7.58,6.687-10.057,8.289-10.542v-3.651a14.938,14.938,0,0,0-6.361,2.865,13.993,13.993,0,0,0,.1,22.666,18.63,18.63,0,0,0,4.764,2.491H992.4V698.9h-3.811v9.748a10.652,10.652,0,0,1-6.377-9.748c0-7.58,6.684-10.057,8.288-10.542v-3.651a14.972,14.972,0,0,0-6.361,2.865,13.986,13.986,0,0,0,.1,22.666,18.448,18.448,0,0,0,4.763,2.491H974.863l-7.942-27.461h-2.6l-7.947,27.461h-6.087V698.9h-3.808v9.748c-2.595-1.291-6.386-4.134-6.386-9.748,0-7.58,6.691-10.059,8.295-10.542v-3.651a14.938,14.938,0,0,0-6.361,2.865,14,14,0,0,0,.1,22.666,18.53,18.53,0,0,0,4.766,2.491h-12.81v3.588h116.309v-3.588Zm-82.534-18.312,2.369,8.209H963.25Zm-5.291,18.312,1.884-6.515h6.825l1.884,6.515Zm78.578-18.312,2.376,8.209h-4.745Zm-5.3,18.312,1.894-6.515h6.818l1.886,6.515" transform="translate(-934.086 -684.706)" fill="#fff"/>
</svg>
