<svg xmlns="http://www.w3.org/2000/svg" xmlns:xlink="http://www.w3.org/1999/xlink" width="145" height="145" viewBox="0 0 145 145">
  <defs>
    <filter id="Ret창ngulo_1672" x="0" y="0" width="145" height="145" filterUnits="userSpaceOnUse">
      <feOffset dy="3" input="SourceAlpha"/>
      <feGaussianBlur stdDeviation="3" result="blur"/>
      <feFlood flood-opacity="0.161"/>
      <feComposite operator="in" in2="blur"/>
      <feComposite in="SourceGraphic"/>
    </filter>
  </defs>
  <g id="Grupo_2714" data-name="Grupo 2714" transform="translate(4211 2862)">
    <g transform="matrix(1, 0, 0, 1, -4211, -2862)" filter="url(#Ret창ngulo_1672)">
      <rect id="Ret창ngulo_1672-2" data-name="Ret창ngulo 1672" width="127" height="127" rx="63.5" transform="translate(9 6)" fill="#61dcab"/>
    </g>
    <g id="magnet" transform="translate(-4164 -2826.071)">
      <path id="Caminho_217167" data-name="Caminho 217167" d="M75.67,121.2h16v11.258h-16Z" transform="translate(-75.67 -103.996)" fill="#00175d"/>
      <path id="Caminho_217168" data-name="Caminho 217168" d="M323.285,121.2h16v11.258h-16Z" transform="translate(-288.14 -103.996)" fill="#00175d"/>
      <path id="Caminho_217169" data-name="Caminho 217169" d="M110.815,244.612c-.527,12.7-18.623,12.693-19.146,0v-14.1h-16V244.98c1.409,33.933,49.749,33.907,51.145,0V230.513h-16Z" transform="translate(-75.67 -197.795)" fill="#00175d"/>
      <g id="Grupo_2700" data-name="Grupo 2700" transform="translate(9.656)">
        <path id="Caminho_217170" data-name="Caminho 217170" d="M143.7,0h4.258V10.891H143.7Z" transform="translate(-143.702)" fill="#00175d"/>
      </g>
      <g id="Grupo_2701" data-name="Grupo 2701" transform="translate(37.23)">
        <path id="Caminho_217171" data-name="Caminho 217171" d="M337.975,0h4.258V10.891h-4.258Z" transform="translate(-337.975)" fill="#00175d"/>
      </g>
      <g id="Grupo_2702" data-name="Grupo 2702" transform="translate(23.443)">
        <path id="Caminho_217172" data-name="Caminho 217172" d="M240.839,0H245.1V10.891h-4.258Z" transform="translate(-240.839)" fill="#00175d"/>
      </g>
    </g>
  </g>
</svg>
