<svg xmlns="http://www.w3.org/2000/svg" xmlns:xlink="http://www.w3.org/1999/xlink" width="145" height="145" viewBox="0 0 145 145">
  <defs>
    <filter id="Ret창ngulo_1673" x="0" y="0" width="145" height="145" filterUnits="userSpaceOnUse">
      <feOffset dy="3" input="SourceAlpha"/>
      <feGaussianBlur stdDeviation="3" result="blur"/>
      <feFlood flood-opacity="0.161"/>
      <feComposite operator="in" in2="blur"/>
      <feComposite in="SourceGraphic"/>
    </filter>
  </defs>
  <g id="Grupo_2715" data-name="Grupo 2715" transform="translate(4050 2862)">
    <g transform="matrix(1, 0, 0, 1, -4050, -2862)" filter="url(#Ret창ngulo_1673)">
      <rect id="Ret창ngulo_1673-2" data-name="Ret창ngulo 1673" width="127" height="127" rx="63.5" transform="translate(9 6)" fill="#61dcab"/>
    </g>
    <g id="seo" transform="translate(-4008.464 -2826.071)">
      <path id="Caminho_217173" data-name="Caminho 217173" d="M61.806,28.172l-5.048,5.045h0a19.213,19.213,0,0,1-31.565,8.535L38.4,28.541l7,7a2.128,2.128,0,0,0,3.008,0L68.185,15.782l2.737,2.737a2.129,2.129,0,0,0,3.632-1.5L74.568,2.13A2.127,2.127,0,0,0,73.944.623,2.09,2.09,0,0,0,72.437,0L57.561.025a2.129,2.129,0,0,0-1.5,3.632l2.7,2.7L46.843,18.272l-7.108-7.109a2.128,2.128,0,0,0-3.009,0L19.134,28.754a19.247,19.247,0,0,1,28.848-17.64l3.1-3.1c-15.129-9.8-35.655.612-36.217,18.992a23.479,23.479,0,1,0,46.942,1.165Z" transform="translate(-14.853 0)" fill="#00175d"/>
      <path id="Caminho_217174" data-name="Caminho 217174" d="M312.956,318.72l-20.7-20.7a27.95,27.95,0,0,1-9.017,9.037l20.692,20.692a2.128,2.128,0,0,0,3.009,0l6.018-6.018A2.128,2.128,0,0,0,312.956,318.72Z" transform="translate(-245.168 -255.745)" fill="#00175d"/>
    </g>
  </g>
</svg>
