<svg xmlns="http://www.w3.org/2000/svg" xmlns:xlink="http://www.w3.org/1999/xlink" width="145" height="145" viewBox="0 0 145 145">
  <defs>
    <filter id="Ret창ngulo_1674" x="0" y="0" width="145" height="145" filterUnits="userSpaceOnUse">
      <feOffset dy="3" input="SourceAlpha"/>
      <feGaussianBlur stdDeviation="3" result="blur"/>
      <feFlood flood-opacity="0.161"/>
      <feComposite operator="in" in2="blur"/>
      <feComposite in="SourceGraphic"/>
    </filter>
  </defs>
  <g id="Grupo_2767" data-name="Grupo 2767" transform="translate(4761 3097.5)">
    <g id="Grupo_2711" data-name="Grupo 2711" transform="translate(-872 -235.5)">
      <g transform="matrix(1, 0, 0, 1, -3889, -2862)" filter="url(#Ret창ngulo_1674)">
        <rect id="Ret창ngulo_1674-2" data-name="Ret창ngulo 1674" width="127" height="127" rx="63.5" transform="translate(9 6)" fill="#61dcab"/>
      </g>
      <g id="graphic-design" transform="translate(-3848 -2826)">
        <path id="Caminho_217175" data-name="Caminho 217175" d="M57.439,143.686a11.45,11.45,0,0,1-3.27,6.71c-2.243,2.244-5.378,3.3-9.315,3.141a7.63,7.63,0,0,0-4.246.744,4.639,4.639,0,0,1-6.333-.212,4.668,4.668,0,0,1-.724-5.623l.741-1.174a9.043,9.043,0,0,0,.513-3.783c-.158-3.938.9-7.072,3.142-9.314a11.387,11.387,0,0,1,6.726-3.277,10.847,10.847,0,0,1,2.26-4.7H20.293a5.314,5.314,0,0,0-5.309,5.307v26.324H70.365V131.69l-6.73,8.247A10.846,10.846,0,0,1,57.439,143.686Z" transform="translate(-14.984 -109.469)" fill="#00175d"/>
        <path id="Caminho_217176" data-name="Caminho 217176" d="M14.983,396.524a5.314,5.314,0,0,0,5.309,5.306H35.379v4.552H32.035a1.988,1.988,0,1,0,0,3.977H53.311a1.988,1.988,0,1,0,0-3.977H49.967V401.83H65.055a5.314,5.314,0,0,0,5.309-5.306v-1.7H14.983v1.7Z" transform="translate(-14.983 -342.492)" fill="#00175d"/>
        <path id="Caminho_217177" data-name="Caminho 217177" d="M180.836,206.21h-.007a.663.663,0,0,0,.941.933c.041-.038,2.048-1.895,6.994-1.7,2.783.112,4.916-.554,6.342-1.98a7.494,7.494,0,1,0-10.6-10.6c-1.426,1.426-2.092,3.56-1.98,6.342.2,4.973-1.677,6.975-1.692,6.991Z" transform="translate(-158.684 -165.406)" fill="#00175d"/>
        <path id="Caminho_217178" data-name="Caminho 217178" d="M278.327,133.158a6.853,6.853,0,0,0,3.335-2.222l2.54-3.113-9.05-9.05-3.1,2.532a6.843,6.843,0,0,0-2.228,3.332,11.468,11.468,0,0,1,8.5,8.521Z" transform="translate(-236.044 -103.029)" fill="#00175d"/>
        <path id="Caminho_217179" data-name="Caminho 217179" d="M353.872,1.194a4.052,4.052,0,0,0-5.444-.273L333.376,13.215l8.482,8.482L354.147,6.636a4.052,4.052,0,0,0-.274-5.443Z" transform="translate(-291.172 0)" fill="#00175d"/>
      </g>
    </g>
  </g>
</svg>
