<svg xmlns="http://www.w3.org/2000/svg" width="108.045" height="50.439" viewBox="0 0 108.045 50.439">
  <path id="Interseção_16" data-name="Interseção 16" d="M26.472,50.439H18.437a10.234,10.234,0,0,1-2.575-.328l-.007,0-.03-.012-.032-.008.006,0a10.931,10.931,0,0,1-4.772-3.963A21.32,21.32,0,0,1,9.407,42.72c-.251-.533-.456-.871-.842-1.55a10.089,10.089,0,0,0-2.22-2.684H0c0-.012,0-.038,0-.05A2.26,2.26,0,0,1,1.724,36.25l.018-.005A6.353,6.353,0,0,1,3.887,36H17.864a10.314,10.314,0,0,1,1.432.1,10.133,10.133,0,0,1,4.773,2l1.29-5.009.292-1.135,4.141-15.952a10.1,10.1,0,0,1,7.351-6.9l-.013,0a10.257,10.257,0,0,1,2.2-.239H53.306a10.3,10.3,0,0,1,1.432.1,9.777,9.777,0,0,1,8.159,6.7c.138.481.159.7.4,1.589l1.751,6.931c.054.167.385,1.338.41,1.423l-2.232,8.795,4.194-16.524L69.9,8.171a9.877,9.877,0,0,1,.284-1.112A10.111,10.111,0,0,1,78.41.15l1.4-.139L82.6,0l.853,0h0L96.98.011a10.149,10.149,0,0,1,9.385,6.282h1.679c0,.011,0,.022,0,.033a2.217,2.217,0,0,1-2.228,2.205,2.279,2.279,0,0,1-.315-.022L91.278,8.5l-.148,0-.46-.025h0L90.4,8.453c-1.3-.1-1.6-.907-2.019-2.056l-1.263,4.954-1.831,7.18L81.215,34.4l-.015.071a10.1,10.1,0,0,1-9.967,8.188H59.586a10.194,10.194,0,0,1-3.528-.627,10.091,10.091,0,0,1-6.185-6.547q-.124-.414-.213-.842l-1.849-7.32-.553-2.187-.657-2.6-.009-.035-.035-.139-.2-.8L45.472,25l-.611,2.372s-4.016,15.85-4.234,16.448A10.127,10.127,0,0,1,31.1,50.439Z" fill="#61dcab"/>
</svg>
